<svg width="114" height="50" viewBox="0 0 114 50" fill="none" xmlns="http://www.w3.org/2000/svg">
<g clip-path="url(#clip0_1550_412835)">
<path d="M19.4939 33.8157C20.0443 32.3859 20.2367 30.8444 20.0543 29.3242C19.872 27.804 19.3204 26.3507 18.4471 25.0896C17.5738 23.8284 16.405 22.7973 15.0415 22.085C13.678 21.3727 12.1606 21.0007 10.6202 21.001H1.78411C1.31106 21.0014 0.857509 21.1883 0.523013 21.5208C0.188517 21.8532 0.000414382 22.304 3.35438e-07 22.7742V39.6123C-0.000415632 41.2574 0.386045 42.8797 1.12854 44.3499C1.87104 45.8201 2.94901 47.0975 4.27645 48.0802C5.60389 49.0628 7.14404 49.7234 8.77401 50.0094C10.404 50.2954 12.0786 50.1987 13.6644 49.7272C15.2501 49.2557 16.703 48.4223 17.9071 47.2936C19.1112 46.1649 20.0332 44.7721 20.5995 43.2264C21.1658 41.6807 21.3607 40.0248 21.1688 38.3908C20.9768 36.7569 20.4033 35.1902 19.4939 33.8157ZM10.6202 46.6149C9.69429 46.6155 8.7773 46.4348 7.92166 46.0831C7.06601 45.7314 6.28846 45.2156 5.63343 44.5652C4.97841 43.9147 4.45874 43.1424 4.10412 42.2923C3.74949 41.4422 3.56686 40.531 3.56665 39.6108V24.5473H10.6202C12.1932 24.5473 13.7018 25.168 14.8145 26.2731C15.9272 27.3781 16.553 28.877 16.5542 30.4403C16.5542 30.5781 16.5495 30.7164 16.5401 30.8552C14.7907 29.6848 12.7291 29.0614 10.6202 29.065C10.2169 29.0662 9.81387 29.0895 9.41309 29.1349C9.03998 29.1775 8.66939 29.2397 8.30291 29.3214C7.89129 29.3939 7.5187 29.6087 7.25091 29.9277C6.98312 30.2467 6.83735 30.6496 6.83935 31.065V37.8438C6.84042 38.2458 6.97839 38.6356 7.23081 38.9496C7.48322 39.2637 7.83521 39.4836 8.22942 39.5735C8.60868 39.6703 8.99353 39.744 9.38182 39.7942C10.8037 39.9837 12.2503 39.8489 13.612 39.4001C14.9737 38.9512 16.2146 38.2 17.2407 37.2035C17.6297 38.2621 17.7561 39.3984 17.6091 40.5158C17.4622 41.6333 17.0462 42.6991 16.3964 43.6227C15.7467 44.5464 14.8824 45.3006 13.8768 45.8215C12.8713 46.3424 11.7542 46.6146 10.6202 46.6149ZM10.406 32.6098H10.6202C12.2791 32.604 13.8861 33.184 15.1548 34.2462C15.0469 34.3705 14.9359 34.4917 14.8186 34.6067C14.2691 35.1561 13.6153 35.5917 12.8951 35.888C12.175 36.1844 11.4028 36.3358 10.6233 36.3333H10.4091L10.406 32.6098Z" fill="#159ADD"/>
<path d="M46.666 50.1609C46.3437 50.1693 46.0242 50.0988 45.7357 49.9558C45.4848 49.8212 45.2678 49.6321 45.1008 49.4026C44.8457 49.024 44.6358 48.6172 44.4754 48.1904C44.2424 47.617 44.0329 47.1026 43.8624 46.6472L42.4708 42.7295H30.8999L29.5067 46.7327C29.0204 48.1407 28.6045 49.0933 28.2714 49.5673C27.9946 49.9574 27.5115 50.1578 26.8344 50.1578C26.5417 50.1568 26.2524 50.0945 25.9855 49.9751C25.7185 49.8557 25.4798 49.6818 25.2849 49.4647C25.0755 49.2675 24.9084 49.0302 24.7936 48.7672C24.6789 48.5041 24.6189 48.2207 24.6172 47.934C24.6211 47.562 24.6763 47.1923 24.7814 46.8353C24.8986 46.4328 25.0941 45.8655 25.3818 45.1056L32.3118 26.2565L33.0249 24.3046C33.2446 23.675 33.5275 23.069 33.8692 22.4957C34.1439 22.0554 34.5188 21.6854 34.9638 21.4156C35.4807 21.1267 36.0676 20.9847 36.6603 21.0053C37.2607 20.9824 37.8558 21.1243 38.3803 21.4156C38.8263 21.6824 39.205 22.047 39.4874 22.4817C39.7875 22.9545 40.0394 23.4558 40.2395 23.9782C40.4615 24.5532 40.7351 25.3039 41.0573 26.2114L48.1421 44.9518C48.6753 46.3224 48.9442 47.3124 48.9442 47.9045C48.9343 48.4865 48.6945 49.0413 48.2766 49.4492C48.0761 49.6768 47.8282 49.8584 47.5501 49.9813C47.272 50.1042 46.9703 50.1655 46.666 50.1609ZM32.0445 39.1831H41.2934L36.6306 25.495L32.0445 39.1831Z" fill="#159ADD"/>
<path d="M64.4319 50.1616C63.1503 50.1748 61.8721 50.0307 60.626 49.7327C59.5351 49.4721 58.496 49.0314 57.5519 48.4288C56.585 47.7946 55.7293 47.0072 55.0188 46.0978C54.3068 45.1851 53.7108 44.1887 53.2441 43.1311C52.7441 42.0041 52.3728 40.825 52.137 39.6158C51.8833 38.3006 51.7587 36.9641 51.7649 35.625C51.7649 33.3452 52.0776 31.283 52.7031 29.4989C53.2611 27.8061 54.1578 26.243 55.3393 24.9036C56.4509 23.659 57.8223 22.6704 59.3579 22.0068C60.9157 21.3384 62.5959 20.9977 64.2927 21.006C66.4115 21.006 68.3222 21.4645 69.9703 22.3674C71.6184 23.2703 72.8927 24.3876 73.7621 25.7055C74.6315 27.0233 75.0521 28.2355 75.0521 29.3684C75.0587 29.9159 74.8597 30.4461 74.4939 30.8556C74.3387 31.0533 74.1401 31.2132 73.9133 31.3231C73.6865 31.433 73.4375 31.49 73.1851 31.4897C72.5941 31.4897 72.1563 31.3482 71.8811 31.0716C71.5574 30.7453 71.2009 30.1796 70.7865 29.342C70.0407 27.8438 69.1494 26.7078 68.1283 25.9603C67.1073 25.2128 65.8157 24.815 64.3193 24.815C61.9473 24.815 60.0271 25.7972 58.6136 27.7335C57.2267 29.6357 56.5246 32.3584 56.5246 35.8239C56.5246 38.1301 56.8373 40.082 57.4409 41.6252C58.0663 43.2041 58.9639 44.4007 60.1147 45.1809C61.3023 45.9745 62.7071 46.3853 64.1379 46.3573C65.7938 46.3573 67.2199 45.9066 68.3754 45.0161C69.5309 44.1257 70.4081 42.828 70.9882 41.1217C71.1589 40.4974 71.4315 39.9053 71.7951 39.3687C72.0593 38.9957 72.5096 38.8093 73.1382 38.8093C73.4015 38.8078 73.6622 38.8614 73.9034 38.9666C74.1445 39.0718 74.3606 39.2263 74.5377 39.42C74.7311 39.6204 74.8821 39.8574 74.9817 40.1168C75.0814 40.3763 75.1277 40.653 75.1178 40.9305C75.0963 41.9037 74.891 42.8642 74.5127 43.762C74.0529 44.8769 73.4039 45.9051 72.5941 46.8018C71.6578 47.8355 70.5128 48.6615 69.2338 49.2261C67.8641 49.8461 66.2504 50.1616 64.4319 50.1616Z" fill="#159ADD"/>
<path d="M83.3997 50.1616C83.0842 50.1698 82.7711 50.1055 82.4846 49.9737C82.1982 49.8419 81.9463 49.6462 81.7485 49.4017C81.3076 48.8842 81.084 48.0792 81.084 47.0085V24.1359C81.084 23.0651 81.3045 22.2632 81.7391 21.752C81.9387 21.5078 82.1925 21.3129 82.4806 21.1826C82.7688 21.0524 83.0834 20.9903 83.3997 21.0014C83.7221 20.9899 84.0429 21.0514 84.3379 21.1811C84.6329 21.3109 84.8943 21.5055 85.1025 21.7504C85.5403 22.2524 85.7624 23.0558 85.7624 24.1374V47.0085C85.7624 48.0963 85.5388 48.8966 85.0994 49.4095C84.8924 49.6551 84.6316 49.8505 84.3371 49.9809C84.0425 50.1112 83.7219 50.1731 83.3997 50.1616Z" fill="#159ADD"/>
<path d="M105.383 9.49965H106.988L106.233 7.42188L105.383 9.49965Z" fill="#EE7538"/>
<path d="M90.8384 9.02734C90.7439 9.02734 90.6495 9.02734 90.5551 9.02734H89.0439V10.444H90.5551C90.9328 10.5385 91.3106 10.2551 91.4051 9.87734C91.4995 9.49957 91.2162 9.12179 90.8384 9.02734Z" fill="#EE7538"/>
<path d="M91.1217 7.42185C91.1217 7.04408 90.8384 6.76074 90.3662 6.76074H89.0439V7.98852H90.3662C90.8384 8.08296 91.1217 7.79963 91.1217 7.42185Z" fill="#EE7538"/>
<path d="M112.278 1H83.9444C83.3778 1 83 1.37778 83 1.94444V15.1667C83 15.7333 83.3778 16.1111 83.9444 16.1111H87.7222V19.8889C87.7222 20.2667 87.9111 20.6444 88.2889 20.7389C88.3833 20.8333 88.4778 20.8333 88.6667 20.8333C88.95 20.8333 89.1389 20.7389 89.3278 20.55L93.7667 16.1111H112.278C112.844 16.1111 113.222 15.7333 113.222 15.1667V1.94444C113.222 1.37778 112.75 1 112.278 1ZM90.8389 11.4833C90.7444 11.4833 90.7444 11.4833 90.65 11.4833H87.8167V5.81667H90.65C91.5 5.72222 92.2556 6.28889 92.35 7.13889V7.23333C92.35 7.8 92.0667 8.27222 91.5944 8.46111C92.1611 8.65 92.6333 9.21667 92.6333 9.87778C92.5389 10.8222 91.7833 11.4833 90.8389 11.4833ZM97.9222 6.85555H94.8056V7.98889H97.6389V9.12222H94.8056V10.35H97.9222V11.4833H93.5778V5.81667H97.9222V6.85555ZM101.511 11.4833H100.283V6.95H98.4889V5.81667H103.211V6.95H101.511V11.4833ZM107.839 11.4833L107.461 10.5389H104.911L104.533 11.4833H103.211L105.478 5.81667H106.8L109.161 11.4833H107.839Z" fill="#EE7538"/>
</g>
<defs>
<clipPath id="clip0_1550_412835">
<rect width="114" height="50" fill="white"/>
</clipPath>
</defs>
</svg>
