<svg width="387" height="181" viewBox="0 0 387 181" fill="none" xmlns="http://www.w3.org/2000/svg">
<rect width="387" height="181" rx="4" fill="#FAFAFA"/>
<path d="M109.939 90.624C109.939 88.992 110.315 87.528 111.067 86.232C111.835 84.936 112.867 83.928 114.163 83.208C115.475 82.472 116.907 82.104 118.459 82.104C120.235 82.104 121.811 82.544 123.187 83.424C124.579 84.288 125.587 85.52 126.211 87.12H122.923C122.491 86.24 121.891 85.584 121.123 85.152C120.355 84.72 119.467 84.504 118.459 84.504C117.355 84.504 116.371 84.752 115.507 85.248C114.643 85.744 113.963 86.456 113.467 87.384C112.987 88.312 112.747 89.392 112.747 90.624C112.747 91.856 112.987 92.936 113.467 93.864C113.963 94.792 114.643 95.512 115.507 96.024C116.371 96.52 117.355 96.768 118.459 96.768C119.467 96.768 120.355 96.552 121.123 96.12C121.891 95.688 122.491 95.032 122.923 94.152H126.211C125.587 95.752 124.579 96.984 123.187 97.848C121.811 98.712 120.235 99.144 118.459 99.144C116.891 99.144 115.459 98.784 114.163 98.064C112.867 97.328 111.835 96.312 111.067 95.016C110.315 93.72 109.939 92.256 109.939 90.624ZM135.649 99.216C134.401 99.216 133.273 98.936 132.265 98.376C131.257 97.8 130.465 97 129.889 95.976C129.313 94.936 129.025 93.736 129.025 92.376C129.025 91.032 129.321 89.84 129.913 88.8C130.505 87.76 131.313 86.96 132.337 86.4C133.361 85.84 134.505 85.56 135.769 85.56C137.033 85.56 138.177 85.84 139.201 86.4C140.225 86.96 141.033 87.76 141.625 88.8C142.217 89.84 142.513 91.032 142.513 92.376C142.513 93.72 142.209 94.912 141.601 95.952C140.993 96.992 140.161 97.8 139.105 98.376C138.065 98.936 136.913 99.216 135.649 99.216ZM135.649 96.84C136.353 96.84 137.009 96.672 137.617 96.336C138.241 96 138.745 95.496 139.129 94.824C139.513 94.152 139.705 93.336 139.705 92.376C139.705 91.416 139.521 90.608 139.153 89.952C138.785 89.28 138.297 88.776 137.689 88.44C137.081 88.104 136.425 87.936 135.721 87.936C135.017 87.936 134.361 88.104 133.753 88.44C133.161 88.776 132.689 89.28 132.337 89.952C131.985 90.608 131.809 91.416 131.809 92.376C131.809 93.8 132.169 94.904 132.889 95.688C133.625 96.456 134.545 96.84 135.649 96.84ZM161.726 85.56C162.766 85.56 163.694 85.776 164.51 86.208C165.342 86.64 165.99 87.28 166.454 88.128C166.934 88.976 167.174 90 167.174 91.2V99H164.462V91.608C164.462 90.424 164.166 89.52 163.574 88.896C162.982 88.256 162.174 87.936 161.15 87.936C160.126 87.936 159.31 88.256 158.702 88.896C158.11 89.52 157.814 90.424 157.814 91.608V99H155.102V91.608C155.102 90.424 154.806 89.52 154.214 88.896C153.622 88.256 152.814 87.936 151.79 87.936C150.766 87.936 149.95 88.256 149.342 88.896C148.75 89.52 148.454 90.424 148.454 91.608V99H145.718V85.776H148.454V87.288C148.902 86.744 149.47 86.32 150.158 86.016C150.846 85.712 151.582 85.56 152.366 85.56C153.422 85.56 154.366 85.784 155.198 86.232C156.03 86.68 156.67 87.328 157.118 88.176C157.518 87.376 158.142 86.744 158.99 86.28C159.838 85.8 160.75 85.56 161.726 85.56ZM172.547 84.024C172.051 84.024 171.635 83.856 171.299 83.52C170.963 83.184 170.795 82.768 170.795 82.272C170.795 81.776 170.963 81.36 171.299 81.024C171.635 80.688 172.051 80.52 172.547 80.52C173.027 80.52 173.435 80.688 173.771 81.024C174.107 81.36 174.275 81.776 174.275 82.272C174.275 82.768 174.107 83.184 173.771 83.52C173.435 83.856 173.027 84.024 172.547 84.024ZM173.891 85.776V99H171.155V85.776H173.891ZM184.656 85.56C185.696 85.56 186.624 85.776 187.44 86.208C188.272 86.64 188.92 87.28 189.384 88.128C189.848 88.976 190.08 90 190.08 91.2V99H187.368V91.608C187.368 90.424 187.072 89.52 186.48 88.896C185.888 88.256 185.08 87.936 184.056 87.936C183.032 87.936 182.216 88.256 181.608 88.896C181.016 89.52 180.72 90.424 180.72 91.608V99H177.984V85.776H180.72V87.288C181.168 86.744 181.736 86.32 182.424 86.016C183.128 85.712 183.872 85.56 184.656 85.56ZM199.398 85.56C200.422 85.56 201.326 85.768 202.11 86.184C202.91 86.584 203.534 87.088 203.982 87.696V85.776H206.742V99.216C206.742 100.432 206.486 101.512 205.974 102.456C205.462 103.416 204.718 104.168 203.742 104.712C202.782 105.256 201.63 105.528 200.286 105.528C198.494 105.528 197.006 105.104 195.822 104.256C194.638 103.424 193.966 102.288 193.806 100.848H196.518C196.726 101.536 197.166 102.088 197.838 102.504C198.526 102.936 199.342 103.152 200.286 103.152C201.39 103.152 202.278 102.816 202.95 102.144C203.638 101.472 203.982 100.496 203.982 99.216V97.008C203.518 97.632 202.886 98.16 202.086 98.592C201.302 99.008 200.406 99.216 199.398 99.216C198.246 99.216 197.19 98.928 196.23 98.352C195.286 97.76 194.534 96.944 193.974 95.904C193.43 94.848 193.158 93.656 193.158 92.328C193.158 91 193.43 89.824 193.974 88.8C194.534 87.776 195.286 86.984 196.23 86.424C197.19 85.848 198.246 85.56 199.398 85.56ZM203.982 92.376C203.982 91.464 203.79 90.672 203.406 90C203.038 89.328 202.55 88.816 201.942 88.464C201.334 88.112 200.678 87.936 199.974 87.936C199.27 87.936 198.614 88.112 198.006 88.464C197.398 88.8 196.902 89.304 196.518 89.976C196.15 90.632 195.966 91.416 195.966 92.328C195.966 93.24 196.15 94.04 196.518 94.728C196.902 95.416 197.398 95.944 198.006 96.312C198.63 96.664 199.286 96.84 199.974 96.84C200.678 96.84 201.334 96.664 201.942 96.312C202.55 95.96 203.038 95.448 203.406 94.776C203.79 94.088 203.982 93.288 203.982 92.376ZM223.066 99.168C221.946 99.168 220.938 98.976 220.042 98.592C219.146 98.192 218.442 97.632 217.93 96.912C217.418 96.192 217.162 95.352 217.162 94.392H220.09C220.154 95.112 220.434 95.704 220.93 96.168C221.442 96.632 222.154 96.864 223.066 96.864C224.01 96.864 224.746 96.64 225.274 96.192C225.802 95.728 226.066 95.136 226.066 94.416C226.066 93.856 225.898 93.4 225.562 93.048C225.242 92.696 224.834 92.424 224.338 92.232C223.858 92.04 223.186 91.832 222.322 91.608C221.234 91.32 220.346 91.032 219.658 90.744C218.986 90.44 218.41 89.976 217.93 89.352C217.45 88.728 217.21 87.896 217.21 86.856C217.21 85.896 217.45 85.056 217.93 84.336C218.41 83.616 219.082 83.064 219.946 82.68C220.81 82.296 221.81 82.104 222.946 82.104C224.562 82.104 225.882 82.512 226.906 83.328C227.946 84.128 228.522 85.232 228.634 86.64H225.61C225.562 86.032 225.274 85.512 224.746 85.08C224.218 84.648 223.522 84.432 222.658 84.432C221.874 84.432 221.234 84.632 220.738 85.032C220.242 85.432 219.994 86.008 219.994 86.76C219.994 87.272 220.146 87.696 220.45 88.032C220.77 88.352 221.17 88.608 221.65 88.8C222.13 88.992 222.786 89.2 223.618 89.424C224.722 89.728 225.618 90.032 226.306 90.336C227.01 90.64 227.602 91.112 228.082 91.752C228.578 92.376 228.826 93.216 228.826 94.272C228.826 95.12 228.594 95.92 228.13 96.672C227.682 97.424 227.018 98.032 226.138 98.496C225.274 98.944 224.25 99.168 223.066 99.168ZM238.29 99.216C237.042 99.216 235.914 98.936 234.906 98.376C233.898 97.8 233.106 97 232.53 95.976C231.954 94.936 231.666 93.736 231.666 92.376C231.666 91.032 231.962 89.84 232.554 88.8C233.146 87.76 233.954 86.96 234.978 86.4C236.002 85.84 237.146 85.56 238.41 85.56C239.674 85.56 240.818 85.84 241.842 86.4C242.866 86.96 243.674 87.76 244.266 88.8C244.858 89.84 245.154 91.032 245.154 92.376C245.154 93.72 244.85 94.912 244.242 95.952C243.634 96.992 242.802 97.8 241.746 98.376C240.706 98.936 239.554 99.216 238.29 99.216ZM238.29 96.84C238.994 96.84 239.65 96.672 240.258 96.336C240.882 96 241.386 95.496 241.77 94.824C242.154 94.152 242.346 93.336 242.346 92.376C242.346 91.416 242.162 90.608 241.794 89.952C241.426 89.28 240.938 88.776 240.33 88.44C239.722 88.104 239.066 87.936 238.362 87.936C237.658 87.936 237.002 88.104 236.394 88.44C235.802 88.776 235.33 89.28 234.978 89.952C234.626 90.608 234.45 91.416 234.45 92.376C234.45 93.8 234.81 94.904 235.53 95.688C236.266 96.456 237.186 96.84 238.29 96.84ZM254.095 99.216C252.847 99.216 251.719 98.936 250.711 98.376C249.703 97.8 248.911 97 248.335 95.976C247.759 94.936 247.471 93.736 247.471 92.376C247.471 91.032 247.767 89.84 248.359 88.8C248.951 87.76 249.759 86.96 250.783 86.4C251.807 85.84 252.951 85.56 254.215 85.56C255.479 85.56 256.623 85.84 257.647 86.4C258.671 86.96 259.479 87.76 260.071 88.8C260.663 89.84 260.959 91.032 260.959 92.376C260.959 93.72 260.655 94.912 260.047 95.952C259.439 96.992 258.607 97.8 257.551 98.376C256.511 98.936 255.359 99.216 254.095 99.216ZM254.095 96.84C254.799 96.84 255.455 96.672 256.063 96.336C256.687 96 257.191 95.496 257.575 94.824C257.959 94.152 258.151 93.336 258.151 92.376C258.151 91.416 257.967 90.608 257.599 89.952C257.231 89.28 256.743 88.776 256.135 88.44C255.527 88.104 254.871 87.936 254.167 87.936C253.463 87.936 252.807 88.104 252.199 88.44C251.607 88.776 251.135 89.28 250.783 89.952C250.431 90.608 250.255 91.416 250.255 92.376C250.255 93.8 250.615 94.904 251.335 95.688C252.071 96.456 252.991 96.84 254.095 96.84ZM270.835 85.56C271.875 85.56 272.803 85.776 273.619 86.208C274.451 86.64 275.099 87.28 275.563 88.128C276.027 88.976 276.259 90 276.259 91.2V99H273.547V91.608C273.547 90.424 273.251 89.52 272.659 88.896C272.067 88.256 271.259 87.936 270.235 87.936C269.211 87.936 268.395 88.256 267.787 88.896C267.195 89.52 266.899 90.424 266.899 91.608V99H264.163V85.776H266.899V87.288C267.347 86.744 267.915 86.32 268.603 86.016C269.307 85.712 270.051 85.56 270.835 85.56Z" fill="#808080"/>
<path fill-rule="evenodd" clip-rule="evenodd" d="M361.25 16C361.25 10.6152 365.615 6.25 371 6.25C376.385 6.25 380.75 10.6152 380.75 16C380.75 21.3848 376.385 25.75 371 25.75C365.615 25.75 361.25 21.3848 361.25 16ZM374.61 14.1859C374.851 13.8489 374.773 13.3805 374.436 13.1397C374.099 12.8989 373.63 12.977 373.39 13.3141L370.154 17.8436L368.53 16.2197C368.237 15.9268 367.763 15.9268 367.47 16.2197C367.177 16.5126 367.177 16.9874 367.47 17.2803L369.72 19.5303C369.876 19.6862 370.092 19.7656 370.312 19.7474C370.532 19.7293 370.732 19.6153 370.86 19.4359L374.61 14.1859Z" fill="#2C69A1"/>
</svg>
