<svg width="387" height="181" viewBox="0 0 387 181" fill="none" xmlns="http://www.w3.org/2000/svg">
<rect x="0.5" y="0.5" width="386" height="180" rx="3.5" fill="white" stroke="#FAFAFA"/>
<mask id="mask0_3553_189147" style="mask-type:alpha" maskUnits="userSpaceOnUse" x="0" y="0" width="387" height="181">
<rect x="0.5" y="0.5" width="386" height="180" rx="3.5" fill="#FAFAFA" stroke="#FAFAFA"/>
</mask>
<g mask="url(#mask0_3553_189147)">
<g opacity="0.6">
<rect x="29.5" y="12.5" width="247" height="343" rx="7.5" fill="#FAFAFA" stroke="#0B6623"/>
</g>
<g opacity="0.6">
<path opacity="0.1" d="M29 20C29 15.5817 32.5817 12 37 12H269C273.418 12 277 15.5817 277 20V60H29V20Z" fill="#0B6623"/>
</g>
<path opacity="0.6" d="M65.032 30.832L61.912 42H59.272L57.176 34.048L54.984 42L52.36 42.016L49.352 30.832H51.752L53.72 39.504L55.992 30.832H58.488L60.632 39.456L62.616 30.832H65.032ZM72.0866 33.008C72.7586 33.008 73.356 33.1573 73.8786 33.456C74.4013 33.744 74.8066 34.176 75.0946 34.752C75.3933 35.3173 75.5426 36 75.5426 36.8V42H73.3026V37.104C73.3026 36.4 73.1266 35.8613 72.7746 35.488C72.4226 35.104 71.9426 34.912 71.3346 34.912C70.716 34.912 70.2253 35.104 69.8626 35.488C69.5106 35.8613 69.3346 36.4 69.3346 37.104V42H67.0946V30.16H69.3346V34.24C69.6226 33.856 70.0066 33.5573 70.4866 33.344C70.9666 33.12 71.5 33.008 72.0866 33.008ZM77.6968 37.536C77.6968 36.64 77.8728 35.8453 78.2248 35.152C78.5874 34.4587 79.0728 33.9253 79.6808 33.552C80.2994 33.1787 80.9874 32.992 81.7448 32.992C82.4061 32.992 82.9821 33.1253 83.4728 33.392C83.9741 33.6587 84.3741 33.9947 84.6728 34.4V33.136H86.9288V42H84.6728V40.704C84.3848 41.12 83.9848 41.4667 83.4728 41.744C82.9714 42.0107 82.3901 42.144 81.7288 42.144C80.9821 42.144 80.2994 41.952 79.6808 41.568C79.0728 41.184 78.5874 40.6453 78.2248 39.952C77.8728 39.248 77.6968 38.4427 77.6968 37.536ZM84.6728 37.568C84.6728 37.024 84.5661 36.56 84.3528 36.176C84.1394 35.7813 83.8514 35.4827 83.4888 35.28C83.1261 35.0667 82.7368 34.96 82.3208 34.96C81.9048 34.96 81.5208 35.0613 81.1688 35.264C80.8168 35.4667 80.5288 35.7653 80.3048 36.16C80.0914 36.544 79.9848 37.0027 79.9848 37.536C79.9848 38.0693 80.0914 38.5387 80.3048 38.944C80.5288 39.3387 80.8168 39.6427 81.1688 39.856C81.5314 40.0693 81.9154 40.176 82.3208 40.176C82.7368 40.176 83.1261 40.0747 83.4888 39.872C83.8514 39.6587 84.1394 39.36 84.3528 38.976C84.5661 38.5813 84.6728 38.112 84.6728 37.568ZM92.3245 34.976V39.264C92.3245 39.5627 92.3938 39.7813 92.5325 39.92C92.6818 40.048 92.9272 40.112 93.2685 40.112H94.3085V42H92.9005C91.0125 42 90.0685 41.0827 90.0685 39.248V34.976H89.0125V33.136H90.0685V30.944H92.3245V33.136H94.3085V34.976H92.3245ZM115.86 30.832L112.74 42H110.1L108.004 34.048L105.812 42L103.188 42.016L100.18 30.832H102.58L104.548 39.504L106.82 30.832H109.316L111.46 39.456L113.444 30.832H115.86ZM126.163 37.376C126.163 37.696 126.141 37.984 126.099 38.24H119.619C119.672 38.88 119.896 39.3813 120.291 39.744C120.685 40.1067 121.171 40.288 121.747 40.288C122.579 40.288 123.171 39.9307 123.523 39.216H125.939C125.683 40.0693 125.192 40.7733 124.467 41.328C123.741 41.872 122.851 42.144 121.795 42.144C120.941 42.144 120.173 41.9573 119.491 41.584C118.819 41.2 118.291 40.6613 117.907 39.968C117.533 39.2747 117.347 38.4747 117.347 37.568C117.347 36.6507 117.533 35.8453 117.907 35.152C118.28 34.4587 118.803 33.9253 119.475 33.552C120.147 33.1787 120.92 32.992 121.795 32.992C122.637 32.992 123.389 33.1733 124.051 33.536C124.723 33.8987 125.24 34.416 125.603 35.088C125.976 35.7493 126.163 36.512 126.163 37.376ZM123.843 36.736C123.832 36.16 123.624 35.7013 123.219 35.36C122.813 35.008 122.317 34.832 121.731 34.832C121.176 34.832 120.707 35.0027 120.323 35.344C119.949 35.6747 119.72 36.1387 119.635 36.736H123.843ZM133.31 33.008C134.366 33.008 135.219 33.344 135.87 34.016C136.52 34.6773 136.846 35.6053 136.846 36.8V42H134.606V37.104C134.606 36.4 134.43 35.8613 134.078 35.488C133.726 35.104 133.246 34.912 132.638 34.912C132.019 34.912 131.528 35.104 131.166 35.488C130.814 35.8613 130.638 36.4 130.638 37.104V42H128.398V33.136H130.638V34.24C130.936 33.856 131.315 33.5573 131.774 33.344C132.243 33.12 132.755 33.008 133.31 33.008ZM142.184 34.976V39.264C142.184 39.5627 142.253 39.7813 142.392 39.92C142.541 40.048 142.787 40.112 143.128 40.112H144.168V42H142.76C140.872 42 139.928 41.0827 139.928 39.248V34.976H138.872V33.136H139.928V30.944H142.184V33.136H144.168V34.976H142.184ZM165.72 30.832L162.6 42H159.96L157.864 34.048L155.672 42L153.048 42.016L150.04 30.832H152.44L154.408 39.504L156.68 30.832H159.176L161.32 39.456L163.304 30.832H165.72ZM176.022 37.376C176.022 37.696 176.001 37.984 175.958 38.24H169.478C169.531 38.88 169.755 39.3813 170.15 39.744C170.545 40.1067 171.03 40.288 171.606 40.288C172.438 40.288 173.03 39.9307 173.382 39.216H175.798C175.542 40.0693 175.051 40.7733 174.326 41.328C173.601 41.872 172.71 42.144 171.654 42.144C170.801 42.144 170.033 41.9573 169.35 41.584C168.678 41.2 168.15 40.6613 167.766 39.968C167.393 39.2747 167.206 38.4747 167.206 37.568C167.206 36.6507 167.393 35.8453 167.766 35.152C168.139 34.4587 168.662 33.9253 169.334 33.552C170.006 33.1787 170.779 32.992 171.654 32.992C172.497 32.992 173.249 33.1733 173.91 33.536C174.582 33.8987 175.099 34.416 175.462 35.088C175.835 35.7493 176.022 36.512 176.022 37.376ZM173.702 36.736C173.691 36.16 173.483 35.7013 173.078 35.36C172.673 35.008 172.177 34.832 171.59 34.832C171.035 34.832 170.566 35.0027 170.182 35.344C169.809 35.6747 169.579 36.1387 169.494 36.736H173.702ZM180.497 30.16V42H178.257V30.16H180.497ZM185.55 30.16V42H183.31V30.16H185.55ZM191.483 30.448C192.593 30.448 193.483 30.752 194.155 31.36C194.838 31.9573 195.179 32.784 195.179 33.84C195.179 34.8853 194.843 35.6853 194.171 36.24C193.499 36.784 192.609 37.056 191.499 37.056L191.435 38.288H189.467L189.387 35.568H190.107C191.035 35.568 191.75 35.4453 192.251 35.2C192.753 34.9547 193.003 34.5067 193.003 33.856C193.003 33.3867 192.865 33.0133 192.587 32.736C192.321 32.4587 191.953 32.32 191.483 32.32C190.993 32.32 190.609 32.4533 190.331 32.72C190.065 32.9867 189.931 33.3547 189.931 33.824H187.819C187.809 33.1733 187.947 32.592 188.235 32.08C188.523 31.568 188.945 31.168 189.499 30.88C190.065 30.592 190.726 30.448 191.483 30.448ZM190.443 42.112C190.038 42.112 189.702 41.9893 189.435 41.744C189.179 41.488 189.051 41.1733 189.051 40.8C189.051 40.4267 189.179 40.1173 189.435 39.872C189.702 39.616 190.038 39.488 190.443 39.488C190.838 39.488 191.163 39.616 191.419 39.872C191.675 40.1173 191.803 40.4267 191.803 40.8C191.803 41.1733 191.675 41.488 191.419 41.744C191.163 41.9893 190.838 42.112 190.443 42.112Z" fill="#0B6623"/>
<rect x="69.5" y="72.5" width="247" height="343" rx="7.5" fill="#FAFAFA" stroke="#F79722"/>
<g opacity="0.6">
<path opacity="0.1" d="M69 80C69 75.5817 72.5817 72 77 72H309C313.418 72 317 75.5817 317 80V120H69V80Z" fill="#F79722"/>
</g>
<path opacity="0.6" d="M105.032 90.832L101.912 102H99.272L97.176 94.048L94.984 102L92.36 102.016L89.352 90.832H91.752L93.72 99.504L95.992 90.832H98.488L100.632 99.456L102.616 90.832H105.032ZM112.087 93.008C112.759 93.008 113.356 93.1573 113.879 93.456C114.401 93.744 114.807 94.176 115.095 94.752C115.393 95.3173 115.543 96 115.543 96.8V102H113.303V97.104C113.303 96.4 113.127 95.8613 112.775 95.488C112.423 95.104 111.943 94.912 111.335 94.912C110.716 94.912 110.225 95.104 109.863 95.488C109.511 95.8613 109.335 96.4 109.335 97.104V102H107.095V90.16H109.335V94.24C109.623 93.856 110.007 93.5573 110.487 93.344C110.967 93.12 111.5 93.008 112.087 93.008ZM117.697 97.536C117.697 96.64 117.873 95.8453 118.225 95.152C118.587 94.4587 119.073 93.9253 119.681 93.552C120.299 93.1787 120.987 92.992 121.745 92.992C122.406 92.992 122.982 93.1253 123.473 93.392C123.974 93.6587 124.374 93.9947 124.673 94.4V93.136H126.929V102H124.673V100.704C124.385 101.12 123.985 101.467 123.473 101.744C122.971 102.011 122.39 102.144 121.729 102.144C120.982 102.144 120.299 101.952 119.681 101.568C119.073 101.184 118.587 100.645 118.225 99.952C117.873 99.248 117.697 98.4427 117.697 97.536ZM124.673 97.568C124.673 97.024 124.566 96.56 124.353 96.176C124.139 95.7813 123.851 95.4827 123.489 95.28C123.126 95.0667 122.737 94.96 122.321 94.96C121.905 94.96 121.521 95.0613 121.169 95.264C120.817 95.4667 120.529 95.7653 120.305 96.16C120.091 96.544 119.985 97.0027 119.985 97.536C119.985 98.0693 120.091 98.5387 120.305 98.944C120.529 99.3387 120.817 99.6427 121.169 99.856C121.531 100.069 121.915 100.176 122.321 100.176C122.737 100.176 123.126 100.075 123.489 99.872C123.851 99.6587 124.139 99.36 124.353 98.976C124.566 98.5813 124.673 98.112 124.673 97.568ZM132.324 94.976V99.264C132.324 99.5627 132.394 99.7813 132.532 99.92C132.682 100.048 132.927 100.112 133.268 100.112H134.308V102H132.9C131.012 102 130.068 101.083 130.068 99.248V94.976H129.012V93.136H130.068V90.944H132.324V93.136H134.308V94.976H132.324ZM144.836 90.832C146.009 90.832 147.039 91.0613 147.924 91.52C148.82 91.9787 149.508 92.6347 149.988 93.488C150.479 94.3307 150.724 95.312 150.724 96.432C150.724 97.552 150.479 98.5333 149.988 99.376C149.508 100.208 148.82 100.853 147.924 101.312C147.039 101.771 146.009 102 144.836 102H140.932V90.832H144.836ZM144.756 100.096C145.929 100.096 146.836 99.776 147.476 99.136C148.116 98.496 148.436 97.5947 148.436 96.432C148.436 95.2693 148.116 94.3627 147.476 93.712C146.836 93.0507 145.929 92.72 144.756 92.72H143.172V100.096H144.756ZM154.137 92.08C153.742 92.08 153.412 91.9573 153.145 91.712C152.889 91.456 152.761 91.1413 152.761 90.768C152.761 90.3947 152.889 90.0853 153.145 89.84C153.412 89.584 153.742 89.456 154.137 89.456C154.532 89.456 154.857 89.584 155.113 89.84C155.38 90.0853 155.513 90.3947 155.513 90.768C155.513 91.1413 155.38 91.456 155.113 91.712C154.857 91.9573 154.532 92.08 154.137 92.08ZM155.241 93.136V102H153.001V93.136H155.241ZM157.478 97.536C157.478 96.64 157.654 95.8453 158.006 95.152C158.369 94.4587 158.859 93.9253 159.478 93.552C160.097 93.1787 160.785 92.992 161.542 92.992C162.118 92.992 162.667 93.12 163.19 93.376C163.713 93.6213 164.129 93.952 164.438 94.368V90.16H166.71V102H164.438V100.688C164.161 101.125 163.771 101.477 163.27 101.744C162.769 102.011 162.187 102.144 161.526 102.144C160.779 102.144 160.097 101.952 159.478 101.568C158.859 101.184 158.369 100.645 158.006 99.952C157.654 99.248 157.478 98.4427 157.478 97.536ZM164.454 97.568C164.454 97.024 164.347 96.56 164.134 96.176C163.921 95.7813 163.633 95.4827 163.27 95.28C162.907 95.0667 162.518 94.96 162.102 94.96C161.686 94.96 161.302 95.0613 160.95 95.264C160.598 95.4667 160.31 95.7653 160.086 96.16C159.873 96.544 159.766 97.0027 159.766 97.536C159.766 98.0693 159.873 98.5387 160.086 98.944C160.31 99.3387 160.598 99.6427 160.95 99.856C161.313 100.069 161.697 100.176 162.102 100.176C162.518 100.176 162.907 100.075 163.27 99.872C163.633 99.6587 163.921 99.36 164.134 98.976C164.347 98.5813 164.454 98.112 164.454 97.568ZM174.41 93.008C175.466 93.008 176.319 93.344 176.97 94.016C177.62 94.6773 177.946 95.6053 177.946 96.8V102H175.706V97.104C175.706 96.4 175.53 95.8613 175.178 95.488C174.826 95.104 174.346 94.912 173.738 94.912C173.119 94.912 172.628 95.104 172.266 95.488C171.914 95.8613 171.738 96.4 171.738 97.104V102H169.498V93.136H171.738V94.24C172.036 93.856 172.415 93.5573 172.874 93.344C173.343 93.12 173.855 93.008 174.41 93.008ZM181.124 90.832H183.476L181.748 94.864H180.212L181.124 90.832ZM188.29 94.976V99.264C188.29 99.5627 188.359 99.7813 188.498 99.92C188.647 100.048 188.893 100.112 189.234 100.112H190.274V102H188.866C186.978 102 186.034 101.083 186.034 99.248V94.976H184.978V93.136H186.034V90.944H188.29V93.136H190.274V94.976H188.29ZM204.674 94.192C204.418 93.7227 204.066 93.3653 203.618 93.12C203.17 92.8747 202.647 92.752 202.05 92.752C201.388 92.752 200.802 92.9013 200.29 93.2C199.778 93.4987 199.378 93.9253 199.09 94.48C198.802 95.0347 198.658 95.6747 198.658 96.4C198.658 97.1467 198.802 97.7973 199.09 98.352C199.388 98.9067 199.799 99.3333 200.322 99.632C200.844 99.9307 201.452 100.08 202.146 100.08C202.999 100.08 203.698 99.856 204.242 99.408C204.786 98.9493 205.143 98.3147 205.314 97.504H201.474V95.792H207.522V97.744C207.372 98.5227 207.052 99.2427 206.562 99.904C206.071 100.565 205.436 101.099 204.658 101.504C203.89 101.899 203.026 102.096 202.066 102.096C200.988 102.096 200.012 101.856 199.138 101.376C198.274 100.885 197.591 100.208 197.09 99.344C196.599 98.48 196.354 97.4987 196.354 96.4C196.354 95.3013 196.599 94.32 197.09 93.456C197.591 92.5813 198.274 91.904 199.138 91.424C200.012 90.9333 200.983 90.688 202.05 90.688C203.308 90.688 204.402 90.9973 205.33 91.616C206.258 92.224 206.898 93.0827 207.25 94.192H204.674ZM213.715 102.144C212.862 102.144 212.094 101.957 211.411 101.584C210.728 101.2 210.19 100.661 209.795 99.968C209.411 99.2747 209.219 98.4747 209.219 97.568C209.219 96.6613 209.416 95.8613 209.811 95.168C210.216 94.4747 210.766 93.9413 211.459 93.568C212.152 93.184 212.926 92.992 213.779 92.992C214.632 92.992 215.406 93.184 216.099 93.568C216.792 93.9413 217.336 94.4747 217.731 95.168C218.136 95.8613 218.339 96.6613 218.339 97.568C218.339 98.4747 218.131 99.2747 217.715 99.968C217.31 100.661 216.755 101.2 216.051 101.584C215.358 101.957 214.579 102.144 213.715 102.144ZM213.715 100.192C214.12 100.192 214.499 100.096 214.851 99.904C215.214 99.7013 215.502 99.4027 215.715 99.008C215.928 98.6133 216.035 98.1333 216.035 97.568C216.035 96.7253 215.811 96.08 215.363 95.632C214.926 95.1733 214.387 94.944 213.747 94.944C213.107 94.944 212.568 95.1733 212.131 95.632C211.704 96.08 211.491 96.7253 211.491 97.568C211.491 98.4107 211.699 99.0613 212.115 99.52C212.542 99.968 213.075 100.192 213.715 100.192ZM239.923 90.832L236.803 102H234.163L232.067 94.048L229.875 102L227.251 102.016L224.243 90.832H226.643L228.611 99.504L230.883 90.832H233.379L235.523 99.456L237.507 90.832H239.923ZM250.225 97.376C250.225 97.696 250.204 97.984 250.161 98.24H243.681C243.735 98.88 243.959 99.3813 244.353 99.744C244.748 100.107 245.233 100.288 245.809 100.288C246.641 100.288 247.233 99.9307 247.585 99.216H250.001C249.745 100.069 249.255 100.773 248.529 101.328C247.804 101.872 246.913 102.144 245.857 102.144C245.004 102.144 244.236 101.957 243.553 101.584C242.881 101.2 242.353 100.661 241.969 99.968C241.596 99.2747 241.409 98.4747 241.409 97.568C241.409 96.6507 241.596 95.8453 241.969 95.152C242.343 94.4587 242.865 93.9253 243.537 93.552C244.209 93.1787 244.983 92.992 245.857 92.992C246.7 92.992 247.452 93.1733 248.113 93.536C248.785 93.8987 249.303 94.416 249.665 95.088C250.039 95.7493 250.225 96.512 250.225 97.376ZM247.905 96.736C247.895 96.16 247.687 95.7013 247.281 95.36C246.876 95.008 246.38 94.832 245.793 94.832C245.239 94.832 244.769 95.0027 244.385 95.344C244.012 95.6747 243.783 96.1387 243.697 96.736H247.905ZM254.7 90.16V102H252.46V90.16H254.7ZM259.753 90.16V102H257.513V90.16H259.753ZM265.686 90.448C266.796 90.448 267.686 90.752 268.358 91.36C269.041 91.9573 269.382 92.784 269.382 93.84C269.382 94.8853 269.046 95.6853 268.374 96.24C267.702 96.784 266.812 97.056 265.702 97.056L265.638 98.288H263.67L263.59 95.568H264.31C265.238 95.568 265.953 95.4453 266.454 95.2C266.956 94.9547 267.206 94.5067 267.206 93.856C267.206 93.3867 267.068 93.0133 266.79 92.736C266.524 92.4587 266.156 92.32 265.686 92.32C265.196 92.32 264.812 92.4533 264.534 92.72C264.268 92.9867 264.134 93.3547 264.134 93.824H262.022C262.012 93.1733 262.15 92.592 262.438 92.08C262.726 91.568 263.148 91.168 263.702 90.88C264.268 90.592 264.929 90.448 265.686 90.448ZM264.646 102.112C264.241 102.112 263.905 101.989 263.638 101.744C263.382 101.488 263.254 101.173 263.254 100.8C263.254 100.427 263.382 100.117 263.638 99.872C263.905 99.616 264.241 99.488 264.646 99.488C265.041 99.488 265.366 99.616 265.622 99.872C265.878 100.117 266.006 100.427 266.006 100.8C266.006 101.173 265.878 101.488 265.622 101.744C265.366 101.989 265.041 102.112 264.646 102.112Z" fill="#F79722"/>
<rect x="109.5" y="132.5" width="247" height="343" rx="7.5" fill="#FAFAFA" stroke="#8A38F5"/>
<g opacity="0.6">
<path opacity="0.1" d="M109 140C109 135.582 112.582 132 117 132H349C353.418 132 357 135.582 357 140V180H109V140Z" fill="#8A38F5"/>
</g>
<path opacity="0.6" d="M145.032 150.832L141.912 162H139.272L137.176 154.048L134.984 162L132.36 162.016L129.352 150.832H131.752L133.72 159.504L135.992 150.832H138.488L140.632 159.456L142.616 150.832H145.032ZM152.087 153.008C152.759 153.008 153.356 153.157 153.879 153.456C154.401 153.744 154.807 154.176 155.095 154.752C155.393 155.317 155.543 156 155.543 156.8V162H153.303V157.104C153.303 156.4 153.127 155.861 152.775 155.488C152.423 155.104 151.943 154.912 151.335 154.912C150.716 154.912 150.225 155.104 149.863 155.488C149.511 155.861 149.335 156.4 149.335 157.104V162H147.095V150.16H149.335V154.24C149.623 153.856 150.007 153.557 150.487 153.344C150.967 153.12 151.5 153.008 152.087 153.008ZM157.697 157.536C157.697 156.64 157.873 155.845 158.225 155.152C158.587 154.459 159.073 153.925 159.681 153.552C160.299 153.179 160.987 152.992 161.745 152.992C162.406 152.992 162.982 153.125 163.473 153.392C163.974 153.659 164.374 153.995 164.673 154.4V153.136H166.929V162H164.673V160.704C164.385 161.12 163.985 161.467 163.473 161.744C162.971 162.011 162.39 162.144 161.729 162.144C160.982 162.144 160.299 161.952 159.681 161.568C159.073 161.184 158.587 160.645 158.225 159.952C157.873 159.248 157.697 158.443 157.697 157.536ZM164.673 157.568C164.673 157.024 164.566 156.56 164.353 156.176C164.139 155.781 163.851 155.483 163.489 155.28C163.126 155.067 162.737 154.96 162.321 154.96C161.905 154.96 161.521 155.061 161.169 155.264C160.817 155.467 160.529 155.765 160.305 156.16C160.091 156.544 159.985 157.003 159.985 157.536C159.985 158.069 160.091 158.539 160.305 158.944C160.529 159.339 160.817 159.643 161.169 159.856C161.531 160.069 161.915 160.176 162.321 160.176C162.737 160.176 163.126 160.075 163.489 159.872C163.851 159.659 164.139 159.36 164.353 158.976C164.566 158.581 164.673 158.112 164.673 157.568ZM172.324 154.976V159.264C172.324 159.563 172.394 159.781 172.532 159.92C172.682 160.048 172.927 160.112 173.268 160.112H174.308V162H172.9C171.012 162 170.068 161.083 170.068 159.248V154.976H169.012V153.136H170.068V150.944H172.324V153.136H174.308V154.976H172.324ZM184.836 150.832C186.009 150.832 187.039 151.061 187.924 151.52C188.82 151.979 189.508 152.635 189.988 153.488C190.479 154.331 190.724 155.312 190.724 156.432C190.724 157.552 190.479 158.533 189.988 159.376C189.508 160.208 188.82 160.853 187.924 161.312C187.039 161.771 186.009 162 184.836 162H180.932V150.832H184.836ZM184.756 160.096C185.929 160.096 186.836 159.776 187.476 159.136C188.116 158.496 188.436 157.595 188.436 156.432C188.436 155.269 188.116 154.363 187.476 153.712C186.836 153.051 185.929 152.72 184.756 152.72H183.172V160.096H184.756ZM194.137 152.08C193.742 152.08 193.412 151.957 193.145 151.712C192.889 151.456 192.761 151.141 192.761 150.768C192.761 150.395 192.889 150.085 193.145 149.84C193.412 149.584 193.742 149.456 194.137 149.456C194.532 149.456 194.857 149.584 195.113 149.84C195.38 150.085 195.513 150.395 195.513 150.768C195.513 151.141 195.38 151.456 195.113 151.712C194.857 151.957 194.532 152.08 194.137 152.08ZM195.241 153.136V162H193.001V153.136H195.241ZM197.478 157.536C197.478 156.64 197.654 155.845 198.006 155.152C198.369 154.459 198.859 153.925 199.478 153.552C200.097 153.179 200.785 152.992 201.542 152.992C202.118 152.992 202.667 153.12 203.19 153.376C203.713 153.621 204.129 153.952 204.438 154.368V150.16H206.71V162H204.438V160.688C204.161 161.125 203.771 161.477 203.27 161.744C202.769 162.011 202.187 162.144 201.526 162.144C200.779 162.144 200.097 161.952 199.478 161.568C198.859 161.184 198.369 160.645 198.006 159.952C197.654 159.248 197.478 158.443 197.478 157.536ZM204.454 157.568C204.454 157.024 204.347 156.56 204.134 156.176C203.921 155.781 203.633 155.483 203.27 155.28C202.907 155.067 202.518 154.96 202.102 154.96C201.686 154.96 201.302 155.061 200.95 155.264C200.598 155.467 200.31 155.765 200.086 156.16C199.873 156.544 199.766 157.003 199.766 157.536C199.766 158.069 199.873 158.539 200.086 158.944C200.31 159.339 200.598 159.643 200.95 159.856C201.313 160.069 201.697 160.176 202.102 160.176C202.518 160.176 202.907 160.075 203.27 159.872C203.633 159.659 203.921 159.36 204.134 158.976C204.347 158.581 204.454 158.112 204.454 157.568ZM214.41 153.008C215.466 153.008 216.319 153.344 216.97 154.016C217.62 154.677 217.946 155.605 217.946 156.8V162H215.706V157.104C215.706 156.4 215.53 155.861 215.178 155.488C214.826 155.104 214.346 154.912 213.738 154.912C213.119 154.912 212.628 155.104 212.266 155.488C211.914 155.861 211.738 156.4 211.738 157.104V162H209.498V153.136H211.738V154.24C212.036 153.856 212.415 153.557 212.874 153.344C213.343 153.12 213.855 153.008 214.41 153.008ZM221.124 150.832H223.476L221.748 154.864H220.212L221.124 150.832ZM228.29 154.976V159.264C228.29 159.563 228.359 159.781 228.498 159.92C228.647 160.048 228.893 160.112 229.234 160.112H230.274V162H228.866C226.978 162 226.034 161.083 226.034 159.248V154.976H224.978V153.136H226.034V150.944H228.29V153.136H230.274V154.976H228.29ZM244.674 154.192C244.418 153.723 244.066 153.365 243.618 153.12C243.17 152.875 242.647 152.752 242.05 152.752C241.388 152.752 240.802 152.901 240.29 153.2C239.778 153.499 239.378 153.925 239.09 154.48C238.802 155.035 238.658 155.675 238.658 156.4C238.658 157.147 238.802 157.797 239.09 158.352C239.388 158.907 239.799 159.333 240.322 159.632C240.844 159.931 241.452 160.08 242.146 160.08C242.999 160.08 243.698 159.856 244.242 159.408C244.786 158.949 245.143 158.315 245.314 157.504H241.474V155.792H247.522V157.744C247.372 158.523 247.052 159.243 246.562 159.904C246.071 160.565 245.436 161.099 244.658 161.504C243.89 161.899 243.026 162.096 242.066 162.096C240.988 162.096 240.012 161.856 239.138 161.376C238.274 160.885 237.591 160.208 237.09 159.344C236.599 158.48 236.354 157.499 236.354 156.4C236.354 155.301 236.599 154.32 237.09 153.456C237.591 152.581 238.274 151.904 239.138 151.424C240.012 150.933 240.983 150.688 242.05 150.688C243.308 150.688 244.402 150.997 245.33 151.616C246.258 152.224 246.898 153.083 247.25 154.192H244.674ZM253.715 162.144C252.862 162.144 252.094 161.957 251.411 161.584C250.728 161.2 250.19 160.661 249.795 159.968C249.411 159.275 249.219 158.475 249.219 157.568C249.219 156.661 249.416 155.861 249.811 155.168C250.216 154.475 250.766 153.941 251.459 153.568C252.152 153.184 252.926 152.992 253.779 152.992C254.632 152.992 255.406 153.184 256.099 153.568C256.792 153.941 257.336 154.475 257.731 155.168C258.136 155.861 258.339 156.661 258.339 157.568C258.339 158.475 258.131 159.275 257.715 159.968C257.31 160.661 256.755 161.2 256.051 161.584C255.358 161.957 254.579 162.144 253.715 162.144ZM253.715 160.192C254.12 160.192 254.499 160.096 254.851 159.904C255.214 159.701 255.502 159.403 255.715 159.008C255.928 158.613 256.035 158.133 256.035 157.568C256.035 156.725 255.811 156.08 255.363 155.632C254.926 155.173 254.387 154.944 253.747 154.944C253.107 154.944 252.568 155.173 252.131 155.632C251.704 156.08 251.491 156.725 251.491 157.568C251.491 158.411 251.699 159.061 252.115 159.52C252.542 159.968 253.075 160.192 253.715 160.192ZM279.923 150.832L276.803 162H274.163L272.067 154.048L269.875 162L267.251 162.016L264.243 150.832H266.643L268.611 159.504L270.883 150.832H273.379L275.523 159.456L277.507 150.832H279.923ZM290.225 157.376C290.225 157.696 290.204 157.984 290.161 158.24H283.681C283.735 158.88 283.959 159.381 284.353 159.744C284.748 160.107 285.233 160.288 285.809 160.288C286.641 160.288 287.233 159.931 287.585 159.216H290.001C289.745 160.069 289.255 160.773 288.529 161.328C287.804 161.872 286.913 162.144 285.857 162.144C285.004 162.144 284.236 161.957 283.553 161.584C282.881 161.2 282.353 160.661 281.969 159.968C281.596 159.275 281.409 158.475 281.409 157.568C281.409 156.651 281.596 155.845 281.969 155.152C282.343 154.459 282.865 153.925 283.537 153.552C284.209 153.179 284.983 152.992 285.857 152.992C286.7 152.992 287.452 153.173 288.113 153.536C288.785 153.899 289.303 154.416 289.665 155.088C290.039 155.749 290.225 156.512 290.225 157.376ZM287.905 156.736C287.895 156.16 287.687 155.701 287.281 155.36C286.876 155.008 286.38 154.832 285.793 154.832C285.239 154.832 284.769 155.003 284.385 155.344C284.012 155.675 283.783 156.139 283.697 156.736H287.905ZM294.7 150.16V162H292.46V150.16H294.7ZM299.753 150.16V162H297.513V150.16H299.753ZM305.686 150.448C306.796 150.448 307.686 150.752 308.358 151.36C309.041 151.957 309.382 152.784 309.382 153.84C309.382 154.885 309.046 155.685 308.374 156.24C307.702 156.784 306.812 157.056 305.702 157.056L305.638 158.288H303.67L303.59 155.568H304.31C305.238 155.568 305.953 155.445 306.454 155.2C306.956 154.955 307.206 154.507 307.206 153.856C307.206 153.387 307.068 153.013 306.79 152.736C306.524 152.459 306.156 152.32 305.686 152.32C305.196 152.32 304.812 152.453 304.534 152.72C304.268 152.987 304.134 153.355 304.134 153.824H302.022C302.012 153.173 302.15 152.592 302.438 152.08C302.726 151.568 303.148 151.168 303.702 150.88C304.268 150.592 304.929 150.448 305.686 150.448ZM304.646 162.112C304.241 162.112 303.905 161.989 303.638 161.744C303.382 161.488 303.254 161.173 303.254 160.8C303.254 160.427 303.382 160.117 303.638 159.872C303.905 159.616 304.241 159.488 304.646 159.488C305.041 159.488 305.366 159.616 305.622 159.872C305.878 160.117 306.006 160.427 306.006 160.8C306.006 161.173 305.878 161.488 305.622 161.744C305.366 161.989 305.041 162.112 304.646 162.112Z" fill="#8A38F5"/>
<path fill-rule="evenodd" clip-rule="evenodd" d="M361.25 16C361.25 10.6152 365.615 6.25 371 6.25C376.385 6.25 380.75 10.6152 380.75 16C380.75 21.3848 376.385 25.75 371 25.75C365.615 25.75 361.25 21.3848 361.25 16ZM374.61 14.1859C374.851 13.8489 374.773 13.3805 374.436 13.1397C374.099 12.8989 373.63 12.977 373.39 13.3141L370.154 17.8436L368.53 16.2197C368.237 15.9268 367.763 15.9268 367.47 16.2197C367.177 16.5126 367.177 16.9874 367.47 17.2803L369.72 19.5303C369.876 19.6862 370.092 19.7656 370.312 19.7474C370.532 19.7293 370.732 19.6153 370.86 19.4359L374.61 14.1859Z" fill="#2C69A1"/>
</g>
</svg>
