<svg width="60" height="60" viewBox="0 0 60 60" fill="none" xmlns="http://www.w3.org/2000/svg">
<g clip-path="url(#clip0_1123_24235)">
<path d="M30 60C46.5685 60 60 46.5685 60 30C60 13.4315 46.5685 0 30 0C13.4315 0 0 13.4315 0 30C0 46.5685 13.4315 60 30 60Z" fill="#22BCE0"/>
<path d="M50.8466 51.5733C49.5826 52.7966 48.209 53.9067 46.7509 54.8921H36.0364C35.0384 54.8894 34.12 54.6276 33.2919 54.1315C31.745 53.1999 30.7102 51.503 30.7102 49.5659V42.8381C30.6782 39.524 33.4764 36.7192 36.7981 36.7503C36.8616 37.1911 36.6355 48.5936 36.954 48.6928H36.9552C37.3415 49.8197 38.4107 50.6298 39.6704 50.6299H48.0645C49.111 50.6299 50.0755 50.9815 50.8466 51.5733Z" fill="#D15A96"/>
<path d="M49.4848 52.8118C48.6142 53.5557 47.7003 54.2501 46.7508 54.8919H36.0364C35.0384 54.8892 34.12 54.6274 33.2918 54.1313C31.745 53.1997 30.7102 51.5028 30.7102 49.5657V42.838C30.7107 42.1823 30.8139 41.5329 31.0196 40.9185C31.6074 39.1207 33.0709 37.6548 34.868 37.063V49.3524C34.868 50.8571 36.0879 52.0759 37.5915 52.0759H47.4739C48.2403 52.0759 48.9422 52.3524 49.4848 52.8118Z" fill="#ED72AB"/>
<path d="M34.1756 44.4242V40.7943C34.1756 40.1118 33.6223 39.5586 32.9398 39.5586C32.2573 39.5586 31.7041 40.1118 31.7041 40.7943V44.4242C31.77 46.0629 34.1091 46.0643 34.1756 44.4242Z" fill="#FF9FB4"/>
<path d="M33.3053 44.1584V41.0604C33.2807 40.2501 32.1032 40.2487 32.0781 41.0604V44.1584C32.1029 44.9687 33.2802 44.9701 33.3053 44.1584Z" fill="#ED72AB"/>
<path d="M34.1756 51.3393V47.7094C34.1756 47.0269 33.6223 46.4736 32.9398 46.4736C32.2573 46.4736 31.7041 47.0269 31.7041 47.7094V51.3393C31.77 52.978 34.1091 52.9793 34.1756 51.3393Z" fill="#FF9FB4"/>
<path d="M33.3053 51.0735V47.9754C33.2807 47.1652 32.1032 47.1638 32.0781 47.9754V51.0735C32.1029 51.8837 33.2802 51.8851 33.3053 51.0735Z" fill="#ED72AB"/>
<path d="M37.1368 53.3486H34.2535C33.7114 53.3486 33.272 53.7881 33.272 54.3302C33.272 54.8723 33.7114 55.3118 34.2535 55.3118H37.1368C38.4367 55.2639 38.4378 53.3968 37.1368 53.3486Z" fill="#FF9FB4"/>
<path d="M36.9256 54.04H34.4647C33.8213 54.0596 33.8201 54.9949 34.4647 55.0148H36.9256C37.5691 54.9952 37.5702 54.06 36.9256 54.04Z" fill="#ED72AB"/>
<path d="M42.5389 53.3486H39.6556C39.1135 53.3486 38.6741 53.7881 38.6741 54.3302C38.6741 54.8723 39.1135 55.3118 39.6556 55.3118H42.5389C43.8388 55.2639 43.8399 53.3968 42.5389 53.3486Z" fill="#FF9FB4"/>
<path d="M42.3277 54.04H39.8668C39.2234 54.0596 39.2222 54.9949 39.8668 55.0148H42.3277C42.9712 54.9952 42.9723 54.06 42.3277 54.04Z" fill="#ED72AB"/>
<path d="M47.9414 53.3486H45.0574C43.7607 53.3932 43.7577 55.2657 45.0574 55.3115H46.1097C46.9562 54.7729 47.7733 54.19 48.5613 53.5701C48.3926 53.4318 48.1769 53.3486 47.9414 53.3486Z" fill="#FF9FB4"/>
<path d="M47.905 54.073C47.4667 54.3979 47.0217 54.7141 46.5655 55.0152H45.2694C45.1452 55.0152 45.0316 54.9683 44.946 54.8921C44.613 54.6103 44.8279 54.0305 45.2694 54.0402H47.7304C47.7913 54.0402 47.8511 54.0519 47.905 54.073Z" fill="#ED72AB"/>
<path d="M29.2899 42.8381V49.5659C29.2874 51.7773 27.9499 53.6691 26.0204 54.4807C25.3875 54.7456 24.6926 54.892 23.9637 54.892H13.2493C11.7911 53.9067 10.4175 52.7966 9.15356 51.5733C9.92466 50.9815 10.8891 50.6299 11.9356 50.6299H20.3297C21.5895 50.6299 22.6583 49.8202 23.045 48.6928H23.0461C23.3584 48.6954 23.1426 37.1128 23.202 36.7502C26.5243 36.7195 29.3217 39.5237 29.2899 42.8381Z" fill="#D15A96"/>
<path d="M29.29 42.838V49.5657C29.2875 51.7772 27.95 53.6689 26.0205 54.4806C25.3876 54.7454 24.6927 54.8919 23.9638 54.8919H13.2494C12.2999 54.2501 11.386 53.5557 10.5154 52.8118C11.058 52.3524 11.7599 52.0759 12.5263 52.0759H22.4087C23.9123 52.0759 25.1322 50.8571 25.1322 49.3524V37.063C27.571 37.8493 29.3222 40.2723 29.29 42.838Z" fill="#ED72AB"/>
<path d="M25.8247 44.4242V40.7943C25.8247 40.1118 26.3779 39.5586 27.0604 39.5586C27.7429 39.5586 28.2962 40.1118 28.2962 40.7943V44.4242C28.2303 46.0629 25.8912 46.0643 25.8247 44.4242Z" fill="#FF9FB4"/>
<path d="M26.6948 44.1584V41.0604C26.7194 40.2501 27.8969 40.2487 27.922 41.0604V44.1584C27.8973 44.9687 26.7199 44.9701 26.6948 44.1584Z" fill="#ED72AB"/>
<path d="M25.8247 51.3393V47.7094C25.8247 47.0269 26.3779 46.4736 27.0604 46.4736C27.7429 46.4736 28.2962 47.0269 28.2962 47.7094V51.3393C28.2303 52.978 25.8912 52.9793 25.8247 51.3393Z" fill="#FF9FB4"/>
<path d="M26.6948 51.0735V47.9754C26.7194 47.1652 27.8969 47.1638 27.922 47.9754V51.0735C27.8973 51.8837 26.7199 51.8851 26.6948 51.0735Z" fill="#ED72AB"/>
<path d="M22.8633 53.3486H25.7465C26.2887 53.3486 26.7281 53.7881 26.7281 54.3302C26.7281 54.8723 26.2887 55.3118 25.7465 55.3118H22.8633C21.5634 55.2639 21.5622 53.3968 22.8633 53.3486Z" fill="#FF9FB4"/>
<path d="M23.0744 54.04H25.5352C26.1788 54.0596 26.1799 54.9949 25.5352 55.0148H23.0744C22.4308 54.9952 22.4298 54.06 23.0744 54.04Z" fill="#ED72AB"/>
<path d="M17.4612 53.3486H20.3444C20.8866 53.3486 21.326 53.7881 21.326 54.3302C21.326 54.8723 20.8866 55.3118 20.3444 55.3118H17.4612C16.1613 55.2639 16.1601 53.3968 17.4612 53.3486Z" fill="#FF9FB4"/>
<path d="M17.6723 54.04H20.1331C20.7767 54.0596 20.7778 54.9949 20.1331 55.0148H17.6723C17.0287 54.9952 17.0277 54.06 17.6723 54.04Z" fill="#ED72AB"/>
<path d="M15.9235 54.3307C15.9251 54.8669 15.4839 55.3133 14.9426 55.3115H13.8903C13.0438 54.7729 12.2267 54.19 11.4387 53.5701C11.6075 53.4318 11.8231 53.3486 12.0586 53.3486H14.9426C15.484 53.3486 15.9235 53.7881 15.9235 54.3307Z" fill="#FF9FB4"/>
<path d="M15.218 54.5275C15.2186 54.7952 14.999 55.0155 14.7305 55.015H13.4344C12.9782 54.714 12.5333 54.3978 12.095 54.0729C12.1489 54.0518 12.2086 54.04 12.2696 54.04H14.7305C15 54.04 15.218 54.258 15.218 54.5275Z" fill="#ED72AB"/>
<path d="M30 41.0603C29.7026 41.8901 29.213 42.6616 28.5796 43.2938L25.132 46.7415C24.6329 47.2163 23.6217 48.3338 23.046 48.6927H23.0449C21.8061 49.5429 20.2147 49.8177 18.7675 49.4532C18.7687 49.4532 18.7687 49.4532 18.7675 49.452C17.8312 49.2179 16.9985 48.7544 16.2902 48.0505C15.9325 47.6928 14.1287 45.889 13.8105 45.5708H13.8093L11.6132 43.3747V43.3735L11.1234 42.8849C11.1234 42.8837 11.1234 42.8837 11.1234 42.8837L10.48 42.2403C10.48 42.2403 10.48 42.2403 10.4789 42.2403L9.99019 41.7505H9.98901C9.59808 41.3967 8.29812 39.9496 7.84214 39.7372C7.13339 39.3363 6.24382 39.3126 5.51245 39.6751C5.27105 39.7939 5.04335 39.9481 4.84097 40.1544L3.38433 41.611C3.11702 41.879 2.89612 42.1826 2.72925 42.5169C2.25687 41.4929 1.84753 40.4469 1.49292 39.3728L4.33354 36.5321C6.11948 34.7462 9.01401 34.7474 10.7988 36.5321L16.7343 42.4677C17.8558 43.5892 19.6746 43.5892 20.796 42.4677L23.0777 40.186C23.7909 39.4646 24.9671 38.3025 25.6722 37.5915C26.5264 36.7424 27.7184 35.5417 28.5796 34.6841C30.239 36.3135 30.8053 38.8808 30 41.0603Z" fill="#D15A96"/>
<path d="M29.9999 41.0602C29.8241 41.5488 29.5827 42.0199 29.278 42.4594C28.8751 43.102 26.9468 44.8928 26.4034 45.4699H26.4022L25.1319 46.7402V46.7414C24.6272 47.222 23.6257 48.3296 23.046 48.6926H23.0448C21.806 49.5428 20.2146 49.8176 18.7675 49.4531C18.7687 49.4531 18.7687 49.4531 18.7675 49.452C17.8312 49.2178 16.9984 48.7543 16.2901 48.0504C15.9325 47.6927 14.1286 45.8889 13.8104 45.5707H13.8093L11.6132 43.3746V43.3734L11.1233 42.8848C11.1233 42.8836 11.1233 42.8836 11.1233 42.8836L10.48 42.2402C10.48 42.2402 10.48 42.2402 10.4788 42.2402L9.99014 41.7504H9.98896C9.59803 41.3966 8.29807 39.9495 7.84209 39.7371C7.13334 39.3362 6.24377 39.3125 5.5124 39.675C5.271 39.7938 5.0433 39.948 4.84092 40.1543L3.38428 41.6109C3.11697 41.8789 2.89607 42.1825 2.7292 42.5168C2.56982 42.1753 2.42146 41.8301 2.27686 41.482C2.29795 41.4574 2.32021 41.4352 2.34365 41.4117L5.78311 37.9723C7.00068 36.7547 8.97646 36.7547 10.194 37.9723L17.1819 44.9602C18.2448 46.023 19.9698 46.023 21.0327 44.9602C22.0497 43.9366 24.1191 41.8785 25.1319 40.8609C26.4177 39.5617 28.4502 37.5524 29.7233 36.2695C30.4642 37.7459 30.5653 39.5039 29.9999 41.0602Z" fill="#ED72AB"/>
<path d="M25.0078 41.9648L27.5746 39.3981C28.0572 38.9155 28.8395 38.9155 29.3221 39.3981C29.8047 39.8806 29.8047 40.663 29.3221 41.1456L26.7553 43.7123C25.5502 44.8246 23.8951 43.1715 25.0078 41.9648Z" fill="#FF9FB4"/>
<path d="M25.8112 42.3922L28.0019 40.2015C28.5922 39.646 29.4259 40.4776 28.8697 41.0693L26.679 43.26C26.0887 43.8153 25.2551 42.9839 25.8112 42.3922Z" fill="#ED72AB"/>
<path d="M20.1184 46.8545L22.6852 44.2877C23.1678 43.8051 23.9501 43.8051 24.4327 44.2877C24.9153 44.7703 24.9153 45.5526 24.4327 46.0352L21.8659 48.602C20.6608 49.7142 19.0057 48.0612 20.1184 46.8545Z" fill="#FF9FB4"/>
<path d="M20.9218 47.2819L23.1125 45.0912C23.7028 44.5357 24.5365 45.3673 23.9803 45.9589L21.7896 48.1496C21.1993 48.7051 20.3657 47.8735 20.9218 47.2819Z" fill="#ED72AB"/>
<path d="M16.6035 46.1815L18.6422 48.2202C19.5275 49.1731 18.208 50.4941 17.2541 49.6083L15.2154 47.5696C14.33 46.6167 15.6494 45.2957 16.6035 46.1815Z" fill="#FF9FB4"/>
<path d="M16.264 46.8194L18.0041 48.5596C18.1944 48.7499 18.1944 49.0585 18.0041 49.2489C17.8138 49.4392 17.5051 49.4392 17.3148 49.2489L15.5747 47.5087C15.132 47.0434 15.7975 46.3761 16.264 46.8194Z" fill="#ED72AB"/>
<path d="M12.7834 42.3617L14.8221 44.4004C15.7075 45.3532 14.3879 46.6743 13.434 45.7885L11.3953 43.7498C10.51 42.7969 11.8294 41.4759 12.7834 42.3617Z" fill="#FF9FB4"/>
<path d="M12.4439 42.9996L14.184 44.7397C14.3743 44.9301 14.3743 45.2387 14.184 45.429C13.9937 45.6193 13.685 45.6193 13.4947 45.429L11.7546 43.6889C11.312 43.2236 11.9775 42.5563 12.4439 42.9996Z" fill="#ED72AB"/>
<path d="M8.96358 38.5414L11.0023 40.5801C11.8876 41.5329 10.5681 42.854 9.61421 41.9682L7.57549 39.9294C6.69014 38.9766 8.00956 37.6555 8.96358 38.5414Z" fill="#FF9FB4"/>
<path d="M8.62406 39.1793L10.3642 40.9194C10.5545 41.1097 10.5545 41.4184 10.3642 41.6087C10.1739 41.799 9.86519 41.799 9.67488 41.6087L7.93476 39.8686C7.49214 39.4032 8.15765 38.736 8.62406 39.1793Z" fill="#ED72AB"/>
<path d="M4.52598 40.0787L5.74063 38.8641C6.29926 38.3327 7.0993 39.1317 6.56762 39.691L5.35297 40.9057C4.79434 41.4369 3.9943 40.638 4.52598 40.0787Z" fill="#FF9FB4"/>
<path d="M4.90605 40.2807L5.94269 39.2441C6.21679 38.979 6.61886 39.38 6.35331 39.6547L5.31667 40.6913C5.04257 40.9564 4.6405 40.5554 4.90605 40.2807Z" fill="#ED72AB"/>
<path d="M4.35933 41.6568C4.35933 41.8068 4.30308 41.9556 4.1894 42.0705L3.05503 43.2037C2.87233 42.8306 2.6962 42.4553 2.53003 42.0752L3.36206 41.2431C3.71995 40.8716 4.37304 41.1521 4.35933 41.6568Z" fill="#FF9FB4"/>
<path d="M4.06045 41.8292C4.06045 41.903 4.03115 41.9768 3.9749 42.0342L2.97295 43.035C2.88295 42.8495 2.796 42.6639 2.71045 42.4772C2.72768 42.459 3.51986 41.6662 3.56357 41.6229C3.73701 41.4393 4.069 41.5794 4.06045 41.8292Z" fill="#ED72AB"/>
<path d="M58.5069 39.3728C58.1523 40.4469 57.743 41.4929 57.2706 42.5169C57.1038 42.1826 56.8827 41.879 56.6155 41.611L55.1589 40.1544C54.7275 39.7212 54.1597 39.469 53.5628 39.4255C52.8416 39.3708 52.1201 39.6383 51.6069 40.1544L50.0108 41.7505H50.0097L49.521 42.2403C49.5198 42.2403 49.5198 42.2403 49.5198 42.2403L48.8765 42.8837C48.8765 42.8837 48.8765 42.8837 48.8765 42.8849L48.3866 43.3735V43.3747L46.1905 45.5708H46.1893C45.8828 45.8771 44.0584 47.7019 43.7097 48.0505C43.0014 48.7544 42.1686 49.2179 41.2323 49.452C41.2311 49.4532 41.2311 49.4532 41.2323 49.4532C39.7858 49.8184 38.1938 49.5415 36.955 48.6938V48.6927H36.9538C36.9362 48.6821 36.9198 48.6704 36.9034 48.6575C36.9034 48.6575 36.9034 48.6575 36.9022 48.6575C36.3802 48.3245 35.3292 47.1827 34.8679 46.7415C34.3041 46.1345 31.1022 43.0978 30.7218 42.4595C29.0513 40.1138 29.3529 36.6924 31.4202 34.6841C32.286 35.5431 33.4735 36.7422 34.3276 37.5915C35.0279 38.2986 36.2104 39.4693 36.9222 40.186L39.2038 42.4677C40.3253 43.5892 42.144 43.5892 43.2655 42.4677L49.2011 36.5321C50.9858 34.7474 53.8804 34.7462 55.6663 36.5321L58.5069 39.3728Z" fill="#D15A96"/>
<path d="M57.723 41.482C57.5784 41.8301 57.43 42.1753 57.2706 42.5168C57.1039 42.1825 56.8827 41.8789 56.6156 41.6109L55.1589 40.1543C54.7278 39.7215 54.1597 39.4685 53.5628 39.4254C52.8416 39.3707 52.1201 39.6382 51.607 40.1543L50.0109 41.7504H50.0097L49.521 42.2402C49.5198 42.2402 49.5198 42.2402 49.5198 42.2402L48.8765 42.8836C48.8765 42.8836 48.8765 42.8836 48.8765 42.8848L48.3866 43.3734V43.3746L46.1906 45.5707H46.1894C45.8828 45.877 44.0584 47.7018 43.7097 48.0504C43.0014 48.7543 42.1687 49.2178 41.2323 49.452C41.2312 49.4531 41.2312 49.4531 41.2323 49.4531C39.7863 49.8176 38.1922 49.5428 36.955 48.6926H36.9538V48.6914C36.9374 48.6809 36.9198 48.6691 36.9034 48.6574C36.9034 48.6574 36.9034 48.6574 36.9023 48.6574C36.3639 48.311 35.3409 47.1925 34.8679 46.7414V46.7402L33.5976 45.4699H33.5964C33.033 44.8724 31.1398 43.1183 30.7218 42.4594C29.46 40.6648 29.2891 38.2194 30.2765 36.2695C31.5497 37.5424 33.5757 39.5689 34.8679 40.8609C35.8819 41.8753 37.9482 43.941 38.9671 44.9602C40.03 46.023 41.755 46.023 42.8179 44.9602L49.8058 37.9723C51.0234 36.7547 52.9991 36.7547 54.2167 37.9723L57.6562 41.4117C57.6796 41.4352 57.7019 41.4574 57.723 41.482Z" fill="#ED72AB"/>
<path d="M34.9921 41.9648L32.4254 39.3981C31.9428 38.9155 31.1604 38.9155 30.6779 39.3981C30.1953 39.8806 30.1953 40.663 30.6779 41.1456L33.2446 43.7123C34.4498 44.8246 36.1048 43.1715 34.9921 41.9648Z" fill="#FF9FB4"/>
<path d="M34.1888 42.3922L31.9981 40.2015C31.4078 39.646 30.5742 40.4776 31.1303 41.0693L33.321 43.26C33.9113 43.8153 34.745 42.9839 34.1888 42.3922Z" fill="#ED72AB"/>
<path d="M39.8815 46.8545L37.3148 44.2877C36.8322 43.8051 36.0498 43.8051 35.5673 44.2877C35.0847 44.7703 35.0847 45.5526 35.5673 46.0352L38.134 48.602C39.3392 49.7142 40.9942 48.0612 39.8815 46.8545Z" fill="#FF9FB4"/>
<path d="M39.0782 47.2819L36.8875 45.0912C36.2972 44.5357 35.4636 45.3673 36.0197 45.9589L38.2104 48.1496C38.8007 48.7051 39.6344 47.8735 39.0782 47.2819Z" fill="#ED72AB"/>
<path d="M43.3964 46.1815L41.3577 48.2202C40.4724 49.1731 41.7919 50.4941 42.7458 49.6083L44.7845 47.5696C45.6699 46.6167 44.3504 45.2957 43.3964 46.1815Z" fill="#FF9FB4"/>
<path d="M43.7359 46.8194L41.9958 48.5596C41.8054 48.7499 41.8054 49.0585 41.9958 49.2489C42.1861 49.4392 42.4947 49.4392 42.6851 49.2489L44.4252 47.5087C44.8678 47.0434 44.2023 46.3761 43.7359 46.8194Z" fill="#ED72AB"/>
<path d="M47.2165 42.3617L45.1778 44.4004C44.2924 45.3532 45.612 46.6743 46.5659 45.7885L48.6046 43.7498C49.4899 42.7969 48.1705 41.4759 47.2165 42.3617Z" fill="#FF9FB4"/>
<path d="M47.5559 42.9996L45.8158 44.7397C45.6255 44.9301 45.6255 45.2387 45.8158 45.429C46.0061 45.6193 46.3148 45.6193 46.5051 45.429L48.2452 43.6889C48.6879 43.2236 48.0224 42.5563 47.5559 42.9996Z" fill="#ED72AB"/>
<path d="M51.0363 38.5414L48.9976 40.5801C48.1122 41.5329 49.4318 42.854 50.3857 41.9682L52.4244 39.9294C53.3097 38.9766 51.9903 37.6555 51.0363 38.5414Z" fill="#FF9FB4"/>
<path d="M51.3758 39.1793L49.6357 40.9194C49.4453 41.1097 49.4453 41.4184 49.6357 41.6087C49.826 41.799 50.1346 41.799 50.325 41.6087L52.0651 39.8686C52.5077 39.4032 51.8422 38.736 51.3758 39.1793Z" fill="#ED72AB"/>
<path d="M55.4739 40.0787L54.2592 38.8641C53.7006 38.3327 52.9005 39.1317 53.4322 39.691L54.6469 40.9057C55.2055 41.4369 56.0056 40.638 55.4739 40.0787Z" fill="#FF9FB4"/>
<path d="M55.0938 40.2807L54.0572 39.2441C53.7831 38.979 53.381 39.38 53.6465 39.6547L54.6832 40.6913C54.9573 40.9564 55.3593 40.5554 55.0938 40.2807Z" fill="#ED72AB"/>
<path d="M57.4699 42.0752C57.3037 42.4553 57.1276 42.8306 56.9449 43.2037L55.8105 42.0705C55.6968 41.9556 55.6406 41.8068 55.6406 41.6568C55.6269 41.1521 56.28 40.8716 56.6379 41.2431L57.4699 42.0752Z" fill="#FF9FB4"/>
<path d="M57.2894 42.4772C57.2038 42.6639 57.1169 42.8495 57.0269 43.035L56.0249 42.0342C55.9687 41.9768 55.9394 41.903 55.9394 41.8292C55.931 41.5797 56.2627 41.4392 56.4362 41.6229C56.4823 41.669 57.2691 42.4552 57.2894 42.4772Z" fill="#ED72AB"/>
<path d="M57.6679 23.7399C57.2584 23.9669 56.7415 23.8829 56.4222 23.5325L55.3452 22.3454C54.6714 21.6036 53.7151 21.1806 52.7132 21.1806H50.653C49.2655 21.1806 48.1417 22.3056 48.1417 23.6931V34.8599C48.1417 37.8013 45.7569 40.186 42.8144 40.186H36.0878C32.6991 40.2019 29.9762 37.3782 29.9999 34.0981H41.0073C42.5929 34.0981 43.8796 32.8126 43.8796 31.2259V22.8317C43.8796 20.3075 45.9257 18.2603 48.4511 18.2603H53.3999C54.5753 18.2603 55.6745 18.8403 56.3366 19.8118L58.0171 22.2739C58.3558 22.7696 58.1929 23.4493 57.6679 23.7399Z" fill="#D15A96"/>
<path d="M57.6678 23.7401C57.2584 23.9671 56.7415 23.8831 56.4221 23.5327L55.3452 22.3456C54.6713 21.6038 53.7151 21.1808 52.7131 21.1808H50.653C49.2661 21.1808 48.1416 22.3052 48.1416 23.6921V34.8601C48.1416 37.8016 45.757 40.1862 42.8155 40.1862H36.0877C33.4006 40.1862 31.119 38.4448 30.3127 36.0284H42.6022C44.1063 36.0284 45.3256 34.8091 45.3256 33.305V23.4233C45.3256 21.7007 46.722 20.3042 48.4447 20.3042H53.3088C54.4003 20.3042 55.4293 20.8128 56.0924 21.6797L57.6678 23.7401Z" fill="#ED72AB"/>
<path d="M37.6737 36.7207H34.0438C33.3613 36.7207 32.8081 37.2739 32.8081 37.9564C32.8081 38.6389 33.3613 39.1922 34.0438 39.1922H37.6737C39.3124 39.1263 39.3138 36.7871 37.6737 36.7207Z" fill="#FF9FB4"/>
<path d="M37.4079 37.5908H34.3099C33.4996 37.6154 33.4982 38.7929 34.3099 38.818H37.4079C38.2182 38.7934 38.2196 37.6159 37.4079 37.5908Z" fill="#ED72AB"/>
<path d="M44.5888 36.7207H40.9589C40.2764 36.7207 39.7231 37.2739 39.7231 37.9564C39.7231 38.6389 40.2764 39.1922 40.9589 39.1922H44.5888C46.2274 39.1263 46.2288 36.7871 44.5888 36.7207Z" fill="#FF9FB4"/>
<path d="M44.323 37.5908H41.2249C40.4147 37.6154 40.4133 38.7929 41.2249 38.818H44.323C45.1331 38.7934 45.1346 37.6159 44.323 37.5908Z" fill="#ED72AB"/>
<path d="M46.5981 33.7595V36.6427C46.5981 37.1848 47.0376 37.6243 47.5797 37.6243C48.1218 37.6243 48.5613 37.1848 48.5613 36.6427V33.7595C48.5135 32.4596 46.6463 32.4586 46.5981 33.7595Z" fill="#FF9FB4"/>
<path d="M47.2893 33.9708V36.4317C47.3089 37.0753 48.2442 37.0763 48.2641 36.4317V33.9708C48.2445 33.3274 47.3092 33.3262 47.2893 33.9708Z" fill="#ED72AB"/>
<path d="M46.5981 28.3576V31.2409C46.5981 31.783 47.0376 32.2224 47.5797 32.2224C48.1218 32.2224 48.5613 31.783 48.5613 31.2409V28.3576C48.5135 27.0578 46.6463 27.0567 46.5981 28.3576Z" fill="#FF9FB4"/>
<path d="M47.2893 28.569V31.0298C47.3089 31.6733 48.2442 31.6745 48.2641 31.0298V28.569C48.2445 27.9255 47.3092 27.9243 47.2893 28.569Z" fill="#ED72AB"/>
<path d="M46.5981 22.9553V25.8385C46.5981 26.3807 47.0376 26.8201 47.5797 26.8201C48.1218 26.8201 48.5613 26.3807 48.5613 25.8385V22.9553C48.5135 21.6554 46.6463 21.6544 46.5981 22.9553Z" fill="#FF9FB4"/>
<path d="M47.2893 23.1666V25.6275C47.3089 26.2711 48.2442 26.2721 48.2641 25.6275V23.1666C48.2445 22.5232 47.3092 22.522 47.2893 23.1666Z" fill="#ED72AB"/>
<path d="M50.823 20.9043H49.1053C48.7823 20.9043 48.5205 21.1661 48.5205 21.4891C48.5205 21.812 48.7823 22.0738 49.1053 22.0738H50.823C51.5955 22.0502 51.5962 20.9282 50.823 20.9043Z" fill="#FF9FB4"/>
<path d="M50.6972 21.3159H49.2312C48.8487 21.3254 48.848 21.887 49.2312 21.8967H50.6972C51.0799 21.8871 51.0806 21.3256 50.6972 21.3159Z" fill="#ED72AB"/>
<path d="M54.1873 20.9043H52.4695C52.1466 20.9043 51.8848 21.1661 51.8848 21.4891C51.8848 21.812 52.1466 22.0738 52.4695 22.0738H54.1873C54.9598 22.0502 54.9605 20.9282 54.1873 20.9043Z" fill="#FF9FB4"/>
<path d="M54.0615 21.3159H52.5955C52.213 21.3254 52.2123 21.887 52.5955 21.8967H54.0615C54.4441 21.8871 54.4448 21.3256 54.0615 21.3159Z" fill="#ED72AB"/>
<path d="M2.33193 23.7399C2.74139 23.9669 3.2583 23.8829 3.57764 23.5325L4.65459 22.3454C5.32842 21.6036 6.28467 21.1806 7.28662 21.1806H9.34678C10.7343 21.1806 11.8581 22.3056 11.8581 23.6931V34.8599C11.8581 37.8013 14.2429 40.186 17.1854 40.186H23.912C27.3007 40.2019 30.0236 37.3782 29.9999 34.0981H18.9925C17.4069 34.0981 16.1202 32.8126 16.1202 31.2259V22.8317C16.1202 20.3075 14.0741 18.2603 11.5487 18.2603H6.5999C5.42451 18.2603 4.32529 18.8403 3.66319 19.8118L1.98272 22.2739C1.64404 22.7696 1.80693 23.4493 2.33193 23.7399Z" fill="#D15A96"/>
<path d="M2.33203 23.7401C2.74148 23.9671 3.2584 23.8831 3.57773 23.5327L4.65469 22.3456C5.32852 21.6038 6.28477 21.1808 7.28672 21.1808H9.34688C10.7338 21.1808 11.8582 22.3052 11.8582 23.6921V34.8601C11.8582 37.8016 14.2429 40.1862 17.1844 40.1862H23.9121C26.5992 40.1862 28.8809 38.4448 29.6871 36.0284H17.3977C15.8936 36.0284 14.6742 34.8091 14.6742 33.305V23.4233C14.6742 21.7007 13.2778 20.3042 11.5552 20.3042H6.69105C5.59957 20.3042 4.57055 20.8128 3.9075 21.6797L2.33203 23.7401Z" fill="#ED72AB"/>
<path d="M22.3259 36.7207H25.9558C26.6383 36.7207 27.1916 37.2739 27.1916 37.9564C27.1916 38.6389 26.6383 39.1922 25.9558 39.1922H22.3259C20.6873 39.1263 20.6859 36.7871 22.3259 36.7207Z" fill="#FF9FB4"/>
<path d="M22.5918 37.5908H25.6899C26.5002 37.6154 26.5016 38.7929 25.6899 38.818H22.5918C21.7816 38.7934 21.7802 37.6159 22.5918 37.5908Z" fill="#ED72AB"/>
<path d="M15.4111 36.7207H19.041C19.7235 36.7207 20.2768 37.2739 20.2768 37.9564C20.2768 38.6389 19.7235 39.1922 19.041 39.1922H15.4111C13.7725 39.1263 13.7711 36.7871 15.4111 36.7207Z" fill="#FF9FB4"/>
<path d="M15.677 37.5908H18.7751C19.5853 37.6154 19.5867 38.7929 18.7751 38.818H15.677C14.8669 38.7934 14.8654 37.6159 15.677 37.5908Z" fill="#ED72AB"/>
<path d="M13.4016 33.7595V36.6427C13.4016 37.1848 12.9621 37.6243 12.42 37.6243C11.8779 37.6243 11.4385 37.1848 11.4385 36.6427V33.7595C11.4863 32.4596 13.3534 32.4586 13.4016 33.7595Z" fill="#FF9FB4"/>
<path d="M12.7104 33.9708V36.4317C12.6908 37.0753 11.7555 37.0763 11.7356 36.4317V33.9708C11.7552 33.3274 12.6904 33.3262 12.7104 33.9708Z" fill="#ED72AB"/>
<path d="M13.4016 28.3576V31.2409C13.4016 31.783 12.9621 32.2224 12.42 32.2224C11.8779 32.2224 11.4385 31.783 11.4385 31.2409V28.3576C11.4863 27.0578 13.3534 27.0567 13.4016 28.3576Z" fill="#FF9FB4"/>
<path d="M12.7104 28.569V31.0298C12.6908 31.6733 11.7555 31.6745 11.7356 31.0298V28.569C11.7552 27.9255 12.6904 27.9243 12.7104 28.569Z" fill="#ED72AB"/>
<path d="M13.4016 22.9553V25.8385C13.4016 26.3807 12.9621 26.8201 12.42 26.8201C11.8779 26.8201 11.4385 26.3807 11.4385 25.8385V22.9553C11.4863 21.6554 13.3534 21.6544 13.4016 22.9553Z" fill="#FF9FB4"/>
<path d="M12.7104 23.1666V25.6275C12.6908 26.2711 11.7555 26.2721 11.7356 25.6275V23.1666C11.7552 22.5232 12.6904 22.522 12.7104 23.1666Z" fill="#ED72AB"/>
<path d="M9.17681 20.9043H10.8945C11.2175 20.9043 11.4793 21.1661 11.4793 21.4891C11.4793 21.812 11.2175 22.0738 10.8945 22.0738H9.17681C8.40431 22.0502 8.4036 20.9282 9.17681 20.9043Z" fill="#FF9FB4"/>
<path d="M9.30261 21.3159H10.7686C11.1511 21.3254 11.1518 21.887 10.7686 21.8967H9.30261C8.91999 21.8871 8.91929 21.3256 9.30261 21.3159Z" fill="#ED72AB"/>
<path d="M5.81255 20.9043H7.53028C7.85325 20.9043 8.11505 21.1661 8.11505 21.4891C8.11505 21.812 7.85325 22.0738 7.53028 22.0738H5.81255C5.04005 22.0502 5.03935 20.9282 5.81255 20.9043Z" fill="#FF9FB4"/>
<path d="M5.93835 21.3159H7.40437C7.78687 21.3254 7.78757 21.887 7.40437 21.8967H5.93835C5.55573 21.8871 5.55503 21.3256 5.93835 21.3159Z" fill="#ED72AB"/>
<path d="M39.2291 14.1902V30.0046C39.2424 33.2806 37.0345 36.1963 33.9047 37.0971C33.2514 37.286 32.5608 37.3876 31.8471 37.3876H28.1541C23.6972 37.3876 20.2574 33.4694 20.8334 29.0508L23.0789 11.8151C23.4378 9.06596 26.0803 7.23655 28.7632 7.84065C28.8144 7.85166 28.8658 7.86479 28.917 7.8778L35.716 9.64592C37.7848 10.1836 39.2291 12.0521 39.2291 14.1902Z" fill="#E063A2"/>
<path d="M39.2291 14.19V30.0044C39.2291 31.3432 38.8722 32.5997 38.249 33.6823C37.3072 35.3197 35.7552 36.5611 33.9047 37.0969C33.2513 37.2858 32.5608 37.3874 31.8471 37.3874C30.1439 37.3874 28.7632 36.0067 28.7632 34.3035V7.84033C28.8144 7.85135 28.8657 7.86447 28.9169 7.87748L35.7159 9.64561C37.7847 10.1834 39.2291 12.0519 39.2291 14.19Z" fill="#ED72AB"/>
<path d="M35.5224 25.491C32.7197 28.5282 36.8901 32.6973 39.9254 29.8939C41.1225 28.7098 41.1556 26.7138 39.9254 25.491C38.7041 24.2623 36.706 24.2933 35.5224 25.491Z" fill="#D15A96"/>
<path d="M36.647 24.7708C35.731 27.25 38.1689 29.6859 40.6456 28.7693C41.5623 26.2911 39.1246 23.8551 36.647 24.7708Z" fill="#FF9FB4"/>
<path d="M39.8978 27.6926C39.9028 28.9015 38.8962 29.8752 37.7244 29.866C34.8412 29.7519 34.8419 25.6315 37.7244 25.5191C38.8964 25.5108 39.9028 26.4811 39.8978 27.6926Z" fill="#9ACDAE"/>
<path d="M38.7067 26.8271H36.7422C36.3428 26.8271 36.019 27.1509 36.019 27.5503V27.8348C36.019 28.2342 36.3428 28.558 36.7422 28.558H38.7067C39.1061 28.558 39.4299 28.2342 39.4299 27.8348V27.5503C39.4299 27.1509 39.1061 26.8271 38.7067 26.8271Z" fill="#2E3140"/>
<path d="M39.1524 27.0072C39.1195 27.9935 37.6953 27.9853 37.6665 27.0072C37.695 26.0287 39.1201 26.0212 39.1524 27.0072Z" fill="white"/>
<path d="M20.0737 25.491C17.2709 28.5282 21.4414 32.6973 24.4767 29.8939C25.6737 28.7098 25.7069 26.7138 24.4767 25.491C23.2553 24.2623 21.2573 24.2933 20.0737 25.491Z" fill="#D15A96"/>
<path d="M21.1983 24.7708C20.2822 27.25 22.7202 29.6859 25.1969 28.7693C26.1136 26.2911 23.6759 23.8551 21.1983 24.7708Z" fill="#FF9FB4"/>
<path d="M24.4491 27.6926C24.454 28.9015 23.4475 29.8752 22.2756 29.866C19.3925 29.7519 19.3932 25.6315 22.2756 25.5191C23.4476 25.5108 24.454 26.4811 24.4491 27.6926Z" fill="#9ACDAE"/>
<path d="M23.258 26.8271H21.2935C20.8941 26.8271 20.5703 27.1509 20.5703 27.5503V27.8348C20.5703 28.2342 20.8941 28.558 21.2935 28.558H23.258C23.6574 28.558 23.9812 28.2342 23.9812 27.8348V27.5503C23.9811 27.1509 23.6574 26.8271 23.258 26.8271Z" fill="#2E3140"/>
<path d="M23.7037 27.0072C23.6708 27.9935 22.2466 27.9853 22.2178 27.0072C22.2462 26.0287 23.6714 26.0212 23.7037 27.0072Z" fill="white"/>
<path d="M28.7634 10.0371L34.868 11.6222C35.3674 11.7519 35.7162 12.2027 35.7162 12.7187C35.7162 13.4599 35.0161 14.0016 34.2985 13.8152L28.7634 12.378V10.0371Z" fill="#FF9FB4"/>
</g>
<defs>
<clipPath id="clip0_1123_24235">
<rect width="60" height="60" fill="white"/>
</clipPath>
</defs>
</svg>
