<svg width="22" height="11" viewBox="0 0 22 11" fill="none" xmlns="http://www.w3.org/2000/svg">
<path d="M11.9115 10.0246C11.8858 9.9707 11.2729 8.69453 9.55021 7.87188C8.72052 7.47578 7.79357 7.25078 6.7717 7.19688C5.02795 7.10547 3.00881 7.51211 0.73654 8.41446C0.526774 8.49883 0.423646 8.73672 0.506849 8.94766C0.591224 9.15742 0.829117 9.26055 1.04005 9.17734C3.25724 8.29609 5.24943 7.91407 6.92286 8.03828C7.74318 8.09922 8.48732 8.28203 9.14357 8.58672C10.6272 9.27578 11.1651 10.3633 11.1686 10.3727C11.2389 10.5215 11.3865 10.6094 11.5401 10.6094C11.5986 10.6094 11.6584 10.5965 11.7147 10.5707C11.9197 10.4734 12.0076 10.2297 11.9115 10.0246ZM16.5627 5.76016C16.5053 5.71446 15.126 4.61289 12.4623 4.14883C11.0748 3.90742 9.16701 3.81953 6.78927 4.2836C5.01623 4.62813 2.98185 5.27969 0.707243 6.40117C0.504508 6.50196 0.42013 6.74687 0.520911 6.95078C0.592396 7.09492 0.73771 7.1793 0.888882 7.1793C0.949819 7.1793 1.01193 7.16524 1.06935 7.13711C3.1717 6.10117 5.05255 5.48125 6.69904 5.13789C9.0463 4.64688 10.9166 4.71836 12.2643 4.94688C14.7381 5.36641 16.033 6.38828 16.0459 6.39766C16.2217 6.54063 16.4795 6.51367 16.6225 6.33789C16.7654 6.16211 16.7385 5.90313 16.5627 5.76016ZM21.344 1.13125C21.2596 1.09492 19.2322 0.258202 15.6568 0.241796C13.6623 0.235937 10.9283 0.493753 7.63771 1.4793C5.53537 2.10977 3.20451 3.03672 0.69435 4.38086C0.495131 4.4875 0.420132 4.73594 0.526773 4.93633C0.600601 5.07461 0.742397 5.15312 0.888882 5.15312C0.954507 5.15312 1.02013 5.13672 1.08224 5.10391C3.29122 3.92149 5.3549 3.06836 7.23927 2.46133C10.6694 1.35625 13.5065 1.06211 15.5526 1.06211H15.6006C19.0295 1.06914 21.0065 1.87891 21.0252 1.88711C21.2338 1.975 21.4752 1.87656 21.5631 1.66797C21.651 1.45938 21.5526 1.21914 21.344 1.13125Z" fill="#EBD9EA"/>
<path d="M11.9116 10.0245C12.0077 10.2296 11.9198 10.4733 11.7147 10.5706C11.6584 10.5964 11.5987 10.6093 11.5401 10.6093C11.3866 10.6093 11.2389 10.5214 11.1686 10.3726C11.1651 10.3632 10.6272 9.27569 9.1436 8.58662C8.48735 8.28194 7.74321 8.09912 6.9229 8.03819C6.86079 7.76162 6.80923 7.48154 6.77173 7.19678C7.7936 7.25068 8.72056 7.47568 9.55024 7.87178C11.2729 8.69443 11.8858 9.97061 11.9116 10.0245Z" fill="white"/>
<path d="M16.6224 6.3377C16.4794 6.51348 16.2216 6.54043 16.0459 6.39746C16.033 6.38809 14.738 5.36621 12.2642 4.94668C10.9166 4.71816 9.04624 4.64668 6.69897 5.1377C6.71655 4.84942 6.74702 4.56465 6.78921 4.2834C9.16695 3.81934 11.0748 3.90723 12.4623 4.14863C15.1259 4.6127 16.5052 5.71426 16.5626 5.75996C16.7384 5.90293 16.7654 6.16191 16.6224 6.3377Z" fill="white"/>
<path d="M21.5631 1.66797C21.4752 1.87656 21.2338 1.975 21.0252 1.88711C21.0064 1.87891 19.0295 1.06914 15.6006 1.06211H15.5525C13.5064 1.06211 10.6693 1.35625 7.23926 2.46133C7.3541 2.125 7.48769 1.79805 7.63769 1.4793C10.9283 0.493753 13.6623 0.235937 15.6568 0.241796C19.2322 0.258202 21.2596 1.09492 21.3439 1.13125C21.5525 1.21914 21.651 1.45938 21.5631 1.66797Z" fill="white"/>
</svg>
