<svg width="60" height="60" viewBox="0 0 60 60" fill="none" xmlns="http://www.w3.org/2000/svg">
<g clip-path="url(#clip0_1123_23634)">
<path d="M30 60C46.5685 60 60 46.5685 60 30C60 13.4315 46.5685 0 30 0C13.4315 0 0 13.4315 0 30C0 46.5685 13.4315 60 30 60Z" fill="#53B976"/>
<path d="M35.959 25.1179C35.959 9.35045 34.5434 3.61025 33.4267 1.5351C33.1491 1.01924 32.3631 1.3115 32.4821 1.88502C33.1082 4.90459 34.0314 12.5282 31.3696 25.1179H35.959Z" fill="#3E4E60"/>
<path d="M35.9507 23.038H31.7859C31.8855 22.5095 31.9792 21.9915 32.066 21.4829H35.932C35.9402 21.9892 35.946 22.5071 35.9507 23.038Z" fill="#2E3140"/>
<path d="M35.8759 18.9164H32.4646C32.5396 18.3867 32.6064 17.8676 32.6673 17.3613H35.8244C35.8443 17.8641 35.8607 18.382 35.8759 18.9164Z" fill="#2E3140"/>
<path d="M35.7047 14.7948H32.9297C32.9754 14.2604 33.0129 13.7425 33.0434 13.2397H35.6074C35.6426 13.739 35.6754 14.2569 35.7047 14.7948Z" fill="#2E3140"/>
<path d="M33.1489 10.6744C33.1595 10.1342 33.1618 9.61504 33.1571 9.11816H35.229C35.2876 9.60918 35.3438 10.1271 35.3966 10.6744H33.1489Z" fill="#2E3140"/>
<path d="M34.8634 6.55312H33.0692C33.0353 5.99648 32.9919 5.47734 32.9438 4.99805H34.5646C34.6665 5.46797 34.7673 5.98477 34.8634 6.55312Z" fill="#2E3140"/>
<path d="M33.8309 2.43151H32.5887C32.5523 2.23464 32.5172 2.053 32.482 1.88542C32.3637 1.3112 33.1488 1.0194 33.4266 1.53503C33.5578 1.77995 33.6937 2.07526 33.8309 2.43151Z" fill="#2E3140"/>
<path d="M24.041 25.1179C24.041 9.35045 25.4566 3.61025 26.5733 1.5351C26.8509 1.01924 27.6369 1.3115 27.518 1.88502C26.8918 4.90459 25.9686 12.5282 28.6304 25.1179H24.041Z" fill="#2E3140"/>
<path d="M24.0493 23.038H28.2142C28.1146 22.5095 28.0208 21.9915 27.9341 21.4829H24.0681C24.0599 21.9892 24.054 22.5071 24.0493 23.038Z" fill="#151516"/>
<path d="M24.1243 18.9164H27.5356C27.4606 18.3867 27.3938 17.8676 27.3329 17.3613H24.1758C24.1559 17.8641 24.1395 18.382 24.1243 18.9164Z" fill="#151516"/>
<path d="M24.2954 14.7948H27.0704C27.0247 14.2604 26.9872 13.7425 26.9567 13.2397H24.3927C24.3575 13.739 24.3247 14.2569 24.2954 14.7948Z" fill="#151516"/>
<path d="M26.8512 10.6744C26.8406 10.1342 26.8383 9.61504 26.843 9.11816H24.7711C24.7125 9.60918 24.6563 10.1271 24.6035 10.6744H26.8512Z" fill="#151516"/>
<path d="M25.1367 6.55312H26.9309C26.9648 5.99648 27.0082 5.47734 27.0563 4.99805H25.4355C25.3336 5.46797 25.2328 5.98477 25.1367 6.55312Z" fill="#151516"/>
<path d="M26.1692 2.43151H27.4114C27.4477 2.23464 27.4829 2.053 27.518 1.88542C27.6364 1.3112 26.8512 1.0194 26.5735 1.53503C26.4422 1.77995 26.3063 2.07526 26.1692 2.43151Z" fill="#151516"/>
<path d="M52.1017 15.2545C51.4165 14.2988 50.1546 13.955 49.0793 14.4309L41.8426 17.634C40.92 18.0424 40.3249 18.9565 40.3249 19.9655C40.3249 21.7145 39.5974 23.3848 38.3167 24.576L37.3733 25.4535C36.9424 25.2374 36.4678 25.1179 35.9589 25.1179H24.0409C23.532 25.1179 23.0573 25.2374 22.6264 25.4535L21.6831 24.576C20.4023 23.3848 19.6748 21.7145 19.6748 19.9655C19.6748 18.9565 19.0799 18.0424 18.1571 17.634L10.9205 14.4309C9.84516 13.9549 8.58328 14.2988 7.89809 15.2545C7.28414 16.1108 7.27758 17.2615 7.88191 18.1248L12.887 25.2749C13.9836 26.8414 15.5634 28.0056 17.3846 28.5887L20.2105 29.4938C20.1251 30.2225 20.1445 30.9983 20.2888 31.7864L24.1571 52.9082C24.5651 55.1353 26.4316 56.7352 28.5123 56.7352H31.4876C33.5682 56.7352 35.4349 55.1353 35.8428 52.9082L38.1461 40.3342L39.6238 32.2646L39.7112 31.7865C39.8555 30.9984 39.875 30.2228 39.7895 29.4939L42.6153 28.5888C44.4366 28.0056 46.0164 26.8416 47.113 25.275L52.1181 18.1249C52.7222 17.2616 52.7156 16.1109 52.1017 15.2545Z" fill="#C68132"/>
<path d="M39.7112 31.7866L39.6238 32.2648L38.1461 40.3344L35.8429 52.9084C35.8075 53.1009 35.7614 53.2879 35.705 53.4696C35.1142 55.3979 33.3938 56.7353 31.4877 56.7353H30V25.1182H35.959C38.6121 25.1182 40.342 28.3407 39.7112 31.7866Z" fill="#DD8C29"/>
<path d="M36.0017 26.7293L38.3169 24.576C39.5976 23.3848 40.3251 21.7145 40.3251 19.9655C40.3251 18.9565 40.9201 18.0424 41.8428 17.634L49.0795 14.4309C50.1548 13.9549 51.4167 14.2988 52.1019 15.2545C52.7158 16.1108 52.7224 17.2615 52.118 18.1248L47.113 25.2749C46.0163 26.8414 44.4365 28.0055 42.6153 28.5887L39.4797 29.5929L36.0017 26.7293Z" fill="#DD8C29"/>
<path d="M50.1018 15.8589H50.0831C49.9659 15.8589 49.8522 15.8835 49.7432 15.9315L46.7584 17.2522L42.5069 19.1343C42.1905 19.2749 41.9807 19.5831 41.9667 19.9265C41.9186 21.0386 41.6889 22.1272 41.2659 23.1269C40.844 24.1265 40.2288 25.0382 39.4143 25.7964C39.1788 26.0144 39.0627 26.3097 39.0627 26.6038C39.0627 26.9202 39.1975 27.2354 39.4647 27.4546C39.6932 27.6433 40.0026 27.703 40.285 27.6128L42.0944 27.0327C43.4256 26.6062 44.5987 25.8022 45.4741 24.7229V24.7218C45.5819 24.5905 45.6838 24.4558 45.7811 24.3163L50.7745 17.1843C51.1647 16.6511 50.7569 15.8589 50.1018 15.8589Z" fill="white"/>
<path d="M44.5981 24.5286C44.9977 24.6172 45.1445 25.1184 44.8479 25.4004C44.0696 26.1408 43.1299 26.7009 42.0944 27.0326L40.285 27.6127C40.0026 27.7029 39.6932 27.6432 39.4647 27.4545C39.1975 27.2354 39.0627 26.9201 39.0627 26.6037C39.0627 26.3096 39.1788 26.0143 39.4143 25.7963C40.2288 25.0381 40.844 24.1264 41.2659 23.1268C41.6889 22.1272 41.9186 21.0385 41.9667 19.9264C41.9807 19.583 42.1905 19.2748 42.5069 19.1342L44.9661 18.0456C45.4038 17.8519 45.802 18.3836 45.4929 18.7491L44.0658 20.4371C43.8635 20.6765 44.0336 21.0432 44.3471 21.0432H45.4274C45.8586 21.0432 46.0438 21.5901 45.7015 21.8521L43.6387 23.7203C43.4171 23.9211 43.5142 24.2882 43.8061 24.3529L44.5981 24.5286Z" fill="#3E4E60"/>
<path d="M42.9806 18.0099C43.1584 18.4333 43.6491 18.6285 44.069 18.4426L47.714 16.8293C48.1567 16.6333 48.3342 16.0986 48.0967 15.6767C47.8894 15.3085 47.4363 15.1581 47.05 15.3292L43.405 16.9425C42.9963 17.1233 42.8077 17.5979 42.9806 18.0099Z" fill="#F39E22"/>
<path d="M9.2254 17.1838L14.2188 24.3158C14.316 24.4553 14.418 24.59 14.5258 24.7213V24.7225C15.4012 25.8018 16.5742 26.6057 17.9055 27.0322L19.7148 27.6123C19.9973 27.7025 20.3066 27.6428 20.5352 27.4541C20.8023 27.235 20.9371 26.9197 20.9371 26.6033C20.9371 26.3092 20.8211 26.0139 20.5856 25.7959C19.7711 25.0377 19.1559 24.126 18.734 23.1264C18.3109 22.1268 18.0813 21.0381 18.0332 19.926C18.0191 19.5826 17.8094 19.2744 17.493 19.1338L13.2414 17.2518L10.2566 15.9311C10.1477 15.883 10.034 15.8584 9.9168 15.8584H9.89805C9.24297 15.8584 8.83516 16.6506 9.2254 17.1838Z" fill="#C2AACF"/>
<path d="M15.402 24.5286C15.0024 24.6172 14.8556 25.1184 15.1522 25.4004C15.9305 26.1408 16.8702 26.7009 17.9057 27.0326L19.7151 27.6127C19.9975 27.7029 20.3069 27.6432 20.5354 27.4545C20.8026 27.2354 20.9374 26.9201 20.9374 26.6037C20.9374 26.3096 20.8213 26.0143 20.5858 25.7963C19.7713 25.0381 19.1561 24.1264 18.7342 23.1268C18.3112 22.1272 18.0815 21.0385 18.0334 19.9264C18.0194 19.583 17.8096 19.2748 17.4932 19.1342L15.034 18.0456C14.5963 17.8519 14.1981 18.3836 14.5072 18.7491L15.9343 20.4371C16.1366 20.6765 15.9665 21.0432 15.653 21.0432H14.5727C14.1415 21.0432 13.9563 21.5901 14.2986 21.8521L16.3614 23.7203C16.583 23.9211 16.4859 24.2882 16.194 24.3529L15.402 24.5286Z" fill="#2E3140"/>
<path d="M17.0192 18.0099C16.8414 18.4333 16.3508 18.6285 15.9309 18.4426L12.2859 16.8293C11.8431 16.6333 11.6656 16.0986 11.9031 15.6767C12.1104 15.3085 12.5635 15.1581 12.9499 15.3292L16.5949 16.9425C17.0035 17.1233 17.1922 17.5979 17.0192 18.0099Z" fill="#DD8C29"/>
<path d="M35.705 53.4692C35.1142 55.3976 33.3938 56.735 31.4877 56.735H30V48.231H32.0338C31.9658 50.8998 33.555 52.9944 35.705 53.4692Z" fill="white"/>
<path d="M24.2949 53.4692C24.8858 55.3976 26.6062 56.735 28.5123 56.735H30V48.231H27.9662C28.0341 50.8998 26.445 52.9944 24.2949 53.4692Z" fill="#C2AACF"/>
<path d="M39.6237 32.2646L38.146 40.3343L32.0343 49.2625L29.855 47.4734L39.6237 32.2646Z" fill="white"/>
<path d="M20.3767 32.2646L21.8543 40.3343L27.9659 49.2625L30.1453 47.4734L20.3767 32.2646Z" fill="#C2AACF"/>
<path d="M32.993 47.9258L32.8886 50.7266C32.8626 51.4249 32.3236 51.9815 31.6841 51.9815H28.3152C27.6757 51.9815 27.1368 51.4249 27.1108 50.7266L27.0064 47.9258C26.9355 46.0254 28.2737 44.4165 29.9997 44.4165C31.7256 44.4165 33.0639 46.0254 32.993 47.9258Z" fill="#DD8C29"/>
<path d="M32.9931 47.9258L32.8887 50.7266C32.8626 51.4249 32.3237 51.9815 31.6842 51.9815H29.9998V44.4165C31.7257 44.4165 33.064 46.0254 32.9931 47.9258Z" fill="#F39E22"/>
<path d="M35.6906 54.448C35.568 54.1485 35.226 54.005 34.9264 54.1277C34.5084 54.2988 33.938 54.4995 33.7877 54.5139C33.3278 54.5538 32.5094 54.4189 31.7875 54.2999C31.3618 54.2297 30.9514 54.1621 30.5857 54.1218V53.1416C30.5857 52.818 30.3233 52.5557 29.9998 52.5557C29.6762 52.5557 29.4138 52.818 29.4138 53.1416V54.1218C29.0481 54.1621 28.6377 54.2296 28.2121 54.2999C27.4901 54.4189 26.6719 54.5541 26.2119 54.5139C26.0763 54.5009 25.5442 54.3205 25.0731 54.1277C24.774 54.0054 24.4316 54.1487 24.3089 54.4481C24.1864 54.7477 24.3298 55.0897 24.6292 55.2123C24.8767 55.3137 25.715 55.6468 26.11 55.6813C26.7173 55.7341 27.574 55.5928 28.4027 55.4561C28.9992 55.3577 29.616 55.2559 29.9996 55.2559C30.3833 55.2559 31.0002 55.3576 31.5966 55.4561C32.3034 55.5727 33.0307 55.6927 33.606 55.6927C33.7052 55.6927 33.8 55.689 33.8893 55.6813C34.2843 55.647 35.1226 55.3137 35.3702 55.2123C35.6699 55.0896 35.8132 54.7474 35.6906 54.448Z" fill="#151516"/>
<path d="M29.9998 51.8906V53.1416C29.9779 53.1706 29.9546 53.198 29.9299 53.2239C29.5654 53.6067 28.9744 53.6067 28.603 53.2239L28.2968 52.9088L27.5658 52.1572C27.1798 51.7593 27.1556 51.1061 27.519 50.6978C27.7025 50.4917 27.9484 50.3882 28.198 50.3882C28.4476 50.3882 28.6983 50.4917 28.8913 50.6978L29.9285 51.8054C29.9538 51.8331 29.9775 51.8615 29.9998 51.8906Z" fill="#151516"/>
<path d="M32.4337 52.1572L31.3965 53.2239C31.0251 53.6067 30.4342 53.6067 30.0696 53.2239C30.0449 53.198 30.0217 53.1706 29.9998 53.1416V51.8906C30.022 51.8615 30.0457 51.8331 30.0709 51.8054L31.1081 50.6978C31.3011 50.4917 31.5518 50.3882 31.8015 50.3882C32.0512 50.3882 32.297 50.4917 32.4805 50.6978C32.8439 51.106 32.8198 51.7593 32.4337 52.1572Z" fill="#2E3140"/>
<path d="M40.4903 36.3285C41.4933 36.9076 41.8423 38.1831 41.2774 39.1907C41.2739 39.1999 41.2691 39.2084 41.2642 39.2169L40.5287 40.4909C40.2371 40.996 39.7678 41.3363 39.2449 41.4764C38.7212 41.618 38.1459 41.5586 37.6396 41.2662C36.6985 40.7229 36.3323 39.5653 36.7563 38.5932C36.7877 38.5191 36.8243 38.4462 36.865 38.3757L37.6004 37.1017C37.8928 36.5952 38.3627 36.257 38.8856 36.117C39.4086 35.9767 39.9838 36.036 40.4903 36.3285Z" fill="#3E4E60"/>
<path d="M40.4903 36.328C41.4933 36.9072 41.8423 38.1827 41.2774 39.1902C40.1467 39.7901 38.6749 39.785 37.4067 39.0528C37.1712 38.9167 36.9535 38.7629 36.7563 38.5926C36.7878 38.5185 36.8243 38.4456 36.865 38.3751L37.6004 37.1011C37.8928 36.5946 38.3628 36.2564 38.8856 36.1164C39.4087 35.9763 39.9838 36.0355 40.4903 36.328Z" fill="#2E3140"/>
<path d="M38.6535 37.187L38.211 37.9535C38.0204 38.2835 38.1335 38.7056 38.4635 38.8962C38.7935 39.0867 39.2156 38.9736 39.4062 38.6436L39.8487 37.8771C40.0392 37.5471 39.9261 37.125 39.5961 36.9344C39.266 36.7438 38.844 36.8569 38.6535 37.187Z" fill="white"/>
<path d="M19.5094 36.3285C18.5064 36.9076 18.1574 38.1831 18.7222 39.1907C18.7257 39.1999 18.7305 39.2084 18.7355 39.2169L19.4709 40.4909C19.7625 40.996 20.2318 41.3363 20.7547 41.4764C21.2784 41.618 21.8537 41.5586 22.3601 41.2662C23.3011 40.7229 23.6673 39.5653 23.2433 38.5932C23.2119 38.5191 23.1753 38.4462 23.1347 38.3757L22.3992 37.1017C22.1068 36.5952 21.6369 36.257 21.114 36.117C20.591 35.9767 20.0159 36.036 19.5094 36.3285Z" fill="#3E4E60"/>
<path d="M19.5094 36.328C18.5064 36.9072 18.1574 38.1827 18.7222 39.1902C19.853 39.7901 21.3247 39.785 22.5929 39.0528C22.8285 38.9167 23.0462 38.7629 23.2433 38.5926C23.2119 38.5185 23.1753 38.4456 23.1347 38.3751L22.3992 37.1011C22.1068 36.5946 21.6369 36.2564 21.114 36.1164C20.591 35.9763 20.0159 36.0355 19.5094 36.328Z" fill="#2E3140"/>
<path d="M21.3464 37.187L21.7889 37.9535C21.9794 38.2835 21.8663 38.7056 21.5363 38.8962C21.2063 39.0867 20.7842 38.9736 20.5937 38.6436L20.1512 37.8771C19.9606 37.5471 20.0737 37.125 20.4037 36.9344C20.7338 36.7438 21.1558 36.8569 21.3464 37.187Z" fill="white"/>
<path d="M29.9998 37.0658C33.7157 37.0658 37.1161 34.0534 37.1161 30.3375C37.1161 28.2305 35.4081 26.5225 33.301 26.5225H29.9998V37.0658Z" fill="#F39E22"/>
<path d="M29.9999 37.0658C26.284 37.0658 22.8835 34.0534 22.8835 30.3375C22.8835 28.2305 24.5916 26.5225 26.6986 26.5225H29.9999V37.0658Z" fill="#DD8C29"/>
</g>
<defs>
<clipPath id="clip0_1123_23634">
<rect width="60" height="60" fill="white"/>
</clipPath>
</defs>
</svg>
