<svg width="60" height="60" viewBox="0 0 60 60" fill="none" xmlns="http://www.w3.org/2000/svg">
<g clip-path="url(#clip0_1123_24532)">
<path d="M30 60C46.5685 60 60 46.5685 60 30C60 13.4315 46.5685 0 30 0C13.4315 0 0 13.4315 0 30C0 46.5685 13.4315 60 30 60Z" fill="#53B976"/>
<path d="M51.5004 30.7067L51.286 31.7614C51.1266 32.5407 50.877 33.2778 50.5512 33.9645C48.6997 37.8645 44.3708 40.152 39.9528 39.2496L39.9153 39.2414C39.2192 39.0996 38.5055 39.3188 37.9887 39.8051C37.1532 40.5903 36.1665 41.2184 35.0778 41.6379C34.0747 42.0282 32.9848 42.2403 31.8434 42.2403H20.1364C20.0274 42.2403 19.9196 42.2391 19.8118 42.2344C18.9165 42.2086 18.0493 42.0704 17.2231 41.836C15.9973 41.4856 14.8618 40.9219 13.8598 40.1848C11.2336 38.2547 9.52856 35.1422 9.52856 31.6325V24.2942H25.6524C26.6262 21.3188 28.9618 19.084 31.8071 18.1571C33.3364 17.6567 35.0122 17.536 36.7008 17.8805L44.0133 19.3747C49.2106 20.4364 52.5622 25.5094 51.5004 30.7067Z" fill="#C2AACF"/>
<path d="M17.2231 38.877V41.8359C15.9974 41.4855 14.8618 40.9219 13.8599 40.1848V38.877C13.8599 37.9477 14.6134 37.1953 15.5415 37.1953C16.0056 37.1953 16.4263 37.3828 16.7298 37.6875C17.0345 37.9922 17.2231 38.4117 17.2231 38.877Z" fill="#DECEE5"/>
<path d="M23.1739 38.877V42.2402H20.1364C20.0274 42.2402 19.9196 42.2391 19.8118 42.2344V38.877C19.8118 37.9477 20.5641 37.1953 21.4934 37.1953C21.9575 37.1953 22.3782 37.3828 22.6817 37.6875C22.9852 37.9922 23.1739 38.4117 23.1739 38.877Z" fill="#DECEE5"/>
<path d="M29.126 38.877V42.2402H25.7627V38.877C25.7627 37.9477 26.5162 37.1953 27.4443 37.1953C27.9096 37.1953 28.3291 37.3828 28.6338 37.6875C28.9385 37.9922 29.126 38.4117 29.126 38.877Z" fill="#DECEE5"/>
<path d="M35.0779 38.877V41.6379C34.0748 42.0281 32.9849 42.2402 31.8435 42.2402H31.7146V38.877C31.7146 37.9477 32.4669 37.1953 33.3962 37.1953C33.8603 37.1953 34.281 37.3828 34.5845 37.6875C34.8892 37.9922 35.0779 38.4117 35.0779 38.877Z" fill="#DECEE5"/>
<path d="M51.5004 30.7067L51.2859 31.7614C51.1266 32.5407 50.877 33.2778 50.5512 33.9645C49.0219 34.4649 47.3461 34.5856 45.6574 34.2411L38.3449 32.747C38.257 32.7294 38.1703 32.7095 38.0836 32.6896C37.1742 32.4774 36.2227 32.7212 35.5395 33.3587C33.7945 34.9899 31.452 35.9884 28.875 35.9884H9.52852C8.77031 35.9884 8.08242 35.6813 7.58438 35.1833C7.0875 34.6853 6.7793 33.9985 6.7793 33.2392C6.7793 33.1091 6.78047 32.9802 6.78398 32.8513C6.99023 23.27 14.823 15.5649 24.4547 15.5649H31.6594C32.1598 15.5649 32.6484 15.6177 33.1195 15.7173C34.6055 16.0337 35.9156 16.8224 36.8871 17.9192L44.0133 19.3747C49.2105 20.4364 52.5621 25.5095 51.5004 30.7067Z" fill="#DECEE5"/>
<path d="M33.1195 15.7173C29.3378 25.7134 19.2832 32.8595 7.47534 32.8595C7.24448 32.8595 7.01362 32.8571 6.78394 32.8513C6.99019 23.27 14.823 15.5649 24.4546 15.5649H31.6593C32.1597 15.5649 32.6484 15.6177 33.1195 15.7173Z" fill="#F4E6F4"/>
<path d="M26.6681 21.6562C27.5461 22.5341 27.8641 23.7588 27.6225 24.8879C27.4874 25.5338 27.1678 26.1455 26.6681 26.6452L23.2452 30.0681C22.5556 30.7576 21.6545 31.1017 20.7507 31.1017C19.8468 31.1017 18.9457 30.7576 18.2561 30.0681C16.9672 28.7792 16.884 26.7407 18.0077 25.3549C18.0841 25.2593 18.1674 25.1679 18.2561 25.0791L21.6791 21.6562C22.3672 20.968 23.2698 20.6226 24.1736 20.6226C25.0761 20.624 25.9786 20.9666 26.6681 21.6562Z" fill="#746087"/>
<path d="M26.6681 21.6562C27.546 22.5341 27.8641 23.7588 27.6225 24.8879C24.5777 27.4903 20.4065 27.7375 18.0076 25.3549C18.084 25.2593 18.1673 25.1679 18.256 25.0791L21.6789 21.6562C22.3671 20.968 23.2696 20.6226 24.1735 20.6226C25.0761 20.624 25.9785 20.9666 26.6681 21.6562Z" fill="#9175A7"/>
<path d="M25.7261 25.8443L23.1128 28.4576L22.4448 29.1256C21.996 29.5756 21.4089 29.7994 20.8218 29.7994C20.7878 29.7994 20.755 29.7982 20.721 29.7971C20.1679 29.7736 19.6218 29.5498 19.1976 29.1256C18.3022 28.2303 18.3011 26.776 19.1976 25.8795L22.4788 22.5982C22.9265 22.1506 23.5136 21.9268 24.1007 21.9268C24.6913 21.9268 25.2784 22.1506 25.7261 22.5982C26.6226 23.4947 26.6214 24.949 25.7261 25.8443Z" fill="#53B976"/>
<path d="M23.6624 26.1761C23.6624 26.9952 23.4644 27.7698 23.1128 28.4577L22.4448 29.1257C21.996 29.5757 21.4089 29.7995 20.8218 29.7995C20.7878 29.7995 20.755 29.7983 20.721 29.7972C20.1679 29.7737 19.6218 29.5499 19.1976 29.1257C18.3022 28.2304 18.3011 26.7761 19.1976 25.8796L22.3218 22.7554C23.1562 23.6671 23.6624 24.8647 23.6624 26.1761Z" fill="#3E4E60"/>
<path d="M22.2562 26.1761C22.2562 27.587 21.6702 28.8655 20.721 29.7972C20.1679 29.7737 19.6218 29.5499 19.1976 29.1257C18.3022 28.2304 18.3011 26.7761 19.1976 25.8796L21.519 23.5581C21.9878 24.3257 22.2562 25.221 22.2562 26.1761Z" fill="#2E3140"/>
<path d="M23.6273 23.0102L21.7043 24.9333C21.3287 25.3088 21.3287 25.9179 21.7043 26.2934C22.0799 26.669 22.6889 26.669 23.0645 26.2934L24.9875 24.3704C25.3631 23.9948 25.3631 23.3858 24.9875 23.0102C24.612 22.6346 24.003 22.6346 23.6273 23.0102Z" fill="#83D5EF"/>
<path d="M33.6597 29.0026L28.5831 27.996C28.03 27.8858 27.4581 28.0522 27.0503 28.4425L25.3616 30.0538C24.4323 30.9397 24.7569 32.4925 25.9616 32.9331L27.9304 33.6538C29.578 34.2562 31.4249 33.8929 32.721 32.7093L34.2937 31.2737C35.0929 30.5425 34.7226 29.2136 33.6597 29.0026ZM36.178 24.1276C36.1417 23.0331 35.0589 22.2843 34.0229 22.6382L29.8757 24.0538C29.4714 24.1921 29.1503 24.5026 28.9991 24.9022C28.6616 25.7917 29.2698 26.7573 30.2179 26.837L34.4577 27.1956C35.4292 27.2765 36.2542 26.4937 36.2226 25.5187L36.178 24.1276ZM32.5757 18.1183L32.1913 17.864L31.6522 17.5089C30.805 16.9511 29.6659 17.1913 29.1163 18.0421L28.1132 19.5948C27.8378 20.0202 27.7581 20.5429 27.8929 21.0304C28.0944 21.7593 28.7144 22.2433 29.4069 22.3218C29.7046 22.3546 30.0163 22.3124 30.314 22.1823L32.3026 21.3116C33.628 20.7315 33.7827 18.914 32.5757 18.1183ZM26.1702 16.5854H22.821C22.0921 16.5854 21.58 17.3015 21.8144 17.9917L21.9819 18.4851C22.2409 19.248 22.9569 19.7601 23.7608 19.7601H25.2386C26.0554 19.7601 26.7772 19.2339 27.028 18.4569L27.1827 17.9753C27.4042 17.2886 26.8921 16.5854 26.1702 16.5854ZM20.0354 18.2718L19.6558 18.0562C19.2948 17.8312 18.8331 17.8464 18.4874 18.0948L13.1812 21.9034C12.3503 22.4999 12.7722 23.8112 13.7952 23.8112L16.3323 24.0058C16.7999 24.0421 17.2616 23.878 17.6015 23.5546L20.3589 20.9366C21.1722 20.1644 21.0104 18.8272 20.0354 18.2718ZM21.9573 33.0644C21.5565 32.8171 21.1335 32.6132 20.6929 32.4526C20.2534 32.2921 19.7976 32.1749 19.3312 32.1058C18.546 31.9897 17.8429 31.6382 17.2921 31.1249C16.6112 30.4933 16.1636 29.6179 16.0815 28.6394L15.989 27.5308C15.894 26.4058 14.953 25.5397 13.8233 25.5397H11.4878C10.6663 25.5397 9.91514 26.0015 9.54717 26.7339C9.10303 27.6163 8.75615 28.5562 8.52061 29.5382C8.28506 30.5202 8.15967 31.5468 8.15967 32.6015C8.15967 32.6858 8.16436 32.7702 8.17607 32.8511C8.29795 33.8565 9.15459 34.6347 10.194 34.6347H21.5132C22.0394 34.6347 22.3628 34.2081 22.3628 33.7769C22.3628 33.5073 22.2374 33.2366 21.9573 33.0644Z" fill="#C68132"/>
<path d="M17.2921 31.1247C14.4526 32.1688 11.3835 32.7735 8.17607 32.8509C8.16436 32.77 8.15967 32.6856 8.15967 32.6013C8.15967 31.5466 8.28506 30.52 8.52061 29.538C8.75615 28.556 9.10303 27.6161 9.54717 26.7337C9.91514 26.0013 10.6663 25.5396 11.4878 25.5396H13.8233C14.953 25.5396 15.894 26.4056 15.989 27.5306L16.0815 28.6392C16.1636 29.6177 16.6112 30.4931 17.2921 31.1247Z" fill="#F39E22"/>
<path d="M20.359 20.9367L17.6016 23.5547C17.2617 23.8781 16.8 24.0422 16.3324 24.0058L13.7953 23.8113C12.7723 23.8113 12.3504 22.5 13.1813 21.9035L18.4875 18.0949C18.8332 17.8465 19.2949 17.8312 19.6559 18.0562L20.0356 18.2719C21.0106 18.8273 21.1723 20.1644 20.359 20.9367Z" fill="#F39E22"/>
<path d="M27.1826 17.9753L27.0279 18.4569C26.7772 19.2339 26.0553 19.7601 25.2385 19.7601H23.7608C22.9568 19.7601 22.2408 19.248 21.9818 18.4851L21.8143 17.9917C21.5799 17.3015 22.092 16.5854 22.8209 16.5854H26.1701C26.892 16.5854 27.4041 17.2886 27.1826 17.9753Z" fill="#F39E22"/>
<path d="M32.1914 17.864C31.418 19.4426 30.484 20.9355 29.407 22.3219C28.7145 22.2433 28.0945 21.7594 27.893 21.0305C27.7582 20.543 27.8379 20.0203 28.1133 19.5949L29.1164 18.0422C29.666 17.1914 30.8051 16.9512 31.6523 17.509L32.1914 17.864Z" fill="#F39E22"/>
<path d="M12.9095 27.7568C12.9095 27.867 12.8942 27.9771 12.8638 28.0873C12.8626 28.0931 12.8614 28.1002 12.8591 28.106L12.4689 29.422C12.2755 30.0724 11.5923 30.4427 10.9419 30.2494C10.8388 30.2189 10.7439 30.1767 10.656 30.1228C10.1884 29.8416 9.95167 29.2709 10.1146 28.7236L10.5048 27.4076C10.697 26.7572 11.3802 26.3869 12.0306 26.5791C12.565 26.7373 12.9095 27.2271 12.9095 27.7568Z" fill="#2E3140"/>
<path d="M12.8638 28.0872C12.8626 28.0931 12.8615 28.1001 12.8591 28.106L12.4689 29.422C12.2755 30.0724 11.5923 30.4427 10.9419 30.2493C10.8388 30.2189 10.7439 30.1767 10.656 30.1228C10.6572 30.1169 10.6595 30.1122 10.6607 30.1064L11.0521 28.7892C11.2443 28.14 11.9275 27.7685 12.5779 27.9618C12.681 27.9923 12.7759 28.0345 12.8638 28.0872Z" fill="#3E4E60"/>
<path d="M54.2684 36.6738C54.1676 36.7734 54.0609 36.8707 53.9484 36.9632L50.8394 39.5378C48.2742 41.6601 44.3801 40.6078 43.2352 37.4812L36.9434 20.3121C36.743 19.7636 36.6445 19.1953 36.6445 18.6304C36.6445 17.4246 37.091 16.2386 37.9324 15.3199C39.4957 13.6136 41.9039 13.2914 43.7965 14.2253C44.5863 14.6156 45.2859 15.2238 45.798 16.0418L46.3324 16.8949L46.8691 17.7527L48.0914 19.7085L50.482 23.5289L51.8121 25.6546L54.2016 29.475L54.9621 30.6902C55.1016 30.9117 55.2199 31.1414 55.3184 31.3757C56.0801 33.1769 55.6746 35.2828 54.2684 36.6738Z" fill="#C68132"/>
<path d="M46.8692 17.7529L42.0962 19.8025C40.9653 20.2877 39.6563 19.765 39.1712 18.6342C38.686 17.5045 39.2087 16.1955 40.3384 15.7104L43.7966 14.2256C44.5864 14.6158 45.286 15.224 45.7981 16.042L46.8692 17.7529Z" fill="#F39E22"/>
<path d="M50.4821 23.5293L44.7095 26.0078C43.5798 26.493 42.2696 25.9703 41.7845 24.8406C41.2993 23.7109 41.822 22.4008 42.9517 21.9156L48.0915 19.709L50.4821 23.5293Z" fill="#F39E22"/>
<path d="M54.2017 29.4751L47.5583 32.3274C46.4286 32.8138 45.1185 32.2899 44.6333 31.1603C44.1482 30.0306 44.6708 28.7204 45.8017 28.2353L51.8122 25.6548L54.2017 29.4751Z" fill="#F39E22"/>
<path d="M54.2686 36.674L50.2021 38.4201C49.0725 38.9053 47.7623 38.3826 47.2771 37.2518C46.792 36.1221 47.3146 34.8131 48.4443 34.3268L55.3185 31.376C56.0803 33.1771 55.6748 35.283 54.2686 36.674Z" fill="#F39E22"/>
</g>
<defs>
<clipPath id="clip0_1123_24532">
<rect width="60" height="60" fill="white"/>
</clipPath>
</defs>
</svg>
