<svg width="60" height="60" viewBox="0 0 60 60" fill="none" xmlns="http://www.w3.org/2000/svg">
<g clip-path="url(#clip0_1123_23812)">
<path d="M30 60C46.5685 60 60 46.5685 60 30C60 13.4315 46.5685 0 30 0C13.4315 0 0 13.4315 0 30C0 46.5685 13.4315 60 30 60Z" fill="#6C53A2"/>
<path d="M15.86 12.6268C16.3287 13.9803 17.2358 15.0339 18.2307 15.8342C20.1713 17.3999 22.4436 18.0022 22.4436 18.0022L27.6561 13.0417C26.0623 9.37136 24.2893 7.10495 22.7283 5.74675C20.6822 3.96198 18.9994 3.73698 18.5588 3.94558C17.3342 4.528 14.4735 8.62839 15.86 12.6268Z" fill="#3E4E60"/>
<path d="M15.86 12.6268C16.3287 13.9803 17.2358 15.0339 18.2307 15.8342C21.0256 14.428 22.9615 11.3764 22.9615 7.83854C22.9615 7.11784 22.8807 6.41706 22.7283 5.74675C20.6822 3.96198 18.9994 3.73698 18.5588 3.94558C17.3342 4.528 14.4735 8.62839 15.86 12.6268Z" fill="#3F5D77"/>
<path d="M17.8639 14.0471C19.5525 15.5963 21.519 16.8561 23.2053 16.0838C23.4889 15.9549 23.7631 15.7686 24.0279 15.5167C25.7553 13.8737 24.4147 9.72877 22.4483 7.12135H22.4471C21.376 5.69986 20.1186 4.73541 19.0709 4.88306C16.1014 5.30025 15.8928 12.2378 17.8639 14.0471Z" fill="#C2AACF"/>
<path d="M20.5934 10.15C20.022 10.3257 19.4347 10.546 18.984 10.8072C18.7177 10.9615 18.6698 11.3287 18.8878 11.546C19.317 11.9738 20.0893 12.6262 21.0431 12.9182C21.4242 13.0349 21.5086 13.5336 21.1802 13.7594C21.0177 13.8712 20.8543 13.9926 20.701 14.1207C20.4899 14.2972 20.4741 14.6164 20.6672 14.8126C21.1493 15.3024 22.1182 16.1169 23.2051 16.084C23.4887 15.9551 23.7629 15.7688 24.0277 15.5169C25.7551 13.8739 24.4145 9.72897 22.4481 7.12155H22.4469C20.7399 6.50573 19.5751 6.34952 18.9191 6.32268C18.5824 6.30885 18.3436 6.64366 18.4605 6.95959C18.7073 7.62639 19.2332 8.65354 20.2263 9.09616C20.3643 9.15756 20.4971 9.21241 20.6243 9.26151C21.0402 9.4217 21.0194 10.019 20.5934 10.15Z" fill="#DECEE5"/>
<path d="M44.1503 12.6268C43.6816 13.9803 42.7746 15.0339 41.7796 15.8342C39.839 17.3999 37.5667 18.0022 37.5667 18.0022L32.3542 13.0417C33.948 9.37136 35.721 7.10495 37.282 5.74675C39.3281 3.96198 41.0109 3.73698 41.4515 3.94558C42.6761 4.528 45.5367 8.62839 44.1503 12.6268Z" fill="#3F5D77"/>
<path d="M44.1504 12.6268C43.6816 13.9803 42.7746 15.0339 41.7797 15.8342C38.9848 14.428 37.0488 11.3764 37.0488 7.83854C37.0488 7.11784 37.1297 6.41706 37.282 5.74675C39.3281 3.96198 41.0109 3.73698 41.4516 3.94558C42.6762 4.528 45.5367 8.62839 44.1504 12.6268Z" fill="#3F6C8E"/>
<path d="M42.1464 14.0471C40.4578 15.5963 38.4914 16.8561 36.805 16.0838C36.5214 15.9549 36.2472 15.7686 35.9824 15.5167C34.255 13.8737 35.5957 9.72877 37.5621 7.12135H37.5632C38.6343 5.69986 39.8918 4.73541 40.9394 4.88306C43.9089 5.30025 44.1175 12.2378 42.1464 14.0471Z" fill="#F4E6F4"/>
<path d="M39.4167 10.15C39.9881 10.3257 40.5754 10.546 41.0261 10.8072C41.2924 10.9615 41.3403 11.3287 41.1223 11.546C40.6931 11.9738 39.9208 12.6262 38.967 12.9182C38.5859 13.0349 38.5016 13.5336 38.8299 13.7594C38.9925 13.8712 39.1558 13.9926 39.3091 14.1207C39.5203 14.2972 39.536 14.6164 39.343 14.8126C38.8609 15.3024 37.892 16.1169 36.805 16.084C36.5214 15.9551 36.2472 15.7688 35.9824 15.5169C34.255 13.8739 35.5957 9.72897 37.5621 7.12155H37.5632C39.2702 6.50573 40.435 6.34952 41.0911 6.32268C41.4277 6.30885 41.6666 6.64366 41.5496 6.95959C41.3028 7.62639 40.7769 8.65354 39.7838 9.09616C39.6458 9.15756 39.513 9.21241 39.3859 9.26151C38.9698 9.4217 38.9906 10.019 39.4167 10.15Z" fill="white"/>
<path d="M39.9326 32.6288V37.6129C39.9326 39.884 39.0037 42.0884 37.2991 43.8612L32.9061 48.4302H27.1401L22.7471 43.8612C21.0425 42.0884 20.1135 39.884 20.1135 37.6129V32.6288C20.1135 28.0949 24.5093 24.4158 29.9465 24.383C29.9718 24.3818 29.9971 24.3818 30.0224 24.3818C32.7599 24.3818 35.2362 25.3046 37.0307 26.7967C38.8238 28.2902 39.9326 30.3507 39.9326 32.6288Z" fill="#C2AACF"/>
<path d="M39.9327 32.6288V37.6129C39.9327 39.884 39.0037 42.0884 37.2991 43.8612L32.9061 48.4302H29.9465V24.383C29.9718 24.3818 29.9972 24.3818 30.0225 24.3818C32.76 24.3818 35.2363 25.3046 37.0308 26.7967C38.8238 28.2902 39.9327 30.3507 39.9327 32.6288Z" fill="#DECEE5"/>
<path d="M38.8521 27.1438L38.3564 27.8435C36.99 29.7735 36.0748 31.9017 35.6623 34.1153L34.5947 39.827L33.8588 43.7622C33.5904 45.1989 33.8471 46.6696 34.5982 47.9833L35.3283 49.2618C35.8709 50.211 36.1041 51.2622 36.0057 52.311L35.6998 55.5419C35.5955 56.6517 34.4834 57.5071 33.1451 57.5071H26.8955C25.5596 57.5071 24.4463 56.6517 24.3408 55.5431L24.0291 52.2677C23.9307 51.247 24.1498 50.2216 24.6619 49.2911L25.4963 47.7771C26.2064 46.488 26.4455 45.0513 26.183 43.6485L25.4846 39.9103L24.3689 33.9407C23.9553 31.7317 23.0436 29.6071 21.6818 27.6794L21.1932 26.988C20.1877 25.5688 19.9861 23.8532 20.6389 22.2981L23.4889 15.513C24.1111 14.0329 25.7893 13.0415 27.6725 13.0415H32.3541C34.2455 13.0415 35.9271 14.0411 36.5436 15.5294L39.417 22.4751C40.058 24.0255 39.8506 25.7317 38.8521 27.1438Z" fill="#DECEE5"/>
<path d="M38.852 27.1436L38.356 27.843C36.99 29.7738 36.0751 31.901 35.6619 34.1147L33.8589 43.7627C33.5904 45.1987 33.8476 46.6699 34.5981 47.9832L35.3289 49.2613C35.8713 50.2109 36.1047 51.2623 36.0062 52.3113L35.6999 55.5413C35.596 56.6511 34.4829 57.5071 33.1451 57.5071H30.0239V13.0415H32.354C34.2456 13.0415 35.9277 14.0413 36.5432 15.5289L39.4171 22.4754C40.0576 24.0248 39.8512 25.7309 38.852 27.1436Z" fill="#F4E6F4"/>
<path d="M36.0056 52.3111L35.6998 55.542C35.5955 56.6518 34.4834 57.5072 33.1451 57.5072H26.8955C25.5595 57.5072 24.4463 56.6518 24.3408 55.5432L24.0291 52.2678C23.9306 51.2471 24.1498 50.2217 24.6619 49.2912L25.4963 47.7772C26.2064 46.4881 26.4455 45.0514 26.183 43.6486L25.4845 39.9104C26.858 40.5092 28.365 40.8397 29.9459 40.8397C31.5994 40.8397 33.172 40.4787 34.5947 39.8271L33.8588 43.7623C33.5904 45.199 33.847 46.6697 34.5982 47.9834L35.3283 49.2619C35.8709 50.2111 36.1041 51.2623 36.0056 52.3111Z" fill="#3E4E60"/>
<path d="M36.0056 52.3111L35.6997 55.542C35.5954 56.6518 34.4833 57.5072 33.145 57.5072H29.9458V40.8397C31.5993 40.8397 33.172 40.4787 34.5946 39.8271L33.8587 43.7623C33.5903 45.199 33.847 46.6697 34.5981 47.9834L35.3282 49.2619C35.8708 50.2111 36.104 51.2623 36.0056 52.3111Z" fill="#3F5D77"/>
<path d="M30.0224 40.8382V44.3257C29.4657 44.3257 28.9536 44.1534 28.5634 43.8651C28.1743 43.5769 27.906 43.1737 27.8392 42.7144L27.5298 40.5757C28.3091 40.7491 29.1177 40.8394 29.9462 40.8394C29.972 40.8394 29.9966 40.8394 30.0224 40.8382Z" fill="#3F5D77"/>
<path d="M32.5219 40.5381L32.2078 42.7143C32.141 43.1736 31.8727 43.5768 31.4836 43.865C31.0922 44.1533 30.5801 44.3256 30.0234 44.3256V40.8381C30.8824 40.8334 31.718 40.7303 32.5219 40.5381Z" fill="#3F6C8E"/>
<path d="M27.5296 40.5751C28.3091 40.7478 29.1173 40.8395 29.9461 40.8395C29.9715 40.8395 29.9968 40.8386 30.0223 40.8384V31.6777H28.725C27.4055 31.6777 26.3836 32.6363 26.5406 33.7262L27.5296 40.5751Z" fill="#F4E6F4"/>
<path d="M32.5218 40.5389L32.5219 40.5383L33.5051 33.7262C33.6633 32.6363 32.6402 31.6777 31.3219 31.6777H30.0234V40.8384C30.8816 40.8325 31.7176 40.7293 32.5218 40.5389Z" fill="white"/>
<path d="M32.5991 8.33877L31.9066 13.4224C31.8292 13.9849 31.3487 14.4056 30.7804 14.4056H29.1128C28.5444 14.4056 28.064 13.9849 27.9866 13.4224L27.2941 8.33877C27.1112 6.99932 28.153 5.80518 29.5054 5.80518H30.3878C31.7402 5.80518 32.7819 6.99932 32.5991 8.33877Z" fill="#3E4E60"/>
<path d="M32.5992 8.33877L31.9066 13.4224C31.8292 13.9849 31.3488 14.4056 30.7804 14.4056H29.946V5.80518H30.3878C31.7402 5.80518 32.782 6.99932 32.5992 8.33877Z" fill="#3F5D77"/>
<path d="M30.0237 15.3164H31.2477C32.6115 15.3164 33.8286 16.1727 34.2893 17.4564L35.7545 21.5394C36.2114 22.8128 35.5437 24.21 34.2694 24.6639C33.16 25.059 31.6976 25.414 30.0238 25.414V15.3164H30.0237Z" fill="white"/>
<path d="M30.0238 15.3164H28.7999C27.436 15.3164 26.2189 16.1727 25.7583 17.4564L24.2931 21.5394C23.8362 22.8128 24.5039 24.21 25.7782 24.6639C26.8876 25.059 28.35 25.414 30.0238 25.414V15.3164Z" fill="#F4E6F4"/>
<path d="M39.0185 26.6246C39.8859 27.1254 40.1876 28.2284 39.6992 29.0997C39.6962 29.1077 39.6919 29.1151 39.6877 29.1223L39.0516 30.224C38.7994 30.6608 38.3936 30.9551 37.9414 31.0763C37.4885 31.1986 36.991 31.1474 36.5531 30.8945C35.7393 30.4247 35.4227 29.4237 35.7893 28.5829C35.8164 28.5189 35.848 28.4558 35.8832 28.3948L36.5193 27.2931C36.7722 26.8552 37.1785 26.5627 37.6307 26.4415C38.0831 26.3204 38.5805 26.3717 39.0185 26.6246Z" fill="#3E4E60"/>
<path d="M39.0185 26.6246C39.886 27.1254 40.1877 28.2284 39.6993 29.0997C38.7215 29.6185 37.4487 29.614 36.3519 28.9809C36.1481 28.8632 35.9599 28.7301 35.7896 28.5829C35.8167 28.5189 35.8483 28.4558 35.8835 28.3948L36.5196 27.2931C36.7725 26.8552 37.1788 26.5627 37.631 26.4415C38.0831 26.3204 38.5806 26.3717 39.0185 26.6246Z" fill="#2E3140"/>
<path d="M37.4298 27.3673L37.0471 28.0301C36.8823 28.3156 36.9801 28.6805 37.2655 28.8453C37.551 29.01 37.9159 28.9123 38.0807 28.6268L38.4634 27.964C38.6282 27.6786 38.5304 27.3136 38.245 27.1489C37.9596 26.9841 37.5947 27.082 37.4298 27.3673Z" fill="white"/>
<path d="M20.8745 26.6246C20.0071 27.1254 19.7053 28.2284 20.1937 29.0997C20.1968 29.1077 20.201 29.1151 20.2052 29.1223L20.8413 30.224C21.0935 30.6608 21.4993 30.9551 21.9516 31.0763C22.4045 31.1986 22.902 31.1474 23.3399 30.8945C24.1536 30.4247 24.4703 29.4237 24.1037 28.5829C24.0765 28.5189 24.045 28.4558 24.0097 28.3948L23.3736 27.2931C23.1207 26.8552 22.7145 26.5627 22.2622 26.4415C21.8099 26.3204 21.3125 26.3717 20.8745 26.6246Z" fill="#3E4E60"/>
<path d="M20.8745 26.6246C20.0071 27.1254 19.7053 28.2284 20.1937 29.0997C21.1716 29.6185 22.4443 29.614 23.5411 28.9809C23.7449 28.8632 23.9331 28.7301 24.1036 28.5829C24.0764 28.5189 24.0449 28.4558 24.0096 28.3948L23.3735 27.2931C23.1206 26.8552 22.7143 26.5627 22.2621 26.4415C21.8099 26.3204 21.3125 26.3717 20.8745 26.6246Z" fill="#2E3140"/>
<path d="M22.463 27.3673L22.8457 28.0301C23.0105 28.3156 22.9128 28.6805 22.6273 28.8453C22.3418 29.01 21.9769 28.9123 21.8121 28.6268L21.4294 27.964C21.2646 27.6786 21.3624 27.3136 21.6478 27.1489C21.9333 26.9841 22.2982 27.082 22.463 27.3673Z" fill="white"/>
<path d="M28.7084 53.8868C28.7084 54.5405 28.1083 55.0983 27.3115 55.1556C26.4697 55.2164 25.7277 54.6983 25.6546 53.9979L25.5338 52.8448L25.3876 51.4614C25.3131 50.7608 25.9371 50.1434 26.7789 50.0815C27.6206 50.0207 28.3627 50.5388 28.4358 51.2392L28.5327 52.1596L28.7027 53.7757C28.707 53.8131 28.7084 53.8506 28.7084 53.8868Z" fill="#151516"/>
<path d="M28.7083 53.887C28.7083 54.5407 28.1082 55.0985 27.3114 55.1558C26.4697 55.2166 25.7276 54.6985 25.6545 53.9981L25.5337 52.845C26.4753 52.5082 27.4815 52.2743 28.5326 52.1597L28.7027 53.7758C28.7069 53.8133 28.7083 53.8508 28.7083 53.887Z" fill="#2E3140"/>
<path d="M34.6162 51.4614L34.4729 52.8297L34.3492 53.9979C34.2789 54.661 33.61 55.1603 32.8245 55.1603C32.7809 55.1603 32.736 55.1591 32.691 55.1556C31.8493 55.0948 31.2267 54.4762 31.2998 53.7757L31.4698 52.1549L31.5667 51.2392C31.6413 50.5387 32.3832 50.0207 33.2251 50.0815C34.0668 50.1435 34.6893 50.761 34.6162 51.4614Z" fill="#2E3140"/>
<path d="M34.4729 52.8296L34.3492 53.9978C34.2789 54.6608 33.61 55.1602 32.8245 55.1602C32.7809 55.1602 32.736 55.159 32.691 55.1555C31.8493 55.0947 31.2267 54.476 31.2998 53.7756L31.4698 52.1548C32.5223 52.2659 33.53 52.4963 34.4729 52.8296Z" fill="#334353"/>
<path d="M38.2698 25.2305C38.292 25.4555 38.1268 25.6559 37.9018 25.6793C37.8877 25.6805 37.8749 25.6805 37.8608 25.6805C37.6522 25.6805 37.4741 25.5234 37.453 25.3113C37.2573 23.3461 36.3819 23.2148 35.3694 23.0637C34.7401 22.9688 34.0885 22.8715 33.6409 22.3254C33.0561 21.6129 32.8299 20.7715 32.6295 20.0297C32.2604 18.6609 32.0167 17.7563 30.0233 17.7563C30.0174 17.7563 30.0116 17.7539 30.0057 17.7539C29.9999 17.7539 29.994 17.7563 29.987 17.7563H29.9459C27.9901 17.7691 27.7475 18.6703 27.3819 20.0297C27.1815 20.7715 26.9553 21.6129 26.3706 22.3254C25.9229 22.8715 25.2713 22.9688 24.642 23.0637C23.6284 23.2148 22.7542 23.3461 22.5584 25.3113C22.5374 25.5234 22.3581 25.6805 22.1506 25.6805C22.1366 25.6805 22.1237 25.6805 22.1096 25.6793C21.8834 25.6559 21.7194 25.4555 21.7417 25.2305C22.0018 22.6289 23.4573 22.4109 24.5202 22.2516C25.0393 22.1742 25.4881 22.1074 25.7366 21.8051C26.2088 21.2285 26.4022 20.5113 26.5897 19.8164C26.9506 18.4734 27.3608 16.9523 29.9459 16.9359H29.987C29.994 16.9359 29.9999 16.9371 30.0057 16.9371C30.0116 16.9371 30.0174 16.9359 30.0233 16.9359C32.6459 16.9359 33.0584 18.4664 33.4217 19.8164C33.6092 20.5113 33.8026 21.2285 34.2749 21.8051C34.5221 22.1074 34.9709 22.1742 35.4913 22.2516C36.5541 22.4109 38.0096 22.6289 38.2698 25.2305ZM36.0327 26.2688C35.6588 24.9281 34.9053 24.8004 34.242 24.6879C33.9549 24.6398 33.6584 24.5895 33.3608 24.4418C32.4245 23.9766 32.3038 23.9168 30.3936 19.9148C30.3209 19.7625 30.1663 19.6758 30.0069 19.6828H30.0057C30.0045 19.6828 30.0045 19.6828 30.0045 19.6828C29.9846 19.6816 29.9647 19.6828 29.9459 19.6852C29.8077 19.698 29.6823 19.7813 29.6178 19.9148C27.7065 23.9168 27.587 23.9766 26.6506 24.4418C26.353 24.5895 26.0565 24.6398 25.7694 24.6879C25.1049 24.8004 24.3526 24.9281 23.9776 26.2688C23.9167 26.4867 24.0444 26.7129 24.2624 26.7738C24.2999 26.7844 24.3362 26.7891 24.3737 26.7891C24.553 26.7891 24.717 26.6707 24.7686 26.4902C25.003 25.65 25.3053 25.5984 25.9065 25.4965C26.2358 25.4414 26.6096 25.3781 27.0163 25.1754C28.1084 24.634 28.3569 24.4195 29.9459 21.1266C29.9659 21.0855 29.9858 21.0445 30.0057 21.0035C31.6487 24.4148 31.8901 24.627 32.9952 25.1754C33.4018 25.3781 33.7756 25.4414 34.1049 25.4965C34.7061 25.5984 35.0084 25.65 35.2428 26.4902C35.2932 26.6707 35.4584 26.7891 35.6377 26.7891C35.6741 26.7891 35.7116 26.7844 35.7479 26.7738C35.967 26.7129 36.0936 26.4867 36.0327 26.2688ZM33.2776 27.532C32.7069 27.1734 32.0588 26.7668 31.467 25.7883C31.3499 25.5938 31.0979 25.5316 30.9045 25.6488C30.71 25.766 30.6479 26.018 30.7651 26.2125C31.4577 27.3574 32.2569 27.8602 32.8417 28.227C33.512 28.6488 33.7897 28.8223 33.7018 29.6051C33.6338 30.2145 33.5846 30.7734 33.5366 31.3137C33.3749 33.1617 33.2577 34.4953 32.585 35.2125C31.4858 36.382 31.0639 37.2281 30.8846 39.648C30.8682 39.8742 31.0381 40.0699 31.2631 40.0875C31.2737 40.0875 31.2842 40.0887 31.2948 40.0887C31.5069 40.0887 31.6874 39.9246 31.7026 39.709C31.8749 37.3898 32.2862 36.7289 33.1827 35.7738C34.0499 34.8504 34.1776 33.3973 34.3545 31.3863C34.4014 30.8496 34.4506 30.2953 34.5174 29.6965C34.6627 28.4016 33.9901 27.9797 33.2776 27.532ZM31.4002 28.4637C31.2362 28.3066 30.976 28.3125 30.8202 28.4766C30.6631 28.6406 30.669 28.8996 30.8331 29.0566C31.617 29.8043 31.9393 30.4992 31.6545 32.4188C31.4225 33.9832 30.9397 34.4754 30.8764 34.534L30.8799 34.5316L31.3522 35.2031C31.4342 35.1457 32.1643 34.5797 32.4666 32.5383C32.7596 30.5613 32.4807 29.4949 31.4002 28.4637ZM29.9999 29.5898C29.9811 29.5898 29.9635 29.591 29.9459 29.5934C29.7456 29.6203 29.5897 29.7926 29.5897 30V33.4676C29.5897 33.675 29.7456 33.8473 29.9459 33.8742C29.9635 33.8766 29.9811 33.8777 29.9999 33.8777C30.226 33.8777 30.41 33.6938 30.41 33.4676V30C30.41 29.7738 30.226 29.5898 29.9999 29.5898ZM39.5424 32.4316C39.4639 32.2195 39.2284 32.1105 39.0151 32.1879L36.587 33.0832C36.3749 33.1605 36.2659 33.3973 36.3444 33.6094C36.4053 33.7746 36.5624 33.8777 36.7288 33.8777C36.7768 33.8777 36.8237 33.8695 36.8706 33.852L39.2987 32.9578C39.512 32.8793 39.6198 32.6438 39.5424 32.4316ZM39.0491 35.2805L36.4733 35.3414C36.2471 35.3473 36.0678 35.5348 36.0725 35.7609C36.0784 35.9848 36.2612 36.1617 36.4827 36.1617H36.4932L39.0678 36.1008C39.2952 36.0949 39.4745 35.9074 39.4686 35.6801C39.4639 35.4539 39.2729 35.2793 39.0491 35.2805ZM38.9354 38.4117L36.0514 37.6324C35.8323 37.5738 35.6073 37.7027 35.5487 37.9219C35.4889 38.141 35.619 38.366 35.837 38.4246L38.7221 39.2039C38.7584 39.2133 38.7936 39.218 38.8288 39.218C39.0104 39.218 39.1756 39.0973 39.2249 38.9145C39.2834 38.6953 39.1545 38.4703 38.9354 38.4117ZM37.7577 41.4398L35.6249 40.1848C35.4292 40.0699 35.1784 40.1355 35.0635 40.3313C34.9487 40.5258 35.0131 40.7777 35.2088 40.8926L37.3417 42.1465C37.4073 42.1852 37.4788 42.2039 37.5491 42.2039C37.6897 42.2039 37.8268 42.1313 37.903 42.0012C38.0178 41.8055 37.9522 41.5547 37.7577 41.4398ZM38.5944 21.6398C38.5792 21.5754 38.1995 20.0719 36.1147 19.9559C35.3342 19.9125 35.1409 19.2715 34.8889 18.2297C34.7401 17.6121 34.5854 16.9723 34.1846 16.5574C33.1815 15.5191 32.4034 15.2812 30.0233 15.2812C30.0174 15.2812 30.0116 15.2824 30.0057 15.2824C29.9999 15.2824 29.994 15.2812 29.987 15.2812H29.9459C27.5975 15.2836 26.8241 15.525 25.8268 16.5574C25.426 16.9723 25.2713 17.6121 25.1225 18.2297C24.8706 19.2715 24.6772 19.9125 23.8956 19.9559C21.8108 20.0719 21.4311 21.5754 21.4159 21.6398C21.3643 21.8602 21.5002 22.0805 21.7206 22.1332C21.7522 22.1402 21.7838 22.1438 21.8155 22.1438C22.0018 22.1438 22.1694 22.0172 22.2139 21.8285C22.2163 21.8191 22.4612 20.857 23.9413 20.775C25.3709 20.6953 25.6756 19.4355 25.9194 18.4219C26.0436 17.9109 26.1713 17.3824 26.4163 17.1281C27.1463 16.3723 27.6139 16.1051 29.9459 16.1016H29.987C29.994 16.1016 29.9999 16.1004 30.0057 16.0992C30.0116 16.1004 30.0174 16.1016 30.0233 16.1016C32.3917 16.1016 32.8604 16.3676 33.5952 17.1281C33.8401 17.3824 33.9678 17.9109 34.092 18.4219C34.3358 19.4355 34.6405 20.6953 36.0702 20.775C37.5221 20.8559 37.787 21.7934 37.7963 21.8285C37.8409 22.0172 38.0096 22.1438 38.1959 22.1438C38.2264 22.1438 38.2581 22.1402 38.2909 22.1332C38.5112 22.0805 38.6471 21.8602 38.5944 21.6398ZM26.4742 31.3148C26.4266 30.7738 26.3774 30.2143 26.309 29.6054C26.2211 28.8226 26.4988 28.6484 27.1695 28.2271C27.7537 27.8603 28.5539 27.3578 29.246 26.2121C29.3631 26.0183 29.3008 25.7661 29.1069 25.6491C28.9132 25.532 28.661 25.594 28.5437 25.788C27.9525 26.7668 27.3048 27.1736 26.7333 27.5324C26.0211 27.9796 25.3486 28.4019 25.4938 29.6968C25.561 30.296 25.6098 30.8504 25.657 31.3867C25.834 33.3975 25.9617 34.8503 26.8286 35.7737C27.7255 36.7287 28.1365 37.3896 28.3083 39.7084C28.3242 39.9239 28.5041 40.0882 28.7168 40.0882C28.727 40.0882 28.7373 40.0879 28.7476 40.087C28.9735 40.0703 29.143 39.8736 29.1262 39.6477C28.947 37.2279 28.5251 36.3819 27.4267 35.2121C26.7539 34.4957 26.6366 33.1615 26.4742 31.3148ZM28.6114 28.4632C27.5311 29.4952 27.2519 30.5617 27.5448 32.5388C27.8471 34.5793 28.5766 35.1452 28.6588 35.2031L29.1307 34.5321L29.1418 34.5403C29.1364 34.536 28.6034 34.0871 28.3562 32.4185C28.0719 30.4986 28.3946 29.8047 29.1781 29.0563C29.3418 28.8998 29.3478 28.6402 29.1914 28.4764C29.0349 28.3129 28.7756 28.3068 28.6114 28.4632ZM20.7123 32.9582L23.1403 33.8525C23.187 33.8698 23.235 33.878 23.2821 33.878C23.449 33.878 23.6059 33.7753 23.6669 33.6095C23.7452 33.3969 23.6363 33.1611 23.4239 33.0829L20.9959 32.1885C20.7835 32.1103 20.5476 32.2189 20.4692 32.4315C20.3909 32.644 20.4998 32.8799 20.7123 32.9582ZM23.5184 36.1617C23.5217 36.1617 23.5251 36.1618 23.5284 36.1618C23.7504 36.1618 23.9329 35.9845 23.9382 35.7614C23.9436 35.5349 23.7644 35.3469 23.5379 35.3415L20.9622 35.2802C20.7336 35.2761 20.5479 35.454 20.5425 35.6805C20.5371 35.9071 20.7163 36.095 20.9428 36.1004L23.5184 36.1617ZM24.4631 37.922C24.4042 37.7033 24.1794 37.5741 23.9602 37.6329L21.0753 38.4115C20.8567 38.4704 20.7272 38.6957 20.7862 38.9143C20.8356 39.0973 21.0011 39.2177 21.182 39.2177C21.2174 39.2177 21.2532 39.213 21.2891 39.2034L24.174 38.4248C24.3927 38.3658 24.5222 38.1407 24.4631 37.922ZM24.3867 40.1851L22.254 41.4397C22.0588 41.5546 21.9935 41.8059 22.1084 42.0012C22.1849 42.1311 22.3217 42.2034 22.4624 42.2034C22.5331 42.2034 22.6047 42.1852 22.6699 42.1467L24.8026 40.8921C24.9978 40.7773 25.0631 40.5259 24.9481 40.3307C24.8332 40.1353 24.5815 40.0703 24.3867 40.1851Z" fill="#3E4E60"/>
<path d="M30.0234 15.2812C32.4035 15.2812 33.1816 15.5191 34.1848 16.5574C34.5855 16.9723 34.7402 17.6121 34.8891 18.2297C35.141 19.2715 35.3344 19.9125 36.1148 19.9559C38.1996 20.0719 38.5793 21.5754 38.5945 21.6398C38.6473 21.8602 38.5113 22.0805 38.291 22.1332C38.2582 22.1402 38.2266 22.1438 38.1961 22.1438C38.0098 22.1438 37.841 22.0172 37.7965 21.8285C37.7871 21.7934 37.5223 20.8559 36.0703 20.775C34.6406 20.6953 34.3359 19.4355 34.0922 18.4219C33.968 17.9109 33.8402 17.3824 33.5953 17.1281C32.8605 16.3676 32.3918 16.1016 30.0234 16.1016V15.2812ZM30.0234 29.5922V33.8754C30.2385 33.863 30.4102 33.6858 30.4102 33.4676V30C30.4102 29.7819 30.2385 29.6046 30.0234 29.5922ZM36.3445 33.6094C36.4055 33.7746 36.5625 33.8777 36.7289 33.8777C36.777 33.8777 36.8238 33.8695 36.8707 33.852L39.2988 32.9578C39.5121 32.8793 39.6199 32.6438 39.5426 32.4316C39.4641 32.2195 39.2285 32.1105 39.0152 32.1879L36.5871 33.0832C36.375 33.1605 36.266 33.3973 36.3445 33.6094ZM32.6297 20.0297C32.8301 20.7715 33.0562 21.6129 33.641 22.3254C34.0887 22.8715 34.7402 22.9688 35.3695 23.0637C36.382 23.2148 37.2574 23.3461 37.4531 25.3113C37.4742 25.5234 37.6523 25.6805 37.8609 25.6805C37.875 25.6805 37.8879 25.6805 37.902 25.6793C38.127 25.6559 38.2922 25.4555 38.2699 25.2305C38.0098 22.6289 36.5543 22.4109 35.4914 22.2516C34.9711 22.1742 34.5223 22.1074 34.275 21.8051C33.8027 21.2285 33.6094 20.5113 33.4219 19.8164C33.0586 18.4664 32.6461 16.9359 30.0234 16.9359V17.7563C32.0168 17.7563 32.2605 18.6609 32.6297 20.0297ZM32.4668 32.5383C32.7598 30.5613 32.4809 29.4949 31.4004 28.4637C31.2363 28.3066 30.9762 28.3125 30.8203 28.4766C30.6633 28.6406 30.6691 28.8996 30.8332 29.0566C31.6172 29.8043 31.9395 30.4992 31.6547 32.4188C31.4227 33.9832 30.9398 34.4754 30.8766 34.534L30.8801 34.5316L31.3523 35.2031C31.4344 35.1457 32.1645 34.5797 32.4668 32.5383ZM37.7578 41.4398L35.625 40.1848C35.4293 40.0699 35.1785 40.1355 35.0637 40.3313C34.9488 40.5258 35.0133 40.7777 35.209 40.8926L37.3418 42.1465C37.4074 42.1852 37.4789 42.2039 37.5492 42.2039C37.6898 42.2039 37.827 42.1313 37.9031 42.0012C38.018 41.8055 37.9523 41.5547 37.7578 41.4398ZM38.9355 38.4117L36.0516 37.6324C35.8324 37.5738 35.6074 37.7027 35.5488 37.9219C35.4891 38.141 35.6191 38.366 35.8371 38.4246L38.7223 39.2039C38.7586 39.2133 38.7937 39.218 38.8289 39.218C39.0105 39.218 39.1758 39.0973 39.225 38.9145C39.2836 38.6953 39.1547 38.4703 38.9355 38.4117ZM39.0492 35.2805L36.4734 35.3414C36.2473 35.3473 36.068 35.5348 36.0727 35.7609C36.0785 35.9848 36.2613 36.1617 36.4828 36.1617H36.4934L39.068 36.1008C39.2953 36.0949 39.4746 35.9074 39.4687 35.6801C39.4641 35.4539 39.273 35.2793 39.0492 35.2805ZM35.6379 26.7891C35.6742 26.7891 35.7117 26.7844 35.748 26.7738C35.9672 26.7129 36.0938 26.4867 36.0328 26.2688C35.659 24.9281 34.9055 24.8004 34.2422 24.6879C33.9551 24.6398 33.6586 24.5895 33.3609 24.4418C32.4246 23.9766 32.3039 23.9168 30.3937 19.9148C30.3236 19.7678 30.177 19.6827 30.0234 19.6833V21.0398C31.6502 24.4154 31.8942 24.6289 32.9953 25.1754C33.402 25.3781 33.7758 25.4414 34.1051 25.4965C34.7062 25.5984 35.0086 25.65 35.243 26.4902C35.2934 26.6707 35.4586 26.7891 35.6379 26.7891ZM33.2777 27.532C32.707 27.1734 32.059 26.7668 31.4672 25.7883C31.35 25.5938 31.098 25.5316 30.9047 25.6488C30.7102 25.766 30.648 26.018 30.7652 26.2125C31.4578 27.3574 32.257 27.8602 32.8418 28.227C33.5121 28.6488 33.7898 28.8223 33.702 29.6051C33.634 30.2145 33.5848 30.7734 33.5367 31.3137C33.375 33.1617 33.2578 34.4953 32.5852 35.2125C31.4859 36.382 31.0641 37.2281 30.8848 39.648C30.8684 39.8742 31.0383 40.0699 31.2633 40.0875C31.2738 40.0875 31.2844 40.0887 31.2949 40.0887C31.507 40.0887 31.6875 39.9246 31.7027 39.709C31.875 37.3898 32.2863 36.7289 33.1828 35.7738C34.05 34.8504 34.1777 33.3973 34.3547 31.3863C34.4016 30.8496 34.4508 30.2953 34.5176 29.6965C34.6629 28.4016 33.9902 27.9797 33.2777 27.532Z" fill="#3F5D77"/>
</g>
<defs>
<clipPath id="clip0_1123_23812">
<rect width="60" height="60" fill="white"/>
</clipPath>
</defs>
</svg>
