<svg width="60" height="60" viewBox="0 0 60 60" fill="none" xmlns="http://www.w3.org/2000/svg">
<g clip-path="url(#clip0_1123_24138)">
<path d="M30 60C46.5685 60 60 46.5685 60 30C60 13.4315 46.5685 0 30 0C13.4315 0 0 13.4315 0 30C0 46.5685 13.4315 60 30 60Z" fill="#EE6781"/>
<path d="M56.6941 19.4874L56.6929 20.1858L56.6918 20.4448L56.6601 33.3085L56.659 33.5675L56.6578 34.2718C56.6566 34.6526 56.1539 34.7874 55.9629 34.4581L53.2347 29.4343C52.807 28.6468 52.5843 27.7643 52.5867 26.869C52.5879 26.4214 52.6453 25.9772 52.7566 25.5472C52.8679 25.1159 53.032 24.6999 53.2476 24.3073L56.0004 19.2976C56.1925 18.9694 56.6953 19.1065 56.6941 19.4874Z" fill="#9175A7"/>
<path d="M56.693 20.186L56.6919 20.445L56.6602 33.3087L56.6591 33.5677L54.4149 29.4345C53.9872 28.647 53.7645 27.7646 53.7669 26.8692C53.768 26.4216 53.8255 25.9774 53.9356 25.5474C54.0469 25.1161 54.211 24.7001 54.4266 24.3075L56.693 20.186Z" fill="#746087"/>
<path d="M54.9035 26.5702V26.582C54.9035 27.0015 54.6926 27.3941 54.3387 27.6214C51.5356 29.4366 38.9719 37.2296 29.1879 37.7652C28.8903 37.7827 28.595 37.7921 28.3032 37.7945C25.152 37.8226 21.7922 37.3011 18.593 36.5382H18.5918C16.7555 36.1421 12.1313 36.0179 10.0149 35.9816C9.31058 35.9698 8.63675 35.6945 8.12464 35.2105L8.01683 35.1085C7.68167 34.7921 7.80003 34.232 8.23597 34.0784L8.96956 33.8195C9.11839 33.7679 9.12074 33.5581 8.97425 33.5019C7.28558 32.8503 5.88519 32.2503 4.9055 31.8132C3.91527 31.3714 3.09964 30.6167 2.5805 29.6652L2.18323 28.9374C1.81644 28.2624 2.1223 27.4234 2.8348 27.1339C10.4719 24.0191 20.441 24.032 31.3325 23.9382C33.0129 23.923 34.7051 23.9464 36.368 23.9945C44.0789 24.223 51.184 25.0245 53.8161 25.3503C54.4336 25.4265 54.8989 25.9491 54.9035 26.5702Z" fill="#9175A7"/>
<path d="M36.784 26.8116C36.784 31.1898 33.8403 35.1132 29.1879 37.7652C28.8903 37.7827 28.595 37.7921 28.3032 37.7945C25.152 37.8226 21.7922 37.3011 18.593 36.5382H18.5918C17.8114 36.3695 16.5258 36.2499 15.1442 36.1656C13.2762 36.0519 11.2313 36.0027 10.0149 35.9816C9.31058 35.9698 8.63675 35.6945 8.12464 35.2105L8.01683 35.1085C7.68167 34.7921 7.80003 34.232 8.23597 34.0784L8.96956 33.8195C9.11839 33.7679 9.12074 33.5581 8.97425 33.5019C7.28558 32.8503 5.88519 32.2503 4.9055 31.8132C3.91527 31.3714 3.09964 30.6167 2.5805 29.6652L2.18323 28.9374C1.81644 28.2624 2.1223 27.4234 2.8348 27.1339C3.94222 26.6827 5.09769 26.296 6.29886 25.9667C13.3817 24.0202 22.0196 24.0179 31.3325 23.9382C33.0129 23.923 34.7051 23.9464 36.368 23.9945C36.641 24.9062 36.784 25.8472 36.784 26.8116Z" fill="#A583BB"/>
<path d="M15.1442 36.1656C13.2762 36.052 11.2313 36.0027 10.0149 35.9816C9.31058 35.9699 8.63675 35.6945 8.12464 35.2105L8.01683 35.1086C7.68167 34.7922 7.80003 34.232 8.23597 34.0785L8.96956 33.8195C9.11839 33.768 9.12074 33.5582 8.97425 33.502C7.28558 32.8504 5.88519 32.2504 4.9055 31.8133C3.91527 31.3715 3.09964 30.6168 2.5805 29.6652L2.18323 28.9375C1.81644 28.2625 2.1223 27.4234 2.8348 27.134C3.94222 26.6828 5.09769 26.2961 6.29886 25.9668C9.4348 30.4926 12.7371 33.9344 15.1442 36.1656Z" fill="#9175A7"/>
<path d="M54.9036 26.5703V26.582C54.9036 27.0016 54.6927 27.3941 54.3388 27.6215C52.3349 28.9188 45.3411 33.2723 37.9419 35.8445C34.9923 36.8711 31.977 37.6129 29.188 37.7664C28.8903 37.7828 28.595 37.7922 28.3032 37.7945C26.8302 37.8074 25.3114 37.7008 23.7845 37.5051C22.0454 37.2824 20.2958 36.9449 18.5919 36.5383C18.5919 36.5383 18.5919 36.5383 18.5919 36.5371C16.7556 36.1422 12.1313 36.018 10.0138 35.9816C9.30947 35.9688 8.63682 35.6945 8.12471 35.2105L8.01689 35.1086C7.86572 34.9656 7.80596 34.7711 7.82822 34.5883C7.84463 34.4605 7.89736 34.3387 7.98643 34.2414C8.05205 34.1711 8.13408 34.1137 8.23603 34.0785L8.9708 33.8195C9.10908 33.7703 9.11963 33.584 9.0001 33.5148C8.99893 33.5148 8.99658 33.5137 8.99541 33.5137C8.98955 33.509 8.98252 33.5055 8.97432 33.502C8.87822 33.4656 8.78447 33.4293 8.68955 33.3918C8.68955 33.3918 8.68955 33.3918 8.68838 33.3918C7.12744 32.7824 5.829 32.2258 4.90557 31.8133C3.91533 31.3715 3.09971 30.6168 2.58057 29.6652C7.45557 30.148 9.7583 30.8512 10.8458 31.4125C11.5114 31.757 12.313 31.6727 12.8896 31.1934C13.595 30.6062 14.5923 30.0543 15.7044 30.2723C15.947 30.3191 16.1954 30.4035 16.4474 30.5324C18.0036 31.3305 20.5372 32.7402 22.2142 33.6836C23.0837 34.1734 24.1583 34.0492 24.9188 33.4023C26.0181 32.4672 28.2247 31.3434 32.4774 31.3434H42.2169C42.2368 31.3434 42.2579 31.3434 42.2778 31.341C42.7794 31.3164 43.2142 30.9801 43.3653 30.4973C43.6993 29.432 44.6216 27.7375 47.12 27.7375C50.7657 27.7375 54.9036 26.5703 54.9036 26.5703Z" fill="#F4E6F4"/>
<path d="M35.6872 31.3432C34.4321 33.8604 32.1575 36.0717 29.188 37.7662C28.8903 37.7826 28.595 37.792 28.3032 37.7943C26.8302 37.8072 25.3114 37.7006 23.7845 37.5049C22.0454 37.2822 20.2958 36.9447 18.5919 36.5381C18.5919 36.5381 18.5919 36.5381 18.5919 36.5369C17.8114 36.3693 16.5259 36.2498 15.1442 36.1654C13.2763 36.0518 11.2313 36.0025 10.0138 35.9814C9.30947 35.9686 8.63682 35.6943 8.12471 35.2104L8.0169 35.1084C7.86572 34.9654 7.80596 34.7709 7.82822 34.5881C7.84463 34.4604 7.89736 34.3385 7.98643 34.2412C8.05205 34.1709 8.13408 34.1135 8.23604 34.0783L8.9708 33.8193C9.10908 33.7701 9.11963 33.5838 9.0001 33.5146C8.99893 33.5146 8.99658 33.5135 8.99541 33.5135C8.98955 33.5088 8.98252 33.5053 8.97432 33.5018C8.87822 33.4654 8.78447 33.4291 8.68955 33.3916C8.68955 33.3916 8.68955 33.3916 8.68838 33.3916C7.12744 32.7822 5.829 32.2256 4.90557 31.8131C3.91533 31.3713 3.09971 30.6166 2.58057 29.665C6.804 30.0834 9.09619 30.667 10.3407 31.1803C10.5329 31.26 10.7005 31.3373 10.8458 31.4123C11.5114 31.7568 12.313 31.6725 12.8896 31.1932C13.595 30.6061 14.5923 30.0541 15.7044 30.2721C15.947 30.3189 16.1954 30.4033 16.4474 30.5322C18.0036 31.3303 20.5372 32.74 22.2142 33.6834C23.0837 34.1732 24.1583 34.049 24.9188 33.4021C26.0181 32.467 28.2247 31.3432 32.4774 31.3432H35.6872Z" fill="white"/>
<path d="M15.1442 36.1654C13.2763 36.0518 11.2313 36.0025 10.0138 35.9814C9.30947 35.9686 8.63682 35.6943 8.12471 35.2104L8.01689 35.1084C7.86572 34.9654 7.80596 34.7709 7.82822 34.5881C7.84463 34.4604 7.89736 34.3385 7.98643 34.2412C8.05205 34.1709 8.13408 34.1135 8.23603 34.0783L8.9708 33.8193C9.10908 33.7701 9.11963 33.5838 9.0001 33.5146C8.99893 33.5146 8.99658 33.5135 8.99541 33.5135C8.98955 33.5088 8.98252 33.5053 8.97432 33.5018C8.87822 33.4654 8.78447 33.4291 8.68955 33.3916C8.68955 33.3916 8.68955 33.3916 8.68838 33.3916C7.12744 32.7822 5.829 32.2256 4.90557 31.8131C3.91533 31.3713 3.09971 30.6166 2.58057 29.665C6.804 30.0834 9.09619 30.667 10.3407 31.1803C12.1021 33.2217 13.7696 34.8904 15.1442 36.1654Z" fill="#F4E6F4"/>
<path d="M33.3706 25.4463H19.2686C18.648 25.4463 18.1448 25.9495 18.1448 26.5701C18.1448 27.1907 18.648 27.6939 19.2686 27.6939H33.3706C33.9912 27.6939 34.4944 27.1907 34.4944 26.5701C34.4944 25.9495 33.9913 25.4463 33.3706 25.4463Z" fill="#C2AACF"/>
<path d="M28.6419 27.6939H21.358C20.7373 27.6939 20.2341 27.1907 20.2341 26.5701C20.2341 25.9495 20.7373 25.4463 21.358 25.4463H28.6419C29.2625 25.4463 29.7657 25.9495 29.7657 26.5701C29.7657 27.1907 29.2625 27.6939 28.6419 27.6939Z" fill="#F4E6F4"/>
<path d="M10.3574 35.2153C9.34045 35.749 7.98682 34.241 7.98682 34.241C8.05209 34.1704 8.13459 34.1132 8.23572 34.0785L8.97049 33.819C9.10889 33.7697 9.11955 33.5834 8.99978 33.5142C10.6276 34.0999 11.3717 34.6816 10.3574 35.2153Z" fill="#746087"/>
<path d="M9.32349 29.0087C9.31177 29.0415 9.2977 29.0743 9.28247 29.1072C9.22036 29.2419 9.13364 29.3673 9.02349 29.4775C8.51606 29.9849 7.69224 29.9849 7.18481 29.4775C6.67739 28.97 6.67856 28.1474 7.18481 27.64C7.20708 27.6189 7.22817 27.5978 7.25161 27.579C7.37349 27.4724 7.5106 27.3927 7.65474 27.3388C8.11528 27.17 8.65317 27.2696 9.02349 27.64C9.39263 28.0091 9.49341 28.547 9.32349 29.0087Z" fill="#C2AACF"/>
<path d="M9.32358 29.0087C9.31186 29.0415 9.2978 29.0743 9.28257 29.1072C9.17007 29.1306 9.05405 29.1435 8.93452 29.1435C8.0439 29.1435 7.31382 28.4544 7.25171 27.579C7.37358 27.4724 7.51069 27.3927 7.65483 27.3388C8.11538 27.17 8.65327 27.2696 9.02358 27.64C9.39272 28.0091 9.49351 28.547 9.32358 29.0087Z" fill="#F4E6F4"/>
<path d="M8.92546 28.5587C8.92546 28.9123 8.70116 29.2143 8.38733 29.3301C8.29874 29.3618 8.2037 29.3798 8.10421 29.3798C7.65022 29.3798 7.28296 29.0117 7.28296 28.5586C7.28296 28.1046 7.65011 27.7373 8.10421 27.7373C8.2037 27.7373 8.29862 27.7554 8.38733 27.787C8.70116 27.903 8.92546 28.2042 8.92546 28.5587Z" fill="#3F5D77"/>
<path d="M8.38725 29.3305C8.68444 29.3305 8.92537 28.9851 8.92537 28.559C8.92537 28.133 8.68444 27.7876 8.38725 27.7876C8.09005 27.7876 7.84912 28.133 7.84912 28.559C7.84912 28.9851 8.09005 29.3305 8.38725 29.3305Z" fill="#2E3140"/>
<path d="M8.10398 28.77C8.32753 28.77 8.50875 28.5888 8.50875 28.3652C8.50875 28.1417 8.32753 27.9604 8.10398 27.9604C7.88044 27.9604 7.69922 28.1417 7.69922 28.3652C7.69922 28.5888 7.88044 28.77 8.10398 28.77Z" fill="#83D5EF"/>
<path d="M34.6396 43.0737C34.0126 43.144 33.1771 43.1944 32.0697 43.1944C26.5161 43.1944 21.2626 37.0889 22.6712 36.36C23.2068 36.0834 23.9357 35.9322 24.756 35.869C26.9087 35.6979 29.6919 36.1221 31.2786 36.4162C31.7767 36.5088 32.0204 37.0643 31.7708 37.5049C31.554 37.8905 31.3759 38.4237 31.3759 39.1362C31.3759 40.2705 33.3341 41.3627 34.8048 42.0237C34.97 42.0975 35.0685 42.2264 35.1083 42.3694C35.1927 42.6694 35.0169 43.0303 34.6396 43.0737Z" fill="#A583BB"/>
<path d="M35.1082 42.3694C34.7977 42.3682 34.4602 42.3612 34.0922 42.3459C29.4445 42.1608 25.1754 37.7065 24.7559 35.869C26.9086 35.6979 29.6918 36.1221 31.2785 36.4162C31.7766 36.5088 32.0203 37.0643 31.7707 37.5049C31.5539 37.8905 31.3758 38.4237 31.3758 39.1362C31.3758 40.2705 33.334 41.3627 34.8047 42.0237C34.9699 42.0975 35.0684 42.2264 35.1082 42.3694Z" fill="#9175A7"/>
<path d="M49.4168 33.185C48.4078 33.2143 46.5187 33.1956 45.3726 32.7268C45.1406 32.6319 45.0726 32.3401 45.2379 32.1538C45.4336 31.9323 45.743 31.6358 46.193 31.3347C46.5152 31.119 46.9113 30.8999 47.3906 30.7065C48.2144 30.3737 48.7582 30.3116 49.1074 30.3433C49.3898 30.3679 49.5363 30.6866 49.3687 30.9151C49.1836 31.1683 48.9808 31.4999 48.9937 31.7202C49.0019 31.869 49.1578 32.1058 49.35 32.3425C49.4402 32.455 49.5387 32.5675 49.6336 32.6706C49.8117 32.8651 49.6805 33.1768 49.4168 33.185Z" fill="#9175A7"/>
<path d="M49.3687 30.9151C49.1835 31.1683 48.9808 31.4999 48.9937 31.7202C49.0019 31.869 49.1577 32.1058 49.3499 32.3425C48.4382 32.1608 47.1163 31.8339 46.1929 31.3347C46.5151 31.119 46.9112 30.8999 47.3905 30.7065C48.2144 30.3737 48.7581 30.3116 49.1073 30.3433C49.3897 30.3679 49.5362 30.6866 49.3687 30.9151Z" fill="#746087"/>
<path d="M36.784 24.0071L28.5176 24.0048L25.125 24.0036C25.4977 23.2395 25.9418 22.5435 26.4316 21.9106C27.9609 19.9325 29.9262 18.579 31.4859 17.7259C31.998 17.4458 32.468 17.2196 32.8629 17.0427C33.3914 16.8071 33.9633 17.2712 33.8426 17.8372L33.8145 17.9673L33.1219 21.2216C32.9977 21.804 33.293 22.3946 33.8332 22.6442L36.784 24.0071Z" fill="#9175A7"/>
<path d="M36.784 24.0071L28.5176 24.0048C28.868 21.2356 30.9645 18.9317 33.8145 17.9673L33.1219 21.2216C32.9977 21.804 33.293 22.3946 33.8332 22.6442L36.784 24.0071Z" fill="#746087"/>
<path d="M31.4859 17.7261C30.2461 19.8472 28.6277 21.4151 27.5777 22.2999C27.1629 22.6491 26.5395 22.4183 26.4316 21.9108C27.9609 19.9327 29.9262 18.5792 31.4859 17.7261Z" fill="#A583BB"/>
</g>
<defs>
<clipPath id="clip0_1123_24138">
<rect width="60" height="60" fill="white"/>
</clipPath>
</defs>
</svg>
