<svg width="60" height="60" viewBox="0 0 60 60" fill="none" xmlns="http://www.w3.org/2000/svg">
<g clip-path="url(#clip0_1123_23921)">
<path d="M30 60C46.5685 60 60 46.5685 60 30C60 13.4315 46.5685 0 30 0C13.4315 0 0 13.4315 0 30C0 46.5685 13.4315 60 30 60Z" fill="#22BCE0"/>
<path d="M41.3917 45.1087L37.0253 51.895C36.2027 53.1747 34.7847 53.9481 33.2636 53.9481H26.7363C25.2152 53.9481 23.7972 53.1747 22.9746 51.895L18.6082 45.1087C17.2078 42.9325 16.6968 40.3005 17.1808 37.7587L18.1511 32.6657C18.3398 31.6755 18.6761 30.7181 19.1472 29.8274L21.9996 24.445C23.4117 21.7802 26.1808 20.1138 29.196 20.1138H30.8039C33.8191 20.1138 36.5882 21.7802 38.0003 24.445L40.8527 29.8274C41.3238 30.7181 41.6601 31.6755 41.8488 32.6657L42.8191 37.7587C43.3031 40.3005 42.7921 42.9325 41.3917 45.1087Z" fill="#C17E62"/>
<path d="M41.3918 45.1087L37.0254 51.895C36.2027 53.1747 34.7848 53.9481 33.2637 53.9481H30V20.1138H30.8039C33.8191 20.1138 36.5883 21.7802 38.0004 24.445L40.8527 29.8274C41.3238 30.7181 41.6602 31.6755 41.8488 32.6657L42.8191 37.7587C43.3031 40.3005 42.7922 42.9325 41.3918 45.1087Z" fill="#D48D77"/>
<path d="M38.3531 39.4755C38.0308 39.6852 37.6547 39.8212 37.2457 39.8563C35.9097 39.9735 34.2961 39.0231 34.1789 37.6872C34.0992 36.7649 34.7883 36.3055 35.6625 36.07C36.0539 35.9657 36.4828 35.9059 36.8965 35.8696C38.2324 35.7536 39.3363 35.8895 39.4523 37.2255C39.5332 38.1524 39.0832 39.0032 38.3531 39.4755Z" fill="#3E4E60"/>
<path d="M38.3532 39.4755C36.8274 39.309 35.6392 38.0165 35.6392 36.4462C35.6392 36.3184 35.6474 36.193 35.6626 36.07C36.054 35.9657 36.4829 35.9059 36.8966 35.8696C38.2325 35.7536 39.3364 35.8895 39.4524 37.2255C39.5333 38.1524 39.0833 39.0032 38.3532 39.4755Z" fill="#2E3140"/>
<path d="M38.4769 37.47C38.4451 37.1073 38.1254 36.8391 37.7628 36.8707C36.895 36.9805 37.0042 38.2268 37.8777 38.1841C38.2403 38.1524 38.5087 37.8327 38.4769 37.47Z" fill="white"/>
<path d="M25.821 37.6873C25.7553 38.4326 25.2245 39.0584 24.5354 39.4439C23.9893 39.751 23.3448 39.908 22.7542 39.8564C21.4182 39.7404 20.4303 38.5615 20.5475 37.2256C20.6319 36.2494 21.2436 35.9142 22.0885 35.8498C22.4003 35.8252 22.7436 35.8381 23.1034 35.8697C24.4393 35.9869 25.937 36.3513 25.821 37.6873Z" fill="#3E4E60"/>
<path d="M25.821 37.6873C25.7554 38.4326 25.2246 39.0584 24.5355 39.4439C23.1105 39.1896 22.03 37.9439 22.03 36.4463C22.03 36.2424 22.05 36.0431 22.0886 35.8498C22.4003 35.8252 22.7437 35.8381 23.1035 35.8697C24.4394 35.9869 25.9371 36.3513 25.821 37.6873Z" fill="#2E3140"/>
<path d="M25.0739 37.7806C25.1056 37.4179 24.8373 37.0983 24.4746 37.0665C23.6009 37.024 23.4921 38.2702 24.3597 38.3799C24.7223 38.4116 25.0421 38.1433 25.0739 37.7806Z" fill="white"/>
<path d="M34.6323 41.8486V49.426C34.6323 51.9232 32.6073 55.5713 30.11 55.5713H29.8897C27.3924 55.5713 25.3674 51.9232 25.3674 49.426V41.8486C25.3674 39.2904 27.4417 35.8369 29.9999 35.8369C31.2795 35.8369 32.4374 36.7006 33.2752 37.883C34.1131 39.0666 34.6323 40.5701 34.6323 41.8486Z" fill="#D48D77"/>
<path d="M34.6322 41.8486V49.426C34.6322 51.9232 32.6072 55.5713 30.1099 55.5713H29.9998V35.8369C31.2794 35.8369 32.4373 36.7006 33.2751 37.883C34.113 39.0666 34.6322 40.5701 34.6322 41.8486Z" fill="#EEA47D"/>
<path d="M33.7347 46.3698C33.7347 46.6804 33.6573 46.9991 33.4886 47.3015C33.0257 48.1288 32.1515 48.6421 31.2034 48.6421H28.7964C28.3218 48.6421 27.8671 48.5132 27.4722 48.2823C27.0772 48.0503 26.7421 47.7151 26.5112 47.3015C25.7976 46.0253 26.7198 44.4526 28.1823 44.4526H31.8175C32.9331 44.4526 33.7347 45.3679 33.7347 46.3698Z" fill="#3E4E60"/>
<path d="M33.7348 46.3698C33.7348 46.6804 33.6574 46.9991 33.4887 47.3015C33.0258 48.1288 32.1516 48.6421 31.2035 48.6421H30V44.4526H31.8176C32.9332 44.4526 33.7348 45.3679 33.7348 46.3698Z" fill="#3F5D77"/>
<path d="M34.574 46.5102C34.2696 46.5394 34.0459 46.8131 34.0458 47.1191C34.0453 51.5422 33.9091 52.0499 32.7388 52.0499C31.7615 52.0499 31.3742 51.9352 31.0325 51.834C31.0311 51.8336 31.0297 51.8332 31.0283 51.8327C30.766 51.7552 30.5857 51.5147 30.5857 51.2412V48.3107C30.5857 48.0047 30.362 47.7313 30.0574 47.7022C29.7079 47.6688 29.4138 47.9428 29.4138 48.2854V51.2411C29.4138 51.5146 29.2335 51.755 28.9712 51.8326C28.9698 51.8331 28.9684 51.8334 28.967 51.8339C28.6253 51.935 28.238 52.0498 27.2607 52.0498C26.0904 52.0498 25.9543 51.5422 25.9537 47.119C25.9537 46.8131 25.73 46.5393 25.4254 46.5101C25.0759 46.4767 24.7817 46.7507 24.7817 47.0932C24.7817 49.2127 24.7817 50.6128 25.0388 51.5598C25.3466 52.6935 26.0525 53.2215 27.2606 53.2215C28.4076 53.2215 28.9022 53.0752 29.2994 52.9575C29.5407 52.8861 29.7012 52.8388 29.9934 52.8381C29.9955 52.8381 29.9974 52.8387 29.9995 52.8387C30.0016 52.8387 30.0035 52.8381 30.0056 52.8381C30.298 52.8388 30.4583 52.886 30.6996 52.9575C31.097 53.0752 31.5915 53.2215 32.7384 53.2215C33.9465 53.2215 34.6524 52.6935 34.9602 51.5598C35.2173 50.6128 35.2173 49.2127 35.2173 47.0932C35.2178 46.7508 34.9236 46.4768 34.574 46.5102Z" fill="#A26D5A"/>
<path d="M29.9998 47.0342V48.2852C29.9779 48.3141 29.9546 48.3415 29.9299 48.3674C29.5654 48.7503 28.9744 48.7503 28.603 48.3674L28.2968 48.0523L27.5658 47.3008C27.1798 46.9028 27.1556 46.2496 27.519 45.8413C27.7025 45.6352 27.9484 45.5317 28.198 45.5317C28.4476 45.5317 28.6983 45.6352 28.8913 45.8413L29.9285 46.949C29.9538 46.9767 29.9775 47.005 29.9998 47.0342Z" fill="#151516"/>
<path d="M32.4337 47.3008L31.3965 48.3674C31.0251 48.7503 30.4342 48.7503 30.0696 48.3674C30.0449 48.3415 30.0217 48.3141 29.9998 48.2852V47.0342C30.022 47.005 30.0457 46.9767 30.0709 46.949L31.1081 45.8413C31.3011 45.6352 31.5518 45.5317 31.8015 45.5317C32.0512 45.5317 32.297 45.6352 32.4805 45.8413C32.8439 46.2495 32.8198 46.9028 32.4337 47.3008Z" fill="#2E3140"/>
<path d="M35.2921 34.1343H24.7078C23.7035 34.1343 22.9511 33.2132 23.1527 32.2288L23.5183 30.4382C23.7937 29.0882 24.3035 27.7968 25.023 26.6226L26.1187 24.8354C26.9461 23.4854 28.4156 22.6616 30 22.6616C31.5843 22.6616 33.0539 23.4854 33.8812 24.8354L34.9769 26.6226C35.6964 27.7968 36.2062 29.0882 36.4816 30.4382L36.8472 32.2288C37.0488 33.2132 36.2964 34.1343 35.2921 34.1343Z" fill="#D48D77"/>
<path d="M35.2922 34.1343H30V22.6616C31.5844 22.6616 33.0539 23.4854 33.8812 24.8354L34.977 26.6226C35.6965 27.7968 36.2062 29.0882 36.4816 30.4382L36.8473 32.2288C37.0488 33.2132 36.2965 34.1343 35.2922 34.1343Z" fill="#EEA47D"/>
<path d="M49.7379 10.7694L49.3301 13.1846L48.2812 19.3944C48.1336 20.2639 47.8066 21.0936 47.3215 21.8307L44.1012 26.7139L41.3414 30.8975L36.2754 24.7557L34.3757 22.4519C33.3424 21.1988 33.296 19.4029 34.2634 18.0982L36.115 15.6009C36.3353 15.3033 36.5685 15.0161 36.8134 14.7408C37.6208 13.8279 38.5548 13.0345 39.5907 12.3841L46.3419 8.14427C47.1329 7.6474 48.1712 7.82318 48.7536 8.55443L49.363 9.31849C49.6887 9.72642 49.8246 10.2538 49.7379 10.7694Z" fill="#C17E62"/>
<path d="M49.7378 10.7693L49.33 13.1845L48.2812 19.3943C48.1335 20.2638 47.8066 21.0935 47.3214 21.8306L44.1011 26.7138C40.0183 24.8201 37.0699 20.2099 36.8132 14.7408C37.6207 13.8279 38.5546 13.0345 39.5906 12.3841L46.3417 8.14427C47.1328 7.6474 48.171 7.82318 48.7535 8.55443L49.3628 9.31849C49.6886 9.7263 49.8246 10.2536 49.7378 10.7693Z" fill="#A26D5A"/>
<path d="M49.3301 13.1845L48.2813 19.3943C48.1336 20.2638 47.8067 21.0935 47.3215 21.8306L41.3414 30.8974L38.1701 27.0526C36.976 25.6049 36.525 23.6832 36.9507 21.8556L38.0468 17.1475C38.3252 15.9524 39.0455 14.9069 40.0632 14.2213L46.1675 10.1087C46.7084 9.74423 47.4449 9.91474 47.7707 10.4798L49.3301 13.1845Z" fill="white"/>
<path d="M38.1702 27.0526L40.3276 24.1861C40.8875 23.4422 41.1902 22.5365 41.1902 21.6054V18.593C41.1902 17.2667 41.7171 15.9946 42.6551 15.0566L44.6699 13.0418C45.0575 12.6542 45.7204 12.9287 45.7204 13.4769V24.2583L41.3415 30.8974L38.1702 27.0526Z" fill="#3F5D77"/>
<path d="M10.2622 10.7694L10.67 13.1846L11.7188 19.3944C11.8664 20.2639 12.1934 21.0936 12.6786 21.8307L15.8989 26.7139L18.6586 30.8975L23.7247 24.7557L25.6244 22.4519C26.6576 21.1988 26.704 19.4029 25.7366 18.0982L23.8851 15.6009C23.6648 15.3033 23.4316 15.0161 23.1866 14.7408C22.3792 13.8279 21.4452 13.0345 20.4093 12.3841L13.6581 8.14427C12.8671 7.6474 11.8288 7.82318 11.2464 8.55443L10.637 9.31849C10.3114 9.72642 10.1754 10.2538 10.2622 10.7694Z" fill="#D48D77"/>
<path d="M10.2622 10.7693L10.67 13.1845L11.7188 19.3943C11.8664 20.2638 12.1934 21.0935 12.6786 21.8306L15.8989 26.7138C19.9817 24.8201 22.9301 20.2099 23.1868 14.7408C22.3793 13.8279 21.4454 13.0345 20.4094 12.3841L13.6582 8.14427C12.8672 7.6474 11.8289 7.82318 11.2465 8.55443L10.6372 9.31849C10.3114 9.7263 10.1754 10.2536 10.2622 10.7693Z" fill="#A26D5A"/>
<path d="M10.6699 13.1845L11.7187 19.3943C11.8664 20.2638 12.1934 21.0935 12.6785 21.8306L18.6586 30.8974L21.8299 27.0526C23.0241 25.6049 23.475 23.6832 23.0494 21.8556L21.9532 17.1475C21.675 15.9524 20.9545 14.9069 19.9369 14.2213L13.8326 10.1087C13.2916 9.74423 12.5551 9.91474 12.2293 10.4798L10.6699 13.1845Z" fill="#C2AACF"/>
<path d="M21.8301 27.0526L19.6726 24.1861C19.1127 23.4422 18.81 22.5365 18.81 21.6054V18.593C18.81 17.2667 18.2831 15.9946 17.3452 15.0566L15.3304 13.0418C14.9427 12.6542 14.2798 12.9287 14.2798 13.4769V24.2583L18.6586 30.8973L21.8301 27.0526Z" fill="#3E4E60"/>
</g>
<defs>
<clipPath id="clip0_1123_23921">
<rect width="60" height="60" fill="white"/>
</clipPath>
</defs>
</svg>
