<svg width="22" height="11" viewBox="0 0 22 11" fill="none" xmlns="http://www.w3.org/2000/svg">
<path d="M10.2854 10.5707C10.3416 10.5965 10.4014 10.6094 10.46 10.6094C10.6135 10.6094 10.7612 10.5215 10.8315 10.3727C10.835 10.3633 11.3729 9.27578 12.8565 8.58672C13.5127 8.28203 14.2569 8.09922 15.0772 8.03828C16.7506 7.91407 18.7428 8.29609 20.96 9.17734C21.1709 9.26055 21.4088 9.15742 21.4932 8.94766C21.5764 8.73672 21.4733 8.49883 21.2635 8.41446C18.9913 7.51211 16.9721 7.10547 15.2284 7.19688C14.2065 7.25078 13.2795 7.47578 12.4498 7.87188C10.7272 8.69453 10.1143 9.9707 10.0885 10.0246C9.99243 10.2297 10.0803 10.4734 10.2854 10.5707ZM5.37758 6.33789C5.52055 6.51367 5.77836 6.54063 5.95415 6.39766C5.96704 6.38828 7.26196 5.36641 9.73579 4.94688C11.0834 4.71836 12.9538 4.64688 15.301 5.13789C16.9475 5.48125 18.8284 6.10117 20.9307 7.13711C20.9881 7.16524 21.0502 7.1793 21.1112 7.1793C21.2624 7.1793 21.4077 7.09492 21.4791 6.95078C21.5799 6.74687 21.4956 6.50196 21.2928 6.40117C19.0182 5.27969 16.9838 4.62813 15.2108 4.2836C12.8331 3.81953 10.9252 3.90742 9.53774 4.14883C6.87407 4.61289 5.49477 5.71446 5.43735 5.76016C5.26157 5.90313 5.23461 6.16211 5.37758 6.33789ZM0.436958 1.66797C0.524849 1.87656 0.766255 1.975 0.974849 1.88711C0.993599 1.87891 2.97055 1.06914 6.39946 1.06211H6.4475C8.4936 1.06211 11.3307 1.35625 14.7608 2.46133C16.6452 3.06836 18.7088 3.92149 20.9178 5.10391C20.9799 5.13672 21.0456 5.15312 21.1112 5.15312C21.2577 5.15312 21.3995 5.07461 21.4733 4.93633C21.5799 4.73594 21.5049 4.4875 21.3057 4.38086C18.7956 3.03672 16.4647 2.10977 14.3623 1.4793C11.0717 0.493753 8.33774 0.235937 6.34321 0.241796C2.76782 0.258202 0.740474 1.09492 0.656099 1.13125C0.447505 1.21914 0.349067 1.45938 0.436958 1.66797Z" fill="#EBD9EA"/>
</svg>
