<svg width="60" height="60" viewBox="0 0 60 60" fill="none" xmlns="http://www.w3.org/2000/svg">
<g clip-path="url(#clip0_1123_25406)">
<path d="M30 60C46.5685 60 60 46.5685 60 30C60 13.4315 46.5685 0 30 0C13.4315 0 0 13.4315 0 30C0 46.5685 13.4315 60 30 60Z" fill="#6C53A2"/>
<path d="M47.103 43.1074C46.9741 43.2363 46.7948 43.3171 46.5968 43.3159L42.7343 43.3171C42.1519 43.3101 41.9022 42.73 42.0815 42.3081C42.1554 42.13 42.3065 41.98 42.5409 41.912C42.6019 41.8956 42.6675 41.8863 42.7343 41.8851L46.5968 41.8839C46.9073 41.8781 47.1452 42.0726 47.2507 42.3234C47.3585 42.5777 47.3292 42.8906 47.103 43.1074Z" fill="#2E3140"/>
<path d="M47.2507 42.3234C47.2179 42.3995 47.1687 42.4699 47.103 42.5331C46.9741 42.662 46.7948 42.7429 46.5968 42.7417L42.7343 42.7429C42.4015 42.7394 42.1776 42.5495 42.0815 42.3081C42.1554 42.13 42.3065 41.98 42.5409 41.9121C42.6019 41.8956 42.6675 41.8863 42.7343 41.8851L46.5968 41.8839C46.9073 41.8779 47.1452 42.0725 47.2507 42.3234Z" fill="#334353"/>
<path d="M46.0668 42.1372H43.2655C43.0984 42.1372 42.9629 42.2727 42.9629 42.4398C42.9629 42.6069 43.0984 42.7424 43.2655 42.7424H46.0668C46.2339 42.7424 46.3694 42.6069 46.3694 42.4398C46.3693 42.2727 46.2339 42.1372 46.0668 42.1372Z" fill="#3E4E60"/>
<path d="M47.103 47.4472C46.9741 47.5761 46.7948 47.657 46.5968 47.6558L42.7343 47.657C42.1519 47.6499 41.9022 47.0699 42.0815 46.648C42.1554 46.4699 42.3065 46.3199 42.5409 46.2519C42.6019 46.2355 42.6675 46.2261 42.7343 46.2249L46.5968 46.2238C46.9073 46.2179 47.1452 46.4124 47.2507 46.6632C47.3585 46.9175 47.3292 47.2304 47.103 47.4472Z" fill="#2E3140"/>
<path d="M47.2507 46.6632C47.2179 46.7394 47.1687 46.8097 47.103 46.873C46.9741 47.0019 46.7948 47.0827 46.5968 47.0816L42.7343 47.0827C42.4015 47.0792 42.1776 46.8894 42.0815 46.648C42.1554 46.4699 42.3065 46.3199 42.5409 46.2519C42.6019 46.2355 42.6675 46.2261 42.7343 46.2249L46.5968 46.2238C46.9073 46.2179 47.1452 46.4124 47.2507 46.6632Z" fill="#334353"/>
<path d="M46.0668 46.4771H43.2655C43.0984 46.4771 42.9629 46.6125 42.9629 46.7796C42.9629 46.9467 43.0984 47.0822 43.2655 47.0822H46.0668C46.2339 47.0822 46.3694 46.9467 46.3694 46.7796C46.3693 46.6125 46.2339 46.4771 46.0668 46.4771Z" fill="#3E4E60"/>
<path d="M47.103 38.7592C46.9741 38.8881 46.7948 38.969 46.5968 38.9678L42.7343 38.969C42.1519 38.9619 41.9022 38.3819 42.0815 37.96C42.1554 37.7819 42.3065 37.6319 42.5409 37.5639C42.6019 37.5475 42.6675 37.5381 42.7343 37.5369L46.5968 37.5358C46.9073 37.5299 47.1452 37.7244 47.2507 37.9752C47.3585 38.2295 47.3292 38.5424 47.103 38.7592Z" fill="#2E3140"/>
<path d="M47.2507 37.9752C47.2179 38.0514 47.1687 38.1217 47.103 38.185C46.9741 38.3139 46.7948 38.3948 46.5968 38.3936L42.7343 38.3948C42.4015 38.3912 42.1776 38.2014 42.0815 37.96C42.1554 37.7819 42.3065 37.6319 42.5409 37.5639C42.6019 37.5475 42.6675 37.5381 42.7343 37.5369L46.5968 37.5358C46.9073 37.5299 47.1452 37.7244 47.2507 37.9752Z" fill="#334353"/>
<path d="M46.0668 37.7891H43.2655C43.0984 37.7891 42.9629 37.9245 42.9629 38.0916C42.9629 38.2588 43.0984 38.3942 43.2655 38.3942H46.0668C46.2339 38.3942 46.3694 38.2588 46.3694 38.0916C46.3693 37.9245 46.2339 37.7891 46.0668 37.7891Z" fill="#3E4E60"/>
<path d="M47.103 34.4199C46.9741 34.5488 46.7948 34.6296 46.5968 34.6284L42.7343 34.6296C42.1519 34.6226 41.9022 34.0425 42.0815 33.6206C42.1554 33.4425 42.3065 33.2925 42.5409 33.2245C42.6019 33.2081 42.6675 33.1988 42.7343 33.1976L46.5968 33.1964C46.9073 33.1906 47.1452 33.3851 47.2507 33.6359C47.3585 33.8902 47.3292 34.2031 47.103 34.4199Z" fill="#2E3140"/>
<path d="M47.2507 33.6359C47.2179 33.712 47.1687 33.7824 47.103 33.8456C46.9741 33.9745 46.7948 34.0554 46.5968 34.0542L42.7343 34.0554C42.4015 34.0519 42.1776 33.862 42.0815 33.6206C42.1554 33.4425 42.3065 33.2925 42.5409 33.2245C42.6019 33.2081 42.6675 33.1988 42.7343 33.1976L46.5968 33.1964C46.9073 33.1906 47.1452 33.3851 47.2507 33.6359Z" fill="#334353"/>
<path d="M46.0668 33.4497H43.2655C43.0984 33.4497 42.9629 33.5852 42.9629 33.7523C42.9629 33.9194 43.0984 34.0549 43.2655 34.0549H46.0668C46.2339 34.0549 46.3694 33.9194 46.3694 33.7523C46.3693 33.5851 46.2339 33.4497 46.0668 33.4497Z" fill="#3E4E60"/>
<path d="M17.7673 22.2797C17.6384 22.4086 17.4591 22.4895 17.2611 22.4883L13.3986 22.4895C12.8162 22.4825 12.5665 21.9024 12.7458 21.4805C12.8197 21.3024 12.9708 21.1524 13.2052 21.0844C13.2662 21.068 13.3318 21.0586 13.3986 21.0575L17.2611 21.0563C17.5716 21.0504 17.8095 21.245 17.915 21.4957C18.0228 21.75 17.9935 22.0629 17.7673 22.2797Z" fill="#2E3140"/>
<path d="M17.915 21.4957C17.8822 21.5719 17.833 21.6422 17.7673 21.7055C17.6384 21.8344 17.4591 21.9153 17.2611 21.9141L13.3986 21.9153C13.0658 21.9118 12.8419 21.7219 12.7458 21.4805C12.8197 21.3024 12.9708 21.1524 13.2052 21.0844C13.2662 21.068 13.3318 21.0586 13.3986 21.0575L17.2611 21.0563C17.5716 21.0503 17.8095 21.245 17.915 21.4957Z" fill="#334353"/>
<path d="M16.7311 21.3096H13.9298C13.7627 21.3096 13.6272 21.445 13.6272 21.6121C13.6272 21.7793 13.7627 21.9147 13.9298 21.9147H16.7311C16.8983 21.9147 17.0337 21.7793 17.0337 21.6121C17.0336 21.445 16.8981 21.3096 16.7311 21.3096Z" fill="#3E4E60"/>
<path d="M17.7673 26.6191C17.6384 26.748 17.4591 26.8288 17.2611 26.8277L13.3986 26.8288C12.8162 26.8218 12.5665 26.2417 12.7458 25.8199C12.8197 25.6417 12.9708 25.4917 13.2052 25.4238C13.2662 25.4074 13.3318 25.398 13.3986 25.3968L17.2611 25.3956C17.5716 25.3898 17.8095 25.5843 17.915 25.8351C18.0228 26.0894 17.9935 26.4023 17.7673 26.6191Z" fill="#2E3140"/>
<path d="M17.915 25.8351C17.8822 25.9113 17.833 25.9816 17.7673 26.0449C17.6384 26.1738 17.4591 26.2546 17.2611 26.2534L13.3986 26.2546C13.0658 26.2511 12.8419 26.0613 12.7458 25.8199C12.8197 25.6417 12.9708 25.4917 13.2052 25.4238C13.2662 25.4074 13.3318 25.398 13.3986 25.3968L17.2611 25.3956C17.5716 25.3898 17.8095 25.5843 17.915 25.8351Z" fill="#334353"/>
<path d="M16.7311 25.6489H13.9298C13.7627 25.6489 13.6272 25.7844 13.6272 25.9515C13.6272 26.1186 13.7627 26.2541 13.9298 26.2541H16.7311C16.8983 26.2541 17.0337 26.1186 17.0337 25.9515C17.0336 25.7844 16.8981 25.6489 16.7311 25.6489Z" fill="#3E4E60"/>
<path d="M33.9348 43.1074C33.8059 43.2363 33.6266 43.3171 33.4286 43.3159L29.5661 43.3171C28.9836 43.3101 28.734 42.73 28.9133 42.3081C28.9872 42.13 29.1383 41.98 29.3727 41.912C29.4336 41.8956 29.4993 41.8863 29.5661 41.8851L33.4286 41.8839C33.7391 41.8781 33.977 42.0726 34.0825 42.3234C34.1902 42.5777 34.1609 42.8906 33.9348 43.1074Z" fill="#2E3140"/>
<path d="M34.0825 42.3234C34.0497 42.3995 34.0004 42.4699 33.9348 42.5331C33.8059 42.662 33.6266 42.7429 33.4286 42.7417L29.5661 42.7429C29.2333 42.7394 29.0094 42.5495 28.9133 42.3081C28.9872 42.13 29.1383 41.98 29.3727 41.9121C29.4336 41.8956 29.4993 41.8863 29.5661 41.8851L33.4286 41.8839C33.7391 41.8779 33.977 42.0725 34.0825 42.3234Z" fill="#334353"/>
<path d="M32.8986 42.1372H30.0973C29.9301 42.1372 29.7947 42.2727 29.7947 42.4398C29.7947 42.6069 29.9301 42.7424 30.0973 42.7424H32.8986C33.0657 42.7424 33.2012 42.6069 33.2012 42.4398C33.2012 42.2727 33.0657 42.1372 32.8986 42.1372Z" fill="#3E4E60"/>
<path d="M33.9348 47.4472C33.8059 47.5761 33.6266 47.657 33.4286 47.6558L29.5661 47.657C28.9836 47.6499 28.734 47.0699 28.9133 46.648C28.9872 46.4699 29.1383 46.3199 29.3727 46.2519C29.4336 46.2355 29.4993 46.2261 29.5661 46.2249L33.4286 46.2238C33.7391 46.2179 33.977 46.4124 34.0825 46.6632C34.1902 46.9175 34.1609 47.2304 33.9348 47.4472Z" fill="#2E3140"/>
<path d="M34.0825 46.6632C34.0497 46.7394 34.0004 46.8097 33.9348 46.873C33.8059 47.0019 33.6266 47.0827 33.4286 47.0816L29.5661 47.0827C29.2333 47.0792 29.0094 46.8894 28.9133 46.648C28.9872 46.4699 29.1383 46.3199 29.3727 46.2519C29.4336 46.2355 29.4993 46.2261 29.5661 46.2249L33.4286 46.2238C33.7391 46.2179 33.977 46.4124 34.0825 46.6632Z" fill="#334353"/>
<path d="M32.8986 46.4771H30.0973C29.9301 46.4771 29.7947 46.6125 29.7947 46.7796C29.7947 46.9467 29.9301 47.0822 30.0973 47.0822H32.8986C33.0657 47.0822 33.2012 46.9467 33.2012 46.7796C33.2012 46.6125 33.0657 46.4771 32.8986 46.4771Z" fill="#3E4E60"/>
<path d="M26.589 35.0781C26.718 35.207 26.7988 35.3863 26.7976 35.5844L26.7988 39.4469C26.7918 40.0293 26.2117 40.2789 25.7898 40.0996C25.6117 40.0258 25.4617 39.8746 25.3937 39.6402C25.3773 39.5793 25.368 39.5137 25.3668 39.4469L25.3656 35.5844C25.3597 35.2738 25.5543 35.0359 25.8051 34.9305C26.0594 34.8227 26.3722 34.852 26.589 35.0781Z" fill="#2E3140"/>
<path d="M25.8051 34.9307C25.8812 34.9635 25.9515 35.0127 26.0148 35.0783C26.1437 35.2072 26.2246 35.3865 26.2234 35.5846L26.2246 39.4471C26.2211 39.7799 26.0312 40.0037 25.7898 40.0998C25.6117 40.026 25.4617 39.8748 25.3937 39.6404C25.3773 39.5795 25.368 39.5139 25.3668 39.4471L25.3656 35.5846C25.3597 35.274 25.5543 35.0361 25.8051 34.9307Z" fill="#334353"/>
<path d="M25.6189 36.1141V38.9155C25.6189 39.0826 25.7544 39.218 25.9215 39.218C26.0886 39.218 26.2241 39.0826 26.2241 38.9155V36.1141C26.2241 35.947 26.0886 35.8115 25.9215 35.8115C25.7544 35.8116 25.6189 35.947 25.6189 36.1141Z" fill="#3E4E60"/>
<path d="M30.9286 35.0781C31.0575 35.207 31.1384 35.3863 31.1372 35.5844L31.1384 39.4469C31.1314 40.0293 30.5513 40.2789 30.1294 40.0996C29.9513 40.0258 29.8013 39.8746 29.7333 39.6402C29.7169 39.5793 29.7076 39.5137 29.7064 39.4469L29.7052 35.5844C29.6993 35.2738 29.8939 35.0359 30.1447 34.9305C30.399 34.8227 30.7118 34.852 30.9286 35.0781Z" fill="#2E3140"/>
<path d="M30.1447 34.9307C30.2208 34.9635 30.2911 35.0127 30.3544 35.0783C30.4833 35.2072 30.5642 35.3865 30.563 35.5846L30.5642 39.4471C30.5607 39.7799 30.3708 40.0037 30.1294 40.0998C29.9513 40.026 29.8013 39.8748 29.7333 39.6404C29.7169 39.5795 29.7076 39.5139 29.7064 39.4471L29.7052 35.5846C29.6992 35.274 29.8939 35.0361 30.1447 34.9307Z" fill="#334353"/>
<path d="M29.9585 36.1141V38.9155C29.9585 39.0826 30.094 39.218 30.2611 39.218C30.4282 39.218 30.5637 39.0826 30.5637 38.9155V36.1141C30.5637 35.947 30.4282 35.8115 30.2611 35.8115C30.094 35.8116 29.9585 35.947 29.9585 36.1141Z" fill="#3E4E60"/>
<path d="M29.7685 21.8374C29.8974 21.9663 29.9783 22.1456 29.9771 22.3436L29.9783 26.2061C29.9712 26.7886 29.3911 27.0382 28.9693 26.8589C28.7911 26.7851 28.6411 26.6339 28.5732 26.3995C28.5568 26.3386 28.5474 26.2729 28.5462 26.2061L28.5451 22.3436C28.5392 22.0331 28.7337 21.7952 28.9845 21.6897C29.2388 21.5819 29.5517 21.6112 29.7685 21.8374Z" fill="#2E3140"/>
<path d="M28.9845 21.6899C29.0607 21.7228 29.131 21.772 29.1943 21.8376C29.3232 21.9665 29.404 22.1458 29.4029 22.3438L29.404 26.2063C29.4005 26.5392 29.2107 26.763 28.9693 26.8591C28.7911 26.7853 28.6411 26.6341 28.5732 26.3997C28.5568 26.3388 28.5474 26.2731 28.5462 26.2063L28.5451 22.3438C28.5392 22.0333 28.7337 21.7954 28.9845 21.6899Z" fill="#334353"/>
<path d="M28.7983 22.8734V25.6747C28.7983 25.8419 28.9338 25.9773 29.1009 25.9773C29.268 25.9773 29.4035 25.8419 29.4035 25.6747V22.8734C29.4035 22.7063 29.268 22.5708 29.1009 22.5708C28.9338 22.5709 28.7983 22.7064 28.7983 22.8734Z" fill="#3E4E60"/>
<path d="M34.1081 21.8374C34.237 21.9663 34.3179 22.1456 34.3167 22.3436L34.3179 26.2061C34.3108 26.7886 33.7307 27.0382 33.3089 26.8589C33.1307 26.7851 32.9807 26.6339 32.9128 26.3995C32.8964 26.3386 32.887 26.2729 32.8858 26.2061L32.8847 22.3436C32.8788 22.0331 33.0733 21.7952 33.3241 21.6897C33.5784 21.5819 33.8913 21.6112 34.1081 21.8374Z" fill="#2E3140"/>
<path d="M33.3241 21.6899C33.4003 21.7228 33.4706 21.772 33.5339 21.8376C33.6628 21.9665 33.7436 22.1458 33.7425 22.3438L33.7436 26.2063C33.7401 26.5392 33.5503 26.763 33.3089 26.8591C33.1307 26.7853 32.9807 26.6341 32.9128 26.3997C32.8964 26.3388 32.887 26.2731 32.8858 26.2063L32.8847 22.3438C32.8788 22.0333 33.0733 21.7954 33.3241 21.6899Z" fill="#334353"/>
<path d="M33.1379 22.8734V25.6747C33.1379 25.8419 33.2734 25.9773 33.4405 25.9773C33.6076 25.9773 33.7431 25.8419 33.7431 25.6747V22.8734C33.7431 22.7063 33.6076 22.5708 33.4405 22.5708C33.2733 22.5709 33.1379 22.7064 33.1379 22.8734Z" fill="#3E4E60"/>
<path d="M39.0815 22.408C39.1807 22.5609 39.2224 22.7532 39.1799 22.9466L38.375 26.7242C38.2466 27.2923 37.6271 27.4154 37.252 27.1519C37.0932 27.0426 36.9781 26.8634 36.9606 26.62C36.9572 26.557 36.9617 26.4909 36.9745 26.4253L37.7795 22.6476C37.8385 22.3427 38.0784 22.1506 38.3457 22.0998C38.6168 22.0476 38.9167 22.1415 39.0815 22.408Z" fill="#2E3140"/>
<path d="M38.3457 22.1001C38.4133 22.148 38.4718 22.2108 38.52 22.2883C38.6191 22.4412 38.6608 22.6335 38.6184 22.8269L37.8134 26.6046C37.7406 26.9293 37.5082 27.1086 37.252 27.1522C37.0932 27.0428 36.9781 26.8637 36.9606 26.6203C36.9572 26.5572 36.9617 26.4911 36.9745 26.4255L37.7795 22.6478C37.8385 22.3429 38.0784 22.1508 38.3457 22.1001Z" fill="#334353"/>
<path d="M37.9166 23.2189L37.3319 25.9587C37.297 26.122 37.4013 26.2828 37.5647 26.3177C37.728 26.3526 37.8888 26.2483 37.9237 26.085L38.5084 23.3453C38.5433 23.1819 38.439 23.0211 38.2756 22.9862C38.1122 22.9514 37.9515 23.0556 37.9166 23.2189Z" fill="#3E4E60"/>
<path d="M43.7985 25.0642C43.8155 25.2457 43.7633 25.4353 43.6359 25.5871L41.1717 28.5614C40.7946 29.0053 40.1888 28.8272 39.9784 28.42C39.8884 28.2495 39.8694 28.0374 39.9667 27.8135C39.9929 27.7561 40.0276 27.6996 40.0693 27.6475L42.5337 24.6733C42.7274 24.4305 43.0289 24.3714 43.2893 24.4504C43.5538 24.5295 43.7759 24.7517 43.7985 25.0642Z" fill="#2E3140"/>
<path d="M43.2893 24.4503C43.327 24.5241 43.3498 24.607 43.3565 24.6978C43.3734 24.8793 43.3213 25.069 43.1939 25.2207L40.7297 28.195C40.5147 28.449 40.2256 28.5002 39.9784 28.42C39.8884 28.2495 39.8694 28.0374 39.9667 27.8136C39.9929 27.7562 40.0276 27.6997 40.0693 27.6475L42.5337 24.6733C42.7273 24.4304 43.0289 24.3715 43.2893 24.4503Z" fill="#334353"/>
<path d="M42.3903 25.2428L40.6024 27.3994C40.4957 27.5281 40.5135 27.7187 40.6422 27.8254C40.7709 27.932 40.9615 27.9142 41.0682 27.7855L42.8561 25.6289C42.9627 25.5002 42.9449 25.3096 42.8163 25.2029C42.6877 25.0963 42.4969 25.1141 42.3903 25.2428Z" fill="#3E4E60"/>
<path d="M46.5612 29.6039C46.4924 29.7727 46.3586 29.9168 46.1756 29.9926L42.6162 31.4925C42.0767 31.712 41.6215 31.2742 41.6231 30.8159C41.622 30.6231 41.7031 30.4262 41.8927 30.2726C41.9425 30.2338 41.9993 30.1997 42.0604 30.1727L45.6199 28.6729C45.9038 28.5469 46.1985 28.634 46.3931 28.8242C46.5911 29.0166 46.6856 29.3163 46.5612 29.6039Z" fill="#2E3140"/>
<path d="M46.3932 28.8241C46.3925 28.9071 46.3744 28.991 46.3384 29.0746C46.2697 29.2435 46.1358 29.3875 45.9528 29.4634L42.3933 30.9632C42.0852 31.0892 41.8053 31.0011 41.6231 30.8158C41.622 30.623 41.7031 30.4262 41.8927 30.2725C41.9425 30.2337 41.9993 30.1996 42.0604 30.1727L45.6199 28.6728C45.9039 28.547 46.1988 28.6339 46.3932 28.8241Z" fill="#334353"/>
<path d="M45.2298 29.1121L42.6479 30.1992C42.4939 30.264 42.4216 30.4414 42.4864 30.5954C42.5512 30.7494 42.7286 30.8217 42.8826 30.7569L45.4645 29.6698C45.6185 29.605 45.6908 29.4276 45.626 29.2736C45.5612 29.1196 45.3838 29.0473 45.2298 29.1121Z" fill="#3E4E60"/>
<path d="M18.0663 30.3681C17.9674 30.5213 17.8092 30.6381 17.6154 30.6787L13.8398 31.4936C13.269 31.6094 12.9028 31.0949 12.9891 30.6447C13.0238 30.455 13.14 30.2766 13.3548 30.1607C13.4109 30.1318 13.4731 30.1089 13.5381 30.0937L17.3136 29.2789C17.6159 29.2078 17.8895 29.3478 18.0454 29.5707C18.2045 29.7965 18.2417 30.1086 18.0663 30.3681Z" fill="#2E3140"/>
<path d="M18.0455 29.5707C18.0295 29.6521 17.9962 29.7312 17.9454 29.8069C17.8466 29.96 17.6882 30.0769 17.4944 30.1174L13.7189 30.9322C13.3929 30.9989 13.134 30.8605 12.9893 30.6448C13.0239 30.455 13.1401 30.2767 13.3549 30.1608C13.411 30.1318 13.4732 30.109 13.5382 30.0937L17.3137 29.2789C17.6162 29.2077 17.8897 29.3477 18.0455 29.5707Z" fill="#334353"/>
<path d="M16.8489 29.6382L14.1105 30.2283C13.9471 30.2635 13.8433 30.4245 13.8784 30.5879C13.9136 30.7512 14.0746 30.8551 14.238 30.8199L16.9764 30.2298C17.1398 30.1946 17.2436 30.0336 17.2084 29.8702C17.1731 29.7069 17.0123 29.603 16.8489 29.6382Z" fill="#3E4E60"/>
<path d="M19.7304 33.4904C19.7 33.67 19.6006 33.8398 19.4384 33.9535L16.2898 36.1907C15.8109 36.5221 15.2715 36.1937 15.1735 35.7459C15.1306 35.5579 15.1669 35.3482 15.3187 35.157C15.3589 35.1084 15.4069 35.0628 15.4607 35.0231L18.6094 32.786C18.8593 32.6014 19.1658 32.6223 19.3971 32.7657C19.632 32.9107 19.7893 33.1827 19.7304 33.4904Z" fill="#2E3140"/>
<path d="M19.3971 32.7657C19.4144 32.8468 19.415 32.9326 19.3981 33.0222C19.3676 33.202 19.2683 33.3717 19.1061 33.4854L15.9574 35.7226C15.684 35.9124 15.3916 35.8872 15.1735 35.746C15.1306 35.558 15.1669 35.3483 15.3187 35.1571C15.3589 35.1085 15.4069 35.0629 15.4607 35.0232L18.6094 32.7861C18.8593 32.6014 19.1658 32.6222 19.3971 32.7657Z" fill="#334353"/>
<path d="M18.3239 33.2996L16.0398 34.9215C15.9035 35.0183 15.8715 35.2071 15.9683 35.3433C16.0651 35.4796 16.2539 35.5116 16.3902 35.4148L18.6743 33.793C18.8106 33.6962 18.8425 33.5074 18.7458 33.3711C18.649 33.2348 18.4602 33.2028 18.3239 33.2996Z" fill="#3E4E60"/>
<path d="M22.9485 35.0286C23.0125 35.1992 23.0119 35.3959 22.9289 35.5757L21.3312 39.0923C21.0837 39.6195 20.4523 39.6066 20.1425 39.2688C20.0109 39.1278 19.9369 38.9281 19.9721 38.6867C19.9824 38.6245 20.001 38.5608 20.0277 38.4995L21.6254 34.983C21.7485 34.6979 22.0242 34.5618 22.296 34.5697C22.572 34.5768 22.8447 34.733 22.9485 35.0286Z" fill="#2E3140"/>
<path d="M22.296 34.5696C22.3518 34.6311 22.3954 34.705 22.4259 34.7909C22.4899 34.9616 22.4893 35.1583 22.4062 35.3382L20.8085 38.8547C20.6675 39.1563 20.4021 39.2814 20.1425 39.269C20.0109 39.128 19.9369 38.9283 19.9721 38.6869C19.9824 38.6247 20.0011 38.5611 20.0277 38.4998L21.6254 34.9832C21.7485 34.6979 22.0242 34.5619 22.296 34.5696Z" fill="#334353"/>
<path d="M21.6367 35.5704L20.4771 38.1206C20.408 38.2727 20.4753 38.4521 20.6274 38.5212C20.7795 38.5904 20.9589 38.5231 21.028 38.371L22.1876 35.8209C22.2568 35.6688 22.1895 35.4893 22.0374 35.4202C21.8853 35.3512 21.7059 35.4183 21.6367 35.5704Z" fill="#3E4E60"/>
<path d="M42.7542 33.0125V46.9988C42.7542 47.1043 42.7507 47.2097 42.7437 47.3129C42.6664 48.4765 42.1625 49.5242 41.3867 50.2988C40.55 51.1367 39.3953 51.6576 38.119 51.6663C35.534 51.6838 33.4191 49.5013 33.4191 46.9162V37.1691C33.4191 36.2623 32.6841 35.5273 31.7773 35.5273H24.1002C20.3335 35.5273 17.28 32.4738 17.28 28.7071V14.7208C17.28 13.4317 17.8027 12.2646 18.6476 11.4208C19.4222 10.645 20.4699 10.1411 21.6335 10.0638C21.7367 10.0567 21.8421 10.0532 21.9476 10.0532C24.5257 10.0532 26.6152 12.1427 26.6152 14.7208V24.5505C26.6152 25.4572 27.3502 26.1923 28.257 26.1923H35.9341C39.7008 26.1923 42.7542 29.2458 42.7542 33.0125Z" fill="#DD5E26"/>
<path d="M42.7542 33.0126V46.9989C42.3077 46.9989 41.8752 46.9356 41.4663 46.8196C41.2987 46.7716 41.1358 46.7142 40.9776 46.6485C39.9827 46.2395 39.1612 45.4954 38.6514 44.5591C38.5893 44.4454 38.5319 44.3282 38.4791 44.2075C38.2272 43.6333 38.0866 42.9981 38.0866 42.3313V34.8091C38.0866 34.338 38.0045 33.8856 37.8522 33.4673C37.5627 32.6669 37.0225 31.986 36.3264 31.522C35.6995 31.1036 34.9471 30.8599 34.1374 30.8599H25.4245C25.3577 30.8599 25.2909 30.8575 25.2252 30.854C24.2948 30.8013 23.4627 30.3841 22.8698 29.7407C22.2967 29.1208 21.9475 28.2923 21.9475 27.3829V10.0532C24.5256 10.0532 26.6151 12.1427 26.6151 14.7208V24.5505C26.6151 25.4575 27.3499 26.1923 28.2569 26.1923H35.9338C39.7002 26.1923 42.7542 29.2462 42.7542 33.0126Z" fill="#EA792E"/>
<path d="M26.6152 14.7208V19.4106H17.28V14.7208C17.28 13.4317 17.8027 12.2646 18.6476 11.4208C19.4199 10.6474 20.4628 10.1446 21.623 10.0649C21.7296 10.0567 21.8386 10.0532 21.9476 10.0532C24.5258 10.0532 26.6152 12.1427 26.6152 14.7208Z" fill="#BF5E39"/>
<path d="M26.6151 14.7208V19.4106H21.9475V10.0532C24.5258 10.0532 26.6151 12.1427 26.6151 14.7208Z" fill="#DD5E26"/>
<path d="M27.6792 15.3228V15.9334C27.6828 16.5165 27.1967 16.9938 26.623 16.9903C26.0394 16.9903 25.5669 16.5169 25.5669 15.9334V15.3228C25.616 13.9282 27.6248 13.9191 27.6792 15.3228Z" fill="#334353"/>
<path d="M27.6792 15.3228V15.9333C27.6779 16.357 27.433 16.7253 27.0613 16.8945C26.6968 16.7287 26.4434 16.3606 26.4434 15.9333V15.3228C26.4434 14.8955 26.6968 14.5281 27.0613 14.3623C27.4257 14.5281 27.6792 14.8955 27.6792 15.3228Z" fill="#3E4E60"/>
<path d="M16.2161 15.9341V15.3235C16.2125 14.7404 16.6985 14.2631 17.2723 14.2666C17.8559 14.2666 18.3284 14.7399 18.3284 15.3235V15.9341C18.2793 17.3287 16.2705 17.3378 16.2161 15.9341Z" fill="#2E3140"/>
<path d="M16.2161 15.934V15.3235C16.2174 14.8998 16.4623 14.5315 16.834 14.3623C17.1984 14.5281 17.4519 14.8962 17.4519 15.3235V15.934C17.4519 16.3613 17.1984 16.7287 16.834 16.8945C16.4694 16.7287 16.2161 16.3613 16.2161 15.934Z" fill="#334353"/>
<path d="M26.746 9.04934C26.746 9.23203 26.6763 9.41567 26.536 9.555L23.8051 12.2869C23.2128 12.8668 22.2782 12.1484 22.675 11.4309C22.7061 11.3754 22.7457 11.3227 22.7927 11.2746L25.5236 8.54274C25.9573 8.09215 26.7594 8.42613 26.746 9.04934Z" fill="#EA792E"/>
<path d="M26.6537 8.69887C26.6226 8.75441 26.583 8.80715 26.536 8.85426L23.8051 11.5861C23.48 11.9215 22.8968 11.8393 22.675 11.4307C22.7061 11.3752 22.7457 11.3225 22.7927 11.2744L25.5236 8.54254C25.8477 8.20879 26.4341 8.28941 26.6537 8.69887Z" fill="#F39E22"/>
<path d="M21.1014 12.2867C20.8226 12.5665 20.3687 12.5665 20.0891 12.2867L17.3582 9.55485C17.0756 9.27571 17.0841 8.81306 17.3582 8.54259C17.6384 8.26368 18.0913 8.26392 18.3704 8.54259L21.1014 11.2745C21.3747 11.546 21.3846 12.0064 21.1014 12.2867Z" fill="#DD5E26"/>
<path d="M21.2191 11.4307C20.997 11.8391 20.4144 11.9216 20.0891 11.5861L17.3581 8.85429C17.311 8.80718 17.2715 8.75445 17.2405 8.6989C17.4604 8.28933 18.047 8.20882 18.3705 8.54257L21.1015 11.2743C21.1484 11.3224 21.1881 11.3751 21.2191 11.4307Z" fill="#EA792E"/>
<path d="M24.6643 20.5454H21.9475V22.9997H24.6643C25.342 22.9997 25.8913 22.4503 25.8913 21.7726C25.8913 21.0948 25.342 20.5454 24.6643 20.5454Z" fill="#F39E22"/>
<path d="M19.2307 22.9997H21.9475V20.5454H19.2307C18.553 20.5454 18.0037 21.0948 18.0037 21.7725C18.0037 22.4503 18.553 22.9997 19.2307 22.9997Z" fill="#EA792E"/>
<path d="M24.6643 24.8853H21.9475V27.3395H24.6643C25.342 27.3395 25.8913 26.7901 25.8913 26.1124C25.8913 25.4346 25.342 24.8853 24.6643 24.8853Z" fill="#F39E22"/>
<path d="M19.2307 27.3395H21.9475V24.8853H19.2307C18.553 24.8853 18.0037 25.4346 18.0037 26.1123C18.0037 26.7901 18.553 27.3395 19.2307 27.3395Z" fill="#EA792E"/>
<path d="M27.4238 28.1426V30.8594H29.8781V28.1426C29.8781 27.4649 29.3287 26.9155 28.651 26.9155C27.9732 26.9154 27.4238 27.4648 27.4238 28.1426Z" fill="#F39E22"/>
<path d="M29.8781 33.5761V30.8594H27.4238V33.5761C27.4238 34.2538 27.9732 34.8032 28.6509 34.8032C29.3287 34.8033 29.8781 34.2538 29.8781 33.5761Z" fill="#EA792E"/>
<path d="M31.7634 28.1426V30.8594H34.2177V28.1426C34.2177 27.4649 33.6683 26.9155 32.9906 26.9155C32.3129 26.9154 31.7634 27.4648 31.7634 28.1426Z" fill="#F39E22"/>
<path d="M34.2177 33.5761V30.8594H31.7634V33.5761C31.7634 34.2538 32.3128 34.8032 32.9905 34.8032C33.6683 34.8033 34.2177 34.2538 34.2177 33.5761Z" fill="#EA792E"/>
<path d="M40.8035 44.207H35.3699C34.6922 44.207 34.1428 44.7564 34.1428 45.4341C34.1428 46.1118 34.6922 46.6612 35.3699 46.6612H40.8035C41.4812 46.6612 42.0306 46.1118 42.0306 45.4341C42.0306 44.7564 41.4812 44.207 40.8035 44.207Z" fill="#EA792E"/>
<path d="M42.03 45.434C42.03 46.0527 41.573 46.5637 40.9777 46.648C39.9828 46.2391 39.1613 45.4949 38.6515 44.5586C38.5894 44.4449 38.532 44.3277 38.4792 44.207H40.8031C41.4816 44.207 42.03 44.7566 42.03 45.434Z" fill="#F39E22"/>
<path d="M40.8034 39.8677H38.0867V42.3219H40.8034C41.4811 42.3219 42.0305 41.7726 42.0305 41.0949C42.0305 40.4171 41.4811 39.8677 40.8034 39.8677Z" fill="#F39E22"/>
<path d="M35.3699 42.3219H38.0866V39.8677H35.3699C34.6922 39.8677 34.1428 40.4171 34.1428 41.0947C34.1428 41.7724 34.6922 42.3219 35.3699 42.3219Z" fill="#EA792E"/>
<path d="M40.8034 35.5278H38.0867V37.9821H40.8034C41.4811 37.9821 42.0305 37.4327 42.0305 36.755C42.0305 36.0772 41.4811 35.5278 40.8034 35.5278Z" fill="#F39E22"/>
<path d="M35.3699 37.9821H38.0866V35.5278H35.3699C34.6922 35.5278 34.1428 36.0772 34.1428 36.7549C34.1428 37.4327 34.6922 37.9821 35.3699 37.9821Z" fill="#EA792E"/>
<path d="M38.73 29.1183L35.4566 32.3917C34.9774 32.8708 34.9773 33.6478 35.4566 34.1271C35.9358 34.6063 36.7127 34.6063 37.192 34.1271L40.4654 30.8537C40.9446 30.3745 40.9447 29.5976 40.4654 29.1183C39.9861 28.639 39.2092 28.639 38.73 29.1183Z" fill="#EA792E"/>
<path d="M40.4655 30.8538L37.8522 33.4671C37.5627 32.6667 37.0225 31.9858 36.3264 31.5218L38.7299 29.1183C39.2092 28.639 39.9862 28.639 40.4655 29.1183C40.9448 29.5976 40.9448 30.3745 40.4655 30.8538Z" fill="#F39E22"/>
<path d="M24.0598 28.5493L20.8687 31.7405C20.3895 32.2196 20.3894 32.9966 20.8687 33.4759C21.3479 33.9551 22.1248 33.9551 22.6041 33.4759L25.7953 30.2848C26.2744 29.8056 26.2746 29.0286 25.7953 28.5493C25.3161 28.0701 24.5391 28.0701 24.0598 28.5493Z" fill="#EA792E"/>
<path d="M25.7946 30.2843L25.2251 30.8538C24.2946 30.8011 23.4626 30.3839 22.8696 29.7405L24.0603 28.5499C24.5396 28.0706 25.3165 28.0706 25.7946 28.5499C26.2739 29.0292 26.2739 29.8062 25.7946 30.2843Z" fill="#F39E22"/>
</g>
<defs>
<clipPath id="clip0_1123_25406">
<rect width="60" height="60" fill="white"/>
</clipPath>
</defs>
</svg>
