<svg width="60" height="60" viewBox="0 0 60 60" fill="none" xmlns="http://www.w3.org/2000/svg">
<g clip-path="url(#clip0_1123_22906)">
<path d="M30 60C46.5685 60 60 46.5685 60 30C60 13.4315 46.5685 0 30 0C13.4315 0 0 13.4315 0 30C0 46.5685 13.4315 60 30 60Z" fill="#EA792E"/>
<path d="M43.7462 7.55604V22.296C43.7462 23.1341 43.4835 23.9513 42.9949 24.6324L39.8919 28.958C40.0244 29.0467 32.017 23.7244 31.8071 23.5849L33.6376 16.9404C33.8813 16.0557 34.3267 15.24 34.9395 14.5568L41.8618 6.83065C42.514 6.09905 43.752 6.57741 43.7462 7.55604Z" fill="#DECEE5"/>
<path d="M40.07 20.3728C40.5938 21.9654 40.6548 23.6646 40.2587 25.2795C40.1008 26.0244 39.3878 27.711 39.1208 28.4459L31.8071 23.5849L33.6376 16.9404C33.8813 16.0556 34.3267 15.24 34.9395 14.5568L38.3321 10.7705L41.8618 6.83065C42.3754 6.23885 43.3911 6.4226 43.6677 7.15291L40.5083 13.7178C39.5087 15.7955 39.3517 18.1814 40.07 20.3728Z" fill="#F4E6F4"/>
<path d="M40.07 20.3729C40.5938 21.9655 40.6547 23.6647 40.2586 25.2795C37.1651 21.4451 36.3145 15.3882 38.3322 10.7705C38.3321 10.7705 41.8618 6.8307 41.8618 6.8307C42.3759 6.23878 43.3908 6.42265 43.6676 7.15296L40.5082 13.7178C39.5086 15.7955 39.3516 18.1815 40.07 20.3729Z" fill="white"/>
<path d="M16.2532 7.55601V22.296C16.2532 23.1341 16.5159 23.9512 17.0045 24.6323L20.1075 28.9581C19.975 29.0468 27.9824 23.7245 28.1923 23.585L26.3618 16.9405C26.118 16.0557 25.6727 15.2401 25.0598 14.5569L18.1376 6.83073C17.4854 6.09902 16.2473 6.57738 16.2532 7.55601Z" fill="#C2AACF"/>
<path d="M19.9294 20.3728C19.4056 21.9654 19.3447 23.6646 19.7408 25.2795C19.8986 26.0244 20.6117 27.711 20.8787 28.4459L28.1923 23.5849L26.3619 16.9404C26.1181 16.0556 25.6728 15.24 25.0599 14.5568L21.6673 10.7705L18.1376 6.83065C17.624 6.23885 16.6083 6.4226 16.3318 7.15291L19.4912 13.7178C20.4907 15.7955 20.6478 18.1814 19.9294 20.3728Z" fill="#EBD9EA"/>
<path d="M19.9294 20.3729C19.4056 21.9655 19.3447 23.6647 19.7408 25.2795C22.8343 21.4451 23.685 15.3882 21.6672 10.7705C21.6673 10.7705 18.1376 6.8307 18.1376 6.8307C17.6237 6.23878 16.6086 6.42265 16.3318 7.15296L19.4912 13.7178C20.4907 15.7955 20.6478 18.1815 19.9294 20.3729Z" fill="#F9F2F9"/>
<path d="M42.9364 37.0755V39.8037C42.9557 47.1243 36.637 52.6931 29.407 52.1469C22.5891 52.147 17.0625 46.6205 17.0625 39.8037V37.0755C17.0431 29.755 23.3621 24.1861 30.593 24.7323C37.4098 24.7322 42.9364 30.2587 42.9364 37.0755Z" fill="#C2AACF"/>
<path d="M42.9363 37.0753V39.8034C42.9555 46.8462 37.0164 52.4566 30 52.1468V24.732C37.0165 24.4222 42.9554 30.0326 42.9363 37.0753Z" fill="#DECEE5"/>
<path d="M33.1231 52.8209H26.8771C22.8212 52.8209 19.7286 49.4658 20.3708 45.7639C20.5742 44.59 20.9881 42.2027 21.1923 41.0236C21.5169 39.1557 21.5169 37.2502 21.1923 35.3822L20.5794 31.842C19.8271 27.5107 23.447 23.585 28.1931 23.585H31.8071C36.5532 23.585 40.1731 27.5107 39.4208 31.842L38.8079 35.3822C38.4833 37.2502 38.4833 39.1557 38.8079 41.0236L39.2403 43.5197L39.6294 45.7639C40.2716 49.4658 37.179 52.8209 33.1231 52.8209Z" fill="#DECEE5"/>
<path d="M33.123 52.8209H30V23.585H31.807C36.5531 23.585 40.173 27.5107 39.4207 31.842L38.8078 35.3822C38.4832 37.2502 38.4832 39.1557 38.8078 41.0236C39.0108 42.1991 39.4267 44.5925 39.6293 45.7639C40.2715 49.4658 37.1789 52.8209 33.123 52.8209Z" fill="#EBD9EA"/>
<path d="M38.7399 34.8465C39.8805 35.0476 40.6447 36.1269 40.4586 37.2668C40.4585 37.2767 40.4569 37.2863 40.4551 37.2959L40.1996 38.7446C39.997 39.8939 38.9001 40.6651 37.7498 40.4614C36.5933 40.263 35.8287 39.1392 36.0334 38.01L36.2889 36.5613C36.4928 35.411 37.5893 34.6436 38.7399 34.8465Z" fill="#3E4E60"/>
<path d="M38.7399 34.8465C39.8805 35.0476 40.6447 36.1269 40.4586 37.2668C39.4686 38.415 37.5493 38.8644 36.0057 38.2515C36.0004 38.1236 36.2648 36.7225 36.2888 36.5613C36.4927 35.411 37.5892 34.6436 38.7399 34.8465Z" fill="#2E3140"/>
<path d="M37.3076 36.282L37.1539 37.1536C37.0877 37.529 37.3384 37.8869 37.7136 37.9531C38.0888 38.0193 38.4468 37.7686 38.5131 37.3934L38.6667 36.5218C38.7974 35.6187 37.4935 35.3886 37.3076 36.282Z" fill="white"/>
<path d="M21.2602 34.8465C20.1197 35.0476 19.3555 36.1269 19.5416 37.2668C19.5417 37.2767 19.5433 37.2863 19.5451 37.2959L19.8006 38.7446C20.0032 39.8939 21.1 40.6651 22.2504 40.4614C23.4069 40.263 24.1715 39.1392 23.9668 38.01L23.7113 36.5613C23.5074 35.411 22.4109 34.6436 21.2602 34.8465Z" fill="#3E4E60"/>
<path d="M21.2602 34.8465C20.1197 35.0476 19.3555 36.1269 19.5416 37.2668C20.5316 38.415 22.4509 38.8644 23.9945 38.2515C23.9997 38.1236 23.7354 36.7225 23.7113 36.5613C23.5074 35.411 22.4109 34.6436 21.2602 34.8465Z" fill="#2E3140"/>
<path d="M22.6925 36.282L22.8462 37.1536C22.9124 37.529 22.6617 37.8869 22.2865 37.9531C21.9111 38.0193 21.5532 37.7686 21.487 37.3934L21.3334 36.5218C21.2027 35.6187 22.5066 35.3886 22.6925 36.282Z" fill="white"/>
<path d="M30 25.7134C35.269 25.7134 36.7923 27.2367 36.7923 29.31C36.7923 31.3834 35.5209 35.1069 30 35.1069V25.7134Z" fill="#F4E6F4"/>
<path d="M30.0001 25.7134C24.7311 25.7134 23.2078 27.2367 23.2078 29.31C23.2078 31.3834 24.4791 35.1069 30.0001 35.1069V25.7134Z" fill="#EBD9EA"/>
<path d="M39.7138 46.7415C39.7138 50.0356 36.8181 52.8212 33.1231 52.8212H26.8771C22.8212 52.8212 19.7286 49.4661 20.3708 45.7642C20.5958 44.4669 21.7206 43.5201 23.038 43.52H36.9622C38.76 43.5451 39.7917 45.036 39.7138 46.7415Z" fill="#EBD9EA"/>
<path d="M39.7137 46.7415C39.7137 50.0356 36.818 52.8212 33.123 52.8212H30V43.52H36.9621C38.7632 43.5459 39.7903 45.0365 39.7137 46.7415Z" fill="#F4E6F4"/>
<path d="M39.5791 48.4608C39.2842 48.3298 38.9382 48.4628 38.806 48.7574C38.7979 48.7757 37.97 50.5839 36.4484 50.5839C33.4233 50.5839 31.2742 49.4208 30.5859 48.9927V46.8408C30.5859 46.5173 30.3236 46.2549 29.9999 46.2549C29.6763 46.2549 29.414 46.5173 29.414 46.8408V48.9929C28.7255 49.4209 26.5764 50.584 23.5515 50.584C22.0299 50.584 21.202 48.7758 21.1946 48.7591C21.064 48.4632 20.7183 48.3288 20.4221 48.4593C20.1259 48.5898 19.9916 48.9357 20.1222 49.2318C20.1677 49.3348 21.2614 51.7559 23.5515 51.7559C26.8363 51.7559 29.1549 50.5353 29.9999 50.0105C30.8451 50.5353 33.1635 51.7559 36.4484 51.7559C38.7385 51.7559 39.8322 49.3349 39.8777 49.2318C40.0079 48.9364 39.8743 48.592 39.5791 48.4608Z" fill="#C2AACF"/>
<path d="M32.3422 43.2004V45.1534C32.3422 45.4798 32.2474 45.8007 32.0709 46.0765L31.6308 46.7602C31.4048 47.113 31.0155 47.3259 30.5975 47.3259H29.4022C28.9842 47.3259 28.5949 47.1131 28.3688 46.7602L27.9288 46.0765C27.7523 45.8007 27.6575 45.4799 27.6575 45.1534V43.2004C27.6575 42.521 28.2078 41.9707 28.8871 41.9707H31.1126C31.7918 41.9707 32.3422 42.521 32.3422 43.2004Z" fill="#F9F2F9"/>
<path d="M32.3423 43.2004V45.1534C32.3423 45.4798 32.2475 45.8007 32.0711 46.0765L31.631 46.7602C31.405 47.113 31.0157 47.3259 30.5977 47.3259H30V41.9707H31.1127C31.792 41.9707 32.3423 42.521 32.3423 43.2004Z" fill="white"/>
<path d="M44.3386 48.464C42.3638 45.0862 37.7198 45.3631 33.8758 46.9565C33.6794 47.0355 33.5829 47.2581 33.6608 47.4557C33.7398 47.6521 33.9625 47.7487 34.16 47.6707C36.2359 46.8456 38.1011 46.488 39.6679 46.6043C41.6076 46.6989 43.1485 47.8132 43.6431 48.79C43.8703 49.244 44.5426 48.9275 44.3386 48.464Z" fill="#F9F2F9"/>
<path d="M44.3387 48.4638C44.5415 48.926 43.8731 49.2451 43.6431 48.7897C43.1462 47.8101 41.6059 46.6989 39.6679 46.6041C39.6098 46.3452 39.5615 46.083 39.5264 45.8164C41.8447 45.8851 43.7369 47.2189 44.3387 48.4638Z" fill="white"/>
<path d="M46.1492 43.7575C43.3922 40.9812 38.9652 42.4115 35.6421 44.916C35.4717 45.0416 35.434 45.2814 35.5588 45.4531C35.6844 45.6235 35.9242 45.6612 36.096 45.5364C37.8994 44.2182 39.6157 43.4051 41.1617 43.1256C43.0633 42.7319 44.8342 43.4251 45.5573 44.247C45.891 44.6299 46.4627 44.1552 46.1492 43.7575Z" fill="#F9F2F9"/>
<path d="M46.1494 43.7573C46.4614 44.1541 45.894 44.6302 45.5574 44.2469C44.8312 43.4227 43.0619 42.7325 41.1619 43.1255C41.0408 42.8894 40.9284 42.6475 40.8276 42.3982C43.0895 41.8847 45.2552 42.7026 46.1494 43.7573Z" fill="white"/>
<path d="M15.8458 48.9751C16.034 49.0637 16.2658 48.9845 16.3571 48.7897C16.8598 47.803 18.3974 46.6999 20.3322 46.6041C21.899 46.4878 23.7642 46.8454 25.8401 47.6705C26.0376 47.7485 26.2604 47.6519 26.3394 47.4555C26.4173 47.258 26.3207 47.0353 26.1243 46.9563C23.0644 45.8027 20.5038 45.2891 17.8723 46.4482C16.2595 47.2184 15.6856 48.4133 15.6615 48.4638C15.5715 48.6559 15.6537 48.884 15.8458 48.9751Z" fill="#F9F2F9"/>
<path d="M15.6614 48.4638C15.4585 48.926 16.1269 49.2451 16.357 48.7897C16.8539 47.8101 18.3942 46.6989 20.3321 46.6041C20.3902 46.3452 20.4385 46.083 20.4737 45.8164C18.1553 45.8851 16.2631 47.2189 15.6614 48.4638Z" fill="white"/>
<path d="M13.901 44.2983C14.0611 44.4312 14.3053 44.4125 14.4424 44.2468C15.1703 43.4196 16.9467 42.7328 18.838 43.1254C20.3841 43.4048 22.1004 44.2178 23.9038 45.5362C24.0755 45.661 24.3154 45.6232 24.441 45.4528C24.5658 45.2812 24.5281 45.0413 24.3577 44.9157C21.6838 43.0332 19.333 41.895 16.4953 42.3589C14.741 42.701 13.8865 43.7144 13.8504 43.7571C13.7153 43.9206 13.7379 44.1621 13.901 44.2983Z" fill="#F9F2F9"/>
<path d="M13.8506 43.7573C13.5386 44.1541 14.106 44.6302 14.4425 44.2469C15.1687 43.4227 16.938 42.7325 18.8381 43.1255C18.9592 42.8894 19.0716 42.6475 19.1723 42.3982C16.9105 41.8847 14.7448 42.7026 13.8506 43.7573Z" fill="white"/>
</g>
<defs>
<clipPath id="clip0_1123_22906">
<rect width="60" height="60" fill="white"/>
</clipPath>
</defs>
</svg>
