<svg width="60" height="60" viewBox="0 0 60 60" fill="none" xmlns="http://www.w3.org/2000/svg">
<g clip-path="url(#clip0_1123_25152)">
<path d="M30 60C46.5685 60 60 46.5685 60 30C60 13.4315 46.5685 0 30 0C13.4315 0 0 13.4315 0 30C0 46.5685 13.4315 60 30 60Z" fill="#EA792E"/>
<path d="M33.8345 36.2435V47.5999C33.8345 48.6591 33.4049 49.6169 32.7113 50.3114C32.0176 51.0051 31.058 51.4347 29.9998 51.4347C27.8824 51.4347 26.165 49.7173 26.165 47.5999V36.2435C26.165 34.1251 27.8824 32.4087 29.9998 32.4087C32.1171 32.4087 33.8345 34.1251 33.8345 36.2435Z" fill="#DECEE5"/>
<path d="M33.8345 36.2435V47.5999C33.8345 48.6591 33.4049 49.6169 32.7112 50.3114C32.0176 51.0051 31.058 51.4347 29.9998 51.4347V32.4087C32.1171 32.4087 33.8345 34.1251 33.8345 36.2435Z" fill="#F4E6F4"/>
<path d="M32.8151 41.3359H29.9998V42.507H32.8151C33.1385 42.507 33.4007 42.2448 33.4007 41.9214C33.4005 41.5981 33.1384 41.3359 32.8151 41.3359Z" fill="#DECEE5"/>
<path d="M32.8151 43.7168H29.9998V44.8878H32.8151C33.1385 44.8878 33.4007 44.6257 33.4007 44.3023C33.4005 43.9789 33.1384 43.7168 32.8151 43.7168Z" fill="#DECEE5"/>
<path d="M32.8151 46.0977H29.9998V47.2687H32.8151C33.1385 47.2687 33.4007 47.0066 33.4007 46.6831C33.4005 46.3598 33.1384 46.0977 32.8151 46.0977Z" fill="#DECEE5"/>
<path d="M32.8151 38.9551H29.9998V40.1261H32.8151C33.1385 40.1261 33.4007 39.864 33.4007 39.5405C33.4005 39.2172 33.1384 38.9551 32.8151 38.9551Z" fill="#DECEE5"/>
<path d="M32.8151 36.5742H29.9998V37.7453H32.8151C33.1385 37.7453 33.4007 37.4831 33.4007 37.1597C33.4005 36.8364 33.1384 36.5742 32.8151 36.5742Z" fill="#DECEE5"/>
<path d="M31.8298 34.1934H29.9998V35.3644H31.8298C32.1532 35.3644 32.4153 35.1023 32.4153 34.7788C32.4152 34.4555 32.1531 34.1934 31.8298 34.1934Z" fill="#DECEE5"/>
<path d="M31.8298 48.4785H29.9998V49.6496H31.8298C32.1532 49.6496 32.4153 49.3874 32.4153 49.064C32.4152 48.7407 32.1531 48.4785 31.8298 48.4785Z" fill="#DECEE5"/>
<path d="M27.1845 42.507H29.9998V41.3359H27.1845C26.861 41.3359 26.5989 41.5981 26.5989 41.9215C26.599 42.2448 26.8611 42.507 27.1845 42.507Z" fill="#C2AACF"/>
<path d="M27.1845 40.1261H29.9998V38.9551H27.1845C26.861 38.9551 26.5989 39.2172 26.5989 39.5407C26.599 39.864 26.8611 40.1261 27.1845 40.1261Z" fill="#C2AACF"/>
<path d="M27.1845 37.7453H29.9998V36.5742H27.1845C26.861 36.5742 26.5989 36.8364 26.5989 37.1598C26.599 37.4831 26.8611 37.7453 27.1845 37.7453Z" fill="#C2AACF"/>
<path d="M27.1845 44.8878H29.9998V43.7168H27.1845C26.861 43.7168 26.5989 43.9789 26.5989 44.3024C26.599 44.6257 26.8611 44.8878 27.1845 44.8878Z" fill="#C2AACF"/>
<path d="M27.1845 47.2687H29.9998V46.0977H27.1845C26.861 46.0977 26.5989 46.3598 26.5989 46.6832C26.599 47.0066 26.8611 47.2687 27.1845 47.2687Z" fill="#C2AACF"/>
<path d="M28.1698 49.6496H29.9998V48.4785H28.1698C27.8464 48.4785 27.5842 48.7407 27.5842 49.0641C27.5843 49.3874 27.8465 49.6496 28.1698 49.6496Z" fill="#C2AACF"/>
<path d="M28.1698 35.3644H29.9998V34.1934H28.1698C27.8464 34.1934 27.5842 34.4555 27.5842 34.7789C27.5843 35.1021 27.8465 35.3644 28.1698 35.3644Z" fill="#C2AACF"/>
<path d="M32.806 25.5302V29.6024C32.806 30.3779 32.4917 31.0795 31.9842 31.5868C31.4759 32.0942 30.7743 32.4085 29.9999 32.4085C28.45 32.4085 27.1938 31.1522 27.1938 29.6024V25.5302C27.1938 23.9804 28.4501 22.7241 29.9999 22.7241C31.5497 22.7241 32.806 23.9804 32.806 25.5302Z" fill="#C2AACF"/>
<path d="M32.8061 25.5302V29.6024C32.8061 30.3779 32.4918 31.0795 31.9843 31.5868C31.476 32.0942 30.7744 32.4085 30 32.4085V22.7241C31.5498 22.7241 32.8061 23.9804 32.8061 25.5302Z" fill="#DECEE5"/>
<path d="M30 30.4627V23.9668C31.0589 23.9668 31.9174 24.8252 31.9174 25.8842V28.5454C31.9174 29.6043 31.0589 30.4627 30 30.4627Z" fill="#F4E6F4"/>
<path d="M29.9999 23.9668V30.4627C28.941 30.4627 28.0825 29.6043 28.0825 28.5453V25.8841C28.0825 24.8252 28.941 23.9668 29.9999 23.9668Z" fill="#DECEE5"/>
<path d="M33.3735 19.7436V20.3731C33.3735 21.6718 32.3212 22.724 31.0226 22.724H28.9771C27.6784 22.724 26.6262 21.6716 26.6262 20.3731V19.7436C26.6262 18.4449 27.6786 17.3916 28.9771 17.3916H31.0226C32.3213 17.3917 33.3735 18.4449 33.3735 19.7436Z" fill="#DECEE5"/>
<path d="M33.3733 19.7436V20.3731C33.3733 21.6718 32.321 22.724 31.0224 22.724H29.9998V17.3916H31.0224C32.3211 17.3917 33.3733 18.4449 33.3733 19.7436Z" fill="#F4E6F4"/>
<path d="M33.8345 19.7129V20.5366C33.8345 20.9307 33.6749 21.2863 33.4178 21.5445C33.2976 21.6647 33.1576 21.7633 33.0011 21.8332C32.8218 21.916 32.6208 21.9623 32.4099 21.9623C31.6226 21.9623 30.9851 21.3238 30.9851 20.5366V19.7129C30.9851 18.9256 31.6226 18.2881 32.4099 18.2881C32.6207 18.2881 32.8217 18.3344 33.0011 18.4171C33.4927 18.6408 33.8345 19.1365 33.8345 19.7129Z" fill="#3F5D77"/>
<path d="M33.8345 19.7127V20.5364C33.8345 20.9305 33.6749 21.2862 33.4178 21.5444C33.2975 21.6646 33.1576 21.7632 33.001 21.8331C32.5094 21.6094 32.1675 21.1129 32.1675 20.5364V19.7127C32.1675 19.1363 32.5094 18.6407 33.001 18.417C33.4926 18.6407 33.8345 19.1364 33.8345 19.7127Z" fill="#3F6C8E"/>
<path d="M26.165 20.5375V19.7138C26.165 19.3197 26.3246 18.964 26.5819 18.7059C26.7021 18.5856 26.842 18.4871 26.9986 18.4171C27.1779 18.3344 27.3789 18.2881 27.5898 18.2881C28.3771 18.2881 29.0146 18.9265 29.0146 19.7138V20.5375C29.0146 21.3248 28.3771 21.9623 27.5898 21.9623C27.379 21.9623 27.178 21.916 26.9986 21.8332C26.5069 21.6095 26.165 21.1139 26.165 20.5375Z" fill="#3F5D77"/>
<path d="M26.165 20.5374V19.7137C26.165 19.3196 26.3246 18.9639 26.5819 18.7057C26.7021 18.5855 26.842 18.487 26.9986 18.417C27.4903 18.6407 27.8321 19.1372 27.8321 19.7137V20.5374C27.8321 21.1138 27.4903 21.6094 26.9986 21.8331C26.5069 21.6094 26.165 21.1138 26.165 20.5374Z" fill="#3F6C8E"/>
<path d="M30.7043 18.3951C30.5292 18.3286 30.4411 18.1329 30.5075 17.9578L32.7052 12.1637C32.7717 11.9886 32.9674 11.9005 33.1425 11.967C33.3175 12.0334 33.4057 12.2291 33.3392 12.4042L31.1415 18.1983C31.0752 18.3734 30.8793 18.4614 30.7043 18.3951Z" fill="#DECEE5"/>
<path d="M33.1426 12.7741C33.5883 12.7741 33.9496 12.4128 33.9496 11.9671C33.9496 11.5214 33.5883 11.1602 33.1426 11.1602C32.697 11.1602 32.3357 11.5214 32.3357 11.9671C32.3357 12.4128 32.697 12.7741 33.1426 12.7741Z" fill="#F4E6F4"/>
<path d="M29.2955 18.3951C29.4706 18.3286 29.5587 18.1329 29.4923 17.9578L27.2946 12.1637C27.2281 11.9886 27.0324 11.9005 26.8573 11.967C26.6823 12.0334 26.5941 12.2291 26.6606 12.4042L28.8583 18.1983C28.9246 18.3734 29.1205 18.4614 29.2955 18.3951Z" fill="#C2AACF"/>
<path d="M26.8572 12.7741C27.3029 12.7741 27.6642 12.4128 27.6642 11.9671C27.6642 11.5214 27.3029 11.1602 26.8572 11.1602C26.4116 11.1602 26.0503 11.5214 26.0503 11.9671C26.0503 12.4128 26.4116 12.7741 26.8572 12.7741Z" fill="#DECEE5"/>
<path d="M48.5394 37.2254V39.4748C48.5394 41.2496 47.2258 42.719 45.5172 42.9594C45.3553 42.9827 45.1898 42.995 45.0205 42.995H42.3221C40.1315 42.995 38.1274 41.7599 37.1425 39.8024L32.2695 30.1227C32.1616 29.9068 32.1052 29.6688 32.1052 29.4285C32.1052 29.0017 32.2782 28.6153 32.5578 28.3369C32.8374 28.0572 33.2238 27.8843 33.6494 27.8843H38.2611C39.1907 27.8843 40.107 28.029 40.9778 28.305C42.3369 28.7354 43.5867 29.4873 44.6132 30.514L46.5707 32.4728C47.8317 33.7336 48.5394 35.4432 48.5394 37.2254Z" fill="#FBCB74"/>
<path d="M48.5393 37.2256V39.475C48.5393 41.2498 47.2258 42.7192 45.5172 42.9596C42.6337 39.4505 40.9019 34.959 40.9019 30.0639C40.9019 29.4715 40.9276 28.884 40.9779 28.3052C42.3369 28.7356 43.5867 29.4875 44.6133 30.5142L46.5708 32.4729C47.8316 33.7338 48.5393 35.4434 48.5393 37.2256Z" fill="#FBD9A3"/>
<path d="M41.8554 33.1436C40.5812 33.1436 39.5483 34.1764 39.5483 35.4506V37.4305C39.5483 38.7047 40.5812 39.7376 41.8554 39.7376C43.1296 39.7376 44.1625 38.7047 44.1625 37.4305V35.4505C44.1625 34.1764 43.1296 33.1436 41.8554 33.1436Z" fill="#3F6C8E"/>
<path d="M43.1416 39.3462C42.7744 39.5933 42.3309 39.7376 41.8552 39.7376C40.5814 39.7376 39.5479 38.7052 39.5479 37.4303V35.451C39.5479 34.4221 40.2211 33.5514 41.1507 33.2534C41.4914 35.4175 42.1739 37.4674 43.1416 39.3462Z" fill="#3F5D77"/>
<path d="M55.9672 18.7956L55.1749 26.5533C54.9602 28.6531 53.7546 30.3837 52.0914 31.3674C50.7312 32.172 49.0656 32.4762 47.3865 32.0726L40.9068 30.5161L33.8322 28.8162C32.9614 28.6064 32.3481 27.8288 32.3481 26.9335C32.3481 26.541 32.4671 26.1669 32.678 25.8542C32.8878 25.5414 33.1894 25.2899 33.5525 25.1416L42.863 21.3442L45.716 20.1802L53.5497 16.9852C54.7798 16.4836 56.1021 17.4734 55.9672 18.7956Z" fill="#FBD9A3"/>
<path d="M55.9671 18.7956L55.1748 26.5533C54.9601 28.6531 53.7545 30.3837 52.0914 31.3674C50.7312 32.172 49.0656 32.4762 47.3864 32.0726L40.9068 30.5161C40.9031 30.3653 40.9019 30.2144 40.9019 30.0635C40.9019 26.9433 41.6059 23.9862 42.8631 21.3442L45.716 20.1802L53.5498 16.9852C54.7798 16.4836 56.102 17.4734 55.9671 18.7956Z" fill="#FAEFDC"/>
<path d="M55.9673 18.7956L55.175 26.5532C54.9603 28.653 53.7547 30.3836 52.0915 31.3673V23.6803C52.0915 21.7473 50.5245 20.1802 48.5915 20.1802H45.7161L53.5498 16.9852C54.7799 16.4836 56.1022 17.4733 55.9673 18.7956Z" fill="#3F6C8E"/>
<path d="M47.5847 22.4956C46.5527 22.4956 45.7161 23.3322 45.7161 24.3643V25.879C45.7161 26.9111 46.5527 27.7477 47.5847 27.7477C48.6168 27.7477 49.4534 26.9111 49.4534 25.879V24.3644C49.4534 23.3323 48.6168 22.4956 47.5847 22.4956Z" fill="#3F6C8E"/>
<path d="M11.4604 37.2254V39.4748C11.4604 41.2496 12.774 42.719 14.4826 42.9594C14.6444 42.9827 14.81 42.995 14.9794 42.995H17.6777C19.8683 42.995 21.8724 41.7599 22.8573 39.8024L27.7303 30.1227C27.8382 29.9068 27.8946 29.6688 27.8946 29.4285C27.8946 29.0017 27.7216 28.6153 27.442 28.3369C27.1624 28.0572 26.776 27.8843 26.3504 27.8843H21.7387C20.8091 27.8843 19.8928 28.029 19.022 28.305C17.663 28.7354 16.4131 29.4873 15.3866 30.514L13.4291 32.4728C12.1681 33.7336 11.4604 35.4432 11.4604 37.2254Z" fill="#F9C744"/>
<path d="M11.4604 37.2256V39.475C11.4604 41.2498 12.774 42.7192 14.4826 42.9596C17.3661 39.4505 19.0979 34.959 19.0979 30.0639C19.0979 29.4715 19.0721 28.884 19.0219 28.3052C17.6628 28.7356 16.413 29.4875 15.3865 30.5142L13.429 32.4729C12.1681 33.7338 11.4604 35.4434 11.4604 37.2256Z" fill="#FBCB74"/>
<path d="M18.1447 33.1436C19.4189 33.1436 20.4518 34.1764 20.4518 35.4506V37.4305C20.4518 38.7047 19.4189 39.7376 18.1447 39.7376C16.8705 39.7376 15.8376 38.7047 15.8376 37.4305V35.4505C15.8378 34.1764 16.8707 33.1436 18.1447 33.1436Z" fill="#3F6C8E"/>
<path d="M16.8584 39.3462C17.2257 39.5933 17.6691 39.7376 18.1449 39.7376C19.4186 39.7376 20.4522 38.7052 20.4522 37.4303V35.451C20.4522 34.4221 19.7789 33.5514 18.8493 33.2534C18.5086 35.4175 17.8261 37.4674 16.8584 39.3462Z" fill="#3F5D77"/>
<path d="M4.03272 18.7956L4.82502 26.5533C5.03971 28.6531 6.24533 30.3837 7.90846 31.3674C9.26866 32.172 10.9342 32.4762 12.6134 32.0726L19.0931 30.5161L26.1677 28.8162C27.0385 28.6064 27.6517 27.8288 27.6517 26.9335C27.6517 26.541 27.5328 26.1669 27.3219 25.8542C27.1121 25.5414 26.8105 25.2899 26.4474 25.1416L17.1369 21.3442L14.2839 20.1802L6.45018 16.9852C5.22006 16.4836 3.89783 17.4734 4.03272 18.7956Z" fill="#FBCB74"/>
<path d="M4.03272 18.7956L4.82502 26.5533C5.03971 28.6531 6.24533 30.3837 7.90846 31.3674C9.26866 32.172 10.9342 32.4762 12.6134 32.0726L19.0931 30.5161C19.0967 30.3653 19.098 30.2144 19.098 30.0635C19.098 26.9433 18.3939 23.9862 17.1367 21.3442L14.2838 20.1802L6.45006 16.9852C5.22006 16.4836 3.89783 17.4734 4.03272 18.7956Z" fill="#FBD9A3"/>
<path d="M4.03272 18.7956L4.82502 26.5532C5.03971 28.653 6.24533 30.3836 7.90846 31.3673V23.6803C7.90846 21.7473 9.47549 20.1802 11.4085 20.1802H14.2839L6.45018 16.9852C5.22006 16.4836 3.89783 17.4733 4.03272 18.7956Z" fill="#3F5D77"/>
<path d="M12.4153 22.4956C13.4474 22.4956 14.284 23.3322 14.284 24.3643V25.879C14.284 26.9111 13.4474 27.7477 12.4153 27.7477C11.3832 27.7477 10.5466 26.9111 10.5466 25.879V24.3644C10.5466 23.3323 11.3832 22.4956 12.4153 22.4956Z" fill="#3F5D77"/>
</g>
<defs>
<clipPath id="clip0_1123_25152">
<rect width="60" height="60" fill="white"/>
</clipPath>
</defs>
</svg>
