<svg width="60" height="60" viewBox="0 0 60 60" fill="none" xmlns="http://www.w3.org/2000/svg">
<g clip-path="url(#clip0_1123_24071)">
<path d="M30 60C46.5685 60 60 46.5685 60 30C60 13.4315 46.5685 0 30 0C13.4315 0 0 13.4315 0 30C0 46.5685 13.4315 60 30 60Z" fill="#EE6781"/>
<path d="M50.4938 22.2209C49.9851 23.8695 48.9288 25.6143 47.0864 27.4161L35.5464 17.4242C37.7287 14.3611 39.3912 12.3405 40.7332 11.1044C43.5886 8.472 44.9864 9.39309 46.8454 11.379C48.8717 13.5446 51.9556 17.48 50.4938 22.2209Z" fill="#334353"/>
<path d="M50.4939 22.2209C44.8068 20.7549 40.7083 16.6216 40.7083 11.751C40.7083 11.5336 40.7166 11.319 40.7333 11.1044C43.5887 8.472 44.9865 9.39309 46.8455 11.379C48.8718 13.5446 51.9557 17.48 50.4939 22.2209Z" fill="#2E3140"/>
<path d="M40.2826 19.8218C39.9124 19.4327 39.764 18.8817 39.8928 18.3605C41.104 13.4587 43.0042 8.26675 46.9515 13.3346C50.4584 17.837 49.3326 21.7788 47.3317 24.5249C46.7507 25.3222 45.5905 25.4007 44.9105 24.686L40.2826 19.8218Z" fill="#F4829B"/>
<path d="M9.50521 22.2209C10.0139 23.8695 11.0701 25.6143 12.9126 27.4161L24.4526 17.4242C22.2703 14.3611 20.6078 12.3405 19.2658 11.1044C16.4104 8.472 15.0126 9.39309 13.1536 11.379C11.1274 13.5446 8.04341 17.48 9.50521 22.2209Z" fill="#2E3140"/>
<path d="M9.50521 22.2209C15.1923 20.7549 19.2908 16.6216 19.2908 11.751C19.2908 11.5336 19.2825 11.319 19.2658 11.1044C16.4104 8.472 15.0126 9.39309 13.1536 11.379C11.1274 13.5446 8.04341 17.48 9.50521 22.2209Z" fill="#151516"/>
<path d="M19.7164 19.8218C20.0866 19.4327 20.2351 18.8817 20.1063 18.3605C18.895 13.4587 16.9948 8.26675 13.0475 13.3346C9.54067 17.837 10.6665 21.7788 12.6673 24.5249C13.2484 25.3222 14.4085 25.4007 15.0886 24.686L19.7164 19.8218Z" fill="#9175A7"/>
<path d="M47.7541 30.3078V36.4422C47.7541 38.7751 46.5251 40.9351 44.5196 42.1265L36.4523 46.9204C35.6399 47.4026 34.7132 47.6562 33.7697 47.6562H26.2305C25.2871 47.6562 24.3604 47.4026 23.5479 46.9204L15.4806 42.1265C13.4753 40.9351 12.2461 38.7749 12.2461 36.4422V30.3078C12.2461 28.6104 12.8996 26.9772 14.0716 25.748L20.3092 19.1997C21.3892 18.0653 22.8873 17.4243 24.4536 17.4243H35.5464C37.1127 17.4243 38.6108 18.0653 39.6908 19.1997L45.9298 25.748C47.1006 26.9772 47.7541 28.6104 47.7541 30.3078Z" fill="#2E3140"/>
<path d="M47.754 30.3078V36.4422C47.754 38.7751 46.525 40.9351 44.5195 42.1265L36.4522 46.9204C35.6398 47.4026 34.713 47.6562 33.7696 47.6562H30V17.4243H35.5464C37.1127 17.4243 38.6108 18.0653 39.6908 19.1997L45.9298 25.748C47.1005 26.9772 47.754 28.6104 47.754 30.3078Z" fill="#334353"/>
<path d="M41.5502 32.782C40.1813 34.151 37.9579 34.151 36.5889 32.782C35.2183 31.4114 35.2199 29.1896 36.5889 27.8206C36.96 27.4495 37.3934 27.1784 37.856 27.0093C39.1007 26.5518 40.5508 26.8211 41.5502 27.8206C42.5481 28.8185 42.819 30.2702 42.3615 31.5148C42.1924 31.9776 41.9214 32.4109 41.5502 32.782Z" fill="#F4829B"/>
<path d="M42.3612 31.5147C43.1572 30.7187 42.794 29.0647 41.5498 27.8206C40.3057 26.5764 38.6518 26.2132 37.8557 27.0093C37.0596 27.8053 37.4229 29.4593 38.667 30.7034C39.9112 31.9475 41.5651 32.3108 42.3612 31.5147Z" fill="#F0A6B3"/>
<path d="M41.5186 30.3012C41.5186 31.3557 40.8497 32.2567 39.9137 32.6019C39.6493 32.6963 39.3662 32.7503 39.0695 32.7503C37.7155 32.7503 36.6204 31.6524 36.6204 30.3012C36.6204 28.9472 37.7155 27.8521 39.0695 27.8521C39.3662 27.8521 39.6494 27.906 39.9137 28.0004C40.8497 28.3456 41.5186 29.2439 41.5186 30.3012Z" fill="#2E3140"/>
<path d="M40.6787 30.3014C40.6787 30.9943 40.2392 31.5862 39.6242 31.8131C39.4505 31.8751 39.2644 31.9106 39.0696 31.9106C38.18 31.9106 37.4604 31.1893 37.4604 30.3015C37.4604 29.4119 38.18 28.6924 39.0696 28.6924C39.2644 28.6924 39.4505 28.7278 39.6242 28.7899C40.2392 29.0165 40.6787 29.6067 40.6787 30.3014Z" fill="#3E4E60"/>
<path d="M40.6788 29.5296C40.6788 29.89 40.4501 30.198 40.1302 30.316C40.0399 30.3482 39.9431 30.3668 39.8416 30.3668C39.3788 30.3668 39.0044 29.9915 39.0044 29.5296C39.0044 29.0667 39.3787 28.6924 39.8416 28.6924C39.943 28.6924 40.0399 28.7108 40.1302 28.7431C40.4501 28.861 40.6788 29.168 40.6788 29.5296Z" fill="white"/>
<path d="M18.4501 27.8208C17.0811 29.1898 17.0811 31.4132 18.4501 32.7822C19.8207 34.1528 22.0425 34.1511 23.4114 32.7822C23.7826 32.411 24.0536 31.9777 24.2227 31.515C24.6802 30.2704 24.4109 28.8203 23.4114 27.8208C22.4136 26.8229 20.9619 26.552 19.7172 27.0095C19.2545 27.1786 18.8212 27.4495 18.4501 27.8208Z" fill="#9175A7"/>
<path d="M24.2222 31.5147C25.0183 30.7187 24.6551 29.0647 23.4109 27.8206C22.1668 26.5764 20.5129 26.2132 19.7168 27.0093C18.9207 27.8053 19.284 29.4593 20.5281 30.7034C21.7723 31.9475 23.4262 32.3108 24.2222 31.5147Z" fill="#F4829B"/>
<path d="M23.3804 30.3012C23.3804 31.3557 22.7115 32.2567 21.7755 32.6019C21.5111 32.6963 21.228 32.7503 20.9313 32.7503C19.5773 32.7503 18.4822 31.6524 18.4822 30.3012C18.4822 28.9472 19.5773 27.8521 20.9313 27.8521C21.228 27.8521 21.5112 27.906 21.7755 28.0004C22.7115 28.3456 23.3804 29.2439 23.3804 30.3012Z" fill="#2E3140"/>
<path d="M22.5402 30.3014C22.5402 30.9943 22.1008 31.5862 21.4858 31.8131C21.3121 31.8751 21.126 31.9106 20.9311 31.9106C20.0416 31.9106 19.322 31.1893 19.322 30.3015C19.322 29.4119 20.0416 28.6924 20.9311 28.6924C21.126 28.6924 21.3121 28.7278 21.4858 28.7899C22.1008 29.0165 22.5402 29.6067 22.5402 30.3014Z" fill="#3E4E60"/>
<path d="M22.5403 29.5291C22.5403 29.8896 22.3117 30.1975 21.9918 30.3155C21.9014 30.3478 21.8046 30.3663 21.7032 30.3663C21.2404 30.3663 20.866 29.991 20.866 29.5291C20.866 29.0662 21.2403 28.6919 21.7032 28.6919C21.8045 28.6919 21.9014 28.7103 21.9918 28.7426C22.3117 28.8605 22.5403 29.1676 22.5403 29.5291Z" fill="white"/>
<path d="M38.9035 41.7712L36.0983 46.6291C34.9653 48.5913 32.8708 49.8009 30.6049 49.8009H29.3967C27.1293 49.8009 25.0348 48.5913 23.9019 46.6291L21.0966 41.7712C20.0765 40.0041 20.5365 37.7535 22.1669 36.5286L27.5782 32.465C28.2958 31.9271 29.1487 31.6567 30.0002 31.6567C30.8531 31.6567 31.7059 31.9271 32.4222 32.465L37.8335 36.5286C39.4637 37.7535 39.9236 40.0042 38.9035 41.7712Z" fill="#9175A7"/>
<path d="M38.9034 41.7712L36.0982 46.6291C34.9652 48.5913 32.8707 49.8009 30.6048 49.8009H30V31.6567C30.8529 31.6567 31.7057 31.9271 32.422 32.465L37.8333 36.5286C39.4636 37.7535 39.9236 40.0042 38.9034 41.7712Z" fill="#F4829B"/>
<path d="M35.5488 48.8355C35.0885 48.8355 34.7153 48.4623 34.7153 48.002V45.9878H36.3822V48.002C36.3823 48.4623 36.0091 48.8355 35.5488 48.8355Z" fill="white"/>
<path d="M24.4516 48.8355C23.9913 48.8355 23.6182 48.4623 23.6182 48.002V45.9878H25.285V48.002C25.285 48.4623 24.9119 48.8355 24.4516 48.8355Z" fill="#EBD9EA"/>
<path d="M36.6693 45.0685C36.4513 44.9104 36.1463 44.9591 35.9882 45.1771C35.2797 46.1543 34.2399 45.6872 32.6103 44.8014C31.6901 44.3011 30.821 43.8286 30.0001 43.8286C29.1792 43.8286 28.3102 44.3011 27.39 44.8014C25.761 45.6872 24.7205 46.1545 24.0121 45.1771C23.8541 44.9591 23.5491 44.9104 23.331 45.0685C23.1128 45.2265 23.0642 45.5316 23.2223 45.7497C23.7309 46.4512 24.3375 46.7052 24.9791 46.7052C25.9307 46.7052 26.9588 46.1462 27.8559 45.6585C28.6285 45.2385 29.4273 44.8042 30 44.8042C30.5728 44.8042 31.3717 45.2385 32.1442 45.6585C33.0413 46.1462 34.0694 46.7052 35.0209 46.7052C35.6626 46.7052 36.2694 46.4512 36.7778 45.7497C36.9362 45.5316 36.8875 45.2267 36.6693 45.0685Z" fill="#2E3140"/>
<path d="M33.3181 40.4387V42.3785C33.3181 43.2468 32.6158 43.9505 31.7475 43.9505H28.2524C27.3856 43.9505 26.6819 43.2468 26.6819 42.3785V40.4387C26.6819 38.7121 28.081 37.313 29.8076 37.313H30.1936C31.919 37.313 33.3181 38.7121 33.3181 40.4387Z" fill="#2E3140"/>
<path d="M33.318 40.4388V42.3787C33.318 43.2469 32.6157 43.9506 31.7475 43.9506H30V37.313H30.1937C31.9189 37.3131 33.318 38.7122 33.318 40.4388Z" fill="#334353"/>
<path d="M31.8473 40.7285H31.4272C31.0346 40.7285 30.7163 41.0468 30.7163 41.4394V42.3373C30.7163 42.7298 31.0346 43.0481 31.4272 43.0481H31.8473C32.2399 43.0481 32.5581 42.7298 32.5581 42.3373V41.4394C32.5581 41.0468 32.2399 40.7285 31.8473 40.7285Z" fill="#2E3140"/>
<path d="M28.5731 40.7285H28.153C27.7604 40.7285 27.4421 41.0468 27.4421 41.4394V42.3373C27.4421 42.7298 27.7604 43.0481 28.153 43.0481H28.5731C28.9657 43.0481 29.284 42.7298 29.284 42.3373V41.4394C29.284 41.0468 28.9657 40.7285 28.5731 40.7285Z" fill="#151516"/>
<path d="M30 38.4263H31.526C32.0142 38.4263 32.4101 38.8221 32.4101 39.3103C32.4101 39.7985 32.0142 40.1944 31.526 40.1944H30V38.4263Z" fill="#3F5D77"/>
<path d="M30.0002 40.1944H28.4742C27.9859 40.1944 27.5901 39.7985 27.5901 39.3103C27.5901 38.8221 27.9859 38.4263 28.4742 38.4263H30.0002V40.1944Z" fill="#334353"/>
<path d="M30.7174 36.6903H30.0002V32.5405H30.7174C31.4378 32.5405 32.0217 33.1245 32.0217 33.8448V35.3861C32.0217 36.1063 31.4378 36.6903 30.7174 36.6903Z" fill="#F0A6B3"/>
<path d="M29.2831 32.5405H30.0002V36.6903H29.2831C28.5627 36.6903 27.9788 36.1063 27.9788 35.386V33.8447C27.9788 33.1245 28.5627 32.5405 29.2831 32.5405Z" fill="#F4829B"/>
<path d="M38.2629 25.6534H30.0002V18.626H34.0713C35.4826 18.626 36.8221 19.2482 37.7324 20.3266L39.6707 22.6228C40.6818 23.8204 39.8304 25.6534 38.2629 25.6534Z" fill="#3E4E60"/>
<path d="M21.7376 25.6534H30.0003V18.626H25.9292C24.5179 18.626 23.1784 19.2482 22.2681 20.3266L20.3298 22.6228C19.3189 23.8204 20.1702 25.6534 21.7376 25.6534Z" fill="#334353"/>
<path d="M47.0514 43.9426C47.0227 43.8826 46.3403 42.4617 44.4223 41.5458C43.4985 41.1048 42.4664 40.8543 41.3288 40.7943C39.3873 40.6926 37.1392 41.1452 34.6094 42.1499C34.3758 42.2439 34.261 42.5087 34.3537 42.7436C34.4476 42.9771 34.7125 43.092 34.9473 42.9993C37.4159 42.0181 39.634 41.5928 41.4972 41.7311C42.4105 41.7989 43.239 42.0025 43.9697 42.3417C45.6216 43.109 46.2204 44.3197 46.2243 44.3302C46.3026 44.4959 46.467 44.5937 46.6378 44.5937C46.7031 44.5937 46.7697 44.5794 46.8322 44.5507C47.0604 44.4423 47.1584 44.1709 47.0514 43.9426Z" fill="#3E4E60"/>
<path d="M47.0515 43.9424C47.1585 44.1707 47.0606 44.4421 46.8322 44.5504C46.7696 44.5791 46.7031 44.5934 46.6378 44.5934C46.4668 44.5934 46.3025 44.4955 46.2242 44.3298C46.2204 44.3194 45.6214 43.1086 43.9697 42.3414C43.239 42.0022 42.4105 41.7986 41.4971 41.7307C41.428 41.4228 41.3706 41.1109 41.3289 40.7939C42.4666 40.8539 43.4987 41.1045 44.4224 41.5455C46.3404 42.4615 47.0228 43.8823 47.0515 43.9424Z" fill="#3F5D77"/>
<path d="M49.2047 38.3456C49.162 38.2946 48.1457 37.0898 46.0595 36.6829C45.0548 36.4871 43.9929 36.5028 42.8764 36.7294C40.9713 37.1167 38.9079 38.1176 36.7099 39.7233C36.5072 39.8727 36.4624 40.1579 36.6108 40.3621C36.7602 40.5647 37.0454 40.6096 37.2496 40.4611C39.3942 38.8935 41.4352 37.9266 43.2738 37.5943C44.1751 37.4314 45.0281 37.4212 45.8204 37.5667C47.6116 37.8961 48.4943 38.9186 48.5008 38.9277C48.6181 39.0686 48.8017 39.1222 48.9672 39.0794C49.0304 39.0631 49.0912 39.0325 49.1446 38.989C49.3386 38.8272 49.3654 38.5399 49.2047 38.3456Z" fill="#3E4E60"/>
<path d="M49.2048 38.3456C49.3655 38.5399 49.3386 38.8271 49.1447 38.989C49.0913 39.0325 49.0304 39.0631 48.9673 39.0794C48.8018 39.1222 48.6182 39.0686 48.5009 38.9277C48.4944 38.9186 47.6117 37.8961 45.8204 37.5667C45.0281 37.4211 44.175 37.4314 43.2738 37.5943C43.1298 37.3135 42.9962 37.0259 42.8765 36.7294C43.993 36.5028 45.055 36.4871 46.0596 36.6829C48.1458 37.0898 49.162 38.2947 49.2048 38.3456Z" fill="#3F5D77"/>
<path d="M13.1682 44.5503C13.2308 44.579 13.2974 44.5933 13.3627 44.5933C13.5336 44.5933 13.6979 44.4954 13.7762 44.3297C13.7801 44.3193 14.379 43.1085 16.0308 42.3413C16.7614 42.002 17.59 41.7985 18.5033 41.7306C20.3665 41.5923 22.5846 42.0176 25.0532 42.9988C25.288 43.0915 25.5529 42.9767 25.6468 42.7431C25.7395 42.5083 25.6247 42.2434 25.3911 42.1494C22.8612 41.1448 20.6132 40.692 18.6717 40.7938C17.5339 40.8538 16.5019 41.1044 15.5782 41.5453C13.6602 42.4613 12.9778 43.8822 12.9491 43.9422C12.8421 44.1706 12.94 44.442 13.1682 44.5503Z" fill="#334353"/>
<path d="M12.9491 43.9424C12.8421 44.1707 12.94 44.4421 13.1684 44.5504C13.2309 44.5791 13.2975 44.5934 13.3628 44.5934C13.5337 44.5934 13.698 44.4955 13.7763 44.3298C13.7802 44.3194 14.3791 43.1086 16.0309 42.3414C16.7616 42.0022 17.5901 41.7986 18.5034 41.7307C18.5726 41.4228 18.63 41.1109 18.6717 40.7939C17.5339 40.8539 16.5019 41.1045 15.5782 41.5455C13.6602 42.4615 12.9778 43.8823 12.9491 43.9424Z" fill="#3E4E60"/>
<path d="M10.8557 38.989C10.9091 39.0325 10.97 39.0631 11.0331 39.0794C11.1986 39.1222 11.3822 39.0686 11.4995 38.9277C11.506 38.9186 12.3888 37.8961 14.18 37.5667C14.9723 37.4211 15.8254 37.4314 16.7266 37.5943C18.5651 37.9266 20.6062 38.8934 22.7507 40.4611C22.955 40.6096 23.2401 40.5647 23.3895 40.3621C23.538 40.1579 23.4931 39.8727 23.2905 39.7233C21.0924 38.1176 19.0292 37.1167 17.1239 36.7294C16.0074 36.5028 14.9454 36.4871 13.9408 36.6829C11.8546 37.0898 10.8384 38.2947 10.7956 38.3456C10.6349 38.5397 10.6618 38.8271 10.8557 38.989Z" fill="#334353"/>
<path d="M10.7956 38.3456C10.6349 38.5399 10.6618 38.8271 10.8557 38.989C10.9091 39.0325 10.97 39.0631 11.0331 39.0794C11.1986 39.1222 11.3822 39.0686 11.4995 38.9277C11.506 38.9186 12.3888 37.8961 14.18 37.5667C14.9723 37.4211 15.8254 37.4314 16.7266 37.5943C16.8706 37.3135 17.0042 37.0259 17.1239 36.7294C16.0074 36.5028 14.9454 36.4871 13.9408 36.6829C11.8546 37.0898 10.8384 38.2947 10.7956 38.3456Z" fill="#3E4E60"/>
</g>
<defs>
<clipPath id="clip0_1123_24071">
<rect width="60" height="60" fill="white"/>
</clipPath>
</defs>
</svg>
