<svg width="60" height="60" viewBox="0 0 60 60" fill="none" xmlns="http://www.w3.org/2000/svg">
<g clip-path="url(#clip0_1123_24761)">
<path d="M30 60C46.5685 60 60 46.5685 60 30C60 13.4315 46.5685 0 30 0C13.4315 0 0 13.4315 0 30C0 46.5685 13.4315 60 30 60Z" fill="#EE6781"/>
<path d="M42.2589 44.435C41.6867 45.0065 40.7605 45.0071 40.1887 44.435L35.5271 39.7734L37.5973 37.7031L42.2589 42.3647C42.8381 42.9405 42.82 43.8784 42.2589 44.435Z" fill="#57409B"/>
<path d="M42.588 43.9296C42.0534 44.136 41.4443 44.0198 41.0232 43.6006L36.3616 38.939L37.5974 37.7031L42.259 42.3647C42.6827 42.7885 42.7915 43.4064 42.588 43.9296Z" fill="#6C53A2"/>
<path d="M40.2386 42.8163L37.6654 40.2431C37.1062 39.6489 37.9433 38.8094 38.5392 39.3694L41.1122 41.9425C41.6716 42.5369 40.8345 43.3764 40.2386 42.8163Z" fill="#9175A7"/>
<path d="M40.5328 46.1609L37.1507 49.5429C36.8647 49.829 36.4447 49.9006 36.0919 49.7587C35.4556 49.514 35.271 48.6353 35.7679 48.1601L39.1499 44.7781C39.3406 44.5874 39.5908 44.492 39.841 44.4928C40.6863 44.4773 41.154 45.5523 40.5328 46.1609Z" fill="#57409B"/>
<path d="M40.5328 46.1608L37.1507 49.5428C36.8647 49.8289 36.4447 49.9005 36.0919 49.7586C35.95 49.4059 36.0216 48.9859 36.3077 48.6998L39.6897 45.3178C39.9739 45.0344 40.3878 44.9603 40.7478 45.1027C40.8897 45.4555 40.8188 45.8749 40.5328 46.1608Z" fill="#6C53A2"/>
<path d="M36.8486 48.7082C36.697 48.5565 36.697 48.3107 36.8486 48.159L39.1947 45.8129C39.3463 45.6613 39.5922 45.6613 39.7438 45.8129C39.8955 45.9646 39.8955 46.2104 39.7438 46.3621L37.3977 48.7082C37.2461 48.8598 37.0002 48.8598 36.8486 48.7082Z" fill="#9175A7"/>
<path d="M36.2203 57.351C36.3774 57.351 36.5046 57.2238 36.5046 57.0667V55.4189H35.936V57.0667C35.9359 57.2238 36.0633 57.351 36.2203 57.351Z" fill="#3E4E60"/>
<path d="M35.1776 57.351C35.3346 57.351 35.4619 57.2238 35.4619 57.0667V55.4189H34.8933V57.0667C34.8933 57.2238 35.0206 57.351 35.1776 57.351Z" fill="#3E4E60"/>
<path d="M36.2262 55.7543C36.0334 55.7552 35.3877 55.755 35.1847 55.755C34.9137 55.755 34.6943 55.5356 34.6943 55.2647V54.75C34.7417 53.4231 36.6521 53.4142 36.7043 54.75V55.2647C36.7043 55.5313 36.4915 55.7485 36.2262 55.7543Z" fill="#57409B"/>
<path d="M36.214 53.7449C35.9267 53.7457 35.4752 53.7443 35.1847 53.7449C34.9137 53.7449 34.6943 53.5255 34.6943 53.2546V52.7399C34.7416 51.4133 36.6518 51.4044 36.7036 52.7406V53.2553C36.7043 53.5255 36.4851 53.7449 36.214 53.7449Z" fill="#57409B"/>
<path d="M36.214 51.735C35.9259 51.7364 35.4752 51.7351 35.1839 51.7357C34.9137 51.735 34.6943 51.5156 34.6943 51.2461L34.6936 50.7307C34.7411 49.4042 36.6517 49.3939 36.7036 50.7307V51.2454C36.7036 51.5164 36.4843 51.7357 36.214 51.735Z" fill="#57409B"/>
<path d="M35.9357 55.7556C35.666 55.7545 35.446 55.5346 35.446 55.266V54.75C35.446 54.3282 35.7056 53.9664 36.0756 53.8184C36.4486 53.9636 36.7066 54.3442 36.7042 54.75V55.265C36.7035 55.5311 36.4921 55.7481 36.2268 55.7546H36.2176L35.9357 55.7556Z" fill="#6C53A2"/>
<path d="M36.2144 53.7454H35.9357C35.666 53.7454 35.446 53.5264 35.446 53.2558V52.7408C35.446 52.319 35.7067 51.9572 36.0756 51.8081C36.4468 51.9552 36.7075 52.3345 36.7042 52.7408V53.2558C36.7043 53.5268 36.4828 53.7456 36.2144 53.7454Z" fill="#6C53A2"/>
<path d="M35.9367 51.7358C35.6669 51.734 35.4457 51.5183 35.446 51.2451V50.7301C35.446 50.3094 35.7067 49.9475 36.0756 49.7974C36.4464 49.9454 36.7071 50.3242 36.7042 50.7301V51.2451C36.7043 51.5151 36.4839 51.7351 36.2146 51.7347L35.9367 51.7358Z" fill="#6C53A2"/>
<path d="M36.3888 51.6256C36.0634 51.6256 35.7988 51.361 35.7988 51.0346C35.7866 50.5919 36.3072 50.2943 36.6818 50.5226C36.7211 50.6608 36.6986 51.0973 36.7042 51.2454C36.7 51.4341 36.6013 51.6524 36.3888 51.6256Z" fill="#9175A7"/>
<path d="M36.3888 53.6349C36.0634 53.6349 35.7988 53.3703 35.7988 53.0448C35.7866 52.601 36.3068 52.3036 36.6818 52.5319C36.7211 52.6701 36.6986 53.1073 36.7042 53.2558C36.6999 53.4461 36.6014 53.661 36.3888 53.6349Z" fill="#9175A7"/>
<path d="M36.3888 55.6442C36.0634 55.6442 35.7988 55.3806 35.7988 55.0541C35.7866 54.6114 36.3072 54.3139 36.6818 54.5421C36.7211 54.6803 36.6986 55.1168 36.7042 55.265C36.6999 55.4548 36.6013 55.6704 36.3888 55.6442Z" fill="#9175A7"/>
<path d="M17.7408 44.435C18.3131 45.0065 19.2393 45.0071 19.8111 44.435L24.4727 39.7734L22.4024 37.7031L17.7408 42.3647C17.1617 42.9405 17.1798 43.8784 17.7408 44.435Z" fill="#57409B"/>
<path d="M17.4119 43.9296C17.9465 44.136 18.5556 44.0198 18.9767 43.6006L23.6383 38.939L22.4025 37.7031L17.7409 42.3647C17.3173 42.7885 17.2083 43.4064 17.4119 43.9296Z" fill="#6C53A2"/>
<path d="M19.7613 42.8163L22.3345 40.2431C22.8937 39.6489 22.0566 38.8094 21.4607 39.3694L18.8876 41.9425C18.3283 42.5369 19.1654 43.3764 19.7613 42.8163Z" fill="#9175A7"/>
<path d="M19.4671 46.1614L22.8491 49.5434C23.1351 49.8295 23.5551 49.9011 23.9079 49.7592C24.5442 49.5145 24.7288 48.6358 24.2319 48.1606L20.8499 44.7786C20.6592 44.5879 20.409 44.4925 20.1588 44.4933C19.3135 44.4777 18.8458 45.5528 19.4671 46.1614Z" fill="#57409B"/>
<path d="M19.4671 46.1613L22.8491 49.5433C23.1352 49.8294 23.5552 49.901 23.9079 49.7591C24.0498 49.4063 23.9782 48.9863 23.6922 48.7003L20.3101 45.3183C20.0259 45.0349 19.612 44.9608 19.252 45.1032C19.1101 45.456 19.181 45.8754 19.4671 46.1613Z" fill="#6C53A2"/>
<path d="M23.1513 48.7087C23.3029 48.557 23.3029 48.3112 23.1513 48.1595L20.8052 45.8134C20.6536 45.6618 20.4077 45.6618 20.2561 45.8134C20.1044 45.9651 20.1044 46.2109 20.2561 46.3626L22.6022 48.7087C22.7538 48.8603 22.9997 48.8603 23.1513 48.7087Z" fill="#9175A7"/>
<path d="M23.7794 57.351C23.6224 57.351 23.4951 57.2238 23.4951 57.0667V55.4189H24.0637V57.0667C24.0638 57.2238 23.9364 57.351 23.7794 57.351Z" fill="#2E3140"/>
<path d="M24.8221 57.351C24.6651 57.351 24.5378 57.2238 24.5378 57.0667V55.4189H25.1064V57.0667C25.1064 57.2238 24.9792 57.351 24.8221 57.351Z" fill="#2E3140"/>
<path d="M23.7738 55.7543C23.9666 55.7552 24.6123 55.755 24.8153 55.755C25.0863 55.755 25.3057 55.5356 25.3057 55.2647V54.75C25.2583 53.4231 23.3479 53.4142 23.2957 54.75V55.2647C23.2957 55.5313 23.5085 55.7485 23.7738 55.7543Z" fill="#57409B"/>
<path d="M23.786 53.7449C24.0733 53.7457 24.5249 53.7443 24.8154 53.7449C25.0863 53.7449 25.3057 53.5255 25.3057 53.2546V52.7399C25.2585 51.4133 23.3482 51.4044 23.2964 52.7406V53.2553C23.2957 53.5255 23.5151 53.7449 23.786 53.7449Z" fill="#57409B"/>
<path d="M23.786 51.735C24.074 51.7364 24.5247 51.7351 24.8161 51.7357C25.0863 51.735 25.3057 51.5156 25.3057 51.2461L25.3064 50.7307C25.2589 49.4042 23.3483 49.3939 23.2964 50.7307V51.2454C23.2964 51.5164 23.5156 51.7357 23.786 51.735Z" fill="#57409B"/>
<path d="M24.0644 55.7556C24.3341 55.7545 24.554 55.5346 24.554 55.266V54.75C24.554 54.3282 24.2945 53.9664 23.9245 53.8184C23.5515 53.9636 23.2935 54.3442 23.2959 54.75V55.265C23.2966 55.5311 23.508 55.7481 23.7733 55.7546H23.7825L24.0644 55.7556Z" fill="#6C53A2"/>
<path d="M23.7857 53.7454H24.0644C24.3341 53.7454 24.5541 53.5264 24.5541 53.2558V52.7408C24.5541 52.319 24.2934 51.9572 23.9245 51.8081C23.5533 51.9552 23.2926 52.3345 23.2959 52.7408V53.2558C23.2958 53.5268 23.5173 53.7456 23.7857 53.7454Z" fill="#6C53A2"/>
<path d="M24.0634 51.7358C24.3331 51.734 24.5544 51.5183 24.554 51.2451V50.7301C24.554 50.3094 24.2934 49.9475 23.9245 49.7974C23.5537 49.9454 23.293 50.3242 23.2959 50.7301V51.2451C23.2958 51.5151 23.5162 51.7351 23.7855 51.7347L24.0634 51.7358Z" fill="#6C53A2"/>
<path d="M23.6112 51.6256C23.9366 51.6256 24.2012 51.361 24.2012 51.0346C24.2134 50.5919 23.6929 50.2943 23.3182 50.5226C23.279 50.6608 23.3015 51.0973 23.2959 51.2454C23.3001 51.4341 23.3987 51.6524 23.6112 51.6256Z" fill="#9175A7"/>
<path d="M23.6112 53.6349C23.9366 53.6349 24.2012 53.3703 24.2012 53.0448C24.2134 52.601 23.6934 52.3036 23.3182 52.5319C23.279 52.6701 23.3015 53.1073 23.2959 53.2558C23.3002 53.4461 23.3986 53.661 23.6112 53.6349Z" fill="#9175A7"/>
<path d="M23.6112 55.6442C23.9366 55.6442 24.2012 55.3806 24.2012 55.0541C24.2134 54.6114 23.6929 54.3139 23.3182 54.5421C23.279 54.6803 23.3015 55.1168 23.2959 55.265C23.3002 55.4548 23.3987 55.6704 23.6112 55.6442Z" fill="#9175A7"/>
<path d="M45.6538 29.2875C45.6534 30.0962 44.9987 30.7517 44.1899 30.7514H37.5974V27.8237H44.1899C45.0066 27.8213 45.6571 28.4973 45.6538 29.2875Z" fill="#57409B"/>
<path d="M45.5291 28.6976C45.2971 29.2215 44.7842 29.5699 44.1899 29.5715H37.5974V27.8237H44.1899C44.7891 27.8238 45.3031 28.1837 45.5291 28.6976Z" fill="#6C53A2"/>
<path d="M43.0805 29.5716H39.4415C38.6259 29.5468 38.6241 28.3613 39.4415 28.3359H43.0804C43.4216 28.3359 43.6982 28.6125 43.6982 28.9538C43.6982 29.295 43.4216 29.5716 43.0805 29.5716Z" fill="#9175A7"/>
<path d="M45.6538 31.7288V36.5117C45.6034 37.8117 43.7446 37.8041 43.6982 36.5117V31.7288C43.6982 31.4592 43.8077 31.2149 43.9851 31.0385C44.5718 30.4297 45.6627 30.8593 45.6538 31.7288Z" fill="#57409B"/>
<path d="M45.6537 31.7288V36.5117C45.6537 36.9163 45.4074 37.264 45.0576 37.413C44.7078 37.264 44.4614 36.9163 44.4614 36.5117V31.7288C44.462 31.3275 44.7022 30.9825 45.0576 30.8286C45.4074 30.9777 45.6537 31.3244 45.6537 31.7288Z" fill="#6C53A2"/>
<path d="M44.8499 36.1354C44.6355 36.1354 44.4617 35.9616 44.4617 35.7472V32.4293C44.4617 32.2148 44.6355 32.041 44.8499 32.041C45.0644 32.041 45.2382 32.2148 45.2382 32.4293V35.7472C45.2382 35.9615 45.0644 36.1354 44.8499 36.1354Z" fill="#9175A7"/>
<path d="M50.517 42.6903C50.6279 42.5793 50.6279 42.3992 50.517 42.2882L49.3518 41.123L48.9497 41.5251L50.1149 42.6903C50.226 42.8014 50.406 42.8014 50.517 42.6903Z" fill="#3E4E60"/>
<path d="M49.7797 43.4276C49.8908 43.3165 49.8908 43.1365 49.7797 43.0255L48.6145 41.8604L48.2124 42.2624L49.3776 43.4276C49.4886 43.5387 49.6686 43.5387 49.7797 43.4276Z" fill="#3E4E60"/>
<path d="M49.3917 41.5569C49.2561 41.6939 48.7993 42.1504 48.6558 42.2939C48.4642 42.4855 48.154 42.4855 47.9624 42.2939L47.5984 41.9301C46.6923 40.9615 48.0411 39.5997 49.0196 40.5088L49.3835 40.8727C49.5722 41.0612 49.5752 41.3653 49.3917 41.5569Z" fill="#57409B"/>
<path d="M47.9624 40.145C47.7598 40.3487 47.4395 40.6671 47.2345 40.8729C47.0429 41.0645 46.7327 41.0645 46.5411 40.8729L46.1771 40.509C45.2713 39.5408 46.62 38.1791 47.5984 39.0887L47.9624 39.4527C48.154 39.6432 48.154 39.9534 47.9624 40.145Z" fill="#57409B"/>
<path d="M46.5411 38.7236C46.3384 38.9284 46.0188 39.2462 45.8133 39.4526C45.6217 39.6431 45.3115 39.6431 45.1209 39.4526L44.756 39.0886C43.8503 38.1202 45.1983 36.7574 46.1773 37.6673L46.5411 38.0312C46.7327 38.2228 46.7327 38.533 46.5411 38.7236Z" fill="#57409B"/>
<path d="M49.187 41.7634C48.9957 41.9533 48.6845 41.9533 48.4946 41.7634L48.1298 41.3984C47.8315 41.1002 47.7592 40.6608 47.9161 40.2945C48.2826 40.1335 48.7341 40.2201 49.0193 40.5089L49.3834 40.873C49.5709 41.0615 49.575 41.3646 49.392 41.5569L49.3856 41.5633L49.187 41.7634Z" fill="#6C53A2"/>
<path d="M47.9627 40.1451L47.7656 40.3422C47.5749 40.5329 47.2645 40.5336 47.0731 40.3422L46.709 39.9781C46.4108 39.6799 46.3392 39.2397 46.4947 38.8735C46.8611 38.7149 47.3137 38.799 47.5986 39.0885L47.9627 39.4526C48.1544 39.644 48.1526 39.9554 47.9627 40.1451Z" fill="#6C53A2"/>
<path d="M46.3456 38.9203C46.1535 39.1098 45.8446 39.1136 45.6517 38.9203L45.2876 38.5562C44.9901 38.2586 44.9185 37.8185 45.0733 37.4516C45.4401 37.294 45.8924 37.3776 46.1772 37.6666L46.5413 38.0307C46.7323 38.2216 46.732 38.533 46.5413 38.7232L46.3456 38.9203Z" fill="#6C53A2"/>
<path d="M46.5873 38.5227C46.3571 38.7529 45.9829 38.7529 45.7522 38.522C45.4305 38.2176 45.5882 37.6391 46.0146 37.5356C46.14 37.6055 46.4328 37.9301 46.5414 38.031C46.6719 38.1673 46.7564 38.3915 46.5873 38.5227Z" fill="#9175A7"/>
<path d="M48.0078 39.9436C47.7777 40.1738 47.4035 40.1738 47.1734 39.9436C46.8511 39.6385 47.0084 39.0603 47.4351 38.9565C47.5605 39.0265 47.8538 39.3516 47.9627 39.4526C48.0944 39.5902 48.1767 39.8118 48.0078 39.9436Z" fill="#9175A7"/>
<path d="M49.4286 41.3643C49.1984 41.5945 48.825 41.5952 48.5942 41.3643C48.2725 41.0598 48.4303 40.4814 48.8566 40.3779C48.982 40.4479 49.2747 40.7724 49.3835 40.8733C49.5146 41.0105 49.5975 41.2326 49.4286 41.3643Z" fill="#9175A7"/>
<path d="M14.3462 29.2875C14.3467 30.0962 15.0013 30.7517 15.8101 30.7514H22.4026V27.8237H15.8101C14.9934 27.8213 14.3429 28.4973 14.3462 29.2875Z" fill="#57409B"/>
<path d="M14.4709 28.6976C14.703 29.2215 15.2159 29.5699 15.8102 29.5715H22.4027V27.8237H15.8102C15.211 27.8238 14.697 28.1837 14.4709 28.6976Z" fill="#6C53A2"/>
<path d="M16.9196 29.5716H20.5586C21.3742 29.5468 21.376 28.3613 20.5586 28.3359H16.9196C16.5783 28.3359 16.3018 28.6125 16.3018 28.9538C16.3018 29.295 16.5784 29.5716 16.9196 29.5716Z" fill="#9175A7"/>
<path d="M14.3462 31.7288V36.5117C14.3966 37.8117 16.2553 37.8041 16.3018 36.5117V31.7288C16.3018 31.4592 16.1923 31.2149 16.0149 31.0385C15.4282 30.4297 14.3373 30.8593 14.3462 31.7288Z" fill="#57409B"/>
<path d="M14.3462 31.7288V36.5117C14.3462 36.9163 14.5925 37.264 14.9423 37.413C15.2921 37.264 15.5385 36.9163 15.5385 36.5117V31.7288C15.5379 31.3275 15.2976 30.9825 14.9423 30.8286C14.5925 30.9777 14.3462 31.3244 14.3462 31.7288Z" fill="#6C53A2"/>
<path d="M15.1502 36.1354C15.3647 36.1354 15.5384 35.9616 15.5384 35.7472V32.4293C15.5384 32.2148 15.3647 32.041 15.1502 32.041C14.9358 32.041 14.762 32.2148 14.762 32.4293V35.7472C14.762 35.9615 14.9358 36.1354 15.1502 36.1354Z" fill="#9175A7"/>
<path d="M9.48313 42.6903C9.37216 42.5793 9.37216 42.3992 9.48313 42.2882L10.6483 41.123L11.0504 41.5251L9.88521 42.6903C9.77411 42.8014 9.59411 42.8014 9.48313 42.6903Z" fill="#2E3140"/>
<path d="M10.2204 43.4276C10.1095 43.3165 10.1095 43.1365 10.2204 43.0255L11.3856 41.8604L11.7877 42.2624L10.6225 43.4276C10.5115 43.5387 10.3315 43.5387 10.2204 43.4276Z" fill="#2E3140"/>
<path d="M10.6082 41.5569C10.7437 41.6939 11.2005 42.1504 11.3441 42.2939C11.5357 42.4855 11.8459 42.4855 12.0375 42.2939L12.4015 41.9301C13.3076 40.9615 11.9587 39.5997 10.9802 40.5088L10.6164 40.8727C10.4277 41.0612 10.4246 41.3653 10.6082 41.5569Z" fill="#57409B"/>
<path d="M12.0375 40.145C12.2401 40.3487 12.5604 40.6671 12.7654 40.8729C12.957 41.0645 13.2671 41.0645 13.4587 40.8729L13.8227 40.509C14.7286 39.5408 13.3799 38.1791 12.4015 39.0887L12.0375 39.4527C11.8459 39.6432 11.8459 39.9534 12.0375 40.145Z" fill="#57409B"/>
<path d="M13.4589 38.7236C13.6616 38.9284 13.9812 39.2462 14.1867 39.4526C14.3783 39.6431 14.6885 39.6431 14.8791 39.4526L15.244 39.0886C16.1497 38.1202 14.8017 36.7574 13.8228 37.6673L13.4589 38.0312C13.2673 38.2228 13.2673 38.533 13.4589 38.7236Z" fill="#57409B"/>
<path d="M10.813 41.7634C11.0043 41.9533 11.3155 41.9533 11.5054 41.7634L11.8703 41.3984C12.1686 41.1002 12.2409 40.6608 12.084 40.2945C11.7175 40.1335 11.266 40.2201 10.9808 40.5089L10.6167 40.873C10.4292 41.0615 10.4251 41.3646 10.6081 41.5569L10.6146 41.5633L10.813 41.7634Z" fill="#6C53A2"/>
<path d="M12.0372 40.1451L12.2343 40.3422C12.4249 40.5329 12.7354 40.5336 12.9267 40.3422L13.2908 39.9781C13.5891 39.6799 13.6607 39.2397 13.5052 38.8735C13.1387 38.7149 12.6862 38.799 12.4013 39.0885L12.0372 39.4526C11.8455 39.644 11.8472 39.9554 12.0372 40.1451Z" fill="#6C53A2"/>
<path d="M13.6545 38.9203C13.8466 39.1098 14.1555 39.1136 14.3484 38.9203L14.7125 38.5562C15.01 38.2586 15.0816 37.8185 14.9268 37.4516C14.56 37.294 14.1077 37.3776 13.8229 37.6666L13.4588 38.0307C13.2678 38.2216 13.2681 38.533 13.4588 38.7232L13.6545 38.9203Z" fill="#6C53A2"/>
<path d="M13.4128 38.5227C13.643 38.7529 14.0172 38.7529 14.2479 38.522C14.5696 38.2176 14.4119 37.6391 13.9855 37.5356C13.8602 37.6055 13.5673 37.9301 13.4587 38.031C13.3282 38.1673 13.2437 38.3915 13.4128 38.5227Z" fill="#9175A7"/>
<path d="M11.9922 39.9436C12.2224 40.1738 12.5966 40.1738 12.8266 39.9436C13.149 39.6385 12.9916 39.0603 12.5649 38.9565C12.4394 39.0265 12.1462 39.3516 12.0373 39.4526C11.9056 39.5902 11.8234 39.8118 11.9922 39.9436Z" fill="#9175A7"/>
<path d="M10.5714 41.3643C10.8016 41.5945 11.175 41.5952 11.4058 41.3643C11.7275 41.0598 11.5697 40.4814 11.1434 40.3779C11.0179 40.4479 10.7253 40.7724 10.6165 40.8733C10.4854 41.0105 10.4025 41.2326 10.5714 41.3643Z" fill="#9175A7"/>
<path d="M41.9834 22.0868C41.9829 22.8956 41.3283 23.551 40.5195 23.5507H33.927V20.6231H40.5195C41.3363 20.6206 41.9868 21.2965 41.9834 22.0868Z" fill="#57409B"/>
<path d="M41.8587 21.4969C41.6267 22.0209 41.1138 22.3693 40.5195 22.3708H33.927V20.623H40.5195C41.1187 20.6232 41.6327 20.9829 41.8587 21.4969Z" fill="#6C53A2"/>
<path d="M39.4101 22.3709H35.7711C34.9554 22.3462 34.9537 21.1606 35.7711 21.1353H39.41C39.7512 21.1353 40.0278 21.4118 40.0278 21.7531C40.0278 22.0943 39.7513 22.3709 39.4101 22.3709Z" fill="#9175A7"/>
<path d="M41.9833 14.8436V19.6265C41.933 20.9265 40.0742 20.9189 40.0278 19.6265V14.8436C40.0278 14.574 40.1373 14.3296 40.3147 14.1533C40.9013 13.5445 41.9922 13.974 41.9833 14.8436Z" fill="#57409B"/>
<path d="M41.9833 14.8436V19.6265C41.9833 20.031 41.737 20.3787 41.3871 20.5278C41.0373 20.3787 40.791 20.031 40.791 19.6265V14.8436C40.7916 14.4422 41.0318 14.0972 41.3871 13.9434C41.737 14.0924 41.9833 14.4391 41.9833 14.8436Z" fill="#6C53A2"/>
<path d="M41.1795 19.2502C40.965 19.2502 40.7913 19.0764 40.7913 18.8619V15.544C40.7913 15.3296 40.965 15.1558 41.1795 15.1558C41.394 15.1558 41.5677 15.3296 41.5677 15.544V18.8619C41.5679 19.0764 41.394 19.2502 41.1795 19.2502Z" fill="#9175A7"/>
<path d="M45.3453 7.71946C45.2344 7.60849 45.0542 7.60849 44.9433 7.71946L43.7781 8.88466L44.1801 9.28673L45.3453 8.12153C45.4564 8.01044 45.4564 7.83044 45.3453 7.71946Z" fill="#3E4E60"/>
<path d="M46.0826 8.45677C45.9716 8.34579 45.7916 8.34579 45.6806 8.45677L44.5154 9.62196L44.9175 10.024L46.0826 8.85884C46.1937 8.74786 46.1937 8.56786 46.0826 8.45677Z" fill="#3E4E60"/>
<path d="M44.212 8.84449C44.349 8.98007 44.8054 9.43687 44.949 9.58042C45.1406 9.77202 45.1406 10.0822 44.949 10.2738L44.5851 10.6378C43.6165 11.5439 42.2547 10.1951 43.1638 9.21656L43.5277 8.85269C43.7163 8.66402 44.0204 8.66097 44.212 8.84449Z" fill="#57409B"/>
<path d="M42.8 10.2741C43.0037 10.4767 43.3221 10.797 43.5279 11.0019C43.7195 11.1935 43.7195 11.5037 43.5279 11.6953L43.164 12.0593C42.1958 12.9652 40.8341 11.6165 41.7437 10.6381L42.1077 10.2741C42.2982 10.0825 42.6084 10.0825 42.8 10.2741Z" fill="#57409B"/>
<path d="M41.3787 11.6955C41.5834 11.8982 41.9012 12.2178 42.1076 12.4233C42.2981 12.6149 42.2981 12.9251 42.1076 13.1157L41.7436 13.4806C40.7753 14.3863 39.4124 13.0383 40.3223 12.0593L40.6862 11.6955C40.8778 11.5039 41.188 11.5039 41.3787 11.6955Z" fill="#57409B"/>
<path d="M44.4186 9.04903C44.6086 9.2404 44.6086 9.55153 44.4186 9.7415L44.0537 10.1064C43.7555 10.4047 43.3161 10.477 42.9498 10.3201C42.7888 9.95361 42.8754 9.50208 43.1641 9.21685L43.5282 8.85275C43.7168 8.66525 44.0198 8.66114 44.2121 8.84419L44.2186 8.85064L44.4186 9.04903Z" fill="#6C53A2"/>
<path d="M42.7999 10.2735L42.997 10.4706C43.1877 10.6613 43.1884 10.9717 42.997 11.1631L42.6329 11.5272C42.3347 11.8254 41.8945 11.897 41.5283 11.7415C41.3697 11.3751 41.4538 10.9225 41.7433 10.6376L42.1074 10.2735C42.2989 10.0818 42.6103 10.0835 42.7999 10.2735Z" fill="#6C53A2"/>
<path d="M41.5753 11.8906C41.7648 12.0827 41.7687 12.3916 41.5753 12.5845L41.2112 12.9486C40.9137 13.2461 40.4735 13.3177 40.1066 13.1629C39.949 12.7961 40.0327 12.3438 40.3216 12.059L40.6857 11.6949C40.8766 11.5039 41.188 11.5042 41.3782 11.6949L41.5753 11.8906Z" fill="#6C53A2"/>
<path d="M41.1777 11.6492C41.4079 11.8794 41.4079 12.2536 41.177 12.4843C40.8726 12.806 40.2942 12.6482 40.1907 12.2219C40.2605 12.0965 40.5851 11.8037 40.686 11.695C40.8222 11.5646 41.0464 11.48 41.1777 11.6492Z" fill="#9175A7"/>
<path d="M42.5984 10.2283C42.8286 10.4584 42.8286 10.8326 42.5984 11.0626C42.2932 11.385 41.715 11.2276 41.6113 10.801C41.6813 10.6755 42.0064 10.3823 42.1074 10.2734C42.2451 10.1418 42.4667 10.0594 42.5984 10.2283Z" fill="#9175A7"/>
<path d="M44.0191 8.80773C44.2492 9.03788 44.2499 9.41136 44.0191 9.6421C43.7146 9.96378 43.1362 9.80605 43.0327 9.37972C43.1027 9.25421 43.4272 8.96159 43.5281 8.85284C43.6653 8.72171 43.8874 8.63886 44.0191 8.80773Z" fill="#9175A7"/>
<path d="M18.0166 22.0868C18.0171 22.8956 18.6717 23.551 19.4805 23.5507H26.073V20.6231H19.4805C18.6637 20.6206 18.0132 21.2965 18.0166 22.0868Z" fill="#57409B"/>
<path d="M18.1414 21.4969C18.3734 22.0209 18.8863 22.3693 19.4806 22.3708H26.0731V20.623H19.4806C18.8814 20.6232 18.3674 20.9829 18.1414 21.4969Z" fill="#6C53A2"/>
<path d="M20.59 22.3709H24.229C25.0446 22.3462 25.0464 21.1606 24.229 21.1353H20.59C20.2487 21.1353 19.9722 21.4118 19.9722 21.7531C19.9722 22.0943 20.2487 22.3709 20.59 22.3709Z" fill="#9175A7"/>
<path d="M18.0167 14.8436V19.6265C18.067 20.9265 19.9258 20.9189 19.9722 19.6265V14.8436C19.9722 14.574 19.8627 14.3296 19.6853 14.1533C19.0985 13.5445 18.0077 13.974 18.0167 14.8436Z" fill="#57409B"/>
<path d="M18.0166 14.8436V19.6265C18.0166 20.031 18.2629 20.3787 18.6127 20.5278C18.9625 20.3787 19.2089 20.031 19.2089 19.6265V14.8436C19.2083 14.4422 18.968 14.0972 18.6127 13.9434C18.2629 14.0924 18.0166 14.4391 18.0166 14.8436Z" fill="#6C53A2"/>
<path d="M18.8204 19.2502C19.0348 19.2502 19.2086 19.0764 19.2086 18.8619V15.544C19.2086 15.3296 19.0348 15.1558 18.8204 15.1558C18.6059 15.1558 18.4321 15.3296 18.4321 15.544V18.8619C18.4321 19.0764 18.606 19.2502 18.8204 19.2502Z" fill="#9175A7"/>
<path d="M14.6545 7.71946C14.7655 7.60849 14.9456 7.60849 15.0566 7.71946L16.2218 8.88466L15.8197 9.28673L14.6545 8.12153C14.5435 8.01044 14.5435 7.83044 14.6545 7.71946Z" fill="#2E3140"/>
<path d="M13.9173 8.45677C14.0283 8.34579 14.2084 8.34579 14.3194 8.45677L15.4846 9.62196L15.0825 10.024L13.9173 8.85884C13.8062 8.74786 13.8062 8.56786 13.9173 8.45677Z" fill="#2E3140"/>
<path d="M15.7879 8.84449C15.6509 8.98007 15.1945 9.43687 15.0509 9.58042C14.8593 9.77202 14.8593 10.0822 15.0509 10.2738L15.4148 10.6378C16.3833 11.5439 17.7452 10.1951 16.836 9.21656L16.4722 8.85269C16.2836 8.66402 15.9795 8.66097 15.7879 8.84449Z" fill="#57409B"/>
<path d="M17.2002 10.2741C16.9965 10.4767 16.6781 10.797 16.4723 11.0019C16.2807 11.1935 16.2807 11.5037 16.4723 11.6953L16.8362 12.0593C17.8044 12.9652 19.1661 11.6165 18.2565 10.6381L17.8925 10.2741C17.702 10.0825 17.3918 10.0825 17.2002 10.2741Z" fill="#57409B"/>
<path d="M18.6213 11.6955C18.4166 11.8982 18.0989 12.2178 17.8924 12.4233C17.7019 12.6149 17.7019 12.9251 17.8924 13.1157L18.2564 13.4806C19.2247 14.3863 20.5876 13.0383 19.6777 12.0593L19.3138 11.6955C19.1222 11.5039 18.812 11.5039 18.6213 11.6955Z" fill="#57409B"/>
<path d="M15.5814 9.04903C15.3915 9.2404 15.3915 9.55153 15.5814 9.7415L15.9464 10.1064C16.2446 10.4047 16.6839 10.477 17.0503 10.3201C17.2113 9.95361 17.1247 9.50208 16.8359 9.21685L16.4718 8.85275C16.2833 8.66525 15.9802 8.66114 15.7879 8.84419L15.7815 8.85064L15.5814 9.04903Z" fill="#6C53A2"/>
<path d="M17.2 10.2735L17.0029 10.4706C16.8122 10.6613 16.8115 10.9717 17.0029 11.1631L17.367 11.5272C17.6652 11.8254 18.1054 11.897 18.4716 11.7415C18.6301 11.3751 18.5461 10.9225 18.2566 10.6376L17.8925 10.2735C17.7011 10.0818 17.3897 10.0835 17.2 10.2735Z" fill="#6C53A2"/>
<path d="M18.4243 11.8906C18.2348 12.0827 18.231 12.3916 18.4243 12.5845L18.7884 12.9486C19.086 13.2461 19.5261 13.3177 19.893 13.1629C20.0507 12.7961 19.967 12.3438 19.678 12.059L19.3139 11.6949C19.123 11.5039 18.8116 11.5042 18.6214 11.6949L18.4243 11.8906Z" fill="#6C53A2"/>
<path d="M18.8222 11.6492C18.592 11.8794 18.592 12.2536 18.8229 12.4843C19.1273 12.806 19.7058 12.6482 19.8093 12.2219C19.7394 12.0965 19.4148 11.8037 19.3139 11.695C19.1776 11.5646 18.9534 11.48 18.8222 11.6492Z" fill="#9175A7"/>
<path d="M17.4014 10.2283C17.1712 10.4584 17.1712 10.8326 17.4014 11.0626C17.7065 11.385 18.2847 11.2276 18.3884 10.801C18.3185 10.6755 17.9934 10.3823 17.8924 10.2734C17.7548 10.1418 17.5332 10.0594 17.4014 10.2283Z" fill="#9175A7"/>
<path d="M15.9807 8.80773C15.7506 9.03788 15.7499 9.41136 15.9807 9.6421C16.2852 9.96378 16.8636 9.80605 16.9671 9.37972C16.8971 9.25421 16.5727 8.96159 16.4718 8.85284C16.3345 8.72171 16.1125 8.63886 15.9807 8.80773Z" fill="#9175A7"/>
<path d="M37.5973 27.6734V40.2553C37.5975 44.4509 34.1954 47.8528 29.9998 47.8528C25.8038 47.8528 22.4023 44.4514 22.4023 40.2553V27.6734C22.4023 26.5436 22.959 25.5441 23.8135 24.9345C24.3602 24.5398 25.0613 24.3064 25.7656 24.3101H34.2341C36.0915 24.3101 37.5973 25.816 37.5973 27.6734Z" fill="#F9C744"/>
<path d="M37.5973 27.6733V40.2553C37.5974 44.4508 34.1953 47.8528 29.9998 47.8528V24.3101H34.234C34.3321 24.3101 34.4293 24.3144 34.5258 24.3222C36.2405 24.4692 37.5977 25.9098 37.5973 27.6733Z" fill="#FAD98F"/>
<path d="M33.2233 24.3101V44.2507C33.2233 44.7091 32.8516 45.0808 32.3931 45.0808C31.9346 45.0808 31.563 44.7091 31.563 44.2507V24.3101H33.2233Z" fill="#FAEFDC"/>
<path d="M36.1862 24.9345V40.7771C36.1862 41.2356 35.8145 41.6073 35.356 41.6073C34.8975 41.6073 34.5259 41.2356 34.5259 40.7771V24.3223C35.1424 24.3752 35.7103 24.595 36.1862 24.9345Z" fill="#FAEFDC"/>
<path d="M28.4367 24.3101V44.2507C28.4367 44.7091 28.065 45.0808 27.6065 45.0808C27.148 45.0808 26.7764 44.7091 26.7764 44.2507V24.3101H28.4367Z" fill="#FAD98F"/>
<path d="M25.4738 24.3223V40.7773C25.4738 41.2357 25.1021 41.6074 24.6436 41.6074C24.1851 41.6074 23.8135 41.2357 23.8135 40.7773V24.9345C24.2894 24.595 24.8573 24.3752 25.4738 24.3223Z" fill="#FAD98F"/>
<path d="M31.5629 24.3101V27.1514C31.5629 28.0146 30.8629 28.7144 29.9998 28.7144C29.1367 28.7144 28.4368 28.0145 28.4368 27.1514V24.3101H31.5629Z" fill="#57409B"/>
<path d="M31.5628 24.3102V27.1515C31.5628 28.0147 30.8628 28.7146 29.9998 28.7146V24.3101H31.5628V24.3102Z" fill="#6C53A2"/>
<path d="M36.289 19.8386V21.0164C36.289 22.8359 34.8139 24.31 32.9954 24.31H27.0046C25.1861 24.31 23.7109 22.8358 23.7109 21.0164V19.8386C23.7109 18.0201 25.1861 16.5449 27.0046 16.5449H32.9954C34.814 16.5449 36.289 18.0201 36.289 19.8386Z" fill="#57409B"/>
<path d="M36.2893 19.8382V21.0162C36.3233 23.7904 32.8712 25.4201 30.8779 23.4319C30.3355 22.8906 30 22.1414 30 21.3142V19.5401C30 18.9389 30.1774 18.3793 30.4835 17.91C32.2403 15.2816 36.2948 16.7372 36.2893 19.8382Z" fill="#6C53A2"/>
<path d="M33.2534 17.9106H26.7464C24.9486 17.9826 24.9458 20.5498 26.7464 20.6231H33.2534C34.0024 20.6231 34.6096 20.0159 34.6096 19.2669C34.6096 18.5178 34.0025 17.9106 33.2534 17.9106Z" fill="#6C53A2"/>
<path d="M34.6096 19.2665C34.6096 20.0157 34.0023 20.6229 33.2531 20.6229H30V19.5402C30 18.9391 30.1774 18.3795 30.4835 17.9102H33.2531C34.0018 17.91 34.6096 18.5178 34.6096 19.2665Z" fill="#9175A7"/>
<path d="M33.0036 12.5919V14.4907C33.0036 15.6251 32.0841 16.5446 30.9487 16.5446H29.051C27.9155 16.5446 26.9961 15.6252 26.9961 14.4907V12.5919C26.9961 11.4575 27.9155 10.5381 29.051 10.5381H30.9487C32.0841 10.5381 33.0036 11.4575 33.0036 12.5919Z" fill="#57409B"/>
<path d="M33.0035 12.5919V14.4907C33.0035 15.6251 32.0841 16.5446 30.9486 16.5446C30.4246 16.5446 29.9998 16.1198 29.9998 15.5958V10.5381H30.9486C32.0841 10.5381 33.0035 11.4575 33.0035 12.5919Z" fill="#6C53A2"/>
<path d="M33.4642 12.177C33.9894 12.4802 34.1721 13.1479 33.8764 13.6754C33.8745 13.6802 33.8721 13.6846 33.8695 13.6891L33.4844 14.356C32.6995 15.6025 30.8805 14.5424 31.5664 13.2486L31.9515 12.5816C32.2577 12.0523 32.9346 11.8711 33.4642 12.177Z" fill="#2E3140"/>
<path d="M33.4643 12.177C33.9894 12.4802 34.1721 13.1479 33.8765 13.6754C33.1839 14.0629 32.1592 13.9404 31.5095 13.3625C31.5304 13.2975 31.9104 12.6575 31.9514 12.5816C32.2578 12.0523 32.9346 11.8711 33.4643 12.177Z" fill="#3E4E60"/>
<path d="M32.5025 12.6265L32.2709 13.0278C32.1711 13.2005 32.2303 13.4215 32.403 13.5212C32.5758 13.621 32.7968 13.5618 32.8965 13.389L33.1282 12.9878C33.356 12.5692 32.7512 12.2199 32.5025 12.6265Z" fill="white"/>
<path d="M26.5354 12.177C26.0103 12.4802 25.8276 13.1479 26.1233 13.6754C26.1252 13.6802 26.1276 13.6846 26.1302 13.6891L26.5153 14.356C27.3002 15.6025 29.1192 14.5424 28.4333 13.2486L28.0482 12.5816C27.742 12.0523 27.0651 11.8711 26.5354 12.177Z" fill="#2E3140"/>
<path d="M26.5354 12.177C26.0103 12.4802 25.8276 13.1479 26.1233 13.6754C26.8159 14.0629 27.8406 13.9404 28.4902 13.3625C28.4694 13.2975 28.0893 12.6575 28.0483 12.5816C27.742 12.0523 27.0651 11.8711 26.5354 12.177Z" fill="#3E4E60"/>
<path d="M27.4971 12.6265L27.7287 13.0278C27.8285 13.2005 27.7693 13.4215 27.5966 13.5212C27.4238 13.621 27.2028 13.5618 27.1031 13.389L26.8714 12.9878C26.6436 12.5692 27.2484 12.2199 27.4971 12.6265Z" fill="white"/>
<path d="M37.8438 6.76898C37.8438 7.15687 37.6704 7.54242 37.3317 7.79671L32.0594 11.7647C31.9188 11.8702 31.7219 11.8573 31.5977 11.7319C31.4723 11.6077 31.4594 11.4108 31.5649 11.2702C31.8636 10.8748 35.1387 6.51984 35.5329 5.99789C36.2836 5.00789 37.8485 5.56347 37.8438 6.76898Z" fill="#6C53A2"/>
<path d="M37.1548 6.0821C37.1548 6.46882 36.9813 6.85436 36.6426 7.10866L33.9339 9.14702C33.6429 9.36593 33.2747 8.99772 33.4937 8.70675L35.5329 5.99772C35.9146 5.42807 37.0932 5.18995 37.1548 6.0821Z" fill="#9175A7"/>
<path d="M22.156 6.76898C22.156 7.15687 22.3295 7.54242 22.6681 7.79671L27.9404 11.7647C28.081 11.8702 28.2779 11.8573 28.4021 11.7319C28.5275 11.6077 28.5404 11.4108 28.4349 11.2702C28.1362 10.8748 24.8612 6.51984 24.467 5.99789C23.7163 5.00789 22.1513 5.56347 22.156 6.76898Z" fill="#57409B"/>
<path d="M22.845 6.0821C22.845 6.46882 23.0184 6.85436 23.3571 7.10866L26.0659 9.14702C26.3568 9.36593 26.725 8.99772 26.506 8.70675L24.467 5.99772C24.0852 5.42807 22.9065 5.18995 22.845 6.0821Z" fill="#6C53A2"/>
<path d="M30.9058 10.8727L31.8943 9.88421C32.0205 9.758 32.0205 9.55339 31.8943 9.42706L31.575 9.10784C31.4488 8.98163 31.2442 8.98163 31.1179 9.10784L30.7743 9.45144C30.6481 9.57765 30.6481 9.78226 30.7743 9.90858C30.9005 10.0348 30.9005 10.2394 30.7743 10.3657L30.5864 10.5536C30.3805 10.7663 30.6924 11.0792 30.9058 10.8727Z" fill="#3E4E60"/>
<path d="M29.4128 10.8729C29.3259 10.9608 29.1811 10.9607 29.0941 10.8729L28.1062 9.88389C27.996 9.77373 27.982 9.60498 28.064 9.47959C28.0763 9.4476 28.3953 9.1408 28.4249 9.10811C28.5515 8.98154 28.7554 8.98154 28.882 9.10811L29.2253 9.45146C29.3519 9.57803 29.3519 9.78193 29.2253 9.9085C29.162 9.97178 29.1304 10.055 29.1304 10.137C29.1145 10.3007 29.3127 10.4469 29.4128 10.553C29.5019 10.6421 29.5019 10.7839 29.4128 10.8729Z" fill="#2E3140"/>
</g>
<defs>
<clipPath id="clip0_1123_24761">
<rect width="60" height="60" fill="white"/>
</clipPath>
</defs>
</svg>
