<svg width="60" height="60" viewBox="0 0 60 60" fill="none" xmlns="http://www.w3.org/2000/svg">
<g clip-path="url(#clip0_1123_26393)">
<path d="M30 60C46.5685 60 60 46.5685 60 30C60 13.4315 46.5685 0 30 0C13.4315 0 0 13.4315 0 30C0 46.5685 13.4315 60 30 60Z" fill="#EE6781"/>
<path d="M52.1179 18.8283L47.1128 25.9779C46.016 27.5447 44.4363 28.7084 42.6152 29.292L39.7898 30.1967C39.8753 30.9256 39.8554 31.7013 39.7113 32.4888L39.6234 32.9681L38.9941 36.4053L38.1457 41.0377L37.8035 42.9033L36.7804 48.4931L35.8429 53.6107C35.4351 55.8385 33.5683 57.4381 31.4871 57.4381H28.5128C26.4316 57.4381 24.5648 55.8385 24.157 53.6107L23.2195 48.4931L22.1953 42.9033L21.0058 36.4053L20.2886 32.4888C20.1445 31.7013 20.1246 30.9256 20.2101 30.1967L17.3847 29.292C15.5636 28.7084 13.9839 27.5447 12.8871 25.9779L7.88198 18.8283C7.27729 17.9646 7.28432 16.8138 7.89838 15.9572C8.58393 15.0021 9.84487 14.6576 10.9206 15.1345L18.157 18.3373C18.6187 18.5412 18.9972 18.8717 19.2621 19.2771C19.5257 19.6826 19.6746 20.1631 19.6746 20.6681C19.6746 22.4178 20.4023 24.0877 21.6831 25.2795L22.6265 26.156C23.0578 25.9404 23.5324 25.8209 24.041 25.8209H35.9589C36.4675 25.8209 36.9421 25.9404 37.3734 26.156L38.3167 25.2795C38.9578 24.6842 39.4593 23.9681 39.8015 23.183C40.1437 22.3978 40.3253 21.5435 40.3253 20.6681C40.3253 19.6592 40.9207 18.7451 41.8429 18.3373L49.0792 15.1345C50.155 14.6576 51.416 15.0021 52.1015 15.9572C52.7156 16.8138 52.7226 17.9646 52.1179 18.8283Z" fill="#A26D5A"/>
<path d="M39.7113 32.4888L39.6234 32.9681L38.1457 41.0376L36.7805 48.4931L35.843 53.6106C35.8312 53.6728 35.8195 53.7337 35.8055 53.7946C35.802 53.8134 35.7973 53.8333 35.7926 53.8521C35.7844 53.8872 35.775 53.9235 35.7645 53.9587C35.7586 53.9845 35.7516 54.0103 35.7445 54.0349C35.7328 54.0806 35.7199 54.1263 35.7047 54.172C35.6895 54.2212 35.6742 54.2704 35.6566 54.3185C35.652 54.336 35.6461 54.3524 35.6391 54.3688C35.6238 54.4134 35.6074 54.4579 35.5898 54.5024C35.5863 54.5153 35.5805 54.5282 35.5746 54.5411C35.5559 54.5903 35.5359 54.6384 35.5137 54.6864C35.5113 54.6946 35.5078 54.7028 35.5031 54.7099C35.4832 54.7579 35.4621 54.8048 35.4387 54.8505C35.4328 54.8657 35.4258 54.8798 35.4187 54.8927C35.4 54.9313 35.3812 54.9688 35.3602 55.0063C35.3367 55.0532 35.3121 55.0989 35.2852 55.1435C35.284 55.1458 35.284 55.1481 35.2828 55.1493C35.2559 55.1962 35.2289 55.2419 35.2008 55.2864C35.1246 55.4106 35.0426 55.5302 34.9559 55.6462C34.8773 55.7517 34.7953 55.8524 34.7074 55.9497C34.6641 55.9978 34.6195 56.0458 34.5738 56.0927C34.4848 56.1864 34.391 56.2767 34.2926 56.3599C34.1473 56.4888 33.9938 56.606 33.8344 56.7114C33.7805 56.7466 33.7266 56.7817 33.6727 56.8146C33.5637 56.8825 33.4512 56.9435 33.3375 56.9997C33.2789 57.0278 33.2191 57.056 33.1582 57.0829C33.102 57.1075 33.0457 57.131 32.9883 57.1532C32.9344 57.1743 32.8793 57.1942 32.8242 57.213C32.8078 57.2188 32.7914 57.2247 32.7738 57.2306C32.7375 57.2423 32.7012 57.254 32.6648 57.2646C32.6391 57.2728 32.6133 57.2798 32.5875 57.2868C32.543 57.2997 32.4984 57.3114 32.4539 57.322C32.4469 57.3231 32.4398 57.3255 32.4328 57.3267C32.3859 57.3384 32.3379 57.3489 32.2898 57.3571C32.2699 57.363 32.2488 57.3665 32.2289 57.37C32.1973 57.3759 32.1656 57.3817 32.1328 57.3853C32.0977 57.3923 32.0613 57.397 32.0262 57.4017C31.9746 57.4087 31.9219 57.4146 31.8703 57.4192C31.807 57.4263 31.7449 57.4298 31.6816 57.4333C31.6172 57.4368 31.5516 57.438 31.4871 57.438H30V25.8208H35.959C38.6121 25.8208 40.3418 29.0435 39.7113 32.4888Z" fill="#C17E62"/>
<path d="M36.7804 48.4933L35.8429 53.6109C35.4351 55.8386 33.5683 57.4382 31.4871 57.4382H28.5128C26.4316 57.4382 24.5648 55.8386 24.157 53.6109L23.2195 48.4933C26.5113 44.0287 33.4689 44.0096 36.7804 48.4933Z" fill="#2E3140"/>
<path d="M36.7805 48.4935L35.843 53.611C35.8312 53.6731 35.8195 53.7341 35.8055 53.795C35.6869 54.3201 35.4844 54.8293 35.2008 55.2868C34.5513 56.3494 33.4596 57.146 32.2289 57.3704C31.7258 57.487 30.5234 57.4222 30 57.4384V45.1196C32.7664 45.1275 35.194 46.413 36.7805 48.4935Z" fill="#3E4E60"/>
<path d="M38.9941 36.4053L38.1457 41.0377L37.8035 42.9033H36.9749C35.1796 42.9033 33.7253 41.449 33.7253 39.6549C33.7253 38.7572 34.0886 37.9451 34.6769 37.3568C35.2652 36.7686 36.0773 36.4053 36.9749 36.4053H38.9941Z" fill="white"/>
<path d="M26.2746 39.6549C26.2746 40.5514 25.9113 41.3646 25.323 41.9518C24.7348 42.54 23.9227 42.9033 23.025 42.9033H22.1953L21.0059 36.4053H23.025C24.8203 36.4053 26.2746 37.8596 26.2746 39.6549Z" fill="#C2AACF"/>
<path d="M36.0017 27.4324L38.3169 25.2791C39.5976 24.0879 40.3251 22.4176 40.3251 20.6686C40.3251 19.6596 40.9201 18.7455 41.8428 18.3372L49.0795 15.1341C50.1548 14.658 51.4167 15.0019 52.1019 15.9577C52.7158 16.8139 52.7224 17.9646 52.118 18.8279L47.113 25.978C46.0163 27.5446 44.4365 28.7086 42.6153 29.2918L39.4797 30.296L36.0017 27.4324Z" fill="#C17E62"/>
<path d="M50.1018 16.562H50.0831C49.9659 16.562 49.8522 16.5866 49.7432 16.6347L46.7584 17.9554L42.5069 19.8374C42.1905 19.978 41.9807 20.2862 41.9667 20.6296C41.9186 21.7417 41.6889 22.8304 41.2659 23.83C40.844 24.8296 40.2288 25.7413 39.4143 26.4995C39.1788 26.7175 39.0627 27.0128 39.0627 27.3069C39.0627 27.6233 39.1975 27.9386 39.4647 28.1577C39.6932 28.3464 40.0026 28.4062 40.285 28.3159L42.0944 27.7358C43.4256 27.3093 44.5987 26.5054 45.4741 25.4261V25.4249C45.5819 25.2937 45.6838 25.1589 45.7811 25.0194L50.7745 17.8874C51.1647 17.3542 50.7569 16.562 50.1018 16.562Z" fill="white"/>
<path d="M44.5981 25.2317C44.9977 25.3203 45.1445 25.8215 44.8479 26.1036C44.0696 26.8439 43.1299 27.404 42.0944 27.7357L40.285 28.3158C40.0026 28.4061 39.6932 28.3463 39.4647 28.1576C39.1975 27.9385 39.0627 27.6232 39.0627 27.3068C39.0627 27.0127 39.1788 26.7174 39.4143 26.4994C40.2288 25.7412 40.844 24.8295 41.2659 23.8299C41.6889 22.8303 41.9186 21.7416 41.9667 20.6295C41.9807 20.2861 42.1905 19.9779 42.5069 19.8373L44.9661 18.7488C45.4038 18.555 45.802 19.0867 45.4929 19.4522L44.0658 21.1402C43.8635 21.3796 44.0336 21.7463 44.3471 21.7463H45.4274C45.8586 21.7463 46.0438 22.2932 45.7015 22.5552L43.6387 24.4234C43.4171 24.6242 43.5142 24.9913 43.8061 25.056L44.5981 25.2317Z" fill="#C2AACF"/>
<path d="M42.9806 18.7131C43.1584 19.1365 43.6491 19.3316 44.069 19.1457L47.714 17.5324C48.1567 17.3365 48.3342 16.8017 48.0967 16.3799C47.8894 16.0117 47.4363 15.8612 47.05 16.0323L43.405 17.6456C42.9963 17.8264 42.8077 18.301 42.9806 18.7131Z" fill="#D48D77"/>
<path d="M9.2254 17.8869L14.2188 25.0189C14.316 25.1584 14.418 25.2932 14.5258 25.4244V25.4256C15.4012 26.5049 16.5742 27.3088 17.9055 27.7354L19.7148 28.3154C19.9973 28.4057 20.3066 28.3459 20.5352 28.1572C20.8023 27.9381 20.9371 27.6229 20.9371 27.3064C20.9371 27.0123 20.8211 26.717 20.5856 26.499C19.7711 25.7408 19.1559 24.8291 18.734 23.8295C18.3109 22.8299 18.0813 21.7412 18.0332 20.6291C18.0191 20.2857 17.8094 19.9775 17.493 19.8369L13.2414 17.9549L10.2566 16.6342C10.1477 16.5861 10.034 16.5615 9.9168 16.5615H9.89805C9.24297 16.5615 8.83516 17.3537 9.2254 17.8869Z" fill="#C2AACF"/>
<path d="M15.402 25.2317C15.0024 25.3203 14.8556 25.8215 15.1522 26.1036C15.9305 26.8439 16.8702 27.404 17.9057 27.7357L19.7151 28.3158C19.9975 28.4061 20.3069 28.3463 20.5354 28.1576C20.8026 27.9385 20.9374 27.6232 20.9374 27.3068C20.9374 27.0127 20.8213 26.7174 20.5858 26.4994C19.7713 25.7412 19.1561 24.8295 18.7342 23.8299C18.3112 22.8303 18.0815 21.7416 18.0334 20.6295C18.0194 20.2861 17.8096 19.9779 17.4932 19.8373L15.034 18.7488C14.5963 18.555 14.1981 19.0867 14.5072 19.4522L15.9343 21.1402C16.1366 21.3796 15.9665 21.7463 15.653 21.7463H14.5727C14.1415 21.7463 13.9563 22.2932 14.2986 22.5552L16.3614 24.4234C16.583 24.6242 16.4859 24.9913 16.194 25.056L15.402 25.2317Z" fill="white"/>
<path d="M17.0192 18.7131C16.8414 19.1365 16.3508 19.3316 15.9309 19.1457L12.2859 17.5324C11.8431 17.3365 11.6656 16.8017 11.9031 16.3799C12.1104 16.0117 12.5635 15.8612 12.9499 16.0323L16.5949 17.6456C17.0035 17.8264 17.1922 18.301 17.0192 18.7131Z" fill="#C17E62"/>
<path d="M35.705 54.1724C35.1142 56.1007 33.3938 57.4381 31.4877 57.4381H30V48.9341H32.0338C31.9658 51.6029 33.555 53.6975 35.705 54.1724Z" fill="white"/>
<path d="M24.2949 54.1724C24.8858 56.1007 26.6062 57.4381 28.5123 57.4381H30V48.9341H27.9662C28.0341 51.6029 26.445 53.6975 24.2949 54.1724Z" fill="#C2AACF"/>
<path d="M32.993 48.6289L32.8886 51.4297C32.8626 52.128 32.3236 52.6847 31.6841 52.6847H28.3152C27.6757 52.6847 27.1368 52.128 27.1108 51.4297L27.0064 48.6289C26.9355 46.7285 28.2737 45.1196 29.9997 45.1196C31.7256 45.1196 33.0639 46.7285 32.993 48.6289Z" fill="#3E4E60"/>
<path d="M32.9931 48.6289L32.8887 51.4297C32.8626 52.128 32.3237 52.6847 31.6842 52.6847H29.9998V45.1196C31.7257 45.1196 33.064 46.7285 32.9931 48.6289Z" fill="#3F5D77"/>
<path d="M35.6906 55.1511C35.568 54.8516 35.226 54.7082 34.9264 54.8309C34.5084 55.002 33.938 55.2026 33.7877 55.217C33.3278 55.257 32.5094 55.1221 31.7875 55.003C31.3618 54.9328 30.9514 54.8652 30.5857 54.8249V53.8447C30.5857 53.5212 30.3233 53.2588 29.9998 53.2588C29.6762 53.2588 29.4138 53.5212 29.4138 53.8447V54.8249C29.0481 54.8652 28.6377 54.9327 28.2121 55.003C27.4901 55.1221 26.6719 55.2572 26.2119 55.217C26.0763 55.204 25.5442 55.0236 25.0731 54.8309C24.774 54.7085 24.4316 54.8518 24.3089 55.1512C24.1864 55.4508 24.3298 55.7928 24.6292 55.9154C24.8767 56.0168 25.715 56.35 26.11 56.3844C26.7173 56.4373 27.574 56.2959 28.4027 56.1592C28.9992 56.0609 29.616 55.959 29.9996 55.959C30.3833 55.959 31.0002 56.0607 31.5966 56.1592C32.3034 56.2758 33.0307 56.3958 33.606 56.3958C33.7052 56.3958 33.8 56.3921 33.8893 56.3844C34.2843 56.3501 35.1226 56.0168 35.3702 55.9154C35.6699 55.7927 35.8132 55.4505 35.6906 55.1511Z" fill="#151516"/>
<path d="M29.9998 52.5938V53.8447C29.9779 53.8737 29.9546 53.9011 29.9299 53.927C29.5654 54.3099 28.9744 54.3099 28.603 53.927L28.2968 53.6119L27.5658 52.8604C27.1798 52.4624 27.1556 51.8092 27.519 51.4009C27.7025 51.1948 27.9484 51.0913 28.198 51.0913C28.4476 51.0913 28.6983 51.1948 28.8913 51.4009L29.9285 52.5086C29.9538 52.5362 29.9775 52.5646 29.9998 52.5938Z" fill="#151516"/>
<path d="M32.4337 52.8604L31.3965 53.927C31.0251 54.3099 30.4342 54.3099 30.0696 53.927C30.0449 53.9011 30.0217 53.8737 29.9998 53.8447V52.5938C30.022 52.5646 30.0457 52.5362 30.0709 52.5086L31.1081 51.4009C31.3011 51.1948 31.5518 51.0913 31.8015 51.0913C32.0512 51.0913 32.297 51.1948 32.4805 51.4009C32.8439 51.8091 32.8198 52.4624 32.4337 52.8604Z" fill="#2E3140"/>
<path d="M40.4903 37.0316C41.4933 37.6108 41.8423 38.8862 41.2774 39.8938C41.2739 39.9031 41.2691 39.9115 41.2642 39.9201L40.5287 41.194C40.2371 41.6991 39.7678 42.0394 39.2449 42.1796C38.7212 42.3211 38.1459 42.2617 37.6396 41.9693C36.6985 41.426 36.3323 40.2685 36.7563 39.2963C36.7877 39.2222 36.8243 39.1493 36.865 39.0788L37.6004 37.8048C37.8928 37.2983 38.3627 36.9601 38.8856 36.8201C39.4086 36.6798 39.9838 36.7391 40.4903 37.0316Z" fill="#3E4E60"/>
<path d="M40.4903 37.0312C41.4933 37.6103 41.8423 38.8858 41.2774 39.8934C40.1467 40.4932 38.6749 40.4881 37.4067 39.7559C37.1712 39.6198 36.9535 39.466 36.7563 39.2957C36.7878 39.2216 36.8243 39.1488 36.865 39.0782L37.6004 37.8043C37.8928 37.2978 38.3628 36.9596 38.8856 36.8195C39.4087 36.6794 39.9838 36.7387 40.4903 37.0312Z" fill="#2E3140"/>
<path d="M38.6535 37.8901L38.211 38.6566C38.0204 38.9866 38.1335 39.4087 38.4635 39.5993C38.7935 39.7898 39.2156 39.6767 39.4062 39.3467L39.8487 38.5802C40.0392 38.2502 39.9261 37.8281 39.5961 37.6376C39.266 37.4469 38.844 37.56 38.6535 37.8901Z" fill="white"/>
<path d="M19.5094 37.0316C18.5064 37.6108 18.1574 38.8862 18.7222 39.8938C18.7257 39.9031 18.7305 39.9115 18.7355 39.9201L19.4709 41.194C19.7625 41.6991 20.2318 42.0394 20.7547 42.1796C21.2784 42.3211 21.8537 42.2617 22.3601 41.9693C23.3011 41.426 23.6673 40.2685 23.2433 39.2963C23.2119 39.2222 23.1753 39.1493 23.1347 39.0788L22.3992 37.8048C22.1068 37.2983 21.6369 36.9601 21.114 36.8201C20.591 36.6798 20.0159 36.7391 19.5094 37.0316Z" fill="#3E4E60"/>
<path d="M19.5094 37.0312C18.5064 37.6103 18.1574 38.8858 18.7222 39.8934C19.853 40.4932 21.3247 40.4881 22.5929 39.7559C22.8285 39.6198 23.0462 39.466 23.2433 39.2957C23.2119 39.2216 23.1753 39.1488 23.1347 39.0782L22.3992 37.8043C22.1068 37.2978 21.6369 36.9596 21.114 36.8195C20.591 36.6794 20.0159 36.7387 19.5094 37.0312Z" fill="#2E3140"/>
<path d="M21.3464 37.8901L21.7889 38.6566C21.9794 38.9866 21.8663 39.4087 21.5363 39.5993C21.2063 39.7898 20.7842 39.6767 20.5937 39.3467L20.1512 38.5802C19.9606 38.2502 20.0737 37.8281 20.4037 37.6376C20.7338 37.4469 21.1558 37.56 21.3464 37.8901Z" fill="white"/>
<path d="M29.9998 37.7689C33.7157 37.7689 37.1161 34.7565 37.1161 31.0406C37.1161 28.9336 35.4081 27.2256 33.301 27.2256H29.9998V37.7689Z" fill="#D48D77"/>
<path d="M29.9999 37.7689C26.284 37.7689 22.8835 34.7565 22.8835 31.0406C22.8835 28.9336 24.5916 27.2256 26.6986 27.2256H29.9999V37.7689Z" fill="#C17E62"/>
<path d="M47.3726 8.09059C47.3726 8.36949 47.2659 8.64957 47.0526 8.86285L35.5601 20.3543C34.7409 21.1746 34.2804 22.2855 34.2804 23.4445V28.3582C34.2804 28.9582 33.794 29.4433 33.1952 29.4433C32.5953 29.4446 32.1082 28.9563 32.1089 28.3582V12.2707C32.1089 11.789 32.437 11.3847 32.8812 11.2675C33.5257 11.0902 34.1928 11.5989 34.1831 12.2707V16.2586C34.1831 16.7496 34.7761 16.9957 35.1241 16.6488L38.914 12.8589C39.9112 11.8605 40.4714 10.5082 40.4714 9.09723V5.40934C40.4646 4.47969 41.6221 4.01856 42.2562 4.66989C42.446 4.85856 42.5632 5.12106 42.5632 5.40934V9.16403C42.5632 9.56832 43.053 9.77106 43.339 9.48512L45.5069 7.31715C45.6569 7.16715 45.8409 7.06871 46.0343 7.02535C46.6793 6.85039 47.399 7.41313 47.3726 8.09059Z" fill="#3E4E60"/>
<path d="M43.8115 9.01282L45.5069 7.31735C45.6465 7.17778 45.8156 7.08274 45.9942 7.03539C46.0185 7.02895 46.0453 7.03774 46.0612 7.05719C46.2261 7.25793 46.3085 7.50379 46.3085 7.7486C46.3085 8.0275 46.2019 8.30758 45.9886 8.52086L34.496 20.0134C33.6769 20.8326 33.2163 21.9447 33.2163 23.1037V28.0162C33.2163 28.516 32.879 28.9373 32.4192 29.0639C32.3946 29.0707 32.3674 29.0621 32.3513 29.0423C32.1999 28.8556 32.1089 28.6175 32.1089 28.3584V12.2709C32.1089 11.8049 32.416 11.4113 32.8383 11.28C32.8638 11.2721 32.8926 11.2812 32.9088 11.3025C33.041 11.4763 33.119 11.6928 33.119 11.9287V15.9177C33.119 15.9509 33.1222 15.9827 33.1274 16.0134C33.1224 16.0523 33.119 16.0916 33.119 16.132V16.973C33.119 16.9793 33.1192 16.9855 33.1193 16.9919C33.1318 17.6682 33.9759 17.9699 34.4197 17.4593L35.1227 16.6506C35.1237 16.6496 35.1252 16.6479 35.1261 16.647L38.9141 12.859C39.9113 11.8606 40.4715 10.5082 40.4715 9.09731V5.40953C40.4715 4.9375 40.7836 4.54012 41.2131 4.40899C41.2384 4.40125 41.267 4.41028 41.2831 4.43137C41.4188 4.60762 41.4992 4.82782 41.4992 5.06852V8.82203C41.4992 8.82473 41.4998 8.82731 41.4998 8.83C41.4998 8.83399 41.4992 8.83785 41.4992 8.84196C41.4992 8.87407 41.5005 8.90594 41.5031 8.93735C41.5681 9.73926 42.5496 10.1025 43.1585 9.57672L43.8115 9.01282Z" fill="#3F5D77"/>
<path d="M12.6274 8.09059C12.6274 8.36949 12.7341 8.64957 12.9473 8.86285L24.4399 20.3543C25.2591 21.1746 25.7196 22.2855 25.7196 23.4445V28.3582C25.7196 28.9582 26.2059 29.4433 26.8048 29.4433C27.4046 29.4446 27.8918 28.9563 27.8911 28.3582V12.2707C27.8911 11.789 27.563 11.3847 27.1188 11.2675C26.4743 11.0902 25.8071 11.5989 25.8169 12.2707V16.2586C25.8169 16.7496 25.2239 16.9957 24.8759 16.6488L21.086 12.8589C20.0887 11.8605 19.5286 10.5082 19.5286 9.09723V5.40934C19.5354 4.47969 18.3779 4.01856 17.7438 4.66989C17.554 4.85856 17.4368 5.12106 17.4368 5.40934V9.16403C17.4368 9.56832 16.9469 9.77106 16.661 9.48512L14.493 7.31715C14.343 7.16715 14.1591 7.06871 13.9657 7.02535C13.3207 6.85039 12.6009 7.41313 12.6274 8.09059Z" fill="#2E3140"/>
<path d="M16.1884 9.01282L14.493 7.31735C14.3534 7.17778 14.1843 7.08274 14.0057 7.03539C13.9814 7.02895 13.9546 7.03774 13.9387 7.05719C13.7738 7.25793 13.6914 7.50379 13.6914 7.7486C13.6914 8.0275 13.798 8.30758 14.0113 8.52086L25.5039 20.0134C26.323 20.8326 26.7836 21.9447 26.7836 23.1037V28.0162C26.7836 28.516 27.1209 28.9373 27.5807 29.0639C27.6053 29.0707 27.6325 29.0621 27.6486 29.0423C27.8 28.8556 27.891 28.6175 27.891 28.3584V12.2709C27.891 11.8049 27.5839 11.4113 27.1616 11.28C27.1361 11.2721 27.1073 11.2812 27.0911 11.3025C26.9589 11.4763 26.8809 11.6928 26.8809 11.9287V15.9177C26.8735 15.9917 26.8763 16.0581 26.8809 16.132V16.973C26.8809 16.9793 26.8807 16.9855 26.8806 16.9919C26.8681 17.6682 26.024 17.9699 25.5802 17.4593C25.5768 17.4557 24.8772 16.6502 24.8738 16.647L21.0858 12.859C20.0886 11.8606 19.5284 10.5082 19.5284 9.09731V5.40953C19.5284 4.9375 19.2163 4.54012 18.7868 4.40899C18.7615 4.40125 18.7329 4.41028 18.7168 4.43137C18.5811 4.60762 18.5007 4.82782 18.5007 5.06852V8.82203C18.5005 8.86059 18.5003 8.89938 18.4968 8.93735C18.4318 9.73926 17.4503 10.1025 16.8414 9.57672L16.1884 9.01282Z" fill="#3E4E60"/>
</g>
<defs>
<clipPath id="clip0_1123_26393">
<rect width="60" height="60" fill="white"/>
</clipPath>
</defs>
</svg>
