<svg width="60" height="60" viewBox="0 0 60 60" fill="none" xmlns="http://www.w3.org/2000/svg">
<g clip-path="url(#clip0_1123_23074)">
<path d="M30 60C46.5685 60 60 46.5685 60 30C60 13.4315 46.5685 0 30 0C13.4315 0 0 13.4315 0 30C0 46.5685 13.4315 60 30 60Z" fill="#53B976"/>
<path d="M51.3223 42.3877C50.9297 43.0311 50.4563 43.6357 49.9043 44.1877C47.9743 46.1166 45.702 47.6225 43.2282 48.6467C41.7868 49.2432 40.2786 49.6768 38.7305 49.9334C37.6219 50.1186 36.4934 50.2135 35.3543 50.2135H26.1411C22.5094 50.2135 19.5657 47.2697 19.5657 43.6393V38.408L20.7985 37.5396L28.179 32.34L33.1184 28.8607L43.8856 21.2764H43.8868L51.0727 31.8654C53.2512 35.0752 53.277 39.1955 51.3223 42.3877Z" fill="#B26E2B"/>
<path d="M45.0681 25.6086V29.8906C45.0681 34.407 41.5524 38.1031 37.1063 38.3891C36.9224 38.402 36.7372 38.4078 36.5497 38.4078H24.5532C23.1974 38.4078 21.9259 38.0938 20.7985 37.5395C17.9532 36.1402 16.0337 33.207 16.0337 29.907C16.0337 29.4559 16.0688 28.9977 16.1438 28.5348C17.0356 23.0012 21.5052 18.7379 27.0751 18.1086L29.0544 17.8848L32.8067 17.4606L35.5923 17.1453C39.0646 16.7527 42.2403 18.4965 43.8856 21.2762H43.8868C44.6356 22.5406 45.0681 24.0195 45.0681 25.6086Z" fill="#B26E2B"/>
<path d="M51.3223 42.3875C50.2559 43.0824 49.1297 43.6754 47.959 44.1606C47.9438 44.1664 47.9297 44.1723 47.9156 44.1781C45.2684 45.2668 42.2156 44.5719 40.2715 42.4707C39.1031 41.2074 38.0426 39.8422 37.1063 38.3891C36.1969 36.9781 35.4047 35.4852 34.7414 33.9219C34.0559 32.3035 33.5086 30.6113 33.1184 28.8606C33.0422 28.5277 32.973 28.1914 32.9098 27.8539C32.577 26.0762 32.4023 24.2422 32.4023 22.3672C32.4023 20.6961 32.5406 19.0567 32.8066 17.4606L35.5922 17.1453C39.0645 16.7527 42.2402 18.4965 43.8855 21.2762H43.8867L51.0727 31.8652C53.2512 35.075 53.277 39.1953 51.3223 42.3875Z" fill="#C68132"/>
<path d="M48.8714 38.9187C47.0505 40.1065 44.6115 39.5933 43.4237 37.7724L38.2197 29.7946C37.0319 27.9738 37.5452 25.5348 39.3661 24.3469C41.1869 23.1591 43.626 23.6724 44.8138 25.4933L50.0177 33.471C51.2055 35.292 50.6922 37.731 48.8714 38.9187Z" fill="#F39E22"/>
<path d="M26.3244 35.9904H16.3403V29.8466L33.629 25.436V28.6858C33.629 32.7199 30.3587 35.9904 26.3244 35.9904Z" fill="#EE6781"/>
<path d="M32.7233 37.1995C35.3328 37.1995 37.4483 35.0841 37.4483 32.4745C37.4483 29.865 35.3328 27.7495 32.7233 27.7495C30.1137 27.7495 27.9983 29.865 27.9983 32.4745C27.9983 35.0841 30.1137 37.1995 32.7233 37.1995Z" fill="#F4829B"/>
<path d="M36.1716 32.4755C36.1716 32.9928 36.0587 33.4823 35.8524 33.9211C35.3072 35.103 34.1123 35.9231 32.7241 35.9231C30.8186 35.9231 29.2749 34.3794 29.2749 32.4755C29.2749 31.0873 30.0951 29.8907 31.2769 29.3456C31.7173 29.1393 32.2068 29.0264 32.7241 29.0264C34.6279 29.0264 36.1716 30.5717 36.1716 32.4755Z" fill="#DD5E26"/>
<path d="M36.1717 32.4755C36.1717 32.9928 36.0587 33.4823 35.8525 33.9211C35.4137 34.1273 34.9242 34.2403 34.4069 34.2403C32.5031 34.2403 30.9578 32.6966 30.9578 30.7927C30.9578 30.2755 31.0707 29.786 31.277 29.3456C31.7174 29.1393 32.2069 29.0264 32.7241 29.0264C34.628 29.0264 36.1717 30.5717 36.1717 32.4755Z" fill="#EA792E"/>
<path d="M34.9111 32.4757C34.9111 32.8031 34.839 33.1141 34.7081 33.3925C34.5559 33.7199 34.3267 34.0047 34.0419 34.2207C33.6768 34.4974 33.22 34.6628 32.7241 34.6628C31.5144 34.6628 30.5354 33.6838 30.5354 32.4757C30.5354 31.9796 30.7008 31.523 30.9774 31.1563C31.1935 30.8714 31.4783 30.6407 31.8057 30.4901C32.0857 30.3591 32.395 30.2871 32.7241 30.2871C33.9322 30.287 34.9111 31.2676 34.9111 32.4757Z" fill="#3E4E60"/>
<path d="M34.9109 32.4757C34.9109 32.8031 34.8389 33.1141 34.708 33.3925C34.5557 33.7199 34.3265 34.0047 34.0417 34.2207C32.4292 34.0505 31.1458 32.7687 30.9773 31.1563C31.1934 30.8714 31.4782 30.6407 31.8056 30.4901C32.0855 30.3591 32.3949 30.2871 32.724 30.2871C33.9321 30.287 34.9109 31.2676 34.9109 32.4757Z" fill="#2E3140"/>
<path d="M31.1181 33.1547C31.8272 33.1547 32.402 32.5799 32.402 31.8708C32.402 31.1617 31.8272 30.5869 31.1181 30.5869C30.4091 30.5869 29.8342 31.1617 29.8342 31.8708C29.8342 32.5799 30.4091 33.1547 31.1181 33.1547Z" fill="white"/>
<path d="M36.5497 41.3414V41.6801C36.5497 42.8191 36.2286 43.8832 35.6731 44.7867C34.6278 46.4859 32.7528 47.618 30.6118 47.618C29.7797 47.618 28.9653 47.4434 28.22 47.1141C27.4735 46.7859 26.795 46.3043 26.2325 45.6902L19.5657 38.4082H33.6176C35.2372 38.4082 36.5497 39.7219 36.5497 41.3414Z" fill="#DD5273"/>
<path d="M36.5496 41.3414V41.6801C36.5496 42.8191 36.2285 43.8832 35.673 44.7867C35.0484 45.0105 34.3746 45.1324 33.6727 45.1324C32.8395 45.1324 32.0262 44.9578 31.2797 44.6285C30.5344 44.3004 29.8559 43.8188 29.2934 43.2035L24.9023 38.4082H33.6176C35.2371 38.4082 36.5496 39.7219 36.5496 41.3414Z" fill="#EE6781"/>
<path d="M32.9441 43.6851C34.1559 43.6851 35.1382 42.7027 35.1382 41.491C35.1382 40.2792 34.1559 39.2969 32.9441 39.2969C31.7323 39.2969 30.75 40.2792 30.75 41.491C30.75 42.7027 31.7323 43.6851 32.9441 43.6851Z" fill="#F4829B"/>
<path d="M8.68921 35.9902H18.3723C19.9037 35.9902 22.5286 36.6672 23.5137 37.8398L23.9913 38.4084H15.247C12.843 38.4084 10.5178 37.5509 8.68921 35.9902Z" fill="#F9C744"/>
<path d="M26.202 32.9199C26.202 33.7684 25.8587 34.5348 25.3032 35.0914C24.7477 35.6469 23.979 35.9902 23.1317 35.9902H6.09852C5.08953 35.9902 4.53875 34.8113 5.1868 34.0367C5.26883 33.9383 5.3532 33.841 5.43875 33.7461C5.46688 33.7145 5.495 33.684 5.5243 33.6523C6.56961 32.5063 7.82352 31.5922 9.20281 30.9477C10.7333 30.2328 12.4196 29.8496 14.1493 29.8496H23.1317C23.1575 29.8496 23.1833 29.8496 23.2091 29.8508C24.8696 29.8918 26.202 31.25 26.202 32.9199Z" fill="#FAD98F"/>
<path d="M21.5533 29.8496C21.517 30.8984 21.0787 31.843 20.3861 32.5355C19.6631 33.2586 18.6646 33.7051 17.5607 33.7051H6.1666C5.94746 33.7051 5.73301 33.6875 5.52441 33.6523C6.56973 32.5063 7.82363 31.5922 9.20293 30.9477C10.7334 30.2328 12.4197 29.8496 14.1494 29.8496H21.5533Z" fill="#FAEFDC"/>
<path d="M18.6111 32.6228H12.5643C12.037 32.6228 11.6094 32.1953 11.6094 31.6679C11.6094 31.1405 12.0369 30.7129 12.5643 30.7129H18.6111C19.1384 30.7129 19.5661 31.1404 19.5661 31.6679C19.5659 32.1952 19.1384 32.6228 18.6111 32.6228Z" fill="white"/>
<path d="M19.6706 33.7051H16.2202C15.6878 33.7051 15.2563 33.2736 15.2563 32.7412C15.2563 32.2088 15.6878 31.7773 16.2202 31.7773H19.6706C20.2029 31.7773 20.6344 32.2088 20.6344 32.7412C20.6344 33.2736 20.2028 33.7051 19.6706 33.7051Z" fill="#3E4E60"/>
<path d="M33.4179 7.44238H24.8438C22.1116 7.44238 19.8967 9.65723 19.8967 12.3895V18.0673C19.8967 15.5174 17.8297 13.4502 15.2797 13.4502C12.7298 13.4502 10.6626 15.5173 10.6626 18.0673V24.5167C10.6626 27.4619 13.0501 29.8493 15.9952 29.8493C18.5851 29.8493 21.1639 29.511 23.6661 28.8429L34.4078 25.9751C36.7415 25.352 38.3649 23.2383 38.3649 20.823V12.3895C38.365 9.65723 36.1502 7.44238 33.4179 7.44238Z" fill="#DD5273"/>
<path d="M14.8059 27.7496C13.27 27.7496 12.0249 26.5045 12.0249 24.9686V17.5739C12.0249 16.0381 13.27 14.793 14.8059 14.793C16.3417 14.793 17.5869 16.0381 17.5869 17.5739V24.9686C17.5869 26.5045 16.3419 27.7496 14.8059 27.7496Z" fill="#EE6781"/>
<path d="M14.8059 22.5207C13.27 22.5207 12.0249 21.2755 12.0249 19.7397V17.5739C12.0249 16.0381 13.27 14.793 14.8059 14.793C16.3417 14.793 17.5869 16.0381 17.5869 17.5739V19.7397C17.5869 21.2755 16.3419 22.5207 14.8059 22.5207Z" fill="#F4829B"/>
<path d="M23.5747 24.9474C22.5576 24.9474 21.7329 24.1227 21.7329 23.1055V12.5122C21.7329 11.4951 22.5576 10.6704 23.5747 10.6704C24.5919 10.6704 25.4166 11.4951 25.4166 12.5122V23.1055C25.4165 24.1228 24.5919 24.9474 23.5747 24.9474Z" fill="#EE6781"/>
<path d="M29.0162 21.4244C27.999 21.4244 27.1743 20.5997 27.1743 19.5825V12.5122C27.1743 11.4951 27.999 10.6704 29.0162 10.6704C30.0333 10.6704 30.858 11.4951 30.858 12.5122V19.5825C30.858 20.5997 30.0333 21.4244 29.0162 21.4244Z" fill="#EE6781"/>
<path d="M34.4576 19.0798C33.4404 19.0798 32.6157 18.2551 32.6157 17.2379V12.5122C32.6157 11.4951 33.4404 10.6704 34.4576 10.6704C35.4747 10.6704 36.2994 11.4951 36.2994 12.5122V17.2379C36.2993 18.2553 35.4747 19.0798 34.4576 19.0798Z" fill="#EE6781"/>
<path d="M23.5747 17.4087C22.5576 17.4087 21.7329 16.584 21.7329 15.5669V12.5122C21.7329 11.4951 22.5576 10.6704 23.5747 10.6704C24.5919 10.6704 25.4166 11.4951 25.4166 12.5122V15.5669C25.4165 16.584 24.5919 17.4087 23.5747 17.4087Z" fill="#F4829B"/>
<path d="M29.0162 15.746C27.999 15.746 27.1743 14.9214 27.1743 13.9042V12.5122C27.1743 11.4951 27.999 10.6704 29.0162 10.6704C30.0333 10.6704 30.858 11.4951 30.858 12.5122V13.9042C30.858 14.9215 30.0333 15.746 29.0162 15.746Z" fill="#F4829B"/>
<path d="M34.4576 14.6394C33.4404 14.6394 32.6157 13.8148 32.6157 12.7976V12.5122C32.6157 11.4951 33.4404 10.6704 34.4576 10.6704C35.4747 10.6704 36.2994 11.4951 36.2994 12.5122V12.7976C36.2993 13.8149 35.4747 14.6394 34.4576 14.6394Z" fill="#F4829B"/>
</g>
<defs>
<clipPath id="clip0_1123_23074">
<rect width="60" height="60" fill="white"/>
</clipPath>
</defs>
</svg>
