<svg width="60" height="60" viewBox="0 0 60 60" fill="none" xmlns="http://www.w3.org/2000/svg">
<g clip-path="url(#clip0_1123_23965)">
<path d="M30 60C46.5685 60 60 46.5685 60 30C60 13.4315 46.5685 0 30 0C13.4315 0 0 13.4315 0 30C0 46.5685 13.4315 60 30 60Z" fill="#EA792E"/>
<path d="M35.1704 54.5321H24.8297C22.5645 54.5321 20.7762 52.6067 20.9426 50.3485L21.8063 38.6392H38.1938L39.0575 50.3485C39.2239 52.6067 37.4356 54.5321 35.1704 54.5321Z" fill="#2E3140"/>
<path d="M35.1703 54.5321H30V38.6392H38.1938L39.0574 50.3485C39.2238 52.6067 37.4355 54.5321 35.1703 54.5321Z" fill="#334353"/>
<path d="M46.3839 23.0866V31.9483C46.3839 35.6433 43.3886 38.6386 39.6949 38.6386H20.305C16.6113 38.6386 13.616 35.6433 13.616 31.9483V23.0866C13.616 20.6233 14.9472 18.4718 16.9289 17.3104C20.0285 15.494 22.8023 13.1714 25.0007 10.3319L25.2421 10.0202C26.4468 8.46514 28.2234 7.68701 30 7.68701C31.7765 7.68701 33.5531 8.46514 34.7578 10.0202L34.9992 10.3319C37.1976 13.1714 39.9714 15.494 43.071 17.3104C45.0527 18.4718 46.3839 20.6233 46.3839 23.0866Z" fill="#334353"/>
<path d="M46.384 23.0866V31.9483C46.384 35.6433 43.3887 38.6386 39.6949 38.6386H30V7.68701C31.7766 7.68701 33.5531 8.46514 34.7578 10.0202L34.9992 10.3319C37.1977 13.1714 39.9715 15.494 43.0711 17.3104C45.0527 18.4718 46.384 20.6233 46.384 23.0866Z" fill="#3E4E60"/>
<path d="M44.4284 30.4478C42.9962 31.8801 40.6699 31.8801 39.2375 30.4478C37.8034 29.0137 37.8052 26.6891 39.2375 25.2569C39.6259 24.8685 40.0791 24.5849 40.5632 24.408C41.8655 23.9294 43.3827 24.2111 44.4284 25.2569C45.4723 26.3008 45.7559 27.8198 45.2773 29.1221C45.1004 29.6062 44.8168 30.0594 44.4284 30.4478Z" fill="#334353"/>
<path d="M45.2767 29.1218C46.1096 28.2889 45.7296 26.5585 44.4279 25.2568C43.1262 23.955 41.3957 23.575 40.5628 24.4079C39.7299 25.2408 40.1099 26.9713 41.4117 28.273C42.7134 29.5747 44.4438 29.9547 45.2767 29.1218Z" fill="#3F5D77"/>
<path d="M44.3955 27.8521C44.3955 28.9555 43.6956 29.8981 42.7164 30.2592C42.4399 30.358 42.1435 30.4144 41.8332 30.4144C40.4165 30.4144 39.2708 29.2658 39.2708 27.852C39.2708 26.4353 40.4165 25.2896 41.8332 25.2896C42.1436 25.2896 42.44 25.346 42.7164 25.4447C43.6956 25.8061 44.3955 26.7458 44.3955 27.8521Z" fill="#DD5E26"/>
<path d="M43.5166 27.8522C43.5166 28.5772 43.0567 29.1965 42.4134 29.4338C42.2316 29.4987 42.037 29.5357 41.833 29.5357C40.9022 29.5357 40.1494 28.781 40.1494 27.8521C40.1494 26.9213 40.9022 26.1685 41.833 26.1685C42.037 26.1685 42.2317 26.2055 42.4134 26.2704C43.0567 26.5079 43.5166 27.1254 43.5166 27.8522Z" fill="#2E3140"/>
<path d="M43.5165 27.0447C43.5165 27.4219 43.2773 27.7441 42.9425 27.8676C42.8479 27.9013 42.7467 27.9207 42.6405 27.9207C42.1563 27.9207 41.7646 27.5281 41.7646 27.0448C41.7646 26.5606 42.1563 26.1689 42.6405 26.1689C42.7466 26.1689 42.8479 26.1883 42.9425 26.222C43.2772 26.3453 43.5165 26.6665 43.5165 27.0447Z" fill="white"/>
<path d="M15.5719 30.4478C17.0042 31.8801 19.3305 31.8801 20.7628 30.4478C22.197 29.0137 22.1951 26.6891 20.7628 25.2569C20.3745 24.8685 19.9212 24.5849 19.4371 24.408C18.1348 23.9294 16.6177 24.2111 15.5719 25.2569C14.528 26.3008 14.2444 27.8198 14.723 29.1221C14.9 29.6062 15.1836 30.0594 15.5719 30.4478Z" fill="#2E3140"/>
<path d="M18.5878 28.273C19.8895 26.9713 20.2695 25.2409 19.4366 24.408C18.6037 23.575 16.8733 23.9551 15.5716 25.2568C14.2698 26.5585 13.8898 28.289 14.7227 29.1219C15.5556 29.9548 17.2861 29.5747 18.5878 28.273Z" fill="#3E4E60"/>
<path d="M20.7302 27.8521C20.7302 28.9555 20.0304 29.8981 19.0511 30.2592C18.7746 30.358 18.4782 30.4144 18.1679 30.4144C16.7512 30.4144 15.6055 29.2658 15.6055 27.852C15.6055 26.4353 16.7512 25.2896 18.1679 25.2896C18.4783 25.2896 18.7747 25.346 19.0511 25.4447C20.0304 25.8061 20.7302 26.7458 20.7302 27.8521Z" fill="#DD5E26"/>
<path d="M19.8515 27.8522C19.8515 28.5772 19.3917 29.1965 18.7483 29.4338C18.5666 29.4987 18.3719 29.5357 18.168 29.5357C17.2372 29.5357 16.4844 28.781 16.4844 27.8521C16.4844 26.9213 17.2372 26.1685 18.168 26.1685C18.3719 26.1685 18.5667 26.2055 18.7483 26.2704C19.3917 26.5079 19.8515 27.1254 19.8515 27.8522Z" fill="#2E3140"/>
<path d="M19.8514 27.0447C19.8514 27.4219 19.6123 27.7441 19.2775 27.8676C19.1829 27.9013 19.0816 27.9207 18.9755 27.9207C18.4912 27.9207 18.0996 27.5281 18.0996 27.0448C18.0996 26.5606 18.4912 26.1689 18.9755 26.1689C19.0815 26.1689 19.1829 26.1883 19.2775 26.222C19.6121 26.3453 19.8514 26.6665 19.8514 27.0447Z" fill="white"/>
<path d="M41.7402 15.6545L36.7057 17.3554C34.1778 18.2096 32.8209 20.9513 33.6749 23.4794L33.7979 23.8433C34.652 26.3713 37.3937 27.7282 39.9218 26.8741L44.9563 25.1731C47.4843 24.3189 48.8412 21.5772 47.9871 19.0491L47.8642 18.6853C47.01 16.1573 44.2682 14.8003 41.7402 15.6545Z" fill="#3F5D77"/>
<path d="M18.26 15.6545L23.2945 17.3554C25.8224 18.2096 27.1793 20.9513 26.3253 23.4794L26.2024 23.8433C25.3482 26.3713 22.6065 27.7282 20.0784 26.8741L15.0439 25.1731C12.5159 24.3189 11.159 21.5772 12.0131 19.0491L12.136 18.6853C12.9902 16.1573 15.732 14.8003 18.26 15.6545Z" fill="#3E4E60"/>
<path d="M46.3839 31.9109C46.3839 32.0973 46.33 32.2754 46.2351 32.4266C46.139 32.5777 46.0007 32.702 45.8332 32.7805L44.6414 33.3441C43.5738 33.8492 42.7406 34.7469 42.3187 35.8508L41.7515 37.332C41.1562 38.8871 40.0441 40.1891 38.6027 41.0211L30.9574 45.4332C30.6539 45.5727 30.3269 45.6418 30 45.6418C29.673 45.6418 29.346 45.5727 29.0425 45.4332L21.3972 41.0211C19.9558 40.1891 18.8437 38.8871 18.2484 37.332L17.6812 35.8508C17.2593 34.7469 16.4261 33.8492 15.3585 33.3441L14.1667 32.7805C13.8304 32.6223 13.616 32.2836 13.616 31.9109C13.616 31.3707 14.0554 30.9488 14.5757 30.9488C14.6285 30.9488 14.6812 30.9523 14.7351 30.9617L20.7164 31.952C21.6433 32.1055 22.5269 32.4523 23.3109 32.9691L23.7726 33.2727C23.8394 33.316 23.9062 33.3594 23.9742 33.4004C23.9027 33.1133 23.8652 32.8121 23.8652 32.5039V31.2383C23.8652 29.184 25.5304 27.5176 27.5859 27.5176H32.414C34.4695 27.5176 36.1347 29.184 36.1347 31.2383V32.5039C36.1347 32.8121 36.0972 33.1133 36.0257 33.4004C36.0937 33.3594 36.1605 33.316 36.2273 33.2727L36.689 32.9691C37.473 32.4523 38.3566 32.1055 39.2835 31.952L45.2648 30.9617C45.8507 30.8645 46.3839 31.3168 46.3839 31.9109Z" fill="#3E4E60"/>
<path d="M46.384 31.9109C46.384 32.0973 46.3301 32.2754 46.2352 32.4266C46.1391 32.5777 46.0008 32.702 45.8332 32.7805L44.6414 33.3441C43.5738 33.8492 42.7406 34.7469 42.3187 35.8508L41.7516 37.332C41.1562 38.8871 40.0441 40.1891 38.6027 41.0211L30.9574 45.4332C30.6539 45.5727 30.327 45.6418 30 45.6418V27.5176H32.4141C34.4695 27.5176 36.1348 29.184 36.1348 31.2383V32.5039C36.1348 32.8121 36.0973 33.1133 36.0258 33.4004C36.0938 33.3594 36.1605 33.316 36.2273 33.2727L36.6891 32.9691C37.473 32.4523 38.3566 32.1055 39.2836 31.952L45.2648 30.9617C45.8508 30.8645 46.384 31.3168 46.384 31.9109Z" fill="#3F5D77"/>
<path d="M32.7898 36.9651L33.3675 35.9833C33.649 35.505 34.2971 35.4022 34.7127 35.7699L35.5183 36.4825C35.8758 36.7988 35.9171 37.3422 35.6112 37.7088L35.3867 37.978C35.219 38.179 34.9708 38.2951 34.7091 38.2951H33.5504C32.8677 38.2951 32.4435 37.5533 32.7898 36.9651Z" fill="#334353"/>
<path d="M27.2099 36.9651L26.6321 35.9833C26.3506 35.505 25.7026 35.4022 25.2869 35.7699L24.4814 36.4825C24.1238 36.7988 24.0826 37.3422 24.3884 37.7088L24.613 37.978C24.7807 38.179 25.0289 38.2951 25.2906 38.2951H26.4493C27.1319 38.2951 27.5561 37.5533 27.2099 36.9651Z" fill="#2E3140"/>
<path d="M37.5276 35.1828V33.9557C37.5276 33.6617 37.727 33.4052 38.012 33.3328L42.4149 32.214C42.8212 32.1107 43.2159 32.4178 43.2159 32.8369C43.2159 33.0744 43.085 33.2926 42.8753 33.4041L38.4725 35.7499C38.0444 35.9781 37.5276 35.6678 37.5276 35.1828Z" fill="#3F6C8E"/>
<path d="M22.4722 35.1828V33.9557C22.4722 33.6617 22.2728 33.4052 21.9878 33.3328L17.5849 32.214C17.1786 32.1107 16.7839 32.4178 16.7839 32.8369C16.7839 33.0744 16.9148 33.2926 17.1245 33.4041L21.5273 35.7499C21.9554 35.9781 22.4722 35.6678 22.4722 35.1828Z" fill="#3F5D77"/>
<path d="M30 30.2744C30.7594 30.2744 31.375 30.89 31.375 31.6494V37.6064C31.375 38.5116 32.1088 39.2455 33.0141 39.2455H36.7867C37.1959 39.2455 37.5277 39.5772 37.5277 39.9864C37.5277 40.2507 37.3877 40.4946 37.159 40.6271C35.8129 41.4073 31.1795 44.042 30 44.042V30.2744Z" fill="#3F6C8E"/>
<path d="M30.0001 30.2744C29.2407 30.2744 28.6251 30.89 28.6251 31.6494V37.6064C28.6251 38.5116 27.8913 39.2455 26.986 39.2455H23.2134C22.8042 39.2455 22.4724 39.5772 22.4724 39.9864C22.4724 40.2507 22.6123 40.4946 22.8411 40.6271C24.1872 41.4073 28.8206 44.042 30.0001 44.042V30.2744Z" fill="#3F5D77"/>
<path d="M32.4748 10.9283C32.4655 10.9283 32.4562 10.9282 32.4468 10.9278C31.9616 10.9127 31.5807 10.507 31.5959 10.0219L31.7561 4.90908C31.7712 4.42393 32.1729 4.04084 32.6621 4.05818C33.1472 4.0733 33.5282 4.479 33.513 4.96416L33.3528 10.0769C33.3379 10.5527 32.9475 10.9283 32.4748 10.9283Z" fill="#3F5D77"/>
<path d="M34.8139 13.2808C34.7129 13.2808 34.6102 13.2633 34.5098 13.2263C34.0544 13.0584 33.8214 12.5529 33.9893 12.0976L35.7573 7.304C35.9255 6.84861 36.4308 6.61553 36.8862 6.78357C37.3416 6.95162 37.5746 7.45693 37.4066 7.91233L35.6386 12.7059C35.5076 13.0608 35.1715 13.2808 34.8139 13.2808Z" fill="#3F5D77"/>
<path d="M37.2633 15.4846C37.0683 15.4846 36.872 15.42 36.709 15.2872C36.3326 14.9808 36.2759 14.4272 36.5824 14.0508L39.4357 10.5466C39.7419 10.1703 40.2955 10.1135 40.6722 10.42C41.0486 10.7264 41.1053 11.28 40.7987 11.6564L37.9454 15.1605C37.7718 15.3739 37.5187 15.4846 37.2633 15.4846Z" fill="#3F5D77"/>
<path d="M27.5252 10.9283C27.5344 10.9283 27.5438 10.9282 27.5532 10.9278C28.0383 10.9127 28.4193 10.507 28.4041 10.0219L28.2439 4.90908C28.2288 4.42393 27.8271 4.04084 27.3379 4.05818C26.8528 4.0733 26.4718 4.479 26.487 4.96416L26.6472 10.0769C26.6621 10.5527 27.0524 10.9283 27.5252 10.9283Z" fill="#3E4E60"/>
<path d="M25.1861 13.2808C25.2871 13.2808 25.3898 13.2633 25.4902 13.2263C25.9456 13.0584 26.1786 12.5529 26.0106 12.0976L24.2426 7.304C24.0745 6.84861 23.5692 6.61553 23.1138 6.78357C22.6584 6.95162 22.4254 7.45693 22.5933 7.91233L24.3614 12.7059C24.4924 13.0608 24.8285 13.2808 25.1861 13.2808Z" fill="#3E4E60"/>
<path d="M22.7368 15.4846C22.9318 15.4846 23.1281 15.42 23.2911 15.2872C23.6675 14.9808 23.7242 14.4272 23.4176 14.0508L20.5643 10.5466C20.2581 10.1703 19.7045 10.1135 19.3279 10.42C18.9515 10.7264 18.8948 11.28 19.2013 11.6564L22.0546 15.1605C22.2283 15.3739 22.4814 15.4846 22.7368 15.4846Z" fill="#3E4E60"/>
</g>
<defs>
<clipPath id="clip0_1123_23965">
<rect width="60" height="60" fill="white"/>
</clipPath>
</defs>
</svg>
