<svg width="60" height="60" viewBox="0 0 60 60" fill="none" xmlns="http://www.w3.org/2000/svg">
<g clip-path="url(#clip0_1123_25537)">
<path d="M30 60C46.5685 60 60 46.5685 60 30C60 13.4315 46.5685 0 30 0C13.4315 0 0 13.4315 0 30C0 46.5685 13.4315 60 30 60Z" fill="#6C53A2"/>
<path d="M37.4984 37.1655V41.6866C37.4984 43.7573 36.6596 45.6319 35.3021 46.9885C33.9454 48.3461 32.0709 49.1848 30.0001 49.1848C25.8587 49.1848 22.5017 45.8279 22.5017 41.6864V37.1654C22.5017 33.869 25.1744 31.1963 28.4708 31.1963H31.5294C34.8257 31.1964 37.4984 33.8691 37.4984 37.1655Z" fill="#C44A1A"/>
<path d="M37.4984 37.1654V41.6864C37.4984 43.7571 36.6595 45.6318 35.302 46.9884C33.9454 48.346 32.0708 49.1847 30 49.1847V31.1963H31.5293C34.8257 31.1963 37.4984 33.869 37.4984 37.1654Z" fill="#DD5E26"/>
<path d="M29.237 47.4297H30V37.4629H27.3416C25.4009 37.4629 23.8276 39.0361 23.8276 40.9769V42.0204C23.8276 45.0078 26.2496 47.4297 29.237 47.4297Z" fill="#DD5E26"/>
<path d="M30.763 47.4297H30V37.4629H32.6584C34.5991 37.4629 36.1724 39.0361 36.1724 40.9769V42.0204C36.1724 45.0078 33.7505 47.4297 30.763 47.4297Z" fill="#EA792E"/>
<path d="M33.5821 42.8253H30V39.2246H33.5821C34.5764 39.2246 35.3824 40.0306 35.3824 41.025C35.3824 42.0192 34.5764 42.8253 33.5821 42.8253Z" fill="#F39E22"/>
<path d="M26.418 39.2246H30.0001V42.8253H26.418C25.4237 42.8253 24.6177 42.0193 24.6177 41.025C24.6177 40.0306 25.4237 39.2246 26.418 39.2246Z" fill="#EA792E"/>
<path d="M26.4299 14.0489V17.6847L29.3567 17.5115V14.0489C29.3567 13.4879 29.0402 13.0002 28.5765 12.7538C28.3724 12.646 28.1406 12.5854 27.8934 12.5854C27.0851 12.5854 26.4299 13.2406 26.4299 14.0489Z" fill="#9175A7"/>
<path d="M29.3566 14.049V16.4956C29.1719 16.5678 28.9718 16.6072 28.7611 16.6072C27.8567 16.6072 27.1226 15.8741 27.1226 14.9687V13.2831C27.1226 13.0983 27.1534 12.9204 27.2101 12.7538C27.4141 12.646 27.6459 12.5854 27.8932 12.5854C28.7014 12.5856 29.3566 13.2408 29.3566 14.049Z" fill="#A583BB"/>
<path d="M33.5708 14.0489V17.6847L30.644 17.5115V14.0489C30.644 13.4879 30.9606 13.0002 31.4243 12.7538C31.6283 12.646 31.8601 12.5854 32.1074 12.5854C32.9156 12.5854 33.5708 13.2406 33.5708 14.0489Z" fill="#A583BB"/>
<path d="M33.5707 14.049V16.4956C33.386 16.5678 33.1859 16.6072 32.9752 16.6072C32.0708 16.6072 31.3367 15.8741 31.3367 14.9687V13.2831C31.3367 13.0983 31.3675 12.9204 31.4242 12.7538C31.6282 12.646 31.86 12.5854 32.1073 12.5854C32.9155 12.5856 33.5707 13.2408 33.5707 14.049Z" fill="#C2AACF"/>
<path d="M37.4984 22.3903V24.9301C37.4984 27.0008 36.6596 28.8755 35.3021 30.233C33.9454 31.5896 32.0709 32.4293 30.0001 32.4293C25.8587 32.4293 22.5017 29.0715 22.5017 24.93V22.3902C22.5017 19.6515 24.7216 17.4316 27.4603 17.4316H32.5399C35.2785 17.4318 37.4984 19.6516 37.4984 22.3903Z" fill="#EA792E"/>
<path d="M37.4984 22.3902V24.93C37.4984 27.0007 36.6595 28.8753 35.302 30.2329C33.9454 31.5895 32.0708 32.4292 30 32.4292V17.4316H32.5398C35.2785 17.4316 37.4984 19.6515 37.4984 22.3902Z" fill="#F39E22"/>
<path d="M35.9682 22.909V24.93C35.9682 26.5778 35.3003 28.0701 34.2201 29.1501C33.14 30.2302 31.6487 30.8982 30.0001 30.8982C26.7037 30.8982 24.032 28.2264 24.032 24.93V22.909C24.032 20.729 25.7991 18.9619 27.9791 18.9619H32.0211C34.2012 18.9619 35.9682 20.729 35.9682 22.909Z" fill="#334353"/>
<path d="M35.9681 22.909V24.93C35.9681 26.5778 35.3002 28.0701 34.22 29.1501C33.1399 30.2302 31.6486 30.8982 30 30.8982V18.9619H32.021C34.2011 18.9619 35.9681 20.729 35.9681 22.909Z" fill="#3E4E60"/>
<path d="M31.535 22.8984C31.1863 22.8984 30.9038 22.6158 30.9038 22.2672V21.7493C30.9038 21.4007 31.1863 21.1182 31.535 21.1182C31.8836 21.1182 32.1661 21.4007 32.1661 21.7493V22.2672C32.1661 22.6158 31.8835 22.8984 31.535 22.8984Z" fill="#334353"/>
<path d="M28.4649 22.8984C28.1163 22.8984 27.8337 22.6158 27.8337 22.2672V21.7493C27.8337 21.4007 28.1163 21.1182 28.4649 21.1182C28.8135 21.1182 29.0961 21.4007 29.0961 21.7493V22.2672C29.0961 22.6158 28.8135 22.8984 28.4649 22.8984Z" fill="#2E3140"/>
<path d="M31.3095 28.6251H30.0002V24.0347H32.4769C33.4221 24.0347 34.1884 24.801 34.1884 25.7462C34.1884 27.3362 32.8995 28.6251 31.3095 28.6251Z" fill="#3F5D77"/>
<path d="M28.691 28.6251H30.0002V24.0347H27.5235C26.5783 24.0347 25.812 24.801 25.812 25.7462C25.812 27.3362 27.101 28.6251 28.691 28.6251Z" fill="#3E4E60"/>
<path d="M51.9814 24.0184C51.7472 24.2526 51.423 24.3974 51.0657 24.3974H49.3158C48.601 24.3978 48.0213 23.818 48.0213 23.1028C48.0163 22.3887 48.6132 21.8028 49.316 21.8081H51.0658C52.2105 21.8002 52.7921 23.2195 51.9814 24.0184Z" fill="#2E3140"/>
<path d="M52.2512 23.6231C52.0918 23.693 51.9165 23.7317 51.7314 23.7317H49.9816C49.0632 23.7482 48.4143 22.7479 48.7955 21.9173C48.9544 21.8468 49.1302 21.8078 49.3157 21.8083H51.0656C51.985 21.7926 52.6328 22.7921 52.2512 23.6231Z" fill="#334353"/>
<path d="M42.1098 21.8083C42.1098 22.3582 41.8869 22.8547 41.5268 23.2148C41.1675 23.5749 40.6701 23.797 40.1211 23.797H38.4961C37.3973 23.797 36.5066 22.9072 36.5066 21.8083C36.5066 21.5671 36.5495 21.3372 36.6272 21.123C36.7285 20.8494 36.8867 20.6047 37.0896 20.4019C37.4497 20.0417 37.9462 19.8188 38.4961 19.8188H40.1211C40.9787 19.8188 41.7095 20.3617 41.9892 21.123C42.067 21.3371 42.1098 21.5671 42.1098 21.8083Z" fill="#334353"/>
<path d="M41.9892 21.123C41.8879 21.3967 41.7297 21.6415 41.5268 21.8442C41.1675 22.2043 40.6702 22.4272 40.1211 22.4272H38.4961C37.6377 22.4272 36.9069 21.8844 36.6272 21.123C36.7286 20.8494 36.8868 20.6047 37.0896 20.4019C37.4497 20.0417 37.9463 19.8188 38.4961 19.8188H40.1211C40.9787 19.8187 41.7095 20.3615 41.9892 21.123Z" fill="#3E4E60"/>
<path d="M47.8856 23.3269C47.4619 23.3269 47.0375 23.1646 46.7143 22.8414L43.7217 19.8487C43.0746 19.2023 43.0746 18.1533 43.7217 17.5062C44.3634 16.8557 45.4334 16.8655 46.0642 17.5062L49.0569 20.4988C49.704 21.1459 49.704 22.195 49.0569 22.8414C48.7416 23.1562 48.3222 23.3262 47.8856 23.3269Z" fill="#EA792E"/>
<path d="M48.4875 23.2134C48.2801 23.1325 48.0864 23.0088 47.9189 22.8414L44.9263 19.8488C44.0804 19.0328 44.3984 17.5408 45.4949 17.1343C45.7023 17.2143 45.8967 17.3381 46.0642 17.5062L49.0568 20.4988C49.9029 21.3165 49.5846 22.8067 48.4875 23.2134Z" fill="#F39E22"/>
<path d="M45.7077 18.2001C45.7077 18.6237 45.5454 19.0482 45.2222 19.3714L42.2296 22.364C41.5832 23.0111 40.5341 23.0111 39.887 22.364C39.2365 21.7223 39.2464 20.6522 39.887 20.0214L42.8796 17.0288C43.5268 16.3817 44.5758 16.3817 45.2222 17.0288C45.5371 17.344 45.707 17.7634 45.7077 18.2001Z" fill="#C44A1A"/>
<path d="M45.5942 17.5982C45.5134 17.8056 45.3896 17.9993 45.2223 18.1668L42.2297 21.1594C41.4137 22.0052 39.9217 21.6873 39.5151 20.5908C39.5952 20.3834 39.7189 20.1889 39.8871 20.0215L42.8797 17.0289C43.6973 16.1828 45.1876 16.5011 45.5942 17.5982Z" fill="#DD5E26"/>
<path d="M44.7467 11.8077C44.7467 12.0709 44.6458 12.3346 44.445 12.5353L43.4616 13.5187C43.06 13.9208 42.4083 13.9208 42.0064 13.5187C41.6022 13.1201 41.6084 12.4554 42.0064 12.0635L42.9898 11.0801C43.6286 10.4321 44.7533 10.903 44.7467 11.8077Z" fill="#2E3140"/>
<path d="M44.6762 11.4335C44.6261 11.5624 44.5492 11.6827 44.4452 11.7867L43.4617 12.7702C42.9549 13.2957 42.0279 13.0981 41.7754 12.417C41.8252 12.2881 41.9021 12.1674 42.0065 12.0633L42.9899 11.0799C43.4978 10.5543 44.4236 10.752 44.6762 11.4335Z" fill="#334353"/>
<path d="M37.9561 16.1138C38.2651 16.4228 38.4188 16.8272 38.4188 17.232C38.4193 17.6363 38.2645 18.0407 37.9561 18.3493L37.0427 19.2626C36.4251 19.8802 35.4243 19.8807 34.8068 19.2631C34.6712 19.1275 34.5661 18.9742 34.4894 18.8102C34.3926 18.5993 34.344 18.3729 34.344 18.1449C34.344 17.74 34.4977 17.3357 34.8068 17.0267L35.7201 16.1133C36.2021 15.6313 36.9179 15.5257 37.503 15.7964C37.6671 15.8731 37.8204 15.9782 37.9561 16.1138Z" fill="#334353"/>
<path d="M37.5031 15.7964C37.5999 16.0073 37.6486 16.2337 37.6486 16.4617C37.649 16.866 37.4948 17.2709 37.1863 17.5795L36.2729 18.4928C35.7904 18.9753 35.0747 19.0809 34.4894 18.8102C34.3926 18.5993 34.344 18.3729 34.344 18.1449C34.344 17.74 34.4977 17.3357 34.8068 17.0267L35.7201 16.1133C36.2022 15.6313 36.918 15.5257 37.5031 15.7964Z" fill="#3E4E60"/>
<path d="M42.0556 13.721C41.8175 13.9591 41.4877 14.1064 41.1245 14.1064H37.7605C37.0334 14.1067 36.4439 13.5172 36.4439 12.7898C36.439 12.0635 37.0459 11.4676 37.7605 11.4732H41.1245C41.852 11.4732 42.4415 12.0628 42.4411 12.7898C42.4409 13.1439 42.3007 13.4752 42.0556 13.721Z" fill="#EA792E"/>
<path d="M42.3303 13.3189C42.1682 13.3902 41.9899 13.4294 41.8017 13.4294H38.4377C37.5037 13.4462 36.8438 12.4289 37.2315 11.5842C37.3931 11.5126 37.5719 11.4729 37.7605 11.4733H41.1245C42.0596 11.4573 42.7184 12.4739 42.3303 13.3189Z" fill="#F39E22"/>
<path d="M37.9504 12.0632C38.1886 12.3013 38.3359 12.6311 38.3359 12.9943V16.3583C38.3362 17.0854 37.7467 17.6749 37.0193 17.6749C36.293 17.6798 35.6971 17.0729 35.7027 16.3583V12.9943C35.7027 12.2668 36.2922 11.6773 37.0193 11.6777C37.3734 11.6779 37.7046 11.8181 37.9504 12.0632Z" fill="#C44A1A"/>
<path d="M37.5482 11.7887C37.6194 11.9508 37.6587 12.1291 37.6587 12.3173V15.6813C37.6754 16.6153 36.6581 17.2752 35.8134 16.8875C35.7418 16.7259 35.7021 16.5471 35.7026 16.3585V12.9946C35.6865 12.0594 36.703 11.4006 37.5482 11.7887Z" fill="#DD5E26"/>
<path d="M52.1026 32.8664C51.7988 33.0549 51.4222 33.1272 51.0467 33.0391L49.2076 32.6078C48.4561 32.432 47.9896 31.6798 48.1659 30.9279C48.3368 30.1761 49.1086 29.7073 49.8458 29.8862L51.6849 30.3176C52.8902 30.5915 53.1516 32.2267 52.1026 32.8664Z" fill="#2E3140"/>
<path d="M52.4837 32.5171C52.299 32.5515 52.1051 32.5488 51.9106 32.5032L50.0714 32.0718C49.102 31.8629 48.6666 30.6515 49.2721 29.8725C49.4564 29.8376 49.6508 29.84 49.8457 29.886L51.6849 30.3174C52.6553 30.5275 53.0897 31.7378 52.4837 32.5171Z" fill="#334353"/>
<path d="M42.2716 28.1104C42.136 28.6883 41.7794 29.1552 41.3121 29.445C40.8457 29.7349 40.2682 29.8457 39.6912 29.7104L37.9832 29.3099C36.8283 29.0391 36.1113 27.8842 36.3821 26.7293C36.4416 26.4757 36.5433 26.2446 36.6778 26.0387C36.8518 25.7761 37.0785 25.5579 37.3416 25.3946C37.8089 25.1048 38.3857 24.9929 38.9635 25.1285L40.6716 25.5291C41.5728 25.7405 42.2072 26.4912 42.3135 27.3604C42.3427 27.6046 42.331 27.8568 42.2716 28.1104Z" fill="#334353"/>
<path d="M42.3138 27.3604C42.1397 27.623 41.9131 27.8412 41.65 28.0044C41.1836 28.2945 40.6059 28.4061 40.0288 28.2708L38.3208 27.8702C37.4186 27.6586 36.7843 26.908 36.678 26.0387C36.852 25.7761 37.0786 25.5579 37.3417 25.3946C37.8091 25.1048 38.3859 24.9929 38.9637 25.1285L40.6717 25.5291C41.5731 25.7405 42.2075 26.4912 42.3138 27.3604Z" fill="#3E4E60"/>
<path d="M47.9679 31.1297C47.5226 31.0253 47.1166 30.7501 46.8565 30.3306L44.4487 26.4475C43.9278 25.6086 44.1864 24.506 45.026 23.9853C45.8609 23.4597 46.9832 23.7338 47.4883 24.5627L49.8961 28.4458C50.4168 29.2856 50.1583 30.3881 49.3187 30.908C48.9096 31.1615 48.4269 31.2366 47.9679 31.1297Z" fill="#EA792E"/>
<path d="M48.6286 31.159C48.4304 31.0229 48.2574 30.8451 48.1227 30.6279L45.7148 26.7447C45.0269 25.6787 45.7289 24.1888 46.9815 24.0317C47.1798 24.1671 47.3536 24.345 47.4881 24.5631L49.896 28.4462C50.5838 29.514 49.8819 31.0021 48.6286 31.159Z" fill="#F39E22"/>
<path d="M46.9427 25.2049C46.8383 25.6502 46.5631 26.0562 46.1436 26.3163L42.2605 28.7241C41.4216 29.245 40.3189 28.9864 39.7983 28.1467C39.2727 27.3119 39.5468 26.1896 40.3757 25.6845L44.2588 23.2767C45.0986 22.756 46.2011 23.0145 46.721 23.854C46.9744 24.263 47.0495 24.7457 46.9427 25.2049Z" fill="#C44A1A"/>
<path d="M46.9716 24.5439C46.8355 24.7421 46.6578 24.915 46.4405 25.0498L42.5574 27.4577C41.4912 28.1455 40.0014 27.4436 39.8442 26.191C39.9796 25.9927 40.1575 25.8189 40.3756 25.6844L44.2587 23.2765C45.3267 22.5887 46.8148 23.2906 46.9716 24.5439Z" fill="#DD5E26"/>
<path d="M46.2387 41.837C45.8892 41.9117 45.5103 41.8524 45.1867 41.6426L43.6015 40.615C42.9537 40.1956 42.7689 39.3299 43.189 38.682C43.604 38.0322 44.4888 37.8518 45.1222 38.2695L46.7074 39.2971C47.7489 39.962 47.4422 41.5894 46.2387 41.837Z" fill="#2E3140"/>
<path d="M46.7155 41.6371C46.5301 41.607 46.3484 41.5389 46.1809 41.4302L44.5957 40.4026C43.754 39.8783 43.7536 38.591 44.5868 38.0625C44.772 38.092 44.9543 38.1599 45.1219 38.2692L46.7071 39.2968C47.5494 39.8225 47.5491 41.1084 46.7155 41.6371Z" fill="#334353"/>
<path d="M38.5942 34.0375C38.2713 34.5356 37.7777 34.8546 37.2401 34.9693C36.7031 35.0845 36.1221 34.9935 35.6249 34.6712L34.1528 33.7169C33.1574 33.0717 32.873 31.7424 33.5183 30.747C33.66 30.5285 33.8338 30.3454 34.0301 30.1971C34.2826 30.0087 34.5696 29.8799 34.8725 29.8153C35.4103 29.7005 35.991 29.7902 36.489 30.113L37.9611 31.0673C38.738 31.5708 39.0812 32.4918 38.8875 33.3458C38.8321 33.5855 38.7359 33.819 38.5942 34.0375Z" fill="#334353"/>
<path d="M38.8874 33.3458C38.6348 33.5341 38.3477 33.6629 38.0449 33.7276C37.508 33.8429 36.9265 33.7526 36.4291 33.4303L34.957 32.476C34.1794 31.9719 33.8361 31.051 34.0298 30.1971C34.2824 30.0087 34.5694 29.8799 34.8723 29.8153C35.4101 29.7005 35.9907 29.7902 36.4888 30.113L37.9609 31.0673C38.7378 31.5708 39.0811 32.4917 38.8874 33.3458Z" fill="#3E4E60"/>
<path d="M42.9345 38.8052C42.5507 38.5564 42.2616 38.1601 42.1586 37.6775L41.2049 33.209C40.9983 32.2434 41.6143 31.2931 42.5806 31.0869C43.544 30.8744 44.5075 31.5117 44.7028 32.4625L45.6564 36.931C45.8627 37.8973 45.2466 38.8476 44.2808 39.0531C43.8103 39.1532 43.3305 39.0609 42.9345 38.8052Z" fill="#EA792E"/>
<path d="M43.5465 39.0559C43.406 38.8609 43.3032 38.6351 43.2499 38.385L42.2962 33.9165C42.0091 32.6807 43.1734 31.5157 44.4054 31.7913C44.5462 31.9857 44.6497 32.2119 44.7026 32.4626L45.6562 36.9311C45.9426 38.1686 44.7791 39.3319 43.5465 39.0559Z" fill="#F39E22"/>
<path d="M43.9724 32.8818C43.7236 33.2656 43.3273 33.5547 42.8447 33.6577L38.3762 34.6114C37.4106 34.818 36.4603 34.2021 36.2541 33.2357C36.0416 32.2723 36.6789 31.3088 37.6298 31.1136L42.0982 30.1599C43.0646 29.9537 44.0148 30.5697 44.2204 31.5356C44.3206 32.0061 44.2281 32.4858 43.9724 32.8818Z" fill="#C44A1A"/>
<path d="M44.2231 32.2698C44.0281 32.4103 43.8023 32.5131 43.5522 32.5664L39.0838 33.5201C37.8479 33.8072 36.6829 32.6429 36.9586 31.4109C37.153 31.2701 37.3792 31.1666 37.6298 31.1137L42.0983 30.1601C43.3359 29.8737 44.4991 31.0372 44.2231 32.2698Z" fill="#DD5E26"/>
<path d="M8.01886 24.0184C8.253 24.2526 8.57726 24.3974 8.93456 24.3974H10.6844C11.3992 24.3978 11.979 23.818 11.979 23.1028C11.9839 22.3887 11.3871 21.8028 10.6843 21.8081H8.93444C7.78976 21.8002 7.20815 23.2195 8.01886 24.0184Z" fill="#2E3140"/>
<path d="M7.74898 23.6231C7.90836 23.693 8.08367 23.7317 8.26871 23.7317H10.0186C10.937 23.7482 11.5858 22.7479 11.2046 21.9173C11.0457 21.8468 10.8699 21.8078 10.6844 21.8083H8.93457C8.01512 21.7926 7.3673 22.7921 7.74898 23.6231Z" fill="#334353"/>
<path d="M17.8906 21.8083C17.8906 22.3582 18.1135 22.8547 18.4736 23.2148C18.8329 23.5749 19.3303 23.797 19.8793 23.797H21.5043C22.6031 23.797 23.4938 22.9072 23.4938 21.8083C23.4938 21.5671 23.4509 21.3372 23.3732 21.123C23.2719 20.8494 23.1137 20.6047 22.9108 20.4019C22.5507 20.0417 22.0542 19.8188 21.5043 19.8188H19.8793C19.0217 19.8188 18.2909 20.3617 18.0112 21.123C17.9334 21.3371 17.8906 21.5671 17.8906 21.8083Z" fill="#334353"/>
<path d="M18.0112 21.123C18.1126 21.3967 18.2708 21.6415 18.4737 21.8442C18.833 22.2043 19.3303 22.4272 19.8793 22.4272H21.5044C22.3628 22.4272 23.0935 21.8844 23.3733 21.123C23.2719 20.8494 23.1137 20.6047 22.9108 20.4019C22.5507 20.0417 22.0542 19.8188 21.5044 19.8188H19.8793C19.0217 19.8187 18.291 20.3615 18.0112 21.123Z" fill="#3E4E60"/>
<path d="M12.1149 23.3269C12.5385 23.3269 12.963 23.1646 13.2862 22.8414L16.2788 19.8487C16.9259 19.2023 16.9259 18.1533 16.2788 17.5062C15.6371 16.8557 14.567 16.8655 13.9362 17.5062L10.9436 20.4988C10.2965 21.1459 10.2965 22.195 10.9436 22.8414C11.2588 23.1562 11.6782 23.3262 12.1149 23.3269Z" fill="#EA792E"/>
<path d="M11.513 23.2134C11.7204 23.1325 11.9141 23.0088 12.0816 22.8414L15.0742 19.8488C15.92 19.0328 15.6021 17.5408 14.5056 17.1343C14.2982 17.2143 14.1037 17.3381 13.9363 17.5062L10.9437 20.4988C10.0976 21.3165 10.4158 22.8067 11.513 23.2134Z" fill="#F39E22"/>
<path d="M14.2925 18.2001C14.2925 18.6237 14.4548 19.0482 14.778 19.3714L17.7706 22.364C18.417 23.0111 19.4661 23.0111 20.1132 22.364C20.7637 21.7223 20.7538 20.6522 20.1132 20.0214L17.1206 17.0288C16.4735 16.3817 15.4244 16.3817 14.778 17.0288C14.4631 17.344 14.2932 17.7634 14.2925 18.2001Z" fill="#C44A1A"/>
<path d="M14.406 17.5982C14.4869 17.8056 14.6106 17.9993 14.778 18.1668L17.7706 21.1594C18.5866 22.0052 20.0786 21.6873 20.4851 20.5908C20.4051 20.3834 20.2813 20.1889 20.1132 20.0215L17.1205 17.0289C16.3029 16.1828 14.8126 16.5011 14.406 17.5982Z" fill="#DD5E26"/>
<path d="M15.2534 11.8077C15.2534 12.0709 15.3543 12.3346 15.5551 12.5353L16.5385 13.5187C16.9401 13.9208 17.5918 13.9208 17.9938 13.5187C18.3979 13.1201 18.3917 12.4554 17.9938 12.0635L17.0103 11.0801C16.3715 10.4321 15.2469 10.903 15.2534 11.8077Z" fill="#2E3140"/>
<path d="M15.324 11.4335C15.3741 11.5624 15.451 11.6827 15.5551 11.7867L16.5385 12.7702C17.0453 13.2957 17.9723 13.0981 18.2248 12.417C18.1751 12.2881 18.0982 12.1674 17.9937 12.0633L17.0103 11.0799C16.5024 10.5543 15.5766 10.752 15.324 11.4335Z" fill="#334353"/>
<path d="M22.0441 16.1138C21.7351 16.4228 21.5813 16.8272 21.5813 17.232C21.5808 17.6363 21.7356 18.0407 22.0441 18.3493L22.9574 19.2626C23.575 19.8802 24.5758 19.8807 25.1934 19.2631C25.329 19.1275 25.4341 18.9742 25.5107 18.8102C25.6075 18.5993 25.6561 18.3729 25.6561 18.1449C25.6561 17.74 25.5024 17.3357 25.1934 17.0267L24.28 16.1133C23.798 15.6313 23.0822 15.5257 22.4971 15.7964C22.3331 15.8731 22.1798 15.9782 22.0441 16.1138Z" fill="#334353"/>
<path d="M22.4972 15.7964C22.4004 16.0073 22.3518 16.2337 22.3518 16.4617C22.3513 16.866 22.5056 17.2709 22.8141 17.5795L23.7275 18.4928C24.2099 18.9753 24.9257 19.0809 25.5109 18.8102C25.6077 18.5993 25.6564 18.3729 25.6564 18.1449C25.6564 17.74 25.5026 17.3357 25.1936 17.0267L24.2802 16.1133C23.7981 15.6313 23.0824 15.5257 22.4972 15.7964Z" fill="#3E4E60"/>
<path d="M17.9443 13.721C18.1824 13.9591 18.5122 14.1064 18.8754 14.1064H22.2394C22.9665 14.1067 23.556 13.5172 23.556 12.7898C23.5609 12.0635 22.954 11.4676 22.2394 11.4732H18.8754C18.1479 11.4732 17.5584 12.0628 17.5588 12.7898C17.559 13.1439 17.6992 13.4752 17.9443 13.721Z" fill="#EA792E"/>
<path d="M17.6698 13.3189C17.8319 13.3902 18.0102 13.4294 18.1984 13.4294H21.5624C22.4964 13.4462 23.1563 12.4289 22.7686 11.5842C22.607 11.5126 22.4282 11.4729 22.2396 11.4733H18.8757C17.9405 11.4573 17.2817 12.4739 17.6698 13.3189Z" fill="#F39E22"/>
<path d="M22.0497 12.0632C21.8116 12.3013 21.6643 12.6311 21.6643 12.9943V16.3583C21.664 17.0854 22.2535 17.6749 22.9809 17.6749C23.7072 17.6798 24.3031 17.0729 24.2975 16.3583V12.9943C24.2975 12.2668 23.7079 11.6773 22.9809 11.6777C22.6268 11.6779 22.2956 11.8181 22.0497 12.0632Z" fill="#C44A1A"/>
<path d="M22.452 11.7887C22.3808 11.9508 22.3415 12.1291 22.3415 12.3173V15.6813C22.3248 16.6153 23.3421 17.2752 24.1867 16.8875C24.2583 16.7259 24.2981 16.5471 24.2976 16.3585V12.9946C24.3137 12.0594 23.2972 11.4006 22.452 11.7887Z" fill="#DD5E26"/>
<path d="M7.89752 32.8664C8.20127 33.0549 8.57779 33.1272 8.95338 33.0391L10.7925 32.6078C11.544 32.432 12.0104 31.6798 11.8342 30.9279C11.6633 30.1761 10.8915 29.7073 10.1543 29.8862L8.31517 30.3176C7.1099 30.5915 6.84845 32.2267 7.89752 32.8664Z" fill="#2E3140"/>
<path d="M7.51626 32.5171C7.70095 32.5515 7.8949 32.5488 8.08943 32.5032L9.92857 32.0718C10.8979 31.8629 11.3334 30.6515 10.7279 29.8725C10.5436 29.8376 10.3492 29.84 10.1543 29.886L8.31513 30.3174C7.3447 30.5275 6.91029 31.7378 7.51626 32.5171Z" fill="#334353"/>
<path d="M17.7283 28.1104C17.8639 28.6883 18.2205 29.1552 18.6879 29.445C19.1543 29.7349 19.7318 29.8457 20.3088 29.7104L22.0168 29.3099C23.1717 29.0391 23.8886 27.8842 23.6178 26.7293C23.5584 26.4757 23.4567 26.2446 23.3222 26.0387C23.1481 25.7761 22.9215 25.5579 22.6584 25.3946C22.1911 25.1048 21.6143 24.9929 21.0364 25.1285L19.3284 25.5291C18.4271 25.7405 17.7928 26.4912 17.6865 27.3604C17.6573 27.6046 17.6689 27.8568 17.7283 28.1104Z" fill="#334353"/>
<path d="M17.6863 27.3604C17.8603 27.623 18.0869 27.8412 18.35 28.0044C18.8164 28.2945 19.3942 28.4061 19.9712 28.2708L21.6792 27.8702C22.5814 27.6586 23.2158 26.908 23.3221 26.0387C23.148 25.7761 22.9214 25.5579 22.6583 25.3946C22.191 25.1048 21.6142 24.9929 21.0363 25.1285L19.3283 25.5291C18.4269 25.7405 17.7926 26.4912 17.6863 27.3604Z" fill="#3E4E60"/>
<path d="M12.032 31.1297C12.4773 31.0253 12.8834 30.7501 13.1434 30.3306L15.5513 26.4475C16.0722 25.6086 15.8135 24.506 14.9739 23.9853C14.139 23.4597 13.0167 23.7338 12.5117 24.5627L10.1038 28.4458C9.58314 29.2856 9.84166 30.3881 10.6812 30.908C11.0903 31.1615 11.573 31.2366 12.032 31.1297Z" fill="#EA792E"/>
<path d="M11.3713 31.159C11.5695 31.0229 11.7425 30.8451 11.8772 30.6279L14.2851 26.7447C14.973 25.6787 14.271 24.1888 13.0184 24.0317C12.8201 24.1671 12.6463 24.345 12.5118 24.5631L10.104 28.4462C9.41608 29.514 10.118 31.0021 11.3713 31.159Z" fill="#F39E22"/>
<path d="M13.0573 25.2049C13.1618 25.6502 13.437 26.0562 13.8564 26.3163L17.7396 28.7241C18.5785 29.245 19.6811 28.9864 20.2018 28.1467C20.7274 27.3119 20.4533 26.1896 19.6244 25.6845L15.7413 23.2767C14.9015 22.756 13.799 23.0145 13.2791 23.854C13.0257 24.263 12.9506 24.7457 13.0573 25.2049Z" fill="#C44A1A"/>
<path d="M13.0283 24.5439C13.1644 24.7421 13.3421 24.915 13.5594 25.0498L17.4425 27.4577C18.5086 28.1455 19.9985 27.4436 20.1555 26.191C20.0202 25.9927 19.8423 25.8189 19.6242 25.6844L15.7411 23.2765C14.6732 22.5887 13.1851 23.2906 13.0283 24.5439Z" fill="#DD5E26"/>
<path d="M13.7612 41.837C14.1108 41.9117 14.4896 41.8524 14.8132 41.6426L16.3984 40.615C17.0462 40.1956 17.231 39.3299 16.8109 38.682C16.3959 38.0322 15.5112 37.8518 14.8778 38.2695L13.2926 39.2971C12.251 39.962 12.5577 41.5894 13.7612 41.837Z" fill="#2E3140"/>
<path d="M13.2845 41.6371C13.4699 41.607 13.6515 41.5389 13.8191 41.4302L15.4043 40.4026C16.2459 39.8783 16.2464 38.591 15.4132 38.0625C15.2279 38.092 15.0457 38.1599 14.878 38.2692L13.2928 39.2968C12.4506 39.8225 12.4508 41.1084 13.2845 41.6371Z" fill="#334353"/>
<path d="M21.4059 34.0375C21.7288 34.5356 22.2224 34.8546 22.76 34.9693C23.297 35.0845 23.878 34.9935 24.3752 34.6712L25.8473 33.7169C26.8427 33.0717 27.1271 31.7424 26.4818 30.747C26.3401 30.5285 26.1663 30.3454 25.97 30.1971C25.7175 30.0087 25.4305 29.8799 25.1276 29.8153C24.5898 29.7005 24.0091 29.7902 23.5111 30.113L22.039 31.0673C21.2621 31.5708 20.9189 32.4918 21.1126 33.3458C21.168 33.5855 21.2642 33.819 21.4059 34.0375Z" fill="#334353"/>
<path d="M21.1128 33.3458C21.3654 33.5341 21.6525 33.6629 21.9553 33.7276C22.4923 33.8429 23.0737 33.7526 23.5711 33.4303L25.0432 32.476C25.8209 31.9719 26.1641 31.051 25.9704 30.1971C25.7178 30.0087 25.4309 29.8799 25.1279 29.8153C24.5902 29.7005 24.0095 29.7902 23.5114 30.113L22.0393 31.0673C21.2624 31.5708 20.9191 32.4917 21.1128 33.3458Z" fill="#3E4E60"/>
<path d="M17.0654 38.8052C17.4492 38.5564 17.7383 38.1601 17.8413 37.6775L18.795 33.209C19.0016 32.2434 18.3856 31.2931 17.4193 31.0869C16.4559 30.8744 15.4924 31.5117 15.2972 32.4625L14.3435 36.931C14.1372 37.8973 14.7533 38.8476 15.7192 39.0531C16.1897 39.1532 16.6694 39.0609 17.0654 38.8052Z" fill="#EA792E"/>
<path d="M16.4534 39.0559C16.5939 38.8609 16.6967 38.6351 16.75 38.385L17.7037 33.9165C17.9908 32.6807 16.8265 31.5157 15.5945 31.7913C15.4537 31.9857 15.3502 32.2119 15.2973 32.4626L14.3437 36.9311C14.0573 38.1686 15.2208 39.3319 16.4534 39.0559Z" fill="#F39E22"/>
<path d="M16.0278 32.8818C16.2766 33.2656 16.6729 33.5547 17.1555 33.6577L21.624 34.6114C22.5896 34.818 23.5399 34.2021 23.7461 33.2357C23.9586 32.2723 23.3213 31.3088 22.3705 31.1136L17.902 30.1599C16.9357 29.9537 15.9854 30.5697 15.7798 31.5356C15.6797 32.0061 15.7721 32.4858 16.0278 32.8818Z" fill="#C44A1A"/>
<path d="M15.7771 32.2698C15.9721 32.4103 16.1979 32.5131 16.448 32.5664L20.9164 33.5201C22.1523 33.8072 23.3173 32.6429 23.0416 31.4109C22.8472 31.2701 22.6211 31.1666 22.3704 31.1137L17.9019 30.1601C16.6643 29.8737 15.5011 31.0372 15.7771 32.2698Z" fill="#DD5E26"/>
</g>
<defs>
<clipPath id="clip0_1123_25537">
<rect width="60" height="60" fill="white"/>
</clipPath>
</defs>
</svg>
