<svg width="60" height="60" viewBox="0 0 60 60" fill="none" xmlns="http://www.w3.org/2000/svg">
<g clip-path="url(#clip0_1123_22960)">
<path d="M30 60C46.5685 60 60 46.5685 60 30C60 13.4315 46.5685 0 30 0C13.4315 0 0 13.4315 0 30C0 46.5685 13.4315 60 30 60Z" fill="#22BCE0"/>
<path d="M57.1781 19.4162L57.3771 20.3666C58.0114 23.3956 56.0698 26.366 53.0406 27.0003L44.1887 28.854C42.598 29.187 41.0391 28.168 40.7061 26.5783C40.5609 25.8852 40.6731 25.1904 40.9841 24.601C41.2961 24.0116 41.8077 23.5272 42.4607 23.2563L48.4886 20.763L54.7927 18.1556C55.8075 17.7357 56.9532 18.3418 57.1781 19.4162Z" fill="white"/>
<path d="M57.1782 19.4162L57.3772 20.3666C58.0115 23.3956 56.0699 26.366 53.0407 27.0003L52.774 27.0562C50.6893 25.8412 49.1069 23.7816 48.5734 21.2339C48.5404 21.0768 48.5116 20.92 48.4885 20.763L54.7926 18.1556C55.8076 17.7357 56.9533 18.3418 57.1782 19.4162Z" fill="#3E4E60"/>
<path d="M52.0588 25.653L44.7416 27.9197L44.4235 28.0179C44.3597 28.0382 44.2959 28.0545 44.2317 28.068C43.1924 28.2856 42.1384 27.679 41.8181 26.6445C41.4785 25.5459 42.093 24.3796 43.1915 24.0389L50.583 21.7498L50.8258 21.6742C50.8897 21.6539 50.9535 21.6377 51.0177 21.6242C52.057 21.4066 53.1108 22.0122 53.4313 23.0477C53.7718 24.1462 53.1573 25.3124 52.0588 25.653Z" fill="#F4829B"/>
<path d="M52.0586 25.6531L44.7415 27.9198C45.5224 25.3179 47.6612 23.0201 50.5828 21.7498L50.8256 21.6742C50.8895 21.6539 50.9532 21.6377 51.0174 21.6242C52.0568 21.4066 53.1105 22.0122 53.431 23.0477C53.7717 24.1463 53.1572 25.3125 52.0586 25.6531Z" fill="#FF9FB4"/>
<path d="M2.822 19.4162L2.62302 20.3666C1.98868 23.3956 3.93036 26.366 6.95954 27.0003L15.8114 28.854C17.4021 29.187 18.9611 28.168 19.294 26.5783C19.4392 25.8852 19.327 25.1904 19.016 24.601C18.7041 24.0116 18.1924 23.5272 17.5395 23.2563L11.5116 20.763L5.20747 18.1556C4.19263 17.7357 3.04689 18.3418 2.822 19.4162Z" fill="#EBD9EA"/>
<path d="M2.822 19.4162L2.62302 20.3666C1.98868 23.3956 3.93036 26.366 6.95954 27.0003L7.22626 27.0562C9.31091 25.8412 10.8933 23.7816 11.4268 21.2339C11.4598 21.0768 11.4886 20.92 11.5117 20.763L5.20759 18.1556C4.19263 17.7357 3.04689 18.3418 2.822 19.4162Z" fill="#2E3140"/>
<path d="M7.94153 25.653L15.2587 27.9197L15.5768 28.0179C15.6406 28.0382 15.7044 28.0545 15.7686 28.068C16.8079 28.2856 17.8619 27.679 18.1822 26.6445C18.5218 25.5459 17.9073 24.3796 16.8088 24.0389L9.41727 21.7498L9.17446 21.6742C9.11059 21.6539 9.04684 21.6377 8.98262 21.6242C7.94329 21.4066 6.88954 22.0122 6.56903 23.0477C6.22848 24.1462 6.84301 25.3124 7.94153 25.653Z" fill="#EE6781"/>
<path d="M7.94147 25.6531L15.2587 27.9198C14.4777 25.3179 12.3389 23.0201 9.41733 21.7498L9.17451 21.6742C9.11065 21.6539 9.0469 21.6377 8.98268 21.6242C7.94334 21.4066 6.88959 22.0122 6.56908 23.0477C6.22842 24.1463 6.84295 25.3125 7.94147 25.6531Z" fill="#F4829B"/>
<path d="M42.8874 25.6222L39.1663 49.0767C38.6238 52.4965 35.6749 55.015 32.2121 55.015H27.788C24.3252 55.015 21.3762 52.4965 20.8338 49.0767L17.1127 25.6222C16.7123 23.1063 17.9122 20.7547 19.8999 19.5131C20.0759 19.4036 20.2468 19.2848 20.4099 19.1584C21.182 18.5688 21.8133 17.8137 22.2868 16.9568C23.2024 15.3029 24.9644 14.1826 26.9886 14.1826H33.0117C35.0358 14.1826 36.7979 15.3029 37.7135 16.9568C38.1869 17.8137 38.8182 18.5688 39.5903 19.1584C39.7533 19.285 39.9242 19.4036 40.1003 19.5131C40.9298 20.0323 41.6224 20.743 42.1181 21.5804C42.8105 22.7463 43.1209 24.1562 42.8874 25.6222Z" fill="#EBD9EA"/>
<path d="M42.8873 25.622L39.1663 49.0765C38.6237 52.4963 35.6748 55.0147 32.212 55.0147H30V25.978C30 23.5495 31.9695 21.5801 34.3979 21.5801H42.1179C42.8105 22.7461 43.1209 24.156 42.8873 25.622Z" fill="white"/>
<path d="M32.4479 15.1445H27.5525C26.4875 15.1445 25.624 16.008 25.624 17.073C25.624 18.138 26.4875 19.0014 27.5525 19.0014H32.4479C33.5129 19.0014 34.3763 18.138 34.3763 17.073C34.3763 16.008 33.5129 15.1445 32.4479 15.1445Z" fill="white"/>
<path d="M42.8872 25.6221L39.1661 49.0766H35.8833C34.3495 49.0766 33.057 47.9302 32.8757 46.4069L31.7358 36.8734C31.5542 35.3542 31.4631 33.8256 31.4631 32.2956V30.9489C31.4631 30.1129 31.8023 29.3552 32.35 28.8073C32.9066 28.252 33.6777 27.9112 34.5275 27.9205C36.1888 27.9391 37.5214 26.5393 37.5214 24.8777V22.0302C37.5214 20.6934 38.3874 19.5586 39.59 19.1582C39.753 19.2848 39.9238 19.4034 40.1 19.5129C42.0877 20.7546 43.2876 23.1063 42.8872 25.6221Z" fill="#3E4E60"/>
<path d="M28.5366 30.9488V32.2955C28.5366 33.8255 28.4456 35.3542 28.2639 36.8733L27.1242 46.4068C26.9429 47.9301 25.6503 49.0765 24.1165 49.0765H20.8338L17.1127 25.622C16.7123 23.1061 17.9122 20.7545 19.8999 19.5129C20.0759 19.4034 20.2468 19.2846 20.4099 19.1582C21.6125 19.5586 22.4785 20.6934 22.4785 22.0302V24.8777C22.4785 26.5391 23.811 27.9391 25.4724 27.9205C26.3221 27.9111 27.0932 28.252 27.6499 28.8073C28.1975 29.3549 28.5366 30.1128 28.5366 30.9488Z" fill="#2E3140"/>
<path d="M20.4564 46.6986H22.2768C23.9252 46.6986 25.3136 45.4665 25.5093 43.8297L25.9573 40.0842C26.1891 38.1467 24.6761 36.4419 22.7248 36.4419H18.8291L20.4564 46.6986Z" fill="#3E4E60"/>
<path d="M39.5437 46.6986H37.7233C36.0748 46.6986 34.6865 45.4665 34.4908 43.8297L34.0428 40.0842C33.811 38.1467 35.324 36.4419 37.2753 36.4419H41.1709L39.5437 46.6986Z" fill="#3F5D77"/>
<path d="M40.0844 27.9203C39.3084 27.9203 38.6792 27.2911 38.6792 26.5151V23.1991C38.6792 22.4231 39.3084 21.7939 40.0844 21.7939C40.8604 21.7939 41.4896 22.4231 41.4896 23.1991V26.5151C41.4896 27.2911 40.8604 27.9203 40.0844 27.9203Z" fill="#3F5D77"/>
<path d="M19.9154 27.9203C19.1394 27.9203 18.5103 27.2911 18.5103 26.5151V23.1991C18.5103 22.4231 19.1394 21.7939 19.9154 21.7939C20.6915 21.7939 21.3206 22.4231 21.3206 23.1991V26.5151C21.3206 27.2911 20.6916 27.9203 19.9154 27.9203Z" fill="#3E4E60"/>
<path d="M55.5462 23.4694H55.027C54.5984 23.4694 54.2298 23.1655 54.1482 22.7446L53.705 20.4592C53.6073 19.9549 53.9529 19.472 54.4617 19.4019L55.4241 19.2693C55.9619 19.1952 56.4415 19.6131 56.4415 20.1561V22.5742C56.4414 23.0686 56.0406 23.4694 55.5462 23.4694Z" fill="#3F5D77"/>
<path d="M4.43901 23.4694H4.95815C5.38683 23.4694 5.75538 23.1655 5.83694 22.7446L6.28015 20.4592C6.37788 19.9549 6.03229 19.472 5.52347 19.4019L4.56112 19.2693C4.02323 19.1952 3.5437 19.6131 3.5437 20.1561V22.5742C3.54382 23.0686 3.9446 23.4694 4.43901 23.4694Z" fill="#3E4E60"/>
<path d="M45.7178 12.762C45.7178 14.9427 45.5456 16.7126 44.8869 18.0063C44.0626 19.6249 42.4753 20.4988 39.5043 20.4988C36.6036 20.4988 35.5693 19.2689 35.5693 17.8133C35.5693 16.5143 36.6245 15.5009 37.8297 15.5009C38.4282 15.5009 38.95 15.4487 39.4025 15.3521C43.974 14.3818 41.3629 8.89992 38.5104 6.98273C35.9566 5.2677 37.9508 4.68457 38.9447 4.68457C39.9386 4.68469 45.7178 7.85273 45.7178 12.762Z" fill="#B26E2B"/>
<path d="M45.7177 12.762C45.7177 14.9427 45.5455 16.7126 44.8868 18.0063C44.7511 18.0168 44.6129 18.022 44.4746 18.022C42.5535 18.022 40.7888 17.0217 39.4024 15.3521C41.4606 14.9153 42.0631 13.564 41.8427 12.0354C41.574 10.1689 40.0781 8.03789 38.5104 6.98273C35.9566 5.2677 37.9508 4.68457 38.9447 4.68457C39.7664 4.68457 43.8539 6.84703 45.2495 10.3685C45.5428 11.1095 45.7177 11.9091 45.7177 12.762Z" fill="#C68132"/>
<path d="M45.2495 10.3685C44.2739 11.0807 43.1196 11.6505 41.8427 12.0354C41.574 10.1689 40.0781 8.03789 38.5104 6.98273C35.9566 5.2677 37.9508 4.68457 38.9447 4.68457C39.7664 4.68457 43.8539 6.84703 45.2495 10.3685Z" fill="#DD8C29"/>
<path d="M43.7985 16.1703C43.7645 16.1703 43.7301 16.1665 43.6956 16.1585C43.4499 16.1019 43.2966 15.8569 43.3532 15.6112C44.2682 11.6397 43.0862 10.1025 40.9184 7.72709C40.7485 7.54088 40.7616 7.25213 40.9478 7.08221C41.134 6.91229 41.4229 6.92541 41.5927 7.11162C43.9056 9.6458 45.2382 11.4962 44.2429 15.8161C44.1944 16.0274 44.0064 16.1703 43.7985 16.1703Z" fill="#FBCB74"/>
<path d="M44.1059 13.1561C43.8674 13.1561 43.6666 12.9708 43.6508 12.7294C43.5629 11.3874 43.089 10.3008 42.0149 8.97929C41.8559 8.7837 41.8855 8.49612 42.0812 8.3371C42.2768 8.17819 42.5645 8.20773 42.7234 8.40343C43.6042 9.48706 44.4364 10.7539 44.562 12.6698C44.5784 12.9214 44.3878 13.1386 44.1362 13.1551C44.126 13.1559 44.1158 13.1561 44.1059 13.1561Z" fill="white"/>
<path d="M14.2825 12.762C14.2825 14.9427 14.4546 16.7126 15.1133 18.0063C15.9376 19.6249 17.5249 20.4988 20.496 20.4988C23.3966 20.4988 24.4309 19.2689 24.4309 17.8133C24.4309 16.5143 23.3758 15.5009 22.1706 15.5009C21.572 15.5009 21.0503 15.4487 20.5977 15.3521C16.0262 14.3818 18.6374 8.89992 21.4899 6.98273C24.0436 5.2677 22.0494 4.68457 21.0556 4.68457C20.0617 4.68457 14.2825 7.85273 14.2825 12.762Z" fill="#B26E2B"/>
<path d="M14.2825 12.762C14.2825 14.9427 14.4546 16.7126 15.1133 18.0063C15.249 18.0168 15.3872 18.022 15.5255 18.022C17.4467 18.022 19.2113 17.0217 20.5977 15.3521C18.5395 14.9153 17.937 13.564 18.1574 12.0354C18.4261 10.1689 19.922 8.03789 21.4897 6.98273C24.0435 5.2677 22.0493 4.68457 21.0554 4.68457C20.2337 4.68457 16.1462 6.84703 14.7506 10.3685C14.4573 11.1095 14.2825 11.9091 14.2825 12.762Z" fill="#C68132"/>
<path d="M14.7507 10.3685C15.7263 11.0807 16.8806 11.6505 18.1575 12.0354C18.4262 10.1689 19.9221 8.03789 21.4898 6.98273C24.0436 5.2677 22.0494 4.68457 21.0555 4.68457C20.2338 4.68457 16.1463 6.84703 14.7507 10.3685Z" fill="#DD8C29"/>
<path d="M16.2017 16.1703C16.2357 16.1703 16.2701 16.1665 16.3046 16.1585C16.5503 16.1019 16.7036 15.8569 16.647 15.6112C15.732 11.6397 16.9139 10.1025 19.0818 7.72709C19.2517 7.54088 19.2386 7.25213 19.0524 7.08221C18.8662 6.91229 18.5773 6.92541 18.4075 7.11162C16.0946 9.6458 14.762 11.4962 15.7573 15.8161C15.8058 16.0274 15.9938 16.1703 16.2017 16.1703Z" fill="#FBCB74"/>
<path d="M15.8946 13.1561C16.1331 13.1561 16.3338 12.9708 16.3496 12.7294C16.4375 11.3874 16.9114 10.3008 17.9856 8.97929C18.1446 8.7837 18.1149 8.49612 17.9192 8.3371C17.7236 8.17819 17.4359 8.20773 17.277 8.40343C16.3963 9.48706 15.564 10.7539 15.4385 12.6698C15.4221 12.9214 15.6126 13.1386 15.8642 13.1551C15.8744 13.1559 15.8846 13.1561 15.8946 13.1561Z" fill="white"/>
<path d="M36.9497 50.8637L35.8553 52.1124C35.1587 52.9078 34.2689 53.5378 33.2671 53.9687C32.2636 54.401 31.1497 54.634 30.0001 54.634C27.7025 54.634 25.5381 53.7017 24.145 52.1124L23.0505 50.8637C22.4092 50.1319 23.0084 49.0767 24.067 49.0767H35.9333C36.992 49.0765 37.591 50.1318 36.9497 50.8637Z" fill="#EE6781"/>
<path d="M36.9496 50.8638L35.8552 52.1125C35.1586 52.9079 34.2688 53.5379 33.267 53.9688C32.2635 54.4011 31.1496 54.6342 30 54.6342V49.0767H35.9332C36.9919 49.0767 37.5909 50.1319 36.9496 50.8638Z" fill="#F4829B"/>
<path d="M31.7516 49.0767H28.2486C27.7676 49.0767 27.3777 49.4667 27.3777 49.9476C27.3777 50.4287 27.7677 50.8185 28.2486 50.8185H31.7516C32.2326 50.8185 32.6225 50.4285 32.6225 49.9476C32.6226 49.4667 32.2326 49.0767 31.7516 49.0767Z" fill="#FF9FB4"/>
<path d="M34.3265 49.5688H34.2043C33.7361 49.5688 33.3567 49.9483 33.3567 50.4165V51.2206C33.3567 51.6888 33.7361 52.0682 34.2043 52.0682H34.3265C34.7947 52.0682 35.1742 51.6888 35.1742 51.2206V50.4165C35.1742 49.9483 34.7946 49.5688 34.3265 49.5688Z" fill="#3E4E60"/>
<path d="M25.7958 49.5688H25.6735C25.2054 49.5688 24.8259 49.9483 24.8259 50.4165V51.2206C24.8259 51.6888 25.2054 52.0682 25.6735 52.0682H25.7958C26.2639 52.0682 26.6434 51.6888 26.6434 51.2206V50.4165C26.6435 49.9483 26.2639 49.5688 25.7958 49.5688Z" fill="#2E3140"/>
<path d="M37.4436 29.2237L35.4071 29.7695C34.2976 30.0668 33.6391 31.2072 33.9364 32.3168L34.2032 33.3125C34.5005 34.4221 35.641 35.0805 36.7505 34.7832L38.787 34.2375C39.8965 33.9402 40.555 32.7997 40.2577 31.6902L39.9909 30.6944C39.6936 29.5849 38.5531 28.9264 37.4436 29.2237Z" fill="white"/>
<path d="M39.3013 31.4136C39.5413 32.3093 39.0167 33.2289 38.1266 33.4796C38.1193 33.4828 38.1118 33.4848 38.1042 33.4869L36.9665 33.7918C36.5155 33.9126 36.0572 33.8397 35.6817 33.6229C35.3051 33.4064 35.013 33.0473 34.8919 32.595C34.6667 31.7547 35.1147 30.8921 35.9052 30.5816C35.9649 30.5575 36.0268 30.5369 36.0899 30.52L37.2275 30.2152C37.6797 30.094 38.1372 30.1685 38.5126 30.3853C38.8881 30.602 39.1801 30.9612 39.3013 31.4136Z" fill="#3E4E60"/>
<path d="M39.3013 31.4136C39.5413 32.3093 39.0167 33.2289 38.1266 33.4796C37.1468 33.1791 36.3165 32.343 36.013 31.2103C35.9566 31 35.9205 30.7895 35.9053 30.5816C35.965 30.5575 36.0269 30.5369 36.09 30.52L37.2276 30.2152C37.6798 30.094 38.1373 30.1685 38.5127 30.3853C38.888 30.602 39.1801 30.9612 39.3013 31.4136Z" fill="#2E3140"/>
<path d="M37.7753 30.8598L37.0908 31.0432C36.7961 31.1222 36.6211 31.4251 36.7001 31.7198C36.7791 32.0146 37.082 32.1895 37.3768 32.1105L38.0612 31.9271C38.356 31.8481 38.5309 31.5452 38.452 31.2505C38.373 30.9558 38.07 30.7808 37.7753 30.8598Z" fill="white"/>
<path d="M22.6407 29.2237L24.6771 29.7695C25.7867 30.0668 26.4451 31.2072 26.1478 32.3168L25.881 33.3125C25.5837 34.4221 24.4432 35.0805 23.3337 34.7832L21.2972 34.2375C20.1877 33.9402 19.5292 32.7997 19.8265 31.6902L20.0933 30.6944C20.3907 29.5849 21.5311 28.9264 22.6407 29.2237Z" fill="white"/>
<path d="M25.1922 32.5949C24.9522 33.4907 24.0381 34.0248 23.1418 33.7968C23.134 33.7959 23.1263 33.794 23.1188 33.792L21.9812 33.4872C21.5301 33.3663 21.1697 33.074 20.953 32.6985C20.735 32.3228 20.6617 31.8656 20.7828 31.4134C21.0079 30.5731 21.8273 30.0501 22.6671 30.1765C22.7308 30.1855 22.7948 30.1985 22.8579 30.2155L23.9955 30.5203C24.4477 30.6415 24.8067 30.9348 25.0234 31.3102C25.2402 31.6854 25.3134 32.1426 25.1922 32.5949Z" fill="#3E4E60"/>
<path d="M25.1922 32.5948C24.9522 33.4906 24.038 34.0247 23.1417 33.7967C22.4434 33.0465 22.1425 31.9072 22.4459 30.7746C22.5022 30.5643 22.5762 30.364 22.667 30.1763C22.7308 30.1853 22.7947 30.1983 22.8578 30.2153L23.9954 30.5201C24.4477 30.6413 24.8066 30.9346 25.0233 31.3099C25.2401 31.6853 25.3133 32.1424 25.1922 32.5948Z" fill="#2E3140"/>
<path d="M24.1474 31.3523L23.4629 31.1689C23.1682 31.0899 22.8653 31.2648 22.7863 31.5596C22.7073 31.8543 22.8823 32.1572 23.177 32.2362L23.8615 32.4196C24.1562 32.4986 24.4591 32.3236 24.5381 32.0289C24.617 31.7342 24.4422 31.4312 24.1474 31.3523Z" fill="white"/>
</g>
<defs>
<clipPath id="clip0_1123_22960">
<rect width="60" height="60" fill="white"/>
</clipPath>
</defs>
</svg>
