<svg width="60" height="60" viewBox="0 0 60 60" fill="none" xmlns="http://www.w3.org/2000/svg">
<g clip-path="url(#clip0_1123_25982)">
<path d="M30 60C46.5685 60 60 46.5685 60 30C60 13.4315 46.5685 0 30 0C13.4315 0 0 13.4315 0 30C0 46.5685 13.4315 60 30 60Z" fill="#22BCE0"/>
<path d="M36.5826 36.8153C36.2391 37.1586 35.6826 37.1589 35.3394 36.8153L32.5398 34.0157L33.783 32.7725L36.5826 35.5721C36.9305 35.9178 36.9197 36.4811 36.5826 36.8153Z" fill="#C0405C"/>
<path d="M36.7802 36.5118C36.4591 36.6358 36.0934 36.5659 35.8404 36.3142L33.0408 33.5146L33.7829 32.7725L36.5825 35.5721C36.8371 35.8264 36.9025 36.1975 36.7802 36.5118Z" fill="#DD5273"/>
<path d="M35.3694 35.8429L33.824 34.2976C33.4881 33.9407 33.9909 33.4365 34.3488 33.7728L35.8941 35.3181C36.039 35.463 36.039 35.698 35.8941 35.8429C35.7492 35.9879 35.5143 35.9879 35.3694 35.8429Z" fill="#EE6781"/>
<path d="M37.4088 35.938H40.2813C41.062 35.9684 41.0574 37.0846 40.2813 37.1125H37.4089C37.2469 37.1125 37.1002 37.0467 36.9943 36.9402C36.6285 36.5878 36.8866 35.9326 37.4088 35.938Z" fill="#C0405C"/>
<path d="M37.4088 35.938H40.2812C40.5242 35.938 40.733 36.0859 40.8225 36.296C40.733 36.506 40.5242 36.654 40.2812 36.654H37.4088C37.1677 36.6537 36.9605 36.5094 36.8682 36.296C36.9576 36.0859 37.1658 35.938 37.4088 35.938Z" fill="#DD5273"/>
<path d="M40.0551 36.4207C40.0551 36.5495 39.9507 36.6539 39.8219 36.6539H37.8294C37.7006 36.6539 37.5962 36.5495 37.5962 36.4207C37.5962 36.2919 37.7006 36.1875 37.8294 36.1875H39.822C39.9507 36.1875 40.0551 36.2919 40.0551 36.4207Z" fill="#EE6781"/>
<path d="M41.8915 36.2054L43.9226 38.2365C44.4532 38.81 43.6607 39.596 43.0922 39.0669L41.0611 37.0358C40.9466 36.9213 40.8893 36.7711 40.8898 36.6208C40.8803 36.1133 41.526 35.8324 41.8915 36.2054Z" fill="#C0405C"/>
<path d="M41.8914 36.2054L43.9225 38.2365C44.0943 38.4083 44.1373 38.6604 44.0521 38.8723C43.8403 38.9575 43.588 38.9145 43.4162 38.7427L41.3851 36.7116C41.215 36.541 41.1704 36.2924 41.256 36.0762C41.4677 35.991 41.7196 36.0337 41.8914 36.2054Z" fill="#DD5273"/>
<path d="M43.4214 38.418C43.3303 38.509 43.1827 38.509 43.0916 38.418L41.6825 37.0089C41.5915 36.9178 41.5915 36.7702 41.6825 36.6791C41.7736 36.5881 41.9213 36.5881 42.0123 36.6791L43.4214 38.0882C43.5124 38.1792 43.5124 38.3269 43.4214 38.418Z" fill="#EE6781"/>
<path d="M23.4175 36.8153C23.7611 37.1586 24.3175 37.1589 24.6607 36.8153L27.4603 34.0157L26.2171 32.7725L23.4175 35.5721C23.0697 35.9178 23.0804 36.4811 23.4175 36.8153Z" fill="#C0405C"/>
<path d="M23.2198 36.5118C23.5409 36.6358 23.9067 36.5659 24.1597 36.3142L26.9593 33.5146L26.2171 32.7725L23.4175 35.5721C23.163 35.8264 23.0976 36.1975 23.2198 36.5118Z" fill="#DD5273"/>
<path d="M24.6307 35.8429L26.1761 34.2976C26.5119 33.9407 26.0092 33.4365 25.6513 33.7728L24.1059 35.3181C23.9611 35.463 23.9611 35.698 24.1059 35.8429C24.2509 35.9879 24.4858 35.9879 24.6307 35.8429Z" fill="#EE6781"/>
<path d="M22.5913 35.938H19.7188C18.9381 35.9684 18.9427 37.0846 19.7188 37.1125H22.5912C22.7532 37.1125 22.8999 37.0467 23.0058 36.9402C23.3716 36.5878 23.1135 35.9326 22.5913 35.938Z" fill="#C0405C"/>
<path d="M22.5913 35.938H19.7188C19.4758 35.938 19.267 36.0859 19.1775 36.296C19.267 36.506 19.4758 36.654 19.7188 36.654H22.5913C22.8323 36.6537 23.0395 36.5094 23.1319 36.296C23.0425 36.0859 22.8342 35.938 22.5913 35.938Z" fill="#DD5273"/>
<path d="M19.9451 36.4207C19.9451 36.5495 20.0495 36.6539 20.1783 36.6539H22.1709C22.2997 36.6539 22.4041 36.5495 22.4041 36.4207C22.4041 36.2919 22.2997 36.1875 22.1709 36.1875H20.1783C20.0495 36.1875 19.9451 36.2919 19.9451 36.4207Z" fill="#EE6781"/>
<path d="M18.1087 36.2054L16.0776 38.2365C15.5469 38.81 16.3395 39.596 16.908 39.0669L18.9391 37.0358C19.0535 36.9213 19.1108 36.7711 19.1104 36.6208C19.1199 36.1133 18.4742 35.8324 18.1087 36.2054Z" fill="#C0405C"/>
<path d="M18.1087 36.2054L16.0776 38.2365C15.9058 38.4083 15.8628 38.6604 15.948 38.8723C16.1598 38.9575 16.412 38.9145 16.5838 38.7427L18.6149 36.7116C18.7851 36.541 18.8296 36.2924 18.7441 36.0762C18.5323 35.991 18.2805 36.0337 18.1087 36.2054Z" fill="#DD5273"/>
<path d="M16.5788 38.418C16.6698 38.509 16.8175 38.509 16.9086 38.418L18.3176 37.0089C18.4087 36.9178 18.4087 36.7702 18.3176 36.6791C18.2266 36.5881 18.0789 36.5881 17.9879 36.6791L16.5788 38.0882C16.4877 38.1792 16.4877 38.3269 16.5788 38.418Z" fill="#EE6781"/>
<path d="M37.3319 33.9613C36.9883 34.3046 36.4319 34.3049 36.0887 33.9613L33.2891 31.1617L34.5323 29.9185L37.3319 32.7181C37.6798 33.0638 37.6689 33.6271 37.3319 33.9613Z" fill="#C0405C"/>
<path d="M37.5295 33.6578C37.2084 33.7818 36.8427 33.7119 36.5897 33.4602L33.79 30.6606L34.5322 29.9185L37.3318 32.7181C37.5863 32.9725 37.6517 33.3435 37.5295 33.6578Z" fill="#DD5273"/>
<path d="M36.1186 32.9889L34.5733 31.4436C34.2374 31.0867 34.7402 30.5825 35.098 30.9188L36.6434 32.4641C36.7882 32.609 36.7882 32.844 36.6434 32.9889C36.4984 33.1339 36.2635 33.1339 36.1186 32.9889Z" fill="#EE6781"/>
<path d="M37.9537 31.9102H40.8262C41.6069 31.9405 41.6024 33.0568 40.8262 33.0846H37.9538C37.7919 33.0846 37.6452 33.0189 37.5392 32.9124C37.1735 32.56 37.4314 31.9048 37.9537 31.9102Z" fill="#C0405C"/>
<path d="M37.9537 31.9102H40.8262C41.0691 31.9102 41.2779 32.058 41.3675 32.2682C41.2779 32.4782 41.0691 32.6262 40.8262 32.6262H37.9537C37.7126 32.6258 37.5054 32.4816 37.4131 32.2682C37.5025 32.058 37.7107 31.9102 37.9537 31.9102Z" fill="#DD5273"/>
<path d="M40.5999 32.3929C40.5999 32.5217 40.4955 32.6261 40.3667 32.6261H38.3741C38.2453 32.6261 38.1409 32.5217 38.1409 32.3929C38.1409 32.2641 38.2453 32.1597 38.3741 32.1597H40.3667C40.4955 32.1598 40.5999 32.2641 40.5999 32.3929Z" fill="#EE6781"/>
<path d="M42.4364 32.1776L44.4675 34.2087C44.9981 34.7822 44.2056 35.5682 43.6371 35.0391L41.606 33.008C41.4915 32.8935 41.4342 32.7432 41.4347 32.593C41.4253 32.0854 42.071 31.8046 42.4364 32.1776Z" fill="#C0405C"/>
<path d="M42.4363 32.1775L44.4674 34.2086C44.6392 34.3804 44.6822 34.6326 44.597 34.8445C44.3851 34.9297 44.1329 34.8867 43.9611 34.7149L41.93 32.6838C41.7599 32.5132 41.7154 32.2646 41.8009 32.0484C42.0128 31.9632 42.2646 32.0059 42.4363 32.1775Z" fill="#DD5273"/>
<path d="M43.9663 34.3905C43.8752 34.4816 43.7276 34.4816 43.6365 34.3905L42.2275 32.9816C42.1364 32.8905 42.1364 32.7428 42.2275 32.6518C42.3185 32.5607 42.4662 32.5607 42.5572 32.6518L43.9663 34.0608C44.0574 34.1518 44.0574 34.2993 43.9663 34.3905Z" fill="#EE6781"/>
<path d="M22.668 33.9613C23.0116 34.3046 23.568 34.3049 23.9113 33.9613L26.7109 31.1617L25.4676 29.9185L22.668 32.7181C22.3201 33.0638 22.331 33.6271 22.668 33.9613Z" fill="#C0405C"/>
<path d="M22.4703 33.6578C22.7914 33.7818 23.1571 33.7119 23.4102 33.4602L26.2098 30.6606L25.4676 29.9185L22.668 32.7181C22.4135 32.9725 22.3481 33.3435 22.4703 33.6578Z" fill="#DD5273"/>
<path d="M23.8812 32.9889L25.4266 31.4436C25.7624 31.0867 25.2597 30.5825 24.9018 30.9188L23.3564 32.4641C23.2116 32.609 23.2116 32.844 23.3564 32.9889C23.5014 33.1339 23.7364 33.1339 23.8812 32.9889Z" fill="#EE6781"/>
<path d="M22.0459 31.9102H19.1734C18.3927 31.9405 18.3973 33.0568 19.1734 33.0846H22.0458C22.2078 33.0846 22.3545 33.0189 22.4604 32.9124C22.8261 32.56 22.5682 31.9048 22.0459 31.9102Z" fill="#C0405C"/>
<path d="M22.0459 31.9102H19.1734C18.9304 31.9102 18.7216 32.058 18.6321 32.2682C18.7216 32.4782 18.9304 32.6262 19.1734 32.6262H22.0459C22.2869 32.6258 22.4941 32.4816 22.5865 32.2682C22.497 32.058 22.2888 31.9102 22.0459 31.9102Z" fill="#DD5273"/>
<path d="M19.3997 32.3929C19.3997 32.5217 19.5041 32.6261 19.6329 32.6261H21.6255C21.7543 32.6261 21.8587 32.5217 21.8587 32.3929C21.8587 32.2641 21.7543 32.1597 21.6255 32.1597H19.6329C19.5041 32.1598 19.3997 32.2641 19.3997 32.3929Z" fill="#EE6781"/>
<path d="M17.5635 32.1776L15.5324 34.2087C15.0018 34.7822 15.7943 35.5682 16.3629 35.0391L18.394 33.008C18.5085 32.8935 18.5658 32.7432 18.5653 32.593C18.5746 32.0854 17.9289 31.8046 17.5635 32.1776Z" fill="#C0405C"/>
<path d="M17.5635 32.1775L15.5324 34.2086C15.3606 34.3804 15.3176 34.6326 15.4028 34.8445C15.6147 34.9297 15.8669 34.8867 16.0387 34.7149L18.0697 32.6838C18.2399 32.5132 18.2844 32.2646 18.1989 32.0484C17.987 31.9632 17.7352 32.0059 17.5635 32.1775Z" fill="#DD5273"/>
<path d="M16.0336 34.3905C16.1247 34.4816 16.2723 34.4816 16.3634 34.3905L17.7725 32.9816C17.8635 32.8905 17.8635 32.7428 17.7725 32.6518C17.6814 32.5607 17.5337 32.5607 17.4427 32.6518L16.0336 34.0608C15.9426 34.1518 15.9426 34.2993 16.0336 34.3905Z" fill="#EE6781"/>
<path d="M39.3708 28.5725C39.3704 29.0581 38.9774 29.4519 38.4917 29.4516H34.5325V27.6934H38.4917C38.9821 27.692 39.3728 28.0979 39.3708 28.5725Z" fill="#C0405C"/>
<path d="M39.2959 28.2182C39.1566 28.5329 38.8485 28.7422 38.4917 28.743H34.5325V27.6934H38.4917C38.8514 27.6934 39.1601 27.9096 39.2959 28.2182Z" fill="#DD5273"/>
<path d="M37.8254 28.743H35.64C35.1502 28.7281 35.1491 28.0162 35.64 28.001H37.8254C38.0304 28.001 38.1964 28.1671 38.1964 28.372C38.1964 28.5768 38.0304 28.743 37.8254 28.743Z" fill="#EE6781"/>
<path d="M39.3863 27.4287L41.4174 25.3976C41.9909 24.867 42.7769 25.6596 42.2478 26.2281L40.2167 28.2592C40.1022 28.3737 39.952 28.431 39.8018 28.4306C39.2941 28.4399 39.0133 27.7942 39.3863 27.4287Z" fill="#C0405C"/>
<path d="M39.3863 27.4287L41.4174 25.3976C41.5892 25.2258 41.8414 25.1828 42.0533 25.268C42.1385 25.4799 42.0954 25.7321 41.9236 25.9039L39.8926 27.935C39.7219 28.1051 39.4734 28.1497 39.2572 28.0641C39.172 27.8524 39.2145 27.6005 39.3863 27.4287Z" fill="#DD5273"/>
<path d="M41.5989 25.8989C41.6899 25.9899 41.6899 26.1376 41.5989 26.2286L40.1898 27.6377C40.0987 27.7287 39.9511 27.7287 39.86 27.6377C39.769 27.5466 39.769 27.399 39.86 27.3079L41.2691 25.8989C41.3602 25.8078 41.5078 25.8078 41.5989 25.8989Z" fill="#EE6781"/>
<path d="M42.7452 24.4483H45.6177C46.3984 24.4786 46.3938 25.5948 45.6177 25.6227H42.7453C42.5834 25.6227 42.4366 25.557 42.3307 25.4505C41.965 25.0981 42.223 24.4429 42.7452 24.4483Z" fill="#C0405C"/>
<path d="M42.7452 24.4482H45.6177C45.8606 24.4482 46.0694 24.5961 46.159 24.8062C46.0694 25.0162 45.8606 25.1643 45.6177 25.1643H42.7452C42.5041 25.1639 42.2969 25.0196 42.2046 24.8062C42.2941 24.5961 42.5022 24.4482 42.7452 24.4482Z" fill="#DD5273"/>
<path d="M45.3914 24.931C45.3914 25.0597 45.287 25.1642 45.1582 25.1642H43.1656C43.0368 25.1642 42.9324 25.0597 42.9324 24.931C42.9324 24.8022 43.0368 24.6978 43.1656 24.6978H45.1582C45.2871 24.6978 45.3914 24.8022 45.3914 24.931Z" fill="#EE6781"/>
<path d="M20.6292 28.5725C20.6295 29.0581 21.0226 29.4519 21.5083 29.4516H25.4675V27.6934H21.5083C21.0179 27.692 20.6272 28.0979 20.6292 28.5725Z" fill="#C0405C"/>
<path d="M20.7041 28.2182C20.8434 28.5329 21.1515 28.7422 21.5084 28.743H25.4675V27.6934H21.5084C21.1486 27.6934 20.8399 27.9096 20.7041 28.2182Z" fill="#DD5273"/>
<path d="M22.1747 28.743H24.3602C24.85 28.7281 24.8511 28.0162 24.3602 28.001H22.1747C21.9698 28.001 21.8037 28.1671 21.8037 28.372C21.8037 28.5768 21.9698 28.743 22.1747 28.743Z" fill="#EE6781"/>
<path d="M20.6136 27.4287L18.5825 25.3976C18.009 24.867 17.223 25.6596 17.7521 26.2281L19.7832 28.2592C19.8977 28.3737 20.048 28.431 20.1982 28.4306C20.7058 28.4399 20.9866 27.7942 20.6136 27.4287Z" fill="#C0405C"/>
<path d="M20.6137 27.4287L18.5826 25.3976C18.4108 25.2258 18.1586 25.1828 17.9467 25.268C17.8615 25.4799 17.9045 25.7321 18.0763 25.9039L20.1074 27.935C20.2781 28.1051 20.5266 28.1497 20.7428 28.0641C20.828 27.8524 20.7855 27.6005 20.6137 27.4287Z" fill="#DD5273"/>
<path d="M18.4011 25.8989C18.31 25.9899 18.31 26.1376 18.4011 26.2286L19.8101 27.6377C19.9012 27.7287 20.0488 27.7287 20.1399 27.6377C20.2309 27.5466 20.2309 27.399 20.1399 27.3079L18.7308 25.8989C18.6398 25.8078 18.4921 25.8078 18.4011 25.8989Z" fill="#EE6781"/>
<path d="M17.2549 24.4483H14.3824C13.6017 24.4786 13.6063 25.5948 14.3824 25.6227H17.2548C17.4167 25.6227 17.5635 25.557 17.6694 25.4505C18.0351 25.0981 17.7771 24.4429 17.2549 24.4483Z" fill="#C0405C"/>
<path d="M17.2549 24.4482H14.3824C14.1394 24.4482 13.9306 24.5961 13.8411 24.8062C13.9306 25.0162 14.1394 25.1643 14.3824 25.1643H17.2549C17.4959 25.1639 17.7031 25.0196 17.7954 24.8062C17.7059 24.5961 17.4978 24.4482 17.2549 24.4482Z" fill="#DD5273"/>
<path d="M14.6086 24.931C14.6086 25.0597 14.7131 25.1642 14.8418 25.1642H16.8345C16.9633 25.1642 17.0677 25.0597 17.0677 24.931C17.0677 24.8022 16.9633 24.6978 16.8345 24.6978H14.8418C14.7129 24.6978 14.6086 24.8022 14.6086 24.931Z" fill="#EE6781"/>
<path d="M39.3708 25.7737C39.3704 26.2593 38.9774 26.6531 38.4917 26.6528H34.5325V24.8945H38.4917C38.9821 24.893 39.3728 25.2991 39.3708 25.7737Z" fill="#C0405C"/>
<path d="M39.2959 25.4194C39.1566 25.7341 38.8485 25.9434 38.4917 25.9442H34.5325V24.8945H38.4917C38.8514 24.8946 39.1601 25.1107 39.2959 25.4194Z" fill="#DD5273"/>
<path d="M37.8254 25.9442H35.64C35.1502 25.9293 35.1491 25.2174 35.64 25.2021H37.8254C38.0304 25.2021 38.1964 25.3683 38.1964 25.5732C38.1964 25.778 38.0304 25.9442 37.8254 25.9442Z" fill="#EE6781"/>
<path d="M38.36 23.8833L40.3911 21.8522C40.9646 21.3216 41.7505 22.1141 41.2214 22.6826L39.1903 24.7137C39.0759 24.8282 38.9256 24.8855 38.7754 24.885C38.2677 24.8945 37.987 24.2488 38.36 23.8833Z" fill="#C0405C"/>
<path d="M38.3599 23.8833L40.391 21.8522C40.5628 21.6804 40.815 21.6374 41.0269 21.7226C41.1121 21.9345 41.069 22.1867 40.8973 22.3585L38.8662 24.3896C38.6955 24.5597 38.447 24.6043 38.2308 24.5187C38.1456 24.307 38.1882 24.0551 38.3599 23.8833Z" fill="#DD5273"/>
<path d="M40.5727 22.3534C40.6638 22.4445 40.6638 22.5922 40.5727 22.6832L39.1637 24.0923C39.0726 24.1833 38.925 24.1833 38.8339 24.0923C38.7429 24.0012 38.7429 23.8536 38.8339 23.7625L40.243 22.3534C40.334 22.2624 40.4816 22.2624 40.5727 22.3534Z" fill="#EE6781"/>
<path d="M41.7189 20.9029H44.5914C45.3721 20.9331 45.3675 22.0494 44.5914 22.0773H41.719C41.557 22.0773 41.4103 22.0116 41.3044 21.9051C40.9386 21.5527 41.1966 20.8976 41.7189 20.9029Z" fill="#C0405C"/>
<path d="M41.7188 20.9028H44.5913C44.8342 20.9028 45.0431 21.0507 45.1326 21.2608C45.0431 21.4708 44.8342 21.6188 44.5913 21.6188H41.7188C41.4778 21.6185 41.2706 21.4742 41.1782 21.2608C41.2676 21.0508 41.4759 20.9028 41.7188 20.9028Z" fill="#DD5273"/>
<path d="M44.3651 21.3855C44.3651 21.5143 44.2607 21.6187 44.1319 21.6187H42.1392C42.0104 21.6187 41.906 21.5143 41.906 21.3855C41.906 21.2568 42.0104 21.1523 42.1392 21.1523H44.1319C44.2607 21.1523 44.3651 21.2568 44.3651 21.3855Z" fill="#EE6781"/>
<path d="M20.6292 25.7737C20.6295 26.2593 21.0226 26.6531 21.5083 26.6528H25.4675V24.8945H21.5083C21.0179 24.893 20.6272 25.2991 20.6292 25.7737Z" fill="#C0405C"/>
<path d="M20.7041 25.4194C20.8434 25.7341 21.1515 25.9434 21.5084 25.9442H25.4675V24.8945H21.5084C21.1486 24.8946 20.8399 25.1107 20.7041 25.4194Z" fill="#DD5273"/>
<path d="M22.1747 25.9442H24.3602C24.85 25.9293 24.8511 25.2174 24.3602 25.2021H22.1747C21.9698 25.2021 21.8037 25.3683 21.8037 25.5732C21.8037 25.778 21.9698 25.9442 22.1747 25.9442Z" fill="#EE6781"/>
<path d="M21.64 23.8833L19.6089 21.8522C19.0354 21.3216 18.2494 22.1141 18.7785 22.6826L20.8096 24.7137C20.9241 24.8282 21.0743 24.8855 21.2246 24.885C21.7322 24.8945 22.013 24.2488 21.64 23.8833Z" fill="#C0405C"/>
<path d="M21.6401 23.8833L19.609 21.8522C19.4372 21.6804 19.185 21.6374 18.9731 21.7226C18.8879 21.9345 18.9309 22.1867 19.1027 22.3585L21.1338 24.3896C21.3044 24.5597 21.553 24.6043 21.7692 24.5187C21.8544 24.307 21.8117 24.0551 21.6401 23.8833Z" fill="#DD5273"/>
<path d="M19.4272 22.3534C19.3361 22.4445 19.3361 22.5922 19.4272 22.6832L20.8362 24.0923C20.9273 24.1833 21.075 24.1833 21.166 24.0923C21.2571 24.0012 21.2571 23.8536 21.166 23.7625L19.7569 22.3534C19.6659 22.2624 19.5183 22.2624 19.4272 22.3534Z" fill="#EE6781"/>
<path d="M18.281 20.9029H15.4085C14.6278 20.9331 14.6324 22.0494 15.4085 22.0773H18.2809C18.4429 22.0773 18.5896 22.0116 18.6955 21.9051C19.0613 21.5527 18.8033 20.8976 18.281 20.9029Z" fill="#C0405C"/>
<path d="M18.281 20.9028H15.4085C15.1655 20.9028 14.9567 21.0507 14.8672 21.2608C14.9567 21.4708 15.1655 21.6188 15.4085 21.6188H18.281C18.522 21.6185 18.7292 21.4742 18.8216 21.2608C18.7321 21.0508 18.5239 20.9028 18.281 20.9028Z" fill="#DD5273"/>
<path d="M15.6348 21.3855C15.6348 21.5143 15.7392 21.6187 15.868 21.6187H17.8606C17.9894 21.6187 18.0938 21.5143 18.0938 21.3855C18.0938 21.2568 17.9894 21.1523 17.8606 21.1523H15.868C15.7392 21.1523 15.6348 21.2568 15.6348 21.3855Z" fill="#EE6781"/>
<path d="M38.9057 20.7065L35.9188 23.6935C35.2593 24.3539 34.1895 24.3539 33.5299 23.6935C33.3699 23.5334 33.2479 23.3488 33.1662 23.1516C32.9096 22.5387 33.0305 21.805 33.5299 21.3055L35.8616 18.9728C36.0938 18.7417 36.4279 18.6452 36.7459 18.7184L38.277 19.0694L38.4456 19.1076C39.175 19.2741 39.4348 20.1775 38.9057 20.7065Z" fill="#C0405C"/>
<path d="M38.0002 19.8L35.0122 22.788C34.5128 23.2874 33.7791 23.4082 33.1662 23.1516C32.9096 22.5387 33.0305 21.805 33.5299 21.3055L35.8616 18.9728C36.0938 18.7417 36.4279 18.6452 36.7459 18.7184L38.277 19.0694C38.2938 19.3261 38.208 19.5923 38.0002 19.8Z" fill="#DD5273"/>
<path d="M34.5715 22.3473C34.3281 22.1039 34.3281 21.7092 34.5714 21.4658L36.0605 19.9762C36.2882 19.7484 36.652 19.7315 36.8998 19.9374L36.9001 19.9377C37.1823 20.1722 37.202 20.5985 36.9425 20.858L35.4531 22.3475C35.2097 22.5909 34.815 22.5908 34.5715 22.3473Z" fill="#EE6781"/>
<path d="M39.1717 15.382V18.443C39.1717 19.1185 38.6235 19.6666 37.9482 19.6666C37.2727 19.6666 36.7246 19.1184 36.7246 18.443V16.0531C36.7246 15.8166 36.8465 15.5961 37.047 15.47L38.1169 14.7988C38.2579 14.7098 38.4127 14.6801 38.558 14.696C38.8865 14.7331 39.1717 15.0066 39.1717 15.382Z" fill="#C0405C"/>
<path d="M38.5579 14.696V17.2492C38.5579 17.9247 38.0097 18.4728 37.3343 18.4728C37.1117 18.4728 36.9038 18.4134 36.7246 18.3095V16.0532C36.7246 15.8167 36.8465 15.5962 37.047 15.4701L38.1169 14.799C38.2579 14.7098 38.4127 14.6801 38.5579 14.696Z" fill="#DD5273"/>
<path d="M37.6784 17.828C37.4562 17.828 37.2761 17.6479 37.2761 17.4257V16.1533C37.2761 15.9311 37.4562 15.751 37.6784 15.751C37.9006 15.751 38.0807 15.9311 38.0807 16.1533V17.4257C38.0807 17.6479 37.9006 17.828 37.6784 17.828Z" fill="#EE6781"/>
<path d="M36.0392 14.5827L34.4699 13.0134C33.1335 11.677 32.3828 9.86459 32.3828 7.97471V4.96826L39.0182 11.6037L36.0392 14.5827Z" fill="#DD5273"/>
<path d="M36.066 9.29607C34.6881 10.674 34.5536 12.9064 35.8389 14.3709C37.2666 15.9977 39.7551 16.044 41.2432 14.51C42.6295 13.0811 42.5522 10.7037 41.1446 9.29607L37.022 5.17354C35.5956 3.74713 33.661 2.94568 31.6436 2.9458C31.1695 2.9458 30.932 3.51896 31.2673 3.85424L36.0659 8.65283C36.2436 8.83049 36.2436 9.11854 36.066 9.29607Z" fill="#C0405C"/>
<path d="M35.5385 4.79037L39.7888 9.04064C40.0615 9.31334 40.0615 9.75537 39.7888 10.0279C39.5161 10.3006 39.0741 10.3006 38.8015 10.0279L34.5512 5.77768C34.2785 5.50498 34.2785 5.06295 34.5512 4.79037C34.8238 4.51779 35.2658 4.51779 35.5385 4.79037Z" fill="#DD5273"/>
<path d="M36.3032 5.55511L38.1459 7.39788C38.4186 7.67058 38.4186 8.11261 38.1459 8.38519C37.8732 8.65788 37.4312 8.65788 37.1586 8.38519L35.3158 6.54241C35.0432 6.26972 35.0432 5.82769 35.3158 5.55511C35.5884 5.28241 36.0306 5.28241 36.3032 5.55511Z" fill="#EE6781"/>
<path d="M34.5773 8.25546L34.7359 9.83621C34.7745 10.2199 34.4946 10.5621 34.111 10.6006C33.7273 10.6392 33.3851 10.3593 33.3465 9.97566L33.1879 8.39492C33.1493 8.01125 33.4292 7.66906 33.8128 7.6305C34.1965 7.59195 34.5388 7.87179 34.5773 8.25546Z" fill="#EE6781"/>
<path d="M40.407 13.9515C39.3685 14.99 37.6787 14.99 36.6402 13.9515C36.4249 13.7362 36.4249 13.387 36.6402 13.1717C36.8555 12.9564 37.2047 12.9564 37.42 13.1717C38.0287 13.7803 39.0187 13.7803 39.6273 13.1717C39.8426 12.9564 40.1918 12.9564 40.4071 13.1717C40.6222 13.3871 40.6222 13.7362 40.407 13.9515Z" fill="#DD5273"/>
<path d="M21.0941 20.7065L24.0809 23.6935C24.7405 24.3539 25.8103 24.3539 26.4698 23.6935C26.6299 23.5334 26.7519 23.3488 26.8336 23.1516C27.0902 22.5387 26.9693 21.805 26.4698 21.3055L24.1381 18.9728C23.906 18.7417 23.572 18.6452 23.2538 18.7184L21.7228 19.0694L21.5541 19.1076C20.8248 19.2741 20.565 20.1775 21.0941 20.7065Z" fill="#C0405C"/>
<path d="M21.9996 19.8L24.9875 22.788C25.4869 23.2874 26.2207 23.4082 26.8336 23.1516C27.0902 22.5387 26.9693 21.805 26.4698 21.3055L24.1381 18.9728C23.906 18.7417 23.572 18.6452 23.2538 18.7184L21.7228 19.0694C21.7059 19.3261 21.7918 19.5923 21.9996 19.8Z" fill="#DD5273"/>
<path d="M25.4284 22.3473C25.6718 22.1039 25.6718 21.7092 25.4285 21.4658L23.9394 19.9762C23.7117 19.7484 23.3478 19.7315 23.1001 19.9374L23.0997 19.9377C22.8176 20.1722 22.7979 20.5985 23.0573 20.858L24.5468 22.3475C24.7902 22.5909 25.1849 22.5908 25.4284 22.3473Z" fill="#EE6781"/>
<path d="M20.8281 15.382V18.443C20.8281 19.1185 21.3763 19.6666 22.0517 19.6666C22.7271 19.6666 23.2752 19.1184 23.2752 18.443V16.0531C23.2752 15.8166 23.1534 15.5961 22.9529 15.47L21.8829 14.7988C21.742 14.7098 21.5871 14.6801 21.4418 14.696C21.1134 14.7331 20.8281 15.0066 20.8281 15.382Z" fill="#C0405C"/>
<path d="M21.4421 14.696V17.2492C21.4421 17.9247 21.9903 18.4728 22.6657 18.4728C22.8883 18.4728 23.0962 18.4134 23.2754 18.3095V16.0532C23.2754 15.8167 23.1535 15.5962 22.953 15.4701L21.8831 14.799C21.7421 14.7098 21.5873 14.6801 21.4421 14.696Z" fill="#DD5273"/>
<path d="M22.3215 17.828C22.5437 17.828 22.7238 17.6479 22.7238 17.4257V16.1533C22.7238 15.9311 22.5437 15.751 22.3215 15.751C22.0993 15.751 21.9192 15.9311 21.9192 16.1533V17.4257C21.9192 17.6479 22.0993 17.828 22.3215 17.828Z" fill="#EE6781"/>
<path d="M23.9607 14.5827L25.53 13.0134C26.8664 11.677 27.6171 9.86459 27.6171 7.97471V4.96826L20.9817 11.6037L23.9607 14.5827Z" fill="#DD5273"/>
<path d="M23.9337 9.29607C25.3116 10.674 25.4461 12.9064 24.1608 14.3709C22.7331 15.9977 20.2446 16.044 18.7565 14.51C17.3703 13.0811 17.4475 10.7037 18.8552 9.29607L22.9777 5.17354C24.4041 3.74713 26.3387 2.94568 28.3561 2.9458C28.8303 2.9458 29.0677 3.51896 28.7324 3.85424L23.9338 8.65283C23.7562 8.83049 23.7562 9.11854 23.9337 9.29607Z" fill="#C0405C"/>
<path d="M24.4614 4.79037L20.2111 9.04064C19.9384 9.31334 19.9384 9.75537 20.2111 10.0279C20.4838 10.3006 20.9258 10.3006 21.1984 10.0279L25.4487 5.77768C25.7214 5.50498 25.7214 5.06295 25.4487 4.79037C25.1761 4.51779 24.7341 4.51779 24.4614 4.79037Z" fill="#DD5273"/>
<path d="M23.6967 5.55511L21.8539 7.39788C21.5812 7.67058 21.5812 8.11261 21.8539 8.38519C22.1266 8.65788 22.5687 8.65788 22.8412 8.38519L24.684 6.54241C24.9567 6.26972 24.9567 5.82769 24.684 5.55511C24.4114 5.28241 23.9693 5.28241 23.6967 5.55511Z" fill="#EE6781"/>
<path d="M25.4225 8.25546L25.2638 9.83621C25.2252 10.2199 25.5051 10.5621 25.8888 10.6006C26.2724 10.6392 26.6146 10.3593 26.6532 9.97566L26.8119 8.39492C26.8504 8.01125 26.5706 7.66906 26.1869 7.6305C25.8032 7.59195 25.4609 7.87179 25.4225 8.25546Z" fill="#EE6781"/>
<path d="M19.5926 13.9515C20.6311 14.99 22.3209 14.99 23.3594 13.9515C23.5747 13.7362 23.5747 13.387 23.3594 13.1717C23.1441 12.9564 22.7949 12.9564 22.5796 13.1717C21.9711 13.7803 20.9809 13.7803 20.3723 13.1717C20.157 12.9564 19.8078 12.9564 19.5925 13.1717C19.3773 13.3871 19.3773 13.7362 19.5926 13.9515Z" fill="#DD5273"/>
<path d="M34.5323 24.5157V33.7766C34.5323 35.0948 33.4641 36.1631 32.1458 36.1631H27.8541C26.5357 36.1631 25.4675 35.0948 25.4675 33.7766V24.5157C25.4675 22.0125 27.4967 17.1582 30 17.1582C32.5032 17.1582 34.5323 22.0126 34.5323 24.5157Z" fill="#C0405C"/>
<path d="M34.5322 24.5156V33.7764C34.5322 35.0947 33.4639 36.163 32.1457 36.163H29.9998V17.1582C32.503 17.1582 34.5322 22.0125 34.5322 24.5156Z" fill="#DD5273"/>
<path d="M29.9998 34.162V21.9834C30.9898 21.9834 31.7923 23.5543 31.7923 24.5443V32.3695C31.7923 33.3594 30.9898 34.162 29.9998 34.162Z" fill="#EE6781"/>
<path d="M29.9998 34.162V21.9834C29.0098 21.9834 28.2073 23.5543 28.2073 24.5443V32.3695C28.2073 33.3594 29.0098 34.162 29.9998 34.162Z" fill="#DD5273"/>
<path d="M30.896 32.2768C30.401 32.2768 29.9998 31.8756 29.9998 31.3806V26.367C29.9998 25.872 30.401 25.4707 30.896 25.4707C31.391 25.4707 31.7923 25.872 31.7923 26.367V31.3806C31.7923 31.8756 31.391 32.2768 30.896 32.2768Z" fill="#F4829B"/>
<path d="M32.0429 22.1152V22.4898C32.0451 22.8476 31.7469 23.1406 31.3949 23.1383C31.0368 23.1383 30.7468 22.8479 30.7468 22.4898V22.1152C30.7768 21.2593 32.0095 21.2537 32.0429 22.1152Z" fill="#334353"/>
<path d="M32.0434 22.1156V22.4896C32.0424 22.7499 31.8922 22.9757 31.6637 23.0803C31.4407 22.9777 31.2849 22.7519 31.2849 22.4896V22.1156C31.2849 22.0736 31.2887 22.0325 31.2971 21.9933C31.3362 21.7844 31.4763 21.6118 31.6638 21.5259C31.8522 21.6117 31.9921 21.7843 32.0314 21.9933C32.0396 22.0325 32.0434 22.0735 32.0434 22.1156Z" fill="#3E4E60"/>
<path d="M32.0309 21.9929C32.0306 21.995 32.0301 21.9972 32.0296 21.9993C31.9522 22.3871 31.3746 22.387 31.2978 21.9991L31.2966 21.9929C31.3358 21.7839 31.4758 21.6113 31.6633 21.5254C31.8517 21.6113 31.9918 21.7838 32.0309 21.9929Z" fill="#3F5D77"/>
<path d="M27.957 22.49V22.1153C27.9548 21.7576 28.2531 21.4646 28.6051 21.4668C28.9632 21.4668 29.2531 21.7572 29.2531 22.1153V22.49C29.2231 23.3458 27.9904 23.3514 27.957 22.49Z" fill="#2E3140"/>
<path d="M28.7152 22.1151V22.4902C28.7152 22.7523 28.5595 22.9772 28.3365 23.0798C28.1125 22.9772 27.9568 22.7523 27.9568 22.4902V22.1151C27.9568 22.0722 27.9615 22.0301 27.9698 21.9891C28.0099 21.7839 28.1462 21.6122 28.3365 21.5254C28.523 21.6102 28.6631 21.7829 28.7032 21.991C28.7115 22.0311 28.7152 22.0721 28.7152 22.1151Z" fill="#334353"/>
<path d="M28.7031 21.991C28.6154 22.353 28.0556 22.352 27.9697 21.9891C28.0098 21.7839 28.1461 21.6122 28.3364 21.5254C28.523 21.6102 28.6629 21.7829 28.7031 21.991Z" fill="#3E4E60"/>
<path d="M30.5859 18.6749V10.7329C30.5859 10.488 30.9465 10.4695 30.9716 10.7131L31.7832 18.589C31.8355 18.9518 31.5541 19.2766 31.1877 19.2766C30.8554 19.2766 30.5859 19.0072 30.5859 18.6749Z" fill="#EE6781"/>
<path d="M29.414 18.6749V10.7329C29.414 10.488 29.0534 10.4695 29.0284 10.7131L28.2167 18.589C28.1644 18.9518 28.4458 19.2766 28.8123 19.2766C29.1446 19.2766 29.414 19.0072 29.414 18.6749Z" fill="#DD5273"/>
<path d="M56.5346 26.1695C56.3998 26.3031 56.1795 26.3043 56.0377 26.1695L48.0232 18.509C47.5897 18.0953 47.0131 17.8645 46.4143 17.8645H36.3022C35.6846 17.8645 35.0928 18.1094 34.6557 18.5465L32.4127 20.7895C32.1748 21.0273 31.7904 21.0648 31.5315 20.8516C31.235 20.6066 31.2197 20.166 31.4846 19.9012L34.4623 16.9234L34.6182 16.7676C34.7611 16.6246 34.9557 16.566 35.1432 16.5871C35.1725 16.5824 35.2018 16.5801 35.2322 16.5801H47.3483C47.3529 16.5801 47.3565 16.5801 47.3611 16.5813C47.5932 16.5777 47.885 16.7008 48.1498 16.9234C48.2049 16.9691 48.2588 17.0195 48.3104 17.0734L56.5346 25.6727C56.6693 25.8145 56.6682 26.0359 56.5346 26.1695Z" fill="#C0405C"/>
<path d="M28.4683 20.8516C28.2093 21.0648 27.8249 21.0273 27.587 20.7895L25.344 18.5465C24.9069 18.1094 24.3151 17.8645 23.6976 17.8645H13.5855C12.9866 17.8645 12.4101 18.0953 11.9765 18.509L3.96201 26.1695C3.82022 26.3043 3.5999 26.3031 3.46514 26.1695C3.33154 26.0359 3.33037 25.8145 3.46514 25.6727L11.6894 17.0734C11.7409 17.0195 11.7948 16.9691 11.8499 16.9234C12.1147 16.7008 12.4065 16.5777 12.6386 16.5813C12.6433 16.5801 12.6468 16.5801 12.6515 16.5801H24.7675C24.798 16.5801 24.8272 16.5824 24.8565 16.5871C25.044 16.566 25.2386 16.6246 25.3815 16.7676L25.5374 16.9234L28.5151 19.9012C28.78 20.166 28.7647 20.6066 28.4683 20.8516Z" fill="#DD5273"/>
<path d="M25.5374 16.9234L25.3815 17.0781C25.2385 17.2223 25.044 17.2809 24.8565 17.2598C24.8272 17.2645 24.7979 17.2668 24.7674 17.2668H12.6514C12.6467 17.2668 12.6432 17.2656 12.6385 17.2656C12.4065 17.2691 12.1147 17.1461 11.8499 16.9234C12.1147 16.7008 12.4065 16.5777 12.6385 16.5813C12.6432 16.5801 12.6467 16.5801 12.6514 16.5801H24.7674C24.7979 16.5801 24.8272 16.5824 24.8565 16.5871C25.044 16.566 25.2385 16.6246 25.3815 16.7676L25.5374 16.9234Z" fill="#EE6781"/>
<path d="M48.1499 16.9234C47.8851 17.1461 47.5933 17.2691 47.3612 17.2656C47.3565 17.2656 47.353 17.2668 47.3483 17.2668H35.2323C35.2019 17.2668 35.1726 17.2645 35.1433 17.2598C34.9558 17.2809 34.7612 17.2223 34.6183 17.0781L34.4624 16.9234L34.6183 16.7676C34.7612 16.6246 34.9558 16.566 35.1433 16.5871C35.1726 16.5824 35.2019 16.5801 35.2323 16.5801H47.3483C47.353 16.5801 47.3565 16.5801 47.3612 16.5813C47.5933 16.5777 47.8851 16.7008 48.1499 16.9234Z" fill="#EE6781"/>
<path d="M34.5323 38.1053V38.3208C34.5323 39.0504 33.9408 39.6418 33.2112 39.6418H26.7885C26.0588 39.6418 25.4673 39.0504 25.4673 38.3208V38.1053C25.4673 36.4455 26.8127 35.1001 28.4724 35.1001H31.5271C33.1869 35.1001 34.5323 36.4455 34.5323 38.1053Z" fill="#DD5273"/>
<path d="M34.5322 38.1054V38.3209C34.5322 39.0505 33.9407 39.6419 33.211 39.6419H29.9998V36.6274C29.9998 36.2487 30.1378 35.9025 30.3664 35.6356C30.6463 35.3073 31.0624 35.1001 31.5271 35.1001C32.3565 35.1001 33.1085 35.436 33.6524 35.9798C34.1964 36.5239 34.5322 37.2759 34.5322 38.1054Z" fill="#EE6781"/>
<path d="M32.5341 37.9147H31.9213C31.5995 37.9147 31.3386 37.6538 31.3386 37.332V36.9238C31.3386 36.9236 31.3386 36.9235 31.3386 36.9233C31.3386 36.3113 30.9281 35.7954 30.3664 35.6357C30.1378 35.9026 29.9998 36.2488 29.9998 36.6275V39.2688H32.5341C32.908 39.2688 33.211 38.9656 33.211 38.5918C33.2112 38.2177 32.908 37.9147 32.5341 37.9147Z" fill="#F4829B"/>
<path d="M29.9997 35.585C29.2835 35.585 28.7003 36.1479 28.6644 36.8553C28.6622 36.8778 28.661 36.9006 28.661 36.9237V37.332C28.661 37.6538 28.4001 37.9146 28.0783 37.9146H27.4656C27.0916 37.9146 26.7886 38.2178 26.7886 38.5916C26.7886 38.9656 27.0917 39.2686 27.4656 39.2686H29.9997V36.6273C29.9997 36.2491 30.1376 35.9034 30.3656 35.6366C30.2491 35.6038 30.1268 35.585 29.9997 35.585Z" fill="#C0405C"/>
<path d="M34.5323 41.4344V41.6499C34.5323 42.3795 33.9408 42.9709 33.2112 42.9709H26.7885C26.0588 42.9709 25.4673 42.3795 25.4673 41.6499V41.4344C25.4673 39.7746 26.8127 38.4292 28.4724 38.4292H31.5271C33.1869 38.4292 34.5323 39.7746 34.5323 41.4344Z" fill="#DD5273"/>
<path d="M34.5322 41.4344V41.6499C34.5322 42.3795 33.9407 42.9709 33.211 42.9709H29.9998V39.9565C29.9998 39.5778 30.1378 39.2316 30.3664 38.9647C30.6463 38.6364 31.0624 38.4292 31.5271 38.4292C32.3565 38.4292 33.1085 38.7651 33.6524 39.3089C34.1964 39.8529 34.5322 40.6049 34.5322 41.4344Z" fill="#EE6781"/>
<path d="M32.5341 41.2438H31.9213C31.5995 41.2438 31.3386 40.9829 31.3386 40.6611V40.2529C31.3386 40.2527 31.3386 40.2526 31.3386 40.2524C31.3386 39.6404 30.9281 39.1245 30.3664 38.9648C30.1378 39.2317 29.9998 39.5779 29.9998 39.9566V42.5979H32.5341C32.908 42.5979 33.211 42.2947 33.211 41.9209C33.211 41.5471 32.908 41.2438 32.5341 41.2438Z" fill="#F4829B"/>
<path d="M29.9997 38.9141C29.2835 38.9141 28.7003 39.477 28.6644 40.1844C28.6622 40.2069 28.661 40.2297 28.661 40.2528V40.6611C28.661 40.9829 28.4001 41.2438 28.0783 41.2438H27.4656C27.0916 41.2438 26.7886 41.5469 26.7886 41.9207C26.7886 42.2946 27.0917 42.5977 27.4656 42.5977H29.9997V39.9564C29.9997 39.5782 30.1376 39.2325 30.3656 38.9657C30.2491 38.9329 30.1268 38.9141 29.9997 38.9141Z" fill="#C0405C"/>
<path d="M34.1598 44.5161V44.7139C34.1598 45.3835 33.6169 45.9264 32.9473 45.9264H27.0524C26.3828 45.9264 25.8398 45.3835 25.8398 44.7139V44.5161C25.8398 42.9926 27.0746 41.7578 28.5981 41.7578H31.4017C32.925 41.7579 34.1598 42.9927 34.1598 44.5161Z" fill="#DD5273"/>
<path d="M34.1598 44.5161V44.7139C34.1598 45.3835 33.6169 45.9264 32.9473 45.9264H29.9998V43.1596C29.9998 42.812 30.1264 42.4942 30.3363 42.2493C30.5932 41.9479 30.9751 41.7578 31.4016 41.7578C32.1628 41.7578 32.853 42.066 33.3523 42.5654C33.8515 43.0647 34.1598 43.7548 34.1598 44.5161Z" fill="#EE6781"/>
<path d="M32.3259 44.3408H31.7634C31.4681 44.3408 31.2286 44.1014 31.2286 43.806V43.4312C31.2286 43.4311 31.2286 43.431 31.2286 43.4307C31.2286 42.8691 30.8518 42.3955 30.3363 42.249C30.1266 42.4939 29.9998 42.8116 29.9998 43.1593V45.5836H32.3258C32.6691 45.5836 32.9473 45.3054 32.9473 44.9621C32.9473 44.6189 32.6692 44.3408 32.3259 44.3408Z" fill="#F4829B"/>
<path d="M29.9999 42.2026C29.3424 42.2026 28.8071 42.7193 28.7742 43.3687C28.7721 43.3893 28.771 43.4103 28.771 43.4315V43.8061C28.771 44.1014 28.5316 44.341 28.2362 44.341H27.6737C27.3304 44.341 27.0522 44.6192 27.0522 44.9624C27.0522 45.3056 27.3304 45.5838 27.6737 45.5838H29.9999V43.1596C29.9999 42.8124 30.1263 42.495 30.3356 42.2503C30.2287 42.2199 30.1165 42.2026 29.9999 42.2026Z" fill="#C0405C"/>
<path d="M34.1598 47.6581V47.856C34.1598 48.5256 33.6169 49.0685 32.9473 49.0685H27.0524C26.3828 49.0685 25.8398 48.5256 25.8398 47.856V47.6581C25.8398 46.1347 27.0746 44.8999 28.5981 44.8999H31.4017C32.925 44.9 34.1598 46.1348 34.1598 47.6581Z" fill="#DD5273"/>
<path d="M34.1598 47.6581V47.856C34.1598 48.5256 33.6169 49.0685 32.9473 49.0685H29.9998V46.3017C29.9998 45.9541 30.1264 45.6363 30.3363 45.3914C30.5932 45.09 30.9751 44.8999 31.4016 44.8999C32.1628 44.8999 32.853 45.2081 33.3523 45.7074C33.8515 46.2068 34.1598 46.8969 34.1598 47.6581Z" fill="#EE6781"/>
<path d="M32.3259 47.4829H31.7634C31.4681 47.4829 31.2286 47.2435 31.2286 46.9481V46.5733C31.2286 46.5732 31.2286 46.5731 31.2286 46.5728C31.2286 46.0112 30.8518 45.5376 30.3363 45.3911C30.1266 45.636 29.9998 45.9537 29.9998 46.3014V48.7257H32.3258C32.6691 48.7257 32.9473 48.4475 32.9473 48.1042C32.9474 47.7611 32.6692 47.4829 32.3259 47.4829Z" fill="#F4829B"/>
<path d="M29.9999 45.3447C29.3424 45.3447 28.8071 45.8614 28.7742 46.5107C28.7721 46.5314 28.771 46.5523 28.771 46.5736V46.9482C28.771 47.2435 28.5316 47.483 28.2362 47.483H27.6737C27.3304 47.483 27.0522 47.7612 27.0522 48.1045C27.0522 48.4477 27.3304 48.7259 27.6737 48.7259H29.9999V46.3017C29.9999 45.9546 30.1263 45.6371 30.3356 45.3924C30.2287 45.362 30.1165 45.3447 29.9999 45.3447Z" fill="#C0405C"/>
<path d="M33.5848 50.3261V50.4966C33.5848 51.0737 33.1169 51.5416 32.5398 51.5416H27.4598C26.8827 51.5416 26.4148 51.0738 26.4148 50.4966V50.3261C26.4148 49.0133 27.479 47.9492 28.7918 47.9492H31.2079C32.5206 47.9491 33.5848 49.0133 33.5848 50.3261Z" fill="#DD5273"/>
<path d="M33.5848 50.326V50.4965C33.5848 51.0736 33.1168 51.5415 32.5398 51.5415H29.9998V49.1572C29.9998 48.8577 30.109 48.5838 30.2898 48.3727C30.5112 48.1129 30.8403 47.9492 31.2078 47.9492C31.8639 47.9492 32.4587 48.2149 32.8889 48.6451C33.3191 49.0753 33.5848 49.6699 33.5848 50.326Z" fill="#EE6781"/>
<path d="M32.0044 50.1751H31.5197C31.2651 50.1751 31.0588 49.9688 31.0588 49.7142V49.3913C31.0588 49.3912 31.0588 49.391 31.0588 49.3909C31.0588 48.9068 30.7341 48.4988 30.2898 48.3726C30.109 48.5836 29.9998 48.8575 29.9998 49.157V51.2462H32.0044C32.3001 51.2462 32.5399 51.0065 32.5399 50.7107C32.5399 50.4149 32.3 50.1751 32.0044 50.1751Z" fill="#F4829B"/>
<path d="M29.9998 48.3325C29.4332 48.3325 28.9719 48.7778 28.9435 49.3373C28.9418 49.3551 28.9409 49.3731 28.9409 49.3914V49.7143C28.9409 49.9688 28.7345 50.1752 28.48 50.1752H27.9953C27.6995 50.1752 27.4597 50.4149 27.4597 50.7107C27.4597 51.0065 27.6995 51.2463 27.9953 51.2463H29.9998V49.1571C29.9998 48.8579 30.1087 48.5844 30.2891 48.3734C30.197 48.3474 30.1002 48.3325 29.9998 48.3325Z" fill="#C0405C"/>
<path d="M33.1314 52.778V52.9269C33.1314 53.4311 32.7226 53.8397 32.2186 53.8397H27.7809C27.2768 53.8397 26.8682 53.4311 26.8682 52.9269V52.778C26.8682 51.6312 27.7977 50.7017 28.9445 50.7017H31.055C32.2018 50.7017 33.1314 51.6312 33.1314 52.778Z" fill="#DD5273"/>
<path d="M33.1314 52.7779V52.9268C33.1314 53.431 32.7226 53.8396 32.2186 53.8396H29.9998V51.7568C29.9998 51.4951 30.0951 51.256 30.2531 51.0716C30.4465 50.8447 30.7341 50.7017 31.055 50.7017C31.6281 50.7017 32.1477 50.9337 32.5235 51.3095C32.8993 51.6852 33.1314 52.2048 33.1314 52.7779Z" fill="#EE6781"/>
<path d="M31.7509 52.6464H31.3275C31.1052 52.6464 30.9248 52.4662 30.9248 52.2438V51.9617C30.9248 51.9616 30.9248 51.9615 30.9248 51.9613C30.9248 51.5385 30.6412 51.1821 30.2531 51.0718C30.0951 51.2561 29.9998 51.4953 29.9998 51.757V53.5819H31.7508C32.0092 53.5819 32.2186 53.3725 32.2186 53.1141C32.2187 52.8558 32.0093 52.6464 31.7509 52.6464Z" fill="#F4829B"/>
<path d="M29.9998 51.0366C29.505 51.0366 29.1019 51.4256 29.0772 51.9144C29.0757 51.9299 29.0749 51.9458 29.0749 51.9617V52.2438C29.0749 52.4661 28.8946 52.6464 28.6722 52.6464H28.2488C27.9904 52.6464 27.781 52.8558 27.781 53.1142C27.781 53.3726 27.9904 53.582 28.2488 53.582H29.9998V51.7571C29.9998 51.4958 30.095 51.2568 30.2526 51.0726C30.1721 51.0496 30.0876 51.0366 29.9998 51.0366Z" fill="#C0405C"/>
<path d="M36.5045 56.3865C36.5045 56.7447 36.3589 57.0685 36.1248 57.3036C35.8907 57.5386 35.5659 57.6833 35.2077 57.6833H32.418C31.5355 57.6833 30.7629 57.2103 30.3412 56.504C30.1239 56.142 29.9998 55.7185 29.9998 55.265V53.8403H32.2184L35.6023 55.1493L35.675 55.1773C36.1752 55.3703 36.5045 55.8509 36.5045 56.3865Z" fill="#DD5273"/>
<path d="M36.5045 56.3867C36.5045 56.7449 36.359 57.0687 36.1249 57.3038C35.8907 57.5389 35.566 57.6835 35.2078 57.6835H32.4181C31.5356 57.6835 30.7629 57.2105 30.3413 56.5042C30.7033 56.7207 31.1269 56.8448 31.5794 56.8448H34.369C35.0846 56.8448 35.6658 56.2645 35.6658 55.5479C35.6658 55.4098 35.6435 55.2764 35.6024 55.1494L35.6752 55.1774C36.1753 55.3705 36.5045 55.8511 36.5045 56.3867Z" fill="#3F5D77"/>
<path d="M31.7478 55.2984L34.167 56.2342C34.483 56.3564 34.8234 56.1232 34.8234 55.7843C34.8234 55.5851 34.7009 55.4062 34.515 55.3344L32.0958 54.3986C31.7798 54.2764 31.4395 54.5096 31.4395 54.8485C31.4395 55.0477 31.562 55.2265 31.7478 55.2984Z" fill="#EE6781"/>
<path d="M23.4951 56.3865C23.4951 56.7447 23.6407 57.0685 23.8748 57.3036C24.1089 57.5386 24.4337 57.6833 24.7919 57.6833H27.5816C28.4641 57.6833 29.2367 57.2103 29.6584 56.504C29.8757 56.142 29.9998 55.7185 29.9998 55.265V53.8403H27.7812L24.3973 55.1493L24.3246 55.1773C23.8244 55.3703 23.4951 55.8509 23.4951 56.3865Z" fill="#C0405C"/>
<path d="M23.4951 56.3867C23.4951 56.7449 23.6407 57.0687 23.8748 57.3038C24.1089 57.5389 24.4337 57.6835 24.7919 57.6835H27.5816C28.4641 57.6835 29.2367 57.2105 29.6584 56.5042C29.2964 56.7207 28.8727 56.8448 28.4203 56.8448H25.6306C24.9151 56.8448 24.3338 56.2645 24.3338 55.5479C24.3338 55.4098 24.3562 55.2764 24.3972 55.1494L24.3245 55.1774C23.8244 55.3705 23.4951 55.8511 23.4951 56.3867Z" fill="#334353"/>
<path d="M28.2519 55.2984L25.8326 56.2342C25.5166 56.3564 25.1763 56.1232 25.1763 55.7843C25.1763 55.5851 25.2987 55.4062 25.4846 55.3344L27.9038 54.3986C28.2199 54.2764 28.5602 54.5096 28.5602 54.8485C28.5602 55.0477 28.4376 55.2265 28.2519 55.2984Z" fill="#DD5273"/>
</g>
<defs>
<clipPath id="clip0_1123_25982">
<rect width="60" height="60" fill="white"/>
</clipPath>
</defs>
</svg>
