<svg width="60" height="60" viewBox="0 0 60 60" fill="none" xmlns="http://www.w3.org/2000/svg">
<g clip-path="url(#clip0_1123_25681)">
<path d="M30 60C46.5685 60 60 46.5685 60 30C60 13.4315 46.5685 0 30 0C13.4315 0 0 13.4315 0 30C0 46.5685 13.4315 60 30 60Z" fill="#53B976"/>
<path d="M31.8914 43.3012L30.314 58.1066C30.2836 58.3855 30.1418 58.5262 30 58.5262C29.8582 58.5262 29.7164 58.3855 29.6859 58.1066L28.1086 43.3012C27.8918 41.2727 28.7988 39.4023 30 39.4023C31.2011 39.4023 32.1082 41.2727 31.8914 43.3012Z" fill="#B26E2B"/>
<path d="M31.8914 43.3012L30.3141 58.1066C30.2836 58.3855 30.1418 58.5262 30 58.5262V39.4023C31.2012 39.4023 32.1082 41.2727 31.8914 43.3012Z" fill="#C68132"/>
<path d="M39.9553 36.6997L37.8588 42.9435C37.4358 44.2021 35.7986 44.5126 34.9443 43.4954L33.6916 42.0036L32.4717 40.5493C31.826 39.7817 30.9131 39.3985 30.0002 39.3985C29.0873 39.3985 28.1744 39.7817 27.5287 40.5493L25.0561 43.4954C24.2018 44.5126 22.5647 44.2021 22.1416 42.9435L20.0451 36.6997C19.2764 34.4099 19.8705 31.881 21.5791 30.1724L24.0154 27.7349H35.985L38.4213 30.1724C40.1299 31.881 40.724 34.4099 39.9553 36.6997Z" fill="#B26E2B"/>
<path d="M39.9551 36.6997L37.8586 42.9435C37.4355 44.2021 35.7984 44.5126 34.9441 43.4954L33.6914 42.0036L32.4715 40.5493C31.8258 39.7817 30.9129 39.3985 30 39.3985V27.7349H35.9848L38.4211 30.1724C40.1297 31.881 40.7238 34.4099 39.9551 36.6997Z" fill="#C68132"/>
<path d="M35.9847 27.7349L30.8776 37.6876C30.6937 38.045 30.3468 38.2243 29.9999 38.2243C29.653 38.2243 29.3062 38.045 29.1222 37.6876L24.0151 27.7349H35.9847Z" fill="#C68132"/>
<path d="M35.9848 27.7349L30.8777 37.6876C30.6937 38.045 30.3469 38.2243 30 38.2243V27.7349H35.9848Z" fill="#DD8C29"/>
<path d="M39.955 36.6998L37.8585 42.9436C37.4355 44.2022 35.7984 44.5127 34.9441 43.4955C34.1728 42.577 33.9692 41.3087 34.4144 40.195L37.0944 33.4911C37.7153 31.9377 40.0199 32.2025 40.2338 33.8618C40.3547 34.7999 40.2673 35.7696 39.955 36.6998Z" fill="#DD8C29"/>
<path d="M20.0449 36.6998L22.1414 42.9436C22.5644 44.2022 24.2015 44.5127 25.0558 43.4955C25.8272 42.577 26.0307 41.3087 25.5855 40.195L22.9056 33.4911C22.2846 31.9377 19.98 32.2025 19.7661 33.8618C19.6452 34.7999 19.7326 35.7696 20.0449 36.6998Z" fill="#C68132"/>
<path d="M32.4602 27.7349V33.0827C32.4602 33.7622 31.9094 34.313 31.23 34.313C30.5505 34.313 29.9998 33.7622 29.9998 33.0827V27.7349H32.4602Z" fill="#F9C744"/>
<path d="M31.23 28.2686C30.5505 28.2686 29.9998 28.8193 29.9998 29.4988V31.2598C29.9998 31.9392 30.5505 32.49 31.23 32.49C31.9094 32.49 32.4602 31.9392 32.4602 31.2598V29.4988C32.4601 28.8193 31.9093 28.2686 31.23 28.2686Z" fill="white"/>
<path d="M36.8929 26.8271C36.8929 27.3287 36.4862 27.7354 35.9847 27.7354H24.0151C23.7644 27.7354 23.537 27.6334 23.3729 27.4693C23.2089 27.3053 23.1069 27.0779 23.1069 26.8271C23.1069 26.3256 23.5136 25.9189 24.0151 25.9189H35.9847C36.2355 25.9189 36.4628 26.0209 36.6269 26.185C36.7909 26.349 36.8929 26.5764 36.8929 26.8271Z" fill="#F9C744"/>
<path d="M36.893 26.8271C36.893 27.3287 36.4863 27.7354 35.9848 27.7354H30V25.9189H35.9848C36.2355 25.9189 36.4629 26.0209 36.627 26.185C36.791 26.349 36.893 26.5764 36.893 26.8271Z" fill="#FAD98F"/>
<path d="M47.1973 20.4404V32.2037C47.1973 33.8326 45.0844 34.4725 44.1809 33.1178L41.2699 28.7572C40.7625 27.9967 40.1063 27.3662 39.3539 26.8963C38.352 26.267 37.1801 25.9189 35.9613 25.9189H24.0387C22.8199 25.9189 21.648 26.267 20.6461 26.8963C19.8937 27.3662 19.2375 27.9967 18.7301 28.7572L15.8191 33.1178C14.9156 34.4725 12.8027 33.8326 12.8027 32.2037V20.4404C12.8027 10.9424 20.502 3.24316 30 3.24316C39.498 3.24316 47.1973 10.9424 47.1973 20.4404Z" fill="#B26E2B"/>
<path d="M47.1973 20.4404V32.2037C47.1973 33.3076 46.227 33.9568 45.3199 33.8396C44.8898 33.7846 44.4715 33.5549 44.1809 33.1178L42.8602 31.1396L41.2699 28.7572C40.0863 26.9842 38.0941 25.9189 35.9613 25.9189H30V3.24316C39.498 3.24316 47.1973 10.9424 47.1973 20.4404Z" fill="#C68132"/>
<path d="M39.3538 17.6734V26.8961C38.3519 26.2668 37.18 25.9188 35.9612 25.9188H24.0386C22.8198 25.9188 21.6479 26.2668 20.646 26.8961V17.6734C20.646 12.5066 24.8343 8.31836 29.9999 8.31836C35.1655 8.31836 39.3538 12.5066 39.3538 17.6734Z" fill="#C68132"/>
<path d="M39.3539 17.6734V26.8961C38.6109 26.4297 37.773 26.1168 36.893 25.9879C36.5871 25.9422 36.2754 25.9188 35.9613 25.9188H30V8.31836C35.1656 8.31836 39.3539 12.5066 39.3539 17.6734Z" fill="#DD8C29"/>
<path d="M32.0817 12.752H30V25.9191H34.9208V15.5911C34.9208 14.0231 33.6497 12.752 32.0817 12.752Z" fill="#F39E22"/>
<path d="M27.9182 12.752H29.9999V25.9191H25.0791V15.5911C25.0791 14.0231 26.3502 12.752 27.9182 12.752Z" fill="#DD8C29"/>
<path d="M30 25.9189V16.8211C30 16.1416 30.5508 15.5908 31.2302 15.5908C31.9097 15.5908 32.4605 16.1416 32.4605 16.8211V25.9189H30Z" fill="#F9C744"/>
<path d="M31.2302 23.6272C31.9097 23.6272 32.4605 23.0764 32.4605 22.397V18.6438C32.4605 17.9644 31.9097 17.4136 31.2302 17.4136C30.5508 17.4136 30 17.9644 30 18.6438V22.397C30 23.0764 30.5508 23.6272 31.2302 23.6272Z" fill="white"/>
<path d="M39.354 18.644V26.8964C38.611 26.43 37.7731 26.1171 36.8931 25.9882V18.644C36.8931 17.9644 37.4438 17.4136 38.1235 17.4136C38.4634 17.4136 38.7704 17.5507 38.9931 17.7733C39.2157 17.996 39.354 18.3042 39.354 18.644Z" fill="#F39E22"/>
<path d="M38.1238 25.45C38.8032 25.45 39.354 24.8992 39.354 24.2197V20.4666C39.354 19.7871 38.8032 19.2363 38.1238 19.2363C37.4443 19.2363 36.8936 19.7871 36.8936 20.4666V24.2197C36.8937 24.8992 37.4445 25.45 38.1238 25.45Z" fill="#F9C744"/>
<path d="M45.3199 16.8213V33.8396C44.8898 33.7845 44.4714 33.5548 44.1808 33.1177L42.8601 31.1396V16.8213C42.8601 16.4814 42.9984 16.1744 43.2199 15.9518C43.4425 15.7291 43.7507 15.5908 44.0894 15.5908C44.7691 15.5908 45.3199 16.1416 45.3199 16.8213Z" fill="#DD8C29"/>
<path d="M44.0899 27.3111C44.7693 27.3111 45.3201 26.7603 45.3201 26.0808V18.8035C45.3201 18.124 44.7693 17.5732 44.0899 17.5732C43.4104 17.5732 42.8596 18.124 42.8596 18.8035V26.0808C42.8597 26.7603 43.4105 27.3111 44.0899 27.3111Z" fill="#F39E22"/>
<path d="M14.6802 16.8213V33.8396C15.1103 33.7845 15.5286 33.5548 15.8192 33.1177L17.1399 31.1396V16.8213C17.1399 16.4814 17.0017 16.1744 16.7802 15.9518C16.5575 15.7291 16.2493 15.5908 15.9106 15.5908C15.231 15.5908 14.6802 16.1416 14.6802 16.8213Z" fill="#C68132"/>
<path d="M15.9102 27.3111C15.2307 27.3111 14.6799 26.7603 14.6799 26.0808V18.8035C14.6799 18.124 15.2307 17.5732 15.9102 17.5732C16.5896 17.5732 17.1404 18.124 17.1404 18.8035V26.0808C17.1404 26.7603 16.5896 27.3111 15.9102 27.3111Z" fill="#DD8C29"/>
</g>
<defs>
<clipPath id="clip0_1123_25681">
<rect width="60" height="60" fill="white"/>
</clipPath>
</defs>
</svg>
