<svg width="60" height="60" viewBox="0 0 60 60" fill="none" xmlns="http://www.w3.org/2000/svg">
<g clip-path="url(#clip0_1123_24678)">
<path d="M30 60C46.5685 60 60 46.5685 60 30C60 13.4315 46.5685 0 30 0C13.4315 0 0 13.4315 0 30C0 46.5685 13.4315 60 30 60Z" fill="#EA792E"/>
<path d="M50.3169 23.8214V33.9986H13.2574C11.7492 33.9986 10.3832 33.3867 9.395 32.3985C9.1673 32.1709 8.96035 31.9238 8.77543 31.66C8.25547 30.9149 7.91656 30.0327 7.82211 29.0795C7.80406 28.901 7.79492 28.7198 7.79492 28.5362C7.79492 25.9725 9.57734 23.7594 12.0712 23.2045C12.1023 23.1968 12.1346 23.1902 12.167 23.1838L34.6011 18.6165L42.0813 17.0941C44.0578 16.6918 45.9759 17.1769 47.4622 18.248C48.6445 19.1004 49.5538 20.3214 50.0039 21.7597C50.207 22.4077 50.3169 23.0996 50.3169 23.8214Z" fill="#50755C"/>
<path d="M50.3168 33.9985V36.8326C50.3168 39.1932 49.1061 41.2291 47.3068 42.4153C45.9539 43.3078 44.2684 43.7165 42.517 43.4191L41.5108 43.2484L40.0116 42.9936L34.2155 42.0079L32.7176 41.7545L26.9202 40.7688L25.4223 40.514L19.6262 39.5297L18.127 39.2749L17.642 39.192C15.8039 38.879 14.3229 37.6373 13.6504 35.9972C13.3969 35.3776 13.2571 34.7024 13.2571 33.9988H50.3168V33.9985Z" fill="#DAAB42"/>
<path d="M12.2833 24.5149C12.2833 26.8522 10.3392 28.782 7.82211 29.0796C7.80406 28.9011 7.79492 28.7199 7.79492 28.5363C7.79492 25.9726 9.57734 23.7595 12.0712 23.2046C12.2096 23.6198 12.2833 24.0595 12.2833 24.5149Z" fill="#53B976"/>
<path d="M35.6392 24.2711C35.8906 25.2918 35.5846 26.3183 34.9148 27.0305C34.534 27.4391 34.0345 27.7423 33.4536 27.8855L29.4743 28.8658C28.6727 29.0632 27.8692 28.9178 27.2143 28.5218C26.5595 28.1258 26.0573 27.4818 25.8599 26.6802C25.4907 25.1818 26.3233 23.6685 27.7446 23.1567C27.8419 23.121 27.9423 23.0912 28.0454 23.0658L32.0247 22.0855C32.8248 21.8884 33.6299 22.0335 34.2847 22.4295C34.938 22.8259 35.4417 23.4696 35.6392 24.2711Z" fill="#528F66"/>
<path d="M35.6392 24.2709C35.8907 25.2917 35.5846 26.3182 34.9149 27.0304C31.569 27.5818 28.4388 25.9337 27.7446 23.1567C27.8419 23.121 27.9423 23.0912 28.0454 23.0658L32.0248 22.0855C32.8248 21.8884 33.6299 22.0335 34.2847 22.4295C34.9381 22.8258 35.4417 23.4695 35.6392 24.2709Z" fill="#53B976"/>
<path d="M34.5437 24.5411C34.8006 25.584 34.1626 26.6368 33.1214 26.8933L29.3072 27.8329C28.785 27.9616 28.2615 27.8665 27.8363 27.6094C27.4109 27.3522 27.0837 26.9328 26.955 26.4106C26.6985 25.3694 27.3345 24.3153 28.3773 24.0584L32.1915 23.1188C32.7122 22.9906 33.2356 23.0855 33.661 23.3427C34.0882 23.601 34.4155 24.0204 34.5437 24.5411Z" fill="#F9C744"/>
<path d="M32.2314 26.067C32.2314 26.5754 31.9404 27.0437 31.4812 27.2661C31.3972 27.3075 31.3092 27.3398 31.2147 27.3631C30.4981 27.5403 29.7738 27.1018 29.5966 26.3852L29.3069 25.2056C29.1297 24.489 29.5682 23.7646 30.2847 23.5887C30.6016 23.5112 30.9185 23.5525 31.1901 23.6858C31.5342 23.8527 31.8032 24.167 31.9015 24.5667L32.1925 25.7463C32.2184 25.8536 32.2314 25.961 32.2314 26.067Z" fill="#2E3140"/>
<path d="M10.7177 28.1789C10.2497 27.7109 10.2497 26.9521 10.7177 26.4842L11.2112 25.9907C11.6793 25.5226 12.438 25.5226 12.906 25.9907C13.374 26.4587 13.374 27.2175 12.906 27.6854L12.4125 28.1789C11.9446 28.6469 11.1858 28.6469 10.7177 28.1789Z" fill="#2E3140"/>
<path d="M32.2314 26.0668C32.2314 26.5752 31.9404 27.0434 31.4812 27.2659C31.1358 27.1003 30.8655 26.786 30.7672 26.385L30.4775 25.2054C30.3235 24.5819 30.6353 23.9532 31.1902 23.6855C31.5343 23.8524 31.8033 24.1667 31.9017 24.5664L32.1926 25.7461C32.2184 25.8534 32.2314 25.9607 32.2314 26.0668Z" fill="#3F5D77"/>
<path d="M32.8429 23.9203L30.6073 24.4711C30.1706 24.5787 29.9038 25.0199 30.0114 25.4565C30.119 25.8932 30.5602 26.1599 30.9968 26.0524L33.2324 25.5016C33.669 25.3941 33.9358 24.9529 33.8283 24.5162C33.7207 24.0795 33.2795 23.8127 32.8429 23.9203Z" fill="#CDE6F6"/>
<path d="M50.317 23.8214V33.9986H44.1975C40.8177 33.9986 38.0781 31.259 38.0781 27.8792C38.0781 26.8703 38.3226 25.9183 38.7559 25.0802C39.0469 24.5136 39.4233 23.9988 39.8709 23.5525C40.978 22.444 42.5083 21.7598 44.1975 21.7598H50.0039C50.207 22.4077 50.317 23.0997 50.317 23.8214Z" fill="#528F66"/>
<path d="M50.3169 23.8217V28.3967H44.1975C41.8278 28.3967 39.7725 27.0502 38.7559 25.0802C39.0468 24.5136 39.4232 23.9988 39.8708 23.5525C40.978 22.444 42.5082 21.7598 44.1975 21.7598H50.0039C50.207 22.4079 50.3169 23.0999 50.3169 23.8217Z" fill="#53B976"/>
<path d="M33.4785 29.4365C35.079 29.4365 36.3765 30.734 36.3765 32.3346V33.9984H30.5803V32.3346C30.5804 30.734 31.8779 29.4365 33.4785 29.4365Z" fill="#528F66"/>
<path d="M26.1832 29.4365C27.7837 29.4365 29.0813 30.734 29.0813 32.3346V33.9984H23.2852V32.3346C23.2852 30.734 24.5827 29.4365 26.1832 29.4365Z" fill="#528F66"/>
<path d="M18.8882 29.4365C20.4887 29.4365 21.7862 30.734 21.7862 32.3346V33.9984H15.99V32.3346C15.9901 30.734 17.2876 29.4365 18.8882 29.4365Z" fill="#528F66"/>
<path d="M14.4913 32.3352V33.9986H13.2573C11.7491 33.9986 10.3832 33.3868 9.39496 32.3986C9.16727 32.171 8.96031 31.9238 8.77539 31.66C9.07809 30.3847 10.2254 29.4365 11.5926 29.4365C13.1939 29.4364 14.4913 30.7338 14.4913 32.3352Z" fill="#528F66"/>
<path d="M13.5408 22.9042L13.8668 24.6251C14.2267 26.5247 16.0227 27.8009 17.935 27.5156L18.9621 27.3625C22.5861 26.8219 25.438 23.9882 26.0017 20.3677L13.5408 22.9042Z" fill="#528F66"/>
<path d="M15.2656 22.5529L15.5499 24.0191C15.6915 24.7494 16.402 25.2236 17.1308 25.0742L20.5402 24.3753C21.8518 24.1064 22.9663 23.2484 23.5616 22.0492L24.2159 20.731L15.2656 22.5529Z" fill="#53B976"/>
<path d="M47.4622 18.2479C47.0418 18.755 46.452 19.1222 45.7652 19.2542L37.9771 20.752C36.4651 21.0429 34.9866 20.1078 34.6011 18.6165L42.0813 17.0941C44.0578 16.6919 45.9759 17.1769 47.4622 18.2479Z" fill="#53B976"/>
<path d="M47.3068 38.4274V42.4152C45.9539 43.3077 44.2684 43.7165 42.517 43.419L41.5107 43.2483V38.4274C41.5107 36.8274 42.8081 35.5288 44.4094 35.5288C45.2087 35.5288 45.933 35.8534 46.4583 36.3787C46.9822 36.9025 47.3068 37.6268 47.3068 38.4274Z" fill="#F9C744"/>
<path d="M40.0117 38.4274V42.9934L34.2156 42.0078V38.4274C34.2156 36.8274 35.5142 35.5288 37.1142 35.5288C37.9137 35.5288 38.6379 35.8534 39.1631 36.3787C39.6869 36.9025 40.0117 37.6268 40.0117 38.4274Z" fill="#F9C744"/>
<path d="M32.7178 38.4274V41.7543L26.9204 40.7686V38.4274C26.9204 36.8274 28.2191 35.5288 29.819 35.5288C30.6184 35.5288 31.3441 35.8534 31.8679 36.3787C32.3932 36.9025 32.7178 37.6268 32.7178 38.4274Z" fill="#F9C744"/>
<path d="M25.4226 38.4274V40.5138L19.6265 39.5295V38.4274C19.6265 36.8274 20.9238 35.5288 22.5238 35.5288C23.3231 35.5288 24.0489 35.8534 24.5727 36.3787C25.0979 36.9025 25.4226 37.6268 25.4226 38.4274Z" fill="#F9C744"/>
<path d="M18.1273 38.4276V39.2748L17.6423 39.192C15.8042 38.879 14.3232 37.6372 13.6506 35.9971C14.1046 35.7008 14.6466 35.5288 15.2287 35.5288C16.0293 35.5288 16.7536 35.8534 17.2789 36.3787C17.8026 36.9026 18.1273 37.6269 18.1273 38.4276Z" fill="#F9C744"/>
</g>
<defs>
<clipPath id="clip0_1123_24678">
<rect width="60" height="60" fill="white"/>
</clipPath>
</defs>
</svg>
