<svg width="60" height="60" viewBox="0 0 60 60" fill="none" xmlns="http://www.w3.org/2000/svg">
<g clip-path="url(#clip0_1123_24018)">
<path d="M30 60C46.5685 60 60 46.5685 60 30C60 13.4315 46.5685 0 30 0C13.4315 0 0 13.4315 0 30C0 46.5685 13.4315 60 30 60Z" fill="#53B976"/>
<path d="M45.2308 20.1341V27.2356C45.2308 28.1005 45.0972 28.9536 44.837 29.7669C44.5604 30.6423 44.1374 31.472 43.5819 32.2185L37.405 40.8716C36.7347 41.8103 35.9038 42.6001 34.9628 43.2106C34.705 43.3806 34.4378 43.5353 34.1647 43.6759C32.8944 44.3298 31.4694 44.6849 29.9999 44.6849C28.214 44.6849 26.4937 44.1599 25.037 43.2106C24.096 42.6001 23.2651 41.8103 22.5948 40.8716L16.4179 32.2185C15.8624 31.472 15.4394 30.6423 15.1628 29.7669C14.9026 28.9536 14.769 28.1005 14.769 27.2356V20.1341C14.769 16.8212 16.7272 13.8224 19.7589 12.4899L25.63 9.90947C27.0222 9.29775 28.5116 8.99072 29.9999 8.99072C31.4882 8.99072 32.9776 9.29775 34.3698 9.90947L40.2409 12.4899C43.2726 13.8224 45.2308 16.8212 45.2308 20.1341Z" fill="#A26D5A"/>
<path d="M45.2309 20.1341V27.2356C45.2309 29.031 44.6531 30.7782 43.582 32.2185L37.4051 40.8716C36.5508 42.0681 35.4352 43.022 34.1648 43.6759C32.8945 44.3298 31.4695 44.6849 30 44.6849V8.99072C31.4883 8.99072 32.9777 9.29775 34.3699 9.90947L40.241 12.4899C43.2727 13.8224 45.2309 16.8212 45.2309 20.1341Z" fill="#C17E62"/>
<path d="M44.8372 29.7666C44.5606 30.642 44.1375 31.4717 43.5821 32.2182L37.4051 40.8713C36.7348 41.81 35.904 42.5999 34.9629 43.2104C33.3235 40.9627 33.5168 37.7952 35.5454 35.7655L39.9247 31.3862C41.2629 30.0479 43.0981 29.5088 44.8372 29.7666Z" fill="#F3C3B1"/>
<path d="M25.0371 43.2105C24.096 42.5999 23.2652 41.8101 22.5949 40.8714L16.4179 32.2183C15.8625 31.4718 15.4394 30.6421 15.1628 29.7667C15.4441 29.7257 15.7289 29.7046 16.0125 29.7046C17.4832 29.7046 18.9539 30.2647 20.0753 31.3862L24.4546 35.7655C26.4832 37.7952 26.6765 40.9628 25.0371 43.2105Z" fill="#EEA47D"/>
<path d="M32.5644 30.8224C31.5267 29.7847 31.5267 28.1023 32.5644 27.0646L34.5895 25.0395C35.6272 24.0018 37.3096 24.0018 38.3473 25.0395C39.3849 26.0772 39.3849 27.7595 38.3473 28.7972L36.3221 30.8224C35.2844 31.86 33.6021 31.86 32.5644 30.8224Z" fill="#F3C3B1"/>
<path d="M27.4351 30.8224C26.3975 31.86 24.7151 31.86 23.6774 30.8224L21.6523 28.7972C20.6146 27.7595 20.6146 26.0772 21.6523 25.0395C22.69 24.0018 24.3723 24.0018 25.41 25.0395L27.4351 27.0646C28.4727 28.1023 28.4727 29.7848 27.4351 30.8224Z" fill="#EEA47D"/>
<path d="M33.7277 22.9724H29.9998V13.2524H33.7277C36.4118 13.2524 38.5877 15.4284 38.5877 18.1124C38.5877 20.7965 36.4118 22.9724 33.7277 22.9724Z" fill="#D48D77"/>
<path d="M26.2719 13.2524H29.9998V22.9724H26.2719C23.5878 22.9724 21.4119 20.7965 21.4119 18.1124C21.4119 15.4284 23.5878 13.2524 26.2719 13.2524Z" fill="#C17E62"/>
<path d="M37.6886 37.8353V48.3751C37.6886 52.4274 34.4039 55.7122 30.3515 55.7122H29.6484C25.596 55.7122 22.3113 52.4274 22.3113 48.3751V37.8353C22.3113 37.097 22.5023 36.4044 22.8386 35.8021C23.2031 35.1481 23.407 34.4169 23.407 33.6681V32.2993C23.407 31.2938 24.2226 30.4794 25.2281 30.4794H25.3488C25.8515 30.4794 26.3062 30.2755 26.6355 29.9462C26.9648 29.6157 27.1687 29.161 27.1687 28.6583C27.1687 27.6528 27.9843 26.8384 28.9898 26.8384H31.0101C31.5128 26.8384 31.9687 27.0423 32.298 27.3716C32.6273 27.7009 32.8312 28.1556 32.8312 28.6583C32.8312 29.6638 33.6457 30.4794 34.6511 30.4794H34.7718C35.7773 30.4794 36.5929 31.2938 36.5929 32.2993V33.6681C36.5929 34.4169 36.7968 35.1481 37.1613 35.8021C37.4976 36.4044 37.6886 37.097 37.6886 37.8353Z" fill="#334353"/>
<path d="M37.6887 37.8353V48.3751C37.6887 52.4274 34.4039 55.7122 30.3516 55.7122H30V26.8384H31.0102C31.5129 26.8384 31.9687 27.0423 32.298 27.3716C32.6273 27.7009 32.8313 28.1556 32.8313 28.6583C32.8313 29.6638 33.6457 30.4794 34.6512 30.4794H34.7719C35.7773 30.4794 36.593 31.2938 36.593 32.2993V33.6681C36.593 34.4169 36.7969 35.1481 37.1613 35.8021C37.4977 36.4044 37.6887 37.097 37.6887 37.8353Z" fill="#3E4E60"/>
<path d="M36.4348 48.4546C36.4348 50.1433 35.5676 51.6585 34.1988 52.6839C33.0715 53.5276 31.6031 54.0386 30 54.0386V52.8667C30.9703 52.8667 31.8797 52.6452 32.6613 52.2597C34.2164 51.4921 35.2629 50.0741 35.2629 48.4546C35.2629 48.1312 35.5254 47.8687 35.8488 47.8687C36.1723 47.8687 36.4348 48.1312 36.4348 48.4546Z" fill="#22A8B9"/>
<path d="M30 52.8667V54.0386C28.3968 54.0386 26.9285 53.5276 25.8011 52.6839C24.4324 51.6585 23.5652 50.1433 23.5652 48.4546C23.5652 48.1312 23.8277 47.8687 24.1511 47.8687C24.4746 47.8687 24.7371 48.1312 24.7371 48.4546C24.7371 50.0741 25.7835 51.4921 27.3386 52.2597C28.1203 52.6452 29.0296 52.8667 30 52.8667Z" fill="#3F5D77"/>
<path d="M31.8042 48.7378C32.516 48.7378 33.093 48.1608 33.093 47.449C33.093 46.7372 32.516 46.1602 31.8042 46.1602C31.0924 46.1602 30.5154 46.7372 30.5154 47.449C30.5154 48.1608 31.0924 48.7378 31.8042 48.7378Z" fill="#2E3140"/>
<path d="M28.1956 48.7378C28.9074 48.7378 29.4844 48.1608 29.4844 47.449C29.4844 46.7372 28.9074 46.1602 28.1956 46.1602C27.4838 46.1602 26.9067 46.7372 26.9067 47.449C26.9067 48.1608 27.4838 48.7378 28.1956 48.7378Z" fill="#151516"/>
<path d="M31.2352 49.2065H30V51.2115H32.4509C33.1689 51.2115 33.4466 50.2772 32.8451 49.8851L32.2812 49.5174C31.97 49.3146 31.6066 49.2065 31.2352 49.2065Z" fill="#22A8B9"/>
<path d="M28.7648 49.2065H29.9999V51.2115H27.5491C26.8311 51.2115 26.5533 50.2772 27.1549 49.8851L27.7188 49.5174C28.0299 49.3146 28.3933 49.2065 28.7648 49.2065Z" fill="#3F5D77"/>
<path d="M33.7925 31.3359H30V34.6273H33.7925C34.7014 34.6273 35.4382 33.8905 35.4382 32.9816C35.4382 32.0727 34.7014 31.3359 33.7925 31.3359Z" fill="#22A8B9"/>
<path d="M26.2074 34.6273H30V31.3359H26.2074C25.2985 31.3359 24.5618 32.0727 24.5618 32.9816C24.5618 33.8905 25.2985 34.6273 26.2074 34.6273Z" fill="#3F5D77"/>
<path d="M31.5987 27.5947H30V28.9821H31.5987C31.9818 28.9821 32.2923 28.6716 32.2923 28.2885C32.2923 27.9053 31.9818 27.5947 31.5987 27.5947Z" fill="#22A8B9"/>
<path d="M28.4014 28.9821H30.0001V27.5947H28.4014C28.0183 27.5947 27.7078 27.9053 27.7078 28.2884C27.7078 28.6716 28.0183 28.9821 28.4014 28.9821Z" fill="#3F5D77"/>
<path d="M33.0796 31.3359H30V33.3254H33.0796C33.6289 33.3254 34.0744 32.88 34.0744 32.3306C34.0744 31.7813 33.6289 31.3359 33.0796 31.3359Z" fill="white"/>
<path d="M26.9203 33.3254H29.9999V31.3359H26.9203C26.371 31.3359 25.9255 31.7814 25.9255 32.3307C25.9255 32.8801 26.371 33.3254 26.9203 33.3254Z" fill="#22A8B9"/>
<path d="M29.9999 52.8668V54.0387C28.3967 54.0387 26.9284 53.5277 25.801 52.684C26.2932 52.5117 26.8065 52.3699 27.3385 52.2598C28.1202 52.6453 29.0295 52.8668 29.9999 52.8668Z" fill="#22A8B9"/>
<path d="M34.1986 52.684C33.0712 53.5277 31.6029 54.0387 29.9998 54.0387V52.8668C30.9701 52.8668 31.8794 52.6453 32.6611 52.2598C33.1931 52.3699 33.7064 52.5117 34.1986 52.684Z" fill="white"/>
<path d="M40.7823 24.2027C40.7823 24.621 40.6217 25.0394 40.303 25.3581L38.7514 26.9109C38.6506 27.0117 38.5405 27.096 38.4233 27.164C37.7963 27.532 36.9772 27.4476 36.4405 26.9109C36.1217 26.5921 35.9612 26.1726 35.9612 25.7554C35.9612 25.337 36.1217 24.9187 36.4405 24.5999L37.992 23.0472C38.5299 22.5105 39.3491 22.4261 39.9749 22.7929C40.092 22.862 40.2022 22.9464 40.303 23.0472C40.6217 23.3671 40.7823 23.7843 40.7823 24.2027Z" fill="#2E3140"/>
<path d="M40.7823 24.2027C40.7823 24.6211 40.6218 25.0395 40.303 25.3582L38.7515 26.9109C38.6507 27.0117 38.5405 27.0961 38.4233 27.1641C38.3062 27.0961 38.1948 27.0117 38.094 26.9109C37.7741 26.5922 37.6147 26.1727 37.6147 25.7555C37.6147 25.3371 37.7741 24.9187 38.094 24.6L39.6456 23.0473C39.7464 22.9465 39.8577 22.8621 39.9749 22.793C40.0921 22.8621 40.2022 22.9465 40.303 23.0473C40.6218 23.3672 40.7823 23.7844 40.7823 24.2027Z" fill="#3E4E60"/>
<path d="M39.2422 25.1851C39.8166 25.1851 40.2822 24.7194 40.2822 24.145C40.2822 23.5706 39.8166 23.105 39.2422 23.105C38.6678 23.105 38.2021 23.5706 38.2021 24.145C38.2021 24.7194 38.6678 25.1851 39.2422 25.1851Z" fill="white"/>
<path d="M19.1807 24.2027C19.1807 24.621 19.3412 25.0394 19.66 25.3581L21.2115 26.9109C21.3123 27.0117 21.4225 27.096 21.5396 27.164C22.1666 27.532 22.9857 27.4476 23.5225 26.9109C23.8412 26.5921 24.0018 26.1726 24.0018 25.7554C24.0018 25.337 23.8412 24.9187 23.5225 24.5999L21.9709 23.0472C21.433 22.5105 20.6139 22.4261 19.9881 22.7929C19.8709 22.862 19.7607 22.9464 19.66 23.0472C19.3412 23.3671 19.1807 23.7843 19.1807 24.2027Z" fill="#2E3140"/>
<path d="M19.1807 24.2027C19.1807 24.6211 19.3412 25.0395 19.66 25.3582L21.2115 26.9109C21.3123 27.0117 21.4225 27.0961 21.5396 27.1641C21.6568 27.0961 21.7682 27.0117 21.8689 26.9109C22.1889 26.5922 22.3482 26.1727 22.3482 25.7555C22.3482 25.3371 22.1889 24.9187 21.8689 24.6L20.3174 23.0473C20.2166 22.9465 20.1053 22.8621 19.9881 22.793C19.8709 22.8621 19.7607 22.9465 19.66 23.0473C19.3412 23.3672 19.1807 23.7844 19.1807 24.2027Z" fill="#3E4E60"/>
<path d="M20.7209 25.1851C21.2953 25.1851 21.761 24.7194 21.761 24.145C21.761 23.5706 21.2953 23.105 20.7209 23.105C20.1465 23.105 19.6809 23.5706 19.6809 24.145C19.6809 24.7194 20.1465 25.1851 20.7209 25.1851Z" fill="white"/>
</g>
<defs>
<clipPath id="clip0_1123_24018">
<rect width="60" height="60" fill="white"/>
</clipPath>
</defs>
</svg>
