<svg width="38" height="44" viewBox="0 0 38 44" fill="none" xmlns="http://www.w3.org/2000/svg">
<path d="M36.2292 17.7613L36.2319 17.7624C36.2319 17.7624 37.7984 12.948 37.7984 8.2492C37.7984 5.65315 36.6502 3.38533 35.6225 1.87561C34.8883 0.79713 33.3411 0.6851 32.4588 1.64627L22.6255 12.3592H15.3741L5.54082 1.64627C4.65863 0.6851 3.11129 0.79713 2.37711 1.87561C1.34938 3.38533 0.201172 5.65315 0.201172 8.2492C0.201172 12.9481 1.76773 17.7624 1.76773 17.7624L1.77043 17.7613C1.48461 18.3042 1.24379 18.8776 1.05723 19.4795C0.474805 21.3569 0.201757 23.2377 0.201757 25.0764C0.201757 35.0795 8.30879 43.8287 18.9998 43.8287C24.3459 43.8287 29.0451 41.6408 32.4084 38.2037C37.008 33.5022 39.108 26.4615 36.9424 19.4795C36.7558 18.8776 36.515 18.3042 36.2292 17.7613Z" fill="#EA792E"/>
<path d="M15.3741 12.3592L5.54082 1.64627C4.65863 0.6851 3.11129 0.79713 2.37711 1.87561C1.34938 3.38533 0.201172 5.65315 0.201172 8.2492C0.201172 12.9481 1.76773 17.7624 1.76773 17.7624L1.77043 17.7613C1.48461 18.3042 1.24379 18.8776 1.05723 19.4795C0.474805 21.3569 0.201757 23.2377 0.201757 25.0764C0.201757 35.0795 8.30879 43.8287 18.9998 43.8287V12.3592H15.3741Z" fill="#DD5E26"/>
<path d="M2.02393 10.5355C2.02393 12.1984 2.28291 13.8801 2.5583 15.2031C2.84189 16.5625 4.27978 17.3394 5.57002 16.8262L6.66221 16.3926L10.5376 14.8539C11.9919 14.2762 12.4161 12.4211 11.3579 11.268L7.78955 7.38085L7.78721 7.37851L6.08096 5.51874C5.41299 4.79218 4.23877 4.86953 3.6833 5.68515C2.90049 6.83124 2.02393 8.55859 2.02393 10.5355Z" fill="#BF5E39"/>
<path d="M4.67115 14.8974L6.66217 16.3927L10.5376 14.854C11.9919 14.2763 12.4161 12.4212 11.3579 11.2681L7.78951 7.38098L7.78717 7.37864L5.86764 6.96965C5.45279 6.88059 5.14225 7.34348 5.38014 7.69387L6.8649 9.30168C7.30904 9.78215 6.89889 10.5532 6.25318 10.4536L4.84576 10.2368C4.40514 10.2368 4.20592 10.7876 4.54576 11.07L6.87428 12.7716C7.40631 13.1595 7.14381 14.0009 6.48639 14.0197L4.84342 14.0642C4.4567 14.1568 4.3524 14.6583 4.67115 14.8974Z" fill="#EA792E"/>
<path d="M35.9755 10.5355C35.9755 12.1984 35.7165 13.8801 35.4411 15.2031C35.1575 16.5625 33.7196 17.3394 32.4294 16.8262L31.3372 16.3926L27.4618 14.8539C26.0075 14.2762 25.5833 12.4211 26.6415 11.268L30.2098 7.38085L30.2122 7.37851L31.9184 5.51874C32.5864 4.79218 33.7606 4.86953 34.3161 5.68515C35.0989 6.83124 35.9755 8.55859 35.9755 10.5355Z" fill="#DD5E26"/>
<path d="M33.3282 14.8974L31.3372 16.3927L27.4618 14.854C26.0075 14.2763 25.5833 12.4212 26.6415 11.2681L30.2098 7.38098L30.2122 7.37864L32.1317 6.96965C32.5466 6.88059 32.8571 7.34348 32.6192 7.69387L31.1345 9.30168C30.6903 9.78215 31.1005 10.5532 31.7462 10.4536L33.1536 10.2368C33.5942 10.2368 33.7934 10.7876 33.4536 11.07L31.1251 12.7716C30.593 13.1595 30.8555 14.0009 31.513 14.0197L33.1559 14.0642C33.5427 14.1568 33.647 14.6583 33.3282 14.8974Z" fill="#F39E22"/>
<path d="M33.7577 1.6899L33.2867 2.03513C32.9473 2.28392 32.8987 2.79451 33.1779 3.1756L35.581 6.45404C35.8604 6.83513 36.3619 6.94236 36.7013 6.69357C37.0029 6.47256 37.0798 6.03838 36.8827 5.66877L34.9505 2.04509C34.7034 1.5815 34.1361 1.41252 33.7577 1.6899Z" fill="#F39E22"/>
<path d="M4.24186 1.6899L4.71284 2.03513C5.05221 2.28392 5.10084 2.79451 4.82158 3.1756L2.41854 6.45404C2.13916 6.83513 1.6376 6.94236 1.29823 6.69357C0.996585 6.47256 0.91971 6.03838 1.11682 5.66877L3.04901 2.04509C3.29616 1.5815 3.86346 1.41252 4.24186 1.6899Z" fill="#EA792E"/>
<path d="M20.8126 24.4846C19.8114 24.4846 18.9998 23.673 18.9998 22.6717V15.8124C18.9998 14.8112 19.8114 13.9995 20.8126 13.9995C21.8139 13.9995 22.6255 14.8112 22.6255 15.8124V22.6717C22.6254 23.673 21.8138 24.4846 20.8126 24.4846Z" fill="#F39E22"/>
<path d="M17.1869 24.4846C16.1857 24.4846 15.374 23.673 15.374 22.6717V15.8124C15.374 14.8112 16.1857 13.9995 17.1869 13.9995C18.1882 13.9995 18.9998 14.8112 18.9998 15.8124V22.6717C18.9998 23.673 18.1882 24.4846 17.1869 24.4846Z" fill="#EA792E"/>
<path d="M27.8196 19.3325H26.6103C25.6036 19.3325 24.7874 20.1487 24.7874 21.1555V22.7765C24.7874 23.7833 25.6036 24.5995 26.6103 24.5995H27.8196C28.8263 24.5995 29.6425 23.7833 29.6425 22.7765V21.1555C29.6425 20.1487 28.8263 19.3325 27.8196 19.3325Z" fill="#DD5E26"/>
<path d="M11.3892 19.3325H10.1799C9.17314 19.3325 8.35693 20.1487 8.35693 21.1555V22.7765C8.35693 23.7833 9.17314 24.5995 10.1799 24.5995H11.3892C12.3959 24.5995 13.2121 23.7833 13.2121 22.7765V21.1555C13.2121 20.1487 12.3959 19.3325 11.3892 19.3325Z" fill="#BF5E39"/>
</svg>
