<svg width="20" height="18" viewBox="0 0 20 18" fill="none" xmlns="http://www.w3.org/2000/svg">
<path d="M18.209 8.80224C18.209 10.1499 17.8844 11.4214 17.309 12.5429C15.9484 15.196 13.1863 17.0112 10 17.0112C5.46602 17.0112 1.79102 13.3362 1.79102 8.80224C1.79102 6.08467 3.11055 3.67646 5.14492 2.18349C6.5043 1.18388 8.18359 0.593262 10 0.593262C14.534 0.593262 18.209 4.26826 18.209 8.80224Z" fill="#EA792E"/>
<path d="M18.2089 8.80224C18.2089 10.1499 17.8843 11.4214 17.3089 12.5429C15.9496 13.5425 14.2703 14.1331 12.4539 14.1331C7.91987 14.1331 4.24487 10.4581 4.24487 5.92412C4.24487 4.57646 4.56948 3.30498 5.14487 2.18349C6.50425 1.18388 8.18355 0.593262 9.99995 0.593262C14.5339 0.593262 18.2089 4.26826 18.2089 8.80224Z" fill="#F39E22"/>
<path d="M11.4632 7.32545C10.6552 7.32545 10.0002 6.67049 10.0002 5.86248V2.53963C10.0002 1.73162 10.6552 1.07666 11.4632 1.07666C12.2712 1.07666 12.9262 1.73162 12.9262 2.53963V5.86248C12.9262 6.67049 12.2712 7.32545 11.4632 7.32545Z" fill="#F9C744"/>
<path d="M10 16.2549C12.0951 16.2549 13.7935 15.2188 13.7935 13.9407C13.7935 12.6626 12.0951 11.6265 10 11.6265C7.90494 11.6265 6.20654 12.6626 6.20654 13.9407C6.20654 15.2188 7.90494 16.2549 10 16.2549Z" fill="#F39E22"/>
<path d="M14.8888 11.7957C16.0082 11.7957 16.9156 10.8883 16.9156 9.76894C16.9156 8.6496 16.0082 7.74219 14.8888 7.74219C13.7695 7.74219 12.8621 8.6496 12.8621 9.76894C12.8621 10.8883 13.7695 11.7957 14.8888 11.7957Z" fill="#F9C744"/>
<path d="M5.11123 11.7957C6.23058 11.7957 7.13799 10.8883 7.13799 9.76894C7.13799 8.6496 6.23058 7.74219 5.11123 7.74219C3.99188 7.74219 3.08447 8.6496 3.08447 9.76894C3.08447 10.8883 3.99188 11.7957 5.11123 11.7957Z" fill="#F9C744"/>
<path d="M18.809 8.21637C18.4854 8.21637 18.2231 8.47875 18.2231 8.8023C18.2231 10.4413 17.8326 11.644 17.0625 12.377C16.2074 13.191 15.1682 13.1498 15.128 13.1479L15.0912 13.1467C14.0378 13.1467 13.5477 12.7068 12.9271 12.1496C12.3443 11.6265 11.6934 11.0446 10.5661 10.8921V10.2158C10.7234 10.1534 10.8711 10.0659 11.0017 9.95309C11.339 9.66164 11.5325 9.23895 11.5325 8.7934V8.76679C11.5325 8.66765 11.6131 8.58703 11.7121 8.58703H11.9798C12.3033 8.58703 12.5657 8.32465 12.5657 8.00109V6.77637C12.5657 6.45281 12.3033 6.19043 11.9798 6.19043H8.0206C7.69704 6.19043 7.43466 6.45281 7.43466 6.77637V8.00109C7.43466 8.32465 7.69704 8.58703 8.0206 8.58703H8.28825C8.38727 8.58703 8.4679 8.66765 8.4679 8.76679C8.4679 9.39972 8.84677 9.95941 9.39427 10.1996V10.8921C8.26704 11.0446 7.61606 11.6265 7.03329 12.1496C6.41267 12.7066 5.92247 13.1467 4.86919 13.1467L4.84364 13.1473C4.7997 13.1486 3.77395 13.1764 2.92763 12.3606C2.16391 11.6242 1.77661 10.427 1.77661 8.8023C1.77661 8.47875 1.51423 8.21637 1.19067 8.21637C0.867119 8.21637 0.604736 8.47875 0.604736 8.8023C0.604736 10.7708 1.11931 12.2583 2.13415 13.2233C3.29243 14.3246 4.69059 14.3242 4.87915 14.3187C6.37458 14.3156 7.14028 13.6283 7.81599 13.0219C8.43661 12.4649 8.92681 12.0248 9.98009 12.0248C11.0334 12.0248 11.5236 12.4648 12.1442 13.0219C12.8193 13.628 13.5844 14.3146 15.0777 14.3187C15.0957 14.3194 15.1229 14.3201 15.1583 14.3201C15.5269 14.3201 16.7886 14.2419 17.8509 13.2444C18.8754 12.2824 19.3948 10.7879 19.3948 8.80242C19.3949 8.47875 19.1327 8.21637 18.809 8.21637Z" fill="#BF5E39"/>
<path d="M9.05375 8.29793C9.05375 8.77055 9.38914 9.19172 9.85684 9.26027C10.443 9.34617 10.9463 8.89418 10.9463 8.32453V8.29793C10.9463 7.87512 11.2891 7.53223 11.712 7.53223H11.9797C12.5023 7.53223 12.926 7.10859 12.926 6.58594C12.926 6.06328 12.5023 5.63965 11.9797 5.63965H8.02051C7.49785 5.63965 7.07422 6.06328 7.07422 6.58594C7.07422 7.10859 7.49785 7.53223 8.02051 7.53223H8.28816C8.71098 7.53223 9.05375 7.875 9.05375 8.29793Z" fill="#ED72AB"/>
<path d="M11.5304 6.93574H9.29941C8.94152 6.93574 8.65137 6.64559 8.65137 6.2877C8.65137 5.9298 8.94152 5.63965 9.29941 5.63965H11.5304C11.8883 5.63965 12.1785 5.9298 12.1785 6.2877C12.1785 6.64559 11.8883 6.93574 11.5304 6.93574Z" fill="#F0A6B3"/>
</svg>
