<svg width="60" height="60" viewBox="0 0 60 60" fill="none" xmlns="http://www.w3.org/2000/svg">
<g clip-path="url(#clip0_1123_23865)">
<path d="M30 60C46.5685 60 60 46.5685 60 30C60 13.4315 46.5685 0 30 0C13.4315 0 0 13.4315 0 30C0 46.5685 13.4315 60 30 60Z" fill="#6C53A2"/>
<path d="M5.90845 19.6477V26.1984C5.90845 29.4223 8.5229 32.0355 11.7467 32.0355H14.6014C17.8252 32.0355 20.4385 29.4223 20.4385 26.1984V19.6477C20.4385 16.4238 17.8252 13.8105 14.6014 13.8105H11.7467C8.5229 13.8105 5.90845 16.4238 5.90845 19.6477Z" fill="#9175A7"/>
<path d="M11.7468 29.1585V32.0354H14.6015C17.8253 32.0354 20.4386 29.4222 20.4386 26.1983V23.0718H17.8324C14.4714 23.0718 11.7468 25.7964 11.7468 29.1585Z" fill="#746087"/>
<path d="M15.8871 16.4648H10.4598C8.94442 16.4648 7.71606 17.6932 7.71606 19.2086C7.71606 20.7239 8.94442 21.9523 10.4598 21.9523H15.887C17.4023 21.9523 18.6307 20.7239 18.6307 19.2086C18.6308 17.6933 17.4023 16.4648 15.8871 16.4648Z" fill="#A583BB"/>
<path d="M54.0916 19.6477V26.1984C54.0916 29.4223 51.4771 32.0355 48.2533 32.0355H45.3986C42.1748 32.0355 39.5615 29.4223 39.5615 26.1984V19.6477C39.5615 16.4238 42.1748 13.8105 45.3986 13.8105H48.2533C51.4771 13.8105 54.0916 16.4238 54.0916 19.6477Z" fill="#A583BB"/>
<path d="M48.2533 29.1585V32.0354H45.3986C42.1748 32.0354 39.5615 29.4222 39.5615 26.1983V23.0718H42.1678C45.5287 23.0718 48.2533 25.7964 48.2533 29.1585Z" fill="#9175A7"/>
<path d="M49.5402 16.4648H44.1129C42.5975 16.4648 41.3691 17.6932 41.3691 19.2086C41.3691 20.7239 42.5975 21.9523 44.1129 21.9523H49.54C51.0554 21.9523 52.2838 20.7239 52.2838 19.2086C52.2838 17.6933 51.0554 16.4648 49.5402 16.4648Z" fill="#C2AACF"/>
<path d="M43.4813 29.5186V39.0822C43.4813 44.7436 38.8922 49.3326 33.2309 49.3326H26.7692C21.1079 49.3326 16.5188 44.7436 16.5188 39.0822V29.5186C16.5188 25.5705 19.7192 22.3701 23.6672 22.3701H36.3329C40.2809 22.3701 43.4813 25.5705 43.4813 29.5186Z" fill="#9175A7"/>
<path d="M43.4813 29.5186V39.0822C43.4813 44.7436 38.8922 49.3326 33.2309 49.3326H30V22.3701H36.3328C40.2809 22.3701 43.4813 25.5705 43.4813 29.5186Z" fill="#A583BB"/>
<path d="M38.3708 31.4522H30V23.5151H33.9947C37.3949 23.5151 40.1512 26.2715 40.1512 29.6717C40.1512 30.6551 39.3541 31.4522 38.3708 31.4522Z" fill="#C2AACF"/>
<path d="M21.6291 31.4522H29.9999V23.5151H26.0052C22.605 23.5151 19.8486 26.2715 19.8486 29.6717C19.8486 30.6551 20.6457 31.4522 21.6291 31.4522Z" fill="#A583BB"/>
<path d="M38.0827 36.6983C37.1283 37.6527 35.5783 37.6527 34.6239 36.6983C33.6684 35.7428 33.6696 34.1939 34.6239 33.2396C34.8827 32.9808 35.1848 32.7919 35.5073 32.6739C36.3751 32.355 37.3859 32.5428 38.0827 33.2396C38.7783 33.9352 38.9673 34.9473 38.6484 35.815C38.5305 36.1375 38.3415 36.4396 38.0827 36.6983Z" fill="#C2AACF"/>
<path d="M38.6479 35.8148C39.2028 35.2599 38.9496 34.1068 38.0822 33.2395C37.2149 32.3721 36.0618 32.1188 35.5068 32.6738C34.9519 33.2288 35.2051 34.3819 36.0725 35.2492C36.9398 36.1166 38.0929 36.3698 38.6479 35.8148Z" fill="#EBD9EA"/>
<path d="M37.8987 34.9687C37.8987 35.6342 37.4766 36.2027 36.8859 36.4205C36.7192 36.4801 36.5405 36.5142 36.3532 36.5142C35.4988 36.5142 34.8079 35.8215 34.8079 34.9687C34.8079 34.1143 35.4989 33.4233 36.3532 33.4233C36.5405 33.4233 36.7192 33.4573 36.8859 33.517C37.4766 33.7348 37.8987 34.3015 37.8987 34.9687Z" fill="#3F5D77"/>
<path d="M36.886 36.4208C37.4453 36.4208 37.8988 35.7708 37.8988 34.9689C37.8988 34.1671 37.4453 33.5171 36.886 33.5171C36.3267 33.5171 35.8733 34.1671 35.8733 34.9689C35.8733 35.7708 36.3267 36.4208 36.886 36.4208Z" fill="#2E3140"/>
<path d="M36.353 35.3657C36.7737 35.3657 37.1147 35.0247 37.1147 34.604C37.1147 34.1833 36.7737 33.8423 36.353 33.8423C35.9323 33.8423 35.5913 34.1833 35.5913 34.604C35.5913 35.0247 35.9323 35.3657 36.353 35.3657Z" fill="#83D5EF"/>
<path d="M25.2829 36.6983C24.3285 37.6527 22.7785 37.6527 21.8241 36.6983C20.8686 35.7428 20.8698 34.1939 21.8241 33.2396C22.0829 32.9808 22.385 32.7919 22.7075 32.6739C23.5753 32.355 24.5861 32.5428 25.2829 33.2396C25.9785 33.9352 26.1675 34.9473 25.8486 35.815C25.7306 36.1375 25.5417 36.4396 25.2829 36.6983Z" fill="#A583BB"/>
<path d="M25.848 35.8148C26.403 35.2599 26.1498 34.1068 25.2824 33.2395C24.4151 32.3721 23.262 32.1188 22.707 32.6738C22.152 33.2288 22.4053 34.3819 23.2727 35.2492C24.14 36.1166 25.2931 36.3698 25.848 35.8148Z" fill="#DECEE5"/>
<path d="M25.0988 34.9687C25.0988 35.6342 24.6767 36.2027 24.0861 36.4205C23.9194 36.4801 23.7407 36.5142 23.5534 36.5142C22.699 36.5142 22.0081 35.8215 22.0081 34.9687C22.0081 34.1143 22.6991 33.4233 23.5534 33.4233C23.7407 33.4233 23.9194 33.4573 24.0861 33.517C24.6768 33.7348 25.0988 34.3015 25.0988 34.9687Z" fill="#3F5D77"/>
<path d="M24.0862 36.4208C24.6455 36.4208 25.099 35.7708 25.099 34.9689C25.099 34.1671 24.6455 33.5171 24.0862 33.5171C23.5269 33.5171 23.0735 34.1671 23.0735 34.9689C23.0735 35.7708 23.5269 36.4208 24.0862 36.4208Z" fill="#2E3140"/>
<path d="M23.553 35.3657C23.9737 35.3657 24.3147 35.0247 24.3147 34.604C24.3147 34.1833 23.9737 33.8423 23.553 33.8423C23.1323 33.8423 22.7913 34.1833 22.7913 34.604C22.7913 35.0247 23.1323 35.3657 23.553 35.3657Z" fill="#83D5EF"/>
<path d="M33.2308 45.1781V46.9746C33.2308 48.2766 32.1749 49.3324 30.873 49.3324H29.1269C27.8249 49.3324 26.769 48.2766 26.769 46.9746V45.1781C26.769 43.8762 27.8249 42.8203 29.1269 42.8203H30.873C32.1749 42.8203 33.2308 43.8762 33.2308 45.1781Z" fill="#A583BB"/>
<path d="M33.2309 45.1781V46.9746C33.2309 48.2766 32.175 49.3324 30.873 49.3324H30V42.8203H30.873C32.175 42.8203 33.2309 43.8762 33.2309 45.1781Z" fill="#C2AACF"/>
<path d="M30 46.2714C28.7612 46.2714 27.5898 45.8346 26.5562 45.4494C25.8188 45.1745 25.1221 44.9148 24.5217 44.8564C24.1996 44.8251 23.9639 44.5387 23.9952 44.2166C24.0265 43.8944 24.3134 43.6591 24.6351 43.6901C25.388 43.7632 26.1543 44.0489 26.9657 44.3514C27.9523 44.7192 28.9726 45.0995 30.0001 45.0995C31.028 45.0995 32.0486 44.7191 33.0356 44.3512C33.8471 44.0488 34.6133 43.7632 35.3663 43.6899C35.6889 43.6577 35.9748 43.8944 36.0061 44.2165C36.0374 44.5386 35.8017 44.825 35.4796 44.8563C34.8791 44.9147 34.1824 45.1744 33.4449 45.4493C32.4109 45.8346 31.2392 46.2714 30 46.2714Z" fill="#746087"/>
<path d="M30 32.0942H30.9164C32.7341 32.0942 34.2129 33.573 34.2129 35.3907C34.2129 35.9733 33.7407 36.4454 33.1582 36.4454C32.5757 36.4454 32.1035 35.9733 32.1035 35.3907C32.1035 34.7362 31.571 34.2036 30.9164 34.2036H30V32.0942Z" fill="#C2AACF"/>
<path d="M30 32.0942H29.0836C27.2659 32.0942 25.7871 33.573 25.7871 35.3907C25.7871 35.9733 26.2593 36.4454 26.8418 36.4454C27.4243 36.4454 27.8965 35.9733 27.8965 35.3907C27.8965 34.7362 28.429 34.2036 29.0836 34.2036H30V32.0942Z" fill="#A583BB"/>
<path d="M37.0641 38.0957H33.1582V41.5652H37.0641C38.0222 41.5652 38.7988 40.7884 38.7988 39.8304C38.7988 38.8723 38.0222 38.0957 37.0641 38.0957Z" fill="#C2AACF"/>
<path d="M22.9359 41.5652H26.8418V38.0957H22.9359C21.9778 38.0957 21.2012 38.8724 21.2012 39.8304C21.2012 40.7884 21.9778 41.5652 22.9359 41.5652Z" fill="#A583BB"/>
<path d="M33.1582 35.3907V41.5653C33.1582 42.804 32.1551 43.8071 30.9164 43.8071H29.0836C27.8449 43.8071 26.8418 42.804 26.8418 41.5653V35.3907C26.8418 34.1521 27.8449 33.1489 29.0836 33.1489H30.9164C32.1551 33.1489 33.1582 34.1521 33.1582 35.3907Z" fill="#334353"/>
<path d="M33.1582 35.3907V41.5653C33.1582 42.804 32.1551 43.8071 30.9164 43.8071H30V33.1489H30.9164C32.1551 33.1489 33.1582 34.1521 33.1582 35.3907Z" fill="#3E4E60"/>
<path d="M33.1582 40.7205V41.5654C33.1582 42.8041 32.1551 43.8072 30.9164 43.8072H29.0836C27.8449 43.8072 26.8418 42.8041 26.8418 41.5654V40.7205C26.8418 39.4818 27.8449 38.4775 29.0836 38.4775H30.9164C32.1551 38.4775 33.1582 39.4818 33.1582 40.7205Z" fill="#2E3140"/>
<path d="M33.1582 40.7205V41.5654C33.1582 42.8041 32.1551 43.8072 30.9164 43.8072H30V38.4775H30.9164C32.1551 38.4775 33.1582 39.4818 33.1582 40.7205Z" fill="#334353"/>
<path d="M30.6256 42.5527C30.4021 42.2443 30.471 41.8131 30.7794 41.5897L31.3999 41.14C31.7083 40.9165 32.1394 40.9854 32.3629 41.2938C32.5864 41.6022 32.5175 42.0333 32.2092 42.2568L31.5887 42.7065C31.2803 42.9299 30.8491 42.861 30.6256 42.5527Z" fill="#EA7589"/>
<path d="M29.3744 42.5527C29.5979 42.2443 29.529 41.8131 29.2206 41.5897L28.6001 41.14C28.2917 40.9165 27.8606 40.9854 27.6371 41.2938C27.4136 41.6022 27.4825 42.0333 27.7908 42.2568L28.4113 42.7065C28.7197 42.9299 29.1509 42.861 29.3744 42.5527Z" fill="#DD5273"/>
</g>
<defs>
<clipPath id="clip0_1123_23865">
<rect width="60" height="60" fill="white"/>
</clipPath>
</defs>
</svg>
