<svg width="60" height="60" viewBox="0 0 60 60" fill="none" xmlns="http://www.w3.org/2000/svg">
<g clip-path="url(#clip0_1123_26500)">
<path d="M30 60C46.5685 60 60 46.5685 60 30C60 13.4315 46.5685 0 30 0C13.4315 0 0 13.4315 0 30C0 46.5685 13.4315 60 30 60Z" fill="#EA792E"/>
<path d="M49.9824 25.1497L49.4304 27.7138L35.3093 17.6309L40.53 11.9825L43.0976 9.20517C44.1593 8.05673 45.8585 7.75907 47.2472 8.47743C47.7242 8.72352 48.132 9.07392 48.4437 9.49462C48.7554 9.91532 48.971 10.4063 49.0695 10.9337L50.0808 16.411L50.1089 16.5657C50.6339 19.4075 50.5918 22.3255 49.9824 25.1497Z" fill="#DD5E26"/>
<path d="M50.0808 16.411C49.1632 16.8891 48.1203 17.1599 47.014 17.1599C43.8488 17.1599 41.198 14.9462 40.53 11.9825L43.0976 9.20517C44.1593 8.05673 45.8585 7.75907 47.2472 8.47743C47.7242 8.72352 48.132 9.07392 48.4437 9.49462C48.7554 9.91532 48.971 10.4063 49.0695 10.9337L50.0808 16.411Z" fill="#334353"/>
<path d="M40.4874 19.7713L43.7813 11.5763C44.1388 10.6866 45.059 10.1575 46.0078 10.2958C47.012 10.4423 47.7633 11.293 47.7844 12.3076L48.0158 23.449C48.0442 24.8125 46.5055 25.6248 45.3955 24.8324L41.0622 21.7384C40.4397 21.2938 40.2021 20.481 40.4874 19.7713Z" fill="#EA792E"/>
<path d="M10.0179 25.1497L10.5698 27.7138L24.6909 17.6309L19.4702 11.9825L16.9026 9.20517C15.8409 8.05673 14.1417 7.75907 12.753 8.47743C12.2761 8.72352 11.8683 9.07392 11.5566 9.49462C11.2448 9.91532 11.0292 10.4063 10.9308 10.9337L9.91944 16.411L9.89132 16.5657C9.36632 19.4075 9.40851 22.3255 10.0179 25.1497Z" fill="#C44A1A"/>
<path d="M9.91943 16.411C10.837 16.8891 11.88 17.1599 12.9862 17.1599C16.1515 17.1599 18.8022 14.9462 19.4702 11.9825L16.9026 9.20517C15.8409 8.05673 14.1417 7.75907 12.753 8.47743C12.2761 8.72352 11.8683 9.07392 11.5565 9.49462C11.2448 9.91532 11.0292 10.4063 10.9308 10.9337L9.91943 16.411Z" fill="#2E3140"/>
<path d="M19.513 19.7713L16.2191 11.5763C15.8615 10.6866 14.9414 10.1575 13.9925 10.2958C12.9883 10.4423 12.2371 11.293 12.216 12.3076L11.9845 23.449C11.9562 24.8125 13.4948 25.6248 14.6048 24.8324L18.9382 21.7385C19.5607 21.2938 19.7982 20.481 19.513 19.7713Z" fill="#DD5E26"/>
<path d="M50.2343 32.5547V36.8496C50.2343 40.3043 49.1269 43.4988 47.2472 46.1004C45.3007 48.7945 42.5257 50.8512 39.296 51.8953C37.7608 52.3934 36.1226 52.6617 34.4222 52.6617H25.5792C20.3011 52.6617 15.6265 50.0754 12.7542 46.1004C10.8745 43.4988 9.76709 40.3043 9.76709 36.8496V32.5547C9.76709 24.3117 16.4491 17.6309 24.6921 17.6309H35.3093C43.5522 17.6309 50.2343 24.3117 50.2343 32.5547Z" fill="#9175A7"/>
<path d="M50.2343 32.5547V36.8496C50.2343 40.3043 49.1269 43.4988 47.2472 46.1004C45.3007 48.7945 42.5257 50.8512 39.296 51.8953H30.0007V17.6309H35.3093C43.5523 17.6309 50.2343 24.3117 50.2343 32.5547Z" fill="#AEA7B9"/>
<path d="M47.2471 46.1003C44.3749 50.0753 39.7002 52.6616 34.4221 52.6616H25.5792C20.301 52.6616 15.6264 50.0753 12.7542 46.1003C13.0155 40.787 17.4065 36.5601 22.7831 36.5601H37.2182C42.5948 36.5601 46.9858 40.787 47.2471 46.1003Z" fill="#AEA7B9"/>
<path d="M47.2472 46.1003C44.3749 50.0753 39.7003 52.6616 34.4222 52.6616H30.0007V36.5601H37.2183C42.5949 36.5601 46.9859 40.787 47.2472 46.1003Z" fill="#DECEE5"/>
<path d="M31.5232 27.1605C30.682 27.1605 30 26.4786 30 25.6373V20.3025C30 19.4613 30.6819 18.7793 31.5232 18.7793C32.3644 18.7793 33.0464 19.4612 33.0464 20.3025V25.6373C33.0463 26.4786 32.3644 27.1605 31.5232 27.1605Z" fill="#DECEE5"/>
<path d="M28.4768 27.1605C27.6356 27.1605 26.9536 26.4786 26.9536 25.6373V20.3025C26.9536 19.4613 27.6355 18.7793 28.4768 18.7793C29.318 18.7793 30 19.4612 30 20.3025V25.6373C30 26.4786 29.3181 27.1605 28.4768 27.1605Z" fill="#AEA7B9"/>
<path d="M36.125 23.5664H34.9157C33.909 23.5664 33.0928 24.3826 33.0928 25.3894V27.0104C33.0928 28.0172 33.909 28.8334 34.9157 28.8334H36.125C37.1318 28.8334 37.948 28.0172 37.948 27.0104V25.3894C37.948 24.3826 37.1319 23.5664 36.125 23.5664Z" fill="#DD5E26"/>
<path d="M25.0852 23.5664H23.8759C22.8692 23.5664 22.053 24.3826 22.053 25.3894V27.0104C22.053 28.0172 22.8692 28.8334 23.8759 28.8334H25.0852C26.092 28.8334 26.9082 28.0172 26.9082 27.0104V25.3894C26.9082 24.3826 26.092 23.5664 25.0852 23.5664Z" fill="#C44A1A"/>
<path d="M39.9943 31.5294C39.8717 30.128 38.1797 29.1312 36.7782 29.2539C35.3768 29.3764 34.3401 30.6119 34.4627 32.0134C34.5853 33.4148 35.7426 33.5582 37.1441 33.4356C38.5455 33.313 40.1169 32.9308 39.9943 31.5294Z" fill="#DECEE5"/>
<path d="M38.3539 30.8786L38.4247 31.6875C38.4568 32.055 38.337 32.4 38.1181 32.6609C38.0017 32.7997 37.8577 32.9143 37.6925 32.996C37.5468 33.0689 37.3847 33.1168 37.2127 33.1318C36.4788 33.196 35.8315 32.6539 35.7673 31.92L35.6965 31.1111C35.6324 30.3782 36.1756 29.7309 36.9096 29.6667C37.0817 29.6517 37.2496 29.6705 37.4056 29.7171C37.9156 29.8684 38.3048 30.3178 38.3539 30.8786Z" fill="#334353"/>
<path d="M38.3538 30.8788L38.4246 31.6877C38.4567 32.0552 38.337 32.4002 38.1181 32.6612C38.0017 32.7999 37.8577 32.9145 37.6924 32.9962C37.1824 32.845 36.7934 32.3965 36.7442 31.8346L36.6734 31.0258C36.6243 30.4649 36.9295 29.9547 37.4056 29.7173C37.9156 29.8686 38.3047 30.318 38.3538 30.8788Z" fill="#2E3140"/>
<path d="M38.8926 30.892C38.8594 30.5116 38.524 30.2301 38.1436 30.2634C37.2333 30.3786 37.348 31.6858 38.2642 31.6411C38.6446 31.6078 38.9259 31.2724 38.8926 30.892Z" fill="white"/>
<path d="M20.007 31.5294C20.1296 30.128 21.8216 29.1312 23.2231 29.2539C24.6245 29.3764 25.6612 30.6119 25.5386 32.0134C25.416 33.4148 24.2587 33.5582 22.8572 33.4356C21.4559 33.313 19.8844 32.9308 20.007 31.5294Z" fill="#DECEE5"/>
<path d="M21.6475 30.8786L21.5767 31.6875C21.5446 32.055 21.6643 32.4 21.8833 32.6609C21.9996 32.7997 22.1436 32.9143 22.3089 32.996C22.4545 33.0689 22.6166 33.1168 22.7886 33.1318C23.5226 33.196 24.1698 32.6539 24.234 31.92L24.3048 31.1111C24.3689 30.3782 23.8258 29.7309 23.0918 29.6667C22.9197 29.6517 22.7517 29.6705 22.5958 29.7171C22.0858 29.8684 21.6966 30.3178 21.6475 30.8786Z" fill="#334353"/>
<path d="M24.305 31.1114L24.2342 31.9202C24.2021 32.2877 24.0242 32.6067 23.7632 32.8256C23.6245 32.942 23.4628 33.0298 23.2859 33.0816C22.8099 32.8441 22.5046 32.3349 22.5537 31.7731L22.6245 30.9643C22.6736 30.4034 23.0628 29.954 23.5728 29.8027C24.0488 30.0404 24.3541 30.5506 24.305 31.1114Z" fill="#2E3140"/>
<path d="M24.8334 31.218C24.8666 30.8376 24.5853 30.5022 24.2048 30.4689C23.2884 30.4242 23.1742 31.7316 24.0843 31.8465C24.4647 31.8798 24.8001 31.5985 24.8334 31.218Z" fill="white"/>
<path d="M36.5959 52.7193C35.5131 54.4701 33.5748 55.6572 31.3295 55.6572H28.6717C24.9358 55.6572 22.0518 52.3725 22.5346 48.6682L23.9092 40.2189L24.842 34.485C25.0119 33.1818 26.1229 32.208 27.4365 32.208H32.5647C33.8783 32.208 34.9893 33.1818 35.1592 34.485L36.0686 40.0736L36.092 40.2189L37.4666 48.6682C37.6588 50.1459 37.3154 51.5568 36.5959 52.7193Z" fill="#DECEE5"/>
<path d="M36.596 52.7194C35.5132 54.4702 33.575 55.6573 31.3296 55.6573H30.0007V40.0737H36.0687L36.0921 40.219L37.4667 48.6683C37.6589 50.146 37.3156 51.5569 36.596 52.7194Z" fill="#F9F2F9"/>
<path d="M36.092 40.2189C34.9729 41.8022 33.1272 42.8346 31.0412 42.8346H28.96C26.874 42.8346 25.0283 41.8022 23.9092 40.2189L24.842 34.485C25.0119 33.1818 26.1229 32.208 27.4365 32.208H32.5647C33.8783 32.208 34.9893 33.1818 35.1592 34.485L36.092 40.2189Z" fill="#DD5E26"/>
<path d="M36.0919 40.2189C34.9728 41.8022 33.1271 42.8346 31.0411 42.8346H30.0005V32.208H32.5646C33.8782 32.208 34.9892 33.1818 35.1591 34.485L36.0919 40.2189Z" fill="#EA792E"/>
<path d="M31.7763 42.834H28.2253C26.6272 42.834 25.4311 44.3001 25.752 45.8656L26.1629 47.8698C26.4037 49.0442 27.4372 49.8874 28.6361 49.8874H31.3656C32.5645 49.8874 33.5981 49.0442 33.8388 47.8698L34.2497 45.8656C34.5705 44.3001 33.3745 42.834 31.7763 42.834Z" fill="#2E3140"/>
<path d="M31.8756 43.5449H28.1262C27.0598 43.5449 26.1953 44.4094 26.1953 45.4758V45.7043C26.1953 46.7707 27.0598 47.6352 28.1262 47.6352H31.8756C32.942 47.6352 33.8065 46.7707 33.8065 45.7043V45.4758C33.8064 44.4093 32.942 43.5449 31.8756 43.5449Z" fill="#334353"/>
<path d="M32.4676 44.4785H27.5338C27.1082 44.4785 26.7632 44.8235 26.7632 45.2491C26.7632 45.6748 27.1082 46.0198 27.5338 46.0198H32.4676C32.8933 46.0198 33.2383 45.6748 33.2383 45.2491C33.2383 44.8235 32.8933 44.4785 32.4676 44.4785Z" fill="#3F5D77"/>
<path d="M31.4385 44.4785H30.1461C29.7205 44.4785 29.3755 44.8235 29.3755 45.2491C29.3755 45.6748 29.7205 46.0198 30.1461 46.0198H31.4385C31.8641 46.0198 32.2091 45.6748 32.2091 45.2491C32.209 44.8235 31.864 44.4785 31.4385 44.4785Z" fill="white"/>
<path d="M31.0232 46.9228L30.7086 47.2374C30.4145 47.5314 30.4145 48.0083 30.7086 48.3023L31.3811 48.9748C31.6751 49.2688 32.152 49.2688 32.446 48.9748L32.7606 48.6602C33.0546 48.3662 33.0546 47.8893 32.7606 47.5953L32.0881 46.9228C31.7939 46.6286 31.3172 46.6286 31.0232 46.9228Z" fill="#151516"/>
<path d="M29.2926 47.2373L28.978 46.9227C28.6839 46.6286 28.2071 46.6286 27.9131 46.9227L27.2405 47.5952C26.9465 47.8892 26.9465 48.3661 27.2405 48.6601L27.5552 48.9747C27.8492 49.2688 28.326 49.2688 28.6201 48.9747L29.2926 48.3022C29.5867 48.0082 29.5867 47.5313 29.2926 47.2373Z" fill="#151516"/>
<path d="M33.8062 53.6975C33.2459 53.6975 32.5342 53.4554 31.7807 53.1991C31.1401 52.9812 30.4172 52.7352 30.0158 52.7446C29.6995 52.7527 29.1125 52.982 28.5947 53.1843C27.9191 53.4482 27.281 53.6975 26.7632 53.6975C25.8449 53.6975 23.2036 52.5342 22.6835 52.301C22.3882 52.1685 22.2562 51.8219 22.3885 51.5266C22.521 51.2313 22.8677 51.0992 23.1629 51.2316C24.5819 51.8676 26.3166 52.5256 26.7633 52.5256C27.0603 52.5256 27.649 52.2957 28.1684 52.0928C28.8348 51.8324 29.4642 51.5866 29.9856 51.5731C30.5935 51.5565 31.3533 51.8159 32.1581 52.0897C32.7588 52.294 33.4399 52.5256 33.8064 52.5256C34.1475 52.5201 35.6327 51.8601 36.8058 51.2471C37.0926 51.0973 37.4467 51.2082 37.5964 51.4949C37.7463 51.7817 37.6355 52.1357 37.3486 52.2856C36.715 52.6168 34.5871 53.6975 33.8062 53.6975Z" fill="#334353"/>
<path d="M34.6084 50.5937C34.3825 50.5937 34.1989 50.4109 34.1982 50.1849C34.1975 49.9583 34.3806 49.7741 34.6071 49.7734L38.5583 49.7612C38.5587 49.7612 38.5591 49.7612 38.5596 49.7612C38.7855 49.7612 38.9691 49.944 38.9698 50.1701C38.9705 50.3966 38.7874 50.5808 38.5609 50.5815L34.6097 50.5937C34.6092 50.5937 34.6089 50.5937 34.6084 50.5937Z" fill="white"/>
<path d="M25.6275 50.5937C25.8534 50.5937 26.0369 50.4109 26.0376 50.1849C26.0383 49.9583 25.8553 49.7741 25.6288 49.7734L21.6776 49.7612C21.6772 49.7612 21.6767 49.7612 21.6763 49.7612C21.4503 49.7612 21.2668 49.944 21.2661 50.1701C21.2654 50.3966 21.4485 50.5808 21.675 50.5815L25.6262 50.5937C25.6267 50.5937 25.6271 50.5937 25.6275 50.5937Z" fill="#F4E6F4"/>
<path d="M36.3513 48.4355C36.1288 48.4748 35.9163 48.3265 35.8764 48.1041C35.8364 47.8811 35.9847 47.6679 36.2077 47.628L40.0968 46.9299C40.0971 46.9298 40.0976 46.9298 40.0981 46.9296C40.3206 46.8904 40.5331 47.0386 40.573 47.261C40.613 47.4841 40.4647 47.6972 40.2417 47.7372L36.3526 48.4353C36.3522 48.4354 36.3517 48.4354 36.3513 48.4355Z" fill="white"/>
<path d="M23.8844 48.4355C24.107 48.4748 24.3194 48.3265 24.3594 48.1041C24.3994 47.8811 24.2511 47.6679 24.0281 47.628L20.139 46.9299C20.1387 46.9298 20.1382 46.9298 20.1377 46.9296C19.9152 46.8904 19.7027 47.0386 19.6628 47.261C19.6228 47.4841 19.771 47.6972 19.994 47.7372L23.8831 48.4353C23.8836 48.4354 23.8841 48.4354 23.8844 48.4355Z" fill="#F4E6F4"/>
</g>
<defs>
<clipPath id="clip0_1123_26500">
<rect width="60" height="60" fill="white"/>
</clipPath>
</defs>
</svg>
