<svg width="26" height="7" viewBox="0 0 26 7" fill="none" xmlns="http://www.w3.org/2000/svg">
<path d="M25.4877 3.09379C25.4877 1.47144 22.461 0.15625 20.8387 0.15625C19.2163 0.15625 17.9011 1.47144 17.9011 3.09379C17.9011 4.71613 19.2163 6.03132 20.8387 6.03132C22.461 6.03132 25.4877 4.71613 25.4877 3.09379Z" fill="#FBCB74"/>
<path d="M22.3203 1.79519V4.39206C22.3203 4.69675 22.1961 4.97331 21.9969 5.1737C21.3197 5.86394 20.1028 5.37163 20.1101 4.39206V1.79519C20.1637 0.335737 22.2612 0.324252 22.3203 1.79519Z" fill="#3F5D77"/>
<path d="M22.3204 1.79531V4.39218C22.3198 4.7032 22.192 4.98621 21.9829 5.18672C21.4837 5.08007 21.1099 4.63711 21.1099 4.10625V1.50937C21.1099 1.19766 21.2399 0.915234 21.4485 0.714844C21.9466 0.821484 22.3204 1.26445 22.3204 1.79531Z" fill="#2E3140"/>
<path d="M23.7893 2.35553C23.7893 1.77709 23.3203 1.30811 22.7419 1.30811C21.3531 1.36178 21.3535 3.34963 22.7419 3.40307C23.3203 3.40307 23.7893 2.93408 23.7893 2.35553Z" fill="white"/>
<path d="M0.512207 3.09379C0.512207 1.47144 3.53893 0.15625 5.16127 0.15625C6.78361 0.15625 8.09881 1.47144 8.09881 3.09379C8.09881 4.71613 6.78361 6.03132 5.16127 6.03132C3.53904 6.03132 0.512207 4.71613 0.512207 3.09379Z" fill="#FBCB74"/>
<path d="M5.88963 1.79519V4.39206C5.88963 4.69675 5.76541 4.97331 5.56619 5.1737C4.88909 5.86394 3.67209 5.37163 3.67948 4.39206V1.79519C3.73315 0.335737 5.83069 0.324252 5.88963 1.79519Z" fill="#3F5D77"/>
<path d="M5.88975 1.79531V4.39218C5.88916 4.7032 5.76131 4.98621 5.55225 5.18672C5.05303 5.08007 4.6792 4.63711 4.6792 4.10625V1.50937C4.6792 1.19766 4.80928 0.915234 5.01787 0.714844C5.51592 0.821484 5.88975 1.26445 5.88975 1.79531Z" fill="#2E3140"/>
<path d="M5.15625 2.35553C5.15625 1.77709 5.62523 1.30811 6.20367 1.30811C7.59246 1.36178 7.59211 3.34963 6.20367 3.40307C5.62523 3.40307 5.15625 2.93408 5.15625 2.35553Z" fill="white"/>
</svg>
