<svg width="60" height="60" viewBox="0 0 60 60" fill="none" xmlns="http://www.w3.org/2000/svg">
<g clip-path="url(#clip0_1123_22627)">
<path d="M30 60C46.5685 60 60 46.5685 60 30C60 13.4315 46.5685 0 30 0C13.4315 0 0 13.4315 0 30C0 46.5685 13.4315 60 30 60Z" fill="#6C53A2"/>
<path d="M55.4422 18.0344L45.4642 8.05632C44.3963 6.98839 42.6648 6.98839 41.5969 8.05632L36.4644 13.1888C35.567 12.8383 34.6158 12.5999 33.6257 12.4943C33.2354 12.4521 32.8382 12.431 32.4374 12.431H27.5624C26.1437 12.431 24.7868 12.6999 23.5354 13.1888L18.4029 8.05632C17.335 6.98839 15.6035 6.98839 14.5356 8.05632L4.55754 18.0344C3.48961 19.1023 3.48961 20.8337 4.55754 21.9017C5.62547 22.9696 7.35691 22.9696 8.42484 21.9017L9.33398 20.9925C10.4019 19.9246 12.1334 19.9246 13.2013 20.9925L16.0432 23.8344C15.0155 28.4932 13.1813 36.3102 13.1813 36.3102C12.2426 41.4384 16.1801 46.1622 21.3926 46.1622H38.6074C43.8199 46.1622 47.7574 41.4384 46.8187 36.3102C46.8187 36.3102 44.9845 28.4932 43.9568 23.8344L46.7987 20.9925C47.8666 19.9246 49.5981 19.9246 50.666 20.9925L51.5752 21.9017C52.6431 22.9696 54.3745 22.9696 55.4425 21.9017C56.5102 20.8337 56.5102 19.1023 55.4422 18.0344Z" fill="#F39E22"/>
<path d="M27.5624 12.431C27.1616 12.431 26.7643 12.4521 26.3741 12.4943C25.3842 12.5987 24.43 12.8344 23.5282 13.1816L18.4029 8.05632C17.335 6.98839 15.6035 6.98839 14.5356 8.05632L4.55754 18.0344C3.48961 19.1023 3.48961 20.8337 4.55754 21.9017C5.62547 22.9696 7.35691 22.9696 8.42484 21.9017L9.33398 20.9925C10.4019 19.9246 12.1334 19.9246 13.2013 20.9925L16.0209 23.8122L13.1811 36.3103C12.2425 41.4385 16.18 46.1623 21.3925 46.1623H29.9999V12.431H27.5624Z" fill="#DD8C29"/>
<path d="M36.1245 18.3086H34.9153C33.9085 18.3086 33.0923 19.1248 33.0923 20.1316V21.7526C33.0923 22.7594 33.9085 23.5756 34.9153 23.5756H36.1245C37.1313 23.5756 37.9475 22.7594 37.9475 21.7526V20.1316C37.9475 19.1248 37.1313 18.3086 36.1245 18.3086Z" fill="#DD8C29"/>
<path d="M25.0845 18.3086H23.8752C22.8685 18.3086 22.0522 19.1248 22.0522 20.1316V21.7526C22.0522 22.7594 22.8685 23.5756 23.8752 23.5756H25.0845C26.0912 23.5756 26.9074 22.7594 26.9074 21.7526V20.1316C26.9074 19.1248 26.0912 18.3086 25.0845 18.3086Z" fill="#B26E2B"/>
<path d="M33.6258 12.4944V16.0276C33.6258 17.0296 32.8137 17.8405 31.8129 17.8405C31.3125 17.8405 30.859 17.6378 30.5309 17.3097C30.2027 16.9815 30 16.528 30 16.0276V12.4312H32.4375C32.8383 12.4312 33.2355 12.4522 33.6258 12.4944Z" fill="#F9C744"/>
<path d="M29.9998 12.4312V16.0276C29.9998 17.0296 29.1877 17.8405 28.1869 17.8405C27.6865 17.8405 27.233 17.6378 26.9049 17.3097C26.5768 16.9815 26.374 16.528 26.374 16.0276V12.4944C26.7643 12.4522 27.1615 12.4312 27.5623 12.4312H29.9998Z" fill="#F39E22"/>
<path d="M42.8054 39.1935L40.9401 39.4272C39.9122 39.556 38.9746 38.8271 38.8458 37.7991L38.3146 33.5579C38.1858 32.5299 38.9147 31.5923 39.9426 31.4635L41.167 31.3101C42.0875 31.1948 42.9541 31.7697 43.2056 32.6627L44.3777 36.8236C44.6889 37.9284 43.944 39.0509 42.8054 39.1935Z" fill="#F9C744"/>
<path d="M17.1944 39.1935L19.0596 39.4272C20.0876 39.556 21.0252 38.8271 21.154 37.7991L21.6852 33.5579C21.814 32.5299 21.0851 31.5923 20.0571 31.4635L18.8328 31.3101C17.9123 31.1948 17.0457 31.7697 16.7942 32.6627L15.6221 36.8236C15.3109 37.9284 16.0558 39.0509 17.1944 39.1935Z" fill="#F39E22"/>
<path d="M41.5247 26.7663C41.3833 25.1502 39.432 24.0007 37.8159 24.1421C36.1997 24.2836 35.0042 25.7083 35.1456 27.3245C35.2871 28.9406 36.6217 29.106 38.2379 28.9645C39.854 28.8232 41.6662 28.3824 41.5247 26.7663Z" fill="#BF5E39"/>
<path d="M39.6329 26.0162L39.7144 26.949C39.7515 27.3728 39.6134 27.7707 39.3609 28.0716C39.2267 28.2315 39.0607 28.3637 38.87 28.458C38.7021 28.5422 38.5151 28.5973 38.3167 28.6147C37.4704 28.6888 36.7239 28.0636 36.65 27.2171L36.5684 26.2843C36.4945 25.4392 37.1209 24.6926 37.9672 24.6186C38.1657 24.6013 38.3593 24.6232 38.5393 24.6767C39.1275 24.8511 39.5763 25.3694 39.6329 26.0162Z" fill="#334353"/>
<path d="M39.633 26.0157L39.7145 26.9485C39.7516 27.3723 39.6135 27.7703 39.361 28.0711C39.2268 28.231 39.0607 28.3632 38.8701 28.4576C38.2819 28.2832 37.8332 27.766 37.7765 27.1181L37.6949 26.1853C37.6383 25.5385 37.9903 24.9501 38.5393 24.6763C39.1275 24.8506 39.5764 25.369 39.633 26.0157Z" fill="#2E3140"/>
<path d="M40.2543 26.0312C40.2159 25.5925 39.8291 25.268 39.3904 25.3063C38.3406 25.4391 38.4728 26.9467 39.5294 26.8951C39.9681 26.8568 40.2927 26.47 40.2543 26.0312Z" fill="white"/>
<path d="M18.4753 26.7663C18.6168 25.1502 20.568 24.0007 22.1842 24.1421C23.8003 24.2836 24.9959 25.7083 24.8544 27.3245C24.713 28.9406 23.3783 29.106 21.7622 28.9645C20.1461 28.8232 18.3339 28.3824 18.4753 26.7663Z" fill="#BF5E39"/>
<path d="M20.3671 26.0162L20.2855 26.949C20.2485 27.3728 20.3865 27.7707 20.639 28.0716C20.7732 28.2315 20.9393 28.3637 21.1299 28.458C21.2979 28.5422 21.4848 28.5973 21.6832 28.6147C22.5295 28.6888 23.276 28.0636 23.3499 27.2171L23.4315 26.2843C23.5055 25.4392 22.8791 24.6926 22.0328 24.6186C21.8342 24.6013 21.6406 24.6232 21.4606 24.6767C20.8725 24.8511 20.4237 25.3694 20.3671 26.0162Z" fill="#334353"/>
<path d="M23.4317 26.2839L23.3502 27.2167C23.3131 27.6405 23.1079 28.0085 22.8071 28.2609C22.6471 28.3951 22.4607 28.4964 22.2566 28.5562C21.7077 28.2823 21.3555 27.6951 21.4122 27.0472L21.4938 26.1144C21.5504 25.4676 21.9992 24.9493 22.5874 24.7749C23.1363 25.0488 23.4883 25.6372 23.4317 26.2839Z" fill="#2E3140"/>
<path d="M24.0411 26.4072C24.0795 25.9684 23.7549 25.5817 23.3162 25.5433C22.2594 25.4918 22.1278 26.9995 23.1772 27.1321C23.616 27.1704 24.0028 26.8459 24.0411 26.4072Z" fill="white"/>
<path d="M36.5952 47.1148C35.5124 48.8656 33.5741 50.0527 31.3288 50.0527H28.671C24.935 50.0527 22.051 46.768 22.5339 43.0637L24.8413 28.8805C25.0112 27.5773 26.1221 26.6035 27.4358 26.6035H32.5639C33.8776 26.6035 34.9885 27.5773 35.1585 28.8805L37.4659 43.0637C37.6581 44.5414 37.3147 45.9523 36.5952 47.1148Z" fill="#F39E22"/>
<path d="M36.5954 47.1148H29.2618C26.8934 47.1148 25.0653 45.0324 25.3711 42.684L27.9258 26.6035H32.5641C33.8778 26.6035 34.9887 27.5773 35.1586 28.8805L37.4661 43.0637C37.6582 44.5414 37.3149 45.9523 36.5954 47.1148Z" fill="#F9C744"/>
<path d="M31.7756 37.23H28.2246C26.6265 37.23 25.4303 38.6961 25.7513 40.2616L26.1622 42.2658C26.403 43.4402 27.4365 44.2834 28.6354 44.2834H31.3648C32.5638 44.2834 33.5974 43.4402 33.8381 42.2658L34.2489 40.2616C34.5698 38.6961 33.3738 37.23 31.7756 37.23Z" fill="#2E3140"/>
<path d="M31.8747 37.9409H28.1252C27.0588 37.9409 26.1943 38.8054 26.1943 39.8718V40.1003C26.1943 41.1667 27.0588 42.0312 28.1252 42.0312H31.8747C32.9411 42.0312 33.8055 41.1667 33.8055 40.1003V39.8718C33.8055 38.8054 32.9411 37.9409 31.8747 37.9409Z" fill="#334353"/>
<path d="M32.4669 38.8745H27.5331C27.1075 38.8745 26.7625 39.2195 26.7625 39.6451C26.7625 40.0708 27.1075 40.4158 27.5331 40.4158H32.4669C32.8925 40.4158 33.2375 40.0708 33.2375 39.6451C33.2374 39.2195 32.8924 38.8745 32.4669 38.8745Z" fill="#3F5D77"/>
<path d="M31.4377 38.8745H30.1454C29.7198 38.8745 29.3748 39.2195 29.3748 39.6451C29.3748 40.0708 29.7198 40.4158 30.1454 40.4158H31.4377C31.8634 40.4158 32.2083 40.0708 32.2083 39.6451C32.2083 39.2195 31.8634 38.8745 31.4377 38.8745Z" fill="white"/>
<path d="M32.8829 34.3757H31.4399C30.6446 34.3757 30 33.7311 30 32.9359V29.6547C30 28.8595 30.6446 28.2148 31.4399 28.2148H32.3871C33.0993 28.2148 33.7044 28.7354 33.8108 29.4396L34.3066 32.7207C34.4382 33.5918 33.7638 34.3757 32.8829 34.3757Z" fill="#FAD98F"/>
<path d="M32.2346 58.085H27.7651C25.9429 58.085 24.587 56.3998 24.9772 54.6186L25.869 50.5557L26.5604 47.4033L29.9999 46.4658L33.4393 47.4033L34.1319 50.5568L35.0225 54.6186C35.4128 56.3998 34.0569 58.085 32.2346 58.085Z" fill="#ED72AB"/>
<path d="M34.132 50.5568L33.4395 47.4033L30 46.4658L26.5605 47.4033L25.8691 50.5557C26.7723 49.5783 28.0177 48.9237 29.4141 48.7792V56.8278C29.4141 57.1513 29.6764 57.4137 30 57.4137C30.3236 57.4137 30.5859 57.1513 30.5859 56.8278V48.7793C31.9823 48.9239 33.2278 49.5795 34.132 50.5568Z" fill="#E063A2"/>
<path d="M30.5859 51.7124V55.4645C30.5859 56.1751 31.1619 56.7511 31.8725 56.7511H32.6959C33.5176 56.7511 34.1288 55.9914 33.9526 55.1888L33.1293 51.4366C33.0318 50.992 32.7064 50.6322 32.274 50.49C31.442 50.2167 30.5859 50.8366 30.5859 51.7124Z" fill="#F0A6B3"/>
<path d="M29.4139 51.7124V55.4645C29.4139 56.1751 28.838 56.7511 28.1273 56.7511H27.304C26.4823 56.7511 25.8711 55.9914 26.0473 55.1888L26.8706 51.4366C26.9681 50.992 27.2933 50.6322 27.7259 50.49C28.5579 50.2167 29.4139 50.8366 29.4139 51.7124Z" fill="#F0A6B3"/>
<path d="M32.6664 56.0748C32.1848 56.1543 31.7298 55.8284 31.6502 55.3467L31.2527 52.9413C31.1731 52.4597 31.499 52.0046 31.9808 51.925C32.4624 51.8455 32.9174 52.1714 32.997 52.6531L33.3945 55.0585C33.4741 55.5402 33.1482 55.9952 32.6664 56.0748Z" fill="white"/>
<path d="M33.8055 48.0935C33.2451 48.0935 32.5334 47.8514 31.7799 47.5951C31.1394 47.3772 30.4164 47.1312 30.0151 47.1406C29.6988 47.1487 29.1118 47.378 28.5939 47.5803C27.9184 47.8442 27.2803 48.0935 26.7624 48.0935C25.8441 48.0935 23.2029 46.9302 22.6828 46.6969C22.3875 46.5645 22.2555 46.2179 22.3878 45.9226C22.5202 45.6273 22.867 45.4952 23.1622 45.6276C24.5812 46.2636 26.3158 46.9216 26.7625 46.9216C27.0596 46.9216 27.6482 46.6917 28.1676 46.4888C28.8341 46.2284 29.4635 45.9826 29.9848 45.9691C30.5928 45.9525 31.3525 46.2119 32.1574 46.4857C32.7581 46.69 33.4392 46.9216 33.8056 46.9216C34.1468 46.9161 35.632 46.2561 36.805 45.6431C37.0919 45.4933 37.4459 45.6042 37.5957 45.8909C37.7456 46.1777 37.6347 46.5317 37.3479 46.6816C36.7141 47.0128 34.5862 48.0935 33.8055 48.0935Z" fill="#B26E2B"/>
<path d="M51.4561 19.7665L44.4 12.7105C43.6105 11.921 43.6105 10.6409 44.4 9.8514C45.1895 9.0619 46.4696 9.0619 47.2591 9.8514L54.3151 16.9074C55.1046 17.6969 55.1046 18.977 54.3151 19.7665C53.5257 20.556 52.2457 20.556 51.4561 19.7665Z" fill="#F9C744"/>
<path d="M46.4481 16.7747L43.012 13.3386C42.4323 12.7589 41.4922 12.7589 40.9125 13.3386L39.0588 15.1923C38.4791 15.772 38.4791 16.7121 39.0588 17.2918L42.4949 20.7279C43.0746 21.3076 44.0147 21.3076 44.5944 20.7279L46.4481 18.8742C47.0278 18.2945 47.0278 17.3544 46.4481 16.7747Z" fill="#DD8C29"/>
<path d="M8.54379 19.7665L15.5998 12.7105C16.3893 11.921 16.3893 10.6409 15.5998 9.8514C14.8103 9.0619 13.5301 9.0619 12.7406 9.8514L5.68465 16.9074C4.89516 17.6969 4.89516 18.977 5.68465 19.7665C6.47414 20.556 7.75418 20.556 8.54379 19.7665Z" fill="#F39E22"/>
<path d="M13.5517 16.7747L16.9878 13.3386C17.5675 12.7589 18.5076 12.7589 19.0873 13.3386L20.941 15.1923C21.5207 15.772 21.5207 16.7121 20.941 17.2918L17.5049 20.7279C16.9252 21.3076 15.9851 21.3076 15.4054 20.7279L13.5517 18.8742C12.972 18.2945 12.972 17.3544 13.5517 16.7747Z" fill="#B26E2B"/>
<path d="M34.6077 44.5263C34.3817 44.5263 34.1982 44.3435 34.1975 44.1175C34.1968 43.891 34.3799 43.7067 34.6064 43.706L38.5576 43.6938C38.5579 43.6938 38.5584 43.6938 38.5589 43.6938C38.7848 43.6938 38.9683 43.8767 38.969 44.1027C38.9697 44.3292 38.7867 44.5135 38.5602 44.5142L34.609 44.5263C34.6085 44.5263 34.608 44.5263 34.6077 44.5263Z" fill="#FAD98F"/>
<path d="M25.6267 44.5263C25.8527 44.5263 26.0362 44.3435 26.0369 44.1175C26.0376 43.891 25.8546 43.7067 25.628 43.706L21.6768 43.6938C21.6765 43.6938 21.676 43.6938 21.6755 43.6938C21.4496 43.6938 21.2661 43.8767 21.2654 44.1027C21.2647 44.3292 21.4477 44.5135 21.6742 44.5142L25.6255 44.5263C25.6259 44.5263 25.6264 44.5263 25.6267 44.5263Z" fill="#F9C744"/>
<path d="M36.3506 42.3681C36.1281 42.4074 35.9156 42.2591 35.8756 42.0367C35.8357 41.8137 35.9839 41.6005 36.2069 41.5606L40.096 40.8625C40.0964 40.8624 40.0969 40.8624 40.0973 40.8623C40.3199 40.823 40.5323 40.9712 40.5723 41.1937C40.6122 41.4167 40.464 41.6298 40.241 41.6698L36.3519 42.3679C36.3514 42.368 36.351 42.368 36.3506 42.3681Z" fill="#FAD98F"/>
<path d="M23.8837 42.3681C24.1062 42.4074 24.3187 42.2591 24.3587 42.0367C24.3986 41.8137 24.2504 41.6005 24.0274 41.5606L20.1383 40.8625C20.1379 40.8624 20.1375 40.8624 20.137 40.8623C19.9144 40.823 19.702 40.9712 19.662 41.1937C19.6221 41.4167 19.7703 41.6298 19.9933 41.6698L23.8824 42.3679C23.8829 42.368 23.8834 42.368 23.8837 42.3681Z" fill="#F9C744"/>
</g>
<defs>
<clipPath id="clip0_1123_22627">
<rect width="60" height="60" fill="white"/>
</clipPath>
</defs>
</svg>
