<svg width="60" height="60" viewBox="0 0 60 60" fill="none" xmlns="http://www.w3.org/2000/svg">
<g clip-path="url(#clip0_1123_23556)">
<path d="M30 60C46.5685 60 60 46.5685 60 30C60 13.4315 46.5685 0 30 0C13.4315 0 0 13.4315 0 30C0 46.5685 13.4315 60 30 60Z" fill="#6C53A2"/>
<path d="M53.8125 33.9328L43.0805 51.7559C41.6367 54.1535 39.0422 55.6207 36.2414 55.6207H23.7656C20.9625 55.6207 18.3645 54.15 16.9207 51.7465L6.18284 33.8578C5.02268 31.9266 4.73323 29.5969 5.38479 27.4406L10.091 11.857C11.1082 8.48672 14.2125 6.18164 17.7328 6.18164H42.2625C45.7852 6.18164 48.8906 8.49023 49.9067 11.8629L54.6188 27.5121C55.268 29.6707 54.975 32.0016 53.8125 33.9328Z" fill="#BF5E39"/>
<path d="M53.8125 33.9328L43.0805 51.7559C41.6367 54.1535 39.0422 55.6207 36.2414 55.6207H30V6.18164H42.2625C45.7852 6.18164 48.8906 8.49023 49.9066 11.8629L54.6187 27.5121C55.268 29.6707 54.975 32.0016 53.8125 33.9328Z" fill="#DD5E26"/>
<path d="M48.4259 15.5393L46.4195 12.54C45.0742 10.5306 42.2284 10.2514 40.5186 11.9613L36.3395 16.1403C35.7163 15.933 26.0041 16.0703 25.0955 16.0333C24.6078 16.0333 24.1286 16.07 23.6603 16.1403L19.4813 11.9613C17.7714 10.2514 14.9256 10.5306 13.5803 12.54L11.5741 15.5393C10.5553 17.0608 10.754 19.0904 12.0489 20.3852L15.6423 23.9786C15.3914 24.8363 15.5325 34.3217 15.5005 35.4371C15.5005 40.7365 19.7961 45.0319 25.0955 45.0319H34.9043C40.2038 45.0319 44.4993 40.7364 44.4993 35.437C44.4626 34.2806 44.6242 24.888 44.3575 23.9785L47.9509 20.385C49.246 19.0904 49.4446 17.0608 48.4259 15.5393Z" fill="#F9C744"/>
<path d="M47.9511 20.3854L44.3578 23.9787C44.6223 24.8333 44.4574 34.3234 44.4994 35.4367C44.4994 40.736 40.2039 45.0315 34.9044 45.0315H30V16.0328C31.0868 16.0637 35.343 15.9431 36.3396 16.1404L40.5189 11.9611C42.2283 10.2506 45.0744 10.5304 46.4195 12.5393L48.4262 15.5391C49.4443 17.0609 49.2458 19.0907 47.9511 20.3854Z" fill="#FBCB74"/>
<path d="M38.7493 35.9876V40.1643C38.7493 40.9685 39.5945 41.4927 40.315 41.135L41.8361 40.3799C42.1606 40.2188 42.3831 39.9062 42.4292 39.5469L42.9693 35.3329C43.0736 34.5192 42.2711 33.8891 41.5054 34.1835L39.4442 34.976C39.0255 35.1369 38.7493 35.5391 38.7493 35.9876Z" fill="#FBD9A3"/>
<path d="M21.251 35.9876V40.1643C21.251 40.9685 20.4057 41.4927 19.6852 41.135L18.1641 40.3799C17.8396 40.2188 17.6171 39.9062 17.571 39.5469L17.0309 35.3329C16.9266 34.5192 17.7291 33.8891 18.4948 34.1835L20.556 34.976C20.9747 35.1369 21.251 35.5391 21.251 35.9876Z" fill="#FBCB74"/>
<path d="M36.8442 37.321V44.9399C36.8442 47.4415 34.8156 49.4702 32.314 49.4702H27.686C25.1844 49.4702 23.1558 47.4414 23.1558 44.9388V37.321C23.1558 35.842 23.8645 34.5287 24.9607 33.7014C25.7013 33.1441 26.1522 32.2838 26.1522 31.3567V29.5804C26.1522 28.5173 27.0136 27.6548 28.0767 27.6548H31.9235C32.9866 27.6548 33.8479 28.5172 33.8479 29.5804V31.3567C33.8479 32.2838 34.2989 33.1441 35.0395 33.7014C36.1354 34.5287 36.8442 35.842 36.8442 37.321Z" fill="#FBCB74"/>
<path d="M36.8442 37.321V44.9399C36.8442 47.4415 34.8156 49.4702 32.314 49.4702H30V27.6548H31.9234C32.9865 27.6548 33.8479 28.5172 33.8479 29.5804V31.3567C33.8479 32.2838 34.2988 33.1441 35.0394 33.7014C36.1355 34.5287 36.8442 35.842 36.8442 37.321Z" fill="#FBD9A3"/>
<path d="M37.0132 44.5944C36.8234 44.5011 36.5931 44.5796 36.4995 44.7696C36.4895 44.7898 35.481 46.7956 33.785 46.7956C32.4477 46.7646 30.9496 46.9463 30.5151 45.8606C31.4152 45.6457 32.0902 44.7773 32.077 43.8505C32.0552 43.4567 32.3687 43.1183 32.7648 43.1196H33.197C33.5001 43.1196 33.7456 42.8739 33.7456 42.571C33.7456 42.2681 33.5 42.0225 33.197 42.0225H32.7648C31.7806 42.0225 30.9797 42.8232 30.9797 43.8076C31.0023 44.2409 30.7081 44.663 30.292 44.7855C30.1546 44.6055 29.845 44.6056 29.7077 44.7856C29.3076 44.6591 29.0205 44.2631 29.0205 43.8076C29.0205 42.8233 28.2196 42.0225 27.2353 42.0225H26.8032C26.5001 42.0225 26.2546 42.2681 26.2546 42.571C26.2546 42.8739 26.5002 43.1196 26.8032 43.1196H27.2353C27.6147 43.1196 27.9232 43.4281 27.9232 43.8075C27.9232 44.7827 28.5811 45.6304 29.4839 45.8623C29.0501 46.9453 27.5512 46.7646 26.2148 46.7956C24.5186 46.7956 23.5102 44.7898 23.5001 44.7695C23.407 44.5794 23.177 44.5005 22.9867 44.5937C22.7962 44.6868 22.7172 44.9169 22.8103 45.1073C22.8756 45.2949 24.2291 47.7433 26.4476 47.5638C27.8443 47.5599 29.2895 47.5973 29.9997 46.53C30.7388 47.6571 32.3623 47.5568 33.7847 47.5636C35.9631 47.5636 37.1399 45.2076 37.189 45.1073C37.2822 44.9172 37.2034 44.6878 37.0132 44.5944Z" fill="#F39E22"/>
<path d="M44.3386 45.1832C42.3638 41.8054 37.7198 42.0823 33.8758 43.6757C33.6794 43.7547 33.5829 43.9774 33.6608 44.1749C33.7398 44.3713 33.9625 44.4679 34.16 44.39C36.2359 43.5649 38.1011 43.2072 39.6679 43.3236C41.6076 43.4181 43.1485 44.5325 43.6431 45.5092C43.8703 45.9632 44.5426 45.6467 44.3386 45.1832Z" fill="#F4E6F4"/>
<path d="M44.3387 45.183C44.5415 45.6452 43.8731 45.9643 43.6431 45.5089C43.1462 44.5294 41.6059 43.4182 39.6679 43.3234C39.6098 43.0644 39.5615 42.8022 39.5264 42.5356C41.8447 42.6043 43.7369 43.9381 44.3387 45.183Z" fill="white"/>
<path d="M46.1492 40.4767C43.3922 37.7004 38.9652 39.1307 35.6421 41.6352C35.4717 41.7609 35.434 42.0006 35.5588 42.1723C35.6844 42.3427 35.9242 42.3804 36.096 42.2556C37.8994 40.9374 39.6157 40.1243 41.1617 39.8449C43.0633 39.4511 44.8342 40.1444 45.5573 40.9662C45.891 41.3492 46.4627 40.8745 46.1492 40.4767Z" fill="#F4E6F4"/>
<path d="M46.1494 40.4765C46.4614 40.8733 45.894 41.3494 45.5574 40.9661C44.8312 40.1419 43.0619 39.4517 41.1619 39.8447C41.0408 39.6086 40.9284 39.3667 40.8276 39.1175C43.0895 38.604 45.2552 39.4218 46.1494 40.4765Z" fill="white"/>
<path d="M15.8458 45.6943C16.034 45.7829 16.2658 45.7037 16.3571 45.5089C16.8598 44.5222 18.3974 43.4191 20.3322 43.3234C21.899 43.207 23.7642 43.5647 25.8401 44.3898C26.0376 44.4677 26.2604 44.3712 26.3394 44.1747C26.4173 43.9773 26.3207 43.7545 26.1243 43.6755C23.0644 42.5219 20.5038 42.0083 17.8723 43.1674C16.2595 43.9377 15.6856 45.1325 15.6615 45.183C15.5715 45.3751 15.6537 45.6033 15.8458 45.6943Z" fill="#F4E6F4"/>
<path d="M15.6614 45.183C15.4585 45.6452 16.1269 45.9643 16.357 45.5089C16.8539 44.5294 18.3942 43.4182 20.3321 43.3234C20.3902 43.0644 20.4385 42.8022 20.4737 42.5356C18.1553 42.6043 16.2631 43.9381 15.6614 45.183Z" fill="white"/>
<path d="M13.901 41.0176C14.0611 41.1504 14.3053 41.1317 14.4424 40.966C15.1703 40.1389 16.9467 39.452 18.838 39.8446C20.3841 40.124 22.1004 40.937 23.9038 42.2554C24.0755 42.3802 24.3154 42.3425 24.441 42.1721C24.5658 42.0004 24.5281 41.7605 24.3577 41.6349C21.6838 39.7524 19.333 38.6143 16.4953 39.0781C14.741 39.4203 13.8865 40.4336 13.8504 40.4764C13.7153 40.6399 13.7379 40.8814 13.901 41.0176Z" fill="#F4E6F4"/>
<path d="M13.8506 40.4765C13.5386 40.8733 14.106 41.3494 14.4425 40.9661C15.1687 40.1419 16.938 39.4517 18.8381 39.8447C18.9592 39.6086 19.0716 39.3667 19.1723 39.1175C16.9105 38.604 14.7448 39.4218 13.8506 40.4765Z" fill="white"/>
<path d="M28.4721 43.4785C28.5469 45.5793 31.4884 45.5484 31.5285 43.4785C31.5285 42.7956 32.0821 42.242 32.765 42.242H33.1973C34.0412 42.242 34.7255 41.5578 34.7255 40.7138C34.7255 39.8698 34.0414 39.1855 33.1973 39.1855H26.8034C25.9594 39.1855 25.2751 39.8697 25.2751 40.7138C25.2751 41.5578 25.9593 42.242 26.8034 42.242H27.2357C27.9185 42.242 28.4721 42.7956 28.4721 43.4785Z" fill="#EA792E"/>
<path d="M32.4717 41.2789H28.8687C27.482 41.2258 27.4805 39.2393 28.8687 39.1855H32.4717C33.8585 39.2387 33.8599 41.2251 32.4717 41.2789Z" fill="#F39E22"/>
<path d="M33.1972 35.6665V39.1851H30V32.4692C31.7654 32.4692 33.1972 33.9012 33.1972 35.6665Z" fill="#FBCB74"/>
<path d="M26.803 35.6665V39.1851H30.0002V32.4692C28.2349 32.4692 26.803 33.9012 26.803 35.6665Z" fill="#F9C744"/>
<path d="M40.6979 30.2338C40.4686 28.9341 37.8581 28.3081 36.5583 28.5372C35.2586 28.7664 34.3908 30.0058 34.6199 31.3055C34.849 32.6053 36.0885 33.473 37.3883 33.2439C38.688 33.0147 40.927 31.5335 40.6979 30.2338Z" fill="#DD5E26"/>
<path d="M37.9769 29.6409L38.3437 31.7213C38.3867 31.9654 38.3262 32.2045 38.195 32.3933C37.75 33.0419 36.7055 32.8195 36.573 32.0337L36.2062 29.9532C36.0431 28.7763 37.7219 28.4708 37.9769 29.6409Z" fill="#3E4E60"/>
<path d="M37.9769 29.6408L38.3437 31.7212C38.387 31.9705 38.3247 32.2153 38.1855 32.4055C37.7705 32.3906 37.4084 32.0885 37.3334 31.6632L36.9666 29.5828C36.9226 29.3331 36.9869 29.0884 37.1256 28.8984C37.5399 28.9134 37.9019 29.2155 37.9769 29.6408Z" fill="#2E3140"/>
<path d="M39.233 29.882C39.1513 29.4185 38.7093 29.109 38.2459 29.1908C37.1409 29.43 37.422 31.0225 38.5418 30.8692C39.0053 30.7874 39.3147 30.3455 39.233 29.882Z" fill="white"/>
<path d="M19.4194 30.2338C19.6486 28.9341 22.2592 28.3081 23.5589 28.5372C24.8586 28.7664 25.7264 30.0058 25.4973 31.3055C25.2681 32.6053 24.0287 33.473 22.729 33.2439C21.4293 33.0147 19.1903 31.5335 19.4194 30.2338Z" fill="#DD5E26"/>
<path d="M23.911 29.9533L23.5442 32.0337C23.5012 32.2778 23.3626 32.4819 23.1747 32.6143C22.5348 33.0715 21.6294 32.5053 21.7736 31.7215L22.1404 29.6411C22.3894 28.4794 24.0716 28.7665 23.911 29.9533Z" fill="#3E4E60"/>
<path d="M23.9109 29.9531L23.5441 32.0335C23.4997 32.2825 23.3573 32.4912 23.1615 32.6224C22.7766 32.4664 22.5397 32.0587 22.6147 31.6334L22.9814 29.553C23.0255 29.3033 23.1695 29.0954 23.365 28.9644C23.7489 29.1201 23.9859 29.5278 23.9109 29.9531Z" fill="#2E3140"/>
<path d="M23.244 30.2985C23.3257 29.835 23.7677 29.5256 24.2311 29.6073C25.3362 29.8465 25.055 31.439 23.9352 31.2857C23.4718 31.2039 23.1624 30.762 23.244 30.2985Z" fill="white"/>
<path d="M36.0633 22.5488H34.9312C33.9885 22.5488 33.2244 23.313 33.2244 24.2557V25.7734C33.2244 26.716 33.9885 27.4802 34.9312 27.4802H36.0633C37.006 27.4802 37.7702 26.716 37.7702 25.7734V24.2555C37.7702 23.313 37.006 22.5488 36.0633 22.5488Z" fill="#F9C744"/>
<path d="M25.0687 22.5488H23.9366C22.9939 22.5488 22.2297 23.313 22.2297 24.2557V25.7734C22.2297 26.716 22.9939 27.4802 23.9366 27.4802H25.0687C26.0114 27.4802 26.7756 26.716 26.7756 25.7734V24.2555C26.7756 23.313 26.0114 22.5488 25.0687 22.5488Z" fill="#F39E22"/>
<path d="M32.4036 19.0032V23.2529C32.4036 24.5804 31.3275 25.6566 30 25.6566V16.5996C31.3273 16.5996 32.4036 17.6761 32.4036 19.0032Z" fill="#FBD9A3"/>
<path d="M27.5967 19.0032V23.2529C27.5967 24.5804 28.6728 25.6566 30.0003 25.6566V16.5996C28.6732 16.5996 27.5967 17.6761 27.5967 19.0032Z" fill="#FBCB74"/>
<path d="M41.4468 22.1397L38.2678 18.9607C37.787 18.4799 37.787 17.7004 38.2678 17.2195L40.2674 15.2199C41.3285 14.1588 43.0949 14.3321 43.9295 15.5793L45.1749 17.4404C45.8069 18.3848 45.6832 19.6443 44.8797 20.4479L43.188 22.1396C42.7073 22.6205 41.9276 22.6205 41.4468 22.1397Z" fill="#F9C744"/>
<path d="M18.5533 22.1397L21.7323 18.9607C22.2131 18.4799 22.2131 17.7004 21.7323 17.2195L19.7327 15.2199C18.6716 14.1588 16.9052 14.3321 16.0706 15.5793L14.8253 17.4404C14.1933 18.3848 14.3169 19.6443 15.1204 20.4479L16.8122 22.1396C17.2929 22.6205 18.0725 22.6205 18.5533 22.1397Z" fill="#F39E22"/>
<path d="M19.5378 9.46453C18.6671 8.59383 18.1779 7.41293 18.1779 6.18164H29.9999V16.9211V20.8368C29.9999 21.6475 29.5052 22.3761 28.7517 22.6753L15.8521 27.795C15.7381 27.8402 15.6204 27.8743 15.5006 27.8978V35.4688H12.915C11.2724 35.4688 9.75509 34.5912 8.93595 33.1675L8.1304 31.7674C7.72974 31.071 7.5188 30.2815 7.5188 29.478V25.94H7.51974C7.52161 25.759 7.54786 25.5743 7.60317 25.3897C7.60317 24.6104 8.23493 23.9786 9.01435 23.9786C12.6891 24.0054 15.2867 24.2387 18.1642 21.4568L21.1708 18.4502C23.2013 16.4197 23.2012 13.1278 21.1708 11.0973L19.5378 9.46453Z" fill="#DD5E26"/>
<path d="M40.4624 9.46453C41.3331 8.59383 41.8222 7.41293 41.8222 6.18164H30.0002V16.9211V20.8368C30.0002 21.6475 30.495 22.3761 31.2485 22.6753L44.1481 27.795C44.2621 27.8402 44.3797 27.8743 44.4996 27.8977V35.4687H47.0852C48.7279 35.4687 50.2452 34.5911 51.0643 33.1673L51.8699 31.7673C52.2706 31.0709 52.4815 30.2814 52.4815 29.4779V25.9399H52.4806C52.4787 25.7589 52.4524 25.5742 52.3971 25.3896C52.3971 24.6103 51.7654 23.9784 50.9859 23.9784C47.3143 24.0062 44.7088 24.2365 41.8361 21.4568L38.8295 18.4502C36.7991 16.4198 36.7991 13.1278 38.8295 11.0973L40.4624 9.46453Z" fill="#EA792E"/>
<path d="M30 54.7564H37.9117C39.1358 54.7564 40.1283 53.7641 40.1283 52.5398C40.1283 51.3157 39.1359 50.3232 37.9117 50.3232H30V54.7564Z" fill="#EA792E"/>
<path d="M30.0004 50.3232H22.0887C20.8645 50.3232 19.8721 51.3156 19.8721 52.5398C19.8721 53.764 20.8644 54.7564 22.0887 54.7564H30.0004V50.3232Z" fill="#DD5E26"/>
</g>
<defs>
<clipPath id="clip0_1123_23556">
<rect width="60" height="60" fill="white"/>
</clipPath>
</defs>
</svg>
