<svg width="60" height="60" viewBox="0 0 60 60" fill="none" xmlns="http://www.w3.org/2000/svg">
<g clip-path="url(#clip0_1123_22807)">
<path d="M29.9999 59.7855C46.45 59.7855 59.7855 46.45 59.7855 29.9999C59.7855 13.5498 46.45 0.214355 29.9999 0.214355C13.5498 0.214355 0.214355 13.5498 0.214355 29.9999C0.214355 46.45 13.5498 59.7855 29.9999 59.7855Z" fill="#EE6781"/>
<path d="M33.706 41.27H26.2938L24.064 49.8559C23.4233 51.9861 25.0182 54.1312 27.2427 54.1312H32.7572C34.9816 54.1312 36.5766 51.9861 35.9359 49.8559L33.706 41.27Z" fill="#F9C744"/>
<path d="M29.3217 49.1756V51.2537C29.3217 51.9817 28.559 52.4582 27.9047 52.1391L26.1579 51.2872C25.7415 51.0841 25.5229 50.6184 25.6326 50.1683L26.0935 48.2786C26.2447 47.6591 26.9356 47.3442 27.5024 47.6367L28.7882 48.3003C29.1159 48.4692 29.3217 48.807 29.3217 49.1756Z" fill="#FAD98F"/>
<path d="M30.6782 49.1756V51.2537C30.6782 51.9817 31.4409 52.4582 32.0953 52.1391L33.8421 51.2872C34.2584 51.0841 34.477 50.6184 34.3673 50.1683L33.9064 48.2786C33.7552 47.6591 33.0643 47.3442 32.4976 47.6367L31.2117 48.3003C30.884 48.4692 30.6782 48.807 30.6782 49.1756Z" fill="#FAD98F"/>
<path d="M29.9999 47.4036C31.93 47.4036 33.6164 46.4384 34.1015 45.0561L35.2497 41.7848C35.8163 40.3907 34.4057 38.9868 32.4384 38.9868H27.5612C25.5938 38.9868 24.1833 40.3906 24.7499 41.7848L25.8981 45.0561C26.3833 46.4385 28.0697 47.4036 29.9999 47.4036Z" fill="#528F66"/>
<path d="M46.0156 24.532C45.4615 26.9721 42.9229 35.8094 42.8417 36.0865C42.5133 37.7709 41.0386 38.9868 39.3218 38.9868C37.3546 38.989 35.7368 37.3911 35.7371 35.402C35.8757 34.2096 36.6177 25.4961 36.6646 23.8475C36.7435 21.8691 38.2691 20.2627 40.2494 20.2627H42.4967C44.7515 20.2627 46.5304 22.3375 46.0156 24.532Z" fill="#F9C744"/>
<path d="M44.9461 28.6157C43.9946 32.0901 42.8417 36.0867 42.8417 36.0867C42.5133 37.771 41.0386 38.9869 39.3218 38.9869C38.476 38.9869 37.6978 38.6938 37.0847 38.2032L39.6844 31.9334L44.9461 28.6157Z" fill="#3F5D77"/>
<path d="M37.8776 24.4231C37.432 24.4297 37.2382 23.8275 37.6163 23.5758L41.4539 20.9654C41.967 20.6347 42.4735 21.3747 41.9756 21.7322L38.138 24.3427C38.0582 24.3971 37.9674 24.4231 37.8776 24.4231Z" fill="#3F5D77"/>
<path d="M38.1987 26.6159C37.7535 26.6223 37.559 26.0206 37.9373 25.7686L43.8974 21.7144C44.4092 21.3838 44.9175 22.1231 44.4191 22.4813L38.459 26.5355C38.3792 26.5899 38.2884 26.6159 38.1987 26.6159Z" fill="#3F5D77"/>
<path d="M38.3537 28.9741C37.9086 28.9804 37.714 28.3788 38.0924 28.1268L44.5481 23.7353C45.0599 23.405 45.5683 24.1438 45.0698 24.5022L38.6141 28.8937C38.5342 28.948 38.4435 28.9741 38.3537 28.9741Z" fill="#3F5D77"/>
<path d="M37.5317 31.9916C37.0866 31.998 36.892 31.3963 37.2704 31.1444L43.7261 26.7529C44.2379 26.4225 44.7463 27.1614 44.2478 27.5198L37.7921 31.9113C37.7122 31.9656 37.6214 31.9916 37.5317 31.9916Z" fill="#3F5D77"/>
<path d="M13.9842 24.532C14.5383 26.9721 17.0769 35.8094 17.1581 36.0865C17.4865 37.7709 18.9611 38.9868 20.6779 38.9868C22.6452 38.989 24.2629 37.3911 24.2627 35.402C24.1241 34.2096 23.382 25.4961 23.3352 23.8475C23.2563 21.8691 21.7306 20.2627 19.7504 20.2627H17.503C15.2483 20.2627 13.4694 22.3375 13.9842 24.532Z" fill="#F9C744"/>
<path d="M15.0535 28.6157C16.005 32.0901 17.1579 36.0867 17.1579 36.0867C17.4863 37.771 18.961 38.9869 20.6778 38.9869C21.5236 38.9869 22.3017 38.6938 22.9149 38.2032L20.3152 31.9334L15.0535 28.6157Z" fill="#3F5D77"/>
<path d="M22.1222 24.4233C22.0324 24.4233 21.9417 24.3973 21.8618 24.3429L18.0243 21.7324C17.5283 21.3771 18.0302 20.6338 18.546 20.9656L22.3835 23.576C22.7604 23.8267 22.569 24.4302 22.1222 24.4233Z" fill="#3F5D77"/>
<path d="M21.8012 26.6161C21.7114 26.6161 21.6207 26.5901 21.5408 26.5357L15.5808 22.4815C15.0854 22.127 15.586 21.3825 16.1025 21.7147L22.0625 25.7689C22.4391 26.0192 22.2483 26.6233 21.8012 26.6161Z" fill="#3F5D77"/>
<path d="M21.6463 28.9744C21.5565 28.9744 21.4658 28.9484 21.3859 28.894L14.9301 24.5025C14.4349 24.1482 14.9352 23.4035 15.4518 23.7356L21.9076 28.1271C22.284 28.3773 22.0933 28.9815 21.6463 28.9744Z" fill="#3F5D77"/>
<path d="M22.4683 31.9915C22.3785 31.9915 22.2878 31.9655 22.2079 31.9111L15.7522 27.5196C15.2569 27.1653 15.7572 26.4206 16.2739 26.7527L22.7296 31.1442C23.106 31.3944 22.9155 31.9986 22.4683 31.9915Z" fill="#3F5D77"/>
<path d="M40.6075 26.1717C40.2101 28.6513 39.2898 34.4016 38.9027 36.8192C38.4158 39.8539 35.7975 42.0874 32.7238 42.0874H27.2767C24.203 42.0874 21.5838 39.854 21.0977 36.8192L20.5033 33.1074L19.3921 26.1717C18.7836 22.3699 21.7201 18.9243 25.571 18.9243H34.4295C38.2794 18.9242 41.2168 22.3699 40.6075 26.1717Z" fill="#53B976"/>
<path d="M40.6075 26.1718L39.5306 32.896C34.0248 35.2553 26.102 35.3402 20.5033 33.1074L19.3921 26.1717C18.7836 22.3699 21.7201 18.9243 25.571 18.9243H34.4295C38.2794 18.9243 41.2168 22.37 40.6075 26.1718Z" fill="#78C795"/>
<path d="M34.252 21.043H25.7479C20.5718 21.2513 20.5689 28.6389 25.7479 28.8485H34.2519C39.4283 28.6401 39.431 21.2524 34.252 21.043Z" fill="#9ACDAE"/>
<path d="M31.1985 23.0468H28.8016C25.1541 23.0468 22.261 20.4976 22.4807 17.4781L23.009 10.2036C23.0883 9.11447 23.5635 8.11896 24.3152 7.31213C25.4762 6.0649 27.2967 5.26709 29.3299 5.26709H30.6704C33.806 5.29076 36.6887 7.1367 36.9914 10.2035L37.5195 17.478C37.739 20.4976 34.846 23.0468 31.1985 23.0468Z" fill="#F9C744"/>
<path d="M32.3575 13.8969C32.3575 14.4568 32.0232 15.4228 31.6353 16.3571C31.0947 17.6574 30.4491 18.8966 30.4491 18.8966C30.2921 19.3091 29.7081 19.3091 29.5512 18.8966C29.5512 18.8966 28.9056 17.6573 28.365 16.3571C27.9772 15.4228 27.6428 14.4568 27.6428 13.8969C27.6428 12.4097 27.8989 12.4097 28.6667 12.4097H31.3336C32.1013 12.4096 32.3575 12.4096 32.3575 13.8969Z" fill="#B26E2B"/>
<path d="M31.6352 16.3572C31.0946 17.6575 30.4491 18.8967 30.4491 18.8967C30.292 19.3092 29.7081 19.3092 29.5512 18.8967C29.5512 18.8967 28.9056 17.6574 28.365 16.3572C28.905 15.0569 29.5512 13.8172 29.5512 13.8172C29.7082 13.4047 30.2921 13.4047 30.4491 13.8172C30.4491 13.8172 31.0951 15.057 31.6352 16.3572Z" fill="#DD8C29"/>
<path d="M30.0001 17.219C29.7391 17.219 29.5276 17.0074 29.5276 16.7465V14.6292C29.5276 14.3683 29.7391 14.1567 30.0001 14.1567C30.2611 14.1567 30.4726 14.3683 30.4726 14.6292V16.7465C30.4726 17.0074 30.2611 17.219 30.0001 17.219Z" fill="#F9C744"/>
<path d="M30.0001 15.537C29.7391 15.537 29.5276 15.3255 29.5276 15.0645V14.6291C29.5468 14.0046 30.4535 14.0044 30.4727 14.6291V15.0645C30.4726 15.3255 30.2611 15.537 30.0001 15.537Z" fill="#FAEFDC"/>
<path d="M30.2279 10.8701C30.2265 10.9851 30.2341 11.7325 30.2204 11.8302C30.1427 12.6285 29.4703 13.2527 28.6511 13.2527C27.7802 13.2523 27.075 12.5465 27.075 11.6759V10.8701C27.0746 9.99309 27.7906 9.29196 28.6511 9.29395C29.5223 9.29395 30.2279 9.99954 30.2279 10.8701Z" fill="#22A8B9"/>
<path d="M32.9254 10.8701C32.924 10.9851 32.9316 11.7325 32.9179 11.8302C32.8402 12.6285 32.1678 13.2527 31.3492 13.2527C30.4784 13.2524 29.7727 12.5467 29.7725 11.6759V10.8701C29.772 9.99286 30.4887 9.29184 31.3492 9.29395C32.2198 9.29395 32.9254 9.99954 32.9254 10.8701Z" fill="#22A8B9"/>
<path d="M29.7724 11.6757C29.7724 11.7953 29.7858 11.9115 29.8115 12.023C28.8239 12.339 27.7574 11.5566 27.7752 10.5148C27.7776 10.4045 27.7683 9.64911 27.7827 9.55465C28.4904 9.05403 29.5847 9.31372 30.0002 10.0534C29.8556 10.2913 29.7725 10.5709 29.7725 10.8699V11.6757H29.7724Z" fill="#22BCE0"/>
<path d="M32.9254 10.87C32.9228 10.9859 32.9324 11.7318 32.9179 11.8302C31.8958 12.5227 30.4599 11.7598 30.4727 10.5148C30.4751 10.4045 30.4658 9.64918 30.4802 9.55485C31.4948 8.86016 32.9442 9.62973 32.9254 10.87Z" fill="#22BCE0"/>
<path d="M32.4448 10.3414C32.4448 9.85465 32.0501 9.45996 31.5633 9.45996C30.3964 9.50027 30.3967 11.1829 31.5633 11.2229C32.0501 11.2229 32.4448 10.8284 32.4448 10.3414Z" fill="#83D5EF"/>
<path d="M29.7472 10.3414C29.7472 9.85465 29.3526 9.45996 28.8658 9.45996C27.6989 9.50027 27.6992 11.1829 28.8658 11.2229C29.3526 11.2229 29.7472 10.8284 29.7472 10.3414Z" fill="#83D5EF"/>
<path d="M31.7846 10.4735C31.7701 11.0483 30.9275 11.0482 30.9131 10.4735C30.9276 9.89874 31.7701 9.89885 31.7846 10.4735Z" fill="#3F5D77"/>
<path d="M29.0871 10.4735C29.0726 11.0483 28.23 11.0482 28.2156 10.4735C28.2301 9.89874 29.0726 9.89885 29.0871 10.4735Z" fill="#3F5D77"/>
<path d="M35.8771 10.6035C35.8743 10.7018 35.8886 11.9475 35.8638 12.0051C35.7855 12.4828 35.3716 12.8398 34.8801 12.8398C34.3293 12.8398 33.8831 12.3935 33.8831 11.8428V10.6035C33.9347 9.2787 35.83 9.28772 35.8771 10.6035Z" fill="#334353"/>
<path d="M35.8772 10.6033C35.8723 10.7026 35.8902 11.9468 35.8638 12.0049C35.2286 12.3018 34.4469 11.7996 34.4633 11.0931C34.4671 10.9974 34.4516 9.74763 34.4762 9.69208C35.1109 9.39501 35.8937 9.89716 35.8772 10.6033Z" fill="#2D2C33"/>
<path d="M35.5237 10.29C35.719 10.29 35.8772 10.4482 35.8772 10.6435V10.9198C35.8653 11.3859 35.182 11.386 35.1702 10.9198V10.6436C35.1703 10.4484 35.3285 10.29 35.5237 10.29Z" fill="white"/>
<path d="M24.1227 10.6035C24.1255 10.7018 24.1112 11.9475 24.136 12.0051C24.2143 12.4828 24.6282 12.8398 25.1197 12.8398C25.6705 12.8398 26.1167 12.3935 26.1167 11.8428V10.6035C26.0652 9.2787 24.1698 9.28772 24.1227 10.6035Z" fill="#334353"/>
<path d="M24.1228 10.6033C24.1277 10.7026 24.1098 11.9468 24.1361 12.0049C24.7714 12.3018 25.5531 11.7996 25.5367 11.0931C25.5329 10.9974 25.5484 9.74763 25.5238 9.69208C24.8891 9.39501 24.1064 9.89716 24.1228 10.6033Z" fill="#2D2C33"/>
<path d="M24.476 10.29C24.2808 10.29 24.1226 10.4482 24.1226 10.6435V10.9198C24.1344 11.3859 24.8177 11.386 24.8296 10.9198V10.6436C24.8294 10.4484 24.6712 10.29 24.476 10.29Z" fill="white"/>
<path d="M31.5193 20.0071C31.5193 19.7832 31.57 19.5622 31.6675 19.3606L32.7164 17.1943C33.1623 16.2733 34.3848 16.0695 35.1052 16.7963L35.7636 17.4603C36.286 17.9873 36.3387 18.8193 35.887 19.4079L35.3865 20.0601C34.8964 20.6986 34.2236 21.1727 33.4575 21.4194C32.4996 21.7277 31.5193 21.0133 31.5193 20.0071Z" fill="#FAD98F"/>
<path d="M28.4807 20.0071C28.4807 19.7832 28.4299 19.5622 28.3324 19.3606L27.2836 17.1943C26.8377 16.2733 25.6152 16.0695 24.8948 16.7963L24.2364 17.4603C23.714 17.9873 23.6612 18.8193 24.113 19.4079L24.6135 20.0601C25.1036 20.6986 25.7764 21.1727 26.5425 21.4194C27.5004 21.7277 28.4807 21.0133 28.4807 20.0071Z" fill="#FAD98F"/>
<path d="M34.2049 15.3335H33.5083C33.1352 15.3335 32.8328 15.636 32.8328 16.0091V16.7056C32.8328 17.0788 33.1352 17.3812 33.5083 17.3812H34.2049C34.578 17.3812 34.8805 17.0788 34.8805 16.7056V16.0091C34.8804 15.636 34.5779 15.3335 34.2049 15.3335Z" fill="#3F5D77"/>
<path d="M35.2701 17.8154H34.7455C34.4645 17.8154 34.2368 18.0432 34.2368 18.3241V18.8487C34.2368 19.1297 34.4646 19.3574 34.7455 19.3574H35.2701C35.551 19.3574 35.7788 19.1296 35.7788 18.8487V18.3241C35.7788 18.0432 35.551 17.8154 35.2701 17.8154Z" fill="#3F5D77"/>
<path d="M33.9051 19.6777H33.5071C33.2939 19.6777 33.1211 19.8506 33.1211 20.0638V20.4617C33.1211 20.6749 33.2939 20.8477 33.5071 20.8477H33.9051C34.1182 20.8477 34.2911 20.6749 34.2911 20.4617V20.0638C34.2911 19.8506 34.1182 19.6777 33.9051 19.6777Z" fill="#3F5D77"/>
<path d="M32.2226 20.5938H31.917C31.7533 20.5938 31.6206 20.7264 31.6206 20.8901V21.1957C31.6206 21.3595 31.7533 21.4921 31.917 21.4921H32.2226C32.3863 21.4921 32.519 21.3595 32.519 21.1957V20.8901C32.5188 20.7264 32.3862 20.5938 32.2226 20.5938Z" fill="#3F5D77"/>
<path d="M25.7955 15.3335H26.492C26.8651 15.3335 27.1676 15.636 27.1676 16.0091V16.7056C27.1676 17.0788 26.8651 17.3812 26.492 17.3812H25.7955C25.4223 17.3812 25.1199 17.0788 25.1199 16.7056V16.0091C25.1199 15.636 25.4223 15.3335 25.7955 15.3335Z" fill="#3F5D77"/>
<path d="M24.7301 17.8154H25.2547C25.5357 17.8154 25.7634 18.0432 25.7634 18.3241V18.8487C25.7634 19.1297 25.5356 19.3574 25.2547 19.3574H24.7301C24.4491 19.3574 24.2214 19.1296 24.2214 18.8487V18.3241C24.2214 18.0432 24.4491 17.8154 24.7301 17.8154Z" fill="#3F5D77"/>
<path d="M26.095 19.6777H26.493C26.7061 19.6777 26.879 19.8506 26.879 20.0638V20.4617C26.879 20.6749 26.7061 20.8477 26.493 20.8477H26.095C25.8818 20.8477 25.709 20.6749 25.709 20.4617V20.0638C25.709 19.8506 25.8818 19.6777 26.095 19.6777Z" fill="#3F5D77"/>
<path d="M27.7776 20.5938H28.0832C28.2469 20.5938 28.3796 20.7264 28.3796 20.8901V21.1957C28.3796 21.3595 28.2469 21.4921 28.0832 21.4921H27.7776C27.6139 21.4921 27.4812 21.3595 27.4812 21.1957V20.8901C27.4812 20.7264 27.6139 20.5938 27.7776 20.5938Z" fill="#3F5D77"/>
<path d="M35.6851 7.31213C32.3567 9.09713 27.6435 9.09713 24.3152 7.31213C25.4762 6.0649 27.2967 5.26709 29.3299 5.26709H30.6704C32.7036 5.26721 34.5241 6.0649 35.6851 7.31213Z" fill="#FAD98F"/>
<path d="M50.153 43.4929H9.84679C9.10229 43.4929 8.49878 42.8894 8.49878 42.1449C8.49878 41.4004 9.10229 40.7969 9.84679 40.7969H50.153C51.9294 40.8633 51.9526 43.4158 50.153 43.4929Z" fill="#B26E2B"/>
<path d="M19.9518 42.4444H11.4229C10.3348 42.4079 10.3305 40.8351 11.4229 40.7969H19.9518C21.0399 40.8333 21.0442 42.4061 19.9518 42.4444Z" fill="#DD8C29"/>
<path d="M48.5771 42.4444H40.0482C38.9601 42.4079 38.9557 40.8351 40.0482 40.7969H48.5771C49.6652 40.8333 49.6694 42.4061 48.5771 42.4444Z" fill="#DD8C29"/>
<path d="M25.7257 40.1228V43.5479C25.7257 43.9803 25.5507 44.3709 25.2674 44.6531C24.3044 45.6302 22.594 44.9382 22.5986 43.5479V40.1229C22.5986 39.5121 22.9486 38.9838 23.4589 38.7265C24.4646 38.1956 25.7472 38.9778 25.7257 40.1228Z" fill="#DD8C29"/>
<path d="M28.8529 40.1228V43.5479C28.8529 43.9803 28.6779 44.3709 28.3946 44.6531C27.4316 45.6302 25.7212 44.9382 25.7258 43.5479V40.1229C25.7258 39.5121 26.0758 38.9838 26.5861 38.7265C27.5918 38.1956 28.8744 38.9778 28.8529 40.1228Z" fill="#DD8C29"/>
<path d="M25.7257 40.123V41.8434C25.7257 42.1719 25.5924 42.47 25.3768 42.6855C24.648 43.43 23.3369 42.8985 23.3448 41.8433V39.2367C23.3448 39.0538 23.3854 38.881 23.4588 38.7265C24.4647 38.1954 25.7472 38.9787 25.7257 40.123Z" fill="#F9C744"/>
<path d="M28.8529 40.123V41.8434C28.8529 42.1719 28.7196 42.47 28.504 42.6855C27.7754 43.4307 26.4636 42.8973 26.472 41.8433V39.2367C26.472 39.0538 26.5126 38.881 26.586 38.7265C27.5918 38.1954 28.8744 38.9787 28.8529 40.123Z" fill="#F9C744"/>
<path d="M34.274 40.1228V43.5479C34.274 43.9803 34.0991 44.3709 33.8157 44.6531C32.8528 45.6302 31.1423 44.9382 31.147 43.5479V40.1229C31.147 39.5121 31.4969 38.9838 32.0073 38.7265C33.013 38.1956 34.2956 38.9778 34.274 40.1228Z" fill="#DD8C29"/>
<path d="M37.401 40.1228V43.5479C37.401 43.9803 37.226 44.3709 36.9426 44.6531C35.9797 45.6302 34.2692 44.9382 34.2739 43.5479V40.1229C34.2739 39.5121 34.6239 38.9838 35.1342 38.7265C36.1399 38.1956 37.4225 38.9778 37.401 40.1228Z" fill="#DD8C29"/>
<path d="M34.274 40.123V41.8434C34.274 42.1719 34.1408 42.47 33.9251 42.6855C33.1963 43.43 31.8852 42.8985 31.8931 41.8433V39.2367C31.8931 39.0538 31.9338 38.881 32.0071 38.7265C33.0129 38.1954 34.2956 38.9787 34.274 40.123Z" fill="#F9C744"/>
<path d="M37.401 40.123V41.8434C37.401 42.1719 37.2677 42.47 37.0521 42.6855C36.3235 43.4307 35.0117 42.8973 35.0201 41.8433V39.2367C35.0201 39.0538 35.0607 38.881 35.1341 38.7265C36.1399 38.1954 37.4225 38.9787 37.401 40.123Z" fill="#F9C744"/>
</g>
<defs>
<clipPath id="clip0_1123_22807">
<rect width="60" height="60" fill="white"/>
</clipPath>
</defs>
</svg>
