<svg width="60" height="60" viewBox="0 0 60 60" fill="none" xmlns="http://www.w3.org/2000/svg">
<g clip-path="url(#clip0_1123_23278)">
<path d="M30 60C46.5685 60 60 46.5685 60 30C60 13.4315 46.5685 0 30 0C13.4315 0 0 13.4315 0 30C0 46.5685 13.4315 60 30 60Z" fill="#53B976"/>
<path d="M53.8272 40.4724V43.7091C53.8272 44.2177 53.7534 44.7099 53.6151 45.174C52.985 47.2887 51.0252 48.8314 48.7049 48.8314H15.7729C13.4526 48.8314 11.4932 47.2892 10.8627 45.174C10.7245 44.7099 10.6506 44.2177 10.6506 43.7091V40.4724C10.6506 39.6275 10.8545 38.8306 11.2166 38.1287C12.0824 36.4422 13.8509 35.3426 15.7729 35.3501H48.7049C49.3506 35.3501 49.9682 35.4697 50.5366 35.6888C52.4983 36.433 53.8381 38.3545 53.8272 40.4724Z" fill="#DD8C29"/>
<path d="M53.2611 38.1286C51.6955 43.0892 47.056 46.6868 41.5775 46.6868H22.9001C17.4677 46.6812 12.8183 43.1616 11.2166 38.1286C12.0673 36.4786 13.7888 35.3501 15.7728 35.3501H48.7048C50.6888 35.3501 52.4103 36.4786 53.2611 38.1286Z" fill="#F39E22"/>
<path d="M50.083 39.2747C50.083 40.238 49.3025 41.0185 48.3392 41.0185H16.1384C14.7101 41.0279 13.8797 39.3494 14.7474 38.2224C15.0662 37.8017 15.5701 37.5298 16.1384 37.5298H48.3392C49.3011 37.5298 50.0831 38.3121 50.083 39.2747Z" fill="#F9C744"/>
<path d="M32.239 43.5864C30.7904 43.5864 29.6162 44.7606 29.6162 46.2092V48.832H34.8616V46.2092C34.8618 44.7606 33.6875 43.5864 32.239 43.5864Z" fill="#DEB36F"/>
<path d="M15.896 46.2087V48.8314C13.5387 48.8872 11.5003 47.3298 10.8628 45.1739C12.0042 42.5935 15.8535 43.3473 15.896 46.2087Z" fill="#DEB36F"/>
<path d="M19.5949 43.5864C18.1464 43.5864 16.9722 44.7606 16.9722 46.2092V48.832H22.2176V46.2092C22.2177 44.7606 21.0435 43.5864 19.5949 43.5864Z" fill="#DEB36F"/>
<path d="M25.917 43.5864C24.4684 43.5864 23.2942 44.7606 23.2942 46.2092V48.832H28.5396V46.2092C28.5397 44.7606 27.3655 43.5864 25.917 43.5864Z" fill="#DEB36F"/>
<path d="M38.561 43.5864C37.1125 43.5864 35.9382 44.7606 35.9382 46.2092V48.832H41.1837V46.2092C41.1838 44.7606 40.0094 43.5864 38.561 43.5864Z" fill="#DEB36F"/>
<path d="M44.883 43.5864C43.4345 43.5864 42.2603 44.7606 42.2603 46.2092V48.832H47.5057V46.2092C47.5058 44.7606 46.3315 43.5864 44.883 43.5864Z" fill="#DEB36F"/>
<path d="M53.6152 45.1738C52.9781 47.3292 50.9393 48.8871 48.582 48.8313V46.2086C48.6249 43.346 52.4751 42.5946 53.6152 45.1738Z" fill="#DEB36F"/>
<path d="M34.8618 46.2086V46.6867H29.6165V46.2086C29.6165 44.7602 30.7907 43.5859 32.2391 43.5859C33.6875 43.5859 34.8618 44.7602 34.8618 46.2086Z" fill="#FBD9A3"/>
<path d="M22.2171 46.2085V46.6667C20.3925 46.5671 18.6757 46.0678 17.1511 45.2546C18.2257 42.5933 22.1703 43.2992 22.2171 46.2085Z" fill="#FBD9A3"/>
<path d="M28.5395 46.2086V46.6867H23.2942V46.2086C23.2942 44.7602 24.4684 43.5859 25.9168 43.5859C27.3653 43.5859 28.5395 44.7602 28.5395 46.2086Z" fill="#FBD9A3"/>
<path d="M41.184 46.2086V46.6867H35.9387V46.2086C35.9387 44.7602 37.1129 43.5859 38.5614 43.5859C40.0098 43.5859 41.184 44.7602 41.184 46.2086Z" fill="#FBD9A3"/>
<path d="M47.327 45.2561C45.8012 46.0682 44.0844 46.5674 42.261 46.6682V46.2088C42.3087 43.2972 46.2537 42.5952 47.327 45.2561Z" fill="#FBD9A3"/>
<path d="M22.2171 46.2085V46.6667C20.3925 46.5671 18.6757 46.0678 17.1511 45.2546C18.2257 42.5933 22.1703 43.2992 22.2171 46.2085Z" fill="#FBD9A3"/>
<path d="M28.5395 46.2086V46.6867H23.2942V46.2086C23.2942 44.7602 24.4684 43.5859 25.9168 43.5859C27.3653 43.5859 28.5395 44.7602 28.5395 46.2086Z" fill="#FBD9A3"/>
<path d="M34.8618 46.2086V46.6867H29.6165V46.2086C29.6165 44.7602 30.7907 43.5859 32.2391 43.5859C33.6875 43.5859 34.8618 44.7602 34.8618 46.2086Z" fill="#FBD9A3"/>
<path d="M41.184 46.2086V46.6867H35.9387V46.2086C35.9387 44.7602 37.1129 43.5859 38.5614 43.5859C40.0098 43.5859 41.184 44.7602 41.184 46.2086Z" fill="#FBD9A3"/>
<path d="M47.327 45.2561C45.8012 46.0682 44.0844 46.5674 42.261 46.6682V46.2088C42.3087 43.2972 46.2537 42.5952 47.327 45.2561Z" fill="#FBD9A3"/>
<path d="M18.5398 35.3499C18.5998 37.3059 15.8126 37.3074 15.8738 35.3499C15.0482 35.3356 14.2464 35.518 13.5476 35.8573C14.1873 40.5399 20.8793 40.0975 20.8835 35.3499H18.5398Z" fill="#B26E2B"/>
<path d="M27.835 35.3501V39.1177C27.835 39.8524 27.2374 40.4501 26.5026 40.4501C25.7678 40.4501 25.1702 39.8524 25.1702 39.1177V35.3501H22.8264V39.1177C22.8264 41.145 24.4752 42.7938 26.5026 42.7938C28.5299 42.7938 30.1788 41.145 30.1788 39.1177V35.3501H27.835Z" fill="#B26E2B"/>
<path d="M37.7374 35.3501V38.1954C37.7374 38.9302 37.1397 39.5278 36.4049 39.5278C35.6702 39.5278 35.0725 38.9302 35.0725 38.1954V35.3501H32.7288V38.1954C32.7288 40.2228 34.3776 41.8716 36.4049 41.8716C38.4323 41.8716 40.0811 40.2228 40.0811 38.1954V35.3501H37.7374Z" fill="#B26E2B"/>
<path d="M48.705 35.3501H48.1988C48.261 37.307 45.4711 37.3058 45.5339 35.3501H43.1902C43.2113 40.2041 50.0858 40.5034 50.5367 35.6888C49.9683 35.4696 49.3507 35.3501 48.705 35.3501Z" fill="#B26E2B"/>
<path d="M16.1386 37.5298C15.5702 37.5298 15.0663 37.8017 14.7476 38.2224C16.3617 39.7294 19.085 39.3658 20.2647 37.5298H16.1386Z" fill="#C68132"/>
<path d="M27.835 37.5298V39.1177C27.835 39.8524 27.2374 40.4501 26.5026 40.4501C25.7678 40.4501 25.1702 39.8524 25.1702 39.1177V37.5298H22.8264V39.1177C22.8264 39.8126 23.0209 40.4642 23.3573 41.0185H29.6479C29.9842 40.4642 30.1788 39.8126 30.1788 39.1177V37.5298H27.835Z" fill="#C68132"/>
<path d="M37.7374 37.5298V38.1954C37.7374 38.9302 37.1397 39.5278 36.4049 39.5278C35.6702 39.5278 35.0725 38.9302 35.0725 38.1954V37.5298H32.7288V38.1954C32.7288 39.3286 33.2444 40.3435 34.053 41.0185H38.7569C39.5655 40.3435 40.0811 39.3286 40.0811 38.1954V37.5298H37.7374Z" fill="#C68132"/>
<path d="M48.3393 37.5298H43.8088C45.0698 39.4773 47.9635 39.734 49.5393 38.0103C49.2276 37.7126 48.8045 37.5298 48.3393 37.5298Z" fill="#C68132"/>
<path d="M15.9647 29.0484C15.9972 29.8474 15.8562 31.8649 16.1246 32.5926C16.5997 34.1867 18.0769 35.3497 19.8261 35.3497H44.6515C46.4007 35.3497 47.8777 34.187 48.353 32.5926C48.4573 32.2428 48.5129 31.8718 48.5129 31.4883V29.0484C48.5129 28.4115 48.3591 27.8108 48.0862 27.2815C47.4336 26.0102 46.1003 25.1813 44.6515 25.187H19.8261C19.3393 25.187 18.8738 25.2772 18.4454 25.4424C16.9665 26.0033 15.9565 27.4517 15.9647 29.0484Z" fill="#DD8C29"/>
<path d="M16.3914 27.2815C17.5716 31.021 21.069 33.733 25.1989 33.733H39.2787C43.3739 33.7288 46.8787 31.0756 48.0862 27.2815C47.4449 26.0377 46.1471 25.187 44.6516 25.187H19.826C18.3305 25.1869 17.0327 26.0377 16.3914 27.2815Z" fill="#F39E22"/>
<path d="M18.7871 28.1455C18.7871 28.8717 19.3755 29.46 20.1016 29.46H44.3758C45.1019 29.4596 45.69 28.8716 45.6903 28.1455C45.6915 27.4254 45.106 26.83 44.3758 26.8301H20.1016C19.3764 26.8302 18.787 27.4199 18.7871 28.1455Z" fill="#F9C744"/>
<path d="M32.2387 31.3955C33.3306 31.3955 34.2157 32.2807 34.2157 33.3726V35.3496H30.2615V33.3726C30.2616 32.2807 31.1467 31.3955 32.2387 31.3955Z" fill="#DEB36F"/>
<path d="M44.5586 33.3723V35.3493C46.3356 35.3914 47.8723 34.2174 48.3528 32.5923C47.4925 30.647 44.5907 31.2152 44.5586 33.3723Z" fill="#DEB36F"/>
<path d="M41.7703 31.3955C42.8622 31.3955 43.7474 32.2807 43.7474 33.3726V35.3496H39.7932V33.3726C39.7932 32.2807 40.6783 31.3955 41.7703 31.3955Z" fill="#DEB36F"/>
<path d="M37.0045 31.3955C38.0965 31.3955 38.9816 32.2807 38.9816 33.3726V35.3496H35.0273V33.3726C35.0275 32.2807 35.9126 31.3955 37.0045 31.3955Z" fill="#DEB36F"/>
<path d="M27.473 31.3955C28.565 31.3955 29.4501 32.2807 29.4501 33.3726V35.3496H25.4958V33.3726C25.496 32.2807 26.3811 31.3955 27.473 31.3955Z" fill="#DEB36F"/>
<path d="M22.7072 31.3955C23.7991 31.3955 24.6842 32.2807 24.6842 33.3726V35.3496H20.73V33.3726C20.7301 32.2807 21.6152 31.3955 22.7072 31.3955Z" fill="#DEB36F"/>
<path d="M16.1245 32.5922C16.6049 34.217 18.1418 35.3913 19.9187 35.3492V33.3722C19.8865 31.2141 16.9841 30.6478 16.1245 32.5922Z" fill="#DEB36F"/>
<path d="M30.2615 33.3726V33.733H34.2156V33.3726C34.2156 32.2807 33.3305 31.3955 32.2385 31.3955C31.1466 31.3955 30.2615 32.2807 30.2615 33.3726Z" fill="#FBD9A3"/>
<path d="M39.7935 33.3727V33.7182C41.1689 33.6431 42.4631 33.2668 43.6124 32.6537C42.8024 30.6474 39.8288 31.1796 39.7935 33.3727Z" fill="#FBD9A3"/>
<path d="M35.0276 33.3726V33.733H38.9817V33.3726C38.9817 32.2807 38.0966 31.3955 37.0047 31.3955C35.9127 31.3955 35.0276 32.2807 35.0276 33.3726Z" fill="#FBD9A3"/>
<path d="M25.4956 33.3726V33.733H29.4497V33.3726C29.4497 32.2807 28.5646 31.3955 27.4727 31.3955C26.3807 31.3955 25.4956 32.2807 25.4956 33.3726Z" fill="#FBD9A3"/>
<path d="M20.8647 32.6544C22.0149 33.2666 23.3092 33.6429 24.6837 33.7189V33.3726C24.6478 31.1777 21.6739 30.6485 20.8647 32.6544Z" fill="#FBD9A3"/>
<path d="M39.7935 33.3727V33.7182C41.1689 33.6431 42.4631 33.2668 43.6124 32.6537C42.8024 30.6474 39.8288 31.1796 39.7935 33.3727Z" fill="#FBD9A3"/>
<path d="M35.0276 33.3726V33.733H38.9817V33.3726C38.9817 32.2807 38.0966 31.3955 37.0047 31.3955C35.9127 31.3955 35.0276 32.2807 35.0276 33.3726Z" fill="#FBD9A3"/>
<path d="M30.2615 33.3726V33.733H34.2156V33.3726C34.2156 32.2807 33.3305 31.3955 32.2385 31.3955C31.1466 31.3955 30.2615 32.2807 30.2615 33.3726Z" fill="#FBD9A3"/>
<path d="M25.4956 33.3726V33.733H29.4497V33.3726C29.4497 32.2807 28.5646 31.3955 27.4727 31.3955C26.3807 31.3955 25.4956 32.2807 25.4956 33.3726Z" fill="#FBD9A3"/>
<path d="M20.8647 32.6544C22.0149 33.2666 23.3092 33.6429 24.6837 33.7189V33.3726C24.6478 31.1777 21.6739 30.6485 20.8647 32.6544Z" fill="#FBD9A3"/>
<path d="M40.7988 25.1866C40.8028 28.7678 45.8482 29.0968 46.3289 25.5691C45.8021 25.3133 45.1977 25.1758 44.5753 25.1866C44.6265 26.6607 42.5145 26.6578 42.5655 25.1866H40.7988Z" fill="#B26E2B"/>
<path d="M33.7917 25.187V28.0272C33.7917 29.5554 35.0348 30.7984 36.563 30.7984C38.0912 30.7984 39.3343 29.5554 39.3343 28.0272V25.187H37.5674V28.0272C37.5674 28.5811 37.1168 29.0316 36.563 29.0316C36.0091 29.0316 35.5586 28.581 35.5586 28.0272V25.187H33.7917Z" fill="#B26E2B"/>
<path d="M26.3269 25.187V27.3319C26.3269 28.8601 27.5699 30.1031 29.0982 30.1031C30.6264 30.1031 31.8694 28.8603 31.8694 27.3319V25.187H30.1026V27.3319C30.1026 27.8858 29.652 28.3363 29.0982 28.3363C28.5442 28.3363 28.0937 27.8857 28.0937 27.3319V25.187H26.3269Z" fill="#B26E2B"/>
<path d="M18.4453 25.4421C18.7866 29.0739 23.9684 28.8437 23.9834 25.1868H22.2165C22.2659 26.661 20.158 26.6601 20.2077 25.1868C19.6132 25.1671 18.9795 25.223 18.4453 25.4421Z" fill="#B26E2B"/>
<path d="M41.2654 26.8301C42.1552 28.2146 44.2081 28.4878 45.4245 27.3521C45.1842 27.035 44.8043 26.8301 44.3759 26.8301H41.2654Z" fill="#C68132"/>
<path d="M33.7917 26.8301V28.0271C33.7917 28.551 33.9384 29.0422 34.1919 29.46H38.9341C39.1876 29.0421 39.3343 28.551 39.3343 28.0271V26.8301H37.5674V28.0271C37.5674 28.5811 37.1168 29.0316 36.563 29.0316C36.0091 29.0316 35.5586 28.581 35.5586 28.0271V26.8301H33.7917Z" fill="#C68132"/>
<path d="M26.3269 26.8301V27.3319C26.3269 28.1862 26.7156 28.9512 27.3251 29.46H30.8711C31.4806 28.9512 31.8693 28.1862 31.8693 27.3319V26.8301H30.1025V27.3319C30.1025 27.8858 29.6519 28.3363 29.098 28.3363C28.5441 28.3363 28.0936 27.8857 28.0936 27.3319V26.8301H26.3269Z" fill="#C68132"/>
<path d="M19.197 27.1923C20.3855 28.4921 22.5669 28.2976 23.5169 26.8301H20.1017C19.7508 26.8302 19.432 26.968 19.197 27.1923Z" fill="#C68132"/>
<path d="M44.5752 25.1875H37.5674C37.5674 21.55 36.9756 18.4 31.415 18.4C31.6934 16.9329 32.3661 13.3878 32.6373 11.9629C40.3754 12.0235 44.7438 17.5861 44.5752 25.1875Z" fill="#F39E22"/>
<path d="M41.7032 25.1873H37.5674C37.5674 21.5498 36.9756 18.3998 31.415 18.3998L32.2061 14.2314C38.2505 14.9858 41.1509 19.1143 41.7032 25.1873Z" fill="#DD8C29"/>
<path d="M38.4241 13.2964L37.912 14.5151C37.6975 15.0261 37.1081 15.2663 36.5971 15.0519C36.0862 14.8374 35.846 14.2479 36.0604 13.737L36.5573 12.5534C35.9432 12.3671 35.3538 12.237 34.8124 12.1479L34.4315 13.0526C33.4337 15.3813 35.9353 17.737 38.1968 16.6174C38.7815 16.3339 39.2702 15.8451 39.5409 15.1994L39.951 14.2244C39.453 13.8601 38.9397 13.553 38.4241 13.2964Z" fill="#B26E2B"/>
<path d="M44.0304 20.5094L42.8854 20.9254C42.3639 21.1152 41.7874 20.8457 41.5975 20.3254C41.4077 19.8051 41.6772 19.2273 42.1987 19.0375L43.387 18.6063C43.1421 18.0309 42.8643 17.5059 42.5608 17.0254L41.594 17.377C40.946 17.6125 40.4374 18.0684 40.1245 18.6285C38.8703 20.8376 41.1023 23.4714 43.4889 22.5859L44.3784 22.2625C44.2893 21.6426 44.1733 21.0578 44.0304 20.5094Z" fill="#B26E2B"/>
<path d="M32.6913 15.9929C32.4353 17.9458 30.6969 19.4465 28.7409 19.4288H16.4198C14.2565 19.4288 12.494 17.7061 12.4331 15.5558C12.384 14.1018 13.1758 12.6937 14.437 11.9815C14.7885 11.7788 15.1753 11.6288 15.5889 11.5409L18.9944 10.8143L27.9088 8.91357C30.3909 8.38388 32.7288 10.2765 32.7288 12.8136C32.7241 13.2319 32.7569 15.6319 32.6913 15.9929Z" fill="#DD8C29"/>
<path d="M32.7287 12.8136V15.4409C32.7369 16.5694 32.2271 17.6745 31.415 18.3999C30.9685 18.803 30.4295 19.1077 29.8341 19.2765L17.738 17.2643C15.2877 16.8776 13.7162 14.3393 14.4369 11.9815C14.7884 11.7788 15.1752 11.6288 15.5888 11.5409L26.2048 9.27685L27.9087 8.91357C30.3908 8.38388 32.7287 10.2765 32.7287 12.8136Z" fill="#F39E22"/>
<path d="M31.4151 18.3999C30.6838 19.059 29.7333 19.4302 28.7409 19.4288H16.4198C14.2565 19.4288 12.494 17.7061 12.4331 15.5557C14.7177 15.2428 22.9121 14.1252 25.3249 13.7956C27.8327 13.4439 30.2362 14.9646 31.0343 17.3018L31.4151 18.3999Z" fill="#DEB36F"/>
<path d="M31.415 18.3999C30.7318 19.0187 29.7902 19.2693 28.8811 19.1179L17.7381 17.2643C16.4584 17.051 15.4119 16.2741 14.8154 15.2299C15.0224 15.1971 24.8414 13.8651 25.3247 13.7956C27.8326 13.4439 30.236 14.9646 31.0342 17.3018L31.415 18.3999Z" fill="#FBD9A3"/>
<path d="M32.7287 12.8136V13.7464C29.7568 13.744 27.2185 11.8913 26.2048 9.27685L27.9087 8.91357C30.3908 8.38388 32.7287 10.2765 32.7287 12.8136Z" fill="#F9C744"/>
<path d="M18.9943 10.8145C18.108 12.5011 15.4412 13.4864 13.2744 12.9918C13.8417 12.2543 14.6677 11.7366 15.5889 11.541L18.9943 10.8145Z" fill="#F9C744"/>
<path d="M14.4736 15.5956C14.1716 15.2936 14.1716 14.8039 14.4736 14.5019L15.4138 13.5617C16.1586 12.8613 17.2081 13.9102 16.5075 14.6554L15.5673 15.5956C15.2653 15.8976 14.7756 15.8976 14.4736 15.5956Z" fill="#3E4E60"/>
<path d="M18.5008 14.7261C21.4139 14.3295 25.036 13.8371 25.3249 13.7956C25.9655 13.7057 26.5991 13.7387 27.2011 13.8756C27.5253 12.0761 25.8852 10.4468 24.0819 10.7968C23.6541 10.8988 20.3388 11.414 20.0213 11.6092C18.8496 12.1112 18.1585 13.446 18.5008 14.7261Z" fill="#DD8C29"/>
<path d="M25.4017 13.2761C25.5599 14.1206 24.9983 14.9556 24.1337 15.1124L22.0863 15.4865C21.2284 15.6429 20.4069 15.0749 20.2509 14.2171C20.0887 13.3569 20.6814 12.5275 21.5191 12.3819L23.5665 12.0079C24.4237 11.8513 25.2459 12.4196 25.4017 13.2761Z" fill="#53B976"/>
<path d="M25.4017 13.2761C25.4535 13.5597 25.4261 13.8399 25.3363 14.0922C25.1623 14.2035 23.1828 14.5138 22.9424 14.5712C21.7642 14.8046 20.7537 13.602 21.1727 12.4869C21.348 12.3747 23.3254 12.066 23.5666 12.0079C24.4238 11.8513 25.246 12.4196 25.4017 13.2761Z" fill="#78C795"/>
<path d="M23.5343 12.8609L23.8017 14.325C23.8551 14.6178 23.6599 14.9136 23.3579 14.9671L22.7607 15.0762C22.4609 15.131 22.1732 14.9322 22.1185 14.6325L21.8511 13.1684C21.7964 12.8687 21.9954 12.5821 22.2951 12.5274L22.8923 12.4183C23.1921 12.3635 23.4795 12.5612 23.5343 12.8609Z" fill="#3E4E60"/>
<path d="M23.5341 12.861L23.8016 14.325C23.8071 14.355 23.81 14.3842 23.8093 14.4129L23.2755 14.5104C22.9769 14.5649 22.6892 14.3662 22.6347 14.0676L22.3671 12.6024C22.3618 12.5736 22.3589 12.5444 22.3584 12.5158L22.8922 12.4183C23.192 12.3636 23.4794 12.5612 23.5341 12.861Z" fill="#2E3140"/>
<path d="M24.1409 12.7742L22.936 12.9942C22.3038 13.1298 22.4721 14.0533 23.1118 13.9567L24.3166 13.7366C24.9489 13.6009 24.7806 12.6776 24.1409 12.7742Z" fill="white"/>
<path d="M21.0802 18.3979C19.8098 18.3979 18.9908 18.2142 18.1239 18.0197C16.9575 17.7581 15.6356 17.4616 12.7705 17.4616C12.2353 17.4477 12.2224 16.6596 12.7705 16.6413C15.7266 16.6413 17.0955 16.9484 18.3034 17.2193C19.1605 17.4115 19.9007 17.5775 21.0802 17.5775C21.6886 17.5775 22.7977 16.9016 23.8702 16.2479C26.3928 14.6562 29.6572 12.8576 30.9919 16.2259C31.075 16.4366 30.9715 16.6748 30.7608 16.7578C30.5501 16.841 30.3118 16.7375 30.2287 16.5267C29.9474 15.8132 29.5656 15.384 29.0613 15.2147C26.9801 14.4655 23.173 18.312 21.0802 18.3979Z" fill="#B26E2B"/>
<path d="M12.9404 17.4226C12.1317 17.8056 11.4858 18.1175 10.776 18.5054C9.16828 20.0162 9.82559 24.2227 10.2687 25.6726C10.4088 26.1909 9.65051 26.4207 9.48223 25.9034C9.06762 24.6092 8.57836 21.2423 9.28887 19.4464C7.9459 20.4636 7.28145 21.6319 7.07051 23.6042C7.01777 24.094 6.99316 24.6343 6.99316 25.2331C6.99316 25.4605 6.80918 25.6433 6.58301 25.6433C6.35566 25.6433 6.17285 25.4605 6.17285 25.2331C6.17285 24.5429 6.20566 23.923 6.2748 23.3605C6.63691 20.3933 7.99629 19.0444 10.7795 17.5761C11.3268 17.2866 11.9303 16.9925 12.5912 16.6808C12.7951 16.5835 13.04 16.6714 13.1373 16.8765C13.2334 17.0815 13.1455 17.3253 12.9404 17.4226Z" fill="#EE6781"/>
<path d="M11.28 18.2371C9.66209 18.8761 9.64439 21.7068 9.81045 23.2012C9.56201 23.3348 9.296 23.4437 9.01709 23.5234C8.86287 22.2282 8.85057 20.7048 9.28896 19.4465C7.86139 20.498 7.2424 21.8548 7.07061 23.6043C6.79287 23.5504 6.52686 23.4672 6.2749 23.3605C6.57162 20.4589 8.15201 18.9154 10.7796 17.5762C10.9706 17.7777 11.1394 17.9992 11.28 18.2371Z" fill="#F4829B"/>
<path d="M10.4817 18.8675C10.0177 19.5413 9.81494 20.4296 9.75752 21.3401C9.5126 21.5054 9.23135 21.6366 8.92197 21.728C8.93838 20.9511 9.04033 20.1601 9.28877 19.4464C8.404 20.1167 7.81338 20.8526 7.45361 21.8405C7.17119 21.8054 6.90283 21.7362 6.65674 21.639C7.19111 20.0979 8.19658 19.0925 9.7915 18.1304C10.0845 18.3343 10.3212 18.5851 10.4817 18.8675Z" fill="#FF9FB4"/>
</g>
<defs>
<clipPath id="clip0_1123_23278">
<rect width="60" height="60" fill="white"/>
</clipPath>
</defs>
</svg>
