<svg width="60" height="60" viewBox="0 0 60 60" fill="none" xmlns="http://www.w3.org/2000/svg">
<g clip-path="url(#clip0_1123_24404)">
<path d="M30 60C46.5685 60 60 46.5685 60 30C60 13.4315 46.5685 0 30 0C13.4315 0 0 13.4315 0 30C0 46.5685 13.4315 60 30 60Z" fill="#EA792E"/>
<path d="M27.5086 45.6704C27.497 47.8996 31.0286 48.0499 31.0242 51.3599C31.033 54.6588 27.4931 54.8271 27.5086 57.0482C27.474 58.2013 25.7929 58.2205 25.7508 57.0482C25.7502 53.7318 29.2752 53.5958 29.2664 51.3599C29.2844 49.1404 25.7408 48.9676 25.7508 45.6704C25.7524 42.3551 29.2951 42.191 29.2664 39.981C29.282 37.7564 25.7505 37.6072 25.7508 34.2927C25.7881 32.0681 27.2485 31.3255 28.4261 30.265C28.9687 29.7728 29.2664 29.3298 29.2664 28.6044C29.3054 27.4486 30.9783 27.4323 31.0242 28.6044C31.0332 30.2799 30.0527 31.2578 28.9406 32.1318C28.0254 32.8712 27.5086 33.3365 27.5086 34.2927C27.5086 35.249 28.0265 35.7142 28.9406 36.4536C29.8858 37.1995 31.0892 38.2395 31.0218 40.0865C30.9797 41.8595 29.8511 42.7724 28.9406 43.5095C28.1114 44.1714 27.4835 44.7269 27.5086 45.6704Z" fill="#DD5273"/>
<path d="M32.6964 34.6441C32.6836 36.8727 36.2201 37.0315 36.212 40.3336C36.257 41.9448 35.1706 43.0752 34.1272 43.8621C33.498 44.3719 33.0562 44.7516 32.8429 45.2508C32.7468 45.4758 32.6964 45.7254 32.6964 46.023C32.6964 46.5082 32.3026 46.902 31.8175 46.902C31.3312 46.902 30.9386 46.5082 30.9386 46.023C30.8992 44.4221 31.9444 43.3125 33.0222 42.4945C33.913 41.7582 34.44 41.3473 34.4542 40.3336C34.4542 39.3773 33.9362 38.9121 33.0222 38.1727C32.094 37.4215 30.9386 36.4863 30.9386 34.6441C30.9386 33.3023 31.5526 32.441 32.2452 31.7824C33.1663 30.9104 34.5348 30.1958 34.4542 28.9559V22.3652C34.4542 21.8801 34.8468 21.4863 35.3331 21.4863C35.8183 21.4863 36.212 21.8801 36.212 22.3652V28.9559C36.1956 30.9138 34.9765 31.7838 33.9562 32.6227C33.1487 33.2848 32.6964 33.75 32.6964 34.6441Z" fill="#DD5273"/>
<path d="M22.3206 34.6441C22.3026 36.8708 25.8322 37.0098 25.8362 40.3336C25.86 41.9733 24.8565 43.0071 23.7526 43.8621C22.8385 44.6016 22.3206 45.0668 22.3206 46.023C22.3206 46.5082 21.928 46.902 21.4417 46.902C20.9565 46.902 20.5627 46.5082 20.5627 46.023C20.5627 44.1809 21.7182 43.2469 22.6475 42.4945C23.3839 41.8958 24.1026 41.3392 24.0784 40.3336C24.0956 38.0467 20.3311 37.9275 20.5746 34.3383C20.775 31.3298 24.1018 31.1 24.0785 28.9559V21.4395C24.0785 20.9531 24.4722 20.5605 24.9574 20.5605C25.4437 20.5605 25.8363 20.9531 25.8363 21.4395V28.9559C25.8409 32.2595 22.3018 32.4267 22.3206 34.6441Z" fill="#DD5273"/>
<path d="M25.7987 29.5076C25.4491 32.2769 22.2942 32.5659 22.3206 34.6439C22.3206 35.3318 22.5877 35.7654 23.0788 36.2295C22.1213 35.6014 21.2788 34.9627 20.5745 34.3381C20.7749 31.4147 23.8858 31.1267 24.0702 29.1572C24.6209 29.2463 25.1987 29.3635 25.7987 29.5076Z" fill="#C0405C"/>
<path d="M31.0242 39.9807C31.0242 40.0158 31.0242 40.051 31.0218 40.0861C30.4195 39.8775 29.8066 39.6479 29.1867 39.3947C29.0097 38.7994 28.541 38.3916 27.8343 37.8197C26.9062 37.0686 25.7507 36.1346 25.7507 34.2924C25.788 32.0669 27.2486 31.3258 28.4261 30.2646C29.0144 30.4615 29.6144 30.6795 30.2214 30.9186C29.3414 32.1031 27.4342 32.7902 27.5085 34.2924C27.4962 36.5188 31.0313 36.6776 31.0242 39.9807Z" fill="#C0405C"/>
<path d="M36.2119 40.3334C36.2119 40.7143 36.1627 41.0576 36.0748 41.367C35.5217 41.2873 34.9393 41.1783 34.3334 41.0412C34.7359 39.7983 34.162 39.0442 33.0221 38.1725C32.0939 37.4213 30.9385 36.4861 30.9385 34.6439C30.9385 33.3022 31.5525 32.4408 32.2451 31.7822C32.8346 32.0541 33.4064 32.3342 33.9561 32.6225C33.1486 33.2846 32.6963 33.7498 32.6963 34.6439C32.6963 35.6002 33.2131 36.0654 34.1271 36.8061C35.0564 37.5572 36.2119 38.4912 36.2119 40.3334Z" fill="#C0405C"/>
<path d="M23.3049 41.9346C23.9213 42.0951 24.5459 42.2686 25.1788 42.4561C24.7698 43.0396 24.2307 43.4756 23.7526 43.8623C22.8385 44.6018 22.3206 45.067 22.3206 46.0232C22.3206 46.5084 21.928 46.9022 21.4417 46.9022C20.9565 46.9022 20.5627 46.5084 20.5627 46.0232C20.6 43.7585 22.1125 43.0311 23.3049 41.9346Z" fill="#C0405C"/>
<path d="M31.0242 51.3598C31.0242 53.2008 29.8687 54.1359 28.9406 54.8871C28.0265 55.6266 27.5085 56.0918 27.5085 57.048C27.4702 58.2089 25.7909 58.2136 25.7507 57.048C25.7462 53.7394 29.2774 53.5904 29.2664 51.3598C29.2664 50.4023 28.7496 49.9383 27.8343 49.1977C26.9062 48.4465 25.7507 47.5113 25.7507 45.6703C25.7507 44.4445 26.2628 43.6207 26.8793 42.9844C27.5085 43.1895 28.1437 43.4074 28.7835 43.6383C27.9668 44.3051 27.5085 44.7703 27.5085 45.6703C27.5085 46.6266 28.0265 47.0918 28.9406 47.8313C29.8687 48.5824 31.0242 49.5176 31.0242 51.3598Z" fill="#C0405C"/>
<path d="M32.8428 45.251C32.7467 45.476 32.6963 45.7256 32.6963 46.0232C32.6963 46.5084 32.3025 46.9022 31.8174 46.9022C31.3311 46.9022 30.9385 46.5084 30.9385 46.0232C30.9385 45.4619 31.0463 44.985 31.2221 44.5713C31.7705 44.7928 32.3107 45.0201 32.8428 45.251Z" fill="#C0405C"/>
<path d="M37.0745 19.9844V21.5301C37.0745 25.4371 33.9069 28.6047 29.9999 28.6047C28.0464 28.6047 26.278 27.8125 24.9972 26.5328C23.7175 25.252 22.9253 23.4836 22.9253 21.5301V19.9844H37.0745Z" fill="#F39E22"/>
<path d="M37.0746 19.9844V21.5301C37.0746 25.4371 33.907 28.6047 30 28.6047V19.9844H37.0746Z" fill="#F9C744"/>
<path d="M30.8401 19.9844V25.7816C30.8401 26.2457 30.464 26.6219 29.9999 26.6219C29.5358 26.6219 29.1597 26.2457 29.1597 25.7816V19.9844H30.8401Z" fill="#DD5E26"/>
<path d="M34.0237 24.7469C33.5598 24.7469 33.1836 24.3707 33.1836 23.9068V19.9849H34.8638V23.9068C34.8637 24.3707 34.4877 24.7469 34.0237 24.7469Z" fill="#EA792E"/>
<path d="M25.9759 24.7469C25.5119 24.7469 25.1357 24.3707 25.1357 23.9068V19.9849H26.816V23.9068C26.816 24.3707 26.4399 24.7469 25.9759 24.7469Z" fill="#DD5E26"/>
<path d="M30.84 19.9844V25.7816C30.84 26.2457 30.4638 26.6219 29.9998 26.6219V19.9844H30.84Z" fill="#EA792E"/>
<path d="M42.8987 14.2127V16.2775C42.8987 16.3971 42.8929 16.5154 42.8823 16.6326C42.7604 17.9111 41.9905 18.9998 40.9042 19.5658C40.3921 19.833 39.8097 19.9842 39.1921 19.9842H20.8077C20.1901 19.9842 19.6077 19.833 19.0956 19.5658C18.0093 18.9998 17.2394 17.91 17.1175 16.6326C17.1069 16.5154 17.1011 16.3971 17.1011 16.2775V14.2127C17.1011 12.4959 17.5019 10.8729 18.2144 9.43262C18.7089 8.43535 19.3511 7.52481 20.1151 6.73027C21.4874 5.30176 23.2487 4.25059 25.2292 3.74902C26.0835 3.52988 26.9776 3.41504 27.8987 3.41504H32.1011C37.2175 3.41504 41.5019 6.97285 42.6163 11.7494C42.8015 12.5404 42.8987 13.3654 42.8987 14.2127Z" fill="#F9C744"/>
<path d="M25.9757 18.8123C25.9757 19.2096 25.9511 19.601 25.9042 19.9842H20.8077C20.1901 19.9842 19.6077 19.833 19.0956 19.5658C18.0093 18.9998 17.2394 17.91 17.1175 16.6326C17.1069 16.5154 17.1011 16.3971 17.1011 16.2775V14.2127C17.1011 12.4959 17.5019 10.8729 18.2144 9.43262C22.6347 10.2682 25.9757 14.1494 25.9757 18.8123Z" fill="#FBCB74"/>
<path d="M42.8988 14.2127V16.2775C42.8988 16.3971 42.893 16.5154 42.8824 16.6326C42.7031 18.5135 41.1199 19.9842 39.1922 19.9842H30V3.41504H32.1012C37.2176 3.41504 41.502 6.97285 42.6164 11.7494C42.8016 12.5404 42.8988 13.3654 42.8988 14.2127Z" fill="#FBCB74"/>
<path d="M42.6164 11.7494C40.78 13.2541 38.4316 14.1576 35.8722 14.1576C30.0726 14.1576 25.3546 9.51934 25.2292 3.74902C26.0835 3.52988 26.9777 3.41504 27.8988 3.41504H32.1011C37.2175 3.41504 41.5019 6.97285 42.6164 11.7494Z" fill="#FBCB74"/>
<path d="M42.6164 11.7494C40.7801 13.2541 38.4316 14.1576 35.8723 14.1576C33.702 14.1576 31.6828 13.5084 30 12.3928V3.41504H32.1012C33.4102 3.41504 34.6652 3.64824 35.8254 4.0748C37.1789 4.57168 38.4047 5.33223 39.4418 6.29434C40.9922 7.73223 42.1184 9.61895 42.6164 11.7494Z" fill="#FBD9A3"/>
<path d="M39.6128 7.34307C39.6128 9.16885 38.1327 10.6478 36.3081 10.6478C34.4835 10.6478 33.0034 9.16885 33.0034 7.34307C33.0034 5.68252 34.2292 4.30791 35.8253 4.07471C37.1788 4.57158 38.4046 5.33213 39.4417 6.29424C39.553 6.62353 39.6128 6.97627 39.6128 7.34307Z" fill="#FAEFDC"/>
<path d="M32.8572 16.6328H32.1749C31.4376 16.6328 30.8401 17.2304 30.8401 17.9676V19.9847H34.192V17.9676C34.192 17.2304 33.5945 16.6328 32.8572 16.6328Z" fill="#DD5273"/>
<path d="M42.8824 16.6328C42.7605 17.9113 41.9906 19 40.9043 19.566V17.9676C40.9043 17.2305 41.502 16.6328 42.2391 16.6328H42.8824Z" fill="#DD5273"/>
<path d="M37.8895 16.6328H37.2071C36.4699 16.6328 35.8723 17.2304 35.8723 17.9676V19.9847H39.2242V17.9676C39.2242 17.2304 38.6267 16.6328 37.8895 16.6328Z" fill="#DD5273"/>
<path d="M27.825 16.6328H27.1426C26.4054 16.6328 25.8079 17.2304 25.8079 17.9676V19.9847H29.1598V17.9676C29.1598 17.2304 28.5622 16.6328 27.825 16.6328Z" fill="#C0405C"/>
<path d="M19.0956 17.9676V19.566C18.0092 19 17.2393 17.9102 17.1174 16.6328H17.7608C18.4979 16.6328 19.0956 17.2305 19.0956 17.9676Z" fill="#C0405C"/>
<path d="M22.7928 16.6328H22.1104C21.3732 16.6328 20.7756 17.2304 20.7756 17.9676V19.9847H24.1275V17.9676C24.1275 17.2304 23.53 16.6328 22.7928 16.6328Z" fill="#C0405C"/>
</g>
<defs>
<clipPath id="clip0_1123_24404">
<rect width="60" height="60" fill="white"/>
</clipPath>
</defs>
</svg>
