<svg width="60" height="60" viewBox="0 0 60 60" fill="none" xmlns="http://www.w3.org/2000/svg">
<g clip-path="url(#clip0_1123_23433)">
<path d="M30 60C46.5685 60 60 46.5685 60 30C60 13.4315 46.5685 0 30 0C13.4315 0 0 13.4315 0 30C0 46.5685 13.4315 60 30 60Z" fill="#6C53A2"/>
<path d="M50.9445 14.7134L48.6639 11.3041C47.1348 9.01995 43.9 8.70249 41.9564 10.6462L37.2062 15.3964C36.674 15.3166 36.1293 15.2748 35.5748 15.2748H24.4252C23.8708 15.2748 23.3261 15.3166 22.7939 15.3964L18.0437 10.6462C16.1 8.70249 12.8653 9.01995 11.3361 11.3041L9.0555 14.7134C7.89757 16.4427 8.12339 18.7498 9.59526 20.2216L13.6798 24.3062C13.5742 24.9155 13.5187 25.5419 13.5187 26.1814V37.3309C13.5187 43.3547 18.4013 48.2373 24.4251 48.2373H35.5747C41.5985 48.2373 46.4811 43.3547 46.4811 37.3309V26.1814C46.4811 25.5419 46.4255 24.9155 46.3199 24.3062L50.4046 20.2216C51.8767 18.7497 52.1024 16.4427 50.9445 14.7134Z" fill="#EA792E"/>
<path d="M50.4048 20.2218L46.3204 24.3062C46.4251 24.9149 46.4813 25.5422 46.4813 26.1808V37.3303C46.4813 43.3541 41.5986 48.2368 35.5748 48.2368H30V15.2743H35.5748C36.1298 15.2743 36.6736 15.3167 37.2061 15.3965L41.9565 10.6461C43.8996 8.70168 47.1348 9.01972 48.6638 11.3034L50.9448 14.7132C52.1023 16.4428 51.8764 18.7502 50.4048 20.2218Z" fill="#F39E22"/>
<path d="M39.9451 37.957V42.7046C39.9451 43.6189 40.9059 44.2146 41.7248 43.8081L43.4538 42.9497C43.8226 42.7666 44.0756 42.4113 44.1278 42.0029L44.7418 37.2129C44.8604 36.2879 43.9482 35.5718 43.0777 35.9065L40.7348 36.8073C40.259 36.9901 39.9451 37.4473 39.9451 37.957Z" fill="#F9C744"/>
<path d="M20.055 37.957V42.7046C20.055 43.6189 19.0941 44.2146 18.2752 43.8081L16.5463 42.9497C16.1775 42.7666 15.9245 42.4113 15.8722 42.0029L15.2583 37.2129C15.1397 36.2879 16.0518 35.5718 16.9223 35.9065L19.2652 36.8073C19.741 36.9901 20.055 37.4473 20.055 37.957Z" fill="#F39E22"/>
<path d="M42.9091 39.3446L41.2969 40.0797C40.5183 40.4348 39.5995 40.0915 39.2444 39.3129L38.9828 38.7392C38.6278 37.9606 38.9711 37.0418 39.7497 36.6867L41.3619 35.9516C42.1404 35.5965 43.0593 35.9399 43.4144 36.7185L43.676 37.2921C44.0309 38.0707 43.6876 38.9895 42.9091 39.3446Z" fill="#3E4E60"/>
<path d="M46.4814 31.1348V35.2292L46.3155 35.3052C45.536 35.6595 44.6169 35.3165 44.2626 34.5382L44.0007 33.9645C43.6453 33.185 43.9895 32.2671 44.7677 31.9117L46.379 31.1772C46.4128 31.1622 46.4464 31.1472 46.4814 31.1348Z" fill="#3E4E60"/>
<path d="M44.7226 27.5429L43.1104 28.278C42.3318 28.6331 41.4129 28.2897 41.0579 27.5111L40.7963 26.9375C40.4412 26.1589 40.7846 25.24 41.5632 24.8849L43.1753 24.1498C43.9539 23.7947 44.8728 24.1381 45.2279 24.9167L45.4894 25.4903C45.8445 26.2689 45.5011 27.1878 44.7226 27.5429Z" fill="#3E4E60"/>
<path d="M37.8148 20.9779L36.2027 21.713C35.4241 22.0681 34.5052 21.7248 34.1502 20.9462L33.8886 20.3725C33.5335 19.5939 33.8769 18.6751 34.6555 18.32L36.2676 17.5849C37.0462 17.2298 37.9651 17.5732 38.3202 18.3518L38.5817 18.9254C38.9367 19.7039 38.5933 20.6228 37.8148 20.9779Z" fill="#3E4E60"/>
<path d="M17.091 39.3446L18.7031 40.0797C19.4817 40.4348 20.4006 40.0915 20.7557 39.3129L21.0172 38.7392C21.3723 37.9606 21.0289 37.0418 20.2503 36.6867L18.6382 35.9516C17.8596 35.5965 16.9407 35.9399 16.5857 36.7185L16.3241 37.2921C15.9691 38.0707 16.3124 38.9895 17.091 39.3446Z" fill="#2E3140"/>
<path d="M13.5188 31.1348V35.2292L13.6846 35.3052C14.4642 35.6595 15.3833 35.3165 15.7375 34.5382L15.9994 33.9645C16.3549 33.185 16.0107 32.2671 15.2324 31.9117L13.6211 31.1772C13.5874 31.1622 13.5537 31.1472 13.5188 31.1348Z" fill="#2E3140"/>
<path d="M15.2775 27.5429L16.8897 28.278C17.6683 28.6331 18.5871 28.2897 18.9422 27.5111L19.2038 26.9375C19.5589 26.1589 19.2155 25.24 18.4369 24.8849L16.8248 24.1498C16.0462 23.7947 15.1273 24.1381 14.7722 24.9167L14.5107 25.4903C14.1556 26.2689 14.4989 27.1878 15.2775 27.5429Z" fill="#2E3140"/>
<path d="M22.1852 20.9779L23.7973 21.713C24.5759 22.0681 25.4948 21.7248 25.8499 20.9462L26.1114 20.3725C26.4665 19.5939 26.1232 18.6751 25.3446 18.32L23.7324 17.5849C22.9538 17.2298 22.035 17.5732 21.6799 18.3518L21.4183 18.9254C21.0634 19.7039 21.4066 20.6228 22.1852 20.9779Z" fill="#2E3140"/>
<path d="M37.7799 39.4724V48.1326C37.7799 50.9762 35.4739 53.2822 32.6303 53.2822H27.3698C24.5262 53.2822 22.2202 50.9762 22.2202 48.1315V39.4724C22.2202 37.7912 23.0259 36.2983 24.2718 35.358C25.1137 34.7245 25.6263 33.7467 25.6263 32.6928V30.6737C25.6263 29.4651 26.6053 28.4849 27.8138 28.4849H32.1864C33.3949 28.4849 34.374 29.4651 34.374 30.6737V32.6928C34.374 33.7467 34.8865 34.7245 35.7284 35.358C36.9742 36.2983 37.7799 37.7912 37.7799 39.4724Z" fill="#F39E22"/>
<path d="M37.7798 39.4724V48.1326C37.7798 50.9762 35.4738 53.2822 32.6303 53.2822H30V28.4849H32.1863C33.3947 28.4849 34.3738 29.4651 34.3738 30.6737V32.6928C34.3738 33.7467 34.8864 34.7245 35.7282 35.358C36.9742 36.2983 37.7798 37.7912 37.7798 39.4724Z" fill="#F9C744"/>
<path d="M37.9721 47.7399C37.7562 47.6338 37.4945 47.7231 37.3881 47.939C37.3768 47.962 36.2304 50.242 34.3025 50.242C32.7824 50.2067 31.0796 50.4133 30.5856 49.1792C31.6088 48.9348 32.376 47.9479 32.361 46.8943C32.3363 46.4467 32.6928 46.062 33.1429 46.0635H33.6343C33.9787 46.0635 34.2578 45.7843 34.2578 45.44C34.2578 45.0957 33.9787 44.8164 33.6343 44.8164H33.1429C32.0241 44.8164 31.1138 45.7266 31.1138 46.8455C31.1395 47.338 30.805 47.8179 30.332 47.9571C30.176 47.7525 29.8239 47.7527 29.6679 47.9573C29.2133 47.8134 28.8869 47.3632 28.8869 46.8456C28.8869 45.7267 27.9766 44.8165 26.8578 44.8165H26.3664C26.022 44.8165 25.7429 45.0958 25.7429 45.4401C25.7429 45.7844 26.022 46.0636 26.3664 46.0636H26.8578C27.2889 46.0636 27.6397 46.4144 27.6397 46.8455C27.6397 47.9541 28.3876 48.9176 29.4138 49.1812C28.9206 50.4121 27.2167 50.2067 25.6977 50.2421C23.7698 50.2421 22.6235 47.9621 22.6121 47.939C22.5061 47.723 22.2449 47.6332 22.0286 47.7392C21.812 47.8451 21.7223 48.1066 21.8281 48.323C21.9023 48.5363 23.4408 51.3194 25.9625 51.1154C27.5501 51.1109 29.1929 51.1534 30.0001 49.9402C30.8402 51.2213 32.6856 51.1074 34.3024 51.115C36.7785 51.115 38.1162 48.437 38.172 48.3231C38.2777 48.1068 38.1882 47.8461 37.9721 47.7399Z" fill="#DD5E26"/>
<path d="M46.2988 48.409C46.2713 48.3516 45.6191 46.9935 43.7857 46.118C42.9027 45.6965 41.9162 45.457 40.8287 45.3996C38.9729 45.3024 36.824 45.7351 34.4058 46.6955C34.1825 46.7852 34.0727 47.0385 34.1613 47.2629C34.2511 47.4861 34.5043 47.5959 34.7287 47.5074C37.0883 46.5695 39.2086 46.1629 40.9895 46.2952C41.8625 46.36 42.6545 46.5546 43.3528 46.8789C44.9317 47.6122 45.5041 48.7696 45.5079 48.7795C45.5828 48.938 45.7398 49.0315 45.9033 49.0315C45.9656 49.0315 46.0292 49.0178 46.0891 48.9904C46.3074 48.8866 46.4011 48.6273 46.2988 48.409Z" fill="#EBD9EA"/>
<path d="M46.2987 48.4089C46.401 48.6271 46.3074 48.8866 46.0892 48.99C46.0293 49.0175 45.9656 49.0312 45.9033 49.0312C45.7399 49.0312 45.5828 48.9377 45.5079 48.7792C45.5042 48.7693 44.9317 47.6119 43.3528 46.8786C42.6544 46.5543 41.8624 46.3598 40.9895 46.2948C40.9234 46.0005 40.8686 45.7025 40.8286 45.3994C41.9161 45.4568 42.9026 45.6963 43.7856 46.1178C45.619 46.9934 46.2713 48.3516 46.2987 48.4089Z" fill="white"/>
<path d="M48.3571 43.0591C48.3162 43.0105 47.3448 41.8587 45.3508 41.4698C44.3904 41.2827 43.3753 41.2977 42.3081 41.5143C40.487 41.8845 38.5149 42.8412 36.4138 44.376C36.2201 44.5188 36.1772 44.7914 36.3191 44.9865C36.462 45.1802 36.7345 45.2231 36.9297 45.0812C38.9795 43.5827 40.9306 42.6586 42.6879 42.3409C43.5494 42.1853 44.3649 42.1754 45.1221 42.3147C46.8344 42.6295 47.6781 43.6069 47.6843 43.6156C47.7963 43.7502 47.9719 43.8014 48.1301 43.7605C48.1904 43.7449 48.2486 43.7157 48.2997 43.6741C48.4851 43.5195 48.5107 43.2449 48.3571 43.0591Z" fill="#EBD9EA"/>
<path d="M48.3571 43.0591C48.5107 43.2449 48.4851 43.5195 48.2997 43.6743C48.2486 43.7157 48.1904 43.745 48.1301 43.7606C47.9719 43.8015 47.7963 43.7503 47.6843 43.6157C47.6782 43.607 46.8344 42.6297 45.1221 42.3148C44.3647 42.1756 43.5494 42.1854 42.6879 42.341C42.5502 42.0725 42.4226 41.7977 42.3081 41.5143C43.3754 41.2977 44.3904 41.2827 45.3508 41.4698C47.3448 41.8588 48.3162 43.0105 48.3571 43.0591Z" fill="white"/>
<path d="M13.9112 48.9904C13.971 49.0178 14.0347 49.0315 14.097 49.0315C14.2604 49.0315 14.4175 48.938 14.4924 48.7795C14.4962 48.7696 15.0686 47.6122 16.6475 46.8789C17.3459 46.5546 18.1379 46.3601 19.0108 46.2952C20.7917 46.163 22.912 46.5695 25.2716 47.5074C25.4961 47.5959 25.7492 47.4861 25.839 47.2629C25.9276 47.0384 25.8178 46.7852 25.5945 46.6955C23.1762 45.7351 21.0274 45.3024 19.1716 45.3996C18.0841 45.457 17.0976 45.6965 16.2146 46.118C14.3813 46.9935 13.7291 48.3517 13.7015 48.409C13.5993 48.6274 13.693 48.8868 13.9112 48.9904Z" fill="#EBD9EA"/>
<path d="M13.7016 48.4089C13.5993 48.6271 13.6929 48.8866 13.9111 48.99C13.971 49.0175 14.0346 49.0312 14.097 49.0312C14.2603 49.0312 14.4175 48.9377 14.4924 48.7792C14.4961 48.7693 15.0686 47.6119 16.6474 46.8786C17.3459 46.5543 18.1378 46.3598 19.0108 46.2948C19.0769 46.0005 19.1317 45.7025 19.1717 45.3994C18.0842 45.4568 17.0977 45.6963 16.2147 46.1178C14.3813 46.9934 13.729 48.3516 13.7016 48.4089Z" fill="white"/>
<path d="M11.7007 43.6741C11.7518 43.7156 11.8099 43.7449 11.8703 43.7605C12.0285 43.8014 12.204 43.7502 12.3161 43.6156C12.3222 43.6069 13.166 42.6295 14.8783 42.3147C15.6356 42.1754 16.451 42.1853 17.3125 42.3409C19.0698 42.6586 21.0209 43.5827 23.0707 45.0812C23.266 45.2231 23.5385 45.1802 23.6813 44.9865C23.8232 44.7913 23.7803 44.5187 23.5866 44.376C21.4855 42.8411 19.5134 41.8843 17.6923 41.5143C16.6249 41.2977 15.61 41.2827 14.6496 41.4698C12.6556 41.8588 11.6842 43.0105 11.6433 43.0591C11.4897 43.2448 11.5153 43.5193 11.7007 43.6741Z" fill="#EBD9EA"/>
<path d="M11.6433 43.0591C11.4897 43.2449 11.5153 43.5195 11.7007 43.6743C11.7518 43.7157 11.8099 43.745 11.8703 43.7606C12.0285 43.8015 12.204 43.7503 12.3161 43.6157C12.3222 43.607 13.166 42.6297 14.8783 42.3148C15.6356 42.1756 16.451 42.1854 17.3125 42.341C17.4502 42.0725 17.5778 41.7977 17.6923 41.5143C16.6249 41.2977 15.61 41.2827 14.6496 41.4698C12.6556 41.8588 11.6842 43.0105 11.6433 43.0591Z" fill="white"/>
<path d="M28.2634 46.4714C28.2634 47.339 28.8792 48.1121 29.7376 48.238C30.8136 48.3957 31.7375 47.5659 31.7375 46.5202V46.4714C31.7375 45.6951 32.3668 45.0659 33.1429 45.0659H33.6343C34.5937 45.0659 35.3714 44.2882 35.3714 43.3289C35.3714 42.3695 34.5936 41.5918 33.6343 41.5918H26.3665C25.4071 41.5918 24.6294 42.3696 24.6294 43.3289C24.6294 44.2883 25.4072 45.0659 26.3665 45.0659H26.8578C27.6342 45.0659 28.2635 45.6951 28.2634 46.4714Z" fill="#C0405C"/>
<path d="M32.8097 43.9712H28.7143C28.0573 43.9712 27.5247 43.4386 27.5247 42.7815C27.5247 42.1244 28.0573 41.5918 28.7143 41.5918H32.8097C33.4668 41.5918 33.9994 42.1244 33.9994 42.7815C33.9994 43.4386 33.4667 43.9712 32.8097 43.9712Z" fill="#E9465E"/>
<path d="M33.6345 37.5919V41.5915H30.0002V33.9575C32.007 33.9575 33.6345 35.5851 33.6345 37.5919Z" fill="#F39E22"/>
<path d="M26.3662 37.5919V41.5915H30.0004V33.9575C27.9938 33.9575 26.3662 35.5851 26.3662 37.5919Z" fill="#EA792E"/>
<path d="M43.2288 31.3043C42.9291 29.604 39.5136 28.785 37.8133 29.0847C36.1131 29.3845 34.9776 31.006 35.2775 32.7063C35.5773 34.4066 37.1988 35.542 38.8991 35.2421C40.5994 34.9424 43.5286 33.0046 43.2288 31.3043Z" fill="#53B976"/>
<path d="M39.6692 30.5289L40.149 33.2505C40.2053 33.5699 40.1263 33.8826 39.9545 34.1296C39.3724 34.9781 38.0059 34.6871 37.8326 33.6589L37.3527 30.9372C37.1392 29.3978 39.3355 28.9981 39.6692 30.5289Z" fill="#3E4E60"/>
<path d="M39.6691 30.5289L40.149 33.2505C40.2058 33.5766 40.1241 33.8968 39.9421 34.1456C39.3992 34.1262 38.9255 33.7309 38.8274 33.1746L38.3476 30.4529C38.2899 30.1262 38.374 29.8062 38.5557 29.5576C39.0973 29.5773 39.571 29.9725 39.6691 30.5289Z" fill="#2E3140"/>
<path d="M41.3123 30.8442C41.2054 30.2379 40.6272 29.8331 40.0209 29.94C38.5751 30.2529 38.943 32.3362 40.4081 32.1356C41.0143 32.0286 41.4192 31.4505 41.3123 30.8442Z" fill="white"/>
<path d="M16.7713 31.3043C17.0711 29.604 20.4865 28.785 22.1868 29.0847C23.8871 29.3845 25.0225 31.006 24.7226 32.7063C24.4229 34.4066 22.8013 35.542 21.1011 35.2421C19.4008 34.9422 16.4716 33.0046 16.7713 31.3043Z" fill="#53B976"/>
<path d="M22.6473 30.9373L22.1674 33.659C22.1112 33.9784 21.9298 34.2453 21.684 34.4185C20.8469 35.0168 19.6623 34.276 19.8511 33.2506L20.331 30.5289C20.6568 29.0093 22.8573 29.3848 22.6473 30.9373Z" fill="#3E4E60"/>
<path d="M22.6474 30.9371L22.1675 33.6587C22.1094 33.9845 21.9232 34.2576 21.667 34.4291C21.1634 34.2251 20.8536 33.6918 20.9517 33.1354L21.4316 30.4137C21.4892 30.087 21.6776 29.815 21.9334 29.6436C22.4356 29.8473 22.7456 30.3808 22.6474 30.9371Z" fill="#2E3140"/>
<path d="M21.7752 31.3886C21.882 30.7823 22.4603 30.3775 23.0666 30.4844C24.5123 30.7973 24.1445 32.8806 22.6794 32.68C22.0731 32.5731 21.6683 31.9949 21.7752 31.3886Z" fill="white"/>
<path d="M36.8923 22.6812H35.6053C34.5339 22.6812 33.6653 23.5497 33.6653 24.6212V26.3464C33.6653 27.4179 34.5339 28.2865 35.6053 28.2865H36.8923C37.9637 28.2865 38.8323 27.4179 38.8323 26.3464V24.6212C38.8323 23.5497 37.9637 22.6812 36.8923 22.6812Z" fill="#EA792E"/>
<path d="M24.3947 22.6812H23.1078C22.0363 22.6812 21.1677 23.5497 21.1677 24.6212V26.3464C21.1677 27.4179 22.0363 28.2865 23.1078 28.2865H24.3947C25.4662 28.2865 26.3348 27.4179 26.3348 26.3464V24.6212C26.3349 23.5497 25.4663 22.6812 24.3947 22.6812Z" fill="#DD5E26"/>
<path d="M32.7324 18.6507V23.4813C32.7324 24.9902 31.5092 26.2134 30.0002 26.2134V15.9185C31.5088 15.9185 32.7324 17.142 32.7324 18.6507Z" fill="#F9C744"/>
<path d="M27.2683 18.6507V23.4813C27.2683 24.9902 28.4915 26.2134 30.0004 26.2134V15.9185C28.4919 15.9185 27.2683 17.142 27.2683 18.6507Z" fill="#F39E22"/>
<path d="M50.4047 20.2217L48.7732 21.8532C47.6691 21.1459 46.5941 20.286 45.5905 19.2824C43.243 16.9349 41.6846 14.2019 41.0127 11.5898L41.9563 10.6462C43.9 8.70249 47.1347 9.01995 48.6639 11.3041L50.9445 14.7134C52.1023 16.4428 51.8766 18.7498 50.4047 20.2217Z" fill="#3E4E60"/>
<path d="M43.0114 22.216L39.398 18.6025C38.8514 18.0559 38.8514 17.1698 39.398 16.6233L41.6709 14.3504C42.8771 13.1441 44.8849 13.3413 45.8337 14.759L47.2492 16.8745C47.9675 17.948 47.827 19.3796 46.9137 20.2931L44.9906 22.2161C44.4442 22.7625 43.558 22.7625 43.0114 22.216Z" fill="#EA792E"/>
<path d="M9.59521 20.2217L11.2267 21.8532C12.3308 21.1459 13.4058 20.286 14.4094 19.2824C16.7569 16.9349 18.3153 14.2019 18.9872 11.5898L18.0436 10.6462C16.0999 8.70249 12.8652 9.01995 11.336 11.3041L9.05545 14.7134C7.89763 16.4428 8.12334 18.7498 9.59521 20.2217Z" fill="#2E3140"/>
<path d="M16.9887 22.216L20.6022 18.6025C21.1487 18.0559 21.1487 17.1698 20.6022 16.6233L18.3292 14.3504C17.123 13.1441 15.1152 13.3413 14.1665 14.759L12.7508 16.8745C12.0325 17.948 12.173 19.3796 13.0863 20.2931L15.0094 22.2161C15.5559 22.7625 16.4421 22.7625 16.9887 22.216Z" fill="#DD5E26"/>
</g>
<defs>
<clipPath id="clip0_1123_23433">
<rect width="60" height="60" fill="white"/>
</clipPath>
</defs>
</svg>
