<svg width="60" height="60" viewBox="0 0 60 60" fill="none" xmlns="http://www.w3.org/2000/svg">
<g clip-path="url(#clip0_1123_26449)">
<path d="M30 60C46.5685 60 60 46.5685 60 30C60 13.4315 46.5685 0 30 0C13.4315 0 0 13.4315 0 30C0 46.5685 13.4315 60 30 60Z" fill="#22BCE0"/>
<path d="M48.4862 27.7427V40.2064C48.4862 46.9751 42.9997 52.4603 36.2323 52.4603H23.7674C16.9999 52.4603 11.5134 46.9751 11.5134 40.2064V27.7427C11.5134 20.9753 16.9999 15.4888 23.7674 15.4888H36.2323C42.9998 15.4888 48.4862 20.9753 48.4862 27.7427Z" fill="#C17E62"/>
<path d="M48.4862 27.7427V40.2064C48.4862 46.9751 42.9997 52.4603 36.2323 52.4603H29.9998V15.4888H36.2323C42.9998 15.4888 48.4862 20.9753 48.4862 27.7427Z" fill="#D48D77"/>
<path d="M48.1172 24.7134L39.3071 15.9033L43.5028 11.7076C45.3024 9.908 48.2202 9.908 50.0198 11.7076L52.3128 14.0007C54.1125 15.8003 54.1125 18.718 52.3128 20.5177L48.1172 24.7134Z" fill="#D48D77"/>
<path d="M45.1401 21.7361L42.2842 18.8801C41.5124 18.1083 41.5124 16.857 42.2842 16.085L43.7975 14.5717C44.8827 13.4865 46.6419 13.4865 47.7271 14.5717L49.4484 16.293C50.5336 17.3782 50.5336 19.1374 49.4484 20.2226L47.9351 21.7359C47.1634 22.508 45.9119 22.508 45.1401 21.7361Z" fill="#C17E62"/>
<path d="M52.2271 15.6311L48.3894 11.7933C47.9143 11.3182 47.1441 11.3182 46.6691 11.7933C46.194 12.2684 46.194 13.0386 46.6691 13.5136L50.5068 17.3514C50.9819 17.8265 51.7521 17.8265 52.2271 17.3514C52.7022 16.8763 52.7022 16.1062 52.2271 15.6311Z" fill="#EEA47D"/>
<path d="M20.7009 15.9033L11.8909 24.7134L7.6952 20.5177C5.89555 18.718 5.89555 15.8003 7.6952 14.0007L9.9882 11.7076C11.7879 9.908 14.7056 9.908 16.5052 11.7076L20.7009 15.9033Z" fill="#C17E62"/>
<path d="M17.7238 18.8804L14.8679 21.7364C14.0961 22.5082 12.8447 22.5082 12.0728 21.7364L10.5595 20.2231C9.47432 19.1379 9.47432 17.3787 10.5595 16.2935L12.2808 14.5722C13.366 13.487 15.1252 13.487 16.2104 14.5722L17.7237 16.0855C18.4956 16.8572 18.4956 18.1087 17.7238 18.8804Z" fill="#A26D5A"/>
<path d="M11.6189 11.7933L7.78111 15.6311C7.30604 16.1062 7.30604 16.8763 7.78111 17.3514C8.25619 17.8265 9.02635 17.8265 9.50143 17.3514L13.3392 13.5136C13.8143 13.0386 13.8143 12.2684 13.3392 11.7933C12.8641 11.3182 12.0938 11.3182 11.6189 11.7933Z" fill="#D48D77"/>
<path d="M41.6649 33.9137C40.5069 35.0716 38.6261 35.0716 37.4681 33.9137C36.3087 32.7542 36.3102 30.8749 37.4681 29.717C37.7821 29.403 38.1486 29.1738 38.5399 29.0307C39.5927 28.6438 40.8194 28.8716 41.6649 29.717C42.5088 30.561 42.7382 31.7891 42.3511 32.8419C42.2081 33.2332 41.9788 33.5998 41.6649 33.9137Z" fill="#C17E62"/>
<path d="M41.6382 31.8153C41.6382 32.7074 41.0724 33.4694 40.2807 33.7614C40.0571 33.8412 39.8175 33.8869 39.5665 33.8869C38.4212 33.8869 37.4949 32.9583 37.4949 31.8153C37.4949 30.6699 38.4212 29.7437 39.5665 29.7437C39.8175 29.7437 40.0571 29.7892 40.2807 29.8692C41.0724 30.1611 41.6382 30.9209 41.6382 31.8153Z" fill="#DD5E26"/>
<path d="M40.9276 31.8151C40.9276 32.4013 40.5559 32.9019 40.0357 33.0939C39.8887 33.1464 39.7313 33.1764 39.5665 33.1764C38.8139 33.1764 38.2053 32.5663 38.2053 31.8152C38.2053 31.0627 38.814 30.4541 39.5665 30.4541C39.7313 30.4541 39.8887 30.4841 40.0357 30.5366C40.5559 30.7282 40.9276 31.2274 40.9276 31.8151Z" fill="#2E3140"/>
<path d="M40.9276 31.1623C40.9276 31.4672 40.7342 31.7277 40.4635 31.8275C40.3871 31.8548 40.3052 31.8704 40.2194 31.8704C39.8279 31.8704 39.5112 31.553 39.5112 31.1623C39.5112 30.7707 39.8279 30.4541 40.2194 30.4541C40.3052 30.4541 40.3871 30.4697 40.4635 30.497C40.7342 30.5968 40.9276 30.8566 40.9276 31.1623Z" fill="white"/>
<path d="M18.3349 33.9137C19.4928 35.0716 21.3737 35.0716 22.5316 33.9137C23.6911 32.7542 23.6896 30.8749 22.5316 29.717C22.2177 29.403 21.8511 29.1738 21.4598 29.0307C20.407 28.6438 19.1804 28.8716 18.3349 29.717C17.4909 30.561 17.2616 31.7891 17.6487 32.8419C17.7916 33.2332 18.021 33.5998 18.3349 33.9137Z" fill="#A26D5A"/>
<path d="M22.5053 31.8153C22.5053 32.7074 21.9396 33.4694 21.1478 33.7614C20.9242 33.8412 20.6847 33.8869 20.4337 33.8869C19.2884 33.8869 18.3621 32.9583 18.3621 31.8153C18.3621 30.6699 19.2884 29.7437 20.4337 29.7437C20.6847 29.7437 20.9242 29.7892 21.1478 29.8692C21.9396 30.1611 22.5053 30.9209 22.5053 31.8153Z" fill="#DD5E26"/>
<path d="M21.7948 31.8151C21.7948 32.4013 21.4231 32.9019 20.9029 33.0939C20.7559 33.1464 20.5985 33.1764 20.4336 33.1764C19.6812 33.1764 19.0725 32.5663 19.0725 31.8152C19.0725 31.0627 19.6812 30.4541 20.4336 30.4541C20.5985 30.4541 20.7559 30.4841 20.9029 30.5366C21.4229 30.7282 21.7948 31.2274 21.7948 31.8151Z" fill="#2E3140"/>
<path d="M21.795 31.1623C21.795 31.4672 21.6016 31.7277 21.3309 31.8275C21.2545 31.8548 21.1726 31.8704 21.0868 31.8704C20.6953 31.8704 20.3787 31.553 20.3787 31.1623C20.3787 30.7707 20.6953 30.4541 21.0868 30.4541C21.1726 30.4541 21.2545 30.4697 21.3309 30.497C21.6015 30.5968 21.795 30.8566 21.795 31.1623Z" fill="white"/>
<path d="M37.5642 45.2865C37.5642 47.2999 36.2608 49.1258 34.2897 49.7464C32.8945 50.187 31.4472 50.4067 29.9998 50.4067C28.5524 50.4067 27.1052 50.187 25.7099 49.7464C23.5154 49.055 22.1487 46.8715 22.4864 44.5963L23.8468 35.4308C24.1546 33.3529 25.9383 31.8149 28.0386 31.8149H31.961C34.0612 31.8149 35.8449 33.3529 36.1528 35.4308L37.5132 44.5963C37.548 44.8272 37.5642 45.0581 37.5642 45.2865Z" fill="#D48D77"/>
<path d="M37.5641 45.2865C37.5641 47.2999 36.2607 49.1258 34.2896 49.7464C32.8944 50.187 31.4471 50.4067 29.9998 50.4067V31.8149H31.961C34.0612 31.8149 35.845 33.3529 36.1528 35.4308L37.5132 44.5963C37.5479 44.8272 37.5641 45.0581 37.5641 45.2865Z" fill="#EEA47D"/>
<path d="M31.7862 33.1763H29.9998V40.0756H31.7862C33.0643 40.0756 34.1005 39.0394 34.1005 37.7612V35.4905C34.1005 34.2124 33.0643 33.1763 31.7862 33.1763Z" fill="#F5B890"/>
<path d="M28.2133 40.0756H29.9997V33.1763H28.2133C26.9351 33.1763 25.8989 34.2124 25.8989 35.4906V37.7613C25.8989 39.0394 26.9351 40.0756 28.2133 40.0756Z" fill="#EEA47D"/>
<path d="M33.7822 42.9028V43.8224C33.7822 45.3837 32.7246 46.6511 31.4201 46.6511H28.5799C27.2754 46.6511 26.2178 45.3838 26.2178 43.8224V42.9028C26.2178 41.3414 27.2754 40.0757 28.5799 40.0757H31.42C32.7246 40.0757 33.7822 41.3414 33.7822 42.9028Z" fill="#2E3140"/>
<path d="M33.7822 42.9028V43.8224C33.7822 45.3837 32.7246 46.6511 31.4201 46.6511H30V40.0757H31.4201C32.7246 40.0757 33.7822 41.3414 33.7822 42.9028Z" fill="#334353"/>
<path d="M31.0227 43.7519L30.7081 44.0665C30.414 44.3605 30.414 44.8374 30.7081 45.1314L31.3806 45.8039C31.6746 46.0979 32.1515 46.0979 32.4455 45.8039L32.7601 45.4893C33.0542 45.1953 33.0542 44.7184 32.7601 44.4244L32.0876 43.7519C31.7936 43.4577 31.3169 43.4577 31.0227 43.7519Z" fill="#2E3140"/>
<path d="M29.2921 44.0664L28.9775 43.7518C28.6834 43.4577 28.2066 43.4577 27.9126 43.7518L27.24 44.4243C26.946 44.7183 26.946 45.1952 27.24 45.4892L27.5547 45.8038C27.8487 46.0979 28.3256 46.0979 28.6196 45.8038L29.2921 45.1313C29.5861 44.8373 29.5861 44.3604 29.2921 44.0664Z" fill="#151516"/>
<path d="M30 41.1108H31.6165C32.1336 41.1108 32.5529 41.5301 32.5529 42.0473C32.5529 42.5644 32.1336 42.9837 31.6165 42.9837H30V41.1108Z" fill="#3F5D77"/>
<path d="M30 42.9837H28.3835C27.8663 42.9837 27.447 42.5644 27.447 42.0473C27.447 41.5301 27.8663 41.1108 28.3835 41.1108H30V42.9837Z" fill="#334353"/>
<path d="M36.0278 48.3721C35.898 48.0549 35.5356 47.9029 35.2183 48.0329C34.7756 48.2141 34.1712 48.4266 34.0122 48.4419C33.525 48.4843 32.6582 48.3413 31.8934 48.2152C31.4426 48.1408 31.008 48.0693 30.6206 48.0266V46.3198C30.6206 45.9771 30.3427 45.6992 29.9999 45.6992C29.6572 45.6992 29.3793 45.9771 29.3793 46.3198V48.0266C28.9919 48.0692 28.5572 48.1408 28.1064 48.2152C27.3418 48.3413 26.475 48.4845 25.9878 48.4419C25.8442 48.4282 25.2806 48.237 24.7816 48.0329C24.4648 47.9033 24.1021 48.055 23.9722 48.3723C23.8424 48.6895 23.9942 49.0518 24.3114 49.1817C24.5736 49.289 25.4616 49.642 25.8798 49.6784C26.5232 49.7343 27.4306 49.5847 28.3084 49.4398C28.9402 49.3357 29.5935 49.2279 30 49.2279C30.4064 49.2279 31.0598 49.3357 31.6916 49.4398C32.4404 49.5634 33.2107 49.6905 33.8201 49.6905C33.9252 49.6905 34.0257 49.6866 34.1202 49.6784C34.5385 49.642 35.4265 49.289 35.6888 49.1817C36.0058 49.0518 36.1577 48.6894 36.0278 48.3721Z" fill="#151516"/>
<path d="M39.5085 38.1407V45.0427C39.5085 46.2591 40.9792 46.8684 41.8394 46.0082L43.8448 44.0028C45.1751 42.6725 45.9225 40.8682 45.9225 38.987V36.7548C45.9225 35.8008 44.9691 35.1409 44.0762 35.4769L40.3931 36.8628C39.8609 37.0629 39.5085 37.5721 39.5085 38.1407Z" fill="#EEA47D"/>
<path d="M20.4911 38.1407V45.0427C20.4911 46.2591 19.0204 46.8684 18.1602 46.0082L16.1548 44.0028C14.8245 42.6725 14.0771 40.8682 14.0771 38.987V36.7548C14.0771 35.8008 15.0306 35.1409 15.9234 35.4769L19.6065 36.8628C20.1387 37.0629 20.4911 37.5721 20.4911 38.1407Z" fill="#D48D77"/>
<path d="M36.115 26.9379H29.9998V17.0957H35.058C36.5274 17.0957 37.8463 17.9971 38.3801 19.3661L39.4371 22.0769C40.3486 24.4148 38.6243 26.9379 36.115 26.9379Z" fill="#EEA47D"/>
<path d="M23.8845 26.9379H29.9997V17.0957H24.9415C23.472 17.0957 22.1532 17.9971 21.6194 19.3661L20.5624 22.0769C19.6509 24.4148 21.3752 26.9379 23.8845 26.9379Z" fill="#D48D77"/>
</g>
<defs>
<clipPath id="clip0_1123_26449">
<rect width="60" height="60" fill="white"/>
</clipPath>
</defs>
</svg>
