<svg width="60" height="60" viewBox="0 0 60 60" fill="none" xmlns="http://www.w3.org/2000/svg">
<g clip-path="url(#clip0_1123_23756)">
<path d="M30 60C46.5685 60 60 46.5685 60 30C60 13.4315 46.5685 0 30 0C13.4315 0 0 13.4315 0 30C0 46.5685 13.4315 60 30 60Z" fill="#22BCE0"/>
<path d="M54.4304 14.78L54.6357 15.7603C55.2901 18.885 53.2871 21.949 50.1624 22.6033L41.0314 24.5154C39.3906 24.859 37.7825 23.8078 37.439 22.1679C37.2893 21.4528 37.4051 20.7361 37.7258 20.1283C38.0475 19.5202 38.5753 19.0206 39.2489 18.7411L45.4669 16.1692L51.9697 13.4795C53.0165 13.0466 54.1984 13.6718 54.4304 14.78Z" fill="#F39E22"/>
<path d="M54.4304 14.78L54.6357 15.7603C55.29 18.885 53.2871 21.949 50.1624 22.6033L49.8872 22.6609C47.7368 21.4076 46.1045 19.283 45.5542 16.655C45.5204 16.493 45.4905 16.3313 45.4668 16.1692L51.9697 13.4795C53.0165 13.0466 54.1983 13.6718 54.4304 14.78Z" fill="#DD5E26"/>
<path d="M52.7472 18.9608H52.2116C51.7694 18.9608 51.3892 18.6474 51.3051 18.2132L50.8479 15.8557C50.747 15.3357 51.1036 14.8375 51.6284 14.7652L52.6211 14.6284C53.176 14.552 53.6706 14.9832 53.6706 15.5432V18.0375C53.6706 18.5474 53.2572 18.9608 52.7472 18.9608Z" fill="#EA792E"/>
<path d="M49.1496 21.2139L41.6015 23.552L41.2734 23.6533C41.2076 23.6742 41.1418 23.691 41.0755 23.7049C40.0033 23.9295 38.9162 23.3038 38.5857 22.2365C38.2353 21.1031 38.8694 19.9001 40.0025 19.5488L47.6271 17.1873L47.8775 17.1094C47.9434 17.0884 48.0091 17.0717 48.0754 17.0577C49.1476 16.8332 50.2346 17.4579 50.5652 18.5262C50.9167 19.6595 50.2827 20.8624 49.1496 21.2139Z" fill="#FBCB74"/>
<path d="M49.1494 21.2138L41.6013 23.5519C42.4069 20.8679 44.6132 18.4976 47.6269 17.1873L47.8773 17.1094C47.9432 17.0884 48.0089 17.0717 48.0752 17.0577C49.1474 16.8332 50.2344 17.4579 50.565 18.5262C50.9164 19.6594 50.2825 20.8623 49.1494 21.2138Z" fill="#FBD9A3"/>
<path d="M5.56943 14.7799L5.36412 15.7603C4.70975 18.885 6.71272 21.949 9.8374 22.6032L18.9684 24.5154C20.6093 24.859 22.2173 23.8078 22.5608 22.1679C22.7106 21.4528 22.5948 20.7361 22.274 20.1282C21.9524 19.5201 21.4246 19.0206 20.751 18.7411L14.533 16.1692L8.03014 13.4796C6.9833 13.0466 5.80147 13.6718 5.56943 14.7799Z" fill="#EA792E"/>
<path d="M5.56943 14.7799L5.36412 15.7603C4.70975 18.885 6.71271 21.949 9.8374 22.6032L10.1126 22.6609C12.2629 21.4076 13.8953 19.2829 14.4456 16.6549C14.4794 16.4929 14.5093 16.3312 14.533 16.1692L8.03014 13.4796C6.9833 13.0466 5.80147 13.6718 5.56943 14.7799Z" fill="#BF5E39"/>
<path d="M7.25278 18.9608H7.78833C8.2306 18.9608 8.61075 18.6474 8.69489 18.2132L9.15204 15.8557C9.25294 15.3357 8.89634 14.8375 8.37157 14.7652L7.37888 14.6284C6.82399 14.552 6.32935 14.9832 6.32935 15.5432V18.0375C6.32935 18.5474 6.74278 18.9608 7.25278 18.9608Z" fill="#DD5E26"/>
<path d="M10.8505 21.2139L18.3985 23.552L18.7267 23.6533C18.7925 23.6742 18.8583 23.691 18.9246 23.7049C19.9967 23.9295 21.0839 23.3038 21.4143 22.2365C21.7647 21.1031 21.1306 19.9001 19.9975 19.5488L12.373 17.1873L12.1225 17.1094C12.0567 17.0884 11.9909 17.0717 11.9246 17.0577C10.8525 16.8332 9.76544 17.4579 9.43485 18.5262C9.08341 19.6595 9.71739 20.8624 10.8505 21.2139Z" fill="#F9C744"/>
<path d="M10.8505 21.2138L18.3985 23.5519C17.593 20.8679 15.3867 18.4976 12.373 17.1873L12.1225 17.1094C12.0567 17.0884 11.9909 17.0717 11.9246 17.0577C10.8525 16.8332 9.76544 17.4579 9.43485 18.5262C9.08341 19.6594 9.71739 20.8623 10.8505 21.2138Z" fill="#FBCB74"/>
<path d="M41.9337 28.0367L40.2849 39.5206C39.9174 42.0786 38.6384 44.3076 36.8058 45.8973C34.972 47.4857 32.5846 48.4358 30 48.4358C25.8187 48.4358 22.1499 45.948 20.5143 42.2877C20.1286 41.4246 19.8555 40.4961 19.7152 39.5206L19.6693 39.2004L19.4384 37.5962L18.996 34.5087L18.0665 28.0366C17.6156 24.8925 18.2793 21.689 19.9427 18.9825L22.538 14.7624C23.0808 13.8788 24.0442 13.3408 25.0802 13.3408H34.9201C35.956 13.3408 36.9195 13.8787 37.4622 14.7624L40.0576 18.9825C41.7209 21.6891 42.3845 24.8926 41.9337 28.0367Z" fill="#F39E22"/>
<path d="M41.9337 28.0366L41.0041 34.5087L40.5618 37.5962L40.3309 39.2004L40.285 39.5206C40.1447 40.4962 39.8715 41.4246 39.4859 42.2877C38.8609 43.6863 37.9385 44.9144 36.8059 45.8973C35.8303 46.7422 34.6977 47.4071 33.4623 47.8447C32.3755 48.2279 31.209 48.4358 30.0002 48.4358V13.3408H34.9202C35.9562 13.3408 36.9197 13.8787 37.4624 14.7624L40.0577 18.9825C40.9149 20.3763 41.5059 21.903 41.8166 23.4854C42.1089 24.9734 42.1525 26.5123 41.9337 28.0366Z" fill="#F9C744"/>
<path d="M35.2059 1.82373C36.6615 1.82373 37.7503 3.1599 37.4564 4.58549L36.8735 7.41264C36.8251 7.64736 36.8137 7.8883 36.8398 8.12666L37.7469 16.4138C37.8957 17.7737 36.8307 18.9616 35.4628 18.9616H34.9491C33.5812 18.9616 32.5162 17.7737 32.665 16.4138L33.5721 8.12666C33.5982 7.88842 33.5868 7.64748 33.5384 7.41264L32.9555 4.58549C32.6616 3.1599 33.7504 1.82373 35.2059 1.82373Z" fill="#DD5E26"/>
<path d="M36.695 4.35629C36.695 3.53387 36.0283 2.86719 35.2059 2.86719C34.3835 2.86719 33.7168 3.53387 33.7168 4.35629C33.7168 5.17871 34.3835 7.12168 35.2059 7.12168C36.0283 7.1218 36.695 5.17871 36.695 4.35629Z" fill="#EA792E"/>
<path d="M35.2058 9.45361C34.8438 9.45361 34.5428 9.73217 34.5147 10.093L34.0565 15.9876C34.0045 16.6574 34.5339 17.2296 35.2057 17.2296C35.8775 17.2296 36.4069 16.6574 36.3548 15.9876L35.8966 10.093C35.8688 9.73217 35.5678 9.45361 35.2058 9.45361Z" fill="#EA792E"/>
<path d="M24.7939 1.82373C26.2495 1.82373 27.3383 3.1599 27.0442 4.58549L26.4614 7.41264C26.413 7.64736 26.4016 7.8883 26.4277 8.12666L27.3348 16.4138C27.4836 17.7737 26.4186 18.9616 25.0507 18.9616H24.537C23.1691 18.9616 22.1041 17.7737 22.2529 16.4138L23.1599 8.12666C23.1861 7.88842 23.1747 7.64748 23.1263 7.41264L22.5434 4.58549C22.2495 3.1599 23.3383 1.82373 24.7939 1.82373Z" fill="#BF5E39"/>
<path d="M26.2829 4.35629C26.2829 3.53387 25.6162 2.86719 24.7938 2.86719C23.9714 2.86719 23.3047 3.53387 23.3047 4.35629C23.3047 5.17871 23.9714 7.12168 24.7938 7.12168C25.6162 7.1218 26.2829 5.17871 26.2829 4.35629Z" fill="#DD5E26"/>
<path d="M24.7939 9.45361C24.4319 9.45361 24.131 9.73217 24.1028 10.093L23.6446 15.9876C23.5926 16.6574 24.1221 17.2296 24.7938 17.2296C25.4656 17.2296 25.9951 16.6574 25.9429 15.9876L25.4847 10.093C25.4568 9.73217 25.1558 9.45361 24.7939 9.45361Z" fill="#DD5E26"/>
<path d="M41.9338 28.037L41.0042 34.5092L40.5619 37.5966L40.331 39.2008L40.2851 39.5211C40.1448 40.4967 39.8716 41.425 39.486 42.2881C38.861 43.6867 37.9386 44.9149 36.806 45.8977C35.8304 46.7426 34.6978 47.4076 33.4624 47.8451V32.2536C33.4624 24.748 41.8167 23.4858 41.8167 23.4858C42.109 24.9739 42.1526 26.5128 41.9338 28.037Z" fill="#FBD9A3"/>
<path d="M41.0042 34.5093L40.5619 37.5967H37.4999C37.1226 37.5967 36.8169 37.2897 36.8169 36.9126V35.1924C36.8169 34.8153 37.1228 34.5094 37.4999 34.5094H41.0042V34.5093Z" fill="#DD5E26"/>
<path d="M40.3308 39.2007L40.2849 39.521C40.1446 40.4965 39.8714 41.4249 39.4858 42.288H36.3998C36.0227 42.288 35.7168 41.9821 35.7168 41.605V39.8848C35.7168 39.5077 36.0227 39.2007 36.3998 39.2007H40.3308Z" fill="#DD5E26"/>
<path d="M18.0661 28.037L18.9956 34.5092L19.438 37.5966L19.6689 39.2008L19.7148 39.5211C19.8551 40.4967 20.1282 41.425 20.5139 42.2881C21.1389 43.6867 22.0613 44.9149 23.1939 45.8977C24.1695 46.7426 25.3021 47.4076 26.5375 47.8451V32.2536C26.5375 24.748 18.1832 23.4858 18.1832 23.4858C17.8908 24.9739 17.8473 26.5128 18.0661 28.037Z" fill="#FBCB74"/>
<path d="M23.1832 35.1924V36.9126C23.1832 37.2897 22.8773 37.5967 22.5002 37.5967H19.4382L18.9958 34.5093H22.5002C22.8775 34.5094 23.1832 34.8153 23.1832 35.1924Z" fill="#BF5E39"/>
<path d="M24.2833 39.8848V41.605C24.2833 41.9822 23.9775 42.288 23.6004 42.288H20.5142C20.1286 41.4249 19.8554 40.4964 19.7151 39.521L19.6692 39.2007H23.6004C23.9776 39.2006 24.2833 39.5077 24.2833 39.8848Z" fill="#BF5E39"/>
<path d="M37.7607 50.0098V51.8388C37.7607 55.0204 35.1823 57.5976 32.0018 57.5976H27.9981C24.8176 57.5976 22.2393 55.0204 22.2393 51.8388V50.0098C22.2393 48.2558 23.0238 46.6867 24.2592 45.6302C25.3012 44.7417 25.9589 43.4869 26.0302 42.1197L26.5416 32.1843C26.6371 30.3433 28.1565 28.8987 30 28.8999C30.0448 28.8999 30.0871 28.9011 30.1317 28.9024C31.9354 28.9688 33.369 30.4509 33.4621 32.2532L33.9698 42.1197C34.0411 43.4869 34.6988 44.7417 35.7408 45.6302C36.9762 46.6867 37.7607 48.2558 37.7607 50.0098Z" fill="#EA792E"/>
<path d="M37.7607 50.0098V51.8388C37.7607 55.0204 35.1823 57.5976 32.0018 57.5976H30V28.8999C30.0448 28.8999 30.0871 28.9011 30.1317 28.9024C31.9354 28.9688 33.369 30.4509 33.4621 32.2532L33.9698 42.1197C34.0411 43.4869 34.6988 44.7417 35.7408 45.6302C36.9762 46.6867 37.7607 48.2558 37.7607 50.0098Z" fill="#F39E22"/>
<path d="M33.341 52.8027C32.6396 52.8027 32.071 52.2341 32.071 51.5327V48.6801C32.071 47.9787 32.6396 47.4102 33.341 47.4102H33.9165C34.7188 47.4102 35.3201 48.1448 35.1614 48.9312L34.5859 51.7838C34.4664 52.3764 33.9456 52.8027 33.341 52.8027Z" fill="#3E4E60"/>
<path d="M26.6591 52.8027C27.3605 52.8027 27.9291 52.2341 27.9291 51.5327V48.6801C27.9291 47.9787 27.3605 47.4102 26.6591 47.4102H26.0836C25.2814 47.4102 24.6801 48.1448 24.8388 48.9312L25.4143 51.7838C25.5338 52.3764 26.0546 52.8027 26.6591 52.8027Z" fill="#2E3140"/>
<path d="M34.3729 55.8311H25.627C23.4257 55.8311 21.6348 54.0402 21.6348 51.8388C21.6348 51.5051 21.9054 51.2344 22.2392 51.2344C22.5731 51.2344 22.8437 51.505 22.8437 51.8388C22.8437 53.3735 24.0923 54.6221 25.6271 54.6221H34.373C35.9078 54.6221 37.1565 53.3735 37.1565 51.8388C37.1565 51.5051 37.4271 51.2344 37.7609 51.2344C38.0948 51.2344 38.3654 51.505 38.3654 51.8388C38.3652 54.0401 36.5742 55.8311 34.3729 55.8311Z" fill="#BF5E39"/>
<path d="M41.8702 29.7806C42.178 30.9289 41.5054 32.1079 40.3643 32.4292C40.355 32.4335 40.3453 32.436 40.3357 32.4386L38.8773 32.8294C38.2991 32.9844 37.7114 32.8909 37.2302 32.613C36.7474 32.3356 36.373 31.8751 36.2176 31.2952C35.929 30.2179 36.5033 29.112 37.5166 28.7141C37.5931 28.6831 37.6726 28.6566 37.7533 28.6351L39.2117 28.2442C39.7916 28.0889 40.378 28.1845 40.8593 28.4623C41.3406 28.7402 41.7149 29.2007 41.8702 29.7806Z" fill="#3E4E60"/>
<path d="M41.8702 29.7806C42.178 30.9289 41.5054 32.1079 40.3643 32.4292C39.1081 32.0439 38.0437 30.972 37.6546 29.5201C37.5823 29.2503 37.5361 28.9807 37.5166 28.7141C37.5931 28.6831 37.6726 28.6566 37.7533 28.6351L39.2117 28.2442C39.7916 28.0889 40.378 28.1845 40.8593 28.4623C41.3405 28.7402 41.7148 29.2007 41.8702 29.7806Z" fill="#2E3140"/>
<path d="M39.9137 29.0707L39.0362 29.3058C38.6583 29.407 38.434 29.7954 38.5353 30.1732C38.6365 30.551 39.0249 30.7753 39.4027 30.6741L40.2802 30.439C40.658 30.3377 40.8823 29.9494 40.7811 29.5716C40.6799 29.1937 40.2916 28.9694 39.9137 29.0707Z" fill="white"/>
<path d="M23.7825 31.295C23.4748 32.4433 22.3029 33.1282 21.1539 32.8358C21.1438 32.8349 21.1341 32.8322 21.1243 32.8296L19.6659 32.4388C19.0877 32.2839 18.6255 31.909 18.3477 31.4278C18.0682 30.9462 17.9742 30.3601 18.1296 29.7803C18.4182 28.703 19.4687 28.0324 20.5452 28.1945C20.627 28.206 20.709 28.2228 20.7898 28.2444L22.2482 28.6352C22.828 28.7906 23.2881 29.1665 23.5659 29.6478C23.8439 30.1291 23.9378 30.7152 23.7825 31.295Z" fill="#3E4E60"/>
<path d="M23.7825 31.2954C23.4748 32.4437 22.3029 33.1285 21.1539 32.8362C20.2587 31.8745 19.8728 30.4139 20.2618 28.9619C20.3341 28.6922 20.4288 28.4354 20.5453 28.1948C20.6271 28.2063 20.7091 28.2232 20.7899 28.2447L22.2483 28.6356C22.8281 28.791 23.2882 29.1669 23.5661 29.6482C23.8439 30.1295 23.9378 30.7155 23.7825 31.2954Z" fill="#2E3140"/>
<path d="M22.4431 29.7023L21.5656 29.4672C21.1878 29.3659 20.7993 29.5901 20.6981 29.968C20.5969 30.3459 20.8211 30.7342 21.199 30.8355L22.0765 31.0705C22.4543 31.1718 22.8428 30.9476 22.9439 30.5697C23.0451 30.1919 22.8209 29.8035 22.4431 29.7023Z" fill="white"/>
<path d="M30 39.6548H30.4727C31.4112 39.6548 32.2283 40.2956 32.452 41.2069L33.3638 44.92C33.5481 45.6707 33.1624 46.4457 32.4506 46.7472C31.8677 46.9941 31.0582 47.2071 30 47.2071V39.6548Z" fill="#F9C744"/>
<path d="M29.9999 39.6548H29.5271C28.5887 39.6548 27.7716 40.2956 27.5478 41.2069L26.6361 44.92C26.4518 45.6707 26.8375 46.4457 27.5493 46.7472C28.1321 46.9941 28.9417 47.2071 29.9999 47.2071V39.6548Z" fill="#F39E22"/>
</g>
<defs>
<clipPath id="clip0_1123_23756">
<rect width="60" height="60" fill="white"/>
</clipPath>
</defs>
</svg>
