<svg width="60" height="60" viewBox="0 0 60 60" fill="none" xmlns="http://www.w3.org/2000/svg">
<g clip-path="url(#clip0_1123_23699)">
<path d="M30 60C46.5685 60 60 46.5685 60 30C60 13.4315 46.5685 0 30 0C13.4315 0 0 13.4315 0 30C0 46.5685 13.4315 60 30 60Z" fill="#EA792E"/>
<path d="M57.879 25.8014C57.6646 26.6908 57.2099 27.5346 56.5138 28.2307L45.1841 39.5604C43.1697 41.5748 39.9037 41.5748 37.8892 39.5604L28.499 30.1701C28.1193 29.7904 27.8111 29.3674 27.5744 28.9162C26.556 26.9697 26.8642 24.51 28.499 22.8752L39.8287 11.5455C41.8431 9.53105 45.1091 9.53105 47.1236 11.5455L56.5138 20.9357C57.8333 22.2553 58.288 24.1115 57.879 25.8014Z" fill="#C2AACF"/>
<path d="M57.8792 25.8013C57.6647 26.6907 57.21 27.5345 56.5139 28.2306L45.1842 39.5603C43.1698 41.5747 39.9038 41.5747 37.8893 39.5603L28.4991 30.17C28.1194 29.7903 27.8112 29.3673 27.5745 28.9161L33.5897 22.9009C39.4959 16.9946 49.0725 16.9946 54.9799 22.9009L57.8792 25.8013Z" fill="#A583BB"/>
<path d="M2.12107 25.8014C2.33552 26.6908 2.79021 27.5346 3.4863 28.2307L14.816 39.5604C16.8304 41.5748 20.0965 41.5748 22.1109 39.5604L31.5011 30.1701C31.8808 29.7904 32.189 29.3674 32.4258 28.9162C33.4441 26.9697 33.1359 24.51 31.5011 22.8752L20.1715 11.5455C18.157 9.53105 14.891 9.53105 12.8765 11.5455L3.4863 20.9357C2.16677 22.2553 1.71208 24.1115 2.12107 25.8014Z" fill="#A583BB"/>
<path d="M2.12109 25.8013C2.33555 26.6907 2.79023 27.5345 3.48633 28.2306L14.816 39.5603C16.8305 41.5747 20.0965 41.5747 22.1109 39.5603L31.5012 30.17C31.8809 29.7903 32.1891 29.3673 32.4258 28.9161L26.4105 22.9009C20.5043 16.9946 10.9277 16.9946 5.02031 22.9009L2.12109 25.8013Z" fill="#9175A7"/>
<path d="M43.5561 16.3631C45.0408 16.3631 46.2445 15.1595 46.2445 13.6747C46.2445 12.19 45.0408 10.9863 43.5561 10.9863C42.0713 10.9863 40.8677 12.19 40.8677 13.6747C40.8677 15.1595 42.0713 16.3631 43.5561 16.3631Z" fill="#DECEE5"/>
<path d="M16.4443 16.3631C17.929 16.3631 19.1327 15.1595 19.1327 13.6747C19.1327 12.19 17.929 10.9863 16.4443 10.9863C14.9595 10.9863 13.7559 12.19 13.7559 13.6747C13.7559 15.1595 14.9595 16.3631 16.4443 16.3631Z" fill="#C2AACF"/>
<path d="M41.7996 23.6887L39.9598 37.2508C39.6633 39.4387 37.7942 41.0711 35.5864 41.0711H24.4137C22.2059 41.0711 20.3367 39.4387 20.0403 37.2508L18.2004 23.6887C17.9625 21.9402 18.3446 20.2656 19.166 18.8699C20.4645 16.6633 22.8621 15.1562 25.6524 15.1562H34.3477C37.1379 15.1562 39.5356 16.6633 40.8328 18.8687C41.6555 20.2645 42.0375 21.9391 41.7996 23.6887Z" fill="#C2AACF"/>
<path d="M41.7996 23.6887L39.9598 37.2508C39.6633 39.4387 37.7941 41.0711 35.5863 41.0711H30V15.1562H34.3477C38.9027 15.1562 42.4125 19.1746 41.7996 23.6887Z" fill="#DECEE5"/>
<path d="M38.4345 30.8395C37.4802 31.7939 35.9301 31.7939 34.9757 30.8395C34.0202 29.884 34.0214 28.3351 34.9757 27.3807C35.2345 27.122 35.5366 26.9331 35.8591 26.8151C36.7269 26.4961 37.7377 26.6839 38.4345 27.3807C39.1302 28.0763 39.3191 29.0885 39.0002 29.9561C38.8823 30.2786 38.6933 30.5808 38.4345 30.8395Z" fill="#C2AACF"/>
<path d="M38.9997 29.956C39.5546 29.401 39.3014 28.2479 38.434 27.3806C37.5667 26.5132 36.4136 26.26 35.8586 26.8149C35.3037 27.3699 35.5569 28.523 36.4243 29.3903C37.2916 30.2577 38.4447 30.5109 38.9997 29.956Z" fill="#EBD9EA"/>
<path d="M38.2505 29.1098C38.2505 29.7753 37.8284 30.3438 37.2378 30.5616C37.071 30.6212 36.8923 30.6553 36.705 30.6553C35.8506 30.6553 35.1597 29.9626 35.1597 29.1098C35.1597 28.2554 35.8507 27.5645 36.705 27.5645C36.8923 27.5645 37.071 27.5984 37.2378 27.6581C37.8284 27.8758 38.2505 28.4427 38.2505 29.1098Z" fill="#3F5D77"/>
<path d="M37.2378 30.5619C37.7971 30.5619 38.2506 29.9119 38.2506 29.11C38.2506 28.3082 37.7971 27.6582 37.2378 27.6582C36.6785 27.6582 36.2251 28.3082 36.2251 29.11C36.2251 29.9119 36.6785 30.5619 37.2378 30.5619Z" fill="#2E3140"/>
<path d="M36.7048 29.5068C37.1255 29.5068 37.4666 29.1658 37.4666 28.7451C37.4666 28.3244 37.1255 27.9834 36.7048 27.9834C36.2841 27.9834 35.9431 28.3244 35.9431 28.7451C35.9431 29.1658 36.2841 29.5068 36.7048 29.5068Z" fill="#83D5EF"/>
<path d="M24.9316 30.8395C23.9772 31.7939 22.4272 31.7939 21.4728 30.8395C20.5173 29.884 20.5184 28.3351 21.4728 27.3807C21.7316 27.122 22.0337 26.9331 22.3562 26.8151C23.2239 26.4961 24.2348 26.6839 24.9316 27.3807C25.6272 28.0763 25.8161 29.0885 25.4973 29.9561C25.3793 30.2786 25.1904 30.5808 24.9316 30.8395Z" fill="#A583BB"/>
<path d="M25.4967 29.956C26.0517 29.401 25.7985 28.2479 24.9311 27.3806C24.0637 26.5132 22.9107 26.26 22.3557 26.8149C21.8007 27.3699 22.054 28.523 22.9213 29.3903C23.7887 30.2577 24.9417 30.5109 25.4967 29.956Z" fill="#DECEE5"/>
<path d="M24.7474 29.1098C24.7474 29.7753 24.3253 30.3438 23.7348 30.5616C23.5681 30.6212 23.3894 30.6553 23.2021 30.6553C22.3477 30.6553 21.6567 29.9626 21.6567 29.1098C21.6567 28.2554 22.3478 27.5645 23.2021 27.5645C23.3894 27.5645 23.5681 27.5984 23.7348 27.6581C24.3254 27.8758 24.7474 28.4427 24.7474 29.1098Z" fill="#3F5D77"/>
<path d="M23.7349 30.5619C24.2942 30.5619 24.7476 29.9119 24.7476 29.11C24.7476 28.3082 24.2942 27.6582 23.7349 27.6582C23.1756 27.6582 22.7222 28.3082 22.7222 29.11C22.7222 29.9119 23.1756 30.5619 23.7349 30.5619Z" fill="#2E3140"/>
<path d="M23.2017 29.5068C23.6223 29.5068 23.9634 29.1658 23.9634 28.7451C23.9634 28.3244 23.6223 27.9834 23.2017 27.9834C22.781 27.9834 22.4399 28.3244 22.4399 28.7451C22.4399 29.1658 22.781 29.5068 23.2017 29.5068Z" fill="#83D5EF"/>
<path d="M44.2677 46.4658V47.6811C44.2677 51.6385 41.0591 54.8471 37.1017 54.8471H30.0001C27.1501 54.8471 24.8403 52.5373 24.8403 49.6873V39.7193C24.8406 36.8693 27.1504 34.5596 30.0001 34.5596C32.8501 34.5596 35.1599 36.8705 35.1599 39.7193V47.0986C35.1599 48.2342 36.0798 49.1541 37.2153 49.1541H38.1001C39.2356 49.1541 40.1556 48.2342 40.1556 47.0986V46.4658C40.1556 45.8975 40.3853 45.3842 40.7579 45.0127C42.0229 43.7287 44.2746 44.6385 44.2677 46.4658Z" fill="#C2AACF"/>
<path d="M42.2111 44.4104V46.3874C42.2111 48.9704 40.1171 51.0643 37.5342 51.0643H34.6768C32.0939 51.0643 30 48.9704 30 46.3874V34.5596C32.85 34.5596 35.1598 36.8705 35.1598 39.7193V47.0986C35.1598 48.2338 36.08 49.1541 37.2152 49.1541H38.1C39.2352 49.1541 40.1555 48.2338 40.1555 47.0986V46.4658C40.155 45.3303 41.0772 44.4105 42.2111 44.4104Z" fill="#DECEE5"/>
<path d="M32.317 47.8657L31.8899 47.6895C31.2849 47.4394 30.6428 47.3143 30 47.3143C29.3571 47.3143 28.7152 47.4394 28.1101 47.6895L27.683 47.8657C27.2131 48.0603 26.7859 47.5107 27.0905 47.102L27.9465 45.9557C28.4593 45.2692 29.2297 44.9268 30.0001 44.9268C30.7705 44.9268 31.5409 45.2692 32.0537 45.9557L32.9098 47.102C33.2142 47.5107 32.7871 48.0603 32.317 47.8657Z" fill="#A583BB"/>
<path d="M32.317 47.8657L31.8899 47.6895C31.2848 47.4394 30.7386 47.3143 30.0957 47.3143L30 44.9268C30.7704 44.9268 31.5408 45.2692 32.0536 45.9557L32.9096 47.102C33.2142 47.5107 32.7871 48.0603 32.317 47.8657Z" fill="#C2AACF"/>
<path d="M32.6953 44.2893L32.1985 44.0844C31.4946 43.7935 30.7478 43.6479 30 43.6479C29.2523 43.6479 28.5054 43.7934 27.8016 44.0844L27.3047 44.2893C26.758 44.5158 26.2612 43.8763 26.6155 43.4009L27.6113 42.0674C28.2078 41.2689 29.1039 40.8706 30 40.8706C30.8962 40.8706 31.7924 41.2689 32.3888 42.0674L33.3845 43.4009C33.7389 43.8763 33.242 44.5157 32.6953 44.2893Z" fill="#A583BB"/>
<path d="M32.6953 44.2893L32.1984 44.0844C31.4946 43.7935 30.7478 43.6479 30 43.6479V40.8706C30.8961 40.8706 31.7924 41.2689 32.3888 42.0674L33.3845 43.4009C33.7389 43.8763 33.242 44.5157 32.6953 44.2893Z" fill="#C2AACF"/>
<path d="M33.2355 40.4672L32.639 40.2211C31.7941 39.8719 30.8976 39.6973 29.9999 39.6973C29.1023 39.6973 28.2058 39.8719 27.3609 40.2211L26.7644 40.4672C26.1081 40.7391 25.5116 39.9715 25.937 39.4008L27.1323 37.8C27.8484 36.8414 28.9241 36.3633 29.9999 36.3633C31.0757 36.3633 32.1515 36.8414 32.8675 37.8L34.0628 39.4008C34.4882 39.9715 33.8917 40.7391 33.2355 40.4672Z" fill="#A583BB"/>
<path d="M33.2355 40.4672L32.6391 40.2211C31.7941 39.8719 30.8977 39.6973 30 39.6973V36.3633C31.0758 36.3633 32.1516 36.8414 32.8676 37.8L34.0629 39.4008C34.4883 39.9715 33.8918 40.7391 33.2355 40.4672Z" fill="#C2AACF"/>
<path d="M33.5848 35.9531L32.924 35.6804C31.9879 35.2935 30.9946 35.1001 30 35.1001C29.0055 35.1001 28.0122 35.2936 27.0761 35.6804L26.4153 35.9531C25.6881 36.2543 25.0273 35.4039 25.4986 34.7716L26.823 32.9981C27.6162 31.9359 28.8081 31.4062 30 31.4062C31.192 31.4062 32.3839 31.9359 33.1771 32.998L34.5015 34.7715C34.9728 35.404 34.312 36.2544 33.5848 35.9531Z" fill="#A583BB"/>
<path d="M33.5848 35.9531L32.9239 35.6804C31.9879 35.2935 30.9946 35.1001 30 35.1001V31.4062C31.1919 31.4062 32.3838 31.9359 33.1771 32.998L34.5014 34.7715C34.9727 35.404 34.3119 36.2544 33.5848 35.9531Z" fill="#C2AACF"/>
<path d="M38.6509 38.107C38.6509 38.1621 38.6486 38.2184 38.6427 38.2746L37.9572 45.4242C37.9197 45.8168 37.7228 46.159 37.4333 46.3875C37.1931 46.5797 36.8896 46.6922 36.5615 46.6922C35.788 46.6922 35.1599 46.0641 35.1599 45.2906V38.1082C35.1599 37.1449 35.9416 36.3633 36.9048 36.3633C37.2248 36.3633 37.5236 36.4488 37.7791 36.5965C38.3029 36.9012 38.6509 37.4672 38.6509 38.107Z" fill="white"/>
<path d="M38.6509 38.1072C38.6509 38.1623 38.6485 38.2186 38.6427 38.2748L37.9571 45.4244C37.9196 45.817 37.7228 46.1592 37.4333 46.3877C37.111 46.1299 36.9048 45.735 36.9048 45.2908V38.1084C36.9048 37.4627 37.2563 36.8979 37.779 36.5967C38.3028 36.9014 38.6509 37.4674 38.6509 38.1072Z" fill="#F4E6F4"/>
<path d="M21.3494 38.107C21.3494 38.1621 21.3517 38.2184 21.3576 38.2746L22.0431 45.4242C22.0806 45.8168 22.2775 46.159 22.5669 46.3875C22.8072 46.5797 23.1107 46.6922 23.4388 46.6922C24.2123 46.6922 24.8404 46.0641 24.8404 45.2906V38.1082C24.8404 37.1449 24.0587 36.3633 23.0955 36.3633C22.7755 36.3633 22.4767 36.4488 22.2212 36.5965C21.6974 36.9012 21.3494 37.4672 21.3494 38.107Z" fill="#F4E6F4"/>
<path d="M21.3494 38.1072C21.3494 38.1623 21.3517 38.2186 21.3576 38.2748L22.0431 45.4244C22.0806 45.817 22.2775 46.1592 22.5669 46.3877C22.8892 46.1299 23.0955 45.735 23.0955 45.2908V38.1084C23.0955 37.4627 22.7439 36.8979 22.2212 36.5967C21.6974 36.9014 21.3494 37.4674 21.3494 38.1072Z" fill="#EBD9EA"/>
<path d="M30 15.1562H34.3477C37.1379 15.1562 39.5355 16.6633 40.8328 18.8687L40.7988 18.9821C39.8202 22.2438 36.8181 24.4773 33.4129 24.4773H30V15.1562Z" fill="#EBD9EA"/>
<path d="M30 15.1562H25.6524C22.8622 15.1562 20.4645 16.6633 19.1672 18.8687L19.2012 18.9821C20.1799 22.2438 23.182 24.4773 26.5872 24.4773H30V15.1562Z" fill="#DECEE5"/>
</g>
<defs>
<clipPath id="clip0_1123_23699">
<rect width="60" height="60" fill="white"/>
</clipPath>
</defs>
</svg>
