<svg width="60" height="60" viewBox="0 0 60 60" fill="none" xmlns="http://www.w3.org/2000/svg">
<g clip-path="url(#clip0_1123_25721)">
<path d="M30 60C46.5685 60 60 46.5685 60 30C60 13.4315 46.5685 0 30 0C13.4315 0 0 13.4315 0 30C0 46.5685 13.4315 60 30 60Z" fill="#EE6781"/>
<path d="M33.7252 36.3066C33.7252 36.534 33.6795 36.7496 33.5986 36.9477C33.5436 37.0801 33.4709 37.2031 33.3865 37.3168C33.0807 37.7211 32.5955 37.9824 32.0494 37.9824H27.9502C27.4873 37.9824 27.0678 37.7949 26.7654 37.4914C26.4619 37.1879 26.2744 36.7695 26.2744 36.3066C26.2744 35.4418 26.9307 34.7293 27.7732 34.6402C27.8307 34.6344 27.8904 34.6309 27.9502 34.6309H32.0494C32.5123 34.6309 32.9318 34.8184 33.2342 35.1219C33.5377 35.4254 33.7252 35.8449 33.7252 36.3066Z" fill="#C44A1A"/>
<path d="M33.7252 36.3066C33.7252 36.534 33.6795 36.7496 33.5986 36.9477H29.585C29.1221 36.9477 28.7025 36.7602 28.4002 36.4566C28.0967 36.1531 27.9092 35.7348 27.9092 35.2719C27.9092 35.0445 27.9549 34.8289 28.0369 34.6309H32.0494C32.5123 34.6309 32.9318 34.8184 33.2342 35.1219C33.5377 35.4254 33.7252 35.8449 33.7252 36.3066Z" fill="#DD5E26"/>
<path d="M32.3105 36.3068H29.5758C29.2387 36.3068 28.9656 36.0337 28.9656 35.6966C28.9656 35.3596 29.2387 35.0864 29.5758 35.0864H32.3105C32.6475 35.0864 32.9207 35.3596 32.9207 35.6966C32.9207 36.0337 32.6475 36.3068 32.3105 36.3068Z" fill="#EA792E"/>
<path d="M33.2292 39.435C33.2292 39.6321 33.1896 39.819 33.1195 39.9907C33.0718 40.1054 33.0088 40.212 32.9356 40.3106C32.6705 40.6611 32.25 40.8876 31.7765 40.8876H28.2232C27.8219 40.8876 27.4583 40.7251 27.1961 40.462C26.933 40.1989 26.7705 39.8362 26.7705 39.435C26.7705 38.6853 27.3393 38.0676 28.0698 37.9905C28.1196 37.9854 28.1714 37.9824 28.2232 37.9824H31.7765C32.1778 37.9824 32.5414 38.145 32.8036 38.408C33.0666 38.671 33.2292 39.0348 33.2292 39.435Z" fill="#C44A1A"/>
<path d="M33.2293 39.4351C33.2293 39.6322 33.1897 39.8191 33.1196 39.9908H29.6404C29.2392 39.9908 28.8755 39.8282 28.6134 39.5652C28.3503 39.3021 28.1877 38.9394 28.1877 38.5381C28.1877 38.341 28.2274 38.1541 28.2985 37.9824H31.7767C32.178 37.9824 32.5416 38.145 32.8038 38.408C33.0667 38.6711 33.2293 39.0349 33.2293 39.4351Z" fill="#DD5E26"/>
<path d="M32.0028 39.4349H29.6323C29.3401 39.4349 29.1033 39.1981 29.1033 38.9059C29.1033 38.6138 29.3401 38.377 29.6323 38.377H32.0028C32.295 38.377 32.5318 38.6138 32.5318 38.9059C32.5318 39.1981 32.295 39.4349 32.0028 39.4349Z" fill="#EA792E"/>
<path d="M32.9059 42.195C32.9059 42.3723 32.8703 42.5406 32.8071 42.6951C32.7641 42.7983 32.7075 42.8943 32.6416 42.983C32.403 43.2984 32.0245 43.5023 31.5985 43.5023H28.4009C28.0398 43.5023 27.7125 43.356 27.4766 43.1192C27.2399 42.8823 27.0935 42.5561 27.0935 42.1949C27.0935 41.5203 27.6055 40.9645 28.2627 40.895C28.3075 40.8904 28.3541 40.8877 28.4007 40.8877H31.5984C31.9595 40.8877 32.2868 41.0339 32.5227 41.2708C32.7596 41.5076 32.9059 41.8349 32.9059 42.195Z" fill="#C44A1A"/>
<path d="M32.9058 42.195C32.9058 42.3723 32.8702 42.5406 32.807 42.6951H29.676C29.3149 42.6951 28.9876 42.5488 28.7517 42.312C28.515 42.0752 28.3687 41.7489 28.3687 41.3877C28.3687 41.2103 28.4043 41.0421 28.4683 40.8877H31.5983C31.9594 40.8877 32.2867 41.0339 32.5226 41.2708C32.7595 41.5076 32.9058 41.8349 32.9058 42.195Z" fill="#DD5E26"/>
<path d="M31.8024 42.1952H29.6691C29.4063 42.1952 29.1931 41.982 29.1931 41.7192C29.1931 41.4563 29.4063 41.2432 29.6691 41.2432H31.8024C32.0653 41.2432 32.2784 41.4563 32.2784 41.7192C32.2784 41.9821 32.0653 42.1952 31.8024 42.1952Z" fill="#EA792E"/>
<path d="M32.5463 44.6475C32.5463 44.8029 32.515 44.9503 32.4599 45.0856C32.4222 45.1761 32.3725 45.2602 32.3149 45.3379C32.1058 45.6143 31.7742 45.793 31.4009 45.793H28.5989C28.2825 45.793 27.9957 45.6648 27.789 45.4573C27.5816 45.2498 27.4534 44.9639 27.4534 44.6475C27.4534 44.0563 27.902 43.5692 28.4779 43.5084C28.5172 43.5044 28.5581 43.502 28.5989 43.502H31.4009C31.7174 43.502 32.0041 43.6302 32.2108 43.8376C32.4183 44.0451 32.5463 44.3319 32.5463 44.6475Z" fill="#C44A1A"/>
<path d="M32.5464 44.6475C32.5464 44.8029 32.5151 44.9503 32.4599 45.0856H29.7163C29.3999 45.0856 29.1131 44.9574 28.9064 44.75C28.699 44.5425 28.5708 44.2565 28.5708 43.9401C28.5708 43.7847 28.6021 43.6373 28.6581 43.502H31.4009C31.7173 43.502 32.004 43.6302 32.2108 43.8376C32.4183 44.0451 32.5464 44.3319 32.5464 44.6475Z" fill="#DD5E26"/>
<path d="M31.5793 44.6474H29.71C29.4796 44.6474 29.293 44.4606 29.293 44.2302C29.293 43.9998 29.4798 43.813 29.71 43.813H31.5793C31.8097 43.813 31.9965 43.9998 31.9965 44.2302C31.9965 44.4607 31.8097 44.6474 31.5793 44.6474Z" fill="#EA792E"/>
<path d="M32.3014 46.8282C32.3014 46.9687 32.2731 47.102 32.2232 47.2243C32.1892 47.3061 32.1443 47.3821 32.0922 47.4523C31.9033 47.7022 31.6035 47.8636 31.2661 47.8636H28.7336C28.4477 47.8636 28.1884 47.7477 28.0016 47.5602C27.8141 47.3727 27.6982 47.1141 27.6982 46.8282C27.6982 46.2939 28.1037 45.8537 28.6243 45.7987C28.6598 45.7951 28.6967 45.793 28.7336 45.793H31.2661C31.5521 45.793 31.8113 45.9089 31.9981 46.0964C32.1856 46.2837 32.3014 46.543 32.3014 46.8282Z" fill="#C44A1A"/>
<path d="M32.3015 46.8283C32.3015 46.9688 32.2732 47.1021 32.2233 47.2244H29.7436C29.4577 47.2244 29.1984 47.1085 29.0117 46.921C28.8242 46.7335 28.7083 46.475 28.7083 46.1891C28.7083 46.0486 28.7365 45.9154 28.7871 45.793H31.2661C31.552 45.793 31.8113 45.9089 31.9981 46.0964C32.1857 46.2839 32.3015 46.5431 32.3015 46.8283Z" fill="#DD5E26"/>
<path d="M31.4273 46.8282H29.7378C29.5296 46.8282 29.3608 46.6595 29.3608 46.4512C29.3608 46.243 29.5296 46.0742 29.7378 46.0742H31.4273C31.6356 46.0742 31.8043 46.243 31.8043 46.4512C31.8043 46.6595 31.6356 46.8282 31.4273 46.8282Z" fill="#EA792E"/>
<path d="M26.8222 55.2085L31.1634 49.7122C31.4949 49.2929 31.5703 48.7452 31.4003 48.2687C31.3283 48.0623 31.209 47.8701 31.0457 47.7069C30.5037 47.1649 29.6412 47.1144 29.0404 47.5893L23.5441 51.9305C22.8348 52.4906 22.7726 53.5454 23.4124 54.1851L24.5675 55.3403C25.2072 55.98 26.262 55.9179 26.8222 55.2085Z" fill="#C44A1A"/>
<path d="M26.8221 55.2086L31.1633 49.7123C31.4948 49.293 31.5702 48.7453 31.4002 48.2688C30.9237 48.0989 30.3768 48.1751 29.9567 48.5057L24.4604 52.8469C23.7511 53.4071 23.6898 54.4628 24.3295 55.1024L24.5673 55.3402C25.2071 55.9801 26.2619 55.918 26.8221 55.2086Z" fill="#DD5E26"/>
<path d="M25.0236 54.6399C25.322 54.9383 25.8138 54.9095 26.0754 54.5784L29.2721 51.0309C29.4152 50.8497 29.4001 50.5901 29.2367 50.4268C29.0735 50.2636 28.8138 50.2483 28.6326 50.3914L25.0851 53.5882C24.7541 53.8496 24.7253 54.3416 25.0236 54.6399Z" fill="#EA792E"/>
<path d="M37.9441 53.0036C37.9371 53.013 37.9277 53.0224 37.9195 53.0306L36.7464 54.2036C35.0027 55.9474 32.6378 56.9271 30.1722 56.9271H26.9589C25.8937 56.9271 25.03 56.0634 25.03 54.9982C25.03 54.0958 25.6546 53.3236 26.5195 53.1208C26.5757 53.1079 26.6332 53.0974 26.6917 53.0892L28.4367 52.8454L37.214 51.6173C37.3968 51.5915 37.5632 51.6232 37.7039 51.6935C38.1621 51.9243 38.3472 52.5689 37.9441 53.0036Z" fill="#C44A1A"/>
<path d="M37.9442 53.0036C36.5192 54.1122 34.759 54.7239 32.9344 54.7239H30.1161C29.1821 54.7239 28.425 53.9669 28.425 53.0329C28.425 52.9696 28.4286 52.9075 28.4368 52.8454L37.2141 51.6173C37.3969 51.5915 37.5633 51.6232 37.704 51.6935C38.1622 51.9243 38.3473 52.5689 37.9442 53.0036Z" fill="#DD5E26"/>
<path d="M31.5491 54.1136L34.9531 53.6375C35.2397 53.5974 35.453 53.3523 35.453 53.0628C35.453 52.7103 35.1414 52.4393 34.7923 52.4881L31.3883 52.9643C31.1017 53.0043 30.8884 53.2495 30.8884 53.539C30.8884 53.8915 31.2001 54.1625 31.5491 54.1136Z" fill="#EA792E"/>
<path d="M38.1538 51.8189C38.1538 51.9466 38.128 52.072 38.0777 52.188C37.9757 52.433 37.7706 52.6345 37.4952 52.7236C37.398 52.7552 37.2995 52.7705 37.2023 52.7705C36.7769 52.7705 36.3866 52.4822 36.2788 52.0451C36.0046 50.9259 36.2167 49.7435 36.8612 48.7896L37.4343 47.9423C37.528 47.8029 37.698 47.8076 37.7999 47.8931C37.8632 47.9459 37.9007 48.0314 37.8784 48.1322L37.7448 48.7462C37.5644 49.5771 37.6476 50.4419 37.9816 51.2236L38.0765 51.4451C38.1292 51.5669 38.1538 51.6947 38.1538 51.8189Z" fill="#2E3140"/>
<path d="M38.1539 51.8188C38.1539 51.9466 38.1281 52.072 38.0777 52.188C37.5937 52.27 37.1156 51.9677 36.9961 51.4767V51.4755C36.7219 50.3575 36.9328 49.1751 37.5785 48.2212L37.8 47.8931C37.8633 47.9458 37.9008 48.0313 37.8785 48.1321L37.7449 48.7462C37.5644 49.5771 37.6476 50.4419 37.9816 51.2235L38.0765 51.445C38.1293 51.5669 38.1539 51.6946 38.1539 51.8188Z" fill="#334353"/>
<path d="M37.2994 50.4752C37.5237 50.4699 37.6993 50.2755 37.6753 50.0524C37.6286 49.6188 37.6512 49.1779 37.7449 48.7462L37.8785 48.1321C37.9008 48.0313 37.8633 47.9458 37.8 47.8931L37.5785 48.2212C37.2058 48.7719 36.9778 49.3988 36.9046 50.0454C36.8782 50.2783 37.0652 50.4806 37.2994 50.4752Z" fill="#3F5D77"/>
<path d="M39.1418 35.4648C38.7102 35.8959 38.0114 35.8964 37.5802 35.4648L34.0637 31.9484L35.6254 30.3867L39.1418 33.9032C39.5788 34.3375 39.5652 35.045 39.1418 35.4648Z" fill="#2E3140"/>
<path d="M39.39 35.0836C38.9867 35.2393 38.5273 35.1516 38.2096 34.8354L34.6931 31.3189L35.6253 30.3867L39.1418 33.9032C39.4614 34.2227 39.5436 34.6889 39.39 35.0836Z" fill="#334353"/>
<path d="M37.6178 34.2435L35.6768 32.3025C35.2549 31.8543 35.8865 31.221 36.3359 31.6434L38.2768 33.5844C38.6987 34.0327 38.0673 34.666 37.6178 34.2435Z" fill="#3E4E60"/>
<path d="M39.1973 36.5405V40.1484C39.1973 40.4536 39.0114 40.7159 38.7476 40.8282C38.2777 41.0372 37.7106 40.6669 37.7221 40.1484V36.5405C37.7221 36.337 37.8047 36.1528 37.9385 36.0197C38.381 35.5605 39.2039 35.8846 39.1973 36.5405Z" fill="#3E4E60"/>
<path d="M39.1971 36.5404V40.1484C39.1971 40.4536 39.0113 40.7158 38.7475 40.8282C38.4837 40.7158 38.2979 40.4536 38.2979 40.1484V36.5404C38.2983 36.2376 38.4795 35.9775 38.7475 35.8613C39.0113 35.9738 39.1971 36.2354 39.1971 36.5404Z" fill="#3F5D77"/>
<path d="M38.5907 39.8645C38.429 39.8645 38.2979 39.7333 38.2979 39.5716V37.0687C38.2979 36.907 38.429 36.7759 38.5907 36.7759C38.7524 36.7759 38.8836 36.907 38.8836 37.0687V39.5716C38.8836 39.7333 38.7524 39.8645 38.5907 39.8645Z" fill="#3F6C8E"/>
<path d="M42.8655 44.8096C42.9493 44.7258 42.9493 44.59 42.8655 44.5063L41.9866 43.6274L41.6833 43.9307L42.5623 44.8096C42.646 44.8933 42.7819 44.8933 42.8655 44.8096Z" fill="#3E4E60"/>
<path d="M42.3094 45.3658C42.3932 45.282 42.3932 45.1462 42.3094 45.0625L41.4305 44.1836L41.1272 44.4869L42.0061 45.3658C42.0899 45.4495 42.2257 45.4495 42.3094 45.3658Z" fill="#3E4E60"/>
<path d="M42.0167 43.9543C41.9144 44.0576 41.5699 44.4019 41.4615 44.5102C41.317 44.6547 41.0829 44.6547 40.9385 44.5102L40.6639 44.2357C39.9814 43.5027 40.9956 42.479 41.736 43.1636L42.0106 43.4382C42.1529 43.5803 42.1551 43.8098 42.0167 43.9543Z" fill="#C44A1A"/>
<path d="M40.9385 42.889C40.7857 43.0426 40.5441 43.2828 40.3895 43.438C40.245 43.5825 40.011 43.5825 39.8664 43.438L39.5918 43.1634C38.9094 42.4306 39.9236 41.407 40.664 42.0921L40.9385 42.3667C41.083 42.5104 41.083 42.7445 40.9385 42.889Z" fill="#C44A1A"/>
<path d="M39.8664 41.8171C39.7135 41.9716 39.4724 42.2112 39.3174 42.367C39.1729 42.5108 38.9388 42.5108 38.7951 42.367L38.5198 42.0924C37.8375 41.3595 38.8512 40.3349 39.5919 41.0204L39.8665 41.2949C40.0109 41.4393 40.0109 41.6732 39.8664 41.8171Z" fill="#C44A1A"/>
<path d="M41.8624 44.1099C41.718 44.2532 41.4833 44.2532 41.3401 44.1099L41.0648 43.8346C40.8398 43.6096 40.7852 43.2782 40.9037 43.0019C41.1801 42.8804 41.5207 42.9458 41.7359 43.1636L42.0105 43.4383C42.152 43.5806 42.155 43.8091 42.017 43.9542L42.0122 43.959L41.8624 44.1099Z" fill="#DD5E26"/>
<path d="M40.9387 42.8891L40.79 43.0378C40.6462 43.1816 40.412 43.1822 40.2677 43.0378L39.993 42.7631C39.768 42.5381 39.7139 42.2061 39.8312 41.9298C40.1077 41.8101 40.4491 41.8735 40.664 42.092L40.9387 42.3667C41.0834 42.5112 41.082 42.746 40.9387 42.8891Z" fill="#DD5E26"/>
<path d="M39.719 41.9655C39.5741 42.1085 39.341 42.1114 39.1955 41.9655L38.9208 41.6909C38.6964 41.4664 38.6424 41.1345 38.7591 40.8575C39.0358 40.7387 39.377 40.8018 39.5918 41.0197L39.8665 41.2944C40.0106 41.4384 40.0104 41.6733 39.8665 41.8167L39.719 41.9655Z" fill="#DD5E26"/>
<path d="M39.9012 41.6654C39.7277 41.8389 39.4454 41.8389 39.2712 41.6649C39.0285 41.4354 39.1476 40.9989 39.4692 40.9209C39.5637 40.9736 39.7846 41.2184 39.8667 41.2945C39.965 41.3973 40.0287 41.5664 39.9012 41.6654Z" fill="#EA792E"/>
<path d="M40.9729 42.7373C40.7994 42.9108 40.5171 42.9108 40.3435 42.7373C40.1002 42.507 40.2191 42.071 40.5409 41.9927C40.6355 42.0454 40.8567 42.2907 40.9388 42.3669C41.0382 42.4708 41.1003 42.6379 40.9729 42.7373Z" fill="#EA792E"/>
<path d="M42.0447 43.809C41.8711 43.9825 41.5894 43.9831 41.4153 43.809C41.1726 43.5794 41.2917 43.143 41.6132 43.0649C41.7079 43.1177 41.9287 43.3625 42.0107 43.4385C42.1095 43.542 42.172 43.7096 42.0447 43.809Z" fill="#EA792E"/>
<path d="M20.8581 35.4648C21.2897 35.8959 21.9885 35.8964 22.4197 35.4648L25.9362 31.9484L24.3745 30.3867L20.8581 33.9032C20.4211 34.3375 20.4347 35.045 20.8581 35.4648Z" fill="#2E3140"/>
<path d="M20.6099 35.0836C21.0131 35.2393 21.4726 35.1516 21.7903 34.8354L25.3068 31.3189L24.3746 30.3867L20.8581 33.9032C20.5385 34.2227 20.4563 34.6889 20.6099 35.0836Z" fill="#334353"/>
<path d="M22.382 34.2435L24.323 32.3025C24.7449 31.8543 24.1133 31.221 23.6639 31.6434L21.723 33.5844C21.3011 34.0327 21.9325 34.666 22.382 34.2435Z" fill="#3E4E60"/>
<path d="M20.8028 36.5405V40.1484C20.8028 40.4536 20.9886 40.7159 21.2524 40.8282C21.7223 41.0372 22.2894 40.6669 22.2779 40.1484V36.5405C22.2779 36.337 22.1953 36.1528 22.0615 36.0197C21.619 35.5605 20.7961 35.8846 20.8028 36.5405Z" fill="#3E4E60"/>
<path d="M20.8027 36.5404V40.1484C20.8027 40.4536 20.9886 40.7158 21.2524 40.8282C21.5162 40.7158 21.702 40.4536 21.702 40.1484V36.5404C21.7016 36.2376 21.5204 35.9775 21.2524 35.8613C20.9886 35.9738 20.8027 36.2354 20.8027 36.5404Z" fill="#3F5D77"/>
<path d="M21.4093 39.8645C21.571 39.8645 21.7022 39.7333 21.7022 39.5716V37.0687C21.7022 36.907 21.571 36.7759 21.4093 36.7759C21.2476 36.7759 21.1165 36.907 21.1165 37.0687V39.5716C21.1165 39.7333 21.2476 39.8645 21.4093 39.8645Z" fill="#3F6C8E"/>
<path d="M17.1344 44.8096C17.0506 44.7258 17.0506 44.59 17.1344 44.5063L18.0133 43.6274L18.3166 43.9307L17.4377 44.8096C17.3539 44.8933 17.218 44.8933 17.1344 44.8096Z" fill="#3E4E60"/>
<path d="M17.6905 45.3658C17.6067 45.282 17.6067 45.1462 17.6905 45.0625L18.5694 44.1836L18.8727 44.4869L17.9938 45.3658C17.91 45.4495 17.7742 45.4495 17.6905 45.3658Z" fill="#3E4E60"/>
<path d="M17.9831 43.9544C18.0854 44.0577 18.4299 44.402 18.5383 44.5103C18.6828 44.6548 18.9168 44.6548 19.0613 44.5103L19.3359 44.2357C20.0184 43.5027 19.0041 42.479 18.2637 43.1636L17.9892 43.4382C17.8469 43.5804 17.8447 43.8099 17.9831 43.9544Z" fill="#C44A1A"/>
<path d="M19.0613 42.889C19.2141 43.0426 19.4557 43.2828 19.6103 43.438C19.7548 43.5825 19.9888 43.5825 20.1334 43.438L20.408 43.1634C21.0904 42.4306 20.0762 41.407 19.3358 42.0921L19.0613 42.3667C18.9168 42.5104 18.9168 42.7445 19.0613 42.889Z" fill="#C44A1A"/>
<path d="M20.1335 41.8171C20.2865 41.9716 20.5275 42.2112 20.6826 42.367C20.827 42.5108 21.0611 42.5108 21.2049 42.367L21.4801 42.0924C22.1624 41.3595 21.1487 40.3349 20.408 41.0204L20.1334 41.2949C19.989 41.4393 19.989 41.6732 20.1335 41.8171Z" fill="#C44A1A"/>
<path d="M18.1375 44.1099C18.2819 44.2532 18.5166 44.2532 18.6598 44.1099L18.9351 43.8346C19.1601 43.6096 19.2147 43.2782 19.0962 43.0019C18.8198 42.8804 18.4793 42.9458 18.2641 43.1636L17.9894 43.4383C17.848 43.5806 17.8449 43.8091 17.983 43.9542L17.9878 43.959L18.1375 44.1099Z" fill="#DD5E26"/>
<path d="M19.0611 42.8891L19.2099 43.0378C19.3536 43.1816 19.5878 43.1822 19.7322 43.0378L20.0068 42.7631C20.2318 42.5381 20.2859 42.2061 20.1686 41.9298C19.8921 41.8101 19.5508 41.8735 19.3358 42.092L19.0611 42.3667C18.9164 42.5112 18.9178 42.746 19.0611 42.8891Z" fill="#DD5E26"/>
<path d="M20.2809 41.9655C20.4258 42.1085 20.6589 42.1114 20.8044 41.9655L21.0791 41.6909C21.3035 41.4664 21.3576 41.1345 21.2408 40.8575C20.9642 40.7387 20.6229 40.8018 20.4081 41.0197L20.1334 41.2944C19.9893 41.4384 19.9895 41.6733 20.1334 41.8167L20.2809 41.9655Z" fill="#DD5E26"/>
<path d="M20.0988 41.6654C20.2724 41.8389 20.5547 41.8389 20.7288 41.6649C20.9715 41.4354 20.8524 40.9989 20.5309 40.9209C20.4363 40.9736 20.2154 41.2184 20.1334 41.2945C20.0351 41.3973 19.9713 41.5664 20.0988 41.6654Z" fill="#EA792E"/>
<path d="M19.027 42.7373C19.2005 42.9108 19.4828 42.9108 19.6564 42.7373C19.8997 42.507 19.7808 42.071 19.459 41.9927C19.3644 42.0454 19.1432 42.2907 19.0611 42.3669C18.9617 42.4708 18.8996 42.6379 19.027 42.7373Z" fill="#EA792E"/>
<path d="M17.9553 43.809C18.1288 43.9825 18.4105 43.9831 18.5847 43.809C18.8274 43.5794 18.7083 43.143 18.3867 43.0649C18.2921 43.1177 18.0713 43.3625 17.9892 43.4385C17.8905 43.542 17.828 43.7096 17.9553 43.809Z" fill="#EA792E"/>
<path d="M41.8082 28.5759C41.8078 29.186 41.3141 29.6804 40.7039 29.6802H35.731V27.4717H40.7039C41.32 27.4698 41.8106 27.9798 41.8082 28.5759Z" fill="#2E3140"/>
<path d="M41.7141 28.1309C41.539 28.5261 41.1522 28.789 40.7039 28.79H35.731V27.4717H40.7039C41.1558 27.4717 41.5436 27.7431 41.7141 28.1309Z" fill="#334353"/>
<path d="M39.8671 28.79H37.1221C36.5068 28.7714 36.5055 27.8771 37.1221 27.8579H39.8671C40.1244 27.8579 40.3331 28.0665 40.3331 28.324C40.3331 28.5813 40.1244 28.79 39.8671 28.79Z" fill="#3E4E60"/>
<path d="M41.8082 30.4175V34.0254C41.7701 35.0061 40.368 35.0003 40.333 34.0254V30.4175C40.333 30.214 40.4156 30.0298 40.5495 29.8967C40.992 29.4374 41.8148 29.7616 41.8082 30.4175Z" fill="#3E4E60"/>
<path d="M41.8082 30.4174V34.0254C41.8082 34.3305 41.6224 34.5928 41.3586 34.7052C41.0948 34.5928 40.9089 34.3305 40.9089 34.0254V30.4174C40.9094 30.1146 41.0906 29.8544 41.3586 29.7383C41.6224 29.8508 41.8082 30.1122 41.8082 30.4174Z" fill="#3F5D77"/>
<path d="M41.2018 33.7414C41.0401 33.7414 40.9089 33.6103 40.9089 33.4486V30.9457C40.9089 30.784 41.0401 30.6528 41.2018 30.6528C41.3635 30.6528 41.4946 30.784 41.4946 30.9457V33.4486C41.4946 33.6103 41.3635 33.7414 41.2018 33.7414Z" fill="#3F6C8E"/>
<path d="M45.4764 38.6861C45.5602 38.6023 45.5602 38.4665 45.4764 38.3828L44.5975 37.5039L44.2942 37.8072L45.1731 38.6861C45.2569 38.7699 45.3927 38.7699 45.4764 38.6861Z" fill="#3E4E60"/>
<path d="M44.9202 39.2422C45.004 39.1585 45.004 39.0226 44.9202 38.939L44.0413 38.0601L43.738 38.3633L44.6169 39.2422C44.7007 39.326 44.8366 39.326 44.9202 39.2422Z" fill="#3E4E60"/>
<path d="M44.6279 37.831C44.5256 37.9343 44.1811 38.2786 44.0727 38.3869C43.9282 38.5314 43.6941 38.5314 43.5496 38.3869L43.2751 38.1123C42.5916 37.3817 43.6091 36.3545 44.3472 37.0402L44.6218 37.3146C44.7641 37.457 44.7663 37.6864 44.6279 37.831Z" fill="#C44A1A"/>
<path d="M43.5495 36.7661C43.3967 36.9197 43.155 37.1599 43.0004 37.3151C42.8559 37.4596 42.6219 37.4596 42.4773 37.3151L42.2027 37.0405C41.5194 36.3101 42.5368 35.283 43.2749 35.9692L43.5495 36.2438C43.694 36.3875 43.694 36.6216 43.5495 36.7661Z" fill="#C44A1A"/>
<path d="M42.4774 35.6937C42.3245 35.8482 42.0834 36.0878 41.9284 36.2436C41.7839 36.3874 41.5498 36.3874 41.4061 36.2436L41.1308 35.969C40.4475 35.2386 41.4644 34.2105 42.2029 34.897L42.4775 35.1714C42.622 35.3159 42.622 35.5499 42.4774 35.6937Z" fill="#C44A1A"/>
<path d="M44.4735 37.9869C44.3291 38.1302 44.0944 38.1302 43.9512 37.9869L43.6759 37.7116C43.4509 37.4866 43.3963 37.1552 43.5148 36.8789C43.7912 36.7573 44.1318 36.8227 44.3469 37.0406L44.6216 37.3153C44.7631 37.4575 44.7661 37.686 44.6281 37.8311L44.6233 37.8359L44.4735 37.9869Z" fill="#DD5E26"/>
<path d="M43.5498 36.766L43.401 36.9147C43.2573 37.0585 43.0231 37.0591 42.8787 36.9147L42.6041 36.6401C42.3791 36.4151 42.325 36.0831 42.4423 35.8067C42.7188 35.6871 43.0601 35.7505 43.2751 35.9689L43.5498 36.2436C43.6945 36.3881 43.6931 36.623 43.5498 36.766Z" fill="#DD5E26"/>
<path d="M42.33 35.842C42.1852 35.985 41.9521 35.9879 41.8066 35.842L41.5319 35.5673C41.3075 35.3429 41.2534 35.0109 41.3702 34.734C41.6468 34.6152 41.9881 34.6782 42.2029 34.8962L42.4776 35.1709C42.6217 35.3149 42.6215 35.5497 42.4776 35.6932L42.33 35.842Z" fill="#DD5E26"/>
<path d="M42.5121 35.5419C42.3385 35.7154 42.0562 35.7154 41.8821 35.5414C41.6394 35.3118 41.7585 34.8754 42.08 34.7974C42.1746 34.8501 42.3955 35.0949 42.4775 35.171C42.5758 35.2737 42.6397 35.4428 42.5121 35.5419Z" fill="#EA792E"/>
<path d="M43.5838 36.6138C43.4102 36.7873 43.1279 36.7873 42.9544 36.6138C42.7111 36.3835 42.8299 35.9474 43.1517 35.8691C43.2464 35.9219 43.4675 36.1671 43.5497 36.2433C43.649 36.3471 43.7112 36.5144 43.5838 36.6138Z" fill="#EA792E"/>
<path d="M44.6555 37.6854C44.482 37.859 44.2003 37.8596 44.0261 37.6854C43.7834 37.4559 43.9025 37.0195 44.2241 36.9414C44.3187 36.9941 44.5395 37.2389 44.6216 37.315C44.7203 37.4185 44.7828 37.5861 44.6555 37.6854Z" fill="#EA792E"/>
<path d="M18.1917 28.5759C18.192 29.186 18.6858 29.6804 19.2959 29.6802H24.2689V27.4717H19.2959C18.6799 27.4698 18.1892 27.9798 18.1917 28.5759Z" fill="#2E3140"/>
<path d="M18.2856 28.1309C18.4607 28.5261 18.8476 28.789 19.2958 28.79H24.2688V27.4717H19.2958C18.8439 27.4717 18.4562 27.7431 18.2856 28.1309Z" fill="#334353"/>
<path d="M20.1328 28.79H22.8778C23.493 28.7714 23.4943 27.8771 22.8778 27.8579H20.1328C19.8755 27.8579 19.6667 28.0665 19.6667 28.324C19.6667 28.5813 19.8755 28.79 20.1328 28.79Z" fill="#3E4E60"/>
<path d="M18.1917 30.4175V34.0254C18.2298 35.0061 19.6318 35.0003 19.6668 34.0254V30.4175C19.6668 30.214 19.5842 30.0298 19.4504 29.8967C19.0079 29.4374 18.185 29.7616 18.1917 30.4175Z" fill="#3E4E60"/>
<path d="M18.1917 30.4174V34.0254C18.1917 34.3305 18.3775 34.5928 18.6413 34.7052C18.9051 34.5928 19.0909 34.3305 19.0909 34.0254V30.4174C19.0905 30.1146 18.9093 29.8544 18.6413 29.7383C18.3775 29.8508 18.1917 30.1122 18.1917 30.4174Z" fill="#3F5D77"/>
<path d="M18.7982 33.7414C18.9599 33.7414 19.0911 33.6103 19.0911 33.4486V30.9457C19.0911 30.784 18.9599 30.6528 18.7982 30.6528C18.6365 30.6528 18.5054 30.784 18.5054 30.9457V33.4486C18.5054 33.6103 18.6365 33.7414 18.7982 33.7414Z" fill="#3F6C8E"/>
<path d="M14.5233 38.6861C14.4395 38.6023 14.4395 38.4665 14.5233 38.3828L15.4022 37.5039L15.7055 37.8072L14.8266 38.6861C14.7428 38.7699 14.607 38.7699 14.5233 38.6861Z" fill="#2E3140"/>
<path d="M15.0794 39.2422C14.9957 39.1585 14.9957 39.0226 15.0794 38.939L15.9583 38.0601L16.2616 38.3633L15.3827 39.2422C15.2989 39.326 15.1631 39.326 15.0794 39.2422Z" fill="#2E3140"/>
<path d="M15.372 37.831C15.4743 37.9343 15.8188 38.2786 15.9272 38.3869C16.0717 38.5314 16.3058 38.5314 16.4502 38.3869L16.7248 38.1123C17.4082 37.3817 16.3908 36.3545 15.6527 37.0402L15.3781 37.3146C15.2358 37.457 15.2336 37.6864 15.372 37.831Z" fill="#C44A1A"/>
<path d="M16.4502 36.7661C16.603 36.9197 16.8446 37.1599 16.9992 37.3151C17.1437 37.4596 17.3777 37.4596 17.5223 37.3151L17.7969 37.0405C18.4802 36.3101 17.4628 35.283 16.7247 35.9692L16.4502 36.2438C16.3057 36.3875 16.3057 36.6216 16.4502 36.7661Z" fill="#C44A1A"/>
<path d="M17.5223 35.6937C17.6752 35.8482 17.9163 36.0878 18.0713 36.2436C18.2158 36.3874 18.4498 36.3874 18.5936 36.2436L18.8689 35.969C19.5522 35.2386 18.5353 34.2105 17.7967 34.897L17.5222 35.1714C17.3777 35.3159 17.3777 35.5499 17.5223 35.6937Z" fill="#C44A1A"/>
<path d="M15.5262 37.9869C15.6706 38.1302 15.9053 38.1302 16.0485 37.9869L16.3238 37.7116C16.5488 37.4866 16.6034 37.1552 16.4849 36.8789C16.2085 36.7573 15.8679 36.8227 15.6528 37.0406L15.3781 37.3153C15.2366 37.4575 15.2336 37.686 15.3716 37.8311L15.3764 37.8359L15.5262 37.9869Z" fill="#DD5E26"/>
<path d="M16.4501 36.766L16.5988 36.9147C16.7426 37.0585 16.9767 37.0591 17.1211 36.9147L17.3958 36.6401C17.6208 36.4151 17.6748 36.0831 17.5575 35.8067C17.281 35.6871 16.9397 35.7505 16.7247 35.9689L16.4501 36.2436C16.3053 36.3881 16.3067 36.623 16.4501 36.766Z" fill="#DD5E26"/>
<path d="M17.6699 35.842C17.8147 35.985 18.0478 35.9879 18.1933 35.842L18.468 35.5673C18.6924 35.3429 18.7465 35.0109 18.6297 34.734C18.3531 34.6152 18.0118 34.6782 17.797 34.8962L17.5223 35.1709C17.3782 35.3149 17.3784 35.5497 17.5223 35.6932L17.6699 35.842Z" fill="#DD5E26"/>
<path d="M17.4875 35.5419C17.6611 35.7154 17.9434 35.7154 18.1175 35.5414C18.3602 35.3118 18.2412 34.8754 17.9196 34.7974C17.825 34.8501 17.6041 35.0949 17.5221 35.171C17.4238 35.2737 17.3599 35.4428 17.4875 35.5419Z" fill="#EA792E"/>
<path d="M16.4159 36.6138C16.5894 36.7873 16.8717 36.7873 17.0453 36.6138C17.2886 36.3835 17.1698 35.9474 16.848 35.8691C16.7533 35.9219 16.5321 36.1671 16.45 36.2433C16.3506 36.3471 16.2885 36.5144 16.4159 36.6138Z" fill="#EA792E"/>
<path d="M15.3442 37.6854C15.5177 37.859 15.7994 37.8596 15.9736 37.6854C16.2163 37.4559 16.0972 37.0195 15.7757 36.9414C15.681 36.9941 15.4602 37.2389 15.3782 37.315C15.2794 37.4185 15.2169 37.5861 15.3442 37.6854Z" fill="#EA792E"/>
<path d="M18.3093 24.7952C18.3097 25.4053 18.8035 25.8997 19.4136 25.8994H24.3866V23.6909H19.4136C18.7975 23.689 18.3069 24.199 18.3093 24.7952Z" fill="#2E3140"/>
<path d="M18.4033 24.3501C18.5784 24.7454 18.9652 25.0082 19.4135 25.0093H24.3864V23.6909H19.4135C18.9615 23.6909 18.5738 23.9624 18.4033 24.3501Z" fill="#334353"/>
<path d="M20.2505 25.0093H22.9955C23.6107 24.9906 23.612 24.0964 22.9955 24.0771H20.2505C19.9931 24.0771 19.7844 24.2857 19.7844 24.5432C19.7844 24.8007 19.993 25.0093 20.2505 25.0093Z" fill="#3E4E60"/>
<path d="M18.8099 22.768L16.2587 20.2168C15.5384 19.5504 14.5511 20.5458 15.2156 21.2599L17.7668 23.8111C17.9106 23.9549 18.0994 24.0268 18.288 24.0263C18.9257 24.0382 19.2784 23.2272 18.8099 22.768Z" fill="#3E4E60"/>
<path d="M18.8099 22.7682L16.2587 20.217C16.043 20.0013 15.7261 19.9473 15.4601 20.0543C15.353 20.3203 15.4071 20.6372 15.6229 20.8529L18.174 23.4041C18.3884 23.6178 18.7006 23.6737 18.9722 23.5663C19.0791 23.3004 19.0256 22.984 18.8099 22.7682Z" fill="#3F5D77"/>
<path d="M16.0306 20.8465C15.9162 20.9609 15.9162 21.1464 16.0306 21.2608L17.8004 23.0305C17.9147 23.1449 18.1003 23.1449 18.2146 23.0305C18.329 22.9162 18.329 22.7307 18.2146 22.6163L16.4449 20.8465C16.3305 20.7321 16.145 20.7321 16.0306 20.8465Z" fill="#3F6C8E"/>
<path d="M9.62402 19.255C9.62402 19.1365 9.72 19.0405 9.83848 19.0405H11.0815V19.4694H9.83848C9.72 19.4694 9.62402 19.3735 9.62402 19.255Z" fill="#2E3140"/>
<path d="M9.62402 20.0416C9.62402 19.9231 9.72 19.8271 9.83848 19.8271H11.0815V20.2561H9.83848C9.72 20.2561 9.62402 20.1601 9.62402 20.0416Z" fill="#2E3140"/>
<path d="M10.8287 19.2507C10.828 19.3962 10.8281 19.8832 10.8281 20.0365C10.8281 20.2408 10.9936 20.4063 11.198 20.4063H11.5862C12.5862 20.373 12.5931 18.9272 11.5862 18.8901H11.198C10.9969 18.89 10.8331 19.0506 10.8287 19.2507Z" fill="#C44A1A"/>
<path d="M12.3442 19.26C12.3436 19.4767 12.3446 19.8173 12.3442 20.0365C12.3442 20.2409 12.5096 20.4063 12.714 20.4063H13.1023C14.1019 20.373 14.1088 18.9273 13.1017 18.8906H12.7134C12.5096 18.8902 12.3442 19.0556 12.3442 19.26Z" fill="#C44A1A"/>
<path d="M13.8607 19.2599C13.8596 19.4771 13.8606 19.8171 13.8601 20.037C13.8607 20.2409 14.0262 20.4062 14.2295 20.4063L14.6183 20.4068C15.6179 20.3734 15.6259 18.9274 14.6183 18.8906H14.2301C14.0256 18.8906 13.8601 19.0561 13.8607 19.2599Z" fill="#C44A1A"/>
<path d="M10.8279 19.4698C10.8287 19.6732 10.9946 19.8391 11.1973 19.8391H11.5864C11.9046 19.8391 12.1775 19.6433 12.2892 19.3643C12.1796 19.0829 11.8926 18.8883 11.5864 18.8902H11.198C10.9973 18.8907 10.8335 19.0501 10.8286 19.2504V19.2573L10.8279 19.4698Z" fill="#DD5E26"/>
<path d="M12.3442 19.2599V19.4703C12.3442 19.6737 12.5095 19.8396 12.7136 19.8396H13.1021C13.4203 19.8396 13.6932 19.6431 13.8057 19.3648C13.6948 19.0847 13.4085 18.8882 13.1021 18.8906H12.7136C12.5091 18.8903 12.3441 19.0574 12.3442 19.2599Z" fill="#DD5E26"/>
<path d="M13.8599 19.4689C13.8613 19.6724 14.0239 19.8393 14.2299 19.8391H14.6184C14.9358 19.8391 15.2088 19.6426 15.322 19.3643C15.2104 19.0846 14.9245 18.8879 14.6184 18.8902H14.2299C14.0263 18.89 13.8603 19.0563 13.8606 19.2595L13.8599 19.4689Z" fill="#DD5E26"/>
<path d="M13.9431 19.1281C13.9431 19.3737 14.1427 19.5732 14.3889 19.5732C14.7229 19.5825 14.9473 19.1898 14.775 18.9071C14.6708 18.8775 14.3415 18.8945 14.2297 18.8903C14.0876 18.8934 13.9228 18.968 13.9431 19.1281Z" fill="#EA792E"/>
<path d="M12.4274 19.1281C12.4274 19.3737 12.627 19.5732 12.8725 19.5732C13.2073 19.5824 13.4316 19.19 13.2595 18.9071C13.1553 18.8775 12.8254 18.8945 12.7135 18.8903C12.5698 18.8935 12.4076 18.9678 12.4274 19.1281Z" fill="#EA792E"/>
<path d="M10.9118 19.1281C10.9118 19.3737 11.1107 19.5732 11.3569 19.5732C11.6909 19.5825 11.9153 19.1898 11.743 18.9071C11.6388 18.8775 11.3095 18.8945 11.1977 18.8903C11.0547 18.8935 10.892 18.9678 10.9118 19.1281Z" fill="#EA792E"/>
<path d="M41.6905 24.7952C41.6902 25.4053 41.1964 25.8997 40.5863 25.8994H35.6133V23.6909H40.5863C41.2023 23.689 41.693 24.199 41.6905 24.7952Z" fill="#2E3140"/>
<path d="M41.5964 24.3501C41.4213 24.7454 41.0345 25.0082 40.5863 25.0093H35.6133V23.6909H40.5863C41.0382 23.6909 41.4259 23.9624 41.5964 24.3501Z" fill="#334353"/>
<path d="M39.7494 25.0093H37.0044C36.3892 24.9906 36.3879 24.0964 37.0044 24.0771H39.7494C40.0067 24.0771 40.2154 24.2857 40.2154 24.5432C40.2154 24.8007 40.0069 25.0093 39.7494 25.0093Z" fill="#3E4E60"/>
<path d="M41.1897 22.768L43.7408 20.2168C44.4612 19.5504 45.4485 20.5458 44.7839 21.2599L42.2328 23.8111C42.089 23.9549 41.9002 24.0268 41.7115 24.0263C41.0739 24.0382 40.7212 23.2272 41.1897 22.768Z" fill="#3E4E60"/>
<path d="M41.1898 22.7682L43.741 20.217C43.9567 20.0013 44.2736 19.9473 44.5396 20.0543C44.6467 20.3203 44.5926 20.6372 44.3768 20.8529L41.8256 23.4041C41.6113 23.6178 41.2991 23.6737 41.0275 23.5663C40.9206 23.3004 40.974 22.984 41.1898 22.7682Z" fill="#3F5D77"/>
<path d="M43.969 20.8465C44.0834 20.9609 44.0834 21.1464 43.969 21.2608L42.1993 23.0305C42.0849 23.1449 41.8994 23.1449 41.785 23.0305C41.6706 22.9162 41.6706 22.7307 41.785 22.6163L43.5548 20.8465C43.6691 20.7321 43.8547 20.7321 43.969 20.8465Z" fill="#3F6C8E"/>
<path d="M50.3757 19.255C50.3757 19.1365 50.2797 19.0405 50.1612 19.0405H48.9182V19.4694H50.1612C50.2797 19.4694 50.3757 19.3735 50.3757 19.255Z" fill="#3E4E60"/>
<path d="M50.3757 20.0416C50.3757 19.9231 50.2797 19.8271 50.1612 19.8271H48.9182V20.2561H50.1612C50.2797 20.2561 50.3757 20.1601 50.3757 20.0416Z" fill="#3E4E60"/>
<path d="M49.1712 19.2507C49.1719 19.3962 49.1718 19.8832 49.1718 20.0365C49.1718 20.2408 49.0063 20.4063 48.8019 20.4063H48.4137C47.4137 20.373 47.4068 18.9272 48.4137 18.8901H48.8019C49.003 18.89 49.1669 19.0506 49.1712 19.2507Z" fill="#C44A1A"/>
<path d="M47.6556 19.26C47.6562 19.4767 47.6551 19.8173 47.6556 20.0365C47.6556 20.2409 47.4901 20.4063 47.2857 20.4063H46.8975C45.8979 20.373 45.891 18.9273 46.8981 18.8906H47.2863C47.4901 18.8902 47.6556 19.0556 47.6556 19.26Z" fill="#C44A1A"/>
<path d="M46.1392 19.2599C46.1403 19.4771 46.1393 19.8171 46.1398 20.037C46.1392 20.2409 45.9738 20.4062 45.7704 20.4063L45.3816 20.4068C44.382 20.3734 44.374 18.9274 45.3816 18.8906H45.7698C45.9743 18.8906 46.1398 19.0561 46.1392 19.2599Z" fill="#C44A1A"/>
<path d="M49.1721 19.4698C49.1713 19.6732 49.0054 19.8391 48.8028 19.8391H48.4135C48.0953 19.8391 47.8224 19.6433 47.7107 19.3643C47.8203 19.0829 48.1073 18.8883 48.4135 18.8902H48.8019C49.0026 18.8907 49.1664 19.0501 49.1713 19.2504V19.2573L49.1721 19.4698Z" fill="#DD5E26"/>
<path d="M47.6555 19.2599V19.4703C47.6555 19.6737 47.4903 19.8396 47.2862 19.8396H46.8977C46.5795 19.8396 46.3066 19.6431 46.1941 19.3648C46.305 19.0847 46.5912 18.8882 46.8977 18.8906H47.2862C47.4907 18.8903 47.6557 19.0574 47.6555 19.2599Z" fill="#DD5E26"/>
<path d="M46.1399 19.4689C46.1385 19.6724 45.9758 19.8393 45.7698 19.8391H45.3813C45.064 19.8391 44.7909 19.6426 44.6777 19.3643C44.7893 19.0846 45.0752 18.8879 45.3813 18.8902H45.7698C45.9735 18.89 46.1394 19.0563 46.1392 19.2595L46.1399 19.4689Z" fill="#DD5E26"/>
<path d="M46.0567 19.1281C46.0567 19.3737 45.8571 19.5732 45.6109 19.5732C45.2769 19.5825 45.0525 19.1898 45.2247 18.9071C45.3289 18.8775 45.6582 18.8945 45.77 18.8903C45.9122 18.8934 46.0769 18.968 46.0567 19.1281Z" fill="#EA792E"/>
<path d="M47.5723 19.1281C47.5723 19.3737 47.3728 19.5732 47.1273 19.5732C46.7925 19.5824 46.5682 19.19 46.7403 18.9071C46.8445 18.8775 47.1744 18.8945 47.2863 18.8903C47.43 18.8935 47.5921 18.9678 47.5723 19.1281Z" fill="#EA792E"/>
<path d="M49.0879 19.1281C49.0879 19.3737 48.8891 19.5732 48.6429 19.5732C48.3089 19.5825 48.0845 19.1898 48.2567 18.9071C48.3609 18.8775 48.6902 18.8945 48.802 18.8903C48.9451 18.8935 49.1077 18.9678 49.0879 19.1281Z" fill="#EA792E"/>
<path d="M39.1729 20.545C39.1729 20.961 39.0041 21.336 38.7322 21.6079C38.4604 21.8798 38.083 22.0485 37.6682 22.0485H34.1807V19.0415H37.6682C38.3361 19.0415 38.9033 19.4774 39.099 20.0798C39.1471 20.2263 39.1729 20.3821 39.1729 20.545Z" fill="#2E3140"/>
<path d="M39.099 20.0798C39.0252 20.3083 38.8975 20.5122 38.7322 20.6774C38.4604 20.9493 38.083 21.1181 37.6682 21.1181H34.1807V19.0415H37.6682C38.3361 19.0414 38.9033 19.4774 39.099 20.0798Z" fill="#334353"/>
<path d="M37.1065 21.1182H35.5581C35.2479 21.1182 34.9966 20.8668 34.9966 20.5567C34.9966 20.2465 35.2481 19.9951 35.5581 19.9951H37.1065C37.4167 19.9951 37.6681 20.2466 37.6681 20.5567C37.6682 20.8668 37.4167 21.1182 37.1065 21.1182Z" fill="#3E4E60"/>
<path d="M40.2492 16.5267V19.3274C40.2492 19.9216 39.7675 20.4032 39.1734 20.4032C39.0257 20.4032 38.8851 20.3739 38.7574 20.32C38.3695 20.1571 38.0964 19.7739 38.0964 19.3274V16.5267C38.0964 16.0802 38.3695 15.697 38.7574 15.5329C38.8851 15.479 39.0257 15.4497 39.1734 15.4497C39.4699 15.4497 39.7394 15.5704 39.9339 15.7649C40.1285 15.9606 40.2492 16.229 40.2492 16.5267Z" fill="#3E4E60"/>
<path d="M39.416 16.5265V19.3272C39.416 19.7737 39.1441 20.1569 38.7574 20.3198C38.3695 20.1569 38.0964 19.7737 38.0964 19.3272V16.5265C38.0964 16.08 38.3695 15.6968 38.7574 15.5327C38.8863 15.5878 39.0035 15.6675 39.1007 15.7647C39.2953 15.9604 39.416 16.2288 39.416 16.5265Z" fill="#3F5D77"/>
<path d="M38.9995 16.5269C39.2295 16.5269 39.416 16.7133 39.416 16.9433V18.9112C39.416 19.1412 39.2295 19.3276 38.9995 19.3276C38.7695 19.3276 38.583 19.1412 38.583 18.9112V16.9433C38.583 16.7133 38.7695 16.5269 38.9995 16.5269Z" fill="#3F6C8E"/>
<path d="M42.5366 14.0729L40.5561 16.0534C40.136 16.4735 39.4548 16.4735 39.0346 16.0534C38.9302 15.949 38.8515 15.8289 38.7993 15.7003C38.6402 15.3109 38.7181 14.8468 39.0338 14.5311L41.0143 12.5507C41.33 12.235 41.7941 12.157 42.1843 12.3154C42.3127 12.3675 42.433 12.4463 42.5374 12.5507C42.747 12.7603 42.8523 13.0363 42.8523 13.3114C42.8514 13.5873 42.747 13.8625 42.5366 14.0729Z" fill="#C44A1A"/>
<path d="M41.9473 13.4837L39.9669 15.4642C39.6512 15.7799 39.1879 15.8586 38.7993 15.7003C38.6402 15.3109 38.7181 14.8468 39.0338 14.5311L41.0143 12.5507C41.33 12.235 41.7941 12.157 42.1843 12.3154C42.2366 12.4454 42.263 12.5847 42.263 12.7222C42.2622 12.9981 42.1578 13.2732 41.9473 13.4837Z" fill="#DD5E26"/>
<path d="M41.6528 13.1893C41.8154 13.3519 41.8154 13.6156 41.6528 13.7783L40.2613 15.1698C40.0986 15.3324 39.8349 15.3324 39.6723 15.1698C39.5096 15.0071 39.5096 14.7434 39.6723 14.5808L41.0638 13.1893C41.2265 13.0267 41.4902 13.0267 41.6528 13.1893Z" fill="#EA792E"/>
<path d="M40.8138 12.1181L39.6464 10.9507C38.6523 9.9566 38.0938 8.60824 38.0938 7.20223V4.96582L43.0299 9.90199L40.8138 12.1181Z" fill="#DD5E26"/>
<path d="M40.8338 8.18561C39.8088 9.21064 39.7087 10.8714 40.665 11.9609C41.727 13.1711 43.5783 13.2056 44.6853 12.0644C45.7166 11.0015 45.6591 9.23279 44.612 8.18561L41.545 5.11869C40.4839 4.05756 39.0446 3.46143 37.5439 3.46143C37.1912 3.46143 37.0146 3.88787 37.264 4.13725L40.8337 7.70701C40.9659 7.8392 40.9659 8.05342 40.8338 8.18561Z" fill="#C44A1A"/>
<path d="M40.4415 4.83378L43.6033 7.99562C43.8062 8.19847 43.8062 8.52729 43.6033 8.73015C43.4005 8.933 43.0716 8.933 42.8688 8.73015L39.7068 5.56831C39.504 5.36546 39.504 5.03663 39.7068 4.83378C39.9098 4.63093 40.2386 4.63093 40.4415 4.83378Z" fill="#DD5E26"/>
<path d="M41.0101 5.40254L42.3809 6.7734C42.5838 6.97625 42.5838 7.30508 42.3809 7.50793C42.1781 7.71078 41.8493 7.71078 41.6464 7.50793L40.2757 6.13707C40.0728 5.93422 40.0728 5.60539 40.2757 5.40254C40.4784 5.1998 40.8072 5.1998 41.0101 5.40254Z" fill="#EA792E"/>
<path d="M39.7263 7.41136L39.8443 8.58733C39.8729 8.87269 39.6648 9.12733 39.3794 9.15593C39.0941 9.18452 38.8394 8.9764 38.8108 8.69104L38.6928 7.51507C38.6642 7.22972 38.8723 6.97507 39.1577 6.94647C39.443 6.91788 39.6976 7.12601 39.7263 7.41136Z" fill="#EA792E"/>
<path d="M44.0632 11.649C43.2907 12.4216 42.0336 12.4216 41.261 11.649C41.1008 11.4888 41.1008 11.2291 41.261 11.0689C41.4212 10.9087 41.6809 10.9087 41.8411 11.0689C42.2939 11.5217 43.0304 11.5217 43.4831 11.0689C43.6433 10.9087 43.903 10.9087 44.0632 11.0689C44.2234 11.2291 44.2234 11.4889 44.0632 11.649Z" fill="#DD5E26"/>
<path d="M20.8267 20.545C20.8267 20.961 20.9954 21.336 21.2673 21.6079C21.5392 21.8798 21.9165 22.0485 22.3313 22.0485H25.8188V19.0415H22.3313C21.6634 19.0415 21.0962 19.4774 20.9005 20.0798C20.8524 20.2263 20.8267 20.3821 20.8267 20.545Z" fill="#2E3140"/>
<path d="M20.9004 20.0798C20.9742 20.3083 21.102 20.5122 21.2672 20.6774C21.5391 20.9493 21.9164 21.1181 22.3312 21.1181H25.8188V19.0415H22.3312C21.6633 19.0414 21.0961 19.4774 20.9004 20.0798Z" fill="#334353"/>
<path d="M22.8931 21.1182H24.4415C24.7517 21.1182 25.0031 20.8668 25.0031 20.5567C25.0031 20.2465 24.7516 19.9951 24.4415 19.9951H22.8931C22.5829 19.9951 22.3315 20.2466 22.3315 20.5567C22.3314 20.8668 22.5829 21.1182 22.8931 21.1182Z" fill="#3E4E60"/>
<path d="M19.7502 16.5267V19.3274C19.7502 19.9216 20.2319 20.4032 20.826 20.4032C20.9737 20.4032 21.1143 20.3739 21.242 20.32C21.6299 20.1571 21.903 19.7739 21.903 19.3274V16.5267C21.903 16.0802 21.6299 15.697 21.242 15.5329C21.1143 15.479 20.9737 15.4497 20.826 15.4497C20.5295 15.4497 20.26 15.5704 20.0655 15.7649C19.8709 15.9606 19.7502 16.229 19.7502 16.5267Z" fill="#3E4E60"/>
<path d="M20.5835 16.5265V19.3272C20.5835 19.7737 20.8554 20.1569 21.2421 20.3198C21.63 20.1569 21.903 19.7737 21.903 19.3272V16.5265C21.903 16.08 21.63 15.6968 21.2421 15.5327C21.1132 15.5878 20.996 15.6675 20.8987 15.7647C20.7042 15.9604 20.5835 16.2288 20.5835 16.5265Z" fill="#3F5D77"/>
<path d="M21 16.5269C20.7699 16.5269 20.5835 16.7133 20.5835 16.9433V18.9112C20.5835 19.1412 20.7699 19.3276 21 19.3276C21.23 19.3276 21.4165 19.1412 21.4165 18.9112V16.9433C21.4165 16.7133 21.23 16.5269 21 16.5269Z" fill="#3F6C8E"/>
<path d="M17.4629 14.0729L19.4434 16.0534C19.8635 16.4735 20.5447 16.4735 20.9648 16.0534C21.0692 15.949 21.148 15.8289 21.2001 15.7003C21.3593 15.3109 21.2814 14.8468 20.9657 14.5311L18.9852 12.5507C18.6695 12.235 18.2054 12.157 17.8152 12.3154C17.6867 12.3675 17.5665 12.4463 17.4621 12.5507C17.2525 12.7603 17.1472 13.0363 17.1472 13.3114C17.148 13.5873 17.2525 13.8625 17.4629 14.0729Z" fill="#C44A1A"/>
<path d="M18.052 13.4837L20.0325 15.4642C20.3482 15.7799 20.8114 15.8586 21.2 15.7003C21.3592 15.3109 21.2812 14.8468 20.9655 14.5311L18.9851 12.5507C18.6694 12.235 18.2053 12.157 17.8151 12.3154C17.7628 12.4454 17.7363 12.5847 17.7363 12.7222C17.7371 12.9981 17.8416 13.2732 18.052 13.4837Z" fill="#DD5E26"/>
<path d="M18.3466 13.1893C18.1839 13.3519 18.1839 13.6156 18.3466 13.7783L19.7381 15.1698C19.9007 15.3324 20.1644 15.3324 20.3271 15.1698C20.4897 15.0071 20.4897 14.7434 20.3271 14.5808L18.9356 13.1893C18.7728 13.0267 18.5091 13.0267 18.3466 13.1893Z" fill="#EA792E"/>
<path d="M19.1856 12.1181L20.353 10.9507C21.3471 9.9566 21.9057 8.60824 21.9057 7.20223V4.96582L16.9695 9.90199L19.1856 12.1181Z" fill="#DD5E26"/>
<path d="M19.1655 8.18561C20.1906 9.21064 20.2907 10.8714 19.3344 11.9609C18.2723 13.1711 16.4211 13.2056 15.3141 12.0644C14.2828 11.0015 14.3402 9.23279 15.3874 8.18561L18.4543 5.11869C19.5155 4.05756 20.9548 3.46143 22.4555 3.46143C22.8082 3.46143 22.9848 3.88787 22.7354 4.13725L19.1657 7.70701C19.0335 7.8392 19.0335 8.05342 19.1655 8.18561Z" fill="#C44A1A"/>
<path d="M19.5581 4.83378L16.3963 7.99562C16.1934 8.19847 16.1934 8.52729 16.3963 8.73015C16.5991 8.933 16.928 8.933 17.1308 8.73015L20.2926 5.56831C20.4955 5.36546 20.4955 5.03663 20.2926 4.83378C20.0898 4.63093 19.761 4.63093 19.5581 4.83378Z" fill="#DD5E26"/>
<path d="M18.9891 5.40254L17.6182 6.7734C17.4154 6.97625 17.4154 7.30508 17.6182 7.50793C17.8211 7.71078 18.1499 7.71078 18.3527 7.50793L19.7236 6.13707C19.9264 5.93422 19.9264 5.60539 19.7236 5.40254C19.5207 5.1998 19.1919 5.1998 18.9891 5.40254Z" fill="#EA792E"/>
<path d="M20.273 7.41136L20.155 8.58733C20.1264 8.87269 20.3345 9.12733 20.6199 9.15593C20.9052 9.18452 21.1599 8.9764 21.1884 8.69104L21.3065 7.51507C21.335 7.22972 21.1269 6.97507 20.8416 6.94647C20.5562 6.91788 20.3017 7.12601 20.273 7.41136Z" fill="#EA792E"/>
<path d="M15.9363 11.649C16.7089 12.4216 17.9659 12.4216 18.7385 11.649C18.8987 11.4888 18.8987 11.2291 18.7385 11.0689C18.5783 10.9087 18.3186 10.9087 18.1584 11.0689C17.7056 11.5217 16.9691 11.5217 16.5164 11.0689C16.3562 10.9087 16.0965 10.9087 15.9363 11.0689C15.7761 11.2291 15.7761 11.4889 15.9363 11.649Z" fill="#DD5E26"/>
<path d="M31.502 34.6314H28.498C25.8748 34.6314 23.7942 32.4195 23.9548 29.8007L24.7721 16.4561H35.2277L36.0451 29.8007C36.2058 32.4195 34.1252 34.6314 31.502 34.6314Z" fill="#746087"/>
<path d="M31.502 34.6314H30V16.4561H35.2279L36.0452 29.8007C36.2058 32.4195 34.1252 34.6314 31.502 34.6314Z" fill="#9175A7"/>
<path d="M33.0304 21.6739H30V19.7007H33.0304C33.5753 19.7007 34.017 20.1424 34.017 20.6873C34.017 21.2321 33.5752 21.6739 33.0304 21.6739Z" fill="#A583BB"/>
<path d="M33.7768 25.4796H30V23.5063H33.7768C34.3218 23.5063 34.7634 23.948 34.7634 24.4929C34.7634 25.0379 34.3216 25.4796 33.7768 25.4796Z" fill="#A583BB"/>
<path d="M33.7768 29.2857H30V27.3125H33.7768C34.3218 27.3125 34.7634 27.7542 34.7634 28.2991C34.7634 28.844 34.3216 29.2857 33.7768 29.2857Z" fill="#A583BB"/>
<path d="M32.2838 33.0919H30V31.1187H32.2838C32.8287 31.1187 33.2704 31.5603 33.2704 32.1053C33.2704 32.6501 32.8287 33.0919 32.2838 33.0919Z" fill="#A583BB"/>
<path d="M26.9698 21.6739H30.0001V19.7007H26.9698C26.4248 19.7007 25.9832 20.1424 25.9832 20.6873C25.9832 21.2321 26.425 21.6739 26.9698 21.6739Z" fill="#9175A7"/>
<path d="M26.2232 25.4796H30V23.5063H26.2232C25.6783 23.5063 25.2366 23.948 25.2366 24.4929C25.2366 25.0379 25.6784 25.4796 26.2232 25.4796Z" fill="#9175A7"/>
<path d="M26.2232 29.2857H30V27.3125H26.2232C25.6783 27.3125 25.2366 27.7542 25.2366 28.2991C25.2366 28.844 25.6784 29.2857 26.2232 29.2857Z" fill="#9175A7"/>
<path d="M27.7163 33.0919H30.0001V31.1187H27.7163C27.1714 31.1187 26.7297 31.5603 26.7297 32.1053C26.7297 32.6501 27.1714 33.0919 27.7163 33.0919Z" fill="#9175A7"/>
<path d="M32.4539 10.0219V12.0164H30.9011V10.0219C30.9011 9.675 31.1296 9.38086 31.4437 9.28242C31.5175 9.25898 31.596 9.24609 31.6781 9.24609C32.107 9.24609 32.4539 9.59297 32.4539 10.0219Z" fill="#9175A7"/>
<path d="M32.4538 10.0219V11.2758H32.0834C31.7295 11.2758 31.4436 10.9898 31.4436 10.6359V9.28242C31.5174 9.25898 31.5959 9.24609 31.678 9.24609C32.1069 9.24609 32.4538 9.59297 32.4538 10.0219Z" fill="#A583BB"/>
<path d="M29.0989 10.0219V12.0164H27.5461V10.0219C27.5461 9.675 27.7735 9.38086 28.0875 9.28242C28.1614 9.25898 28.2399 9.24609 28.3219 9.24609C28.7508 9.24609 29.0989 9.59297 29.0989 10.0219Z" fill="#746087"/>
<path d="M29.099 10.0219V11.2758H28.7275C28.3748 11.2758 28.0876 10.9898 28.0876 10.6359V9.28242C28.1615 9.25898 28.24 9.24609 28.322 9.24609C28.7509 9.24609 29.099 9.59297 29.099 10.0219Z" fill="#9175A7"/>
<path d="M35.2278 15.0829V16.4565C35.2278 17.4829 34.3954 18.316 33.3683 18.316H26.6317C25.6046 18.316 24.7722 17.4829 24.7722 16.4565V15.0829C24.7722 13.2279 26.2764 11.7236 28.1315 11.7236H31.8685C33.7236 11.7236 35.2278 13.2279 35.2278 15.0829Z" fill="#9175A7"/>
<path d="M35.2279 15.0829V16.4565C35.2279 17.4829 34.3955 18.316 33.3683 18.316H30V11.7236H31.8686C33.7236 11.7236 35.2279 13.2279 35.2279 15.0829Z" fill="#A583BB"/>
<path d="M32.207 12.6812C32.5414 12.8743 32.6578 13.2997 32.4695 13.6357C32.4683 13.6387 32.4667 13.6415 32.465 13.6444L32.2198 14.0692C31.7197 14.8633 30.561 14.1881 30.998 13.3638L31.2432 12.939C31.4384 12.6017 31.8695 12.4863 32.207 12.6812Z" fill="#2E3140"/>
<path d="M32.2069 12.6812C32.5414 12.8743 32.6577 13.2997 32.4694 13.6357C32.0282 13.8826 31.3755 13.8045 30.9617 13.4363C30.9749 13.3949 31.217 12.9873 31.2432 12.939C31.4383 12.6017 31.8694 12.4863 32.2069 12.6812Z" fill="#3E4E60"/>
<path d="M31.5944 12.9677L31.4469 13.2233C31.3833 13.3333 31.4211 13.4741 31.5311 13.5377C31.6412 13.6012 31.7819 13.5635 31.8455 13.4534L31.9931 13.1978C32.138 12.9311 31.7528 12.7086 31.5944 12.9677Z" fill="white"/>
<path d="M27.793 12.6812C27.4585 12.8743 27.3421 13.2997 27.5305 13.6357C27.5316 13.6387 27.5333 13.6415 27.5349 13.6444L27.7802 14.0692C28.2802 14.8633 29.439 14.1881 29.002 13.3638L28.7567 12.939C28.5616 12.6017 28.1305 12.4863 27.793 12.6812Z" fill="#2E3140"/>
<path d="M27.793 12.6812C27.4585 12.8743 27.3421 13.2997 27.5305 13.6357C27.9717 13.8826 28.6244 13.8045 29.0382 13.4363C29.025 13.3949 28.7829 12.9873 28.7567 12.939C28.5616 12.6017 28.1305 12.4863 27.793 12.6812Z" fill="#3E4E60"/>
<path d="M28.4055 12.9677L28.5531 13.2233C28.6166 13.3333 28.5789 13.4741 28.4688 13.5377C28.3588 13.6012 28.218 13.5635 28.1544 13.4534L28.0069 13.1978C27.8619 12.9311 28.2471 12.7086 28.4055 12.9677Z" fill="white"/>
</g>
<defs>
<clipPath id="clip0_1123_25721">
<rect width="60" height="60" fill="white"/>
</clipPath>
</defs>
</svg>
