<svg width="60" height="60" viewBox="0 0 60 60" fill="none" xmlns="http://www.w3.org/2000/svg">
<g clip-path="url(#clip0_1123_24449)">
<path d="M30 60C46.5685 60 60 46.5685 60 30C60 13.4315 46.5685 0 30 0C13.4315 0 0 13.4315 0 30C0 46.5685 13.4315 60 30 60Z" fill="#6C53A2"/>
<path d="M52.1014 33.7102C52.1014 34.6078 51.8342 35.5137 51.2787 36.2168C49.6158 38.3203 47.3612 39.5016 45.0104 39.5016H9.64787C9.15217 39.5016 8.70334 39.2473 8.37756 38.836C7.31701 37.5508 7.94197 34.9855 9.64787 34.9559C10.3059 34.9144 14.4994 35.0652 15.0127 34.8434C15.2764 34.7694 15.533 34.6594 15.7791 34.5129C17.776 33.3293 19.9545 32.7153 22.16 32.7153H37.6826C40.314 32.675 41.2733 30.4637 42.6162 28.5082C43.5654 27.0844 45.1803 26.7129 46.4647 27.6246L50.667 30.6082C51.6384 31.3046 52.0999 32.5203 52.1014 33.7102Z" fill="#9175A7"/>
<path d="M52.1014 33.71C52.1014 34.6076 51.8342 35.5135 51.2787 36.2166C49.6158 38.3201 47.3611 39.5014 45.0103 39.5014H9.64784C8.52577 39.4744 7.8455 38.3373 7.85136 37.2291H13.808C16.1412 37.2291 18.4533 36.7896 20.6224 35.933C22.7909 35.0744 25.1048 34.6363 27.4381 34.6357H43.2514C44.5779 34.6357 45.8506 34.1084 46.7881 33.1709C47.6735 32.2851 48.8732 31.7879 50.1256 31.7881H51.6596C51.9514 32.3658 52.1014 33.035 52.1014 33.71Z" fill="#A583BB"/>
<path d="M40.5836 37.5611H27.0576C25.1205 37.4843 25.1139 34.7154 27.0576 34.6357H40.5836C42.5207 34.7125 42.5273 37.4814 40.5836 37.5611Z" fill="#C2AACF"/>
<path d="M20.94 38.3662C20.9392 38.9927 20.432 39.5023 19.8045 39.5018H9.64782C8.52329 39.4749 7.84724 38.3376 7.85134 37.2295H19.8045C20.4314 37.2295 20.94 37.7381 20.94 38.3662Z" fill="#C2AACF"/>
<path d="M52.5057 22.3583V23.3802C52.5728 25.8437 50.8015 28.4141 48.5776 28.35H41.285C40.6334 28.35 40.0053 28.7215 39.6233 29.3895C39.0807 30.334 38.2018 30.961 37.1881 30.961C36.3479 30.961 35.51 30.8707 34.6815 30.6914L26.1561 28.8457C25.6908 28.7449 25.2268 29.0496 25.0322 29.5946C24.744 30.3996 24.1029 30.961 23.3576 30.961H18.7967C17.5861 30.961 16.4822 30.3809 15.649 29.4281C15.3069 29.0367 14.7819 29.0848 14.4666 29.5113C13.808 30.4031 12.8705 30.961 11.8287 30.961H8.49591C7.7131 30.961 7.00294 30.559 6.49084 29.9098C5.94709 29.2181 5.65494 28.2907 5.65998 27.3727C5.65998 25.7438 6.52834 24.3188 7.77287 23.9039L12.9783 22.1684C13.7459 21.9117 14.5029 22.2656 14.9705 22.9571C15.3397 23.5031 15.8998 23.7785 16.4623 23.6766L25.1951 22.0853L37.5737 19.8294C38.6712 19.6451 39.6964 18.8746 40.3873 17.849C41.2696 16.6497 42.4987 16.0705 43.8197 16.1521C44.9295 16.1521 45.9959 16.7052 46.7869 17.6908L47.2018 18.2087C47.8897 19.0654 48.8154 19.5447 49.7811 19.5447H50.2815C51.5108 19.5447 52.5057 20.8044 52.5057 22.3583Z" fill="#9175A7"/>
<path d="M52.5057 22.3583C52.5019 22.9363 52.5327 23.7985 52.4307 24.3552H41.128C40.4014 24.3552 39.7042 24.6435 39.1897 25.1579C38.0907 26.3756 36.7616 27.1277 35.0917 27.1278H29.9389C29.0221 27.1652 27.971 26.7496 27.1147 26.454C26.4034 26.2103 25.6147 26.3989 25.0897 26.9368L24.7089 27.3271C23.8956 28.1603 22.7811 28.6302 21.6163 28.6302H19.9956C18.9156 28.6439 17.8961 28.2003 17.0706 27.5204C15.9046 26.6603 14.3026 26.7048 13.1882 27.6294L12.8542 27.9048C12.2893 28.3735 11.578 28.6302 10.8444 28.6302H5.83933C5.40504 27.2308 5.76386 25.4038 6.86472 24.4384C7.13425 24.1981 7.44011 24.0153 7.77293 23.904L12.7206 22.254L12.9784 22.1685C13.746 21.9118 14.503 22.2657 14.9706 22.9571C15.3289 23.4914 15.9005 23.7823 16.4624 23.6767C21.4833 22.7617 32.4756 20.7585 37.5737 19.8294C38.7074 19.6408 39.7338 18.8231 40.3874 17.8489C41.2696 16.6494 42.4989 16.0707 43.8198 16.1521C44.9296 16.1521 45.996 16.7052 46.787 17.6907L47.2018 18.2087C47.8426 19.0121 48.7691 19.5462 49.7811 19.5446H50.2815C51.5108 19.5446 52.5057 20.8044 52.5057 22.3583Z" fill="#A583BB"/>
<path d="M48.1945 19.089C45.96 21.2831 41.6157 21.1443 39.5847 18.789C39.8773 18.527 40.1505 18.1798 40.3875 17.8492C41.1867 16.7676 42.3046 16.1523 43.4765 16.1523C44.7332 16.0765 45.9092 16.5914 46.7871 17.691C47.1725 18.1937 47.6567 18.7924 48.1945 19.089Z" fill="#C2AACF"/>
<path d="M15.0058 23.0076C14.9865 24.2656 14.1344 25.3934 12.9292 25.7557L11.5242 26.1846L9.60464 26.842L8.95308 27.0424C7.81987 27.3892 6.59409 27.0201 5.84058 26.1166C6.15194 25.0912 6.79261 24.2459 7.773 23.9041L12.7207 22.2541C13.6166 21.8722 14.4542 22.1669 15.0058 23.0076Z" fill="#C2AACF"/>
<path d="M35.3905 23.8937L19.4202 25.771C18.0433 25.9339 16.7671 25.0292 16.4624 23.6769C23.4751 22.399 30.5611 21.1073 37.5737 19.8296L37.7366 20.7155C38.0202 22.2542 36.9433 23.7108 35.3905 23.8937Z" fill="#C2AACF"/>
<path d="M23.4208 24.3282C23.1105 24.3863 22.797 24.1712 22.7435 23.8513L22.522 22.5728L23.6751 22.3618L23.8989 23.6509C23.954 23.9696 23.7396 24.2731 23.4208 24.3282Z" fill="#A583BB"/>
<path d="M20.8019 24.6363C20.49 24.6913 20.1781 24.4801 20.1245 24.1594L19.9312 23.0449L21.0831 22.834L21.2788 23.959C21.3339 24.2777 21.1206 24.5812 20.8019 24.6363Z" fill="#A583BB"/>
<path d="M18.1814 24.9444C17.8696 24.9994 17.5577 24.7883 17.5041 24.4675L17.3389 23.5171L18.492 23.3062L18.6584 24.2671C18.7135 24.5858 18.5002 24.8894 18.1814 24.9444Z" fill="#A583BB"/>
<path d="M26.0412 24.0201C25.7298 24.0784 25.4173 23.8631 25.3638 23.5432L25.113 22.1006L26.2662 21.8896L26.5181 23.3428C26.5744 23.6615 26.3599 23.965 26.0412 24.0201Z" fill="#A583BB"/>
<path d="M28.6616 23.712C28.3499 23.7699 28.0378 23.5563 27.9842 23.2351L27.7053 21.6284L28.8573 21.4175L29.1385 23.0347C29.1936 23.3534 28.9803 23.6569 28.6616 23.712Z" fill="#A583BB"/>
<path d="M31.2817 23.4046C30.9699 23.4596 30.6579 23.2485 30.6044 22.9276L30.2974 21.1558L31.4493 20.9448L31.7587 22.7272C31.8138 23.046 31.6005 23.3483 31.2817 23.4046Z" fill="#A583BB"/>
<path d="M33.9009 23.0965C33.5903 23.1516 33.2784 22.9403 33.2235 22.6195L32.8872 20.6836L34.0415 20.4727L34.379 22.4191C34.4341 22.7379 34.2208 23.0414 33.9009 23.0965Z" fill="#A583BB"/>
<path d="M36.5213 22.7884C36.2098 22.8435 35.8974 22.6322 35.8439 22.3114L35.4795 20.2114C35.4798 20.2115 36.632 20 36.6326 20.0005L36.9982 22.111C37.0545 22.4298 36.84 22.7333 36.5213 22.7884Z" fill="#A583BB"/>
<path d="M49.8568 24.3552H43.0454C41.8521 24.3147 41.8487 22.591 43.0454 22.5493H49.8568C50.3555 22.5493 50.7598 22.9536 50.7598 23.4522C50.7598 23.9509 50.3555 24.3552 49.8568 24.3552Z" fill="#C2AACF"/>
<path d="M46.6252 20.4081C46.6263 21.5993 45.6509 22.5524 44.4842 22.5492H41.5463C40.3637 22.5495 39.4049 21.5908 39.4053 20.4081C39.4 19.2226 40.3832 18.2606 41.5463 18.2671H44.4842C45.6662 18.2667 46.625 19.2255 46.6252 20.4081Z" fill="#746087"/>
<path d="M46.6252 20.4083C46.6252 21.1618 46.2362 21.824 45.6479 22.2048C43.2245 22.015 41.3284 20.331 41.3213 18.279C41.2864 18.254 44.4136 18.2728 44.4842 18.2673C45.6662 18.2668 46.625 19.2257 46.6252 20.4083Z" fill="#9175A7"/>
<path d="M45.8166 20.4085C45.8166 21.1784 45.1919 21.8019 44.4232 21.8019H41.6072C39.7588 21.7285 39.7583 19.0899 41.6072 19.0151H44.4232C45.1922 19.0148 45.8168 19.6406 45.8166 20.4085Z" fill="#53B976"/>
<path d="M43.6756 20.4085C43.6756 20.9358 43.4939 21.4198 43.1881 21.8019H41.6072C40.8365 21.8016 40.2141 21.1792 40.2139 20.4085C40.2139 19.6397 40.8373 19.0151 41.6072 19.0151H43.1869C43.4928 19.396 43.6756 19.8812 43.6756 20.4085Z" fill="#2E3140"/>
<path d="M43.6755 20.4085C43.6755 20.9358 43.4939 21.4198 43.188 21.8019H42.2095C41.8589 20.9494 41.8589 19.8676 42.2095 19.0151H43.1868C43.4927 19.396 43.6755 19.8812 43.6755 20.4085Z" fill="#3E4E60"/>
<path d="M44.7393 19.6846H43.0888C42.7665 19.6846 42.5051 19.9459 42.5051 20.2683C42.5051 20.5907 42.7665 20.852 43.0888 20.852H44.7393C45.5104 20.8284 45.5111 19.7085 44.7393 19.6846Z" fill="#83D5EF"/>
<path d="M12.3246 25.0653C12.3263 25.5663 12.0003 26.023 11.5242 26.1845L9.60464 26.8419C8.10159 27.2928 7.37175 25.1722 8.83823 24.6024L10.7566 23.945C11.5072 23.6716 12.337 24.2714 12.3246 25.0653Z" fill="#2E3140"/>
<path d="M11.98 25.8985C11.8558 26.0239 11.7023 26.1235 11.5241 26.1845L9.6046 26.8419C8.68022 27.1699 7.76733 26.2401 8.10694 25.3278C9.3401 25.0407 11.0662 25.2734 11.98 25.8985Z" fill="#3E4E60"/>
<path d="M9.5916 29.9296V33.0749C9.5916 33.3784 9.22246 33.5272 9.01152 33.3093C8.94004 33.2354 8.8709 33.1593 8.80527 33.0808C8.46543 32.6812 8.1959 32.2323 8.00137 31.7519C7.76934 31.1788 7.64746 30.5601 7.64746 29.9296C7.64711 29.5169 7.98227 29.1829 8.39395 29.1831H8.84395C9.25762 29.1831 9.5916 29.5171 9.5916 29.9296Z" fill="#FBD9A3"/>
<path d="M8.80527 29.5945V31.6237C8.80527 32.0712 8.18617 32.1993 8.0152 31.7858C7.77402 31.2027 7.64746 30.5727 7.64746 29.9296C7.64746 29.7233 7.73066 29.537 7.86543 29.4022C8.14117 29.1018 8.78289 29.0729 8.80527 29.5945Z" fill="#FAEFDC"/>
<path d="M12.3977 35.4176L10.9202 32.6409C10.7776 32.3729 10.3818 32.4149 10.298 32.7065C10.1264 33.307 10.0728 33.9403 10.1378 34.556C10.2022 35.1708 10.3852 35.7744 10.6814 36.3309C10.875 36.6954 11.3276 36.8328 11.691 36.6392L12.0883 36.4278C12.4535 36.2335 12.5914 35.7817 12.3977 35.4176Z" fill="#FBD9A3"/>
<path d="M11.8608 36.0827L10.9076 34.2912C10.6975 33.8962 10.0908 34.074 10.134 34.5193C10.195 35.1474 10.3792 35.763 10.6813 36.3307C10.7782 36.5128 10.9391 36.6382 11.1215 36.6938C11.5025 36.8319 12.0884 36.5496 11.8608 36.0827Z" fill="#FAEFDC"/>
<path d="M16.4241 34.8957L14.9466 32.1189C14.8039 31.8509 14.4082 31.893 14.3244 32.1845C14.1527 32.785 14.0992 33.4183 14.1642 34.034C14.2285 34.6489 14.4116 35.2524 14.7077 35.8089C14.9013 36.1735 15.354 36.3108 15.7174 36.1172L16.1147 35.9058C16.4798 35.7115 16.6178 35.2599 16.4241 34.8957Z" fill="#FBD9A3"/>
<path d="M15.8874 35.5607L14.9342 33.7693C14.7241 33.3742 14.1174 33.552 14.1606 33.9973C14.2216 34.6254 14.4058 35.241 14.7079 35.8088C14.8048 35.9909 14.9657 36.1163 15.1481 36.172C15.529 36.3099 16.1149 36.0276 15.8874 35.5607Z" fill="#FAEFDC"/>
<path d="M25.4587 32.7633L23.9812 29.9866C23.8386 29.7186 23.4429 29.7606 23.3591 30.0522C23.1874 30.6527 23.1338 31.286 23.1989 31.9017C23.2632 32.5165 23.4463 33.1201 23.7424 33.6766C23.936 34.0411 24.3887 34.1785 24.7521 33.9849L25.1493 33.7735C25.5145 33.5792 25.6526 33.1276 25.4587 32.7633Z" fill="#FBD9A3"/>
<path d="M24.9221 33.4284L23.9689 31.6369C23.7588 31.2419 23.1521 31.4197 23.1953 31.865C23.2563 32.4931 23.4405 33.1087 23.7426 33.6764C23.8395 33.8585 24.0004 33.9839 24.1827 34.0395C24.5637 34.1776 25.1496 33.8953 24.9221 33.4284Z" fill="#FAEFDC"/>
<path d="M31.7637 32.9977L30.2862 30.221C30.1435 29.9529 29.7478 29.995 29.664 30.2866C29.4923 30.887 29.4388 31.5203 29.5038 32.136C29.5681 32.7509 29.7512 33.3544 30.0473 33.911C30.2409 34.2755 30.6936 34.4129 31.057 34.2193L31.4543 34.0079C31.8194 33.8136 31.9574 33.3619 31.7637 32.9977Z" fill="#FBD9A3"/>
<path d="M31.227 33.6628L30.2738 31.8713C30.0637 31.4763 29.457 31.6541 29.5002 32.0994C29.5612 32.7275 29.7454 33.3431 30.0475 33.9107C30.1444 34.0928 30.3053 34.2182 30.4877 34.2739C30.8686 34.4119 31.4545 34.1296 31.227 33.6628Z" fill="#FAEFDC"/>
<path d="M36.9194 32.9977L35.4419 30.221C35.2993 29.9529 34.9036 29.995 34.8198 30.2866C34.6481 30.887 34.5945 31.5203 34.6596 32.136C34.7239 32.7509 34.907 33.3544 35.2031 33.911C35.3967 34.2755 35.8494 34.4129 36.2128 34.2193L36.61 34.0079C36.9752 33.8136 37.1132 33.3619 36.9194 32.9977Z" fill="#FBD9A3"/>
<path d="M36.3828 33.6628L35.4296 31.8713C35.2194 31.4763 34.6128 31.6541 34.656 32.0994C34.7169 32.7275 34.9012 33.3431 35.2033 33.9107C35.3002 34.0928 35.4611 34.2182 35.6434 34.2739C36.0244 34.4119 36.6103 34.1296 36.3828 33.6628Z" fill="#FAEFDC"/>
<path d="M13.0435 29.5927V32.738C13.0435 33.0415 12.6744 33.1903 12.4634 32.9724C12.3919 32.8985 12.3228 32.8224 12.2572 32.7438C11.9173 32.3442 11.6478 31.8954 11.4533 31.4149C11.2212 30.8419 11.0994 30.2231 11.0994 29.5927C11.099 29.1799 11.4342 28.846 11.8458 28.8462H12.2958C12.7095 28.8462 13.0435 29.1802 13.0435 29.5927Z" fill="#FBD9A3"/>
<path d="M12.2572 29.2576V31.2868C12.2572 31.7343 11.6381 31.8623 11.4671 31.4489C11.2259 30.8658 11.0994 30.2358 11.0994 29.5926C11.0994 29.3864 11.1826 29.2001 11.3173 29.0653C11.5931 28.7648 12.2348 28.736 12.2572 29.2576Z" fill="#FAEFDC"/>
<path d="M22.181 29.9296V33.0749C22.181 33.3784 21.8118 33.5272 21.6009 33.3093C21.5294 33.2354 21.4603 33.1593 21.3946 33.0808C21.0548 32.6812 20.7853 32.2323 20.5907 31.7519C20.3587 31.1788 20.2368 30.5601 20.2368 29.9296C20.2365 29.5169 20.5716 29.1829 20.9833 29.1831H21.4333C21.847 29.1831 22.181 29.5171 22.181 29.9296Z" fill="#FBD9A3"/>
<path d="M21.3946 29.5945V31.6237C21.3946 32.0712 20.7755 32.1993 20.6046 31.7858C20.3634 31.2027 20.2368 30.5727 20.2368 29.9296C20.2368 29.7233 20.32 29.537 20.4548 29.4022C20.7305 29.1018 21.3722 29.0729 21.3946 29.5945Z" fill="#FAEFDC"/>
<path d="M28.6773 28.2226V31.3679C28.6773 31.6714 28.3082 31.8202 28.0972 31.6022C28.0257 31.5284 27.9566 31.4522 27.891 31.3737C27.5511 30.9741 27.2816 30.5253 27.0871 30.0448C26.855 29.4718 26.7332 28.853 26.7332 28.2226C26.7328 27.8098 27.068 27.4758 27.4796 27.4761H27.9296C28.3433 27.4761 28.6773 27.8101 28.6773 28.2226Z" fill="#FBD9A3"/>
<path d="M27.891 27.8875V29.9167C27.891 30.3641 27.2719 30.4922 27.1009 30.0788C26.8597 29.4957 26.7332 28.8657 26.7332 28.2225C26.7332 28.0163 26.8164 27.83 26.9511 27.6952C27.2269 27.3947 27.8686 27.3659 27.891 27.8875Z" fill="#FAEFDC"/>
<path d="M33.6578 29.5927V32.738C33.6578 33.0415 33.2886 33.1903 33.0777 32.9724C33.0062 32.8985 32.9371 32.8224 32.8714 32.7438C32.5316 32.3442 32.2621 31.8954 32.0675 31.4149C31.8355 30.8419 31.7136 30.2231 31.7136 29.5927C31.7133 29.1799 32.0484 28.846 32.4601 28.8462H32.9101C33.3238 28.8462 33.6578 29.1802 33.6578 29.5927Z" fill="#FBD9A3"/>
<path d="M32.8714 29.2576V31.2868C32.8714 31.7343 32.2523 31.8623 32.0814 31.4489C31.8401 30.8658 31.7136 30.2358 31.7136 29.5926C31.7136 29.3864 31.7968 29.2001 31.9316 29.0653C32.2073 28.7648 32.8491 28.736 32.8714 29.2576Z" fill="#FAEFDC"/>
<path d="M38.9512 29.9296V33.0749C38.9512 33.3784 38.5821 33.5272 38.3711 33.3093C38.2997 33.2354 38.2305 33.1593 38.1649 33.0808C37.825 32.6812 37.5555 32.2323 37.361 31.7519C37.129 31.1788 37.0071 30.5601 37.0071 29.9296C37.0067 29.5169 37.3419 29.1829 37.7536 29.1831H38.2036C38.6172 29.1831 38.9512 29.5171 38.9512 29.9296Z" fill="#FBD9A3"/>
<path d="M38.1649 29.5945V31.6237C38.1649 32.0712 37.5458 32.1993 37.3748 31.7858C37.1335 31.2027 37.0071 30.5727 37.0071 29.9296C37.0071 29.7233 37.0903 29.537 37.2251 29.4022C37.5009 29.1018 38.1425 29.0729 38.1649 29.5945Z" fill="#FAEFDC"/>
<path d="M17.6846 29.3769V32.5222C17.6846 32.8257 17.3155 32.9745 17.1045 32.7565C17.0331 32.6827 16.9639 32.6065 16.8983 32.528C16.5584 32.1284 16.2889 31.6796 16.0944 31.1991C15.8624 30.6261 15.7405 30.0073 15.7405 29.3769C15.7401 28.9641 16.0753 28.6301 16.487 28.6304H16.937C17.3506 28.6304 17.6846 28.9644 17.6846 29.3769Z" fill="#FBD9A3"/>
<path d="M16.8983 29.0418V31.071C16.8983 31.5184 16.2792 31.6465 16.1082 31.2331C15.867 30.65 15.7405 30.02 15.7405 29.3768C15.7405 29.1706 15.8237 28.9842 15.9584 28.8495C16.2343 28.549 16.8759 28.5202 16.8983 29.0418Z" fill="#FAEFDC"/>
</g>
<defs>
<clipPath id="clip0_1123_24449">
<rect width="60" height="60" fill="white"/>
</clipPath>
</defs>
</svg>
