<svg width="60" height="60" viewBox="0 0 60 60" fill="none" xmlns="http://www.w3.org/2000/svg">
<g clip-path="url(#clip0_1123_24571)">
<path d="M30 60C46.5685 60 60 46.5685 60 30C60 13.4315 46.5685 0 30 0C13.4315 0 0 13.4315 0 30C0 46.5685 13.4315 60 30 60Z" fill="#22BCE0"/>
<path d="M48.1841 43.4088V46.1352C48.1841 46.5636 48.1219 46.9781 48.0054 47.3691C48.0054 47.3691 48.0054 47.3691 48.0054 47.37C47.4734 49.1507 45.824 50.4497 43.8695 50.4497H16.1303C14.1758 50.4497 12.5255 49.1507 11.9944 47.369C11.8779 46.978 11.8157 46.5635 11.8157 46.1351V43.4087C11.8157 42.697 11.9875 42.0258 12.2924 41.4346C12.7208 40.6035 13.4118 39.9293 14.2558 39.5216C14.8224 39.2482 15.458 39.0942 16.1303 39.0942H43.8695C44.4134 39.0942 44.9336 39.1949 45.4123 39.3795C46.4063 39.7586 47.2236 40.4969 47.7073 41.4346C48.0123 42.0259 48.1841 42.6972 48.1841 43.4088Z" fill="#D48D77"/>
<path d="M47.7072 41.4347C46.3885 45.613 42.4806 48.6434 37.866 48.6434H22.1338C19.284 48.6434 16.7048 47.4885 14.8381 45.6209C13.6803 44.464 12.7969 43.0337 12.2925 41.4346C13.0091 40.0447 14.4592 39.0942 16.1303 39.0942H43.8695C45.5406 39.0944 46.9906 40.0449 47.7072 41.4347Z" fill="#EEA47D"/>
<path d="M45.0304 42.4003C45.0304 43.2117 44.373 43.8691 43.5616 43.8691H16.4383C16.0326 43.8691 15.6655 43.7043 15.3999 43.4388C15.1344 43.1733 14.9695 42.8061 14.9695 42.4004C14.9695 42.0677 15.08 41.7608 15.2666 41.514C15.535 41.1596 15.9595 40.9307 16.4382 40.9307H43.5615C43.9534 40.9307 44.3097 41.0846 44.5722 41.3354C44.5821 41.3433 44.591 41.3522 44.5999 41.3611C44.8655 41.6275 45.0304 41.9946 45.0304 42.4003Z" fill="#F5B890"/>
<path d="M29.9997 46.0322C28.7796 46.0322 27.7905 47.0213 27.7905 48.2414V50.4507H32.2088V48.2414C32.209 47.0214 31.2198 46.0322 29.9997 46.0322Z" fill="#FBD9A3"/>
<path d="M16.2339 48.2408V50.4499H16.1303C14.1758 50.4499 12.5255 49.1509 11.9944 47.3692C12.3329 46.5825 13.1147 46.0317 14.0248 46.0317C15.2448 46.0317 16.2339 47.0208 16.2339 48.2408Z" fill="#FBD9A3"/>
<path d="M19.3496 46.0322C18.1294 46.0322 17.1404 47.0213 17.1404 48.2414V50.4507H21.5587V48.2414C21.5587 47.0214 20.5696 46.0322 19.3496 46.0322Z" fill="#FBD9A3"/>
<path d="M24.6746 46.0322C23.4544 46.0322 22.4653 47.0213 22.4653 48.2414V50.4507H26.8837V48.2414C26.8837 47.0214 25.8946 46.0322 24.6746 46.0322Z" fill="#FBD9A3"/>
<path d="M35.3249 46.0322C34.1049 46.0322 33.1157 47.0213 33.1157 48.2414V50.4507H37.534V48.2414C37.5342 47.0214 36.5451 46.0322 35.3249 46.0322Z" fill="#FBD9A3"/>
<path d="M40.6501 46.0322C39.43 46.0322 38.4409 47.0213 38.4409 48.2414V50.4507H42.8592V48.2414C42.8592 47.0214 41.8702 46.0322 40.6501 46.0322Z" fill="#FBD9A3"/>
<path d="M48.0054 47.3693C48.0054 47.3693 48.0054 47.3693 48.0054 47.3703C47.4733 49.1509 45.8239 50.4499 43.8695 50.4499H43.7659V48.2408C43.7659 47.0208 44.7549 46.0317 45.975 46.0317C46.8851 46.0319 47.6668 46.5826 48.0054 47.3693Z" fill="#FBD9A3"/>
<path d="M32.209 48.2408V48.6436H27.7908V48.2408C27.7908 47.0208 28.7798 46.0317 29.9999 46.0317C31.2199 46.0317 32.209 47.0208 32.209 48.2408Z" fill="#FBD9A3"/>
<path d="M21.5582 48.241V48.6269C20.0212 48.5429 18.5752 48.1225 17.291 47.4374C17.6119 46.6142 18.4124 46.0317 19.3491 46.0317C20.5691 46.0319 21.5582 47.0209 21.5582 48.241Z" fill="#FBD9A3"/>
<path d="M26.8835 48.2408V48.6436H22.4653V48.2408C22.4653 47.0208 23.4544 46.0317 24.6744 46.0317C25.8945 46.0317 26.8835 47.0208 26.8835 48.2408Z" fill="#FBD9A3"/>
<path d="M37.5342 48.2408V48.6436H33.116V48.2408C33.116 47.0208 34.105 46.0317 35.3251 46.0317C36.5451 46.0317 37.5342 47.0208 37.5342 48.2408Z" fill="#FBD9A3"/>
<path d="M42.7086 47.4383C41.4234 48.1224 39.9773 48.5429 38.4414 48.6278V48.2408C38.4414 47.0208 39.4305 46.0317 40.6505 46.0317C41.5873 46.0317 42.3878 46.6151 42.7086 47.4383Z" fill="#FBD9A3"/>
<path d="M21.5582 48.241V48.6269C20.0212 48.5429 18.5752 48.1225 17.291 47.4374C17.6119 46.6142 18.4124 46.0317 19.3491 46.0317C20.5691 46.0319 21.5582 47.0209 21.5582 48.241Z" fill="#FAEFDC"/>
<path d="M26.8835 48.2408V48.6436H22.4653V48.2408C22.4653 47.0208 23.4544 46.0317 24.6744 46.0317C25.8945 46.0317 26.8835 47.0208 26.8835 48.2408Z" fill="#FAEFDC"/>
<path d="M32.209 48.2408V48.6436H27.7908V48.2408C27.7908 47.0208 28.7798 46.0317 29.9999 46.0317C31.2199 46.0317 32.209 47.0208 32.209 48.2408Z" fill="#FAEFDC"/>
<path d="M37.5342 48.2408V48.6436H33.116V48.2408C33.116 47.0208 34.105 46.0317 35.3251 46.0317C36.5451 46.0317 37.5342 47.0208 37.5342 48.2408Z" fill="#FAEFDC"/>
<path d="M42.7086 47.4383C41.4234 48.1224 39.9773 48.5429 38.4414 48.6278V48.2408C38.4414 47.0208 39.4305 46.0317 40.6505 46.0317C41.5873 46.0317 42.3878 46.6151 42.7086 47.4383Z" fill="#FAEFDC"/>
<path d="M16.292 33.7861V35.8413C16.292 36.1643 16.3389 36.4769 16.4266 36.7715C16.4266 36.7715 16.4266 36.7715 16.4266 36.7722C16.8277 38.1145 18.0711 39.0938 19.5444 39.0938H40.4554C41.9286 39.0938 43.1728 38.1146 43.5731 36.7715C43.6609 36.4767 43.7078 36.1643 43.7078 35.8413V33.7861C43.7078 33.2496 43.5783 32.7436 43.3484 32.2979C43.0254 31.6715 42.5045 31.1632 41.8683 30.8558C41.4411 30.6497 40.962 30.5337 40.4552 30.5337H19.5444C19.1344 30.5337 18.7423 30.6096 18.3813 30.7487C17.632 31.0344 17.0159 31.5911 16.6513 32.2979C16.4215 32.7436 16.292 33.2496 16.292 33.7861Z" fill="#D48D77"/>
<path d="M16.6514 32.2979C17.6455 35.4477 20.5914 37.7322 24.0702 37.7322H35.9298C38.078 37.7322 40.0223 36.8616 41.4295 35.4537C42.3023 34.5816 42.9683 33.5033 43.3486 32.2979C42.8083 31.2503 41.7152 30.5337 40.4554 30.5337H19.5444C18.2846 30.5337 17.1916 31.2503 16.6514 32.2979Z" fill="#EEA47D"/>
<path d="M18.6694 33.0255C18.6694 33.6371 19.165 34.1327 19.7766 34.1327H40.2231C40.529 34.1327 40.8058 34.0085 41.006 33.8083C41.2061 33.6081 41.3303 33.3313 41.3303 33.0255C41.3303 32.7747 41.247 32.5433 41.1064 32.3573C40.904 32.0901 40.5841 31.9175 40.2231 31.9175H19.7766C19.4812 31.9175 19.2126 32.0336 19.0147 32.2225C19.0073 32.2285 19.0005 32.2352 18.9938 32.2419C18.7937 32.4429 18.6694 32.7197 18.6694 33.0255Z" fill="#F5B890"/>
<path d="M30.0001 35.7637C30.9199 35.7637 31.6654 36.5093 31.6654 37.429V39.0944H28.3347V37.429C28.3347 36.5092 29.0803 35.7637 30.0001 35.7637Z" fill="#FBD9A3"/>
<path d="M40.3772 37.4284V39.0938H40.4554C41.9286 39.0938 43.1728 38.1146 43.5731 36.7715C43.3179 36.1784 42.7286 35.7632 42.0425 35.7632C41.1227 35.7631 40.3772 36.5086 40.3772 37.4284Z" fill="#FBD9A3"/>
<path d="M38.0286 35.7637C38.9484 35.7637 39.694 36.5093 39.694 37.429V39.0944H36.3633V37.429C36.3633 36.5092 37.1088 35.7637 38.0286 35.7637Z" fill="#FBD9A3"/>
<path d="M34.0142 35.7637C34.934 35.7637 35.6796 36.5093 35.6796 37.429V39.0944H32.3489V37.429C32.3489 36.5092 33.0945 35.7637 34.0142 35.7637Z" fill="#FBD9A3"/>
<path d="M25.9857 35.7637C26.9055 35.7637 27.651 36.5093 27.651 37.429V39.0944H24.3203V37.429C24.3203 36.5092 25.0659 35.7637 25.9857 35.7637Z" fill="#FBD9A3"/>
<path d="M21.9713 35.7637C22.8911 35.7637 23.6366 36.5093 23.6366 37.429V39.0944H20.3059V37.429C20.3059 36.5092 21.0516 35.7637 21.9713 35.7637Z" fill="#FBD9A3"/>
<path d="M16.4268 36.7716C16.4268 36.7716 16.4268 36.7716 16.4268 36.7723C16.8278 38.1147 18.0712 39.0939 19.5445 39.0939H19.6227V37.4285C19.6227 36.5088 18.8771 35.7632 17.9573 35.7632C17.2713 35.7633 16.682 36.1785 16.4268 36.7716Z" fill="#FBD9A3"/>
<path d="M28.3347 37.4285V37.7322H31.6653V37.4285C31.6653 36.5088 30.9198 35.7632 30 35.7632C29.0804 35.7632 28.3347 36.5087 28.3347 37.4285Z" fill="#FBD9A3"/>
<path d="M36.3635 37.4284V37.7194C37.5222 37.6561 38.6122 37.3391 39.5803 36.8228C39.3384 36.2022 38.735 35.7632 38.0289 35.7632C37.1091 35.7631 36.3635 36.5086 36.3635 37.4284Z" fill="#FBD9A3"/>
<path d="M32.3491 37.4285V37.7322H35.6797V37.4285C35.6797 36.5088 34.9342 35.7632 34.0144 35.7632C33.0947 35.7632 32.3491 36.5087 32.3491 37.4285Z" fill="#FBD9A3"/>
<path d="M24.3203 37.4285V37.7322H27.6509V37.4285C27.6509 36.5088 26.9054 35.7632 25.9855 35.7632C25.0659 35.7632 24.3203 36.5087 24.3203 37.4285Z" fill="#FBD9A3"/>
<path d="M20.4197 36.8236C21.3885 37.3392 22.4787 37.6562 23.6365 37.7202V37.4285C23.6365 36.5088 22.8909 35.7632 21.9711 35.7632C21.265 35.7633 20.6614 36.2031 20.4197 36.8236Z" fill="#FBD9A3"/>
<path d="M36.3635 37.4284V37.7194C37.5222 37.6561 38.6122 37.3391 39.5803 36.8228C39.3384 36.2022 38.735 35.7632 38.0289 35.7632C37.1091 35.7631 36.3635 36.5086 36.3635 37.4284Z" fill="#FAEFDC"/>
<path d="M32.3491 37.4285V37.7322H35.6797V37.4285C35.6797 36.5088 34.9342 35.7632 34.0144 35.7632C33.0947 35.7632 32.3491 36.5087 32.3491 37.4285Z" fill="#FAEFDC"/>
<path d="M28.3347 37.4285V37.7322H31.6653V37.4285C31.6653 36.5088 30.9198 35.7632 30 35.7632C29.0804 35.7632 28.3347 36.5087 28.3347 37.4285Z" fill="#FAEFDC"/>
<path d="M24.3203 37.4285V37.7322H27.6509V37.4285C27.6509 36.5088 26.9054 35.7632 25.9855 35.7632C25.0659 35.7632 24.3203 36.5087 24.3203 37.4285Z" fill="#FAEFDC"/>
<path d="M20.4197 36.8236C21.3885 37.3392 22.4787 37.6562 23.6365 37.7202V37.4285C23.6365 36.5088 22.8909 35.7632 21.9711 35.7632C21.265 35.7633 20.6614 36.2031 20.4197 36.8236Z" fill="#FAEFDC"/>
<path d="M38.537 20.6908V20.692C38.5053 20.7693 38.4725 20.8467 38.4397 20.924L34.2901 30.5346H25.7096L21.56 20.924C21.5272 20.8467 21.4944 20.7693 21.4627 20.692V20.6908C20.2768 17.74 20.5897 14.3662 22.4026 11.7424C23.9963 9.43379 26.6014 7.84004 29.6987 7.74395C29.7983 7.74043 29.8991 7.73926 29.9998 7.73926C30.1006 7.73926 30.2014 7.74043 30.301 7.74395C33.3983 7.84004 36.0034 9.43379 37.5971 11.7424C39.41 14.3662 39.7229 17.74 38.537 20.6908Z" fill="#D48D77"/>
<path d="M38.5369 20.6907V20.6919C38.5053 20.7692 38.4724 20.8466 38.4396 20.9239L34.29 30.5345H25.7096L21.5599 20.9239C21.5271 20.8466 21.4943 20.7692 21.4627 20.6919V20.6907C20.9154 18.2696 21.3596 15.6962 22.7939 13.6196C24.3056 11.4306 26.7771 9.91885 29.7139 9.82744C29.8088 9.82393 29.9037 9.82275 29.9998 9.82275C30.0959 9.82275 30.1908 9.82393 30.2857 9.82744C33.2224 9.91885 35.6939 11.4306 37.2056 13.6196C38.64 15.6962 39.0842 18.2696 38.5369 20.6907Z" fill="#FBD9A3"/>
<path d="M38.5369 20.6908V20.692C38.5052 20.7693 38.4724 20.8467 38.4396 20.924L34.29 30.5346H29.9998V7.73926C30.1005 7.73926 30.2013 7.74043 30.3009 7.74395C33.3982 7.84004 36.0033 9.43379 37.597 11.7424C39.4099 14.3662 39.7228 17.74 38.5369 20.6908Z" fill="#EEA47D"/>
<path d="M38.5369 20.6907V20.6919C38.5052 20.7692 38.4724 20.8466 38.4396 20.9239L34.29 30.5345H29.9998V9.82275C30.0958 9.82275 30.1908 9.82393 30.2857 9.82744C33.2224 9.91885 35.6939 11.4306 37.2056 13.6196C38.64 15.6962 39.0841 18.2696 38.5369 20.6907Z" fill="#FAEFDC"/>
<path d="M33.9304 22.6347L32.7983 30.5344H27.2015L26.0694 22.6347C25.6593 19.7683 25.9921 16.8433 27.0351 14.141L27.7874 12.1957C27.9597 11.7457 28.2597 11.373 28.637 11.1094C29.8567 10.2225 31.6881 10.7709 32.2124 12.1957C33.6821 15.6528 34.4907 18.8563 33.9304 22.6347Z" fill="#F9C744"/>
<path d="M33.9305 22.6349L32.7984 30.5345H30V10.6782C30.9798 10.6786 31.8613 11.2809 32.2125 12.1958L32.9648 14.1411C34.0078 16.8435 34.3406 19.7685 33.9305 22.6349Z" fill="#FBD9A3"/>
<path d="M32.8781 22.8737C32.8781 23.7866 32.1375 24.5272 31.2246 24.5272H28.7753C27.8625 24.5272 27.1218 23.7866 27.1218 22.8737C27.1218 22.4179 27.307 22.0042 27.6058 21.7042C27.9058 21.4054 28.3195 21.2202 28.7753 21.2202H31.2246C32.1375 21.2202 32.8781 21.9608 32.8781 22.8737Z" fill="#FBD9A3"/>
<path d="M32.4785 26.7951C32.4785 27.7092 31.7379 28.4498 30.825 28.4498H29.175C28.2621 28.4498 27.5215 27.7092 27.5215 26.7951C27.5215 26.3393 27.7066 25.9256 28.0055 25.6256C28.3055 25.3268 28.718 25.1416 29.175 25.1416H30.825C31.7379 25.1416 32.4785 25.8822 32.4785 26.7951Z" fill="#FBD9A3"/>
<path d="M32.2006 30.5347H27.7991C27.8413 30.1503 28.0147 29.8069 28.2725 29.5479C28.5713 29.2491 28.985 29.064 29.442 29.064H30.5577C31.4096 29.064 32.1104 29.7073 32.2006 30.5347Z" fill="#FBD9A3"/>
<path d="M33.2776 18.9528C33.2776 19.8657 32.537 20.6063 31.6241 20.6063H28.3757C27.4628 20.6063 26.7222 19.8657 26.7222 18.9528C26.7222 18.4958 26.9073 18.0821 27.2062 17.7833C27.5062 17.4845 27.9187 17.2993 28.3757 17.2993H31.6241C32.537 17.2993 33.2776 18.0388 33.2776 18.9528Z" fill="#FBD9A3"/>
<path d="M32.2112 15.0305C32.2112 15.9445 31.4718 16.684 30.5577 16.684H29.4421C28.528 16.684 27.7886 15.9445 27.7886 15.0305C27.7886 14.5734 27.9737 14.1609 28.2726 13.8609C28.5714 13.5621 28.9851 13.377 29.4421 13.377H30.5577C31.4718 13.377 32.2112 14.1176 32.2112 15.0305Z" fill="#FBD9A3"/>
<path d="M31.3627 11.1095V11.4001C31.3627 12.1524 30.7522 12.763 29.9999 12.763C29.6237 12.763 29.2827 12.6106 29.0366 12.3634C28.7893 12.1173 28.637 11.7763 28.637 11.4001V11.1095C29.0272 10.8341 29.5006 10.6782 29.9999 10.6782C30.4991 10.6782 30.9725 10.8341 31.3627 11.1095Z" fill="#FBD9A3"/>
<path d="M30 12.763V10.6782C30.4992 10.6782 30.9727 10.8341 31.3629 11.1095V11.4001C31.3629 12.1524 30.7523 12.763 30 12.763Z" fill="#FAEFDC"/>
<path d="M30.5578 16.684H30V13.377H30.5578C31.4719 13.377 32.2113 14.1176 32.2113 15.0305C32.2113 15.9445 31.4719 16.684 30.5578 16.684Z" fill="#FAEFDC"/>
<path d="M32.4785 26.7951C32.4785 27.7092 31.7379 28.4498 30.825 28.4498H30V25.1416H30.825C31.7379 25.1416 32.4785 25.8822 32.4785 26.7951Z" fill="#FAEFDC"/>
<path d="M32.2008 30.5347H30V29.064H30.5578C31.4098 29.064 32.1105 29.7073 32.2008 30.5347Z" fill="#FAEFDC"/>
<path d="M32.8781 22.8737C32.8781 23.7866 32.1375 24.5272 31.2246 24.5272H30V21.2202H31.2246C32.1375 21.2202 32.8781 21.9608 32.8781 22.8737Z" fill="#FAEFDC"/>
<path d="M31.6242 20.6063H30V17.2993H31.6242C32.5371 17.2993 33.2777 18.0388 33.2777 18.9528C33.2777 19.8657 32.5371 20.6063 31.6242 20.6063Z" fill="#FAEFDC"/>
<path d="M35.0589 8.3333V8.68135C35.0589 10.3595 33.6983 11.7212 32.0202 11.7212H27.9796C26.3015 11.7212 24.9409 10.3595 24.9409 8.68135V8.3333C24.9409 7.26338 25.8081 6.39502 26.8792 6.39502H33.1206C34.1917 6.39502 35.0589 7.26338 35.0589 8.3333Z" fill="#D48D77"/>
<path d="M35.059 8.3333V8.68135C35.059 10.3595 33.6984 11.7212 32.0203 11.7212H30V6.39502H33.1207C34.1918 6.39502 35.059 7.26338 35.059 8.3333Z" fill="#EEA47D"/>
<path d="M31.7018 7.85049H30V6.83154H31.7018C31.9832 6.83154 32.2113 7.05971 32.2113 7.34107C32.2113 7.62244 31.9832 7.85049 31.7018 7.85049Z" fill="#F5B890"/>
<path d="M28.2981 6.83154H29.9999V7.85049H28.2981C28.0167 7.85049 27.7886 7.62232 27.7886 7.34096C27.7886 7.05959 28.0167 6.83154 28.2981 6.83154Z" fill="#EEA47D"/>
<path d="M34.3063 9.48983C34.2973 9.52675 34.2865 9.56366 34.2748 9.60058C34.2271 9.75222 34.1604 9.89319 34.0758 10.0171C33.6858 10.5878 33.0528 10.5878 32.6628 10.0171C32.2728 9.44636 32.2737 8.52104 32.6628 7.95022C32.6799 7.92655 32.696 7.90276 32.7141 7.88167C32.8077 7.76179 32.9131 7.67214 33.0239 7.61143C33.3778 7.42159 33.7913 7.53362 34.0758 7.95011C34.3595 8.36554 34.4369 8.97046 34.3063 9.48983Z" fill="#D48D77"/>
<path d="M34.3062 9.48972C34.2972 9.52663 34.2864 9.56354 34.2747 9.60046C34.1882 9.62683 34.099 9.64136 34.0071 9.64136C33.3227 9.64136 32.7616 8.86628 32.7139 7.88167C32.8075 7.76179 32.9129 7.67214 33.0237 7.61143C33.3776 7.42159 33.7911 7.53362 34.0756 7.95011C34.3594 8.36542 34.4368 8.97034 34.3062 9.48972Z" fill="#F5B890"/>
<path d="M34.0004 8.98373C34.0004 9.38147 33.828 9.72119 33.5868 9.8515C33.5187 9.88713 33.4457 9.9074 33.3693 9.9074C33.0205 9.9074 32.7383 9.49338 32.7383 8.98373C32.7383 8.47303 33.0205 8.06006 33.3693 8.06006C33.4457 8.06006 33.5187 8.08045 33.5868 8.11596C33.828 8.24615 34.0004 8.58494 34.0004 8.98373Z" fill="#3F5D77"/>
<path d="M33.5869 9.85176C33.8153 9.85176 34.0004 9.46324 34.0004 8.98399C34.0004 8.50473 33.8153 8.11621 33.5869 8.11621C33.3585 8.11621 33.1733 8.50473 33.1733 8.98399C33.1733 9.46324 33.3585 9.85176 33.5869 9.85176Z" fill="#2E3140"/>
<path d="M33.3691 9.22109C33.5409 9.22109 33.6801 9.01726 33.6801 8.76582C33.6801 8.51438 33.5409 8.31055 33.3691 8.31055C33.1974 8.31055 33.0581 8.51438 33.0581 8.76582C33.0581 9.01726 33.1974 9.22109 33.3691 9.22109Z" fill="#83D5EF"/>
<path d="M27.568 9.48983C27.559 9.52675 27.5482 9.56366 27.5365 9.60058C27.4888 9.75222 27.4221 9.89319 27.3375 10.0171C26.9475 10.5878 26.3145 10.5878 25.9245 10.0171C25.5345 9.44636 25.5354 8.52104 25.9245 7.95022C25.9416 7.92655 25.9578 7.90276 25.9758 7.88167C26.0694 7.76179 26.1748 7.67214 26.2856 7.61143C26.6396 7.42159 27.053 7.53362 27.3375 7.95011C27.6212 8.36554 27.6987 8.97046 27.568 9.48983Z" fill="#EEA47D"/>
<path d="M27.5679 9.48972C27.5589 9.52663 27.5481 9.56354 27.5364 9.60046C27.4499 9.62683 27.3607 9.64136 27.2689 9.64136C26.5844 9.64136 26.0233 8.86628 25.9756 7.88167C26.0692 7.76179 26.1746 7.67214 26.2854 7.61143C26.6393 7.42159 27.0528 7.53362 27.3373 7.95011C27.6211 8.36542 27.6986 8.97034 27.5679 9.48972Z" fill="#F5B890"/>
<path d="M27.2622 8.98373C27.2622 9.38147 27.0898 9.72119 26.8487 9.8515C26.7806 9.88713 26.7076 9.9074 26.6312 9.9074C26.2823 9.9074 26 9.49338 26 8.98373C26 8.47303 26.2822 8.06006 26.6312 8.06006C26.7076 8.06006 26.7806 8.08045 26.8487 8.11596C27.0898 8.24615 27.2622 8.58494 27.2622 8.98373Z" fill="#3F5D77"/>
<path d="M26.8486 9.85176C27.077 9.85176 27.2622 9.46324 27.2622 8.98399C27.2622 8.50473 27.077 8.11621 26.8486 8.11621C26.6202 8.11621 26.4351 8.50473 26.4351 8.98399C26.4351 9.46324 26.6202 9.85176 26.8486 9.85176Z" fill="#2E3140"/>
<path d="M26.6308 9.22109C26.8026 9.22109 26.9419 9.01726 26.9419 8.76582C26.9419 8.51438 26.8026 8.31055 26.6308 8.31055C26.4591 8.31055 26.3198 8.51438 26.3198 8.76582C26.3198 9.01726 26.4591 9.22109 26.6308 9.22109Z" fill="#83D5EF"/>
<path d="M30.7971 10.7414C30.664 10.6083 30.664 10.3925 30.7971 10.2595L30.9202 10.1365C31.0533 10.0033 31.269 10.0033 31.402 10.1365C31.5352 10.2696 31.5352 10.4853 31.402 10.6183L31.279 10.7414C31.146 10.8745 30.9301 10.8745 30.7971 10.7414Z" fill="#3F5D77"/>
<path d="M29.2026 10.7414C29.0694 10.8745 28.8537 10.8745 28.7207 10.7414L28.5976 10.6183C28.4645 10.4852 28.4645 10.2695 28.5976 10.1365C28.7308 10.0033 28.9465 10.0033 29.0795 10.1365L29.2026 10.2595C29.3357 10.3925 29.3357 10.6083 29.2026 10.7414Z" fill="#2E3140"/>
<path d="M31.6301 15.5438L30.41 13.3985V11.4639C30.41 11.2373 30.2263 11.0537 29.9998 11.0537C29.7733 11.0537 29.5897 11.2373 29.5897 11.4639V13.3985L28.3694 15.5438C28.2574 15.7407 28.3263 15.9911 28.5231 16.103C28.7204 16.2151 28.9706 16.1462 29.0825 15.9492L29.9998 14.3366L30.9172 15.9493C30.9927 16.0822 31.1314 16.1569 31.274 16.1569C31.3428 16.1569 31.4125 16.1395 31.4765 16.1031C31.6734 15.9911 31.7422 15.7406 31.6301 15.5438Z" fill="#E9465E"/>
</g>
<defs>
<clipPath id="clip0_1123_24571">
<rect width="60" height="60" fill="white"/>
</clipPath>
</defs>
</svg>
