<svg width="60" height="60" viewBox="0 0 60 60" fill="none" xmlns="http://www.w3.org/2000/svg">
<g clip-path="url(#clip0_1123_23514)">
<path d="M30 60C46.5685 60 60 46.5685 60 30C60 13.4315 46.5685 0 30 0C13.4315 0 0 13.4315 0 30C0 46.5685 13.4315 60 30 60Z" fill="#6C53A2"/>
<path d="M46.3123 34.4033V38.0658C46.3123 45.5237 40.267 51.5706 32.8089 51.5706H27.1919C19.7339 51.5706 13.6885 45.5238 13.6885 38.0658V34.4033H46.3123Z" fill="#EA792E"/>
<path d="M46.3122 34.4033V38.0658C46.3122 41.9722 44.6542 45.4905 42.0024 47.9566C39.5917 50.1982 36.3604 51.5706 32.8088 51.5706H32.5523C27.9666 48.6567 25.0154 44.1043 25.0154 38.9877C25.0154 37.3949 25.3023 35.8548 25.8346 34.4034H46.3122V34.4033Z" fill="#F39E22"/>
<path d="M46.3122 34.4033V38.0658C46.3122 41.9722 44.6542 45.4905 42.0024 47.9566C37.938 47.4798 34.78 43.9089 34.78 39.5727C34.78 37.625 35.4178 35.8313 36.4893 34.4034H46.3122V34.4033Z" fill="#F9C744"/>
<path d="M47.6529 28.9V30.5345C47.6529 33.9931 44.8485 36.7974 41.3898 36.7974H18.6112C15.1526 36.7974 12.3481 33.993 12.3481 30.5345V28.9C12.3481 27.1298 13.0967 25.4428 14.4081 24.2561L21.2797 18.0361C22.4317 16.9937 23.9301 16.417 25.4828 16.417H34.5183C36.0709 16.417 37.5694 16.9937 38.7213 18.0361L45.5929 24.2561C46.9043 25.4428 47.6529 27.1298 47.6529 28.9Z" fill="#53B976"/>
<path d="M47.6529 28.9V30.5345C47.6529 33.9931 44.8485 36.7974 41.3898 36.7974H30.0005V16.417H34.5183C36.0709 16.417 37.5694 16.9937 38.7213 18.0361L45.593 24.2561C46.9043 25.4428 47.6529 27.1298 47.6529 28.9Z" fill="#78C795"/>
<path d="M38.7211 18.0365L42.2777 14.4799C42.8682 13.8894 43.6691 13.5576 44.5042 13.5576C46.2431 13.5576 47.6529 14.9674 47.6529 16.7063V28.8996H43.5613C40.888 28.8996 38.7209 26.7325 38.7209 24.0593V18.0365H38.7211Z" fill="#9ACDAE"/>
<path d="M40.1254 19.2206C39.632 18.7272 39.632 17.9273 40.1254 17.4339L42.0687 15.4906C42.5621 14.9973 43.362 14.9973 43.8554 15.4906C44.3487 15.984 44.3487 16.7839 43.8554 17.2773L41.912 19.2206C41.4187 19.7139 40.6188 19.7139 40.1254 19.2206Z" fill="white"/>
<path d="M52.0943 20.279V24.4585C52.0943 25.6853 51.5967 26.7957 50.7926 27.5997C50.6484 27.7438 50.4946 27.8784 50.331 28.0018C49.5866 28.5646 48.6578 28.9 47.6528 28.9C45.2005 28.9 43.2126 26.9121 43.2126 24.4585V20.279C43.2126 19.6053 43.3624 18.9663 43.6312 18.3951C44.3396 16.8841 45.8742 15.8389 47.6528 15.8389C50.105 15.8389 52.0943 17.8267 52.0943 20.279Z" fill="#F39E22"/>
<path d="M52.0944 20.279V24.4585C52.0944 25.6853 51.5968 26.7957 50.7927 27.5997C50.6485 27.7438 50.4947 27.8784 50.3311 28.0018C46.7975 26.0582 44.251 22.5413 43.6313 18.3951C44.3397 16.8841 45.8743 15.8389 47.6529 15.8389C50.1051 15.8389 52.0944 17.8267 52.0944 20.279Z" fill="#F9C744"/>
<path d="M47.653 17.0605C45.7599 17.0605 44.2253 18.5951 44.2253 20.4882V24.2507C44.2253 26.1438 45.7599 27.6783 47.653 27.6783C49.546 27.6783 51.0806 26.1438 51.0806 24.2507V20.4882C51.0806 18.5951 49.546 17.0605 47.653 17.0605Z" fill="#F4E6F4"/>
<path d="M51.0809 20.5161V24.2216H46.9374C46.1556 24.2216 45.5208 23.5881 45.5208 22.8062V21.9329C45.5208 21.151 46.1557 20.5162 46.9374 20.5162H51.0809V20.5161Z" fill="#3F5D77"/>
<path d="M51.081 20.5161V24.2216H47.8164C47.7097 23.6199 47.6528 23.0017 47.6528 22.3696C47.6528 21.7374 47.7097 21.1178 47.8164 20.5161H51.081Z" fill="#334353"/>
<path d="M50.0192 21.9613C50.9682 21.9613 51.7374 21.192 51.7374 20.2431C51.7374 19.2942 50.9682 18.5249 50.0192 18.5249C49.0703 18.5249 48.301 19.2942 48.301 20.2431C48.301 21.192 49.0703 21.9613 50.0192 21.9613Z" fill="white"/>
<path d="M21.279 18.0365L17.7223 14.4799C17.1318 13.8894 16.331 13.5576 15.4959 13.5576C13.7569 13.5576 12.3472 14.9674 12.3472 16.7063V28.8996H16.4388C19.1121 28.8996 21.2791 26.7325 21.2791 24.0593V18.0365H21.279Z" fill="#78C795"/>
<path d="M19.8746 19.2206C20.368 18.7272 20.368 17.9273 19.8746 17.4339L17.9313 15.4906C17.438 14.9973 16.638 14.9973 16.1447 15.4906C15.6513 15.984 15.6513 16.7839 16.1447 17.2773L18.088 19.2206C18.5814 19.7139 19.3813 19.7139 19.8746 19.2206Z" fill="white"/>
<path d="M7.90576 20.279V24.4585C7.90576 25.6853 8.40346 26.7957 9.20748 27.5997C9.35162 27.7438 9.50549 27.8784 9.66908 28.0018C10.4135 28.5646 11.3423 28.9 12.3473 28.9C14.7996 28.9 16.7874 26.9121 16.7874 24.4585V20.279C16.7874 19.6053 16.6376 18.9663 16.3688 18.3951C15.6604 16.8841 14.1258 15.8389 12.3473 15.8389C9.89502 15.8389 7.90576 17.8267 7.90576 20.279Z" fill="#EA792E"/>
<path d="M7.90576 20.279V24.4585C7.90576 25.6853 8.40346 26.7957 9.20748 27.5997C9.35162 27.7438 9.50549 27.8784 9.66908 28.0018C13.2026 26.0582 15.7491 22.5413 16.3688 18.3951C15.6604 16.8841 14.1258 15.8389 12.3473 15.8389C9.89502 15.8389 7.90576 17.8267 7.90576 20.279Z" fill="#F39E22"/>
<path d="M12.3471 17.0605C14.2401 17.0605 15.7747 18.5951 15.7747 20.4882V24.2507C15.7747 26.1438 14.2401 27.6783 12.3471 27.6783C10.454 27.6783 8.91943 26.1438 8.91943 24.2507V20.4882C8.91943 18.5951 10.454 17.0605 12.3471 17.0605Z" fill="#F4E6F4"/>
<path d="M8.91919 20.5161V24.2216H13.0627C13.8446 24.2216 14.4794 23.5881 14.4794 22.8062V21.9329C14.4794 21.151 13.8445 20.5162 13.0627 20.5162H8.91919V20.5161Z" fill="#3F5D77"/>
<path d="M8.91919 20.5161V24.2216H12.1838C12.2906 23.6199 12.3474 23.0017 12.3474 22.3696C12.3474 21.7374 12.2906 21.1178 12.1838 20.5161H8.91919Z" fill="#334353"/>
<path d="M9.9809 21.9613C10.9298 21.9613 11.6991 21.192 11.6991 20.2431C11.6991 19.2942 10.9298 18.5249 9.9809 18.5249C9.03196 18.5249 8.2627 19.2942 8.2627 20.2431C8.2627 21.192 9.03196 21.9613 9.9809 21.9613Z" fill="white"/>
<path d="M47.3618 34.7376C45.9937 36.6784 43.7617 37.8372 41.3898 37.8372H18.6113C16.2394 37.8372 14.0076 36.6784 12.6393 34.7376C12.308 34.2691 12.4203 33.6204 12.8902 33.2889C13.3587 32.9577 14.0075 33.0699 14.3389 33.5398C15.3176 34.9289 16.9145 35.7579 18.6113 35.7579H41.39C43.0867 35.7579 44.6836 34.9289 45.6624 33.5398C45.9937 33.0699 46.6424 32.9577 47.111 33.2889C47.5809 33.6204 47.6931 34.2691 47.3618 34.7376Z" fill="#50755C"/>
<path d="M47.3618 34.7376C45.9937 36.6784 43.7617 37.8372 41.3898 37.8372H30.0005V35.7579H41.3898C43.0866 35.7579 44.6835 34.9289 45.6622 33.5398C45.9935 33.0699 46.6423 32.9577 47.1109 33.2889C47.5808 33.6204 47.6931 34.2691 47.3618 34.7376Z" fill="#528F66"/>
<path d="M30.0007 26.6069H35.5997C36.1492 26.6069 36.5946 27.0524 36.5946 27.6019C36.5946 28.1513 36.1492 28.5968 35.5997 28.5968H34.5067C33.0756 28.5968 33.113 33.1501 30.0007 33.1501V26.6069Z" fill="#9ACDAE"/>
<path d="M30.0006 26.6069H24.4017C23.8522 26.6069 23.4067 27.0524 23.4067 27.6019C23.4067 28.1513 23.8522 28.5968 24.4017 28.5968H25.4947C26.9258 28.5968 26.8884 33.1501 30.0006 33.1501V26.6069Z" fill="#78C795"/>
<path d="M34.9856 27.6022C34.9856 27.8767 34.8747 28.1249 34.6945 28.3051C34.5143 28.4853 34.2648 28.5962 33.9903 28.5962H26.0111C25.4608 28.5962 25.0159 28.1512 25.0159 27.6022C25.0159 27.3263 25.1267 27.0783 25.307 26.898C25.4872 26.7178 25.7367 26.6069 26.0111 26.6069H33.9903C34.5405 26.6069 34.9856 27.0519 34.9856 27.6022Z" fill="#9ACDAE"/>
<path d="M34.9857 27.6022C34.9857 27.8767 34.8748 28.1249 34.6946 28.3051C34.5143 28.4853 34.2648 28.5962 33.9904 28.5962H30.0007V26.6069H33.9904C34.5406 26.6069 34.9857 27.0519 34.9857 27.6022Z" fill="white"/>
</g>
<defs>
<clipPath id="clip0_1123_23514">
<rect width="60" height="60" fill="white"/>
</clipPath>
</defs>
</svg>
