<svg width="60" height="60" viewBox="0 0 60 60" fill="none" xmlns="http://www.w3.org/2000/svg">
<g clip-path="url(#clip0_1123_24172)">
<path d="M30 60C46.5685 60 60 46.5685 60 30C60 13.4315 46.5685 0 30 0C13.4315 0 0 13.4315 0 30C0 46.5685 13.4315 60 30 60Z" fill="#6C53A2"/>
<path d="M42.4814 35.0034L41.7713 35.2625L34.5536 37.8972L33.4856 38.2863C37.9064 40.0698 39.8109 40.0083 41.412 39.4574C45.6194 38.0083 42.4814 35.0034 42.4814 35.0034Z" fill="#DD5E26"/>
<path d="M43.6012 37.3842C43.6898 36.1601 42.4814 35.0034 42.4814 35.0034L41.7713 35.2625C42.1133 35.7301 42.519 36.4904 42.2445 37.2203C42.0569 37.723 41.5474 38.2108 40.4756 38.5786C39.6398 38.867 38.707 38.9973 37.2391 38.7014C36.4987 38.5531 35.6226 38.2966 34.5536 37.8972L33.4856 38.2863C34.7074 38.7796 35.7375 39.1313 36.6214 39.3706C38.9362 39.9981 40.2532 39.8564 41.412 39.4574C43.0083 38.9075 43.5475 38.1336 43.6012 37.3842Z" fill="#2E3140"/>
<path d="M43.6013 37.3842C43.17 37.2984 42.7198 37.2422 42.255 37.2207L42.2445 37.2202C42.0568 37.7229 41.5473 38.2108 40.4755 38.5785C39.6397 38.8669 38.7069 38.9972 37.239 38.7013C36.9995 38.9072 36.7931 39.1322 36.6213 39.3706C38.9361 39.998 40.2531 39.8563 41.412 39.4573C43.0083 38.9075 43.5476 38.1336 43.6013 37.3842Z" fill="#3F5D77"/>
<path d="M43.6114 25.357L42.9142 25.0652L35.8267 22.098L34.7778 21.6597C39.2767 20.0836 41.1763 20.2336 42.7501 20.8582C46.8856 22.5011 43.6114 25.357 43.6114 25.357Z" fill="#DD5E26"/>
<path d="M44.8407 23.0307C44.8724 24.2577 43.6114 25.3569 43.6114 25.3569L42.9142 25.0651C43.2774 24.6139 43.7181 23.8733 43.4778 23.1315C43.3138 22.6206 42.8274 22.1097 41.7739 21.6925C40.9524 21.3655 40.0267 21.1921 38.5466 21.4194C37.8001 21.5331 36.913 21.7487 35.8267 22.0979L34.7778 21.6597C36.0212 21.2237 37.0665 20.9202 37.9606 20.7222C40.3021 20.203 41.611 20.4057 42.7501 20.8581C44.3192 21.4815 44.822 22.2796 44.8407 23.0307Z" fill="#2E3140"/>
<path d="M44.8408 23.0307C44.406 23.0964 43.9537 23.1315 43.4884 23.1315H43.4779C43.3138 22.6206 42.8275 22.1097 41.774 21.6925C40.9525 21.3655 40.0267 21.1921 38.5466 21.4194C38.3169 21.2026 38.1212 20.9682 37.9607 20.7222C40.3021 20.203 41.6111 20.4057 42.7501 20.8581C44.3193 21.4815 44.822 22.2796 44.8408 23.0307Z" fill="#3F5D77"/>
<path d="M57.0867 30.3365C57.0867 31.9115 56.5418 33.3376 55.6453 34.4579C54.0902 36.3986 51.5695 37.2212 49.1859 36.7267C48.8168 36.6505 48.4512 36.5415 48.0926 36.4009L46.0617 35.604L43.6113 34.6431L42.709 35.1177C41.107 35.9591 39.4594 36.6986 37.773 37.3326C37.773 37.3326 37.773 37.3337 37.7719 37.3337C37.7719 37.3337 37.7719 37.3349 37.7707 37.3349C36.2121 37.922 34.6219 38.42 33.0082 38.8255C30.6012 39.4325 28.1414 39.8345 25.6535 40.0255L22.0242 40.3044C20.3484 40.4333 18.6715 40.0607 17.2078 39.2333L14.9754 37.9712L9.1207 34.663C7.81875 33.9271 7.01367 32.5466 7.01367 31.0513V28.949C7.01367 27.4536 7.81875 26.0732 9.1207 25.3372L10.1613 24.749L14.1996 22.4673L17.2078 20.7669C17.3801 20.6697 17.5559 20.5783 17.734 20.4939H17.7352C19.0676 19.8587 20.5465 19.5822 22.0242 19.6958L25.6535 19.9747C28.7543 20.2126 31.8117 20.7798 34.7777 21.6599C36.116 22.056 37.4344 22.5165 38.7305 23.0404C40.084 23.5865 41.4117 24.2017 42.709 24.8825L43.6113 25.3572L46.0617 24.6962C46.0617 24.695 46.0617 24.695 46.0617 24.695L48.8414 23.945C49.0066 23.9005 49.173 23.8607 49.3406 23.829H49.3418C49.3992 23.8185 49.4566 23.8079 49.5152 23.7997C49.8445 23.7505 50.1703 23.7271 50.4926 23.7271C53.1152 23.7271 55.4578 25.2986 56.5055 27.6189C56.8781 28.4427 57.0867 29.3603 57.0867 30.3365Z" fill="#DD5E26"/>
<path d="M56.5055 27.6189C55.9594 27.9447 55.3934 28.2587 54.8098 28.5575C51.8204 30.0962 48.3493 31.2868 44.5594 32.031C43.8528 32.1716 43.1344 32.2947 42.4055 32.4013C40.3688 32.7025 38.2536 32.8759 36.0821 32.9099C35.8243 32.9134 35.5653 32.9158 35.3051 32.9158C33.0586 32.9158 30.8684 32.7658 28.7602 32.4798C27.1208 32.2583 25.5305 31.9548 24 31.5775C22.343 31.1685 20.7575 30.6728 19.2575 30.0986C15.6633 28.7216 12.5637 26.8958 10.1614 24.749L14.1997 22.4673L17.2079 20.7669C17.3801 20.6697 17.5559 20.5783 17.734 20.4939H17.7352C19.0676 19.8587 20.5465 19.5822 22.0243 19.6958L25.6536 19.9747C28.7543 20.2126 31.8118 20.7798 34.7778 21.6599C36.1161 22.056 37.4344 22.5165 38.7305 23.0404C40.084 23.5865 41.4118 24.2017 42.709 24.8825L43.6114 25.3572L46.0618 24.6962C46.0618 24.695 46.0618 24.695 46.0618 24.695L48.8415 23.945C49.0079 23.9005 49.1743 23.8607 49.3418 23.829C49.3993 23.8185 49.4567 23.8079 49.5153 23.7997C49.8446 23.7505 50.1704 23.7271 50.4926 23.7271C53.1153 23.7271 55.4579 25.2986 56.5055 27.6189Z" fill="#EA792E"/>
<path d="M24.122 30.3362C24.122 35.721 17.2079 39.2331 17.2079 39.2331L14.9755 37.971L15.1396 37.7952C21.8134 31.1214 19.6091 27.8753 14.1997 22.4671L17.2079 20.7667C17.3802 20.6694 17.556 20.578 17.7341 20.4937H17.7353C17.7353 20.4937 24.122 24.9515 24.122 30.3362Z" fill="#F4E6F4"/>
<path d="M24.122 30.3362C24.122 30.7616 24.0786 31.1753 24.0001 31.5772C22.3431 31.1683 20.7575 30.6726 19.2575 30.0983C19.0454 27.6058 17.0755 25.3417 14.1997 22.4671L17.2079 20.7667C17.3802 20.6694 17.556 20.578 17.7341 20.4937H17.7353C17.7353 20.4937 24.122 24.9515 24.122 30.3362Z" fill="white"/>
<path d="M35.9191 30.8636C35.9191 34.9054 37.773 37.3323 37.773 37.3323C37.773 37.3323 37.773 37.3335 37.7719 37.3335C37.7719 37.3335 37.7719 37.3347 37.7707 37.3347C36.2121 37.9218 34.6219 38.4198 33.0082 38.8253C33.0082 33.0444 27.6152 34.3147 27.6152 29.3718C27.6152 24.4288 31.4062 28.9897 34.7777 21.6597C36.116 22.0558 37.4344 22.5163 38.7305 23.0401C38.7305 23.0401 35.9191 26.8229 35.9191 30.8636Z" fill="#F4E6F4"/>
<path d="M35.9191 30.8636C35.9191 31.6007 35.9812 32.2851 36.082 32.9097C35.8242 32.9132 35.5652 32.9155 35.3051 32.9155C33.0586 32.9155 30.8684 32.7655 28.7602 32.4796C28.091 31.7601 27.6152 30.8401 27.6152 29.3718C27.6152 24.4288 31.4062 28.9897 34.7777 21.6597C36.116 22.0558 37.4344 22.5163 38.7305 23.0401C38.7305 23.0401 35.9191 26.8229 35.9191 30.8636Z" fill="white"/>
<path d="M44.3556 30.2428C44.3556 33.135 46.0619 35.6041 46.0619 35.6041L43.6115 34.6432C43.6115 34.6432 42.0857 33.476 42.0857 29.7154C42.0857 25.9549 43.6115 25.3572 43.6115 25.3572L46.0619 24.6963C46.0162 24.7666 44.3556 27.3893 44.3556 30.2428Z" fill="#F4E6F4"/>
<path d="M44.3556 30.2428C44.3556 30.865 44.4341 31.4674 44.5595 32.0311C43.8529 32.1717 43.1345 32.2947 42.4056 32.4014C42.2181 31.7076 42.0857 30.824 42.0857 29.7154C42.0857 25.9549 43.6115 25.3572 43.6115 25.3572L46.0619 24.6963C46.0162 24.7666 44.3556 27.3893 44.3556 30.2428Z" fill="white"/>
<path d="M57.0868 30.3364C57.0868 31.9114 56.5419 33.3376 55.6454 34.4579C54.0903 36.3985 51.5696 37.2212 49.186 36.7267C52.8669 35.0802 55.1521 32.7833 55.1521 30.2427C55.1521 27.7384 52.9313 25.4696 49.3419 23.829C49.3993 23.8185 49.4567 23.8079 49.5153 23.7997C49.8446 23.7505 50.1704 23.7271 50.4927 23.7271C53.1153 23.7271 55.4579 25.2985 56.5056 27.6188C56.8782 28.4427 57.0868 29.3603 57.0868 30.3364Z" fill="#2E3140"/>
<path d="M56.5055 27.6188C55.9594 27.9446 55.3934 28.2587 54.8098 28.5575C54.0586 26.7282 52.1063 25.0923 49.3418 23.829C49.3992 23.8185 49.4566 23.8079 49.5152 23.7997C49.8445 23.7505 50.1703 23.7271 50.4926 23.7271C53.1152 23.7271 55.4578 25.2985 56.5055 27.6188Z" fill="#3F5D77"/>
<path d="M13.1651 33.9072C11.4837 33.9072 10.5458 33.2427 9.71836 32.6563C8.94668 32.1095 8.28035 31.6372 7.01367 31.6372C6.69012 31.6372 6.42773 31.3749 6.42773 31.0513C6.42773 30.7276 6.69012 30.4653 7.01367 30.4653C8.65336 30.4653 9.57914 31.1215 10.3959 31.7001C11.1797 32.2556 11.8567 32.7354 13.165 32.7354C13.7236 32.7354 14.8466 32.2407 15.4233 31.9289C15.708 31.775 16.0635 31.8808 16.2173 32.1655C16.3713 32.45 16.2657 32.8054 15.9812 32.9594C15.8023 33.0565 14.2016 33.9072 13.1651 33.9072Z" fill="#EA792E"/>
<path d="M24.0539 21.7774L30.5717 22.8816C31.1692 22.9828 31.3857 23.7294 30.9348 24.1345C30.2126 24.7835 29.2337 25.0674 28.2763 24.9057L25.5611 24.4471C24.6474 24.2927 23.8463 23.748 23.3669 22.9551L23.3132 22.8664C22.9923 22.3359 23.4428 21.6738 24.0539 21.7774Z" fill="#F39E22"/>
<path d="M14.993 29.1247C14.9715 29.1849 14.9456 29.2452 14.9177 29.3053C14.8037 29.5527 14.6446 29.7828 14.4424 29.985C13.5111 30.9163 11.9993 30.9163 11.068 29.985C10.1367 29.0537 10.1389 27.544 11.068 26.6127C11.1089 26.574 11.1476 26.5353 11.1906 26.5009C11.4143 26.3052 11.6659 26.1589 11.9304 26.06C12.7756 25.7503 13.7627 25.9331 14.4424 26.6127C15.1199 27.2901 15.3048 28.2773 14.993 29.1247Z" fill="#EA792E"/>
<path d="M14.9931 29.1248C14.9716 29.185 14.9457 29.2453 14.9178 29.3054C14.7113 29.3484 14.4984 29.3721 14.279 29.3721C12.6445 29.3721 11.3046 28.1075 11.1907 26.5009C11.4144 26.3052 11.666 26.1589 11.9305 26.06C12.7758 25.7503 13.7628 25.9331 14.4425 26.6127C15.12 27.2902 15.3049 28.2774 14.9931 29.1248Z" fill="#F39E22"/>
<path d="M14.2625 28.2991C14.2625 28.9481 13.8508 29.5025 13.2749 29.715C13.1123 29.7731 12.938 29.8063 12.7554 29.8063C11.9222 29.8063 11.2483 29.1307 11.2483 28.2991C11.2483 27.4659 11.9222 26.792 12.7554 26.792C12.938 26.792 13.1123 26.8252 13.2749 26.8833C13.8508 27.0959 14.2625 27.6485 14.2625 28.2991Z" fill="#3F5D77"/>
<path d="M13.2749 29.715C13.8203 29.715 14.2624 29.0811 14.2624 28.2992C14.2624 27.5172 13.8203 26.8833 13.2749 26.8833C12.7295 26.8833 12.2874 27.5172 12.2874 28.2992C12.2874 29.0811 12.7295 29.715 13.2749 29.715Z" fill="#2E3140"/>
<path d="M12.7548 28.6864C13.1651 28.6864 13.4977 28.3538 13.4977 27.9435C13.4977 27.5333 13.1651 27.2007 12.7548 27.2007C12.3445 27.2007 12.012 27.5333 12.012 27.9435C12.012 28.3538 12.3445 28.6864 12.7548 28.6864Z" fill="#83D5EF"/>
<path d="M28.697 37.3795C28.6665 37.6409 28.5857 37.8893 28.4603 38.1143C28.3361 38.3381 28.1673 38.5385 27.9611 38.7002L24.538 41.392C24.2193 41.644 23.8021 41.7342 23.4072 41.637L22.6724 41.4577L20.5712 40.9432C20.3075 40.8787 20.0708 40.7346 19.8915 40.5295L16.3009 36.4268C15.9892 36.0705 15.8919 35.576 16.0454 35.1284C16.1204 34.908 16.2505 34.7159 16.4193 34.567C16.588 34.4182 16.7954 34.3116 17.0228 34.2635L21.7607 33.2662L22.9243 33.0213C23.2478 32.9534 23.5853 33.0096 23.87 33.1772L27.7466 35.4717C28.4122 35.8655 28.7837 36.612 28.697 37.3795Z" fill="#EA792E"/>
<path d="M17.2405 35.5866C17.0425 35.5866 16.8682 35.4427 16.836 35.241C16.8003 35.0173 16.9527 34.8071 17.1763 34.7714L21.696 34.0498C21.9195 34.0133 22.13 34.1664 22.1657 34.3901C22.2014 34.6139 22.049 34.8241 21.8254 34.8598L17.3057 35.5814C17.2838 35.5849 17.262 35.5866 17.2405 35.5866Z" fill="#F39E22"/>
<path d="M18.3366 36.7703C18.113 36.7703 17.9301 36.5909 17.9266 36.3666C17.923 36.1401 18.1038 35.9537 18.3303 35.95L24.5913 35.8521C24.8195 35.853 25.0042 36.0294 25.0077 36.2558C25.0113 36.4822 24.8305 36.6687 24.604 36.6724L18.343 36.7703C18.3409 36.7703 18.3388 36.7703 18.3366 36.7703Z" fill="#F39E22"/>
<path d="M23.8319 38.794C23.8138 38.794 23.7954 38.7928 23.7768 38.7904L19.0153 38.1508C18.7907 38.1207 18.6332 37.9142 18.6634 37.6896C18.6935 37.4651 18.9002 37.3074 19.1245 37.3377L23.8861 37.9773C24.1106 38.0075 24.2681 38.2139 24.238 38.4385C24.2103 38.6445 24.0342 38.794 23.8319 38.794Z" fill="#F39E22"/>
<path d="M22.535 40.3657C22.5046 40.3657 22.4736 40.3623 22.4427 40.3552L19.9674 39.7856C19.7466 39.7347 19.6089 39.5146 19.6597 39.2938C19.7105 39.0732 19.9306 38.9354 20.1515 38.9861L22.6268 39.5557C22.8476 39.6066 22.9853 39.8267 22.9344 40.0475C22.8907 40.2372 22.722 40.3657 22.535 40.3657Z" fill="#F39E22"/>
<path d="M28.6971 37.3795C28.6666 37.6409 28.5857 37.8893 28.4604 38.1143C28.4475 38.1366 28.4346 38.1588 28.4205 38.1811C28.3021 38.378 28.1463 38.5549 27.9611 38.7002L24.5381 41.392C24.2193 41.644 23.8021 41.7342 23.4072 41.637L22.6725 41.4577L25.9807 38.8537C26.2912 38.6112 26.5174 38.2819 26.6357 37.9127C26.6744 37.7909 26.7025 37.6643 26.7166 37.5342C26.7248 37.4592 26.7295 37.3854 26.7295 37.3116C26.7295 36.6248 26.3674 35.9815 25.7674 35.6264L21.8896 33.3319C21.8475 33.3073 21.8053 33.285 21.7607 33.2662L22.9244 33.0213C23.2479 32.9534 23.5854 33.0096 23.8701 33.1772L27.7467 35.4717C28.4123 35.8655 28.7838 36.612 28.6971 37.3795Z" fill="#2E3140"/>
<path d="M28.6971 37.3795C28.6666 37.6409 28.5857 37.8893 28.4604 38.1143C28.4475 38.1366 28.4346 38.1588 28.4205 38.1811C27.8064 38.1307 27.2111 38.0393 26.6357 37.9127C26.6744 37.7909 26.7025 37.6643 26.7166 37.5342C26.7248 37.4592 26.7295 37.3854 26.7295 37.3116C26.7295 36.6248 26.3674 35.9815 25.7674 35.6264L21.8896 33.3319C21.8475 33.3073 21.8053 33.285 21.7607 33.2662L22.9244 33.0213C23.2479 32.9534 23.5854 33.0096 23.8701 33.1772L27.7467 35.4717C28.4123 35.8655 28.7838 36.612 28.6971 37.3795Z" fill="#3F5D77"/>
<path d="M34.7779 21.6598L33.4924 21.4618L22.7627 19.8094L22.0244 19.6958C23.924 16.2364 24.9178 15.3188 28.09 16.0454C31.2623 16.7719 34.7779 21.6598 34.7779 21.6598Z" fill="#EA792E"/>
<path d="M34.7779 21.6598L33.4924 21.4617C33.0295 20.9332 32.4658 20.3309 31.8424 19.7555C30.7045 18.7019 29.3697 17.7316 28.09 17.4387C26.8232 17.1492 25.9033 17.1211 25.1346 17.4141C24.2428 17.7527 23.5549 18.5215 22.7627 19.8094L22.0244 19.6957C22.8506 18.1898 23.5068 17.1656 24.2439 16.5504C25.2014 15.7488 26.2982 15.6351 28.09 16.0453C29.965 16.4742 31.9596 18.3574 33.2779 19.8258C34.1896 20.8418 34.7779 21.6598 34.7779 21.6598Z" fill="#2E3140"/>
<path d="M33.2779 19.8258C32.7892 19.8223 32.3099 19.7976 31.8423 19.7555C30.7044 18.7019 29.3697 17.7316 28.09 17.4387C26.8232 17.1492 25.9033 17.1211 25.1345 17.4141C24.7923 17.1434 24.4947 16.8539 24.2439 16.5504C25.2013 15.7488 26.2982 15.6351 28.09 16.0453C29.965 16.4742 31.9595 18.3574 33.2779 19.8258Z" fill="#3F5D77"/>
<path d="M24.8435 20.3229C24.7768 20.3229 24.7093 20.3066 24.6467 20.2722C24.4481 20.1634 24.3753 19.9141 24.4841 19.7155L25.4312 17.9866C25.54 17.788 25.7894 17.7151 25.9879 17.824C26.1866 17.9328 26.2593 18.1821 26.1506 18.3807L25.2035 20.1096C25.1289 20.2458 24.9883 20.3229 24.8435 20.3229Z" fill="#F39E22"/>
<path d="M26.9116 20.859C26.8449 20.859 26.7771 20.8426 26.7146 20.8083C26.516 20.6992 26.4434 20.4499 26.5524 20.2514L27.7546 18.061C27.8638 17.8623 28.1132 17.79 28.3115 17.8987C28.51 18.0078 28.5826 18.2571 28.4737 18.4556L27.2714 20.646C27.1968 20.7821 27.0563 20.859 26.9116 20.859Z" fill="#F39E22"/>
<path d="M29.0054 21.3167C28.9451 21.3167 28.8839 21.3033 28.826 21.2752C28.6225 21.1759 28.5377 20.9305 28.637 20.7267L29.3937 19.1738C29.4931 18.9702 29.7387 18.8858 29.9421 18.9847C30.1457 19.084 30.2304 19.3294 30.1311 19.5332L29.3745 21.0862C29.3034 21.2319 29.1574 21.3167 29.0054 21.3167Z" fill="#F39E22"/>
<path d="M30.816 21.7758C30.7581 21.7758 30.6992 21.7635 30.6433 21.7374C30.4379 21.6419 30.3488 21.3981 30.4443 21.1926L30.8497 20.3209C30.9452 20.1154 31.1891 20.0263 31.3945 20.1219C31.5999 20.2174 31.689 20.4613 31.5935 20.6667L31.1881 21.5385C31.1186 21.6879 30.9706 21.7758 30.816 21.7758Z" fill="#F39E22"/>
</g>
<defs>
<clipPath id="clip0_1123_24172">
<rect width="60" height="60" fill="white"/>
</clipPath>
</defs>
</svg>
