<svg width="60" height="60" viewBox="0 0 60 60" fill="none" xmlns="http://www.w3.org/2000/svg">
<g clip-path="url(#clip0_1123_26559)">
<path d="M30 60C46.5685 60 60 46.5685 60 30C60 13.4315 46.5685 0 30 0C13.4315 0 0 13.4315 0 30C0 46.5685 13.4315 60 30 60Z" fill="#53B976"/>
<path d="M31.446 52.8463H28.5542C18.3369 52.8463 10.2574 44.1942 10.9548 34.0019L11.964 19.2528C12.3952 12.9673 17.6188 8.08887 23.9197 8.08887H36.0805C42.3813 8.08887 47.605 12.9674 48.0362 19.2528L49.0454 34.0019C49.7426 44.1942 41.6631 52.8463 31.446 52.8463Z" fill="#DEB36F"/>
<path d="M31.4461 52.8458H30V8.08838H36.0809C39.0281 8.08838 41.7398 9.15596 43.8352 10.936C46.2199 12.961 47.8066 15.9071 48.0363 19.2528L49.0453 34.0021C49.7426 44.1938 41.6637 52.8458 31.4461 52.8458Z" fill="#FBCB74"/>
<path d="M43.8352 10.936L36.6023 13.9231L30 16.0677V8.08838H36.0809C39.0281 8.08838 41.7398 9.15596 43.8352 10.936Z" fill="#F39E22"/>
<path d="M16.1648 10.936L23.3976 13.9231L30 16.0677V8.08838H23.9191C20.9718 8.08838 18.2601 9.15596 16.1648 10.936Z" fill="#EA792E"/>
<path d="M44.7623 33.7762L41.1364 38.7864C39.2439 41.4022 36.2113 42.9511 32.9835 42.9511H30V15.1611C32.1156 15.1611 34.555 14.5719 36.6028 13.9229C39.1736 13.1066 41.9367 14.4246 42.9442 16.9263L45.9197 24.3175C47.1858 27.4602 46.7477 31.0316 44.7623 33.7762Z" fill="#F9C744"/>
<path d="M30 15.1606C27.8847 15.1606 25.4453 14.572 23.3972 13.9224C20.8267 13.1071 18.0634 14.425 17.0562 16.9265L14.0801 24.3174C12.8147 27.4598 13.252 31.0318 15.238 33.7761L18.8642 38.7868C20.7567 41.402 23.789 42.9506 27.0171 42.9506H30V15.1606Z" fill="#F39E22"/>
<path d="M37.1356 49.8678H30.2363C30.1059 49.8678 30.0002 49.7621 30.0002 49.6318V44.3591C30.0002 44.2287 30.1059 44.123 30.2363 44.123H37.1356C38.7219 44.123 40.0079 45.4091 40.0079 46.9954C40.0081 48.5818 38.722 49.8678 37.1356 49.8678Z" fill="#FBD9A3"/>
<path d="M22.8648 44.123H29.7641C29.8944 44.123 30.0001 44.2288 30.0001 44.3591V49.6318C30.0001 49.7621 29.8944 49.8678 29.7641 49.8678H22.8648C21.2784 49.8678 19.9924 48.5818 19.9924 46.9954C19.9923 45.4091 21.2783 44.123 22.8648 44.123Z" fill="#FBCB74"/>
<path d="M43.035 33.1371L39.837 37.5551L39.8334 37.561C38.1624 39.8707 35.4846 41.2383 32.6346 41.2383H30.0002V16.7004C31.8682 16.7004 34.0221 16.1801 35.8303 15.6071C38.1002 14.8863 40.5401 16.05 41.4295 18.259L44.0569 24.7852C45.1749 27.5602 44.7881 30.7137 43.035 33.1371Z" fill="#F4E6F4"/>
<path d="M30.0001 16.7004V41.2383H27.3658C24.5158 41.2383 21.838 39.8707 20.1669 37.561L16.9654 33.1371C15.2122 30.7137 14.8255 27.5602 15.9435 24.7852L18.5708 18.259C19.4603 16.05 21.9001 14.8863 24.1701 15.6071C25.9783 16.1801 28.1322 16.7004 30.0001 16.7004Z" fill="#DECEE5"/>
<path d="M30.0002 33.4337V41.2384H27.3658C24.5158 41.2384 21.8381 39.8708 20.167 37.5611L22.3298 35.3988C23.5885 34.1405 25.2954 33.4336 27.0752 33.4336H30.0002V33.4337Z" fill="#F4E6F4"/>
<path d="M39.837 37.5551L39.8334 37.5609C38.1624 39.8707 35.4846 41.2383 32.6346 41.2383H30.0002V33.4336H32.9353C34.7154 33.4336 36.4226 34.1407 37.6813 35.3994L39.837 37.5551Z" fill="white"/>
<path d="M37.368 22.4203C35.6756 22.4203 34.4243 23.9966 34.8083 25.645L35.3722 28.0653C35.8782 30.2373 34.2294 32.3145 31.9991 32.3145H30V16.7004C31.868 16.7004 34.0219 16.1801 35.8301 15.6071C38.1 14.8863 40.5398 16.05 41.4293 18.259L39.783 21.0428C39.2781 21.8966 38.3599 22.4203 37.368 22.4203Z" fill="white"/>
<path d="M22.6321 22.4203C24.3245 22.4203 25.5758 23.9966 25.1918 25.645L24.6279 28.0653C24.1219 30.2373 25.7707 32.3145 28.001 32.3145H30.0001V16.7004C28.1321 16.7004 25.9782 16.1801 24.17 15.6071C21.9001 14.8863 19.4603 16.05 18.5708 18.259L20.2171 21.0428C20.722 21.8966 21.6402 22.4203 22.6321 22.4203Z" fill="#F4E6F4"/>
<path d="M39.1903 22.9989C39.7694 24.0019 39.4338 25.281 38.4408 25.8712C38.4332 25.8775 38.4247 25.8823 38.4162 25.8872L37.1423 26.6227C36.6372 26.9143 36.0606 26.9745 35.5378 26.8343C35.0135 26.695 34.5449 26.3561 34.2526 25.8496C33.7093 24.9086 33.971 23.723 34.8242 23.093C34.8884 23.0446 34.9565 22.9997 35.0271 22.959L36.301 22.2235C36.8075 21.9311 37.3835 21.8731 37.9063 22.0132C38.4294 22.1535 38.8979 22.4924 39.1903 22.9989Z" fill="#3E4E60"/>
<path d="M39.1903 22.9988C39.7694 24.0018 39.4338 25.2809 38.4409 25.8711C37.1616 25.8252 35.8897 25.085 35.1574 23.8166C35.0213 23.5811 34.9098 23.3389 34.8242 23.093C34.8884 23.0446 34.9565 22.9997 35.0271 22.959L36.301 22.2235C36.8075 21.9311 37.3835 21.8731 37.9064 22.0132C38.4294 22.1534 38.8979 22.4923 39.1903 22.9988Z" fill="#2E3140"/>
<path d="M37.17 22.824L36.4035 23.2665C36.0734 23.4571 35.9604 23.879 36.1509 24.2092C36.3415 24.5392 36.7635 24.6522 37.0936 24.4617L37.8601 24.0192C38.1901 23.8287 38.3032 23.4067 38.1126 23.0765C37.922 22.7465 37.5 22.6335 37.17 22.824Z" fill="white"/>
<path d="M20.8099 22.9989C20.2307 24.0019 20.5664 25.281 21.5593 25.8712C21.5669 25.8775 21.5753 25.8823 21.5839 25.8872L22.8578 26.6227C23.3629 26.9143 23.9395 26.9745 24.4624 26.8343C24.9867 26.695 25.4552 26.3561 25.7476 25.8496C26.2909 24.9086 26.0292 23.723 25.1759 23.093C25.1117 23.0446 25.0436 22.9997 24.9731 22.959L23.6991 22.2235C23.1927 21.9311 22.6167 21.8731 22.0938 22.0132C21.5708 22.1535 21.1024 22.4924 20.8099 22.9989Z" fill="#3E4E60"/>
<path d="M20.8099 22.9988C20.2307 24.0018 20.5664 25.2809 21.5593 25.8711C22.8385 25.8252 24.1105 25.085 24.8428 23.8166C24.9788 23.5811 25.0904 23.3389 25.1759 23.093C25.1117 23.0446 25.0436 22.9997 24.9731 22.959L23.6991 22.2235C23.1927 21.9311 22.6167 21.8731 22.0938 22.0132C21.5708 22.1534 21.1024 22.4923 20.8099 22.9988Z" fill="#2E3140"/>
<path d="M22.8301 22.824L23.5967 23.2665C23.9267 23.4571 24.0397 23.879 23.8492 24.2092C23.6587 24.5392 23.2367 24.6522 22.9065 24.4617L22.14 24.0192C21.81 23.8287 21.6969 23.4067 21.8875 23.0765C22.078 22.7465 22.5 22.6335 22.8301 22.824Z" fill="white"/>
<path d="M30 30.4678V39.1152C30.6361 39.1152 31.1905 38.6819 31.3441 38.0647L32.4752 33.5221C32.8617 31.9701 31.6876 30.4678 30.0881 30.4678H30Z" fill="#F0A6B3"/>
<path d="M30 30.4678V39.1152C29.3639 39.1152 28.8095 38.6819 28.6559 38.0647L27.5248 33.5221C27.1383 31.9701 28.3124 30.4678 29.9119 30.4678H30Z" fill="#F4829B"/>
</g>
<defs>
<clipPath id="clip0_1123_26559">
<rect width="60" height="60" fill="white"/>
</clipPath>
</defs>
</svg>
