<svg width="60" height="60" viewBox="0 0 60 60" fill="none" xmlns="http://www.w3.org/2000/svg">
<g clip-path="url(#clip0_1123_23117)">
<path d="M30 60C46.5685 60 60 46.5685 60 30C60 13.4315 46.5685 0 30 0C13.4315 0 0 13.4315 0 30C0 46.5685 13.4315 60 30 60Z" fill="#EE6781"/>
<path d="M49.3345 33.1758C50.1759 34.0148 50.6958 35.1752 50.6958 36.4571C50.6958 39.0161 48.6208 41.091 46.0619 41.091C45.6958 41.091 45.3396 41.0475 44.9984 40.9669C45.156 41.3441 45.2441 41.7575 45.2441 42.1918C45.2441 43.9454 43.822 45.3675 42.0684 45.3675C41.3461 45.3675 40.6809 45.1255 40.1473 44.7197C39.3854 44.1401 38.8926 43.223 38.8926 42.1918C38.8926 40.4382 40.3148 39.016 42.0684 39.016C42.113 39.016 42.1577 39.0184 42.2011 39.0197C41.7134 38.2862 41.4279 37.4051 41.4279 36.4571C41.4279 34.9902 42.1105 33.6834 43.174 32.8333C41.3212 31.6928 40.0864 29.6451 40.0864 27.3095C40.0864 23.9364 42.6603 21.1664 45.9515 20.855C46.155 20.8352 46.3622 20.8252 46.5707 20.8252C50.1523 20.8252 53.055 23.7279 53.055 27.3095C53.055 29.902 51.5336 32.1384 49.3345 33.1758Z" fill="white"/>
<path d="M46.2865 32.7353C47.1279 33.5743 47.6479 34.7347 47.6479 36.0166C47.6479 38.5756 45.5729 40.6505 43.0139 40.6505C42.6479 40.6505 42.2917 40.6059 41.9505 40.5264C42.1081 40.9025 42.1962 41.317 42.1962 41.7513C42.1962 43.1077 41.3448 44.2655 40.1473 44.7197C39.3854 44.1401 38.8926 43.223 38.8926 42.1918C38.8926 40.4382 40.3148 39.016 42.0684 39.016C42.113 39.016 42.1577 39.0185 42.2011 39.0197C41.7134 38.2863 41.4279 37.4051 41.4279 36.4571C41.4279 34.9903 42.1105 33.6834 43.174 32.8333C41.3212 31.6928 40.0864 29.6451 40.0864 27.3096C40.0864 23.9364 42.6603 21.1665 45.9515 20.855C48.3292 21.8156 50.0071 24.1462 50.0071 26.8689C50.0071 29.4616 48.4857 31.6979 46.2865 32.7353Z" fill="#F4E6F4"/>
<path d="M10.6657 33.1758C9.82425 34.0148 9.30429 35.1752 9.30429 36.4571C9.30429 39.0161 11.3793 41.091 13.9382 41.091C14.3043 41.091 14.6605 41.0475 15.0017 40.9669C14.8441 41.3441 14.756 41.7575 14.756 42.1918C14.756 43.9454 16.1782 45.3675 17.9317 45.3675C18.654 45.3675 19.3192 45.1255 19.8528 44.7197C20.6148 44.1401 21.1075 43.223 21.1075 42.1918C21.1075 40.4382 19.6853 39.016 17.9317 39.016C17.8871 39.016 17.8425 39.0184 17.799 39.0197C18.2867 38.2862 18.5722 37.4051 18.5722 36.4571C18.5722 34.9902 17.8896 33.6834 16.8261 32.8333C18.6789 31.6928 19.9137 29.6451 19.9137 27.3095C19.9137 23.9364 17.3398 21.1664 14.0486 20.855C13.8451 20.8352 13.6379 20.8252 13.4294 20.8252C9.8478 20.8252 6.94507 23.7279 6.94507 27.3095C6.94507 29.902 8.46651 32.1384 10.6657 33.1758Z" fill="white"/>
<path d="M13.7135 32.7353C12.8721 33.5743 12.3521 34.7347 12.3521 36.0166C12.3521 38.5756 14.4272 40.6505 16.9861 40.6505C17.3522 40.6505 17.7083 40.6059 18.0496 40.5264C17.8919 40.9025 17.8038 41.317 17.8038 41.7513C17.8038 43.1077 18.6552 44.2655 19.8527 44.7197C20.6147 44.1401 21.1075 43.223 21.1075 42.1918C21.1075 40.4382 19.6853 39.016 17.9317 39.016C17.887 39.016 17.8424 39.0185 17.7989 39.0197C18.2866 38.2863 18.5721 37.4051 18.5721 36.4571C18.5721 34.9903 17.8895 33.6834 16.826 32.8333C18.6789 31.6928 19.9137 29.6451 19.9137 27.3096C19.9137 23.9364 17.3398 21.1665 14.0485 20.855C11.6708 21.8156 9.99292 24.1462 9.99292 26.8689C9.99292 29.4616 11.5144 31.6979 13.7135 32.7353Z" fill="#F4E6F4"/>
<path d="M55.4156 16.5331L55.5835 17.5396C56.1189 20.7475 54.4803 23.8931 51.9242 24.5648L44.4548 26.5278C43.1126 26.8805 41.7971 25.8013 41.5161 24.1178C41.3937 23.3838 41.4882 22.6479 41.7506 22.0239C42.0138 21.3997 42.4455 20.8868 42.9966 20.5999L48.0831 17.9595L53.4026 15.1982C54.2591 14.7535 55.2258 15.3953 55.4156 16.5331Z" fill="#C2AACF"/>
<path d="M51.0957 23.1381L44.9212 25.5386L44.6528 25.6425C44.5989 25.664 44.5451 25.6813 44.4909 25.6955C43.6139 25.926 42.7245 25.2837 42.4542 24.188C42.1675 23.0244 42.6862 21.7894 43.6131 21.4287L49.8502 19.0044L50.0552 18.9244C50.1091 18.9029 50.1629 18.8856 50.2171 18.8714C51.0942 18.6409 51.9834 19.2823 52.2538 20.3789C52.5413 21.5424 52.0226 22.7774 51.0957 23.1381Z" fill="#EE6781"/>
<path d="M51.0956 23.138L44.9211 25.5385C45.5801 22.783 47.3849 20.3496 49.8503 19.0044L50.0552 18.9244C50.1092 18.9029 50.1629 18.8856 50.2172 18.8714C51.0942 18.6409 51.9834 19.2823 52.2539 20.3789C52.5413 21.5422 52.0226 22.7773 51.0956 23.138Z" fill="#F4829B"/>
<path d="M54.0387 20.8256H53.6007C53.2389 20.8256 52.9279 20.5036 52.8591 20.058L52.4852 17.6377C52.4027 17.1037 52.6944 16.5923 53.1236 16.5181L53.9357 16.3777C54.3896 16.2992 54.7942 16.7418 54.7942 17.3168V19.8775C54.7941 20.4011 54.4559 20.8256 54.0387 20.8256Z" fill="#DECEE5"/>
<path d="M4.58443 16.5331L4.4165 17.5397C3.8813 20.7476 5.5197 23.8931 8.07579 24.5648L15.5452 26.5278C16.8875 26.8806 18.2029 25.8014 18.4839 24.1179C18.6064 23.3838 18.5118 22.648 18.2494 22.024C17.9862 21.3997 17.5545 20.8869 17.0035 20.5999L11.917 17.9596L6.59724 15.1981C5.74095 14.7535 4.77427 15.3954 4.58443 16.5331Z" fill="#A583BB"/>
<path d="M8.90434 23.138L15.0788 25.5385L15.3472 25.6424C15.4011 25.6638 15.4549 25.6812 15.5091 25.6954C16.3862 25.9259 17.2755 25.2836 17.5459 24.1879C17.8325 23.0243 17.3138 21.7893 16.3869 21.4286L10.1496 19.0044L9.94461 18.9244C9.8907 18.9029 9.83691 18.8856 9.78266 18.8714C8.90562 18.6409 8.01641 19.2823 7.74594 20.3789C7.45871 21.5422 7.97738 22.7773 8.90434 23.138Z" fill="#DD5273"/>
<path d="M8.90452 23.138L15.079 25.5385C14.4201 22.783 12.6153 20.3496 10.1499 19.0044L9.94491 18.9244C9.891 18.9029 9.83721 18.8856 9.78296 18.8714C8.90592 18.6409 8.0167 19.2823 7.74624 20.3789C7.45889 21.5422 7.97756 22.7773 8.90452 23.138Z" fill="#EE6781"/>
<path d="M5.94887 20.8256H6.38691C6.74867 20.8256 7.05969 20.5036 7.12848 20.058L7.50242 17.6377C7.58492 17.1037 7.29324 16.5923 6.86398 16.5181L6.05187 16.3777C5.59801 16.2992 5.19336 16.7418 5.19336 17.3168V19.8775C5.19348 20.4011 5.53168 20.8256 5.94887 20.8256Z" fill="#C2AACF"/>
<path d="M43.9789 25.8192L42.8359 37.6511C42.5566 40.5327 40.9433 42.9874 38.6424 44.4282C38.1609 44.7286 37.7774 45.1455 37.5131 45.6284C37.2487 46.1111 37.1048 46.6609 37.1048 47.2281C37.1048 49.1902 36.3094 50.966 35.0236 52.2518C33.7379 53.5375 31.9619 54.333 30 54.333C28.038 54.333 26.2621 53.5376 24.9764 52.2518C23.6907 50.9661 22.8951 49.1902 22.8951 47.2281C22.8951 46.0938 22.3193 45.0302 21.3575 44.4284C19.0567 42.9875 17.4433 40.5328 17.1641 37.6512L16.021 25.8193C15.5097 20.5214 19.6746 15.9346 24.9974 15.9346H35.0025C40.3254 15.9345 44.4902 20.5213 43.9789 25.8192Z" fill="#C2AACF"/>
<path d="M43.9789 25.8193L42.8359 37.6512C42.5566 40.5328 40.9433 42.9875 38.6425 44.4284C38.1609 44.7287 37.7774 45.1457 37.5131 45.6285C37.2487 46.1112 37.1048 46.661 37.1048 47.2282C37.1048 49.1903 36.3094 50.9661 35.0236 52.2519C33.7379 53.5376 31.962 54.3332 30 54.3332V15.9346H35.0026C40.3254 15.9346 44.4902 20.5214 43.9789 25.8193Z" fill="#DECEE5"/>
<path d="M42.0285 27.6108C42.3392 28.7702 41.6602 29.9605 40.5081 30.2848C40.4987 30.289 40.489 30.2917 40.4792 30.2943L39.0068 30.6889C38.4231 30.8453 37.8298 30.7509 37.3439 30.4703C36.8564 30.1903 36.4785 29.7254 36.3216 29.14C36.0301 28.0524 36.61 26.9358 37.6332 26.5342C37.7104 26.5031 37.7907 26.4764 37.8722 26.4544L39.3446 26.0599C39.9299 25.9031 40.5221 25.9995 41.0078 26.2801C41.4937 26.5606 41.8716 27.0255 42.0285 27.6108Z" fill="#3E4E60"/>
<path d="M42.0284 27.611C42.3391 28.7703 41.6601 29.9606 40.508 30.2849C39.2399 29.896 38.1652 28.8138 37.7725 27.348C37.6995 27.0756 37.6527 26.8034 37.6331 26.5342C37.7103 26.5031 37.7906 26.4764 37.8721 26.4544L39.3445 26.0599C39.9298 25.9031 40.522 25.9995 41.0077 26.2801C41.4936 26.5607 41.8715 27.0256 42.0284 27.611Z" fill="#2E3140"/>
<path d="M40.0531 26.8942L39.1672 27.1316C38.7857 27.2338 38.5593 27.6259 38.6615 28.0073C38.7637 28.3888 39.1558 28.6152 39.5372 28.513L40.4232 28.2756C40.8046 28.1734 41.031 27.7813 40.9288 27.3998C40.8267 27.0183 40.4345 26.792 40.0531 26.8942Z" fill="white"/>
<path d="M23.7675 29.1403C23.4568 30.2997 22.2737 30.991 21.1138 30.6959C21.1036 30.6949 21.0938 30.6922 21.084 30.6897L19.6117 30.2951C19.028 30.1386 18.5613 29.7602 18.2809 29.2744C17.9987 28.7881 17.9039 28.1965 18.0607 27.6111C18.3522 26.5235 19.4126 25.8465 20.4994 26.0101C20.5819 26.0217 20.6647 26.0387 20.7463 26.0605L22.2186 26.4551C22.804 26.6119 23.2685 26.9916 23.5491 27.4774C23.8295 27.9633 23.9244 28.555 23.7675 29.1403Z" fill="#3E4E60"/>
<path d="M23.7675 29.1403C23.4568 30.2997 22.2737 30.991 21.1138 30.6959C20.21 29.725 19.8205 28.2504 20.2132 26.7846C20.2862 26.5123 20.3818 26.2531 20.4994 26.0103C20.5819 26.0219 20.6647 26.0388 20.7463 26.0606L22.2186 26.4552C22.804 26.612 23.2685 26.9917 23.549 27.4776C23.8295 27.9633 23.9244 28.555 23.7675 29.1403Z" fill="#2E3140"/>
<path d="M22.4154 27.532L21.5294 27.2945C21.148 27.1924 20.7559 27.4188 20.6537 27.8002C20.5515 28.1817 20.7779 28.5738 21.1593 28.676L22.0453 28.9134C22.4267 29.0156 22.8188 28.7892 22.921 28.4077C23.0232 28.0263 22.7968 27.6342 22.4154 27.532Z" fill="white"/>
<path d="M31.8279 39.3205H30V30.2852H31.8279C33.3012 30.2852 34.4954 31.4794 34.4954 32.9527V36.6529C34.4954 38.1262 33.3012 39.3205 31.8279 39.3205Z" fill="#F4E6F4"/>
<path d="M28.1722 39.3205H30.0001V30.2852H28.1722C26.6989 30.2852 25.5046 31.4794 25.5046 32.9527V36.6529C25.5046 38.1262 26.6989 39.3205 28.1722 39.3205Z" fill="#DECEE5"/>
<path d="M29.9998 46.6201C31.0486 46.6201 31.8988 43.8082 31.8988 42.7594C31.8988 41.7105 31.0486 40.8604 29.9998 40.8604V46.6201Z" fill="#F4E6F4"/>
<path d="M29.9999 40.8604C28.951 40.8604 28.1008 41.7105 28.1008 42.7594C28.1008 43.8082 28.951 46.6201 29.9999 46.6201V40.8604Z" fill="#DECEE5"/>
<path d="M38.565 32.6553C37.462 32.6553 36.5679 33.5494 36.5679 34.6524V39.1721C36.5679 40.275 37.462 41.1692 38.565 41.1692C39.6679 41.1692 40.5621 40.275 40.5621 39.1721V34.6524C40.5621 33.5494 39.6679 32.6553 38.565 32.6553Z" fill="#F4E6F4"/>
<path d="M21.4349 32.6553C20.3319 32.6553 19.4377 33.5494 19.4377 34.6524V39.1721C19.4377 40.275 20.3319 41.1692 21.4349 41.1692C22.5378 41.1692 23.432 40.275 23.432 39.1721V34.6524C23.4318 33.5494 22.5378 32.6553 21.4349 32.6553Z" fill="#DECEE5"/>
<path d="M31.832 47.8813C31.832 47.6143 31.9381 47.3583 32.1269 47.1695L33.6336 45.6628C34.1966 45.0997 35.1598 45.3825 35.329 46.1607L35.6567 47.6674C35.7931 48.2948 35.3152 48.8879 34.673 48.8879H32.8387C32.2826 48.8879 31.832 48.4372 31.832 47.8813Z" fill="#F4E6F4"/>
<path d="M28.1681 47.8813C28.1681 47.6143 28.062 47.3583 27.8732 47.1695L26.3666 45.6628C25.8035 45.0997 24.8403 45.3825 24.6711 46.1607L24.3434 47.6674C24.207 48.2948 24.6849 48.8879 25.3271 48.8879H27.1614C27.7175 48.8879 28.1681 48.4372 28.1681 47.8813Z" fill="#DECEE5"/>
<path d="M24.3375 21.4614H23.2592C22.2309 21.4614 21.3972 22.2951 21.3972 23.3234V24.4017C21.3972 25.43 22.2309 26.2637 23.2592 26.2637H24.3375C25.3658 26.2637 26.1994 25.43 26.1994 24.4017V23.3234C26.1993 22.2951 25.3658 21.4614 24.3375 21.4614Z" fill="#A583BB"/>
<path d="M36.7408 21.4614H35.6625C34.6342 21.4614 33.8005 22.2951 33.8005 23.3234V24.4017C33.8005 25.43 34.6342 26.2637 35.6625 26.2637H36.7408C37.7691 26.2637 38.6028 25.43 38.6028 24.4017V23.3234C38.6028 22.2951 37.7692 21.4614 36.7408 21.4614Z" fill="#C2AACF"/>
<path d="M37.027 49.8911C36.8635 49.5899 36.4868 49.4778 36.1857 49.6415C36.1756 49.647 35.148 50.1869 33.9994 50.1869C33.0633 50.1869 31.9833 49.9471 31.1949 49.772C30.9799 49.7243 30.7898 49.6823 30.6207 49.6485V47.6093L34.4473 43.6168C34.6845 43.3694 34.6762 42.9765 34.4288 42.7394C34.1813 42.5023 33.7885 42.5106 33.5515 42.758L30.0002 46.4634L26.4488 42.7581C26.2117 42.5106 25.8189 42.5023 25.5715 42.7395C25.3242 42.9766 25.3158 43.3695 25.553 43.6169L29.3797 47.6095V49.6486C29.2106 49.6824 29.0204 49.7243 28.8054 49.7722C28.017 49.9472 26.937 50.187 26.0009 50.187C24.8484 50.187 23.8283 49.6488 23.8135 49.6409C23.5122 49.4785 23.1366 49.5905 22.9734 49.8912C22.81 50.1924 22.9217 50.5692 23.223 50.7325C23.2754 50.7609 24.5222 51.4281 26.0009 51.4281C27.0731 51.4281 28.2299 51.1714 29.0744 50.9838C29.4463 50.9013 29.868 50.8076 30.0002 50.8076C30.1324 50.8076 30.554 50.9013 30.926 50.9838C31.7704 51.1713 32.9272 51.4281 33.9994 51.4281C35.478 51.4281 36.725 50.761 36.7774 50.7325C37.0786 50.5689 37.1903 50.1923 37.027 49.8911Z" fill="#9175A7"/>
<path d="M46.6062 17.1716C45.9973 16.0268 44.6203 15.3088 43.2729 15.5409C44.3694 11.8105 40.7451 8.29652 37.0107 9.59273V9.59402C36.8071 9.66351 36.6098 9.74671 36.42 9.84351C33.9529 4.27347 26.0454 4.27617 23.5803 9.84351C19.7647 7.94378 15.5627 11.5082 16.7274 15.541C14.7881 15.2072 12.9684 16.7898 12.9982 18.7193C12.9982 20.4976 14.4402 21.9397 16.2173 21.9397C18.0228 21.9428 19.4889 20.4421 19.4353 18.6361C21.2404 19.4858 23.6526 18.9646 24.9417 17.5154C27.5744 20.3707 32.4267 20.3699 35.0585 17.5154C36.3472 18.9644 38.7601 19.4857 40.5649 18.6361C40.5113 20.4421 41.9773 21.9426 43.7829 21.9397C46.1967 21.9744 47.7916 19.2573 46.6062 17.1716Z" fill="#F4E6F4"/>
<path d="M43.7827 15.5C43.609 15.5 43.439 15.5136 43.2726 15.5409C44.3691 11.8105 40.7449 8.2964 37.0105 9.59273V9.59402C36.8069 9.66351 36.6096 9.74671 36.4197 9.84351C33.9527 4.27347 26.0451 4.27617 23.5801 9.84351C19.7643 7.94378 15.5626 11.5083 16.7272 15.541C15.3797 15.3089 14.0029 16.0269 13.3938 17.1717C15.0512 20.0951 19.4687 18.9333 19.435 15.541C21.2519 16.3784 23.6017 15.8974 24.9415 14.4204C27.6195 17.2833 32.3809 17.2827 35.0583 14.4204C36.3977 15.8973 38.7483 16.3784 40.5647 15.541C40.5315 18.9355 44.9506 20.0934 46.606 17.1717C46.0588 16.1752 44.9989 15.5 43.7827 15.5Z" fill="white"/>
</g>
<defs>
<clipPath id="clip0_1123_23117">
<rect width="60" height="60" fill="white"/>
</clipPath>
</defs>
</svg>
