<svg width="60" height="60" viewBox="0 0 60 60" fill="none" xmlns="http://www.w3.org/2000/svg">
<g clip-path="url(#clip0_1123_26598)">
<path d="M30 60C46.5685 60 60 46.5685 60 30C60 13.4315 46.5685 0 30 0C13.4315 0 0 13.4315 0 30C0 46.5685 13.4315 60 30 60Z" fill="#6C53A2"/>
<path d="M20.3059 4.44821V22.8232C20.3059 23.8015 20.4912 24.755 20.8357 25.5499L23.0238 30.5985L23.5676 30.0008L28.7249 24.3275L27.4341 15.4008C27.2622 14.3681 26.9482 13.4162 26.516 12.6189L21.6347 3.60153C21.3777 3.13102 20.9496 3.04899 20.6347 3.41004C20.5323 3.52899 20.4496 3.68497 20.3934 3.86274C20.381 3.89965 20.3704 3.93938 20.3612 3.97758C20.325 4.12547 20.3059 4.28415 20.3059 4.44821Z" fill="#F4829B"/>
<path d="M28.725 24.3279L23.5676 30.0009L23.0016 27.5599C22.9066 27.1474 22.827 26.729 22.7648 26.3048C22.4859 24.4205 22.5293 22.4376 22.8984 20.579C23.066 19.733 23.1656 18.7333 23.1984 17.688C23.2664 15.5716 23.0613 13.263 22.5891 11.64L20.3613 3.97827C20.3707 3.9396 20.3812 3.89975 20.3941 3.86342C20.4504 3.6853 20.5324 3.52944 20.6344 3.40991C20.9496 3.04897 21.3773 3.131 21.6352 3.6021L24.1242 8.19924L26.516 12.6184C26.9484 13.4164 27.2625 14.368 27.4348 15.4004L27.9047 18.6489L28.725 24.3279Z" fill="#D48D77"/>
<path d="M24.9023 14.7197C24.9023 15.806 24.8414 16.958 24.7242 18.1169C24.4184 21.1427 23.7328 24.2201 22.7648 26.3048C22.4859 24.4205 22.5293 22.4376 22.8984 20.579C23.066 19.733 23.1656 18.7333 23.1984 17.688C23.2664 15.5716 23.0613 13.263 22.5891 11.64L20.3613 3.97827C20.3707 3.9396 20.3812 3.89975 20.3941 3.86342C20.4504 3.6853 20.5324 3.52944 20.6344 3.40991C20.9496 3.04897 21.3773 3.131 21.6352 3.6021L24.1242 8.19924C24.6258 10.2091 24.9023 12.4111 24.9023 14.7197Z" fill="#EEA47D"/>
<path d="M23.1984 17.688C23.2664 15.5716 23.0613 13.263 22.5891 11.64L20.3613 3.97827C20.3707 3.9396 20.3812 3.89975 20.3941 3.86342C20.4504 3.6853 20.5324 3.52944 20.6344 3.40991C20.9496 3.04897 21.3773 3.131 21.6352 3.6021L24.1242 8.19924L26.516 12.6184C26.9484 13.4164 27.2625 14.368 27.4348 15.4004L27.9047 18.6489C26.2793 18.4966 24.7031 18.1708 23.1984 17.688Z" fill="#2E3140"/>
<path d="M24.9023 14.7197C24.9023 15.806 24.8414 16.958 24.7242 18.1169C24.2086 17.9915 23.6988 17.8486 23.1984 17.688C23.2664 15.5716 23.0613 13.263 22.5891 11.64L20.3613 3.97827C20.3707 3.9396 20.3812 3.89975 20.3941 3.86342C20.4504 3.6853 20.5324 3.52944 20.6344 3.40991C20.9496 3.04897 21.3773 3.131 21.6352 3.6021L24.1242 8.19924C24.6258 10.2091 24.9023 12.4111 24.9023 14.7197Z" fill="#334353"/>
<path d="M39.6929 4.44821V22.8232C39.6929 23.8015 39.5076 24.755 39.1631 25.5499L36.975 30.5985L36.4312 30.0008L31.2739 24.3275L32.5647 15.4008C32.7367 14.3681 33.0506 13.4162 33.4828 12.6189L38.3641 3.60153C38.6211 3.13102 39.0492 3.04899 39.3641 3.41004C39.4665 3.52899 39.5492 3.68497 39.6054 3.86274C39.6178 3.89965 39.6285 3.93938 39.6376 3.97758C39.6739 4.12547 39.6929 4.28415 39.6929 4.44821Z" fill="#FF9FB4"/>
<path d="M37.1002 20.579C37.4706 22.4376 37.5127 24.4204 37.2338 26.3047C37.1717 26.729 37.092 27.1473 36.9971 27.5598L36.4311 30.0008L31.2737 24.3278L32.0952 18.6489L32.5651 15.4005C32.7362 14.368 33.0502 13.4165 33.4827 12.6184L35.8756 8.19928L38.3647 3.60213C38.6213 3.13092 39.0491 3.04901 39.3643 3.40994C39.4663 3.52947 39.5495 3.68533 39.6057 3.86346C39.6174 3.89979 39.628 3.93963 39.6374 3.9783L37.4096 11.64C36.9385 13.2631 36.7323 15.5717 36.8002 17.6881C36.8331 18.7344 36.9327 19.7329 37.1002 20.579Z" fill="#EEA47D"/>
<path d="M37.1003 20.579C37.4707 22.4376 37.5128 24.4204 37.2339 26.3047C36.266 24.22 35.5804 21.1426 35.2757 18.1169C35.1574 16.9579 35.0964 15.8059 35.0964 14.7196C35.0964 12.411 35.3742 10.209 35.8757 8.19928L38.3648 3.60213C38.6214 3.13092 39.0492 3.04901 39.3644 3.40994C39.4664 3.52947 39.5496 3.68533 39.6058 3.86346C39.6175 3.89979 39.6281 3.93963 39.6375 3.9783L37.4097 11.64C36.9386 13.2631 36.7324 15.5717 36.8003 17.6881C36.8332 18.7344 36.9328 19.7329 37.1003 20.579Z" fill="#F5B890"/>
<path d="M37.4097 11.6399C36.9386 13.263 36.7323 15.5715 36.8003 17.688C35.2956 18.1708 33.7206 18.4965 32.0952 18.6489L32.5651 15.4005C32.7362 14.368 33.0503 13.4165 33.4827 12.6184L35.8757 8.19928L38.3647 3.60213C38.6214 3.13092 39.0491 3.04901 39.3644 3.40994C39.4663 3.52947 39.5495 3.68533 39.6058 3.86346C39.6175 3.89979 39.628 3.93963 39.6374 3.9783L37.4097 11.6399Z" fill="#334353"/>
<path d="M37.4097 11.6399C36.9386 13.263 36.7324 15.5715 36.8003 17.688C36.3 17.8485 35.7914 17.9915 35.2757 18.1169C35.1574 16.9579 35.0964 15.8059 35.0964 14.7196C35.0964 12.411 35.3742 10.209 35.8757 8.19928L38.3648 3.60213C38.6214 3.13092 39.0492 3.04901 39.3644 3.40994C39.4664 3.52947 39.5496 3.68533 39.6058 3.86346C39.6175 3.89979 39.6281 3.93963 39.6375 3.9783L37.4097 11.6399Z" fill="#3E4E60"/>
<path d="M41.9506 39.9715V42.1755C41.9506 47.6825 36.8451 52.1472 30.5477 52.1472H29.4521C23.1536 52.1472 18.0481 47.6825 18.0481 42.1755V39.9715C18.0481 34.4645 23.1536 28.958 29.4521 28.958H30.5477C36.8451 28.958 41.9506 34.4645 41.9506 39.9715Z" fill="#A26D5A"/>
<path d="M41.9507 39.9715V42.1755C41.9507 47.6825 36.8452 52.1472 30.5477 52.1472H30V28.958H30.5479C36.8452 28.958 41.9507 34.4645 41.9507 39.9715Z" fill="#C17E62"/>
<path d="M32.5001 52.8209H27.4998C24.2529 52.8209 21.7771 49.4658 22.2912 45.7639L22.6027 43.5197L22.9488 41.0236C23.2086 39.1557 23.2086 37.2502 22.9488 35.3822L22.4582 31.842C21.8559 27.5107 24.7539 23.585 28.5533 23.585H31.4466C35.246 23.585 38.1441 27.5107 37.5417 31.842L37.0511 35.3822C36.7912 37.2502 36.7912 39.1557 37.0511 41.0236L37.3972 43.5197L37.7087 45.7639C38.2228 49.4658 35.747 52.8209 32.5001 52.8209Z" fill="#C17E62"/>
<path d="M32.5002 52.8209H30V23.585H31.4467C35.2461 23.585 38.1442 27.5107 37.5418 31.842L37.0512 35.3822C36.7914 37.2502 36.7914 39.1557 37.0512 41.0236L37.3973 43.5197L37.7088 45.7639C38.2229 49.4658 35.7471 52.8209 32.5002 52.8209Z" fill="#D48D77"/>
<path d="M37.5677 36.0184C38.7083 36.2195 39.4725 37.2988 39.2864 38.4387C39.2863 38.4486 39.2847 38.4582 39.2829 38.4679L39.0274 39.9165C38.9262 40.4909 38.6016 40.9712 38.1581 41.2818C37.7144 41.5938 37.1536 41.7348 36.5776 41.6333C35.5076 41.4447 34.7676 40.4821 34.8334 39.4235C34.8376 39.3432 34.847 39.2622 34.8612 39.1819L35.1167 37.7332C35.2183 37.1572 35.544 36.6788 35.9876 36.3683C36.431 36.0579 36.9919 35.9169 37.5677 36.0184Z" fill="#3E4E60"/>
<path d="M37.5677 36.0184C38.7083 36.2195 39.4725 37.2988 39.2864 38.4387C38.429 39.3892 37.0442 39.8877 35.602 39.6334C35.3341 39.5862 35.0769 39.516 34.8335 39.4234C34.8377 39.3431 34.8471 39.262 34.8613 39.1818L35.1167 37.7331C35.2183 37.1571 35.5441 36.6786 35.9877 36.3682C36.431 36.0579 36.9919 35.9169 37.5677 36.0184Z" fill="#2E3140"/>
<path d="M36.1354 37.4536L35.9818 38.3252C35.9156 38.7006 36.1663 39.0585 36.5415 39.1247C36.9168 39.1909 37.2747 38.9402 37.3409 38.565L37.4946 37.6934C37.5608 37.318 37.3101 36.9601 36.9349 36.8939C36.5595 36.8277 36.2016 37.0782 36.1354 37.4536Z" fill="white"/>
<path d="M22.4319 36.0184C21.2913 36.2195 20.5271 37.2988 20.7132 38.4387C20.7133 38.4486 20.715 38.4582 20.7167 38.4679L20.9722 39.9165C21.0734 40.4909 21.398 40.9712 21.8415 41.2818C22.2853 41.5938 22.846 41.7348 23.422 41.6333C24.492 41.4447 25.2321 40.4821 25.1662 39.4235C25.162 39.3432 25.1526 39.2622 25.1384 39.1819L24.883 37.7332C24.7814 37.1572 24.4556 36.6788 24.012 36.3683C23.5686 36.0579 23.0077 35.9169 22.4319 36.0184Z" fill="#3E4E60"/>
<path d="M22.4319 36.0184C21.2913 36.2195 20.5271 37.2988 20.7132 38.4387C21.5705 39.3892 22.9553 39.8877 24.3976 39.6334C24.6655 39.5862 24.9227 39.516 25.1661 39.4234C25.1619 39.3431 25.1525 39.262 25.1383 39.1818L24.8828 37.7331C24.7812 37.1571 24.4555 36.6786 24.0119 36.3682C23.5686 36.0579 23.0077 35.9169 22.4319 36.0184Z" fill="#2E3140"/>
<path d="M23.8641 37.4536L24.0178 38.3252C24.084 38.7006 23.8333 39.0585 23.4581 39.1247C23.0827 39.1909 22.7248 38.9402 22.6586 38.565L22.505 37.6934C22.4388 37.318 22.6894 36.9601 23.0647 36.8939C23.44 36.8277 23.7979 37.0782 23.8641 37.4536Z" fill="white"/>
<path d="M29.9998 25.6543C34.2321 25.6543 35.4557 27.6308 35.4557 30.3209C35.4557 33.0111 34.4344 37.8425 29.9998 37.8425V25.6543Z" fill="#EEA47D"/>
<path d="M29.9998 25.6543C25.7675 25.6543 24.5439 27.6308 24.5439 30.3209C24.5439 33.0111 25.5652 37.8425 29.9998 37.8425V25.6543Z" fill="#D48D77"/>
<path d="M38.3263 48.5778C38.3263 51.4014 35.8442 53.7891 32.6771 53.7891H27.3231C23.8465 53.7891 21.1957 50.9132 21.7462 47.74C21.8426 47.1835 22.1318 46.7034 22.5387 46.3609C22.9445 46.0194 23.4679 45.8164 24.0324 45.8164H35.9678C37.0969 45.8164 38.0611 46.628 38.254 47.74C38.3032 48.0223 38.3263 48.3016 38.3263 48.5778Z" fill="#D48D77"/>
<path d="M38.3263 48.5778C38.3263 51.4014 35.8441 53.7891 32.677 53.7891H30V45.8164H35.9677C37.0968 45.8164 38.061 46.628 38.2539 47.74C38.3032 48.0223 38.3263 48.3016 38.3263 48.5778Z" fill="#EEA47D"/>
<path d="M37.0389 51.2239C36.7863 51.1117 36.4896 51.2256 36.3764 51.4782C36.3694 51.4939 35.6598 53.0439 34.3555 53.0439C32.3806 53.0439 31.5211 51.7859 30.9628 51.0239C30.6635 50.6155 30.5021 50.123 30.5021 49.6166V48.685C30.5021 48.4226 30.3103 48.1883 30.0492 48.1635C29.7496 48.135 29.4977 48.3697 29.4977 48.6634V49.6166C29.4977 50.123 29.3363 50.6154 29.037 51.0239C28.4787 51.7859 27.6192 53.0439 25.6443 53.0439C24.34 53.0439 23.6305 51.4939 23.624 51.4796C23.5121 51.2259 23.2157 51.1109 22.9619 51.2227C22.7081 51.3346 22.593 51.6311 22.7049 51.8849C22.7438 51.9732 23.6813 54.0484 25.6443 54.0484C27.5296 54.0484 28.5181 53.0541 29.183 52.2619C29.6096 51.7536 30.3902 51.7536 30.8168 52.2619C31.4817 53.0541 32.4702 54.0484 34.3555 54.0484C36.3185 54.0484 37.256 51.9732 37.2949 51.8849C37.4064 51.6315 37.2919 51.3363 37.0389 51.2239Z" fill="#A26D5A"/>
<path d="M32.3422 44.8859V46.8389C32.3422 47.1653 32.2474 47.4863 32.0709 47.762L31.6308 48.4457C31.4048 48.7986 31.0155 49.0115 30.5975 49.0115H29.4022C28.9842 49.0115 28.5949 48.7987 28.3688 48.4457L27.9288 47.762C27.7523 47.4863 27.6575 47.1654 27.6575 46.8389V44.8859C27.6575 44.2066 28.2078 43.6562 28.8871 43.6562H31.1126C31.7918 43.6564 32.3422 44.2066 32.3422 44.8859Z" fill="#F4829B"/>
<path d="M32.3421 44.8858V46.8388C32.3421 47.1652 32.2473 47.4862 32.0708 47.7619L31.6308 48.4456C31.4047 48.7984 31.0154 49.0114 30.5974 49.0114H29.9998V43.6562H31.1125C31.7918 43.6562 32.3421 44.2064 32.3421 44.8858Z" fill="#FF9FB4"/>
<path d="M41.335 51.2205C41.314 51.1764 40.8134 50.1342 39.4066 49.4624C38.729 49.139 37.972 48.9552 37.1375 48.9112C35.7134 48.8365 34.0645 49.1686 32.2087 49.9055C32.0374 49.9744 31.9531 50.1687 32.0211 50.341C32.09 50.5123 32.2843 50.5965 32.4566 50.5286C34.2672 49.8089 35.8943 49.4969 37.2609 49.5983C37.9309 49.6481 38.5386 49.7974 39.0745 50.0462C40.2861 50.609 40.7254 51.4971 40.7283 51.5047C40.7857 51.6263 40.9063 51.6981 41.0317 51.6981C41.0795 51.6981 41.1283 51.6876 41.1743 51.6666C41.3417 51.587 41.4134 51.3879 41.335 51.2205Z" fill="#EEA47D"/>
<path d="M41.3351 51.2205C41.4136 51.388 41.3418 51.5871 41.1743 51.6666C41.1284 51.6877 41.0795 51.6981 41.0317 51.6981C40.9063 51.6981 40.7857 51.6263 40.7283 51.5047C40.7254 51.4971 40.2862 50.6089 39.0746 50.0462C38.5387 49.7974 37.9309 49.6481 37.261 49.5983C37.2102 49.3725 37.1682 49.1437 37.1375 48.9111C37.9719 48.9552 38.729 49.1389 39.4065 49.4624C40.8135 50.1342 41.314 51.1765 41.3351 51.2205Z" fill="#F5B890"/>
<path d="M42.9146 47.1152C42.8832 47.0779 42.1378 46.194 40.6076 45.8957C39.8706 45.752 39.0917 45.7636 38.2728 45.9298C36.8753 46.2138 35.362 46.948 33.7497 48.1259C33.6011 48.2354 33.5682 48.4446 33.677 48.5944C33.7866 48.743 33.9958 48.7759 34.1456 48.667C35.7186 47.5172 37.2158 46.808 38.5642 46.5642C39.2253 46.4448 39.8511 46.4372 40.4322 46.5441C41.7461 46.7857 42.3936 47.5357 42.3984 47.5424C42.4844 47.6457 42.619 47.685 42.7404 47.6536C42.7867 47.6416 42.8314 47.6193 42.8706 47.5874C43.0128 47.4684 43.0325 47.2577 42.9146 47.1152Z" fill="#EEA47D"/>
<path d="M42.9146 47.1154C43.0325 47.2579 43.0128 47.4686 42.8706 47.5874C42.8313 47.6193 42.7868 47.6416 42.7404 47.6536C42.619 47.685 42.4843 47.6456 42.3983 47.5424C42.3936 47.5357 41.746 46.7857 40.4321 46.5441C39.851 46.4373 39.2252 46.4448 38.5642 46.5642C38.4586 46.3582 38.3605 46.1473 38.2727 45.9298C39.0917 45.7636 39.8707 45.752 40.6076 45.8957C42.1378 46.1943 42.8832 47.078 42.9146 47.1154Z" fill="#F5B890"/>
<path d="M18.8256 51.6666C18.8715 51.6877 18.9204 51.6981 18.9682 51.6981C19.0936 51.6981 19.2142 51.6263 19.2716 51.5048C19.2745 51.4971 19.7138 50.609 20.9254 50.0462C21.4613 49.7974 22.069 49.6481 22.7389 49.5983C24.1056 49.4969 25.7326 49.8089 27.5433 50.5286C27.7156 50.5965 27.9098 50.5123 27.9788 50.341C28.0467 50.1687 27.9625 49.9744 27.7911 49.9055C25.9355 49.1686 24.2864 48.8365 22.8623 48.9112C22.0279 48.9552 21.2708 49.139 20.5932 49.4624C19.1864 50.1342 18.6859 51.1765 18.6648 51.2205C18.5864 51.3882 18.6581 51.5872 18.8256 51.6666Z" fill="#EEA47D"/>
<path d="M18.6649 51.2205C18.5863 51.388 18.6582 51.5871 18.8256 51.6666C18.8716 51.6877 18.9204 51.6981 18.9683 51.6981C19.0936 51.6981 19.2142 51.6263 19.2717 51.5047C19.2746 51.4971 19.7138 50.6089 20.9254 50.0462C21.4613 49.7974 22.069 49.6481 22.739 49.5983C22.7897 49.3725 22.8318 49.1437 22.8625 48.9111C22.028 48.9552 21.271 49.1389 20.5934 49.4624C19.1865 50.1342 18.686 51.1765 18.6649 51.2205Z" fill="#F5B890"/>
<path d="M17.1296 47.5874C17.1688 47.6193 17.2134 47.6416 17.2598 47.6536C17.3812 47.685 17.5158 47.6456 17.6018 47.5424C17.6065 47.5357 18.2541 46.7857 19.568 46.5441C20.1491 46.4373 20.7749 46.4448 21.436 46.5642C22.7846 46.808 24.2816 47.5172 25.8547 48.667C26.0044 48.7759 26.2136 48.743 26.3232 48.5944C26.432 48.4446 26.3991 48.2354 26.2505 48.1259C24.6382 46.948 23.1249 46.214 21.7274 45.9298C20.9084 45.7636 20.1295 45.752 19.3926 45.8957C17.8623 46.1941 17.117 47.078 17.0856 47.1152C16.9676 47.2579 16.9873 47.4686 17.1296 47.5874Z" fill="#EEA47D"/>
<path d="M17.0853 47.1154C16.9674 47.2579 16.9871 47.4686 17.1294 47.5874C17.1686 47.6193 17.2131 47.6416 17.2595 47.6536C17.381 47.685 17.5156 47.6456 17.6016 47.5424C17.6063 47.5357 18.2539 46.7857 19.5678 46.5441C20.1489 46.4373 20.7747 46.4448 21.4358 46.5642C21.5413 46.3582 21.6394 46.1473 21.7272 45.9298C20.9082 45.7636 20.1292 45.752 19.3924 45.8957C17.8621 46.1943 17.1167 47.078 17.0853 47.1154Z" fill="#F5B890"/>
</g>
<defs>
<clipPath id="clip0_1123_26598">
<rect width="60" height="60" fill="white"/>
</clipPath>
</defs>
</svg>
