<svg width="60" height="60" viewBox="0 0 60 60" fill="none" xmlns="http://www.w3.org/2000/svg">
<g clip-path="url(#clip0_1123_24711)">
<path d="M30 60C46.5685 60 60 46.5685 60 30C60 13.4315 46.5685 0 30 0C13.4315 0 0 13.4315 0 30C0 46.5685 13.4315 60 30 60Z" fill="#EE6781"/>
<path d="M44.2405 37.2835L38.7428 44.4939L37.9255 45.5651C37.2299 46.4796 36.341 47.1685 35.3577 47.6169C34.7147 47.91 34.0299 48.1006 33.3316 48.1815C32.9439 48.2261 32.5521 48.2383 32.1604 48.2167C31.4107 48.1735 30.6624 48.0047 29.9465 47.7034C29.6195 47.5683 29.2995 47.4035 28.9887 47.2117L27.9202 46.5484L24.5351 44.4494L22.5089 43.1931L19.1239 41.0939L17.0977 39.8364L13.7126 37.7372L11.6864 36.481L11.234 36.1999C10.1857 35.5503 9.4996 34.4656 9.3496 33.2606C9.32792 33.0945 9.31714 32.9256 9.31714 32.7554V30.894H34.9158L44.2405 37.2835Z" fill="#EA792E"/>
<path d="M32.1604 48.2168C31.4107 48.1736 30.6624 48.0048 29.9465 47.7035C29.6195 47.5684 29.2995 47.4036 28.9887 47.2118L27.9202 46.5485L24.5351 44.4495L22.5089 43.1932L19.1239 41.094L17.0977 39.8365L13.7126 37.7373L11.6864 36.4811L11.234 36.2C10.1857 35.5504 9.49961 34.4657 9.34961 33.2607C10.0993 33.304 10.8476 33.4728 11.5635 33.774C11.8904 33.9091 12.2105 34.0739 12.5213 34.2657L13.5898 34.929L16.9749 37.0281L19.0011 38.2843L22.3861 40.3835L24.4123 41.6411L27.7974 43.7402L29.8236 44.9965L30.2761 45.2774C31.3243 45.9272 32.0104 47.0119 32.1604 48.2168Z" fill="#F39E22"/>
<path d="M37.0503 41.3005C36.1156 41.3005 35.3577 42.0584 35.3577 42.9931V47.6168C36.3411 47.1684 37.2299 46.4795 37.9255 45.565L38.7428 44.4938V42.9931C38.7428 42.0584 37.9851 41.3005 37.0503 41.3005ZM11.638 33.8051C11.4543 33.0675 10.7884 32.5205 9.99414 32.5205C9.75367 32.5205 9.52539 32.5704 9.31738 32.661V32.7556C9.31738 32.9257 9.32816 33.0946 9.34984 33.2608C9.49973 34.4657 10.186 35.5504 11.2342 36.2001L11.6867 36.4811V34.2132C11.6867 34.0725 11.6691 33.9361 11.638 33.8051ZM15.4054 33.466C14.522 33.466 13.7952 34.144 13.7196 35.0085C13.7155 35.0571 13.7129 35.1072 13.7129 35.1585V37.7371L17.0979 39.8363V35.1585C17.0979 34.2238 16.3401 33.466 15.4054 33.466ZM20.8166 34.5467C19.8818 34.5467 19.1241 35.3045 19.1241 36.2392V41.0939L22.5092 43.1931V36.2393C22.5092 35.3044 21.7513 34.5467 20.8166 34.5467ZM26.2279 35.8975C25.2931 35.8975 24.5354 36.6553 24.5354 37.59V44.4494L27.9204 46.5484V37.59C27.9204 36.6552 27.1626 35.8975 26.2279 35.8975ZM31.639 38.3289C30.7043 38.3289 29.9465 39.0868 29.9465 40.0214V47.7033C30.6624 48.0045 31.4107 48.1734 32.1604 48.2166C32.5521 48.2383 32.9439 48.2261 33.3316 48.1814V40.0213C33.3316 39.0866 32.5738 38.3289 31.639 38.3289Z" fill="#F39E22"/>
<path d="M11.6381 33.8052C11.6691 33.9362 11.6867 34.0726 11.6867 34.2131V36.4811L11.2342 36.2C10.186 35.5504 9.49985 34.4657 9.34985 33.2607C10.0995 33.304 10.8479 33.4729 11.5638 33.774C11.588 33.7849 11.6137 33.7943 11.6381 33.8052Z" fill="#F9C744"/>
<path d="M16.975 37.0283L17.098 37.104V39.8366L13.7129 37.7374V35.1588C13.7129 35.1075 13.7156 35.0574 13.7197 35.0088L16.975 37.0283Z" fill="#F9C744"/>
<path d="M22.3862 40.3833L22.5091 40.4589V43.1929L19.124 41.0938V38.3599L22.3862 40.3833Z" fill="#F9C744"/>
<path d="M27.7975 43.7403L27.9205 43.8159V46.5484L24.5354 44.4494V41.7168L27.7975 43.7403Z" fill="#F9C744"/>
<path d="M32.1604 48.2166C31.4108 48.1733 30.6624 48.0046 29.9465 47.7033V45.0732L30.2761 45.2773C31.3243 45.927 32.0104 47.0116 32.1604 48.2166Z" fill="#F9C744"/>
<path d="M52.2912 17.8401L46.9489 32.3313L46.1235 34.5696C45.6021 35.9825 44.6607 37.0915 43.503 37.8277C41.4484 39.138 38.7145 39.2717 36.4573 37.8412L35.9792 37.54C32.7616 35.5004 29.1645 34.1334 25.4039 33.5187L9.31738 30.8941C8.27054 30.7239 7.39656 30.0053 7.02648 29.0124L6.76175 28.3032C6.52668 27.6737 6.52 27.0105 6.70503 26.408C6.93332 25.6597 7.45738 25.0073 8.20433 24.6317L16.5617 20.4376C19.2011 19.1138 22.112 18.4249 25.0648 18.4249H32.2145C34.1448 18.4249 35.9968 17.6576 37.3623 16.2919L38.4619 15.1924C40.5583 13.0973 43.4004 11.9194 46.364 11.9194H48.1633C49.1669 11.9194 50.0692 12.2463 50.7919 12.788C52.2763 13.8985 53.0031 15.9098 52.2912 17.8401Z" fill="#F39E22"/>
<path d="M50.7917 12.7879L45.1319 21.0547C43.4866 23.4577 40.8716 25.0192 37.9755 25.3272L12.4727 28.045C10.7396 28.2288 8.99573 27.8302 7.5153 26.9117L6.70483 26.4079C6.93312 25.6596 7.45718 25.0072 8.20413 24.6316L8.21632 24.6262L16.5615 20.4374C17.5557 19.939 18.5891 19.5297 19.6494 19.2137C21.4013 18.6923 23.2249 18.4249 25.0646 18.4249H32.2143C34.1446 18.4249 35.9966 17.6576 37.3621 16.2919L38.4617 15.1924C40.5581 13.0973 43.4002 11.9194 46.3638 11.9194H48.1631C49.1668 11.9193 50.0691 12.2463 50.7917 12.7879Z" fill="#F9C744"/>
<path d="M34.196 31.7654C35.0595 31.7654 35.7596 31.0654 35.7596 30.2018C35.7596 29.3382 35.0595 28.6382 34.196 28.6382C33.3324 28.6382 32.6323 29.3382 32.6323 30.2018C32.6323 31.0654 33.3324 31.7654 34.196 31.7654Z" fill="#F9C744"/>
<path d="M40.1388 30.9837C41.4342 30.9837 42.4842 29.9337 42.4842 28.6384C42.4842 27.343 41.4342 26.293 40.1388 26.293C38.8435 26.293 37.7935 27.343 37.7935 28.6384C37.7935 29.9337 38.8435 30.9837 40.1388 30.9837Z" fill="#F9C744"/>
<path d="M37.0502 36.4564C38.3455 36.4564 39.3956 35.4063 39.3956 34.111C39.3956 32.8157 38.3455 31.7656 37.0502 31.7656C35.7549 31.7656 34.7048 32.8157 34.7048 34.111C34.7048 35.4063 35.7549 36.4564 37.0502 36.4564Z" fill="#F9C744"/>
<path d="M46.9489 32.3312L46.1235 34.5695C45.6022 35.9824 44.6607 37.0915 43.503 37.8276C42.0739 37.4319 41.0256 36.1216 41.0256 34.5669C41.0256 32.6988 42.5412 31.1831 44.4107 31.1831C45.4225 31.183 46.3302 31.6275 46.9489 32.3312Z" fill="#F9C744"/>
<path d="M19.6496 19.2139L19.5321 20.7605C19.3727 22.8597 17.9827 24.663 15.9944 25.3532L13.8993 26.08C12.046 26.723 9.98878 26.2866 8.55698 24.9453L8.21655 24.6265L8.95952 24.2538L16.2119 20.6133L16.5618 20.4378C17.5559 19.9393 18.5892 19.53 19.6496 19.2139Z" fill="#FAD98F"/>
<path d="M48.1633 11.9196L46.3222 14.2024L41.5499 20.1215C40.5165 21.4034 38.82 21.8776 37.3111 21.3966C37.0193 21.3033 36.7356 21.175 36.4642 21.0103L32.2146 18.4249C34.1449 18.4249 35.9968 17.6576 37.3624 16.2919L38.462 15.1924C40.5584 13.0973 43.4005 11.9194 46.3641 11.9194H48.1633V11.9196Z" fill="#FAD98F"/>
<path d="M43.5509 14.3522C44.5967 13.8912 45.5558 15.1528 44.8384 16.0425L41.5498 20.1215C41.1453 20.6232 40.639 21.0013 40.0823 21.2468C39.0365 21.7078 38.0773 20.4462 38.7947 19.5565L42.0833 15.4775C42.4879 14.9756 42.9941 14.5976 43.5509 14.3522Z" fill="white"/>
<path d="M16.2172 20.8349C16.2172 23.2839 14.2316 25.2695 11.7826 25.2695C10.7087 25.2695 9.7267 24.8885 8.95947 24.2537L16.2119 20.6133C16.216 20.6863 16.2172 20.7606 16.2172 20.8349Z" fill="white"/>
<path d="M28.1811 31.5449C26.0982 32.7309 23.5884 32.481 21.7986 31.106C21.2043 30.6521 20.6883 30.0726 20.2952 29.381C18.7148 26.6051 19.6847 23.0742 22.4592 21.4938C25.1257 19.9769 28.4878 20.8103 30.1506 23.3376C30.2181 23.4417 30.2843 23.5497 30.3465 23.6591C31.9255 26.4335 30.9571 29.9644 28.1811 31.5449Z" fill="#FAD98F"/>
<path d="M28.1811 31.5451C26.0982 32.7311 23.5884 32.4812 21.7986 31.1062C21.7783 30.8954 21.7688 30.6806 21.7688 30.4646C21.7688 26.477 25.0012 23.2446 28.9901 23.2446C29.3846 23.2446 29.7722 23.2757 30.1504 23.3378C30.2179 23.4419 30.2841 23.5499 30.3463 23.6592C31.9254 26.4337 30.957 29.9646 28.1811 31.5451Z" fill="#F9C744"/>
<path d="M26.3454 29.6861C24.8745 30.5235 23.0914 30.3074 21.8663 29.2768C21.5192 28.9864 21.2179 28.6284 20.9801 28.2123C19.9049 26.3253 20.5654 23.9222 22.4539 22.847C24.0235 21.9542 25.9511 22.2595 27.1735 23.4752C27.4206 23.721 27.6381 24.0033 27.8192 24.3208C28.8944 26.2091 28.2339 28.6109 26.3454 29.6861Z" fill="#FAEFDC"/>
<path d="M26.3454 29.686C24.8744 30.5235 23.0913 30.3074 21.8662 29.2767C22.3336 26.4535 24.4381 24.1829 27.1734 23.4751C27.4205 23.721 27.638 24.0033 27.8191 24.3207C28.8943 26.2091 28.2338 28.6108 26.3454 29.686Z" fill="#FAD98F"/>
<path d="M25.05 28.2302C24.1166 28.7611 22.9833 28.6098 22.2256 27.9344C22.0325 27.7616 21.8636 27.5561 21.7285 27.3198C21.0639 26.15 21.4718 24.6642 22.6403 23.9982C23.5346 23.4903 24.6152 23.6092 25.3702 24.217C25.6026 24.4034 25.8038 24.6357 25.9605 24.9099C26.6263 26.0784 26.2184 27.5656 25.05 28.2302Z" fill="white"/>
<path d="M25.05 28.2299C24.1166 28.7607 22.9833 28.6095 22.2256 27.9341C22.8132 26.3618 23.9343 25.0488 25.3702 24.2168C25.6026 24.4032 25.8038 24.6355 25.9605 24.9097C26.6263 26.0781 26.2184 27.5653 25.05 28.2299Z" fill="#FAEFDC"/>
<path d="M24.9518 25.4853C25.2038 25.9279 25.1603 26.4577 24.8856 26.8488C24.7805 26.9972 24.6422 27.1257 24.4743 27.2213C23.8638 27.5688 23.0864 27.3555 22.7389 26.7451C22.3908 26.1334 22.6042 25.356 23.2145 25.0086C23.3824 24.9129 23.5634 24.8597 23.7448 24.8451C24.2214 24.8083 24.6991 25.0415 24.9518 25.4853Z" fill="#3F5D77"/>
<path d="M24.9518 25.485C25.2038 25.9276 25.1603 26.4574 24.8856 26.8485C24.409 26.8851 23.9313 26.6519 23.6793 26.2093C23.4267 25.7655 23.4701 25.2357 23.7448 24.8446C24.2214 24.808 24.6992 25.0412 24.9518 25.485Z" fill="#2E3140"/>
<path d="M29.454 28.3295C29.3949 28.3295 29.3346 28.3217 29.2749 28.3052L27.1977 27.7351C26.8379 27.6364 26.6264 27.2648 26.7252 26.9051C26.824 26.5453 27.1962 26.3335 27.5553 26.4326L29.6324 27.0027C29.9922 27.1014 30.2037 27.473 30.1049 27.8327C30.0225 28.1326 29.7505 28.3295 29.454 28.3295Z" fill="#FAEFDC"/>
<path d="M34.196 31.7654C35.0595 31.7654 35.7596 31.0654 35.7596 30.2018C35.7596 29.3382 35.0595 28.6382 34.196 28.6382C33.3324 28.6382 32.6323 29.3382 32.6323 30.2018C32.6323 31.0654 33.3324 31.7654 34.196 31.7654Z" fill="#F9C744"/>
<path d="M40.1388 30.9837C41.4342 30.9837 42.4842 29.9337 42.4842 28.6384C42.4842 27.343 41.4342 26.293 40.1388 26.293C38.8435 26.293 37.7935 27.343 37.7935 28.6384C37.7935 29.9337 38.8435 30.9837 40.1388 30.9837Z" fill="#F9C744"/>
<path d="M37.0502 36.4564C38.3455 36.4564 39.3956 35.4063 39.3956 34.111C39.3956 32.8157 38.3455 31.7656 37.0502 31.7656C35.7549 31.7656 34.7048 32.8157 34.7048 34.111C34.7048 35.4063 35.7549 36.4564 37.0502 36.4564Z" fill="#F9C744"/>
<path d="M46.9489 32.3312L46.1235 34.5695C45.6022 35.9824 44.6607 37.0915 43.503 37.8276C42.0739 37.4319 41.0256 36.1216 41.0256 34.5669C41.0256 32.6988 42.5412 31.1831 44.4107 31.1831C45.4225 31.183 46.3302 31.6275 46.9489 32.3312Z" fill="#F9C744"/>
<path d="M36.5099 34.911C37.2503 34.911 37.8504 34.3108 37.8504 33.5705C37.8504 32.8301 37.2503 32.23 36.5099 32.23C35.7696 32.23 35.1694 32.8301 35.1694 33.5705C35.1694 34.3108 35.7696 34.911 36.5099 34.911Z" fill="#FAD98F"/>
<path d="M43.3559 35.4535C44.2857 35.4535 45.0394 34.6997 45.0394 33.7699C45.0394 32.8402 44.2857 32.0864 43.3559 32.0864C42.4261 32.0864 41.6724 32.8402 41.6724 33.7699C41.6724 34.6997 42.4261 35.4535 43.3559 35.4535Z" fill="#FAD98F"/>
<path d="M39.5986 29.4383C40.3389 29.4383 40.9391 28.8382 40.9391 28.0978C40.9391 27.3575 40.3389 26.7573 39.5986 26.7573C38.8582 26.7573 38.2581 27.3575 38.2581 28.0978C38.2581 28.8382 38.8582 29.4383 39.5986 29.4383Z" fill="#FAD98F"/>
<path d="M33.8639 30.7064C34.326 30.7064 34.7005 30.3318 34.7005 29.8698C34.7005 29.4078 34.326 29.0332 33.8639 29.0332C33.4019 29.0332 33.0273 29.4078 33.0273 29.8698C33.0273 30.3318 33.4019 30.7064 33.8639 30.7064Z" fill="#FAD98F"/>
</g>
<defs>
<clipPath id="clip0_1123_24711">
<rect width="60" height="60" fill="white"/>
</clipPath>
</defs>
</svg>
