<svg width="60" height="60" viewBox="0 0 60 60" fill="none" xmlns="http://www.w3.org/2000/svg">
<g clip-path="url(#clip0_1123_25226)">
<path d="M30 60C46.5685 60 60 46.5685 60 30C60 13.4315 46.5685 0 30 0C13.4315 0 0 13.4315 0 30C0 46.5685 13.4315 60 30 60Z" fill="#53B976"/>
<path d="M37.6308 33.8406C37.6308 34.5421 37.0616 35.1114 36.3591 35.1114H31.6338C30.9314 35.1114 30.3621 34.5422 30.3621 33.8406C30.3565 33.1502 30.933 32.5641 31.6338 32.5689H36.3591C37.0673 32.5667 37.6352 33.1532 37.6308 33.8406Z" fill="#2E3140"/>
<path d="M37.524 33.3292C37.3272 33.7769 36.8794 34.0895 36.3591 34.0895H31.6338C31.1136 34.0895 30.6659 33.7769 30.469 33.3292C30.6707 32.8731 31.1179 32.57 31.6338 32.5688H36.3591C36.8793 32.569 37.327 32.8814 37.524 33.3292Z" fill="#334353"/>
<path d="M35.364 33.0942H32.6288C32.0792 33.0942 31.6338 33.5398 31.6338 34.0893H36.359C36.359 33.5397 35.9135 33.0942 35.364 33.0942Z" fill="#3F5D77"/>
<path d="M42.1489 39.3803C41.8524 39.6768 41.3713 39.6768 41.0745 39.38L37.427 35.7325C37.1302 35.4357 37.1302 34.9546 37.4267 34.6581C37.7161 34.364 38.2074 34.36 38.5015 34.6581L42.149 38.3056C42.4491 38.6038 42.4412 39.0917 42.1489 39.3803Z" fill="#2E3140"/>
<path d="M42.3199 39.1193C42.0474 39.2253 41.7262 39.1682 41.5064 38.9484L37.8589 35.3009C37.6391 35.0811 37.5819 34.7597 37.6879 34.4874C37.9659 34.3799 38.283 34.4408 38.5014 34.6584L42.1489 38.3058C42.3687 38.5257 42.4259 38.8469 42.3199 39.1193Z" fill="#334353"/>
<path d="M41.5063 38.1077L38.6998 35.3012C38.4676 35.0689 38.091 35.0689 37.8589 35.3012L41.5063 38.9486C41.7386 38.7163 41.7386 38.3398 41.5063 38.1077Z" fill="#3F5D77"/>
<path d="M44.6117 48.5855C44.7528 48.4444 44.7528 48.2155 44.6117 48.0744L43.3864 46.8491C43.0414 46.5208 42.5466 47.0143 42.8753 47.3601L44.1006 48.5855C44.2417 48.7267 44.4706 48.7267 44.6117 48.5855Z" fill="#2E3140"/>
<path d="M43.8028 49.394C43.9439 49.253 43.9439 49.0241 43.8028 48.883L42.5775 47.6577C42.2325 47.3294 41.7378 47.8229 42.0665 48.1687L43.2918 49.394C43.433 49.5351 43.6617 49.5351 43.8028 49.394Z" fill="#2E3140"/>
<path d="M42.3714 47.8214C41.9523 47.8214 41.6121 47.4812 41.6121 47.0614V40.3088C41.6121 39.889 41.9523 39.5489 42.3714 39.5489C42.7841 39.5456 43.1343 39.89 43.1314 40.3088V47.0614C43.1328 47.4847 42.7823 47.824 42.3714 47.8214Z" fill="#2E3140"/>
<path d="M42.677 47.7578C42.4095 47.6401 42.2227 47.3725 42.2227 47.0616V40.309C42.2227 39.9981 42.4095 39.7306 42.677 39.6128C42.9496 39.7334 43.1307 40.0006 43.1313 40.309V47.0616C43.1313 47.3725 42.9445 47.64 42.677 47.7578Z" fill="#334353"/>
<path d="M42.8173 46.4664V40.9032C42.8173 40.5747 42.551 40.3086 42.2227 40.3086V47.0612C42.551 47.0612 42.8173 46.7949 42.8173 46.4664Z" fill="#3F5D77"/>
<path d="M22.3692 33.8406C22.3692 34.5421 22.9383 35.1114 23.6409 35.1114H28.3661C29.0685 35.1114 29.6378 34.5422 29.6378 33.8406C29.6435 33.1502 29.0669 32.5641 28.3661 32.5689H23.6409C22.9326 32.5667 22.3647 33.1532 22.3692 33.8406Z" fill="#2E3140"/>
<path d="M22.4758 33.3292C22.6727 33.7769 23.1205 34.0895 23.6408 34.0895H28.366C28.8862 34.0895 29.334 33.7769 29.5309 33.3292C29.3292 32.8731 28.882 32.57 28.366 32.5688H23.6408C23.1206 32.569 22.6728 32.8814 22.4758 33.3292Z" fill="#334353"/>
<path d="M24.6359 33.0942H27.3711C27.9207 33.0942 28.3661 33.5398 28.3661 34.0893H23.6409C23.6409 33.5397 24.0864 33.0942 24.6359 33.0942Z" fill="#3F5D77"/>
<path d="M17.8512 39.3803C18.1476 39.6768 18.6287 39.6768 18.9255 39.38L22.573 35.7325C22.8698 35.4357 22.8698 34.9546 22.5733 34.6581C22.2839 34.364 21.7926 34.36 21.4985 34.6581L17.851 38.3056C17.5509 38.6038 17.5588 39.0917 17.8512 39.3803Z" fill="#2E3140"/>
<path d="M17.6801 39.1193C17.9526 39.2253 18.2738 39.1682 18.4936 38.9484L22.1411 35.3009C22.3609 35.0811 22.4181 34.7597 22.3121 34.4874C22.0341 34.3799 21.717 34.4408 21.4986 34.6584L17.8511 38.3058C17.6312 38.5257 17.5741 38.8469 17.6801 39.1193Z" fill="#334353"/>
<path d="M18.4935 38.1077L21.3001 35.3012C21.5323 35.0689 21.9088 35.0689 22.141 35.3012L18.4935 38.9486C18.2613 38.7163 18.2613 38.3398 18.4935 38.1077Z" fill="#3F5D77"/>
<path d="M15.3883 48.5855C15.2472 48.4444 15.2472 48.2155 15.3883 48.0744L16.6136 46.8491C16.9586 46.5208 17.4534 47.0143 17.1247 47.3601L15.8993 48.5855C15.7583 48.7267 15.5294 48.7267 15.3883 48.5855Z" fill="#2E3140"/>
<path d="M16.1971 49.394C16.056 49.253 16.056 49.0241 16.1971 48.883L17.4224 47.6577C17.7674 47.3294 18.2622 47.8229 17.9335 48.1687L16.7082 49.394C16.567 49.5351 16.3382 49.5351 16.1971 49.394Z" fill="#2E3140"/>
<path d="M17.6286 47.8214C18.0478 47.8214 18.388 47.4812 18.388 47.0614V40.3088C18.388 39.889 18.0478 39.5489 17.6286 39.5489C17.216 39.5456 16.8657 39.89 16.8687 40.3088V47.0614C16.8673 47.4847 17.2178 47.824 17.6286 47.8214Z" fill="#2E3140"/>
<path d="M17.323 47.7578C17.5905 47.6401 17.7773 47.3725 17.7773 47.0616V40.309C17.7773 39.9981 17.5905 39.7306 17.323 39.6128C17.0504 39.7334 16.8692 40.0006 16.8687 40.309V47.0616C16.8687 47.3725 17.0554 47.64 17.323 47.7578Z" fill="#334353"/>
<path d="M17.1826 46.4664V40.9032C17.1826 40.5747 17.4489 40.3086 17.7772 40.3086V47.0612C17.4489 47.0612 17.1826 46.7949 17.1826 46.4664Z" fill="#3F5D77"/>
<path d="M40.2431 29.9876C40.2431 30.6891 39.6739 31.2584 38.9714 31.2584H34.2461C33.5437 31.2584 32.9744 30.6892 32.9744 29.9876C32.9688 29.2972 33.5453 28.711 34.2461 28.7158H38.9714C39.6796 28.7135 40.2475 29.3 40.2431 29.9876Z" fill="#2E3140"/>
<path d="M40.1363 29.4761C39.9395 29.9239 39.4917 30.2364 38.9714 30.2364H34.2461C33.7259 30.2364 33.2782 29.9239 33.0813 29.4761C33.283 29.02 33.7302 28.717 34.2461 28.7158H38.9714C39.4916 28.7158 39.9393 29.0284 40.1363 29.4761Z" fill="#334353"/>
<path d="M37.9763 29.2412H35.2411C34.6915 29.2412 34.2461 29.6868 34.2461 30.2363H38.9713C38.9713 29.6868 38.5258 29.2412 37.9763 29.2412Z" fill="#3F5D77"/>
<path d="M46.9669 29.9875C46.9669 30.4067 46.6267 30.7469 46.2069 30.7469H41.0486C40.6288 30.7469 40.2886 30.4067 40.2886 29.9875C40.2853 29.5749 40.6298 29.2246 41.0486 29.2276H46.2069C46.6301 29.2262 46.9695 29.5767 46.9669 29.9875Z" fill="#2E3140"/>
<path d="M46.9031 29.6819C46.7854 29.9494 46.5178 30.1362 46.2069 30.1362H41.0485C40.7376 30.1362 40.4701 29.9494 40.3523 29.6819C40.4728 29.4093 40.7401 29.2281 41.0485 29.2275H46.2069C46.5179 29.2275 46.7854 29.4143 46.9031 29.6819Z" fill="#334353"/>
<path d="M45.6122 29.5415H41.6432C41.3147 29.5415 41.0486 29.8078 41.0486 30.1361H46.2069C46.2068 29.8078 45.9407 29.5415 45.6122 29.5415Z" fill="#3F5D77"/>
<path d="M54.5857 35.5137C54.5857 35.3142 54.4238 35.1523 54.2243 35.1523H52.4913C52.2917 35.1523 52.1299 35.3142 52.1299 35.5137C52.1299 35.7133 52.2917 35.8752 52.4913 35.8752H54.2243C54.4239 35.8752 54.5857 35.7133 54.5857 35.5137Z" fill="#2E3140"/>
<path d="M54.5857 36.6578C54.5857 36.4582 54.4238 36.2964 54.2243 36.2964H52.4913C52.2917 36.2964 52.1299 36.4582 52.1299 36.6578C52.1299 36.8574 52.2917 37.0192 52.4913 37.0192H54.2243C54.4239 37.0191 54.5857 36.8572 54.5857 36.6578Z" fill="#2E3140"/>
<path d="M52.461 36.557C52.1645 36.8535 51.6835 36.8535 51.3866 36.5566L46.6118 31.7818C46.315 31.485 46.315 31.0039 46.6115 30.7075C46.9009 30.4133 47.3922 30.4093 47.6863 30.7075L52.4611 35.4823C52.7614 35.7805 52.7535 36.2684 52.461 36.557Z" fill="#2E3140"/>
<path d="M52.632 36.296C52.3596 36.4019 52.0384 36.3449 51.8185 36.125L47.0437 31.3502C46.8239 31.1304 46.7667 30.8091 46.8727 30.5367C47.1507 30.4292 47.4678 30.4901 47.6863 30.7077L52.4611 35.4825C52.6808 35.7023 52.738 36.0235 52.632 36.296Z" fill="#334353"/>
<path d="M51.8184 35.2842L47.8846 31.3505C47.6524 31.1182 47.2758 31.1182 47.0437 31.3505L51.8185 36.1253C52.0507 35.893 52.0507 35.5165 51.8184 35.2842Z" fill="#3F5D77"/>
<path d="M19.7569 29.9876C19.7569 30.6891 20.326 31.2584 21.0286 31.2584H25.7538C26.4562 31.2584 27.0255 30.6892 27.0255 29.9876C27.0312 29.2972 26.4546 28.711 25.7538 28.7158H21.0286C20.3203 28.7135 19.7524 29.3 19.7569 29.9876Z" fill="#2E3140"/>
<path d="M19.8635 29.4761C20.0604 29.9239 20.5082 30.2364 21.0285 30.2364H25.7537C26.2739 30.2364 26.7217 29.9239 26.9186 29.4761C26.7169 29.02 26.2697 28.717 25.7537 28.7158H21.0285C20.5083 28.7158 20.0605 29.0284 19.8635 29.4761Z" fill="#334353"/>
<path d="M22.0236 29.2412H24.7588C25.3084 29.2412 25.7538 29.6868 25.7538 30.2363H21.0286C21.0286 29.6868 21.4741 29.2412 22.0236 29.2412Z" fill="#3F5D77"/>
<path d="M13.033 29.9875C13.033 30.4067 13.3732 30.7469 13.7929 30.7469H18.9513C19.3711 30.7469 19.7113 30.4067 19.7113 29.9875C19.7145 29.5749 19.37 29.2246 18.9513 29.2276H13.7929C13.3698 29.2262 13.0304 29.5767 13.033 29.9875Z" fill="#2E3140"/>
<path d="M13.0969 29.6819C13.2146 29.9494 13.4822 30.1362 13.7931 30.1362H18.9515C19.2624 30.1362 19.5299 29.9494 19.6477 29.6819C19.5272 29.4093 19.2599 29.2281 18.9515 29.2275H13.7931C13.4821 29.2275 13.2146 29.4143 13.0969 29.6819Z" fill="#334353"/>
<path d="M14.3877 29.5415H18.3567C18.6852 29.5415 18.9513 29.8078 18.9513 30.1361H13.793C13.7931 29.8078 14.0592 29.5415 14.3877 29.5415Z" fill="#3F5D77"/>
<path d="M5.41431 35.5137C5.41431 35.3142 5.57614 35.1523 5.77571 35.1523H7.50868C7.70825 35.1523 7.87009 35.3142 7.87009 35.5137C7.87009 35.7133 7.70825 35.8752 7.50868 35.8752H5.7756C5.57603 35.8752 5.41431 35.7133 5.41431 35.5137Z" fill="#2E3140"/>
<path d="M5.41431 36.6578C5.41431 36.4582 5.57614 36.2964 5.77571 36.2964H7.50868C7.70825 36.2964 7.87009 36.4582 7.87009 36.6578C7.87009 36.8574 7.70825 37.0192 7.50868 37.0192H5.7756C5.57603 37.0191 5.41431 36.8572 5.41431 36.6578Z" fill="#2E3140"/>
<path d="M7.53899 36.557C7.83548 36.8535 8.31653 36.8535 8.61337 36.5566L13.3882 31.7818C13.685 31.485 13.685 31.0039 13.3885 30.7075C13.0991 30.4133 12.6078 30.4093 12.3137 30.7075L7.53888 35.4823C7.23864 35.7805 7.24649 36.2684 7.53899 36.557Z" fill="#2E3140"/>
<path d="M7.36778 36.296C7.64024 36.4019 7.96145 36.3449 8.1813 36.125L12.9561 31.3502C13.1759 31.1304 13.2331 30.8091 13.1271 30.5367C12.8491 30.4292 12.532 30.4901 12.3136 30.7077L7.53876 35.4825C7.31903 35.7023 7.26184 36.0235 7.36778 36.296Z" fill="#334353"/>
<path d="M8.18129 35.2842L12.115 31.3505C12.3473 31.1182 12.7238 31.1182 12.956 31.3505L8.18118 36.1253C7.94903 35.893 7.94903 35.5165 8.18129 35.2842Z" fill="#3F5D77"/>
<path d="M38.2628 22.4442C38.7589 22.9403 38.7589 23.7453 38.2621 24.242L34.9209 27.5833C34.4241 28.08 33.6192 28.08 33.1231 27.584C32.6309 27.0997 32.6242 26.2776 33.1231 25.7855L36.4644 22.4442C36.9636 21.9417 37.7798 21.9549 38.2628 22.4442Z" fill="#2E3140"/>
<path d="M37.8257 22.1583C38.003 22.6141 37.9074 23.1517 37.5395 23.5196L34.1983 26.8609C33.8304 27.2287 33.2927 27.3244 32.837 27.1471C32.6571 26.6819 32.7591 26.1514 33.1231 25.7857L36.4643 22.4444C36.8323 22.0765 37.3698 21.9808 37.8257 22.1583Z" fill="#334353"/>
<path d="M36.1322 23.5195L34.1982 25.4535C33.8096 25.8421 33.8096 26.4721 34.1982 26.8607L37.5394 23.5195C37.151 23.1309 36.5208 23.1309 36.1322 23.5195Z" fill="#3F5D77"/>
<path d="M43.0312 17.676C43.3277 17.9724 43.3277 18.4535 43.0309 18.7503L39.3834 22.3978C39.0866 22.6946 38.6055 22.6946 38.309 22.3981C38.0149 22.1087 38.0109 21.6174 38.309 21.3233L41.9565 17.6758C42.2547 17.3756 42.7426 17.3835 43.0312 17.676Z" fill="#2E3140"/>
<path d="M42.77 17.5048C42.8759 17.7772 42.8188 18.0984 42.599 18.3183L38.9515 21.9657C38.7317 22.1856 38.4104 22.2428 38.138 22.1367C38.0306 21.8588 38.0914 21.5416 38.309 21.3232L41.9565 17.6757C42.1763 17.4559 42.4975 17.3988 42.77 17.5048Z" fill="#334353"/>
<path d="M41.7581 18.3182L38.9515 21.1248C38.7193 21.357 38.7193 21.7336 38.9515 21.9657L42.599 18.3182C42.3669 18.086 41.9903 18.086 41.7581 18.3182Z" fill="#3F5D77"/>
<path d="M51.0183 23.6656C51.0183 23.466 50.8564 23.3042 50.6569 23.3042H48.9239C48.7243 23.3042 48.5625 23.466 48.5625 23.6656C48.5625 23.8652 48.7243 24.027 48.9239 24.027H50.6569C50.8564 24.0269 51.0183 23.8652 51.0183 23.6656Z" fill="#2E3140"/>
<path d="M51.0183 24.8092C51.0183 24.6096 50.8564 24.4478 50.6569 24.4478H48.9239C48.7243 24.4478 48.5625 24.6096 48.5625 24.8092C48.5625 25.0087 48.7243 25.1706 48.9239 25.1706H50.6569C50.8564 25.1704 51.0183 25.0087 51.0183 24.8092Z" fill="#2E3140"/>
<path d="M48.8936 24.7094C48.5971 25.0059 48.1161 25.0059 47.8193 24.709L43.0444 19.9342C42.7476 19.6374 42.7476 19.1563 43.0441 18.8598C43.3336 18.5657 43.8248 18.5616 44.1189 18.8598L48.8937 23.6346C49.1939 23.9329 49.186 24.4207 48.8936 24.7094Z" fill="#2E3140"/>
<path d="M49.0647 24.4479C48.7922 24.5538 48.471 24.4967 48.2511 24.2769L43.4763 19.5021C43.2565 19.2822 43.1993 18.9609 43.3054 18.6886C43.5833 18.5811 43.9004 18.6419 44.1189 18.8595L48.8937 23.6343C49.1135 23.8542 49.1707 24.1755 49.0647 24.4479Z" fill="#334353"/>
<path d="M48.251 23.4361L44.3173 19.5023C44.085 19.2701 43.7085 19.2701 43.4763 19.5023L48.2511 24.2771C48.4833 24.0447 48.4833 23.6682 48.251 23.4361Z" fill="#3F5D77"/>
<path d="M21.7369 22.4442C21.2409 22.9403 21.2409 23.7453 21.7376 24.242L25.0789 27.5833C25.5757 28.08 26.3806 28.08 26.8767 27.584C27.3689 27.0997 27.3755 26.2776 26.8767 25.7855L23.5354 22.4442C23.0362 21.9417 22.22 21.9549 21.7369 22.4442Z" fill="#2E3140"/>
<path d="M22.1741 22.1583C21.9968 22.6141 22.0924 23.1517 22.4602 23.5196L25.8015 26.8609C26.1693 27.2287 26.707 27.3244 27.1627 27.1471C27.3426 26.6819 27.2407 26.1514 26.8767 25.7857L23.5354 22.4444C23.1675 22.0765 22.6299 21.9808 22.1741 22.1583Z" fill="#334353"/>
<path d="M23.8676 23.5195L25.8017 25.4535C26.1903 25.8421 26.1903 26.4721 25.8017 26.8607L22.4604 23.5195C22.8489 23.1309 23.479 23.1309 23.8676 23.5195Z" fill="#3F5D77"/>
<path d="M16.9687 17.676C16.6722 17.9724 16.6722 18.4535 16.969 18.7503L20.6165 22.3978C20.9133 22.6946 21.3944 22.6946 21.6908 22.3981C21.985 22.1087 21.989 21.6174 21.6908 21.3233L18.0434 17.6758C17.7451 17.3756 17.2573 17.3835 16.9687 17.676Z" fill="#2E3140"/>
<path d="M17.2299 17.5048C17.1239 17.7772 17.181 18.0984 17.4008 18.3183L21.0483 21.9657C21.2681 22.1856 21.5895 22.2428 21.8618 22.1367C21.9693 21.8588 21.9085 21.5416 21.6908 21.3232L18.0434 17.6757C17.8235 17.4559 17.5023 17.3988 17.2299 17.5048Z" fill="#334353"/>
<path d="M18.2418 18.3182L21.0483 21.1248C21.2806 21.357 21.2806 21.7336 21.0483 21.9657L17.4009 18.3182C17.633 18.086 18.0096 18.086 18.2418 18.3182Z" fill="#3F5D77"/>
<path d="M8.98169 23.6656C8.98169 23.466 9.14353 23.3042 9.3431 23.3042H11.0761C11.2756 23.3042 11.4375 23.466 11.4375 23.6656C11.4375 23.8652 11.2756 24.027 11.0761 24.027H9.3431C9.14353 24.0269 8.98169 23.8652 8.98169 23.6656Z" fill="#2E3140"/>
<path d="M8.98169 24.8092C8.98169 24.6096 9.14353 24.4478 9.3431 24.4478H11.0761C11.2756 24.4478 11.4375 24.6096 11.4375 24.8092C11.4375 25.0087 11.2756 25.1706 11.0761 25.1706H9.3431C9.14353 25.1704 8.98169 25.0087 8.98169 24.8092Z" fill="#2E3140"/>
<path d="M11.1063 24.7094C11.4028 25.0059 11.8838 25.0059 12.1807 24.709L16.9555 19.9342C17.2523 19.6374 17.2523 19.1563 16.9558 18.8598C16.6664 18.5657 16.1751 18.5616 15.881 18.8598L11.1062 23.6346C10.8061 23.9329 10.8139 24.4207 11.1063 24.7094Z" fill="#2E3140"/>
<path d="M10.9352 24.4479C11.2077 24.5538 11.5289 24.4967 11.7488 24.2769L16.5236 19.5021C16.7434 19.2822 16.8006 18.9609 16.6945 18.6886C16.4166 18.5811 16.0995 18.6419 15.881 18.8595L11.1062 23.6343C10.8864 23.8542 10.8292 24.1755 10.9352 24.4479Z" fill="#334353"/>
<path d="M11.7487 23.4361L15.6824 19.5023C15.9147 19.2701 16.2912 19.2701 16.5234 19.5023L11.7486 24.2771C11.5164 24.0447 11.5164 23.6682 11.7487 23.4361Z" fill="#3F5D77"/>
<path d="M31.9279 21.2456H28.0718V23.9075H31.9279V21.2456Z" fill="#2E3140"/>
<path d="M31.9278 21.2456H29.9998V23.9075H31.9278V21.2456Z" fill="#334353"/>
<path d="M31.9279 32.209H28.0718V38.3053H31.9279V32.209Z" fill="#2E3140"/>
<path d="M31.9278 32.209H29.9998V38.3053H31.9278V32.209Z" fill="#334353"/>
<path d="M36.6333 41.0626V47.6577C36.6333 49.4892 35.8915 51.1479 34.6908 52.3486C30.597 56.4894 23.3491 53.5567 23.3665 47.6576C23.3665 47.6577 23.3665 41.0626 23.3665 41.0626C23.3665 38.7273 25.2588 36.835 27.5941 36.835H32.4056C34.7409 36.835 36.6333 38.7273 36.6333 41.0626Z" fill="#334353"/>
<path d="M36.6334 41.0626V47.6577C36.6342 51.3213 33.6635 54.291 30 54.2911V36.835H32.4057C34.7411 36.835 36.6334 38.7273 36.6334 41.0626Z" fill="#3E4E60"/>
<path d="M29.9998 49.5186V38.228H31.9363C33.6499 38.228 35.0392 39.6173 35.0392 41.3309V44.4792C35.0392 47.2625 32.783 49.5186 29.9998 49.5186Z" fill="#3F5D77"/>
<path d="M29.9999 49.5186V38.228H28.0633C26.3497 38.228 24.9604 39.6173 24.9604 41.3309V44.4792C24.9604 47.2625 27.2167 49.5186 29.9999 49.5186Z" fill="#3E4E60"/>
<path d="M31.9814 43.1232H29.9998V39.7876H31.9814C34.194 39.8756 34.1928 43.0358 31.9814 43.1232Z" fill="#3F6C8E"/>
<path d="M28.0182 39.7876H29.9998V43.1232H28.0182C25.8055 43.0352 25.8067 39.875 28.0182 39.7876Z" fill="#3F5D77"/>
<path d="M34.6012 28.03C34.6012 29.3012 34.0857 32.5826 33.2532 33.415C32.4207 34.2485 31.2701 34.763 29.9999 34.763C28.7297 34.763 27.5792 34.2485 26.7467 33.415C25.9142 32.5825 25.3987 29.3011 25.3987 28.03C25.3987 25.4886 27.4586 23.4287 29.9999 23.4287C32.5403 23.4285 34.6008 25.4887 34.6012 28.03Z" fill="#334353"/>
<path d="M34.6013 28.03C34.6013 29.3012 34.0857 32.5826 33.2532 33.415C32.4207 34.2485 31.2702 34.763 30 34.763V23.4287C32.5404 23.4285 34.6009 25.4887 34.6013 28.03Z" fill="#3E4E60"/>
<path d="M30 31.6492C34.5866 31.4666 34.5832 24.9163 30 24.7354V31.6492Z" fill="#3F5D77"/>
<path d="M30 24.7354C25.4134 24.9179 25.4168 31.4682 30 31.6492V24.7354Z" fill="#3E4E60"/>
<path d="M31.3624 28.9994H30V26.7061H31.3624C32.8836 26.7665 32.8829 28.9394 31.3624 28.9994Z" fill="#3F6C8E"/>
<path d="M28.6375 26.7061H29.9999V28.9994H28.6375C27.1163 28.9388 27.117 26.7661 28.6375 26.7061Z" fill="#3F5D77"/>
<path d="M35.5799 15.3433V18.2624C35.5799 19.9103 34.2447 21.2457 32.5968 21.2457H27.403C25.7552 21.2457 24.4199 19.9105 24.4199 18.2624V15.3433C24.4199 12.4392 26.7734 10.0846 29.6775 10.0846C32.8335 9.8233 35.5683 12.1289 35.5799 15.3433Z" fill="#334353"/>
<path d="M35.58 15.3432V18.2624C35.58 19.9103 34.2448 21.2456 32.5969 21.2456H30V10.0846C33.0122 9.92098 35.5903 12.3135 35.58 15.3432Z" fill="#3E4E60"/>
<path d="M31.5187 14.9043H30.1221C30.0547 14.9043 30 14.8496 30 14.7822V11.6026C30 11.5352 30.0547 11.4805 30.1221 11.4805H31.5187C33.7895 11.5706 33.789 14.8145 31.5187 14.9043Z" fill="#3F5D77"/>
<path d="M28.4812 11.4805H29.8778C29.9452 11.4805 30 11.5352 30 11.6026V14.7822C30 14.8496 29.9452 14.9043 29.8778 14.9043H28.4812C26.2105 14.8142 26.2109 11.5704 28.4812 11.4805Z" fill="#3E4E60"/>
<path d="M31.4679 13.7556H30.071C30.0319 13.7556 30 13.7238 30 13.6846V11.8366C30 11.7975 30.0318 11.7656 30.071 11.7656H31.4679C32.786 11.8144 32.786 13.707 31.4679 13.7556Z" fill="#3F6C8E"/>
<path d="M28.5321 11.7656H29.9289C29.9681 11.7656 29.9999 11.7974 29.9999 11.8366V13.6846C29.9999 13.7237 29.9682 13.7556 29.9289 13.7556H28.5321C27.2139 13.7068 27.2139 11.8143 28.5321 11.7656Z" fill="#3F5D77"/>
<path d="M37.6146 11.8239C37.9111 12.1204 37.9111 12.6014 37.6142 12.8983L33.9666 16.5457C33.6698 16.8426 33.1888 16.8426 32.8923 16.5461C32.5981 16.2566 32.5941 15.7654 32.8923 15.4712L36.5397 11.8238C36.8381 11.5236 37.3259 11.5314 37.6146 11.8239Z" fill="#2E3140"/>
<path d="M37.3532 11.6528C37.4592 11.9252 37.4021 12.2464 37.1823 12.4663L33.5348 16.1137C33.315 16.3336 32.9936 16.3908 32.7213 16.2847C32.6138 16.0068 32.6746 15.6896 32.8923 15.4712L36.5397 11.8237C36.7596 11.6039 37.0809 11.5467 37.3532 11.6528Z" fill="#334353"/>
<path d="M36.3413 12.4662L33.5348 15.2727C33.3025 15.505 33.3025 15.8815 33.5348 16.1137L37.1823 12.4662C36.9501 12.2339 36.5736 12.2339 36.3413 12.4662Z" fill="#3F5D77"/>
<path d="M37.0774 4.86574C37.4965 4.86574 37.8367 5.20593 37.8367 5.6257V10.7841C37.8367 11.2038 37.4965 11.544 37.0774 11.544C36.6647 11.5473 36.3145 11.2028 36.3174 10.7841V5.6257C36.316 5.20253 36.6665 4.86316 37.0774 4.86574Z" fill="#2E3140"/>
<path d="M36.7717 4.92969C37.0393 5.04734 37.2261 5.315 37.2261 5.6259V10.7843C37.2261 11.0952 37.0393 11.3627 36.7717 11.4805C36.4991 11.36 36.318 11.0927 36.3174 10.7843V5.6259C36.3174 5.315 36.5042 5.04734 36.7717 4.92969Z" fill="#334353"/>
<path d="M36.6313 6.22059V10.1896C36.6313 10.5181 36.8976 10.7842 37.226 10.7842V5.62598C36.8976 5.62598 36.6313 5.89223 36.6313 6.22059Z" fill="#3F5D77"/>
<path d="M22.3852 11.8239C22.0887 12.1204 22.0887 12.6014 22.3855 12.8983L26.033 16.5457C26.3298 16.8426 26.8109 16.8426 27.1073 16.5461C27.4015 16.2566 27.4055 15.7654 27.1073 15.4712L23.4599 11.8238C23.1616 11.5236 22.6738 11.5314 22.3852 11.8239Z" fill="#2E3140"/>
<path d="M22.6464 11.6528C22.5404 11.9252 22.5975 12.2464 22.8173 12.4663L26.4648 16.1137C26.6847 16.3336 27.006 16.3908 27.2783 16.2847C27.3858 16.0068 27.325 15.6896 27.1073 15.4712L23.4599 11.8237C23.24 11.6039 22.9187 11.5467 22.6464 11.6528Z" fill="#334353"/>
<path d="M23.6583 12.4662L26.4648 15.2727C26.6971 15.505 26.6971 15.8815 26.4648 16.1137L22.8174 12.4662C23.0495 12.2339 23.4261 12.2339 23.6583 12.4662Z" fill="#3F5D77"/>
<path d="M22.9225 4.86574C22.5033 4.86574 22.1631 5.20593 22.1631 5.6257V10.7841C22.1631 11.2038 22.5033 11.544 22.9225 11.544C23.3351 11.5473 23.6854 11.2028 23.6824 10.7841V5.6257C23.6838 5.20253 23.3333 4.86316 22.9225 4.86574Z" fill="#2E3140"/>
<path d="M23.228 4.92969C22.9605 5.04734 22.7737 5.315 22.7737 5.6259V10.7843C22.7737 11.0952 22.9605 11.3627 23.228 11.4805C23.5006 11.36 23.6818 11.0927 23.6824 10.7843V5.6259C23.6824 5.315 23.4956 5.04734 23.228 4.92969Z" fill="#334353"/>
<path d="M23.3683 6.22059V10.1896C23.3683 10.5181 23.102 10.7842 22.7737 10.7842V5.62598C23.102 5.62598 23.3683 5.89223 23.3683 6.22059Z" fill="#3F5D77"/>
<path d="M36.3176 17.6812V18.2918C36.3213 18.8749 35.8352 19.3522 35.2614 19.3487C34.6778 19.3487 34.2053 18.8754 34.2053 18.2918V17.6812C34.2543 16.2866 36.2631 16.2775 36.3176 17.6812Z" fill="#334353"/>
<path d="M36.3176 17.6812V18.2917C36.3164 18.7154 36.0714 19.0837 35.6997 19.2529C35.3353 19.0871 35.0818 18.719 35.0818 18.2917V17.6812C35.0818 17.2539 35.3353 16.8865 35.6997 16.7207C36.0642 16.8865 36.3176 17.2539 36.3176 17.6812Z" fill="#3E4E60"/>
<path d="M23.6824 18.2925V17.6819C23.6788 17.0988 24.1649 16.6215 24.7386 16.625C25.3222 16.625 25.7947 17.0983 25.7947 17.6819V18.2925C25.7457 19.6871 23.7369 19.6962 23.6824 18.2925Z" fill="#2E3140"/>
<path d="M23.6824 18.2924V17.6819C23.6837 17.2582 23.9286 16.8899 24.3003 16.7207C24.6648 16.8865 24.9182 17.2546 24.9182 17.6819V18.2924C24.9182 18.7197 24.6648 19.0871 24.3003 19.2529C23.9359 19.0871 23.6824 18.7197 23.6824 18.2924Z" fill="#334353"/>
<path d="M28.3092 9.36084L29.1012 10.1161L26.8908 10.8839C25.8457 9.84026 25.8632 8.14842 26.8908 7.12584L28.3882 5.62842C28.6668 5.35092 29.1428 5.54733 29.1428 5.9412C29.143 6.6967 28.8426 7.41881 28.3092 7.95307C27.9249 8.33194 27.919 8.97588 28.3092 9.36084Z" fill="#2E3140"/>
<path d="M29.1429 5.94108C29.1429 6.31889 29.0682 6.68827 28.9262 7.02975C28.7843 7.37124 28.5761 7.68612 28.3093 7.95296C28.2058 8.05643 28.13 8.17819 28.0809 8.30733C27.5253 8.678 26.776 8.75007 26.1672 8.4728C26.2665 7.97862 26.5077 7.50893 26.8909 7.12585L28.3883 5.62843C28.6668 5.35093 29.1429 5.54733 29.1429 5.94108Z" fill="#334353"/>
<path d="M31.692 9.36084L30.9 10.1162L33.1104 10.8839C34.1555 9.84026 34.138 8.14842 33.1104 7.12584L31.613 5.62842C31.3344 5.35092 30.8584 5.54733 30.8584 5.9412C30.8582 6.6967 31.1586 7.41881 31.692 7.95307C32.0763 8.33194 32.0823 8.97588 31.692 9.36084Z" fill="#334353"/>
<path d="M30.8584 5.94108C30.8584 6.31889 30.933 6.68827 31.0751 7.02975C31.217 7.37124 31.4251 7.68612 31.692 7.95296C31.7954 8.05643 31.8712 8.17819 31.9203 8.30733C32.4759 8.678 33.2252 8.75007 33.834 8.4728C33.7348 7.97862 33.4936 7.50893 33.1104 7.12585L31.613 5.62843C31.3344 5.35093 30.8584 5.54733 30.8584 5.94108Z" fill="#3E4E60"/>
</g>
<defs>
<clipPath id="clip0_1123_25226">
<rect width="60" height="60" fill="white"/>
</clipPath>
</defs>
</svg>
