<svg width="60" height="60" viewBox="0 0 60 60" fill="none" xmlns="http://www.w3.org/2000/svg">
<g clip-path="url(#clip0_1123_23225)">
<path d="M30 60C46.5685 60 60 46.5685 60 30C60 13.4315 46.5685 0 30 0C13.4315 0 0 13.4315 0 30C0 46.5685 13.4315 60 30 60Z" fill="#EA792E"/>
<path d="M49.5532 37.1047L46.1005 47.0145C44.5977 51.3243 40.5326 54.2133 35.9678 54.2133H24.0325C19.4677 54.2133 15.4025 51.3243 13.8997 47.0145L10.447 37.1047C9.35801 33.9812 9.77063 30.5311 11.5655 27.7522L16.374 18.4907C17.1043 17.3606 17.6155 16.1038 17.8807 14.7856L18.3087 12.655C18.8121 10.149 20.165 7.99666 22.0304 6.46818C23.8958 4.94111 27.4454 4.04053 30.0001 4.04053C35.1107 4.04053 40.6834 7.64439 41.6917 12.6551L42.1197 14.7857C42.3848 16.104 42.896 17.3608 43.6263 18.4908L48.4349 27.7524C50.2297 30.5311 50.6422 33.9813 49.5532 37.1047Z" fill="#2D2C33"/>
<path d="M49.5531 37.1047L46.1004 47.0145C44.5976 51.3243 40.5325 54.2133 35.9677 54.2133H30V4.04053C35.1105 4.04053 40.6833 7.64439 41.6916 12.6551L42.1195 14.7857C42.3847 16.104 42.8959 17.3608 43.6262 18.4908L48.4348 27.7524C50.2296 30.5311 50.6421 33.9813 49.5531 37.1047Z" fill="#2E3140"/>
<path d="M38.086 47.4856L38.3947 44.1612C38.6159 41.7784 40.1231 39.7077 42.3224 38.7649L42.9313 38.5038C44.375 37.8848 45.8743 39.2576 45.3844 40.7501L43.5342 46.3884C43.0554 47.8472 41.8881 48.9763 40.4142 49.4064C39.1779 49.767 37.9669 48.768 38.086 47.4856Z" fill="#334353"/>
<path d="M21.9141 47.4856L21.6055 44.1612C21.3842 41.7784 19.8771 39.7077 17.6777 38.7649L17.0688 38.5038C15.6252 37.8848 14.1259 39.2576 14.6157 40.7501L16.466 46.3884C16.9447 47.8472 18.112 48.9763 19.586 49.4064C20.8222 49.767 22.0332 48.768 21.9141 47.4856Z" fill="#2E3140"/>
<path d="M30 7.2417C30 7.2417 33.1573 7.4524 34.1693 7.73025C36.6936 8.42318 38.3067 10.9294 38.8782 13.484L39.5436 16.4578C39.9103 18.0968 38.6636 19.6534 36.984 19.6534H30V7.2417Z" fill="#334353"/>
<path d="M30.0001 7.2417C30.0001 7.2417 26.8428 7.4524 25.8308 7.73025C23.3064 8.42318 21.6934 10.9294 21.1218 13.484L20.4564 16.4578C20.0898 18.0968 21.3365 19.6534 23.016 19.6534H30.0001V7.2417Z" fill="#2E3140"/>
<path d="M42.8951 31.4892C42.8951 34.0266 41.6121 36.2644 39.6604 37.5898C37.4346 39.1014 36.0567 41.5778 36.0567 44.2675V46.5408C36.0567 48.2132 35.3796 49.7282 34.2827 50.825C33.1858 51.9202 31.6726 52.599 30.0002 52.599C26.6554 52.599 23.9437 49.8857 23.9437 46.5408V44.2675C23.9437 41.5778 22.5658 39.1014 20.34 37.5898C19.3633 36.9279 18.5559 36.0359 17.9905 34.9949C17.4268 33.9521 17.1052 32.7572 17.1052 31.4893C17.1052 27.4167 20.406 24.1143 24.4787 24.1143H35.5218C37.5582 24.1143 39.4016 24.9403 40.7354 26.2741C42.0691 27.6096 42.8951 29.453 42.8951 31.4892Z" fill="#334353"/>
<path d="M42.8956 31.4895C42.8956 34.0267 41.6124 36.2638 39.66 37.5892C37.4346 39.1009 36.0565 41.5771 36.0565 44.2677V46.5411C36.0565 48.2134 35.3792 49.7274 34.2823 50.8243C33.1854 51.92 31.6725 52.5985 30.0002 52.5985V24.1138H35.5221C37.5577 24.1138 39.401 24.9399 40.7358 26.2735C42.0694 27.6095 42.8956 29.4528 42.8956 31.4895Z" fill="#3E4E60"/>
<path d="M30.0002 43.7251C31.4781 43.8079 32.8524 44.5103 33.7853 45.6594L35.8318 48.1803L30.0002 49.6554V43.7251Z" fill="#3F5D77"/>
<path d="M30.0003 43.7251C28.5225 43.8079 27.1482 44.5103 26.2153 45.6594L24.1687 48.1803L30.0003 49.6554V43.7251Z" fill="#3E4E60"/>
<path d="M30.0003 50.0668C28.7615 50.0668 27.5901 49.63 26.5565 49.2448C25.819 48.9699 25.1223 48.7102 24.522 48.6518C24.1998 48.6206 23.9642 48.3341 23.9955 48.012C24.0268 47.6898 24.3136 47.4545 24.6353 47.4855C25.3882 47.5586 26.1545 47.8443 26.9659 48.1468C27.9525 48.5146 28.9729 48.8949 30.0004 48.8949C31.0282 48.8949 32.0488 48.5145 33.0359 48.1466C33.8473 47.8442 34.6136 47.5586 35.3665 47.4854C35.6891 47.4531 35.9751 47.6898 36.0064 48.0119C36.0377 48.334 35.802 48.6204 35.4798 48.6517C34.8794 48.7101 34.1827 48.9698 33.4451 49.2447C32.4112 49.63 31.2394 50.0668 30.0003 50.0668Z" fill="#2D2C33"/>
<path d="M37.511 28.9174H33.302C32.515 28.9174 31.8772 28.2795 31.8772 27.4926C31.8772 26.7057 32.515 26.0679 33.302 26.0679H37.511C38.2979 26.0679 38.9358 26.7057 38.9358 27.4926C38.9358 28.2794 38.2979 28.9174 37.511 28.9174Z" fill="#3F5D77"/>
<path d="M26.6985 28.9174H22.4895C21.7025 28.9174 21.0647 28.2795 21.0647 27.4926C21.0647 26.7057 21.7025 26.0679 22.4895 26.0679H26.6985C27.4854 26.0679 28.1233 26.7057 28.1233 27.4926C28.1233 28.2794 27.4853 28.9174 26.6985 28.9174Z" fill="#3E4E60"/>
<path d="M30.0003 35.4275H21.3833C20.4767 35.4275 19.7417 34.6926 19.7417 33.7859V32.5597C19.7417 30.5481 21.3724 28.9175 23.3839 28.9175H24.7723H30.0003V35.4275Z" fill="#2E3140"/>
<path d="M30.0002 35.4275H38.6173C39.5238 35.4275 40.2588 34.6926 40.2588 33.7859V32.5597C40.2588 30.5481 38.6282 28.9175 36.6166 28.9175H35.2282H30.0002V35.4275Z" fill="#334353"/>
<path d="M35.114 30.393L33.6112 30.8286C32.6549 31.1057 32.1044 32.1056 32.3815 33.0618C32.6587 34.0181 33.6585 34.5686 34.6148 34.2915L36.1176 33.8559C37.0738 33.5788 37.6244 32.5789 37.3472 31.6227C37.0701 30.6664 36.0702 30.1159 35.114 30.393Z" fill="#EA792E"/>
<path d="M36.4695 32.3423C36.4695 32.7103 36.3453 33.0513 36.1355 33.322C35.8425 33.7017 35.382 33.9478 34.864 33.9478C33.9781 33.9478 33.2585 33.2282 33.2585 32.3423C33.2585 31.6169 33.7402 31.004 34.4011 30.8048C34.5476 30.7603 34.7035 30.7368 34.864 30.7368C35.7511 30.7368 36.4695 31.4552 36.4695 32.3423Z" fill="#3E4E60"/>
<path d="M36.4694 32.3423C36.4694 32.7103 36.3452 33.0513 36.1354 33.322C35.9878 33.3677 35.8319 33.3911 35.6702 33.3911C34.7843 33.3911 34.0659 32.6716 34.0659 31.7856C34.0659 31.4165 34.1901 31.0767 34.4011 30.8048C34.5476 30.7603 34.7034 30.7368 34.864 30.7368C35.7511 30.7368 36.4694 31.4552 36.4694 32.3423Z" fill="#2E3140"/>
<path d="M36.0354 32.3423C36.4593 32.3423 36.803 31.9986 36.803 31.5747C36.803 31.1508 36.4593 30.8071 36.0354 30.8071C35.6115 30.8071 35.2678 31.1508 35.2678 31.5747C35.2678 31.9986 35.6115 32.3423 36.0354 32.3423Z" fill="white"/>
<path d="M24.8865 30.393L26.3893 30.8286C27.3456 31.1057 27.8961 32.1056 27.619 33.0618C27.3418 34.0181 26.342 34.5686 25.3857 34.2915L23.8829 33.8559C22.9267 33.5788 22.3761 32.5789 22.6533 31.6227C22.9304 30.6664 23.9303 30.1159 24.8865 30.393Z" fill="#EA792E"/>
<path d="M23.531 32.3423C23.531 32.7103 23.6552 33.0513 23.865 33.322C24.158 33.7017 24.6185 33.9478 25.1365 33.9478C26.0224 33.9478 26.7419 33.2282 26.7419 32.3423C26.7419 31.6169 26.2603 31.004 25.5994 30.8048C25.4529 30.7603 25.297 30.7368 25.1365 30.7368C24.2494 30.7368 23.531 31.4552 23.531 32.3423Z" fill="#3E4E60"/>
<path d="M23.531 32.3423C23.531 32.7103 23.6552 33.0513 23.865 33.322C24.0126 33.3677 24.1685 33.3911 24.3302 33.3911C25.2162 33.3911 25.9345 32.6716 25.9345 31.7856C25.9345 31.4165 25.8103 31.0767 25.5994 30.8048C25.4529 30.7603 25.297 30.7368 25.1365 30.7368C24.2494 30.7368 23.531 31.4552 23.531 32.3423Z" fill="#2E3140"/>
<path d="M25.6985 32.3286C26.1224 32.3286 26.4661 31.985 26.4661 31.561C26.4661 31.1371 26.1224 30.7935 25.6985 30.7935C25.2746 30.7935 24.9309 31.1371 24.9309 31.561C24.9309 31.985 25.2746 32.3286 25.6985 32.3286Z" fill="white"/>
<path d="M30.0002 41.7812V43.7253C29.9639 43.771 29.9252 43.8144 29.8842 43.8554C29.2749 44.4647 28.2881 44.4647 27.6799 43.8554L27.1831 43.3585L26.0135 42.1901C25.4053 41.5808 25.4053 40.594 26.0135 39.9858C26.3182 39.6812 26.7167 39.5288 27.1163 39.5288C27.5159 39.5288 27.9143 39.6812 28.219 39.9858L29.8842 41.6511C29.9252 41.6933 29.9639 41.7366 30.0002 41.7812Z" fill="#2D2C33"/>
<path d="M33.987 42.1901L32.3206 43.8554C31.7124 44.4647 30.7256 44.4647 30.1163 43.8554C30.0752 43.8144 30.0366 43.771 30.0002 43.7253V41.7812C30.0366 41.7366 30.0752 41.6933 30.1163 41.6511L31.7815 39.9858C32.0862 39.6812 32.4846 39.5288 32.8842 39.5288C33.2838 39.5288 33.6823 39.6812 33.987 39.9858C34.5952 40.594 34.5952 41.5808 33.987 42.1901Z" fill="#2E3140"/>
<path d="M31.4382 39.0052C31.1748 39.0052 30.9142 38.8872 30.741 38.6623C30.445 38.2775 30.5168 37.7257 30.9015 37.4297C32.6718 36.0672 34.0407 36.6724 34.9162 37.2462C35.3221 37.5123 35.4356 38.0571 35.1696 38.4631C34.9034 38.869 34.3586 38.9823 33.9527 38.7164C33.3521 38.3228 32.8897 38.1176 31.9737 38.8227C31.8139 38.9456 31.6252 39.0052 31.4382 39.0052Z" fill="#3F5D77"/>
<path d="M28.5622 39.0052C28.8257 39.0052 29.0862 38.8872 29.2594 38.6623C29.5554 38.2775 29.4837 37.7257 29.099 37.4297C27.3286 36.0672 25.9597 36.6724 25.0842 37.2462C24.6783 37.5123 24.5649 38.0571 24.8309 38.4631C25.097 38.869 25.6418 38.9823 26.0477 38.7164C26.6483 38.3228 27.1108 38.1176 28.0267 38.8227C28.1865 38.9456 28.3752 39.0052 28.5622 39.0052Z" fill="#3E4E60"/>
</g>
<defs>
<clipPath id="clip0_1123_23225">
<rect width="60" height="60" fill="white"/>
</clipPath>
</defs>
</svg>
