<svg width="60" height="60" viewBox="0 0 60 60" fill="none" xmlns="http://www.w3.org/2000/svg">
<g clip-path="url(#clip0_1123_23031)">
<path d="M30 60C46.5685 60 60 46.5685 60 30C60 13.4315 46.5685 0 30 0C13.4315 0 0 13.4315 0 30C0 46.5685 13.4315 60 30 60Z" fill="#6C53A2"/>
<path d="M50.5415 13.8746L50.2461 11.1917C50.1258 10.0988 49.0642 9.43905 48.0815 9.69687C47.908 9.74257 47.7366 9.8164 47.5732 9.92222L41.6747 13.74C39.72 15.005 37.861 16.4085 36.111 17.9395C36.1048 17.9395 36.0987 17.939 36.0926 17.939H23.9073C23.9011 17.939 23.895 17.9395 23.8889 17.9395C22.139 16.4085 20.28 15.005 18.3252 13.74L12.4267 9.92233C12.2634 9.81651 12.0918 9.74269 11.9185 9.69698C10.9357 9.43905 9.87402 10.0988 9.7539 11.1918L9.45847 13.8747C9.06918 17.409 10.3054 20.9287 12.8193 23.4426L15.0136 25.6369C14.9532 26.0578 14.9203 26.4875 14.9203 26.9251V41.0438C14.9203 45.0587 17.5536 48.4559 21.1864 49.6091C22.2422 49.943 23.0696 50.7551 23.5067 51.7735C24.2262 53.4481 25.8914 54.6212 27.8309 54.6212H32.1692C34.1086 54.6212 35.7739 53.4481 36.4934 51.7735C36.9305 50.7551 37.7578 49.943 38.8137 49.6091C42.4465 48.4559 45.0797 45.0587 45.0797 41.0438V26.9251C45.0797 26.4875 45.0468 26.0578 44.9864 25.6369L47.1808 23.4426C49.6946 20.9287 50.9308 17.4089 50.5415 13.8746Z" fill="#EE6781"/>
<path d="M47.1809 23.4423C49.6945 20.9286 50.9309 17.4095 50.5418 13.8751L50.2465 11.1915C50.1258 10.0993 49.0641 9.43954 48.082 9.69736C48.0609 9.70322 48.0387 9.70908 48.0176 9.71611C47.8711 9.76064 47.727 9.82509 47.5875 9.91298C47.5863 9.91415 47.5852 9.91415 47.584 9.91532C47.5805 9.91767 47.577 9.92001 47.5734 9.92236L41.6742 13.7403C40.0412 14.7967 38.4764 15.9517 36.9851 17.1951L36.9834 17.1945L36.909 17.2581C36.6409 17.4825 36.3744 17.7089 36.1112 17.9392V17.9396C36.1049 17.9396 36.0988 17.9392 36.0925 17.9392H30V54.6212H32.1691C34.1086 54.6212 35.7738 53.4481 36.4934 51.7735C36.9305 50.7552 37.7578 49.9431 38.8137 49.6091C42.4465 48.4559 45.0797 45.0587 45.0797 41.0438V26.9251C45.0797 26.4872 45.0468 26.0571 44.9862 25.6359L44.9871 25.636L47.1809 23.4423Z" fill="#F4829B"/>
<path d="M17.4691 20.6567C16.1742 21.9856 15.2882 23.7118 15.0128 25.636L12.8191 23.4423C10.3054 20.9286 9.06909 17.4095 9.45815 13.8751L9.75346 11.1915C9.87417 10.0993 10.9359 9.43954 11.9179 9.69736C12.0878 9.74189 12.2554 9.81337 12.416 9.91532C12.1992 9.7829 11.8734 10.6548 11.816 12.0165C11.714 14.461 13.9581 17.8208 17.0378 20.3087L17.4691 20.6567Z" fill="#F4829B"/>
<path d="M47.1808 23.4423L44.987 25.636C44.7116 23.7118 43.8257 21.9856 42.5308 20.6567L42.962 20.3087C46.0417 17.8208 48.2858 14.461 48.1839 12.0165C48.1265 10.6618 47.8042 9.79228 47.5874 9.91298C47.7269 9.82509 47.871 9.76064 48.0175 9.71611C48.0386 9.70908 48.0608 9.70322 48.0819 9.69736C49.064 9.43954 50.1257 10.0993 50.2464 11.1915L50.5417 13.8751C50.9308 17.4095 49.6944 20.9286 47.1808 23.4423Z" fill="#FF9FB4"/>
<path d="M36.1326 49.6209V49.6904C36.1326 51.186 34.9202 52.3983 33.4248 52.3983H26.5753C25.0797 52.3983 23.8674 51.1859 23.8674 49.6904V49.6209C23.8674 46.2348 26.6127 43.4883 30.0001 43.4883C33.3875 43.4883 36.1326 46.2348 36.1326 49.6209Z" fill="#FF9FB4"/>
<path d="M36.1327 49.6209V49.6904C36.1327 51.186 34.9202 52.3983 33.4248 52.3983H30V43.4883C33.3874 43.4883 36.1327 46.2348 36.1327 49.6209Z" fill="#FFCCD7"/>
<path d="M34.1252 47.0758C33.9973 47.0758 33.8701 47.0215 33.7811 46.9162C32.6672 45.5991 31.3244 44.8736 29.9999 44.8736C28.6754 44.8736 27.3325 45.599 26.2187 46.9162C26.0581 47.1061 25.7738 47.1299 25.5839 46.9693C25.394 46.8086 25.3702 46.5244 25.5308 46.3345C26.8187 44.8115 28.4058 43.9727 29.9999 43.9727C31.594 43.9727 33.1812 44.8114 34.469 46.3345C34.6296 46.5244 34.6058 46.8086 34.4159 46.9693C34.3313 47.0409 34.228 47.0758 34.1252 47.0758Z" fill="white"/>
<path d="M32.3248 51.4911H32.9198C33.8021 51.4911 34.5175 50.7758 34.5175 49.8935V49.8528C34.5175 48.7436 34.0183 47.751 33.2326 47.0873C32.3116 46.3094 30.8992 46.9816 30.8992 48.1872V50.0654C30.8991 50.8528 31.5374 51.4911 32.3248 51.4911Z" fill="#2E3140"/>
<path d="M27.6751 51.4911H27.08C26.1977 51.4911 25.4824 50.7758 25.4824 49.8935V49.8528C25.4824 48.7436 25.9815 47.751 26.7673 47.0873C27.6882 46.3094 29.1007 46.9816 29.1007 48.1872V50.0654C29.1008 50.8528 28.4625 51.4911 27.6751 51.4911Z" fill="#2E3140"/>
<path d="M33.2355 43.2211L32.639 42.975C31.7941 42.6258 30.8976 42.4512 29.9999 42.4512C29.1023 42.4512 28.2058 42.6258 27.3609 42.975L26.7644 43.2211C26.1081 43.493 25.5116 42.7254 25.937 42.1547L27.1323 40.5539C27.8484 39.5953 28.9241 39.1172 29.9999 39.1172C31.0757 39.1172 32.1515 39.5953 32.8675 40.5539L34.0628 42.1547C34.4882 42.7254 33.8917 43.493 33.2355 43.2211Z" fill="#F4829B"/>
<path d="M33.2355 43.2211L32.6391 42.975C31.7941 42.6258 30.8977 42.4512 30 42.4512V39.1172C31.0758 39.1172 32.1516 39.5953 32.8676 40.5539L34.0629 42.1547C34.4883 42.7254 33.8918 43.493 33.2355 43.2211Z" fill="#FF9FB4"/>
<path d="M33.2355 39.0609L32.639 38.8148C31.7941 38.4656 30.8976 38.291 29.9999 38.291C29.1023 38.291 28.2058 38.4656 27.3609 38.8148L26.7644 39.0609C26.1081 39.3328 25.5116 38.5652 25.937 37.9945L27.1323 36.3938C27.8484 35.4352 28.9241 34.957 29.9999 34.957C31.0757 34.957 32.1515 35.4352 32.8675 36.3938L34.0628 37.9945C34.4882 38.5652 33.8917 39.3328 33.2355 39.0609Z" fill="#F4829B"/>
<path d="M33.2355 39.0609L32.6391 38.8148C31.7941 38.4656 30.8977 38.291 30 38.291V34.957C31.0758 34.957 32.1516 35.4352 32.8676 36.3938L34.0629 37.9945C34.4883 38.5652 33.8918 39.3328 33.2355 39.0609Z" fill="#FF9FB4"/>
<path d="M30 30.3589H33.647C36.5852 30.3589 38.9673 27.9769 38.9673 25.0386C38.9673 22.1003 36.5854 19.7183 33.647 19.7183H30V30.3589Z" fill="#FF9FB4"/>
<path d="M30 19.7183H26.353C23.4148 19.7183 21.0327 22.1002 21.0327 25.0386C21.0327 27.9768 23.4147 30.3589 26.353 30.3589H30V19.7183Z" fill="#F4829B"/>
<path d="M39.5945 36.5518C37.5531 36.5518 35.8982 38.2067 35.8982 40.2481V43.6023C35.8982 45.6438 37.5531 47.2987 39.5945 47.2987C41.6359 47.2987 43.2908 45.6438 43.2908 43.6023V40.2481C43.2908 38.2067 41.6359 36.5518 39.5945 36.5518Z" fill="#FF9FB4"/>
<path d="M20.4895 36.5518C18.4481 36.5518 16.7932 38.2067 16.7932 40.2481V43.6023C16.7932 45.6438 18.4481 47.2987 20.4895 47.2987C22.5309 47.2987 24.1859 45.6438 24.1859 43.6023V40.2481C24.1859 38.2067 22.5309 36.5518 20.4895 36.5518Z" fill="#F4829B"/>
<path d="M30 25.7337H34.8313C36.0199 25.7337 36.9836 24.7701 36.9836 23.5815C36.9836 22.3928 36.0199 21.4292 34.8313 21.4292H30V25.7337Z" fill="#FFCCD7"/>
<path d="M30 21.4292H25.1687C23.9801 21.4292 23.0166 22.3928 23.0166 23.5815C23.0166 24.7701 23.9802 25.7337 25.1687 25.7337H30V21.4292Z" fill="#FF9FB4"/>
<path d="M41.3581 32.9225C41.6514 34.0173 41.0103 35.1413 39.9224 35.4476C39.9137 35.4516 39.9044 35.454 39.8951 35.4566L38.5048 35.8291C37.9536 35.9768 37.3934 35.8876 36.9346 35.6228C36.4743 35.3583 36.1174 34.9193 35.9692 34.3665C35.6941 33.3395 36.2416 32.2852 37.2077 31.9059C37.2807 31.8765 37.3564 31.8512 37.4334 31.8306L38.8237 31.4581C39.3765 31.3099 39.9356 31.4011 40.3944 31.6659C40.853 31.9308 41.21 32.3698 41.3581 32.9225Z" fill="#3E4E60"/>
<path d="M41.3582 32.9227C41.6515 34.0174 41.0104 35.1414 39.9225 35.4477C38.7251 35.0804 37.7103 34.0586 37.3394 32.6743C37.2705 32.4172 37.2263 32.16 37.2078 31.9059C37.2808 31.8765 37.3565 31.8512 37.4335 31.8306L38.8238 31.4581C39.3766 31.3099 39.9357 31.4011 40.3944 31.6659C40.8531 31.9309 41.2101 32.3699 41.3582 32.9227Z" fill="#2E3140"/>
<path d="M39.4927 32.2459L38.6561 32.47C38.2959 32.5666 38.0821 32.9368 38.1787 33.297C38.2753 33.6573 38.6455 33.871 39.0057 33.7744L39.8423 33.5503C40.2025 33.4537 40.4163 33.0835 40.3197 32.7233C40.2232 32.363 39.853 32.1493 39.4927 32.2459Z" fill="white"/>
<path d="M24.1147 34.3669C23.8214 35.4616 22.7041 36.1144 21.6088 35.8358C21.5992 35.8349 21.5899 35.8324 21.5806 35.8299L20.1903 35.4574C19.6391 35.3097 19.1986 34.9523 18.9336 34.4935C18.6672 34.0344 18.5776 33.4756 18.7257 32.9229C19.0009 31.8958 20.0022 31.2566 21.0286 31.4111C21.1065 31.4222 21.1847 31.4381 21.2617 31.4587L22.652 31.8313C23.2047 31.9794 23.6434 32.3379 23.9082 32.7967C24.1732 33.2554 24.2628 33.8141 24.1147 34.3669Z" fill="#3E4E60"/>
<path d="M24.1147 34.3668C23.8214 35.4616 22.7042 36.1143 21.6088 35.8358C20.7555 34.919 20.3876 33.5266 20.7584 32.1424C20.8273 31.8853 20.9176 31.6405 21.0286 31.4111C21.1065 31.4221 21.1847 31.4381 21.2617 31.4587L22.652 31.8312C23.2048 31.9794 23.6434 32.3379 23.9083 32.7966C24.1732 33.2554 24.2629 33.8141 24.1147 34.3668Z" fill="#2E3140"/>
<path d="M22.8377 32.848L22.0011 32.6238C21.6408 32.5272 21.2706 32.7411 21.1741 33.1012C21.0775 33.4614 21.2914 33.8316 21.6515 33.9282L22.4881 34.1524C22.8483 34.2489 23.2185 34.0351 23.3151 33.6749C23.4116 33.3147 23.1979 32.9444 22.8377 32.848Z" fill="white"/>
</g>
<defs>
<clipPath id="clip0_1123_23031">
<rect width="60" height="60" fill="white"/>
</clipPath>
</defs>
</svg>
