<svg width="60" height="60" viewBox="0 0 60 60" fill="none" xmlns="http://www.w3.org/2000/svg">
<g clip-path="url(#clip0_1123_26216)">
<path d="M30 60C46.5685 60 60 46.5685 60 30C60 13.4315 46.5685 0 30 0C13.4315 0 0 13.4315 0 30C0 46.5685 13.4315 60 30 60Z" fill="#EA792E"/>
<path d="M32.9654 43.5263V40.5203C32.9294 38.9444 34.6449 37.8072 36.0812 38.4296C36.9035 38.7665 37.4831 39.5748 37.4831 40.5194L37.484 42.2868C37.483 42.725 37.2584 43.1322 36.8884 43.3638C36.7911 43.4272 34.9489 44.5777 34.9128 44.6033C34.0654 45.1359 32.9654 44.5271 32.9654 43.5263Z" fill="#3F6C8E"/>
<path d="M34.6792 43.5275V40.5195C34.6792 39.5748 35.2589 38.7666 36.0812 38.4297C36.9035 38.7666 37.4831 39.5748 37.4831 40.5196L37.4841 42.287C37.483 42.7252 37.2585 43.1324 36.8884 43.364L35.1085 44.4801C34.8497 44.2534 34.6792 43.9205 34.6792 43.5275Z" fill="#22A8B9"/>
<path d="M35.513 40.5195C35.9734 40.5195 36.3467 40.8928 36.3468 41.3532L36.3474 41.5265C36.3098 42.6298 34.7172 42.6311 34.6791 41.5268C34.6264 40.9921 34.9551 40.5297 35.513 40.5195Z" fill="#4FCAE8"/>
<path d="M36.3018 48.1869L34.0668 45.9519C33.3741 45.2592 33.3743 44.135 34.0668 43.4424C34.7595 42.7497 35.8838 42.7497 36.5764 43.4424L38.123 44.989C38.3655 45.2315 38.4666 45.5827 38.3906 45.9176L37.9817 47.7031C37.9285 47.9391 37.8002 48.1282 37.6348 48.2609C37.2598 48.56 36.6868 48.5719 36.3018 48.1869Z" fill="#3F5D77"/>
<path d="M37.6349 48.2607L35.9206 46.5465C34.9548 45.6088 35.4165 43.9048 36.7133 43.5791L38.123 44.9888C38.3654 45.2312 38.4666 45.5824 38.3905 45.9173L37.9816 47.7028C37.9285 47.9389 37.8002 48.1281 37.6349 48.2607Z" fill="#3F6C8E"/>
<path d="M36.2295 45.0517C36.4573 44.8239 36.8268 44.8239 37.0548 45.0517L37.4555 45.4525C37.9858 46.0103 37.1882 46.8081 36.6303 46.2776L36.2296 45.877C36.0016 45.649 36.0016 45.2796 36.2295 45.0517Z" fill="#22A8B9"/>
<path d="M34.7737 52.721L37.9578 50.495C39.0191 49.7502 39.5397 48.3431 38.7807 47.5841C38.0216 46.8251 36.6107 47.3471 35.8664 48.4118L33.6437 51.5911C33.2617 52.1686 34.1717 53.112 34.7737 52.721Z" fill="#334353"/>
<path d="M34.7736 52.7208L37.9577 50.4948C37.5496 49.5696 36.2013 49.6123 35.5722 50.3297L33.7158 52.3746C33.9398 52.7052 34.4207 52.952 34.7736 52.7208Z" fill="#3E4E60"/>
<path d="M35.7045 50.8654C35.5255 50.6863 35.2388 50.6971 35.0765 50.876L34.2123 51.8281C33.9962 52.0758 34.4387 52.5068 34.687 52.3027L35.6797 51.4791C35.8661 51.3244 35.8836 51.0444 35.7045 50.8654Z" fill="#3F5D77"/>
<path d="M27.0924 43.5263V40.5203C27.1283 38.9444 25.4128 37.8072 23.9766 38.4296C23.1543 38.7665 22.5747 39.5748 22.5747 40.5194L22.5737 42.2868C22.5748 42.725 22.7993 43.1322 23.1694 43.3638C23.2667 43.4272 25.1088 44.5777 25.1449 44.6033C25.9922 45.1359 27.0924 44.5271 27.0924 43.5263Z" fill="#3F6C8E"/>
<path d="M25.3785 43.5275V40.5195C25.3785 39.5748 24.7989 38.7666 23.9766 38.4297C23.1543 38.7666 22.5747 39.5748 22.5747 40.5196L22.5737 42.287C22.5748 42.7252 22.7993 43.1324 23.1694 43.364L24.9494 44.4801C25.208 44.2534 25.3785 43.9205 25.3785 43.5275Z" fill="#22A8B9"/>
<path d="M24.5448 40.5195C24.0844 40.5195 23.7112 40.8928 23.711 41.3532L23.7104 41.5265C23.7481 42.6298 25.3406 42.6311 25.3787 41.5268C25.4315 40.9921 25.1026 40.5297 24.5448 40.5195Z" fill="#4FCAE8"/>
<path d="M23.7559 48.1869L25.9909 45.9519C26.6836 45.2592 26.6835 44.135 25.9909 43.4424C25.2982 42.7497 24.1739 42.7497 23.4814 43.4424L21.9347 44.989C21.6923 45.2315 21.5911 45.5827 21.6672 45.9176L22.0761 47.7031C22.1293 47.9391 22.2576 48.1282 22.4229 48.2609C22.798 48.56 23.3711 48.5719 23.7559 48.1869Z" fill="#3F5D77"/>
<path d="M22.4228 48.2607L24.137 46.5465C25.1029 45.6088 24.6412 43.9048 23.3444 43.5791L21.9347 44.9888C21.6923 45.2312 21.5911 45.5824 21.6672 45.9173L22.0761 47.7028C22.1291 47.9389 22.2575 48.1281 22.4228 48.2607Z" fill="#3F6C8E"/>
<path d="M23.8285 45.0517C23.6007 44.8239 23.2312 44.8239 23.0032 45.0517L22.6025 45.4525C22.0722 46.0103 22.8698 46.8081 23.4277 46.2776L23.8284 45.877C24.0564 45.649 24.0564 45.2796 23.8285 45.0517Z" fill="#22A8B9"/>
<path d="M25.2842 52.721L22.1001 50.495C21.0387 49.7502 20.5182 48.3431 21.2772 47.5841C22.0362 46.8251 23.4472 47.3471 24.1914 48.4118L26.4141 51.5911C26.796 52.1686 25.8862 53.112 25.2842 52.721Z" fill="#334353"/>
<path d="M25.2842 52.7208L22.1001 50.4948C22.5081 49.5696 23.8565 49.6123 24.4856 50.3297L26.3419 52.3746C26.118 52.7052 25.6371 52.952 25.2842 52.7208Z" fill="#3E4E60"/>
<path d="M24.3534 50.8654C24.5324 50.6863 24.8191 50.6971 24.9814 50.876L25.8456 51.8281C26.0617 52.0758 25.6192 52.5068 25.3709 52.3027L24.3782 51.4791C24.1918 51.3244 24.1743 51.0444 24.3534 50.8654Z" fill="#3F5D77"/>
<path d="M44.276 42.4452C43.7151 43.0122 42.7752 43.0185 42.2081 42.4452L35.1392 35.3762C34.5679 34.805 34.5679 33.8798 35.1392 33.3083C35.7104 32.7371 36.6356 32.7371 37.2071 33.3083L44.276 40.3773C44.8473 40.9487 44.8473 41.8739 44.276 42.4452Z" fill="#3F6C8E"/>
<path d="M44.276 42.4451C44.2374 42.4836 44.1976 42.5196 44.1559 42.5525L37.8333 36.2299C37.2179 35.6228 37.276 34.5907 37.9533 34.0547L44.2759 40.3773C44.8473 40.9486 44.8473 41.8738 44.276 42.4451Z" fill="#22A8B9"/>
<path d="M44.0677 40.9342L38.981 35.8474C38.4658 35.3566 37.7232 36.0937 38.216 36.6124L43.3027 41.6992C43.8179 42.1899 44.5605 41.4528 44.0677 40.9342Z" fill="#4FCAE8"/>
<path d="M46.1861 48.0451V43.5896C46.1166 41.9128 43.7184 41.9129 43.6514 43.5933V48.0451C43.6514 48.6252 44.041 49.1141 44.5728 49.2642C45.3638 49.5002 46.1993 48.8735 46.1861 48.0451Z" fill="#3F5D77"/>
<path d="M46.1861 48.0449V43.5894C45.396 43.353 44.5597 43.9808 44.5729 44.8085V49.2639C45.3638 49.5004 46.1992 48.873 46.1861 48.0449Z" fill="#3F6C8E"/>
<path d="M45.0791 45.0933C44.7996 45.0933 44.573 45.3199 44.573 45.5994V47.5651C44.5934 48.2335 45.5645 48.2344 45.5853 47.5651V45.5994C45.5853 45.3199 45.3586 45.0933 45.0791 45.0933Z" fill="#22A8B9"/>
<path d="M40.3349 54.2925L43.3523 51.8998C44.3586 51.0999 45.0335 49.8472 44.5386 49.3523C44.0437 48.8574 42.7876 49.5341 41.9875 50.543L39.5983 53.5559C39.1698 54.113 39.7996 54.715 40.3349 54.2925Z" fill="#334353"/>
<path d="M40.3349 54.2925L43.3522 51.8998C43.1176 51.156 42.0171 51.5324 41.4107 52.1786L39.5215 54.1908C39.686 54.4823 40.0796 54.5007 40.3349 54.2925Z" fill="#3E4E60"/>
<path d="M41.4267 52.5977C41.31 52.481 41.0714 52.5397 40.9061 52.7158L40.0267 53.6526C39.8063 53.895 40.0922 54.174 40.3361 53.9621L41.2994 53.1091C41.4804 52.9487 41.5434 52.7144 41.4267 52.5977Z" fill="#3F5D77"/>
<path d="M15.7818 42.4452C16.3428 43.0122 17.2826 43.0185 17.8497 42.4452L24.9187 35.3762C25.49 34.805 25.49 33.8798 24.9187 33.3083C24.3474 32.7371 23.4222 32.7371 22.8508 33.3083L15.7818 40.3773C15.2104 40.9487 15.2104 41.8739 15.7818 42.4452Z" fill="#3F6C8E"/>
<path d="M15.7818 42.4451C15.8204 42.4836 15.8602 42.5196 15.9019 42.5525L22.2245 36.2299C22.8399 35.6228 22.7818 34.5907 22.1045 34.0547L15.7819 40.3773C15.2104 40.9486 15.2104 41.8738 15.7818 42.4451Z" fill="#22A8B9"/>
<path d="M15.9901 40.9342L21.0769 35.8474C21.592 35.3566 22.3347 36.0937 21.8419 36.6124L16.7551 41.6992C16.24 42.1899 15.4974 41.4528 15.9901 40.9342Z" fill="#4FCAE8"/>
<path d="M13.8717 48.0451V43.5896C13.9412 41.9128 16.3395 41.9129 16.4065 43.5933V48.0451C16.4065 48.6252 16.0169 49.1141 15.4851 49.2642C14.694 49.5002 13.8586 48.8735 13.8717 48.0451Z" fill="#3F5D77"/>
<path d="M13.8717 48.0449V43.5894C14.6618 43.353 15.4982 43.9808 15.4849 44.8085V49.2639C14.6939 49.5004 13.8586 48.873 13.8717 48.0449Z" fill="#3F6C8E"/>
<path d="M14.9788 45.0933C15.2583 45.0933 15.4849 45.3199 15.4849 45.5994V47.5651C15.4645 48.2335 14.4934 48.2344 14.4727 47.5651V45.5994C14.4727 45.3199 14.6993 45.0933 14.9788 45.0933Z" fill="#22A8B9"/>
<path d="M19.7229 54.2925L16.7056 51.8998C15.6993 51.0999 15.0244 49.8472 15.5193 49.3523C16.0142 48.8574 17.2703 49.5341 18.0704 50.543L20.4596 53.5559C20.8881 54.113 20.2582 54.715 19.7229 54.2925Z" fill="#334353"/>
<path d="M19.7229 54.2925L16.7056 51.8998C16.9402 51.156 18.0407 51.5324 18.6471 52.1786L20.5363 54.1908C20.3718 54.4823 19.9781 54.5007 19.7229 54.2925Z" fill="#3E4E60"/>
<path d="M18.6312 52.5977C18.7479 52.481 18.9865 52.5397 19.1517 52.7158L20.0312 53.6526C20.2515 53.895 19.9657 54.174 19.7217 53.9621L18.7584 53.1091C18.5775 52.9487 18.5145 52.7144 18.6312 52.5977Z" fill="#3F5D77"/>
<path d="M48.9811 33.5417C48.9854 34.3393 48.3252 35.0083 47.519 35.0039H37.522C36.714 35.0039 36.0598 34.3496 36.0598 33.5417C36.0598 32.7338 36.7141 32.0796 37.522 32.0796H47.519C48.3269 32.0795 48.9811 32.7337 48.9811 33.5417Z" fill="#3F6C8E"/>
<path d="M48.9812 33.5417C48.9812 33.5962 48.9785 33.6499 48.9723 33.7026H40.0308C39.1663 33.7084 38.4777 32.9375 38.5775 32.0796H47.519C48.3269 32.0795 48.9812 32.7337 48.9812 33.5417Z" fill="#22A8B9"/>
<path d="M47.7655 32.6206H40.5717C40.273 32.6206 40.0308 32.8628 40.0308 33.1615C40.0308 33.4603 40.273 33.7025 40.5717 33.7025H47.7655C48.4783 33.6814 48.4822 32.6431 47.7655 32.6206Z" fill="#4FCAE8"/>
<path d="M53.9138 37.2221L50.7634 34.0716C49.5284 32.935 47.8329 34.6309 48.9736 35.8664L52.1214 39.0143C52.5316 39.4245 53.1528 39.4947 53.635 39.2248C54.3613 38.8325 54.5088 37.7985 53.9138 37.2221Z" fill="#3F5D77"/>
<path d="M53.9138 37.2222L50.7633 34.0718C50.0374 34.4633 49.89 35.4987 50.4846 36.0745L53.6351 39.225C54.3615 38.8329 54.5085 37.7986 53.9138 37.2222Z" fill="#3F6C8E"/>
<path d="M51.0438 35.9178C50.8461 36.1155 50.8461 36.4359 51.0438 36.6336L52.4337 38.0235C52.9171 38.4834 53.6097 37.792 53.1495 37.3078L51.7596 35.9178C51.5619 35.7201 51.2414 35.7201 51.0438 35.9178Z" fill="#22A8B9"/>
<path d="M54.2803 45.7347L54.722 41.9093C54.8679 40.6321 54.4593 39.269 53.7594 39.269C53.0596 39.269 52.6499 40.6358 52.7976 41.9149L53.2385 45.7347C53.3295 46.4318 54.2005 46.412 54.2803 45.7347Z" fill="#334353"/>
<path d="M54.2803 45.7348L54.722 41.9093C54.0301 41.5493 53.5181 42.5936 53.5463 43.4793L53.6332 46.238C53.9558 46.3279 54.2472 46.0626 54.2803 45.7348Z" fill="#3E4E60"/>
<path d="M53.8541 43.7642C53.6891 43.7642 53.5618 43.9744 53.5694 44.2158L53.6098 45.5001C53.6254 45.8271 54.0248 45.8224 54.0475 45.5001L54.1255 44.2158C54.1402 43.9744 54.0192 43.7642 53.8541 43.7642Z" fill="#3F5D77"/>
<path d="M11.7322 33.5417C11.728 34.3393 12.3881 35.0083 13.1943 35.0039H23.1914C23.9994 35.0039 24.6535 34.3496 24.6535 33.5417C24.6535 32.7338 23.9993 32.0796 23.1914 32.0796H13.1943C12.3863 32.0795 11.7322 32.7337 11.7322 33.5417Z" fill="#3F6C8E"/>
<path d="M11.7324 33.5417C11.7324 33.5962 11.7351 33.6499 11.7413 33.7026H20.6829C21.5473 33.7084 22.2359 32.9375 22.1361 32.0796H13.1946C12.3866 32.0795 11.7324 32.7337 11.7324 33.5417Z" fill="#22A8B9"/>
<path d="M12.9478 32.6206H20.1416C20.4403 32.6206 20.6825 32.8628 20.6825 33.1615C20.6825 33.4603 20.4403 33.7025 20.1416 33.7025H12.9478C12.2348 33.6814 12.231 32.6431 12.9478 32.6206Z" fill="#4FCAE8"/>
<path d="M6.79957 37.2221L9.95004 34.0716C11.185 32.935 12.8807 34.6309 11.7398 35.8664L8.59195 39.0143C8.1818 39.4245 7.56059 39.4947 7.07836 39.2248C6.35215 38.8325 6.20449 37.7985 6.79957 37.2221Z" fill="#3F5D77"/>
<path d="M6.79934 37.2222L9.94981 34.0718C10.6757 34.4633 10.8231 35.4987 10.2285 36.0745L7.07802 39.225C6.35157 38.8329 6.2045 37.7986 6.79934 37.2222Z" fill="#3F6C8E"/>
<path d="M9.66926 35.9178C9.86696 36.1155 9.86696 36.4359 9.66926 36.6336L8.2793 38.0235C7.7959 38.4834 7.10332 37.792 7.56352 37.3078L8.95348 35.9178C9.15117 35.7201 9.47168 35.7201 9.66926 35.9178Z" fill="#22A8B9"/>
<path d="M6.43277 45.7347L5.99109 41.9093C5.84519 40.6321 6.25382 39.269 6.95367 39.269C7.65351 39.269 8.0632 40.6358 7.91554 41.9149L7.47457 45.7347C7.38363 46.4318 6.51257 46.412 6.43277 45.7347Z" fill="#334353"/>
<path d="M6.43265 45.7348L5.99097 41.9093C6.68284 41.5493 7.19483 42.5936 7.16671 43.4793L7.07976 46.238C6.75714 46.3279 6.46593 46.0626 6.43265 45.7348Z" fill="#3E4E60"/>
<path d="M6.85903 43.7642C7.02403 43.7642 7.1513 43.9744 7.14368 44.2158L7.10325 45.5001C7.08767 45.8271 6.68829 45.8224 6.66556 45.5001L6.58763 44.2158C6.57298 43.9744 6.69392 43.7642 6.85903 43.7642Z" fill="#3F5D77"/>
<path d="M46.067 29.3768C46.0714 30.1744 45.411 30.8434 44.6049 30.839H40.0681C38.13 30.7634 38.1273 27.9913 40.0681 27.9146H44.6049C45.4128 27.9147 46.067 28.5688 46.067 29.3768Z" fill="#3F6C8E"/>
<path d="M46.067 29.3767C46.067 29.4312 46.0643 29.4849 46.0581 29.5376H42.5769C41.7124 29.5433 41.0238 28.7725 41.1237 27.9146H44.6048C45.4127 27.9146 46.067 28.5687 46.067 29.3767Z" fill="#22A8B9"/>
<path d="M44.8512 28.4556H43.1178C42.4032 28.4775 42.4025 29.5154 43.1178 29.5374H44.8512C45.5657 29.5156 45.5665 28.4777 44.8512 28.4556Z" fill="#4FCAE8"/>
<path d="M50.6536 25.1961L47.5032 28.3466C46.2682 29.4832 44.5725 27.7872 45.7133 26.5517L48.8612 23.4038C49.2714 22.9937 49.8926 22.9235 50.3748 23.1934C51.101 23.5857 51.2487 24.6196 50.6536 25.1961Z" fill="#3F5D77"/>
<path d="M50.6537 25.1961L47.5033 28.3466C46.7774 27.955 46.63 26.9197 47.2246 26.3438L50.3751 23.1934C51.1015 23.5855 51.2486 24.6198 50.6537 25.1961Z" fill="#3F6C8E"/>
<path d="M47.7835 26.5005C47.5858 26.3028 47.5858 25.9824 47.7835 25.7847L49.1735 24.3948C49.6569 23.9349 50.3495 24.6263 49.8893 25.1106L48.4993 26.5005C48.3017 26.6982 47.9812 26.6982 47.7835 26.5005Z" fill="#22A8B9"/>
<path d="M51.3377 16.8694L51.7794 20.6948C51.9253 21.9721 51.5167 23.3351 50.8168 23.3351C50.117 23.3351 49.7073 21.9683 49.8549 20.6892L50.2959 16.8694C50.387 16.1723 51.258 16.1922 51.3377 16.8694Z" fill="#334353"/>
<path d="M51.3377 16.8695L51.7794 20.695C51.0875 21.055 50.5755 20.0108 50.6036 19.125L50.6906 16.3663C51.0132 16.2765 51.3045 16.5418 51.3377 16.8695Z" fill="#3E4E60"/>
<path d="M50.9114 18.8398C50.7464 18.8398 50.6192 18.6296 50.6268 18.3882L50.6672 17.1039C50.6828 16.7768 51.0822 16.7815 51.1049 17.1039L51.1828 18.3882C51.1975 18.6296 51.0764 18.8398 50.9114 18.8398Z" fill="#3F5D77"/>
<path d="M13.991 29.3768C13.9867 30.1744 14.647 30.8434 15.4531 30.839H19.9899C21.928 30.7634 21.9307 27.9913 19.9899 27.9146H15.4531C14.6452 27.9147 13.991 28.5688 13.991 29.3768Z" fill="#3F6C8E"/>
<path d="M13.991 29.3767C13.991 29.4312 13.9937 29.4849 13.9999 29.5376H17.481C18.3455 29.5433 19.0341 28.7725 18.9343 27.9146H15.4531C14.6452 27.9146 13.991 28.5687 13.991 29.3767Z" fill="#22A8B9"/>
<path d="M15.2066 28.4556H16.94C17.6546 28.4775 17.6553 29.5154 16.94 29.5374H15.2066C14.4921 29.5156 14.4913 28.4777 15.2066 28.4556Z" fill="#4FCAE8"/>
<path d="M9.4048 25.1961L12.5553 28.3466C13.7902 29.4832 15.4859 27.7872 14.3451 26.5517L11.1972 23.4038C10.787 22.9937 10.1658 22.9235 9.68358 23.1934C8.95737 23.5857 8.80972 24.6196 9.4048 25.1961Z" fill="#3F5D77"/>
<path d="M9.40457 25.1961L12.555 28.3466C13.2809 27.955 13.4283 26.9197 12.8337 26.3438L9.68324 23.1934C8.9568 23.5855 8.80973 24.6198 9.40457 25.1961Z" fill="#3F6C8E"/>
<path d="M12.2745 26.5005C12.4722 26.3028 12.4722 25.9824 12.2745 25.7847L10.8845 24.3948C10.4011 23.9349 9.70855 24.6263 10.1687 25.1106L11.5587 26.5005C11.7564 26.6982 12.0769 26.6982 12.2745 26.5005Z" fill="#22A8B9"/>
<path d="M8.72037 16.8694L8.27869 20.6948C8.13279 21.9721 8.54142 23.3351 9.24127 23.3351C9.94111 23.3351 10.3508 21.9683 10.2031 20.6892L9.76216 16.8694C9.67111 16.1723 8.80005 16.1922 8.72037 16.8694Z" fill="#334353"/>
<path d="M8.72049 16.8695L8.27881 20.695C8.97068 21.055 9.48268 20.0108 9.45455 19.125L9.3676 16.3663C9.04498 16.2765 8.75365 16.5418 8.72049 16.8695Z" fill="#3E4E60"/>
<path d="M9.14663 18.8398C9.31163 18.8398 9.4389 18.6296 9.43128 18.3882L9.39085 17.1039C9.37526 16.7768 8.97589 16.7815 8.95315 17.1039L8.87522 18.3882C8.86058 18.6296 8.98163 18.8398 9.14663 18.8398Z" fill="#3F5D77"/>
<path d="M44.8284 21.3446L42.7028 23.4701C41.6139 24.6099 39.5966 24.201 39.0211 22.7453C38.6779 21.9257 38.8396 20.9442 39.5076 20.2763L40.7567 19.0258C41.0672 18.7166 41.5139 18.5876 41.9394 18.6855C42.0531 18.7095 44.1692 19.1984 44.2129 19.206C45.1886 19.4285 45.536 20.6369 44.8284 21.3446Z" fill="#3F6C8E"/>
<path d="M43.6172 20.132L41.4903 22.259C40.8223 22.9269 39.8409 23.0885 39.0211 22.7454C38.6779 21.9257 38.8396 20.9444 39.5076 20.2763L40.7567 19.0258C41.0672 18.7166 41.5139 18.5876 41.9394 18.6855L43.9873 19.1549C44.0101 19.498 43.8952 19.8541 43.6172 20.132Z" fill="#22A8B9"/>
<path d="M40.9009 21.6691C40.5134 21.2667 40.6086 20.7094 41.0229 20.3672C41.8296 19.6137 42.9567 20.7388 42.2026 21.5467C41.8638 21.9613 41.3005 22.0563 40.9009 21.6691Z" fill="#4FCAE8"/>
<path d="M45.7647 15.6898V18.8505C45.7647 19.8301 44.9697 20.6251 43.9901 20.6251C43.0106 20.6251 42.2156 19.8301 42.2156 18.8505V16.6632C42.2156 16.3203 42.3924 16.0004 42.683 15.8174L44.2346 14.8441C44.4391 14.7148 44.6636 14.6718 44.8743 14.6949C45.3509 14.7488 45.7647 15.1455 45.7647 15.6898Z" fill="#3F5D77"/>
<path d="M44.8743 14.6949V17.119C44.8941 18.465 43.3628 19.3435 42.2156 18.6567V16.6631C42.2156 16.3203 42.3924 16.0003 42.683 15.8174L44.2346 14.844C44.4391 14.7149 44.6636 14.6719 44.8743 14.6949Z" fill="#3F6C8E"/>
<path d="M43.5989 17.9581C43.2766 17.9581 43.0154 17.6968 43.0154 17.3746V16.8079C43.0392 16.0368 44.1587 16.0366 44.1823 16.8079V17.3746C44.1823 17.6968 43.921 17.9581 43.5989 17.9581Z" fill="#22A8B9"/>
<path d="M40.0709 15.9517L38.6293 14.51C36.3952 12.234 36.717 10.0138 36.7119 7.11914L42.8076 13.2149L40.0709 15.9517Z" fill="#3E4E60"/>
<path d="M40.0956 11.0953C36.9802 14.4551 41.5322 19.0017 44.8519 15.8852C46.1253 14.5726 46.0545 12.3885 44.7612 11.0953L40.9738 7.30791C39.6634 5.99752 37.886 5.26123 36.0328 5.26123C35.5973 5.26123 35.3792 5.78775 35.6871 6.09572L40.0955 10.5041C40.2589 10.6676 40.2589 10.9322 40.0956 11.0953Z" fill="#334353"/>
<path d="M39.6112 6.95604L43.5158 10.8607C44.0962 11.4771 43.2278 12.3494 42.6088 11.7678L38.7041 7.86307C38.1238 7.24666 38.9922 6.37444 39.6112 6.95604Z" fill="#3E4E60"/>
<path d="M40.3134 7.65865L42.0062 9.35154C42.2567 9.60197 42.2567 10.0081 42.0062 10.2586C41.7558 10.509 41.3496 10.509 41.0992 10.2586L39.4063 8.56568C38.8257 7.94834 39.6951 7.0774 40.3134 7.65865Z" fill="#3F5D77"/>
<path d="M38.7278 10.1394L38.8736 11.5916C38.909 11.9441 38.652 12.2584 38.2995 12.2938C37.947 12.3292 37.6327 12.0722 37.5973 11.7197L37.4515 10.2675C37.3927 9.42178 38.6171 9.29827 38.7278 10.1394Z" fill="#3F5D77"/>
<path d="M44.0836 15.3725C43.1296 16.3265 41.5772 16.3265 40.6232 15.3725C40.4254 15.1747 40.4254 14.8539 40.6232 14.6561C40.821 14.4583 41.1418 14.4583 41.3396 14.6561C41.8987 15.2152 42.8083 15.2152 43.3674 14.6561C43.8508 14.1959 44.5444 14.8879 44.0836 15.3725Z" fill="#3E4E60"/>
<path d="M15.2296 21.3446L17.3552 23.4701C18.4441 24.6099 20.4614 24.201 21.0369 22.7453C21.3801 21.9257 21.2184 20.9442 20.5504 20.2763L19.3013 19.0258C18.9908 18.7166 18.5441 18.5876 18.1186 18.6855C18.0049 18.7095 15.8888 19.1984 15.8452 19.206C14.8694 19.4285 14.5221 20.6369 15.2296 21.3446Z" fill="#3F6C8E"/>
<path d="M16.4408 20.132L18.5677 22.259C19.2357 22.9269 20.2171 23.0885 21.0368 22.7454C21.3801 21.9257 21.2184 20.9444 20.5504 20.2763L19.3013 19.0258C18.9907 18.7166 18.544 18.5876 18.1185 18.6855L16.0707 19.1549C16.0479 19.498 16.1629 19.8541 16.4408 20.132Z" fill="#22A8B9"/>
<path d="M19.1572 21.6691C19.5448 21.2667 19.4495 20.7094 19.0352 20.3672C18.2285 19.6137 17.1014 20.7388 17.8555 21.5467C18.1943 21.9613 18.7575 22.0563 19.1572 21.6691Z" fill="#4FCAE8"/>
<path d="M14.2932 15.6898V18.8505C14.2932 19.8301 15.0882 20.6251 16.0678 20.6251C17.0474 20.6251 17.8424 19.8301 17.8424 18.8505V16.6632C17.8424 16.3203 17.6655 16.0004 17.3749 15.8174L15.8233 14.8441C15.6188 14.7148 15.3943 14.6718 15.1836 14.6949C14.7069 14.7488 14.2932 15.1455 14.2932 15.6898Z" fill="#3F5D77"/>
<path d="M15.1835 14.6949V17.119C15.1637 18.465 16.695 19.3435 17.8423 18.6567V16.6631C17.8423 16.3203 17.6655 16.0003 17.3748 15.8174L15.8233 14.844C15.6188 14.7149 15.3942 14.6719 15.1835 14.6949Z" fill="#3F6C8E"/>
<path d="M16.459 17.9581C16.7812 17.9581 17.0424 17.6968 17.0424 17.3746V16.8079C17.0187 16.0368 15.8992 16.0366 15.8755 16.8079V17.3746C15.8755 17.6968 16.1367 17.9581 16.459 17.9581Z" fill="#22A8B9"/>
<path d="M19.9872 15.9517L21.4288 14.51C23.6629 12.234 23.3411 10.0138 23.3462 7.11914L17.2505 13.2149L19.9872 15.9517Z" fill="#3E4E60"/>
<path d="M19.9625 11.0953C23.0779 14.4551 18.5259 19.0017 15.2062 15.8852C13.9327 14.5726 14.0036 12.3885 15.2969 11.0953L19.0843 7.30791C20.3947 5.99752 22.1721 5.26123 24.0253 5.26123C24.4609 5.26123 24.679 5.78775 24.371 6.09572L19.9626 10.5041C19.7993 10.6676 19.7993 10.9322 19.9625 11.0953Z" fill="#334353"/>
<path d="M20.4472 6.95604L16.5425 10.8607C15.9622 11.4771 16.8305 12.3494 17.4495 11.7678L21.3542 7.86307C21.9345 7.24666 21.0662 6.37444 20.4472 6.95604Z" fill="#3E4E60"/>
<path d="M19.7447 7.65865L18.0518 9.35154C17.8014 9.60197 17.8014 10.0081 18.0518 10.2586C18.3023 10.509 18.7084 10.509 18.9589 10.2586L20.6518 8.56568C21.2324 7.94834 20.3629 7.0774 19.7447 7.65865Z" fill="#3F5D77"/>
<path d="M21.3302 10.1394L21.1844 11.5916C21.149 11.9441 21.406 12.2584 21.7585 12.2938C22.111 12.3292 22.4253 12.0722 22.4607 11.7197L22.6065 10.2675C22.6652 9.42178 21.4408 9.29827 21.3302 10.1394Z" fill="#3F5D77"/>
<path d="M15.9746 15.3725C16.9286 16.3265 18.481 16.3265 19.435 15.3725C19.6328 15.1747 19.6328 14.8539 19.435 14.6561C19.2372 14.4583 18.9165 14.4583 18.7186 14.6561C18.1595 15.2152 17.2499 15.2152 16.6908 14.6561C16.2074 14.1959 15.5138 14.8879 15.9746 15.3725Z" fill="#3E4E60"/>
<path d="M35.3402 18.3798L35.0184 18.058C34.5146 17.5542 33.6748 17.6419 33.2859 18.2387L31.937 20.3088C31.7221 20.6386 31.7676 21.0738 32.0459 21.3521C32.3242 21.6305 32.7595 21.6759 33.0892 21.461L35.1594 20.1122C35.7563 19.7233 35.844 18.8836 35.3402 18.3798Z" fill="#3F6C8E"/>
<path d="M34.1689 17.8255L34.575 17.4194C34.9603 17.0293 35.6008 17.035 35.9799 17.4189C36.368 17.8069 36.3675 18.4359 35.9795 18.8239L35.5734 19.2299C34.6135 20.1248 33.2717 18.7951 34.1689 17.8255Z" fill="#334353"/>
<path d="M34.1689 17.825L34.5743 17.4196C34.8574 17.1386 35.2647 17.0567 35.6257 17.1911C35.7561 17.5439 35.6803 17.9574 35.3962 18.2416L34.9909 18.6469C34.7191 18.9221 34.2948 19.0104 33.9414 18.8754C33.8053 18.5209 33.8936 18.0971 34.1689 17.825Z" fill="#3E4E60"/>
<path d="M25.0392 18.058L24.7174 18.3798C24.2136 18.8836 24.3013 19.7234 24.8981 20.1123L26.9682 21.4611C27.298 21.6761 27.7332 21.6306 28.0116 21.3523C28.2899 21.074 28.3353 20.6387 28.1204 20.309L26.7716 18.2388C26.3828 17.6418 25.543 17.5542 25.0392 18.058Z" fill="#3F5D77"/>
<path d="M25.4782 17.4144L25.8843 17.8204C26.2744 18.2057 26.2686 18.8463 25.8847 19.2254C25.4967 19.6134 24.8678 19.6129 24.4798 19.2249L24.0737 18.8188C23.1789 17.8588 24.5086 16.517 25.4782 17.4144Z" fill="#334353"/>
<path d="M25.4789 17.414L25.8842 17.8194C26.1653 18.1025 26.2472 18.5098 26.1128 18.8708C25.7599 19.0012 25.3465 18.9254 25.0623 18.6413L24.6569 18.236C24.3818 17.9642 24.2934 17.5399 24.4285 17.1866C24.7829 17.0504 25.2068 17.1388 25.4789 17.414Z" fill="#3E4E60"/>
<path d="M43.0876 28.8477C43.0876 29.9601 42.7333 31.0436 42.0771 31.941L37.4207 38.309C36.2822 39.8665 34.4686 40.7873 32.5391 40.7873H27.519C25.5895 40.7873 23.7759 39.8665 22.6373 38.309L17.981 31.941C17.6529 31.4922 17.4004 30.9968 17.2293 30.4752C15.8841 25.3542 20.2866 20.2545 25.4866 20.3314H34.5713C39.2744 20.3313 43.0878 24.1446 43.0876 28.8477Z" fill="#3E4E60"/>
<path d="M43.0876 28.8478C43.0876 29.9603 42.7333 31.0438 42.0771 31.9411L37.4208 38.3092C36.2822 39.8666 34.4686 40.7874 32.5391 40.7874H30.0291V20.3315H34.5714C39.2744 20.3314 43.0878 24.1447 43.0876 28.8478Z" fill="#3F5D77"/>
<path d="M38.3276 28.2794C38.3276 28.9871 38.1033 29.6751 37.6864 30.2453L34.7267 34.2931C34.0032 35.2822 32.8505 35.8673 31.625 35.8673H28.4334C27.2078 35.8673 26.0552 35.2822 25.3317 34.2931L22.372 30.2453C21.9543 29.6738 21.7308 28.9871 21.7307 28.2794C21.7307 25.2908 24.1538 22.8677 27.1424 22.8677H32.9159C35.9041 22.868 38.3276 25.2905 38.3276 28.2794Z" fill="#3F5D77"/>
<path d="M38.3275 28.2794C38.3275 28.9871 38.1032 29.6751 37.6862 30.2453L34.7265 34.2931C34.003 35.2822 32.8503 35.8673 31.6248 35.8673H30.0291V22.8677H32.9157C35.9039 22.868 38.3275 25.2905 38.3275 28.2794Z" fill="#3F6C8E"/>
<path d="M34.6577 28.9963H30.0291V25.77H34.6577C36.7982 25.8565 36.7975 28.9101 34.6577 28.9963Z" fill="#22A8B9"/>
<path d="M25.4003 25.77H30.0289V28.9963H25.4003C23.2597 28.9098 23.2605 25.8563 25.4003 25.77Z" fill="#3F6C8E"/>
</g>
<defs>
<clipPath id="clip0_1123_26216">
<rect width="60" height="60" fill="white"/>
</clipPath>
</defs>
</svg>
