<svg width="60" height="60" viewBox="0 0 60 60" fill="none" xmlns="http://www.w3.org/2000/svg">
<g clip-path="url(#clip0_1123_23172)">
<path d="M30 60C46.5685 60 60 46.5685 60 30C60 13.4315 46.5685 0 30 0C13.4315 0 0 13.4315 0 30C0 46.5685 13.4315 60 30 60Z" fill="#6C53A2"/>
<path d="M23.0038 15.9341V34.4778H20.1667C17.9225 32.2325 16.5374 30.5567 16.0347 28.8399C15.144 25.7989 17.019 22.6267 21.785 15.9341H23.0038Z" fill="#2E3140"/>
<path d="M22.5304 16.063C22.5304 22.0466 19.8022 27.1149 16.0347 28.8399C15.144 25.7989 17.019 22.6267 21.785 15.9341H22.5292C22.5304 15.9763 22.5304 16.0196 22.5304 16.063Z" fill="#3E4E60"/>
<path d="M37.0496 15.9341V34.4778H39.8867C42.1308 32.2325 43.516 30.5567 44.0187 28.8399C44.9093 25.7989 43.0343 22.6267 38.2683 15.9341H37.0496Z" fill="#2E3140"/>
<path d="M37.5229 16.063C37.5229 22.0466 40.2511 27.1149 44.0187 28.8399C44.9093 25.7989 43.0343 22.6267 38.2683 15.9341H37.5241C37.523 15.9763 37.5229 16.0196 37.5229 16.063Z" fill="#3E4E60"/>
<path d="M39.9329 32.6288V37.6129C39.9329 39.884 39.0039 42.0884 37.2993 43.8612L32.9063 48.4302H27.1403L22.7473 43.8612C21.0427 42.0884 20.1138 39.884 20.1138 37.6129V32.6288C20.1138 28.0949 24.5096 24.4158 29.9467 24.383C29.9721 24.3818 29.9974 24.3818 30.0227 24.3818C32.7602 24.3818 35.2365 25.3046 37.031 26.7967C38.824 28.2902 39.9329 30.3507 39.9329 32.6288Z" fill="#A26D5A"/>
<path d="M39.9329 32.6288V37.6129C39.9329 39.884 39.004 42.0884 37.2994 43.8612L32.9063 48.4302H29.9468V24.383C29.9721 24.3818 29.9974 24.3818 30.0227 24.3818C32.7602 24.3818 35.2365 25.3046 37.031 26.7967C38.8241 28.2902 39.9329 30.3507 39.9329 32.6288Z" fill="#C17E62"/>
<path d="M38.8521 27.1442L38.356 27.8436C36.9901 29.7744 36.0752 31.9016 35.662 34.1154L33.859 43.7633C33.5905 45.1993 33.8477 46.6705 34.5982 47.9838L35.329 49.262C35.8714 50.2115 36.1048 51.2629 36.0063 52.3119L35.7 55.5419C35.596 56.6517 34.483 57.5077 33.1452 57.5077H26.8956C25.5592 57.5077 24.4461 56.6517 24.3407 55.5431L24.0287 52.2686C23.9303 51.2477 24.1495 50.2221 24.6624 49.2913L25.4958 47.778C26.2069 46.4881 26.4458 45.052 26.183 43.6487L24.3687 33.9411C23.9555 31.732 23.0434 29.6071 21.6817 27.6799L21.1926 26.9887C20.1879 25.569 19.9855 23.8535 20.6389 22.298L23.4889 15.513C24.1114 14.0336 25.7894 13.042 27.6725 13.042H32.3536C34.2452 13.042 35.9273 14.0418 36.5428 15.5294L39.4167 22.4759C40.0577 24.0254 39.8512 25.7315 38.8521 27.1442Z" fill="#C17E62"/>
<path d="M38.852 27.1441L38.356 27.8435C36.99 29.7743 36.0751 31.9014 35.6619 34.1152L33.8589 43.7632C33.5904 45.1992 33.8476 46.6704 34.5981 47.9837L35.3289 49.2618C35.8713 50.2114 36.1047 51.2628 36.0062 52.3118L35.6999 55.5418C35.596 56.6516 34.4829 57.5076 33.1451 57.5076H30.0239V13.042H32.354C34.2456 13.042 35.9277 14.0418 36.5432 15.5294L39.4171 22.4759C40.0576 24.0253 39.8512 25.7314 38.852 27.1441Z" fill="#D48D77"/>
<path d="M31.3222 31.6782H30.0239V44.3265C31.137 44.3265 32.0745 43.6345 32.2072 42.7149L33.5056 33.7265C33.6629 32.6372 32.6408 31.6782 31.3222 31.6782Z" fill="#EEA47D"/>
<path d="M28.7245 31.6782H30.0228V44.3265C28.9098 44.3265 27.9723 43.6345 27.8395 42.7149L26.5412 33.7265C26.3838 32.6372 27.4059 31.6782 28.7245 31.6782Z" fill="#D48D77"/>
<path d="M30.0237 15.3169H31.2477C32.6115 15.3169 33.8286 16.1732 34.2893 17.4569L35.7545 21.5399C36.2114 22.8133 35.5437 24.2105 34.2694 24.6644C33.16 25.0595 31.6976 25.4145 30.0238 25.4145V15.3169H30.0237Z" fill="#EEA47D"/>
<path d="M30.0238 15.3169H28.7999C27.436 15.3169 26.2189 16.1732 25.7583 17.4569L24.2931 21.5399C23.8362 22.8133 24.5039 24.2105 25.7782 24.6644C26.8876 25.0595 28.35 25.4145 30.0238 25.4145V15.3169Z" fill="#D48D77"/>
<path d="M39.3874 14.6481C39.2667 14.7852 39.1366 14.8989 38.9983 14.9868C37.4104 15.9946 38.2026 19.4879 38.2272 19.5993L32.3538 13.0415C32.3538 8.45356 34.6225 8.24849 35.4721 6.01372C35.669 5.49927 35.7897 4.87583 35.7897 4.06489C35.7897 -0.256984 38.3502 2.66333 39.7834 5.29184C41.1112 7.72466 40.8932 12.95 39.3874 14.6481Z" fill="#D48D77"/>
<path d="M39.3874 14.6481C37.094 12.7579 35.5647 9.60552 35.4722 6.01372C35.669 5.49927 35.7897 4.87583 35.7897 4.06489C35.7897 -0.256984 38.3503 2.66333 39.7835 5.29184C41.1112 7.72466 40.8933 12.95 39.3874 14.6481Z" fill="#EEA47D"/>
<path d="M37.3998 14.7683C36.9421 15.0786 36.3172 14.8024 36.2309 14.2563C35.655 10.6095 35.9152 8.89802 36.5071 7.2138C37.1451 5.39856 35.8692 2.88267 36.5071 2.65978C37.1451 2.43689 40.7437 6.95903 39.5654 11.099C38.9357 13.3112 38.0697 14.314 37.3998 14.7683Z" fill="#C17E62"/>
<path d="M20.6127 14.6481C20.7334 14.7852 20.8635 14.8989 21.0017 14.9868C22.5896 15.9946 21.7974 19.4879 21.7728 19.5993L27.6463 13.0415C27.6463 8.45356 25.3775 8.24849 24.5279 6.01372C24.331 5.49927 24.2103 4.87583 24.2103 4.06489C24.2103 -0.256984 21.6498 2.66333 20.2166 5.29184C18.8889 7.72466 19.1068 12.95 20.6127 14.6481Z" fill="#C17E62"/>
<path d="M20.6127 14.6481C22.906 12.7579 24.4353 9.60552 24.5279 6.01372C24.331 5.49927 24.2103 4.87583 24.2103 4.06489C24.2103 -0.256984 21.6498 2.66333 20.2166 5.29184C18.8889 7.72466 19.1068 12.95 20.6127 14.6481Z" fill="#D48D77"/>
<path d="M22.6001 14.7683C23.0577 15.0786 23.6827 14.8024 23.7689 14.2563C24.3449 10.6095 24.0846 8.89802 23.4927 7.2138C22.8547 5.39856 24.1307 2.88267 23.4927 2.65978C22.8547 2.43689 19.2562 6.95903 20.4345 11.099C21.0641 13.3112 21.9301 14.314 22.6001 14.7683Z" fill="#A26D5A"/>
<path d="M39.0185 26.6251C39.8859 27.1259 40.1876 28.2289 39.6992 29.1002C39.6962 29.1082 39.6919 29.1155 39.6877 29.1228L39.0516 30.2245C38.7994 30.6612 38.3936 30.9556 37.9414 31.0768C37.4885 31.1991 36.991 31.1479 36.5531 30.895C35.7393 30.4252 35.4227 29.4242 35.7893 28.5834C35.8164 28.5194 35.848 28.4562 35.8832 28.3953L36.5193 27.2936C36.7722 26.8557 37.1785 26.5632 37.6307 26.442C38.0831 26.3209 38.5805 26.3722 39.0185 26.6251Z" fill="#3E4E60"/>
<path d="M39.0185 26.6251C39.886 27.1259 40.1877 28.2289 39.6993 29.1002C38.7215 29.619 37.4487 29.6145 36.3519 28.9814C36.1481 28.8637 35.9599 28.7306 35.7896 28.5834C35.8167 28.5194 35.8483 28.4562 35.8835 28.3953L36.5196 27.2936C36.7725 26.8557 37.1788 26.5632 37.631 26.442C38.0831 26.3209 38.5806 26.3722 39.0185 26.6251Z" fill="#2E3140"/>
<path d="M37.4298 27.3678L37.0471 28.0306C36.8823 28.3161 36.9801 28.681 37.2655 28.8458C37.551 29.0105 37.9159 28.9128 38.0807 28.6273L38.4634 27.9645C38.6282 27.679 38.5304 27.3141 38.245 27.1494C37.9596 26.9846 37.5947 27.0824 37.4298 27.3678Z" fill="white"/>
<path d="M20.8745 26.6251C20.0071 27.1259 19.7053 28.2289 20.1937 29.1002C20.1968 29.1082 20.201 29.1155 20.2052 29.1228L20.8413 30.2245C21.0935 30.6612 21.4993 30.9556 21.9516 31.0768C22.4045 31.1991 22.902 31.1479 23.3399 30.895C24.1536 30.4252 24.4703 29.4242 24.1037 28.5834C24.0765 28.5194 24.045 28.4562 24.0097 28.3953L23.3736 27.2936C23.1207 26.8557 22.7145 26.5632 22.2622 26.442C21.8099 26.3209 21.3125 26.3722 20.8745 26.6251Z" fill="#3E4E60"/>
<path d="M20.8745 26.6251C20.0071 27.1259 19.7053 28.2289 20.1937 29.1002C21.1716 29.619 22.4443 29.6145 23.5411 28.9814C23.7449 28.8637 23.9331 28.7306 24.1036 28.5834C24.0764 28.5194 24.0449 28.4562 24.0096 28.3953L23.3735 27.2936C23.1206 26.8557 22.7143 26.5632 22.2621 26.442C21.8099 26.3209 21.3125 26.3722 20.8745 26.6251Z" fill="#2E3140"/>
<path d="M22.463 27.3678L22.8457 28.0306C23.0105 28.3161 22.9128 28.681 22.6273 28.8458C22.3418 29.0105 21.9769 28.9128 21.8121 28.6273L21.4294 27.9645C21.2646 27.679 21.3624 27.3141 21.6478 27.1494C21.9333 26.9846 22.2982 27.0824 22.463 27.3678Z" fill="white"/>
<path d="M28.7086 53.8868C28.7086 54.5405 28.1085 55.0983 27.3117 55.1556C26.47 55.2164 25.728 54.6983 25.6548 53.9979L25.534 52.8448L25.3879 51.4614C25.3133 50.7608 25.9374 50.1434 26.7791 50.0815C27.6209 50.0207 28.3629 50.5388 28.436 51.2392L28.533 52.1596L28.703 53.7757C28.7072 53.8131 28.7086 53.8506 28.7086 53.8868Z" fill="#2E3140"/>
<path d="M28.7085 53.887C28.7085 54.5407 28.1084 55.0985 27.3117 55.1558C26.4699 55.2166 25.7279 54.6985 25.6548 53.9981L25.5339 52.845C26.4755 52.5082 27.4817 52.2743 28.5329 52.1597L28.7029 53.7758C28.7071 53.8133 28.7085 53.8508 28.7085 53.887Z" fill="#3E4E60"/>
<path d="M34.6164 51.4614L34.4731 52.8297L34.3495 53.9979C34.2792 54.661 33.6103 55.1603 32.8248 55.1603C32.7812 55.1603 32.7363 55.1591 32.6913 55.1556C31.8495 55.0948 31.2269 54.4762 31.3 53.7757L31.4701 52.1549L31.567 51.2392C31.6415 50.5387 32.3834 50.0207 33.2253 50.0815C34.0671 50.1435 34.6896 50.761 34.6164 51.4614Z" fill="#2E3140"/>
<path d="M34.4731 52.8296L34.3495 53.9978C34.2792 54.6608 33.6103 55.1602 32.8248 55.1602C32.7812 55.1602 32.7363 55.159 32.6913 55.1555C31.8495 55.0947 31.2269 54.476 31.3 53.7756L31.4701 52.1548C32.5225 52.2659 33.5302 52.4963 34.4731 52.8296Z" fill="#3E4E60"/>
<path d="M34.5901 18.9517H25.4096C24.1885 18.9517 23.3998 17.6579 23.9612 16.5716L24.226 16.0595L24.9725 14.6146L26.2346 12.1688C26.9623 10.7603 28.4143 9.87549 29.9998 9.87549C31.5854 9.87549 33.0373 10.7603 33.7651 12.1688L35.0166 14.5923L35.7737 16.0595L36.0385 16.5716C36.5998 17.6579 35.8112 18.9517 34.5901 18.9517Z" fill="#2E3140"/>
<path d="M34.5901 18.9519H25.4096C24.1885 18.9519 23.3998 17.6581 23.9612 16.5718L24.226 16.0597L24.9725 14.6147C26.4959 14.0323 28.2104 13.7065 30.0221 13.7065C31.8116 13.7065 33.5061 14.0253 35.0166 14.5925L35.7737 16.0597L36.0385 16.5718C36.5998 17.6581 35.8112 18.9519 34.5901 18.9519Z" fill="#3E4E60"/>
</g>
<defs>
<clipPath id="clip0_1123_23172">
<rect width="60" height="60" fill="white"/>
</clipPath>
</defs>
</svg>
