<svg width="60" height="60" viewBox="0 0 60 60" fill="none" xmlns="http://www.w3.org/2000/svg">
<g clip-path="url(#clip0_1123_23396)">
<path d="M30 60C46.5685 60 60 46.5685 60 30C60 13.4315 46.5685 0 30 0C13.4315 0 0 13.4315 0 30C0 46.5685 13.4315 60 30 60Z" fill="#EE6781"/>
<path d="M56.669 36.8839L53.8738 39.6792C52.3138 41.2403 50.1898 41.895 48.1577 41.6434C46.6884 41.4619 45.2665 40.8073 44.1386 39.6792L35.5509 31.0915C32.8629 28.4035 32.8629 24.0452 35.5509 21.3561L38.346 18.561C38.4357 18.4713 38.5274 18.3837 38.6213 18.3001C41.3237 15.8761 45.483 15.9627 48.0812 18.561L56.669 27.1487C59.358 29.8366 59.358 34.196 56.669 36.8839Z" fill="#2E3140"/>
<path d="M56.0514 30.1251C55.5619 30.6146 54.7682 30.6146 54.2787 30.1251L44.1152 19.9616C43.6257 19.4721 43.6257 18.6784 44.1152 18.1889C44.6047 17.6994 45.3984 17.6994 45.8879 18.1889L56.0514 28.3525C56.5409 28.8419 56.5409 29.6357 56.0514 30.1251Z" fill="#3E4E60"/>
<path d="M36.7686 35.9851H32.6772L33.5347 26.5799H33.5444C33.4479 24.7016 34.1163 22.7912 35.5507 21.3562L38.3458 18.5611L38.3489 18.558C38.5155 18.3906 38.7538 18.3138 38.9863 18.3553C40.3248 18.5943 41.6058 19.23 42.6402 20.2644L46.717 24.3412L51.2279 28.8521C53.9162 31.5404 53.9162 35.8991 51.2279 38.5874L48.4326 41.3827L48.4296 41.3857C48.2614 41.553 48.0221 41.6296 47.7886 41.5877C46.4513 41.3482 45.1718 40.7128 44.1383 39.6793L43.0433 38.5843C41.3792 36.92 39.1221 35.9851 36.7686 35.9851Z" fill="#F4E6F4"/>
<path d="M46.7893 37.4985C45.2057 37.1069 44.2394 35.5056 44.631 33.9221L45.254 31.403C45.6456 29.8195 47.2469 28.8532 48.8304 29.2448C50.414 29.6364 51.3803 31.2377 50.9887 32.8212L50.3657 35.3403C49.9741 36.9239 48.3728 37.8902 46.7893 37.4985Z" fill="white"/>
<path d="M46.716 24.3458C45.9376 27.8279 43.6891 30.7543 40.6554 32.4396C39.2235 33.2351 37.4358 32.9769 36.2775 31.8185L35.5506 31.0916C32.8627 28.4037 32.8627 24.0453 35.5506 21.3562L37.5354 19.3714L38.3459 18.561C38.5145 18.3916 38.7557 18.3138 38.9909 18.356C40.3278 18.5957 41.607 19.231 42.6402 20.2643L46.7138 24.3378C46.7158 24.34 46.7167 24.3429 46.716 24.3458Z" fill="#F9C744"/>
<path d="M39.7326 24.972C39.7326 27.6001 38.4272 29.9984 36.2775 31.8182L35.5506 31.0913C32.8627 28.4033 32.8627 24.045 35.5506 21.3559L37.5354 19.3711C38.9251 20.9838 39.7326 22.9068 39.7326 24.972Z" fill="#F39E22"/>
<path d="M39.6732 29.6554C41.7255 29.6554 43.3893 27.9916 43.3893 25.9393C43.3893 23.8869 41.7255 22.2231 39.6732 22.2231C37.6208 22.2231 35.957 23.8869 35.957 25.9393C35.957 27.9916 37.6208 29.6554 39.6732 29.6554Z" fill="#57409B"/>
<path d="M41.4535 26.1459C41.4535 26.5881 41.338 27.0037 41.1359 27.3646C40.7091 28.1296 39.8904 28.6472 38.9511 28.6472C37.5694 28.6472 36.4497 27.5275 36.4497 26.1459C36.4497 25.123 37.0632 24.2436 37.9416 23.8559C38.2499 23.7198 38.5922 23.6436 38.9511 23.6436C40.3327 23.6434 41.4535 24.7642 41.4535 26.1459Z" fill="#22A8B9"/>
<path d="M41.4534 26.1459C41.4534 26.5881 41.3378 27.0037 41.1358 27.3646C40.8264 27.5028 40.4852 27.578 40.1254 27.578C38.7438 27.578 37.624 26.4583 37.624 25.0766C37.624 24.6333 37.7395 24.2167 37.9416 23.8559C38.2499 23.7198 38.5922 23.6436 38.9511 23.6436C40.3326 23.6434 41.4534 24.7642 41.4534 26.1459Z" fill="#4FCAE8"/>
<path d="M40.5967 26.1458C40.5967 26.4365 40.5204 26.7098 40.3874 26.9469C40.107 27.4501 39.5687 27.7903 38.9511 27.7903C38.7655 27.7903 38.5871 27.7593 38.4212 27.7026C37.7727 27.483 37.3066 26.8685 37.3066 26.1457C37.3066 25.4734 37.7098 24.8949 38.2871 24.6392C38.3314 24.6196 38.3768 24.6021 38.4232 24.5877C38.5893 24.5309 38.7666 24.5 38.9511 24.5C39.8595 24.5002 40.5967 25.2373 40.5967 26.1458Z" fill="#3E4E60"/>
<path d="M39.5388 26.1455C39.5388 26.4363 39.4625 26.7096 39.3295 26.9466C39.1327 27.2992 38.8099 27.5725 38.4212 27.7024C37.7727 27.4828 37.3066 26.8682 37.3066 26.1454C37.3066 25.4731 37.7098 24.8947 38.2871 24.639C38.3314 24.6194 38.3768 24.6018 38.4232 24.5874C39.0718 24.8082 39.5388 25.4227 39.5388 26.1455Z" fill="#2E3140"/>
<path d="M38.0224 26.64C38.6414 26.64 39.1432 26.1382 39.1432 25.5192C39.1432 24.9002 38.6414 24.3984 38.0224 24.3984C37.4034 24.3984 36.9016 24.9002 36.9016 25.5192C36.9016 26.1382 37.4034 26.64 38.0224 26.64Z" fill="white"/>
<path d="M34.5803 29.4512V31.8178L34.1683 32.7199L32.6774 35.985C23.1084 35.985 16.2844 35.225 11.7017 34.4012C6.29882 33.4317 4.0105 32.3742 4.0105 32.3742C4.0105 32.3742 18.7691 29.4512 34.5803 29.4512Z" fill="#DD5E26"/>
<path d="M34.1683 32.7197L32.6773 35.9848C23.1083 35.9848 16.2843 35.2248 11.7017 34.401C17.3899 33.6182 25.6075 32.7462 34.1683 32.7197Z" fill="#BF5E39"/>
<path d="M34.5801 20.7109V30.4388C29.2378 30.4442 23.4511 30.7736 18.0463 31.1579C13.7177 31.4546 5.6605 32.1846 2.6987 32.5091C2.21928 32.5585 1.87253 32.0683 2.07362 31.6312C6.36925 21.5975 20.0899 20.9556 34.5801 20.7109Z" fill="#EA792E"/>
<path d="M34.5802 20.7109V27.47C24.8882 27.4909 12.4472 28.5586 3.22266 29.4849C8.45566 21.5938 20.7341 20.9444 34.5802 20.7109Z" fill="#F39E22"/>
<path d="M34.5805 30.4387C33.8201 30.4387 33.2039 29.8223 33.2039 29.0621V22.088C33.2039 21.3277 33.8203 20.7114 34.5805 20.7114C35.3408 20.7114 35.9571 21.3278 35.9571 22.088V29.062C35.9572 29.8223 35.3408 30.4387 34.5805 30.4387Z" fill="#2E3140"/>
<path d="M31.9418 35.7615C31.3051 35.346 31.1258 34.4929 31.5413 33.8563L33.4276 30.9662C33.8431 30.3295 34.6962 30.1502 35.3328 30.5658C35.9695 30.9813 36.1488 31.8343 35.7333 32.471L33.847 35.3611C33.4315 35.9979 32.5785 36.1771 31.9418 35.7615Z" fill="#2E3140"/>
<path d="M28.3714 24.4382V30.5697C27.4621 30.6046 26.5419 30.6457 25.6169 30.6914V24.4381C25.6169 23.6782 26.2336 23.0615 26.9935 23.0615C27.7542 23.0618 28.3713 23.6775 28.3714 24.4382Z" fill="#DD5E26"/>
<path d="M23.2083 26.5049V30.8215C22.2881 30.8745 21.368 30.9311 20.4551 30.9913V26.5049C20.5295 24.6783 23.1342 24.679 23.2083 26.5049Z" fill="#DD5E26"/>
<path d="M18.0462 28.9141V31.1579C17.1116 31.2253 16.1914 31.2953 15.293 31.3651V28.9141C15.3675 27.0874 17.9722 27.0883 18.0462 28.9141Z" fill="#DD5E26"/>
<path d="M12.2266 27.4432C12.2266 28.9511 11.9183 30.3856 11.3607 31.6887C7.42358 32.0271 4.25846 32.3462 2.6987 32.5089C2.21928 32.5582 1.87253 32.068 2.07362 31.6309C3.49475 28.5248 5.6326 25.521 11.4667 23.4531C11.9569 24.6876 12.2266 26.0341 12.2266 27.4432Z" fill="#2E3140"/>
<path d="M5.77872 29.839C5.32497 29.2222 5.45728 28.3541 6.07415 27.9004L8.88736 25.8312C9.50423 25.3775 10.3722 25.5098 10.826 26.1266C11.2797 26.7435 11.1474 27.6115 10.5306 28.0653L7.71724 30.1343C7.10036 30.5881 6.23247 30.4559 5.77872 29.839Z" fill="#3E4E60"/>
<path d="M31.6679 23.5652C31.6679 24.4961 30.9572 25.2923 30.0118 25.3814L28.3714 25.5356C26.0252 25.7571 22.8179 26.06 20.4729 26.28L17.3836 26.5714C16.3181 26.6785 15.3786 25.8188 15.3843 24.7491C15.3843 23.8169 16.0949 23.0209 17.0403 22.9317L29.6683 21.7418C30.7345 21.6358 31.6747 22.4943 31.6679 23.5652Z" fill="#F9C744"/>
<path d="M28.3714 24.4385V25.5358L25.6169 25.7959V24.4385C25.6912 22.6115 28.2976 22.6131 28.3714 24.4385Z" fill="#EA792E"/>
<path d="M23.1252 26.0309L20.4731 26.2803C20.5815 25.6275 21.1488 25.1289 21.8317 25.1289C22.2123 25.1289 22.5567 25.2831 22.8048 25.5324C22.9446 25.6721 23.0542 25.8419 23.1252 26.0309Z" fill="#EA792E"/>
</g>
<defs>
<clipPath id="clip0_1123_23396">
<rect width="60" height="60" fill="white"/>
</clipPath>
</defs>
</svg>
