<svg width="60" height="60" viewBox="0 0 60 60" fill="none" xmlns="http://www.w3.org/2000/svg">
<g clip-path="url(#clip0_1123_24949)">
<path d="M30 60C46.5685 60 60 46.5685 60 30C60 13.4315 46.5685 0 30 0C13.4315 0 0 13.4315 0 30C0 46.5685 13.4315 60 30 60Z" fill="#22BCE0"/>
<path d="M34.8282 34.3413L40.4345 39.9476C40.7447 40.2558 40.7369 40.761 40.435 41.0587C40.128 41.3658 39.6303 41.3658 39.3233 41.0587L33.717 35.4525L34.8282 34.3413Z" fill="#3E4E60"/>
<path d="M34.1509 35.0187L39.7571 40.6249C39.9869 40.8547 40.3246 40.9124 40.6079 40.7983C40.7219 40.5149 40.6644 40.1774 40.4345 39.9476L34.8282 34.3413L34.1509 35.0187Z" fill="#3F5D77"/>
<path d="M39.7639 40.1904C39.642 40.3123 39.4444 40.3123 39.3227 40.1904L37.4374 38.3051C37.3155 38.1832 37.3155 37.9856 37.4374 37.8639C37.5592 37.742 37.7568 37.742 37.8786 37.8639L39.7639 39.7492C39.8856 39.8709 39.8856 40.0685 39.7639 40.1904Z" fill="#3F6C8E"/>
<path d="M39.9946 47.35C39.7741 47.1296 39.6537 46.812 39.7016 46.4751L40.4427 41.2246C40.4627 41.0848 40.5819 40.9803 40.7237 40.981C40.8655 40.9803 40.9847 41.0848 41.0047 41.2247C41.0597 41.6192 41.6733 45.9545 41.7458 46.4751C41.8859 47.4605 40.6712 48.0386 39.9946 47.35Z" fill="#B26E2B"/>
<path d="M40.7793 47.3513C40.5577 47.1312 40.4362 46.8127 40.4843 46.4743L40.8646 43.7768C40.9053 43.4871 41.3247 43.4871 41.3654 43.7768C41.4592 44.4463 41.653 45.8117 41.7462 46.475C41.8534 47.005 41.3239 47.8202 40.7793 47.3513Z" fill="#C68132"/>
<path d="M41.1744 46.863C40.6591 46.3747 40.8955 45.4491 41.5752 45.2622L41.7463 46.4747C41.779 46.7071 41.7323 46.9296 41.6278 47.118C41.4621 47.0774 41.3042 46.9928 41.1744 46.863Z" fill="#DD8C29"/>
<path d="M44.1884 51.8663C44.2775 51.7772 44.2775 51.6324 44.1884 51.5433L43.252 50.6069L42.929 50.93L43.8653 51.8663C43.9546 51.9556 44.0992 51.9556 44.1884 51.8663Z" fill="#3E4E60"/>
<path d="M43.5961 52.4586C43.6853 52.3695 43.6853 52.2247 43.5961 52.1355L42.6598 51.1992L42.3367 51.5223L43.273 52.4586C43.3622 52.5478 43.5068 52.5478 43.5961 52.4586Z" fill="#3E4E60"/>
<path d="M43.2842 50.9555C43.1752 51.0656 42.8082 51.4323 42.6928 51.5478C42.5388 51.7018 42.2895 51.7018 42.1355 51.5478L41.843 51.2554C41.1133 50.4809 42.2024 49.3811 42.9851 50.1133L43.2775 50.4057C43.4293 50.5571 43.4316 50.8015 43.2842 50.9555Z" fill="#3E4E60"/>
<path d="M42.1357 49.8207C41.973 49.9845 41.7155 50.2403 41.5508 50.4056C41.3969 50.5596 41.1476 50.5596 40.9936 50.4056L40.7011 50.1132C39.9715 49.339 41.0607 48.2393 41.8432 48.972L42.1356 49.2645C42.2897 49.4175 42.2897 49.6669 42.1357 49.8207Z" fill="#3E4E60"/>
<path d="M40.9936 48.6788C40.8307 48.8433 40.574 49.0987 40.4087 49.2645C40.2548 49.4176 40.0055 49.4176 39.8523 49.2645L39.559 48.972C38.8295 48.1976 39.9182 47.097 40.7011 47.8299L40.9935 48.1223C41.1476 48.2764 41.1476 48.5256 40.9936 48.6788Z" fill="#3E4E60"/>
<path d="M43.1198 51.1217C42.9661 51.2744 42.716 51.2744 42.5634 51.1217L42.2702 50.8285C42.0306 50.5888 41.9724 50.2357 42.0985 49.9414C42.393 49.812 42.7558 49.8816 42.9851 50.1136L43.2777 50.4062C43.4302 50.5593 43.4315 50.8078 43.2794 50.9609C43.2793 50.961 43.1198 51.1217 43.1198 51.1217Z" fill="#3F5D77"/>
<path d="M42.136 49.8207L41.9775 49.9792C41.8243 50.1325 41.5749 50.1329 41.4211 49.9792L41.1285 49.6866C40.8889 49.4469 40.8313 49.0932 40.9562 48.7989C41.2507 48.6715 41.6144 48.739 41.8434 48.9717L42.136 49.2643C42.2901 49.4182 42.2887 49.6683 42.136 49.8207Z" fill="#3F5D77"/>
<path d="M40.8365 48.8371C40.6821 48.9893 40.4339 48.9925 40.2789 48.8371L39.9863 48.5445C39.7472 48.3054 39.6897 47.9518 39.814 47.6568C40.1087 47.5302 40.4722 47.5974 40.7011 47.8297L40.9937 48.1223C41.1472 48.2757 41.147 48.5259 40.9937 48.6787L40.8365 48.8371Z" fill="#3F5D77"/>
<path d="M41.0306 48.5174C40.8457 48.7023 40.545 48.7023 40.3595 48.5168C40.101 48.2722 40.2278 47.8073 40.5703 47.7241C40.6712 47.7804 40.9063 48.0411 40.9937 48.1221C41.0987 48.2318 41.1666 48.4119 41.0306 48.5174Z" fill="#3F6C8E"/>
<path d="M42.1724 49.659C41.9875 49.8439 41.6868 49.8439 41.5018 49.659C41.2427 49.4137 41.3693 48.9492 41.7121 48.8657C41.813 48.922 42.0485 49.1832 42.1361 49.2643C42.2419 49.3749 42.3081 49.553 42.1724 49.659Z" fill="#3F6C8E"/>
<path d="M43.314 50.801C43.1291 50.9859 42.8289 50.9865 42.6434 50.801C42.3849 50.5564 42.5117 50.0915 42.8542 50.0083C42.9551 50.0646 43.1902 50.3253 43.2776 50.4063C43.3831 50.5167 43.4497 50.6951 43.314 50.801Z" fill="#3F6C8E"/>
<path d="M25.1715 34.3413L19.5653 39.9476C19.2551 40.2558 19.2628 40.761 19.5647 41.0587C19.8717 41.3658 20.3694 41.3658 20.6764 41.0587L26.2827 35.4525L25.1715 34.3413Z" fill="#3E4E60"/>
<path d="M25.8488 35.0187L20.2425 40.6249C20.0127 40.8547 19.6751 40.9124 19.3918 40.7983C19.2777 40.5149 19.3353 40.1774 19.5652 39.9476L25.1715 34.3413L25.8488 35.0187Z" fill="#3F5D77"/>
<path d="M20.2358 40.1904C20.3577 40.3123 20.5553 40.3123 20.6771 40.1904L22.5624 38.3051C22.6842 38.1832 22.6842 37.9856 22.5624 37.8639C22.4405 37.742 22.2429 37.742 22.1212 37.8639L20.2358 39.7492C20.1141 39.8709 20.1141 40.0685 20.2358 40.1904Z" fill="#3F6C8E"/>
<path d="M20.0048 47.35C20.2252 47.1296 20.3457 46.812 20.2978 46.4751L19.5567 41.2246C19.5367 41.0848 19.4175 40.9803 19.2757 40.981C19.1339 40.9803 19.0147 41.0848 18.9947 41.2247C18.9397 41.6192 18.3261 45.9545 18.2536 46.4751C18.1135 47.4605 19.3282 48.0386 20.0048 47.35Z" fill="#B26E2B"/>
<path d="M19.2201 47.3513C19.4417 47.1312 19.5632 46.8127 19.5151 46.4743L19.1348 43.7768C19.0941 43.4871 18.6747 43.4871 18.6341 43.7768C18.5402 44.4463 18.3464 45.8117 18.2532 46.475C18.146 47.005 18.6755 47.8202 19.2201 47.3513Z" fill="#C68132"/>
<path d="M18.8251 46.863C19.3404 46.3747 19.104 45.4491 18.4243 45.2622L18.2532 46.4747C18.2205 46.7071 18.2672 46.9296 18.3717 47.118C18.5374 47.0774 18.6953 46.9928 18.8251 46.863Z" fill="#DD8C29"/>
<path d="M15.8113 51.8663C15.7221 51.7772 15.7221 51.6324 15.8113 51.5433L16.7476 50.6069L17.0707 50.93L16.1344 51.8663C16.0451 51.9556 15.9004 51.9556 15.8113 51.8663Z" fill="#3E4E60"/>
<path d="M16.4036 52.4586C16.3144 52.3695 16.3144 52.2247 16.4036 52.1355L17.3399 51.1992L17.663 51.5223L16.7266 52.4586C16.6375 52.5478 16.4929 52.5478 16.4036 52.4586Z" fill="#3E4E60"/>
<path d="M16.7153 50.9555C16.8243 51.0656 17.1913 51.4323 17.3068 51.5478C17.4608 51.7018 17.71 51.7018 17.864 51.5478L18.1565 51.2554C18.8862 50.4809 17.7971 49.3811 17.0144 50.1133L16.722 50.4057C16.5702 50.5571 16.5679 50.8015 16.7153 50.9555Z" fill="#3E4E60"/>
<path d="M17.864 49.8207C18.0268 49.9845 18.2842 50.2403 18.4489 50.4056C18.6029 50.5596 18.8521 50.5596 19.0061 50.4056L19.2986 50.1132C20.0282 49.339 18.9391 48.2393 18.1565 48.972L17.8641 49.2645C17.71 49.4175 17.71 49.6669 17.864 49.8207Z" fill="#3E4E60"/>
<path d="M19.0061 48.6788C19.169 48.8433 19.4257 49.0987 19.591 49.2645C19.745 49.4176 19.9942 49.4176 20.1474 49.2645L20.4407 48.972C21.1702 48.1976 20.0815 47.097 19.2986 47.8299L19.0062 48.1223C18.8521 48.2764 18.8521 48.5256 19.0061 48.6788Z" fill="#3E4E60"/>
<path d="M16.8797 51.1217C17.0335 51.2744 17.2835 51.2744 17.4361 51.1217L17.7293 50.8285C17.9689 50.5888 18.0271 50.2357 17.901 49.9414C17.6066 49.812 17.2437 49.8816 17.0144 50.1136L16.7218 50.4062C16.5693 50.5593 16.568 50.8078 16.7201 50.9609C16.7202 50.961 16.8797 51.1217 16.8797 51.1217Z" fill="#3F5D77"/>
<path d="M17.8636 49.8207L18.022 49.9792C18.1753 50.1325 18.4247 50.1329 18.5784 49.9792L18.871 49.6866C19.1107 49.4469 19.1682 49.0932 19.0433 48.7989C18.7488 48.6715 18.3852 48.739 18.1562 48.9717L17.8636 49.2643C17.7095 49.4182 17.7109 49.6683 17.8636 49.8207Z" fill="#3F5D77"/>
<path d="M19.1632 48.8371C19.3175 48.9893 19.5657 48.9925 19.7208 48.8371L20.0134 48.5445C20.2524 48.3054 20.31 47.9518 20.1856 47.6568C19.8909 47.5302 19.5274 47.5974 19.2985 47.8297L19.0059 48.1223C18.8524 48.2757 18.8526 48.5259 19.0059 48.6787C19.0059 48.6788 19.1632 48.8371 19.1632 48.8371Z" fill="#3F5D77"/>
<path d="M18.9693 48.5174C19.1542 48.7023 19.4549 48.7023 19.6404 48.5168C19.8989 48.2722 19.7721 47.8073 19.4296 47.7241C19.3287 47.7804 19.0936 48.0411 19.0062 48.1221C18.9012 48.2318 18.8333 48.4119 18.9693 48.5174Z" fill="#3F6C8E"/>
<path d="M17.8275 49.659C18.0125 49.8439 18.3132 49.8439 18.4981 49.659C18.7572 49.4137 18.6306 48.9492 18.2878 48.8657C18.1869 48.922 17.9514 49.1832 17.8639 49.2643C17.758 49.3749 17.6918 49.553 17.8275 49.659Z" fill="#3F6C8E"/>
<path d="M16.6858 50.801C16.8708 50.9859 17.1709 50.9865 17.3564 50.801C17.6149 50.5564 17.4881 50.0915 17.1456 50.0083C17.0447 50.0646 16.8096 50.3253 16.7222 50.4063C16.6167 50.5167 16.5501 50.6951 16.6858 50.801Z" fill="#3F6C8E"/>
<path d="M33.324 23.4966H38.6421C39.0793 23.4952 39.4311 23.8579 39.4282 24.2819C39.4282 24.716 39.0762 25.068 38.6421 25.068H33.324V23.4966Z" fill="#3E4E60"/>
<path d="M33.324 24.4545H38.6421C38.9671 24.4545 39.2465 24.2565 39.3663 23.9755C39.2465 23.6945 38.9671 23.4966 38.6421 23.4966H33.324V24.4545Z" fill="#3F5D77"/>
<path d="M38.3395 24.1426C38.3395 24.3149 38.1998 24.4547 38.0274 24.4547H35.3611C35.1889 24.4547 35.0491 24.315 35.0491 24.1426C35.0491 23.9704 35.1888 23.8306 35.3611 23.8306H38.0274C38.1998 23.8306 38.3395 23.9703 38.3395 24.1426Z" fill="#3F6C8E"/>
<path d="M43.4997 19.0401C43.1879 19.0401 42.8781 19.1794 42.6738 19.4516L39.4853 23.6883C39.4006 23.8013 39.4109 23.9595 39.5117 24.0593C39.6115 24.1601 39.7697 24.1704 39.8827 24.0857C40.2005 23.8457 43.6999 21.214 44.1193 20.8972C44.9152 20.2993 44.4651 19.0318 43.4997 19.0401Z" fill="#B26E2B"/>
<path d="M44.0556 19.5942C43.7433 19.5932 43.4321 19.7325 43.2268 20.0058L41.5883 22.1821C41.4122 22.4157 41.7088 22.7123 41.9424 22.5361C42.4822 22.1291 43.5848 21.3007 44.1195 20.8976C44.5701 20.5987 44.7722 19.6478 44.0556 19.5942Z" fill="#C68132"/>
<path d="M43.9896 20.2186C43.2799 20.1996 42.7927 21.0211 43.1412 21.634L44.1196 20.8976C44.307 20.7564 44.4313 20.566 44.4906 20.359C44.3447 20.2704 44.1733 20.2186 43.9896 20.2186Z" fill="#DD8C29"/>
<path d="M50.401 18.519C50.401 18.3928 50.2987 18.2905 50.1725 18.2905H48.8484V18.7474H50.1725C50.2987 18.7474 50.401 18.6451 50.401 18.519Z" fill="#3E4E60"/>
<path d="M50.401 19.3569C50.401 19.2307 50.2987 19.1284 50.1725 19.1284H48.8484V19.5853H50.1725C50.2987 19.5853 50.401 19.483 50.401 19.3569Z" fill="#3E4E60"/>
<path d="M49.1179 18.5146C49.1187 18.6694 49.1185 19.1885 49.1185 19.3516C49.1185 19.5693 48.9422 19.7456 48.7245 19.7456H48.3109C47.2457 19.7101 47.2384 18.1699 48.3109 18.1304H48.7245C48.9387 18.1304 49.1133 18.3015 49.1179 18.5146Z" fill="#3E4E60"/>
<path d="M47.5032 18.5244C47.5038 18.7552 47.5027 19.1182 47.5032 19.3515C47.5032 19.5692 47.3269 19.7455 47.1092 19.7455H46.6956C45.6308 19.7101 45.6234 18.17 46.6962 18.1309H47.1098C47.3269 18.1304 47.5032 18.3066 47.5032 18.5244Z" fill="#3E4E60"/>
<path d="M45.888 18.5244C45.8891 18.7558 45.8881 19.118 45.8885 19.3521C45.888 19.5692 45.7117 19.7455 45.4951 19.7455L45.081 19.7461C44.0176 19.7143 44.0091 18.1662 45.081 18.1309H45.4946C45.7123 18.131 45.8885 18.3072 45.888 18.5244Z" fill="#3E4E60"/>
<path d="M49.1187 18.7478C49.1179 18.9645 48.9412 19.1414 48.7252 19.1414H48.3106C47.9717 19.1414 47.6808 18.9328 47.562 18.6355C47.6787 18.3357 47.9845 18.1284 48.3106 18.1304H48.7244C48.9381 18.131 49.1126 18.3009 49.1179 18.5141V18.5213L49.1187 18.7478Z" fill="#3F5D77"/>
<path d="M47.5035 18.5238V18.7479C47.5035 18.9645 47.3276 19.1414 47.11 19.1414H46.6962C46.3573 19.1414 46.0664 18.932 45.9468 18.6355C46.0649 18.3371 46.3698 18.1277 46.6962 18.1304H47.11C47.3277 18.1303 47.5036 18.3082 47.5035 18.5238Z" fill="#3F5D77"/>
<path d="M45.8888 18.747C45.8874 18.9638 45.7141 19.1416 45.4945 19.1414H45.0807C44.7426 19.1414 44.4518 18.932 44.3313 18.6355C44.4502 18.3375 44.7547 18.1279 45.0807 18.1304H45.4945C45.7115 18.1303 45.8883 18.3073 45.888 18.5239L45.8888 18.747Z" fill="#3F5D77"/>
<path d="M45.8 18.3839C45.8 18.6454 45.5874 18.8581 45.325 18.8581C44.9692 18.8679 44.7302 18.4496 44.9137 18.1485C45.0248 18.117 45.3754 18.135 45.4945 18.1306C45.6461 18.1339 45.8215 18.2132 45.8 18.3839Z" fill="#3F6C8E"/>
<path d="M47.4145 18.3839C47.4145 18.6454 47.2019 18.8581 46.9403 18.8581C46.5837 18.8679 46.3447 18.4499 46.5282 18.1485C46.6393 18.117 46.9905 18.135 47.1098 18.1306C47.2628 18.134 47.4356 18.2131 47.4145 18.3839Z" fill="#3F6C8E"/>
<path d="M49.0292 18.3839C49.0292 18.6454 48.8174 18.8581 48.555 18.8581C48.1993 18.8679 47.9602 18.4496 48.1436 18.1485C48.2547 18.117 48.6053 18.135 48.7244 18.1306C48.877 18.134 49.0503 18.2131 49.0292 18.3839Z" fill="#3F6C8E"/>
<path d="M26.6757 23.4966H21.3576C20.9204 23.4952 20.5686 23.8579 20.5716 24.2819C20.5716 24.716 20.9235 25.068 21.3576 25.068H26.6757V23.4966Z" fill="#3E4E60"/>
<path d="M26.6758 24.4545H21.3578C21.0327 24.4545 20.7533 24.2565 20.6335 23.9755C20.7533 23.6945 21.0327 23.4966 21.3578 23.4966H26.6758V24.4545Z" fill="#3F5D77"/>
<path d="M21.6602 24.1426C21.6602 24.3149 21.7998 24.4547 21.9722 24.4547H24.6385C24.8107 24.4547 24.9505 24.315 24.9505 24.1426C24.9505 23.9704 24.8109 23.8306 24.6385 23.8306H21.9722C21.7998 23.8306 21.6602 23.9703 21.6602 24.1426Z" fill="#3F6C8E"/>
<path d="M16.4998 19.0401C16.8115 19.0401 17.1214 19.1794 17.3256 19.4516L20.5142 23.6883C20.5989 23.8013 20.5886 23.9595 20.4878 24.0593C20.388 24.1601 20.2298 24.1704 20.1168 24.0857C19.799 23.8457 16.2995 21.214 15.8801 20.8972C15.0843 20.2993 15.5344 19.0318 16.4998 19.0401Z" fill="#B26E2B"/>
<path d="M15.9439 19.5942C16.2562 19.5932 16.5673 19.7325 16.7726 20.0058L18.4111 22.1821C18.5873 22.4157 18.2907 22.7123 18.057 22.5361C17.5172 22.1291 16.4146 21.3007 15.8799 20.8976C15.4293 20.5987 15.2273 19.6478 15.9439 19.5942Z" fill="#C68132"/>
<path d="M16.0098 20.2186C16.7195 20.1996 17.2067 21.0211 16.8582 21.634L15.8798 20.8976C15.6924 20.7564 15.5681 20.566 15.5088 20.359C15.6547 20.2704 15.8261 20.2186 16.0098 20.2186Z" fill="#DD8C29"/>
<path d="M9.59863 18.519C9.59863 18.3928 9.70094 18.2905 9.82715 18.2905H11.1512V18.7474H9.82715C9.70094 18.7474 9.59863 18.6451 9.59863 18.519Z" fill="#3E4E60"/>
<path d="M9.59863 19.3569C9.59863 19.2307 9.70094 19.1284 9.82715 19.1284H11.1512V19.5853H9.82715C9.70094 19.5853 9.59863 19.483 9.59863 19.3569Z" fill="#3E4E60"/>
<path d="M10.882 18.5146C10.8811 18.6694 10.8814 19.1885 10.8814 19.3516C10.8814 19.5693 11.0576 19.7456 11.2754 19.7456H11.6889C12.7542 19.7101 12.7614 18.1699 11.6889 18.1304H11.2754C11.0611 18.1304 10.8865 18.3015 10.882 18.5146Z" fill="#3E4E60"/>
<path d="M12.4965 18.5244C12.4959 18.7552 12.497 19.1182 12.4965 19.3515C12.4965 19.5692 12.6728 19.7455 12.8905 19.7455H13.3041C14.3689 19.7101 14.3763 18.17 13.3035 18.1309H12.8899C12.6728 18.1304 12.4965 18.3066 12.4965 18.5244Z" fill="#3E4E60"/>
<path d="M14.1117 18.5244C14.1105 18.7558 14.1116 19.118 14.1111 19.3521C14.1117 19.5692 14.2879 19.7455 14.5045 19.7455L14.9186 19.7461C15.982 19.7143 15.9905 18.1662 14.9186 18.1309H14.5051C14.2873 18.131 14.1111 18.3072 14.1117 18.5244Z" fill="#3E4E60"/>
<path d="M10.8811 18.7478C10.8819 18.9645 11.0586 19.1414 11.2746 19.1414H11.6892C12.0281 19.1414 12.319 18.9328 12.4378 18.6355C12.3211 18.3357 12.0154 18.1284 11.6892 18.1304H11.2754C11.0617 18.131 10.8872 18.3009 10.8819 18.5141V18.5213L10.8811 18.7478Z" fill="#3F5D77"/>
<path d="M12.4963 18.5238V18.7479C12.4963 18.9645 12.6724 19.1414 12.8899 19.1414H13.3036C13.6425 19.1414 13.9334 18.932 14.0531 18.6355C13.9349 18.3371 13.63 18.1277 13.3036 18.1304H12.8899C12.6721 18.1303 12.4962 18.3082 12.4963 18.5238Z" fill="#3F5D77"/>
<path d="M14.1108 18.747C14.1122 18.9638 14.2856 19.1416 14.5052 19.1414H14.919C15.2571 19.1414 15.5479 18.932 15.6684 18.6355C15.5494 18.3375 15.245 18.1279 14.919 18.1304H14.5052C14.2881 18.1303 14.1114 18.3073 14.1117 18.5239L14.1108 18.747Z" fill="#3F5D77"/>
<path d="M14.1998 18.3839C14.1998 18.6454 14.4124 18.8581 14.6748 18.8581C15.0305 18.8679 15.2696 18.4496 15.0861 18.1485C14.975 18.117 14.6244 18.135 14.5053 18.1306C14.3537 18.1339 14.1782 18.2132 14.1998 18.3839Z" fill="#3F6C8E"/>
<path d="M12.585 18.3839C12.585 18.6454 12.7976 18.8581 13.0592 18.8581C13.4158 18.8679 13.6548 18.4499 13.4713 18.1485C13.3602 18.117 13.009 18.135 12.8897 18.1306C12.7367 18.134 12.5639 18.2131 12.585 18.3839Z" fill="#3F6C8E"/>
<path d="M10.9705 18.3839C10.9705 18.6454 11.1823 18.8581 11.4446 18.8581C11.8004 18.8679 12.0395 18.4496 11.8561 18.1485C11.745 18.117 11.3944 18.135 11.2753 18.1306C11.1227 18.134 10.9494 18.2131 10.9705 18.3839Z" fill="#3F6C8E"/>
<path d="M33.6267 20.749H38.642C39.0792 20.7476 39.431 21.1103 39.4281 21.5343C39.4281 21.9685 39.0762 22.3204 38.642 22.3204H33.6267V20.749Z" fill="#3E4E60"/>
<path d="M33.6267 21.7069H38.642C38.9671 21.7069 39.2464 21.509 39.3662 21.228C39.2464 20.947 38.9671 20.749 38.642 20.749H33.6267V21.7069Z" fill="#3F5D77"/>
<path d="M38.3395 21.3951C38.3395 21.5673 38.1998 21.7071 38.0274 21.7071H35.3611C35.1889 21.7071 35.0491 21.5675 35.0491 21.3951C35.0491 21.2228 35.1888 21.083 35.3611 21.083H38.0274C38.1998 21.083 38.3395 21.2227 38.3395 21.3951Z" fill="#3F6C8E"/>
<path d="M38.8893 14.8591C38.6689 15.0795 38.5484 15.3971 38.5964 15.734L39.3375 20.9845C39.3575 21.1243 39.4767 21.2288 39.6185 21.2281C39.7603 21.2288 39.8795 21.1243 39.8995 20.9843C39.9545 20.5899 40.5681 16.2545 40.6406 15.734C40.7806 14.7486 39.5661 14.1705 38.8893 14.8591Z" fill="#B26E2B"/>
<path d="M39.6743 14.8578C39.4527 15.0779 39.3312 15.3964 39.3794 15.7348L39.7596 18.4323C39.8003 18.722 40.2197 18.722 40.2604 18.4323C40.3542 17.7628 40.5481 16.3974 40.6412 15.7341C40.7485 15.2041 40.2189 14.3889 39.6743 14.8578Z" fill="#C68132"/>
<path d="M40.0692 15.3458C39.5539 15.8341 39.7903 16.7597 40.4699 16.9466L40.641 15.7341C40.6737 15.5017 40.6271 15.2793 40.5226 15.0908C40.3569 15.1315 40.1991 15.216 40.0692 15.3458Z" fill="#DD8C29"/>
<path d="M43.9149 9.79052C43.8258 9.70134 43.681 9.70134 43.5918 9.79052L42.6555 10.7268L42.9786 11.0499L43.9149 10.1136C44.0042 10.0243 44.0042 9.8797 43.9149 9.79052Z" fill="#3E4E60"/>
<path d="M44.5075 10.3828C44.4183 10.2936 44.2736 10.2936 44.1844 10.3828L43.248 11.3191L43.5711 11.6422L44.5075 10.7059C44.5968 10.6167 44.5968 10.4721 44.5075 10.3828Z" fill="#3E4E60"/>
<path d="M43.0041 10.6949C43.1141 10.8038 43.4809 11.1709 43.5964 11.2863C43.7503 11.4403 43.7503 11.6895 43.5964 11.8435L43.304 12.136C42.5295 12.8658 41.4297 11.7766 42.1619 10.9939L42.4543 10.7015C42.6057 10.5498 42.8501 10.5473 43.0041 10.6949Z" fill="#3E4E60"/>
<path d="M41.8696 11.843C42.0333 12.0058 42.2891 12.2632 42.4545 12.4279C42.6084 12.5819 42.6084 12.8311 42.4545 12.9851L42.1621 13.2776C41.3878 14.0072 40.2881 12.9181 41.0208 12.1355L41.3133 11.8431C41.4662 11.689 41.7156 11.689 41.8696 11.843Z" fill="#3E4E60"/>
<path d="M40.7274 12.9851C40.8919 13.148 41.1472 13.4048 41.3131 13.57C41.4662 13.724 41.4662 13.9732 41.3131 14.1264L41.0206 14.4197C40.2462 15.1492 39.1456 14.0605 39.8785 13.2776L40.1708 12.9852C40.3248 12.8311 40.5741 12.8311 40.7274 12.9851Z" fill="#3E4E60"/>
<path d="M43.17 10.8589C43.3227 11.0128 43.3227 11.2628 43.17 11.4153L42.8768 11.7085C42.6372 11.9482 42.2841 12.0063 41.9897 11.8802C41.8603 11.5857 41.9299 11.2229 42.162 10.9937L42.4546 10.7011C42.6076 10.5485 42.8562 10.5472 43.0092 10.6993C43.0093 10.6994 43.17 10.8589 43.17 10.8589Z" fill="#3F5D77"/>
<path d="M41.8693 11.8431L42.0278 12.0015C42.1811 12.1548 42.1815 12.4042 42.0278 12.5579L41.7352 12.8505C41.4955 13.0902 41.1418 13.1477 40.8475 13.0228C40.7201 12.7283 40.7876 12.3647 41.0203 12.1357L41.3129 11.8431C41.4668 11.689 41.717 11.6904 41.8693 11.8431Z" fill="#3F5D77"/>
<path d="M40.8855 13.1424C41.0377 13.2968 41.0408 13.545 40.8855 13.7L40.5928 13.9926C40.3538 14.2317 40.0001 14.2892 39.7051 14.1649C39.5786 13.8702 39.6457 13.5067 39.878 13.2778L40.1706 12.9852C40.324 12.8317 40.5742 12.8319 40.727 12.9852L40.8855 13.1424Z" fill="#3F5D77"/>
<path d="M40.5657 12.9484C40.7506 13.1334 40.7506 13.4341 40.5651 13.6196C40.3205 13.8781 39.8557 13.7513 39.7725 13.4088C39.8287 13.3079 40.0895 13.0728 40.1704 12.9854C40.2801 12.8805 40.4602 12.8126 40.5657 12.9484Z" fill="#3F6C8E"/>
<path d="M41.7076 11.8068C41.8925 11.9917 41.8925 12.2924 41.7076 12.4773C41.4623 12.7364 40.9977 12.6099 40.9143 12.2671C40.9706 12.1662 41.2318 11.9306 41.3129 11.8431C41.4236 11.7373 41.6016 11.6711 41.7076 11.8068Z" fill="#3F6C8E"/>
<path d="M42.8491 10.6651C43.034 10.85 43.0346 11.1501 42.8491 11.3356C42.6045 11.5941 42.1396 11.4673 42.0564 11.1248C42.1126 11.0239 42.3734 10.7888 42.4544 10.7014C42.5648 10.5959 42.7432 10.5294 42.8491 10.6651Z" fill="#3F6C8E"/>
<path d="M26.3727 20.749H21.3574C20.9202 20.7476 20.5684 21.1103 20.5713 21.5343C20.5713 21.9685 20.9232 22.3204 21.3574 22.3204H26.3727V20.749Z" fill="#3E4E60"/>
<path d="M26.3728 21.7069H21.3575C21.0324 21.7069 20.7531 21.509 20.6333 21.228C20.7531 20.947 21.0324 20.749 21.3575 20.749H26.3728V21.7069Z" fill="#3F5D77"/>
<path d="M21.6599 21.3951C21.6599 21.5673 21.7996 21.7071 21.972 21.7071H24.6382C24.8105 21.7071 24.9503 21.5675 24.9503 21.3951C24.9503 21.2228 24.8106 21.083 24.6382 21.083H21.972C21.7996 21.083 21.6599 21.2227 21.6599 21.3951Z" fill="#3F6C8E"/>
<path d="M21.11 14.8591C21.3305 15.0795 21.4509 15.3971 21.403 15.734L20.6619 20.9845C20.6419 21.1243 20.5227 21.2288 20.3809 21.2281C20.2391 21.2288 20.1199 21.1243 20.0999 20.9843C20.0449 20.5899 19.4313 16.2545 19.3588 15.734C19.2188 14.7486 20.4333 14.1705 21.11 14.8591Z" fill="#B26E2B"/>
<path d="M20.3251 14.8578C20.5467 15.0779 20.6682 15.3964 20.6201 15.7348L20.2398 18.4323C20.1991 18.722 19.7797 18.722 19.739 18.4323C19.6452 17.7628 19.4513 16.3974 19.3582 15.7341C19.2509 15.2041 19.7805 14.3889 20.3251 14.8578Z" fill="#C68132"/>
<path d="M19.9303 15.3458C20.4456 15.8341 20.2092 16.7597 19.5295 16.9466L19.3584 15.7341C19.3258 15.5017 19.3724 15.2793 19.4769 15.0908C19.6426 15.1315 19.8004 15.216 19.9303 15.3458Z" fill="#DD8C29"/>
<path d="M16.0846 9.79052C16.1737 9.70134 16.3185 9.70134 16.4076 9.79052L17.344 10.7268L17.0209 11.0499L16.0846 10.1136C15.9953 10.0243 15.9953 9.8797 16.0846 9.79052Z" fill="#3E4E60"/>
<path d="M15.492 10.3828C15.5812 10.2936 15.7259 10.2936 15.8151 10.3828L16.7514 11.3191L16.4283 11.6422L15.492 10.7059C15.4027 10.6167 15.4027 10.4721 15.492 10.3828Z" fill="#3E4E60"/>
<path d="M16.9951 10.6949C16.8851 10.8038 16.5183 11.1709 16.4028 11.2863C16.2489 11.4403 16.2489 11.6895 16.4028 11.8435L16.6952 12.136C17.4697 12.8658 18.5695 11.7766 17.8373 10.9939L17.545 10.7015C17.3935 10.5498 17.1491 10.5473 16.9951 10.6949Z" fill="#3E4E60"/>
<path d="M18.1298 11.843C17.9661 12.0058 17.7103 12.2632 17.5449 12.4279C17.3909 12.5819 17.3909 12.8311 17.5449 12.9851L17.8373 13.2776C18.6116 14.0072 19.7113 12.9181 18.9786 12.1355L18.6861 11.8431C18.5332 11.689 18.2838 11.689 18.1298 11.843Z" fill="#3E4E60"/>
<path d="M19.2721 12.9851C19.1076 13.148 18.8522 13.4048 18.6864 13.57C18.5332 13.724 18.5332 13.9732 18.6864 14.1264L18.9789 14.4197C19.7533 15.1492 20.8539 14.0605 20.121 13.2776L19.8286 12.9852C19.6746 12.8311 19.4254 12.8311 19.2721 12.9851Z" fill="#3E4E60"/>
<path d="M16.8294 10.8589C16.6767 11.0128 16.6767 11.2628 16.8294 11.4153L17.1226 11.7085C17.3622 11.9482 17.7153 12.0063 18.0097 11.8802C18.1391 11.5857 18.0694 11.2229 17.8374 10.9937L17.5448 10.7011C17.3917 10.5485 17.1432 10.5472 16.99 10.6993C16.99 10.6994 16.8294 10.8589 16.8294 10.8589Z" fill="#3F5D77"/>
<path d="M18.13 11.8431L17.9716 12.0015C17.8183 12.1548 17.8178 12.4042 17.9716 12.5579L18.2642 12.8505C18.5038 13.0902 18.8575 13.1477 19.1519 13.0228C19.2793 12.7283 19.2118 12.3647 18.979 12.1357L18.6864 11.8431C18.5326 11.689 18.2824 11.6904 18.13 11.8431Z" fill="#3F5D77"/>
<path d="M19.1139 13.1424C18.9617 13.2968 18.9585 13.545 19.1139 13.7L19.4065 13.9926C19.6456 14.2317 19.9992 14.2892 20.2942 14.1649C20.4208 13.8702 20.3536 13.5067 20.1214 13.2778L19.8287 12.9852C19.6753 12.8317 19.4251 12.8319 19.2723 12.9852L19.1139 13.1424Z" fill="#3F5D77"/>
<path d="M19.4335 12.9484C19.2486 13.1334 19.2486 13.4341 19.4341 13.6196C19.6787 13.8781 20.1436 13.7513 20.2268 13.4088C20.1705 13.3079 19.9098 13.0728 19.8288 12.9854C19.7191 12.8805 19.539 12.8126 19.4335 12.9484Z" fill="#3F6C8E"/>
<path d="M18.2918 11.8068C18.1068 11.9917 18.1068 12.2924 18.2918 12.4773C18.537 12.7364 19.0016 12.6099 19.085 12.2671C19.0288 12.1662 18.7675 11.9306 18.6865 11.8431C18.5757 11.7373 18.3977 11.6711 18.2918 11.8068Z" fill="#3F6C8E"/>
<path d="M17.1501 10.6651C16.9652 10.85 16.9646 11.1501 17.1501 11.3356C17.3947 11.5941 17.8596 11.4673 17.9428 11.1248C17.8865 11.0239 17.6258 10.7888 17.5448 10.7014C17.4344 10.5959 17.256 10.5294 17.1501 10.6651Z" fill="#3F6C8E"/>
<path d="M35.3778 33.3339V43.2151C35.3639 44.8517 34.7144 46.6596 33.8023 48.0771C30.5921 53.0698 26.4046 50.2202 24.9514 45.3357C24.7385 44.5965 24.6218 43.8686 24.6218 43.2151V33.3339C24.6218 31.3658 26.2171 29.7705 28.1851 29.7705H31.8144C33.7826 29.7706 35.3778 31.3658 35.3778 33.3339Z" fill="#F39E22"/>
<path d="M35.3777 33.3338V43.215C35.3877 45.9593 33.159 50.6454 29.9998 50.7117V29.7705H31.8144C33.7826 29.7705 35.3777 31.3657 35.3777 33.3338Z" fill="#F9C744"/>
<path d="M31.0995 48.4868C30.4918 48.4868 29.9993 47.9942 29.9993 47.3866V34.3386C29.9993 33.7308 30.4919 33.2383 31.0995 33.2383C31.7073 33.2383 32.1998 33.7309 32.1998 34.3386V47.3866C32.1999 47.9943 31.7073 48.4868 31.0995 48.4868Z" fill="#FAD98F"/>
<path d="M35.0474 45.3359C34.4068 47.6396 32.464 50.711 29.9999 50.712C27.6833 50.712 25.7086 47.9575 24.9514 45.3359H35.0474Z" fill="#3E4E60"/>
<path d="M35.3778 40.7905H24.6218V43.2153H35.3778V40.7905Z" fill="#3E4E60"/>
<path d="M35.3778 37.6748H24.6218V39.2671H35.3778V37.6748Z" fill="#3E4E60"/>
<path d="M35.3778 35.4185H24.6218V36.6107H35.3778V35.4185Z" fill="#3E4E60"/>
<path d="M29.9998 45.3355V50.7121C32.4649 50.7101 34.4066 47.6404 35.047 45.3355H29.9998ZM29.9998 40.791V43.2156H35.3775V40.791H29.9998ZM29.9998 37.675V39.2676H35.3775V37.675H29.9998ZM29.9998 35.418V36.6109H35.3775V35.418H29.9998Z" fill="#3F5D77"/>
<path d="M32.1994 35.418H29.9998V36.6109H32.1994V35.418Z" fill="#3F6C8E"/>
<path d="M32.1994 37.6748H29.9998V39.2674H32.1994V37.6748Z" fill="#3F6C8E"/>
<path d="M32.1994 40.791H29.9998V43.2156H32.1994V40.791Z" fill="#3F6C8E"/>
<path d="M29.9998 45.3354H32.1994V47.3862C32.1994 47.9944 31.7072 48.4866 31.1001 48.4866C30.4919 48.4866 29.9998 47.9944 29.9998 47.3862V45.3354Z" fill="#3F6C8E"/>
<path d="M34.7987 22.9944V26.1213C34.7987 28.1364 33.1649 29.7702 31.149 29.7702H28.8509C26.835 29.7702 25.2012 28.1364 25.2012 26.1213V22.9944C25.2012 20.9786 26.835 19.3447 28.8509 19.3447H31.149C33.1648 19.3447 34.7987 20.9787 34.7987 22.9944Z" fill="#B26E2B"/>
<path d="M34.7988 22.9945V26.1214C34.7988 28.1365 33.165 29.7703 31.1491 29.7703H30V19.3447H31.1491C33.1649 19.3448 34.7988 20.9788 34.7988 22.9945Z" fill="#C68132"/>
<path d="M32.7172 23.3944V25.7212C32.7172 27.2206 31.792 28.4363 30.6506 28.4363H29.3493C28.2079 28.4363 27.2827 27.2206 27.2827 25.7212V23.3944C27.2827 21.8944 28.2079 20.6787 29.3493 20.6787H30.6506C31.792 20.6787 32.7172 21.8944 32.7172 23.3944Z" fill="#3E4E60"/>
<path d="M32.7172 23.3944V25.7212C32.7172 27.2206 31.792 28.4363 30.6506 28.4363H30V20.6787H30.6506C31.792 20.6787 32.7172 21.8944 32.7172 23.3944Z" fill="#3F5D77"/>
<path d="M34.7986 15.779V16.6331C34.7986 18.1304 33.5838 19.3452 32.0865 19.3452H27.913C26.4157 19.3452 25.2009 18.1304 25.2009 16.6331V15.779C25.2009 14.2817 26.4157 13.0669 27.913 13.0669H32.0865C33.5838 13.0669 34.7986 14.2817 34.7986 15.779Z" fill="#334353"/>
<path d="M34.7986 15.7788V16.633C34.7986 18.1303 33.5838 19.3451 32.0865 19.3451H29.9998V13.0669H32.0865C33.5838 13.0668 34.7986 14.2815 34.7986 15.7788Z" fill="#3E4E60"/>
<path d="M34.7985 11.1763C34.7985 11.359 34.7288 11.5426 34.5885 11.682L31.8576 14.4139C31.2653 14.9938 30.3307 14.2753 30.7275 13.5579C30.7586 13.5024 30.7982 13.4496 30.8452 13.4016L33.5761 10.6697C34.0099 10.2191 34.812 10.553 34.7985 11.1763Z" fill="#3F5D77"/>
<path d="M34.7062 10.8259C34.6751 10.8815 34.6355 10.9342 34.5885 10.9813L31.8576 13.7132C31.5325 14.0486 30.9493 13.9663 30.7275 13.5578C30.7586 13.5022 30.7982 13.4495 30.8452 13.4015L33.5761 10.6696C33.9 10.3357 34.4866 10.4163 34.7062 10.8259Z" fill="#3F6C8E"/>
<path d="M29.1541 14.4137C28.8753 14.6934 28.4214 14.6934 28.1418 14.4137L25.4109 11.6818C25.1284 11.4027 25.1368 10.94 25.4109 10.6695C25.6911 10.3906 26.144 10.3909 26.4232 10.6695L29.1541 13.4014C29.4274 13.6729 29.4373 14.1334 29.1541 14.4137Z" fill="#3E4E60"/>
<path d="M29.2718 13.5576C29.0498 13.966 28.4671 14.0485 28.1418 13.713L25.4109 10.9812C25.3638 10.9341 25.3243 10.8814 25.2932 10.8259C25.5132 10.4163 26.0997 10.3358 26.4233 10.6695L29.1542 13.4013C29.2013 13.4493 29.2408 13.5021 29.2718 13.5576Z" fill="#3F5D77"/>
<path d="M35.4719 16.6042C35.4785 16.958 35.4803 17.3787 35.3183 17.6918C35.0481 18.2889 34.4473 18.7041 33.7496 18.7041H33.372C32.4209 18.7041 31.6497 17.9329 31.6497 16.9818V16.6042C31.6458 15.645 32.4429 14.8764 33.372 14.8829H33.7496C34.7005 14.8829 35.4719 15.6531 35.4719 16.6042Z" fill="#3F5D77"/>
<path d="M35.4719 16.6041C35.4801 16.9581 35.4793 17.3783 35.3184 17.6917C35.0284 17.8233 34.6338 17.8145 34.3136 17.8104C33.3625 17.8104 32.5913 17.0392 32.5913 16.0881C32.5839 15.735 32.5833 15.3131 32.7448 15.0005C33.0351 14.8708 33.4293 14.8783 33.7496 14.8828C34.7005 14.8827 35.4719 15.653 35.4719 16.6041Z" fill="#3F6C8E"/>
<path d="M34.9616 16.803C34.7559 17.0086 34.4225 17.0086 34.2169 16.803L33.5821 16.1682C33.1035 15.6649 33.8232 14.9446 34.3269 15.4234L34.9617 16.0583C35.1673 16.2639 35.1673 16.5973 34.9616 16.803Z" fill="#CDE6F6"/>
<path d="M28.3498 16.6037V16.9813C28.3498 17.9324 27.5786 18.7036 26.6275 18.7036H26.2499C25.2907 18.7067 24.5228 17.912 24.5276 16.9813V16.6037C24.5276 15.6526 25.2988 14.8824 26.2499 14.8824H26.6275C27.5566 14.876 28.3537 15.6445 28.3498 16.6037Z" fill="#3E4E60"/>
<path d="M27.4083 15.7102V16.0879C27.4083 17.039 26.6371 17.8102 25.686 17.8102C25.3656 17.8141 24.9717 17.8231 24.6812 17.6915C24.52 17.3792 24.5199 16.957 24.5277 16.6039C24.5277 15.6528 25.2989 14.8825 26.25 14.8825C26.5701 14.8789 26.9644 14.8699 27.2548 15.0002C27.3537 15.2169 27.4083 15.4569 27.4083 15.7102Z" fill="#3F5D77"/>
<path d="M25.0378 16.8029C24.8321 16.5972 24.8321 16.2638 25.0378 16.0582L25.6726 15.4234C26.1759 14.9448 26.8962 15.6645 26.4173 16.1682L25.7825 16.803C25.5769 17.0086 25.2435 17.0086 25.0378 16.8029Z" fill="#83D5EF"/>
<path d="M55.3206 26.8956C55.3206 28.0324 54.6245 29.1058 53.4644 29.6449L51.0761 30.7535C48.0597 32.1538 44.5593 32.3765 41.3765 31.3992C41.1495 31.3715 33.8578 28.5237 33.3948 28.3499C32.2049 27.8724 32.5399 26.3083 33.7874 26.2265C34.5932 26.1742 42.5065 25.6588 43.0382 25.6253C44.8835 25.5754 49.1778 24.3175 51.0175 23.9121C53.1184 23.3842 55.3144 24.8116 55.3206 26.8956Z" fill="#CDE6F6"/>
<path d="M46.6945 37.5142C43.3576 39.475 39.3329 38.7849 36.2906 36.6752C35.1961 35.9134 34.2902 34.9759 33.6328 33.9072L31.2644 30.0587C31.0734 29.7494 31.1414 29.3709 31.4343 29.106C31.7503 28.8191 32.2583 28.7341 32.6648 28.8869L41.4457 32.1353L46.3582 33.9529C48.1171 34.6033 48.3023 36.5685 46.6945 37.5142Z" fill="#CDE6F6"/>
<path d="M46.6944 37.5142C45.7077 38.0942 44.5838 38.4646 43.4249 38.6099C42.3948 36.6329 41.7092 34.4474 41.4456 32.1353L46.3581 33.9528C48.117 34.6032 48.3022 36.5685 46.6944 37.5142Z" fill="white"/>
<path d="M55.3207 26.8957C55.3207 28.0324 54.6246 29.1058 53.4644 29.6449L51.0761 30.7535C48.0597 32.1539 44.5593 32.3765 41.3765 31.3992C41.2324 29.5003 41.3915 27.5133 41.8218 25.7039C43.0975 25.6352 44.4748 25.536 45.7054 25.2152L51.0175 23.9121C53.1185 23.3842 55.3145 24.8116 55.3207 26.8957Z" fill="white"/>
<path d="M26.605 28.35C26.1097 28.5275 18.8745 31.3734 18.6234 31.3992C15.4406 32.3765 11.9402 32.1539 8.92376 30.7535L6.53548 29.6449C5.10438 28.9779 4.37618 27.5049 4.79876 26.0859C5.29094 24.4394 7.16477 23.4656 8.98235 23.9121L14.2945 25.2152C15.5213 25.5348 16.9073 25.6361 18.1781 25.7039L26.2124 26.2265C27.451 26.3057 27.8022 27.869 26.605 28.35Z" fill="#83D5EF"/>
<path d="M28.7354 30.0588L26.367 33.9072C25.7096 34.9759 24.8038 35.9134 23.7092 36.6752C22.0443 37.8236 19.8253 38.6889 17.7034 38.6814C16.1721 38.6824 14.6108 38.2837 13.3053 37.5142C11.6975 36.5685 11.8827 34.6033 13.6416 33.9529C16.6729 32.8311 24.2199 30.0393 27.335 28.8869C28.0652 28.577 29.2027 29.232 28.7354 30.0588Z" fill="#83D5EF"/>
<path d="M13.6416 33.9528L18.5541 32.1353C18.2905 34.4474 17.6049 36.6329 16.5748 38.6099C15.4159 38.4646 14.292 38.0942 13.3053 37.5142C11.6975 36.5685 11.8827 34.6032 13.6416 33.9528Z" fill="#CDE6F6"/>
<path d="M18.6749 29.9999C18.6749 30.471 18.6573 30.9374 18.6233 31.3992C15.4405 32.3765 11.9401 32.1538 8.92373 30.7535L6.53545 29.6449C5.37529 29.1058 4.6792 28.0324 4.6792 26.8956C4.68588 24.8117 6.88104 23.3842 8.98232 23.912L14.2944 25.2152C15.5235 25.535 16.9056 25.636 18.178 25.7038C18.5026 27.0831 18.6749 28.5222 18.6749 29.9999Z" fill="#CDE6F6"/>
</g>
<defs>
<clipPath id="clip0_1123_24949">
<rect width="60" height="60" fill="white"/>
</clipPath>
</defs>
</svg>
