<svg width="60" height="60" viewBox="0 0 60 60" fill="none" xmlns="http://www.w3.org/2000/svg">
<g clip-path="url(#clip0_1123_22679)">
<path d="M30 60C46.5685 60 60 46.5685 60 30C60 13.4315 46.5685 0 30 0C13.4315 0 0 13.4315 0 30C0 46.5685 13.4315 60 30 60Z" fill="#22BCE0"/>
<path d="M60 30C60 42.6023 52.2293 53.3895 41.2172 57.832C21.9329 52.6078 7.74731 34.9852 7.74731 14.0473C7.74731 12.5637 7.8188 11.0953 7.95825 9.64805C13.4403 3.71484 21.286 0 30 0C46.568 0 60 13.432 60 30Z" fill="#4FCAE8"/>
<path d="M17.5019 28.4646L15.3469 31.5917L13.8295 31.4298L10.1491 31.0373C9.11318 30.9267 8.16631 30.5011 7.41443 29.8531C6.58615 29.1424 5.99177 28.1624 5.76701 27.0364L4.90685 22.7251C4.75052 21.9436 5.59474 21.347 6.27935 21.7565L7.10986 22.2528L10.7401 24.4228L17.5019 28.4646Z" fill="#F9C744"/>
<path d="M7.41443 29.8531C6.58615 29.1424 5.99177 28.1624 5.76701 27.0364L4.90685 22.7251C4.75052 21.9436 5.59474 21.347 6.27935 21.7565L7.10986 22.2528L8.00998 26.118C8.31455 27.4243 8.07724 28.7591 7.41443 29.8531Z" fill="#FBD9A3"/>
<path d="M17.5019 28.4648L15.3469 31.5919L13.8295 31.43C12.6362 30.7214 11.7588 29.5293 11.4748 28.1044L10.74 24.4229L17.5019 28.4648Z" fill="#F39E22"/>
<path d="M16.2243 29.6319C16.1639 29.6319 16.1027 29.6181 16.0451 29.5891L9.62781 26.3586C9.43082 26.2594 9.35149 26.0194 9.45074 25.8224C9.54977 25.6255 9.78965 25.546 9.98688 25.6454L16.4042 28.8759C16.6012 28.975 16.6805 29.215 16.5813 29.412C16.5112 29.5514 16.3704 29.6319 16.2243 29.6319Z" fill="#FBD9A3"/>
<path d="M15.7865 31.0465C15.7422 31.0465 15.6972 31.0391 15.6532 31.0234L9.67402 28.9044C9.46613 28.8308 9.35738 28.6025 9.43097 28.3946C9.50457 28.1866 9.73308 28.0776 9.94074 28.1516L15.9199 30.2706C16.1278 30.3442 16.2365 30.5724 16.1629 30.7803C16.1048 30.9442 15.9508 31.0465 15.7865 31.0465Z" fill="#FBD9A3"/>
<path d="M17.5014 35.5056L15.3464 32.3784L13.829 32.5404L10.1486 32.9328C9.11269 33.0435 8.16582 33.4691 7.41394 34.117C6.58566 34.8278 5.99129 35.8078 5.76652 36.9337L4.90636 41.2451C4.75004 42.0266 5.59426 42.6232 6.27886 42.2136L7.10937 41.7173L10.7396 39.5474L17.5014 35.5056Z" fill="#F9C744"/>
<path d="M7.41394 34.1172C6.58566 34.8279 5.99129 35.808 5.76652 36.9339L4.90636 41.2452C4.75004 42.0268 5.59426 42.6234 6.27886 42.2138L7.10937 41.7175L8.00949 37.8523C8.31406 36.5461 8.07676 35.2113 7.41394 34.1172Z" fill="#FBD9A3"/>
<path d="M17.5015 35.5056L15.3464 32.3784L13.829 32.5404C12.6357 33.2489 11.7583 34.441 11.4743 35.8659L10.7395 39.5475L17.5015 35.5056Z" fill="#F39E22"/>
<path d="M16.2238 34.3384C16.1635 34.3384 16.1022 34.3521 16.0446 34.3812L9.62733 37.6117C9.43033 37.7108 9.351 37.9508 9.45025 38.1478C9.54928 38.3448 9.78916 38.4242 9.98639 38.3249L16.4037 35.0944C16.6007 34.9952 16.68 34.7552 16.5808 34.5582C16.5106 34.4189 16.3699 34.3384 16.2238 34.3384Z" fill="#FBD9A3"/>
<path d="M15.786 32.9238C15.7417 32.9238 15.6967 32.9312 15.6527 32.9469L9.67353 35.0659C9.46564 35.1395 9.35689 35.3678 9.43048 35.5757C9.50408 35.7837 9.73259 35.8927 9.94025 35.8187L15.9194 33.6997C16.1273 33.6261 16.236 33.3979 16.1624 33.19C16.1043 33.0261 15.9503 32.9238 15.786 32.9238Z" fill="#FBD9A3"/>
<path d="M37.7726 25.8051L22.7738 29.1022L21.5884 25.0681C21.4412 24.5696 21.4229 24.0596 21.5176 23.5771C21.7002 22.6393 22.3059 21.8031 23.2106 21.3535L31.4066 17.2819C32.1983 16.8882 33.0632 16.8609 33.8252 17.121C34.755 17.437 35.532 18.1831 35.8365 19.2179L37.7726 25.8051Z" fill="#F9C744"/>
<path d="M33.8253 17.121C33.6427 18.0599 33.037 18.8962 32.1323 19.3445L23.9353 23.4162C23.1436 23.8098 22.2787 23.8371 21.5178 23.5771C21.7004 22.6394 22.3061 21.8031 23.2108 21.3536L31.4068 17.2819C32.1984 16.8883 33.0631 16.8609 33.8253 17.121Z" fill="#FBD9A3"/>
<path d="M24.3105 25.095L32.5066 21.0237C34.2637 20.1509 36.3828 21.0768 36.9361 22.9591L38.8727 29.5471L23.8734 32.8439L22.6875 28.8095C22.2561 27.3415 22.9403 25.7757 24.3105 25.095Z" fill="#F39E22"/>
<path d="M24.2936 30.0615C24.1209 30.0615 23.9618 29.9486 23.9106 29.7746L22.6005 25.3162C22.5383 25.1047 22.6595 24.8827 22.871 24.8205C23.0829 24.7584 23.3045 24.8793 23.3667 25.091L24.6768 29.5494C24.7389 29.7609 24.6178 29.9828 24.4063 30.0451C24.3688 30.0562 24.3308 30.0615 24.2936 30.0615Z" fill="#FBD9A3"/>
<path d="M25.9366 29.2002C25.764 29.2002 25.6049 29.0873 25.5538 28.9133L24.2439 24.4549C24.1816 24.2434 24.3028 24.0214 24.5143 23.9592C24.726 23.897 24.9478 24.018 25.01 24.2297L26.3201 28.6881C26.3823 28.8996 26.261 29.1215 26.0495 29.1838C26.0118 29.1949 25.9739 29.2002 25.9366 29.2002Z" fill="#FBD9A3"/>
<path d="M27.5795 28.4198C27.4069 28.4198 27.2478 28.307 27.1966 28.1329L25.8866 23.6745C25.8245 23.4629 25.9457 23.2411 26.1572 23.1788C26.3683 23.1169 26.5906 23.2377 26.6529 23.4493L27.9628 27.9077C28.0251 28.1194 27.9038 28.3412 27.6923 28.4034C27.6546 28.4145 27.6168 28.4198 27.5795 28.4198Z" fill="#FBD9A3"/>
<path d="M29.2226 27.5487C29.05 27.5487 28.8908 27.4358 28.8396 27.2618L27.5297 22.8034C27.4676 22.5919 27.5888 22.3699 27.8003 22.3077C28.0116 22.2458 28.2338 22.3665 28.296 22.5782L29.6059 27.0366C29.6681 27.2481 29.5468 27.4701 29.3353 27.5323C29.2978 27.5434 29.2599 27.5487 29.2226 27.5487Z" fill="#FBD9A3"/>
<path d="M30.8654 26.791C30.6928 26.791 30.5337 26.6781 30.4824 26.5041L29.1725 22.0457C29.1104 21.834 29.2316 21.6122 29.4431 21.55C29.6543 21.4879 29.8766 21.6088 29.9388 21.8204L31.2488 26.2788C31.311 26.4905 31.1898 26.7123 30.9783 26.7746C30.9406 26.7857 30.9028 26.791 30.8654 26.791Z" fill="#FBD9A3"/>
<path d="M32.8651 27.1679C32.6925 27.1679 32.5334 27.0551 32.4821 26.8811L30.8154 21.2087C30.7532 20.9972 30.8744 20.7753 31.086 20.713C31.2973 20.651 31.5194 20.7719 31.5817 20.9835L33.2484 26.6558C33.3107 26.8674 33.1894 27.0893 32.9778 27.1515C32.9403 27.1627 32.9025 27.1679 32.8651 27.1679Z" fill="#FBD9A3"/>
<path d="M34.6754 26.9711C34.5027 26.9711 34.3436 26.8583 34.2924 26.6843L32.4584 20.4426C32.3963 20.2311 32.5175 20.0091 32.729 19.9469C32.9402 19.8849 33.1625 20.0057 33.2247 20.2174L35.0587 26.459C35.1209 26.6705 34.9996 26.8925 34.7881 26.9547C34.7505 26.9659 34.7126 26.9711 34.6754 26.9711Z" fill="#FBD9A3"/>
<path d="M36.6229 27.1677C36.4503 27.1677 36.2912 27.0549 36.24 26.8808L34.1015 19.6033C34.0393 19.3917 34.1605 19.1698 34.3721 19.1076C34.5835 19.0456 34.8056 19.1664 34.8678 19.378L37.0063 26.6556C37.0684 26.8671 36.9473 27.0891 36.7357 27.1513C36.6982 27.1624 36.6603 27.1677 36.6229 27.1677Z" fill="#FBD9A3"/>
<path d="M29.3633 39.6302L21.7566 35.5176L20.4889 37.5172C20.3319 37.7642 20.2428 38.0373 20.2191 38.3132C20.1724 38.8491 20.3704 39.3958 20.7904 39.7795L24.5947 43.2555C24.9622 43.5914 25.426 43.7404 25.8788 43.7179C26.4311 43.6912 26.9675 43.4079 27.2929 42.8951L29.3633 39.6302Z" fill="#F9C744"/>
<path d="M25.8788 43.7181C25.9257 43.1816 25.7276 42.6349 25.3075 42.2517L21.5027 38.7756C21.1352 38.4396 20.6713 38.2906 20.2191 38.3133C20.1724 38.8492 20.3704 39.3958 20.7904 39.7795L24.5947 43.2555C24.9622 43.5915 25.426 43.7406 25.8788 43.7181Z" fill="#FBD9A3"/>
<path d="M21.9666 37.9251L25.771 41.401C26.5866 42.1462 27.8773 41.9739 28.4689 41.041L30.5397 37.7757L22.9328 33.6631L21.6647 35.6627C21.2033 36.3902 21.3305 37.3439 21.9666 37.9251Z" fill="#F39E22"/>
<path d="M21.7293 38.3531C21.6562 38.3531 21.5822 38.333 21.5159 38.2909C21.3296 38.1728 21.2744 37.9261 21.3925 37.7399L23.7256 34.0601C23.8436 33.8738 24.0903 33.8185 24.2766 33.9367C24.4629 34.0549 24.5181 34.3015 24.4 34.4877L22.0669 38.1675C21.9908 38.2874 21.8615 38.3531 21.7293 38.3531Z" fill="#FBD9A3"/>
<path d="M23.253 39.7516C23.1798 39.7516 23.1059 39.7316 23.0396 39.6895C22.8532 39.5714 22.798 39.3247 22.9162 39.1385L25.1242 35.6558C25.2422 35.4695 25.4888 35.4142 25.6752 35.5324C25.8616 35.6506 25.9168 35.8972 25.7986 36.0834L23.5906 39.5661C23.5145 39.686 23.3852 39.7516 23.253 39.7516Z" fill="#FBD9A3"/>
<path d="M24.7788 41.1432C24.7057 41.1432 24.6318 41.1232 24.5654 41.0811C24.3791 40.963 24.3239 40.7163 24.442 40.5301L26.6031 37.1216C26.7213 36.9351 26.9681 36.8802 27.1541 36.9982C27.3404 37.1163 27.3956 37.363 27.2775 37.5492L25.1165 40.9577C25.0404 41.0776 24.911 41.1432 24.7788 41.1432Z" fill="#FBD9A3"/>
<path d="M26.3085 42.5208C26.2353 42.5208 26.1613 42.5008 26.095 42.4587C25.9087 42.3406 25.8535 42.0939 25.9716 41.9077L27.9331 38.814C28.0513 38.6275 28.2981 38.5725 28.4841 38.6906C28.6704 38.8087 28.7256 39.0554 28.6075 39.2416L26.646 42.3353C26.5699 42.4552 26.4406 42.5208 26.3085 42.5208Z" fill="#FBD9A3"/>
<path d="M38.6704 40.1626L37.1793 41.6549C37.0903 41.745 37.0138 41.8443 36.9533 41.9527L36.9521 41.9539C36.8324 42.1637 36.7673 42.4022 36.7673 42.6487V45.7005C36.7673 45.7643 36.7628 45.826 36.7548 45.8876C36.6635 46.5744 36.0737 47.106 35.3618 47.106H33.0755C32.2985 47.106 31.6699 46.4762 31.6699 45.7005V41.2694C31.6699 40.4936 32.2985 39.8638 33.0755 39.8638H34.4114C34.6909 39.8638 34.9624 39.7805 35.1906 39.6287C35.267 39.5786 35.3389 39.5192 35.405 39.4531L36.6829 38.1753C37.2316 37.6265 38.1214 37.6265 38.6702 38.1753C39.2191 38.7241 39.2191 39.614 38.6704 40.1626Z" fill="#F9C744"/>
<path d="M38.6703 40.1626L37.1792 41.6549C37.0903 41.745 37.0138 41.8443 36.9533 41.9527L36.9521 41.9539C36.8324 42.1637 36.7673 42.4022 36.7673 42.6487V44.5231H35.5637C34.7856 44.5231 34.1536 43.8921 34.1536 43.113V39.8638H34.4114C34.6909 39.8638 34.9624 39.7805 35.1906 39.6287C35.267 39.5786 35.3389 39.5192 35.405 39.4531L36.6828 38.1753C37.2316 37.6265 38.1214 37.6265 38.6702 38.1753C39.2191 38.7241 39.2191 39.614 38.6703 40.1626Z" fill="#F39E22"/>
<path d="M32.7389 44.523C32.6367 44.523 32.5345 44.484 32.4566 44.406C32.3006 44.2501 32.3006 43.9973 32.4566 43.8413L37.3715 38.9265C37.5273 38.7706 37.7802 38.7706 37.9362 38.9265C38.0921 39.0824 38.0921 39.3352 37.9362 39.4912L33.0212 44.406C32.9434 44.484 32.8411 44.523 32.7389 44.523Z" fill="#FBD9A3"/>
<path d="M35.1908 39.6289L33.3289 41.4908C33.2502 41.5695 33.1487 41.6083 33.0461 41.6083C32.9446 41.6083 32.8418 41.5695 32.7642 41.4908C32.6079 41.3356 32.6079 41.0824 32.7642 40.9261L33.8264 39.8639H34.4116C34.6911 39.864 34.9627 39.7807 35.1908 39.6289Z" fill="#FBD9A3"/>
<path d="M36.9523 41.9541C36.8325 42.164 36.7675 42.4025 36.7675 42.6489V43.2684L34.2348 45.8C34.1572 45.8775 34.0546 45.9175 33.953 45.9175C33.8503 45.9175 33.7487 45.8775 33.6701 45.8C33.5149 45.6436 33.5149 45.3916 33.6701 45.2352L36.9523 41.9541Z" fill="#FBD9A3"/>
<path d="M36.7676 44.7456V45.7005C36.7676 45.7643 36.763 45.826 36.755 45.8876L36.2142 46.4284C36.1366 46.5072 36.034 46.546 35.9313 46.546C35.8298 46.546 35.7271 46.5072 35.6495 46.4284C35.4931 46.2733 35.4931 46.02 35.6495 45.8637L36.7676 44.7456Z" fill="#FBD9A3"/>
<path d="M39.4177 39.1941C39.4177 38.2667 38.6658 36.7661 37.7384 36.7661C36.811 36.7661 36.0591 38.2666 36.0591 39.1941C36.0591 40.1215 36.811 40.8734 37.7384 40.8734C38.6658 40.8734 39.4177 40.1217 39.4177 39.1941Z" fill="#F9C744"/>
<path d="M39.0818 38.8197C39.0818 38.3192 38.3909 37.4717 37.8904 37.4717C37.3899 37.4717 37.2693 38.3192 37.2693 38.8197C37.2693 39.3202 37.675 39.7259 38.1755 39.7259C38.6761 39.7259 39.0818 39.3202 39.0818 38.8197Z" fill="#FBD9A3"/>
<path d="M37.7731 25.8057H28.4034C26.8081 25.8057 25.3545 26.4105 24.2586 27.403C23.0429 28.504 21.419 29.0392 19.7963 28.801L17.5017 28.4642C16.3659 28.2974 15.3469 29.1779 15.3469 30.3257V33.644C15.3469 34.7918 16.366 35.6723 17.5017 35.5055L19.7963 35.1687C21.419 34.9305 23.043 35.4657 24.2586 36.5666C25.3545 37.5592 26.8082 38.164 28.4034 38.164H37.7731C41.1857 38.164 49.2357 37.1615 49.2357 33.7489C49.1636 33.2405 48.9186 32.7679 48.5279 32.4347C48.0102 31.9933 47.6177 31.4172 47.3742 30.7705C46.2106 27.6807 40.8065 25.8057 37.7731 25.8057Z" fill="#EA792E"/>
<path d="M40.9837 33.7664C40.9837 32.3966 41.2479 30.7924 41.7058 29.2818C41.9647 28.4279 40.898 27.7975 40.2852 28.446C38.9484 29.8606 38.0649 32.1123 38.0649 33.8278C38.0649 35.4847 38.8891 36.2554 40.1498 36.6035C40.7705 36.775 41.3512 36.2017 41.1875 35.5791C41.055 35.0752 40.9837 34.4768 40.9837 33.7664Z" fill="#F39E22"/>
<path d="M40.2911 33.4163C40.2911 32.609 40.4469 31.6636 40.7167 30.7732C40.8693 30.2698 40.2406 29.8984 39.8794 30.2806C39.0916 31.1144 38.5708 32.4416 38.5708 33.4527C38.5708 34.4292 39.0565 34.8834 39.7996 35.0886C40.1654 35.1896 40.5077 34.8518 40.4112 34.4848C40.3331 34.1877 40.2911 33.835 40.2911 33.4163Z" fill="#F9C744"/>
<path d="M39.456 34.0575C39.9423 34.0575 40.3365 33.6632 40.3365 33.1769C40.3365 32.6906 39.9423 32.2964 39.456 32.2964C38.9697 32.2964 38.5754 32.6906 38.5754 33.1769C38.5754 33.6632 38.9697 34.0575 39.456 34.0575Z" fill="#FBD9A3"/>
<path d="M17.3157 31.5912H22.3667C22.8644 31.5912 23.2679 31.1878 23.2679 30.6901C23.2679 30.2431 22.9404 29.8638 22.4982 29.7985L17.4472 29.0538C16.903 28.9735 16.4146 29.3953 16.4146 29.9453V30.6901C16.4146 31.1878 16.818 31.5912 17.3157 31.5912Z" fill="#F39E22"/>
<path d="M17.549 31.8686C17.5206 31.8684 17.492 31.8675 17.4632 31.8659C16.7323 31.8241 16.1161 31.2574 16.0192 30.5318C15.892 29.5799 16.6295 28.7666 17.5565 28.7666C17.5587 28.7666 17.5608 28.7666 17.563 28.7666C17.7802 28.7675 17.8805 29.0394 17.7224 29.1882C17.4222 29.471 17.2347 29.8726 17.2347 30.318C17.2347 30.763 17.4217 31.1637 17.7215 31.4461C17.8843 31.5996 17.7727 31.8695 17.549 31.8686Z" fill="#FBD9A3"/>
<path d="M19.9743 31.8686C19.9484 31.8685 19.9224 31.8677 19.8962 31.8662C19.2307 31.8282 18.6696 31.3121 18.5814 30.6514C18.4656 29.7846 19.1371 29.0439 19.9812 29.0439C19.9832 29.0439 19.9852 29.0439 19.9872 29.0439C20.1849 29.0448 20.2763 29.2924 20.1324 29.428C19.859 29.6854 19.6882 30.0512 19.6882 30.4568C19.6882 30.862 19.8585 31.2268 20.1314 31.484C20.2797 31.6237 20.1779 31.8696 19.9743 31.8686Z" fill="#F9C744"/>
<path d="M22.0979 31.8688C22.0755 31.8686 22.053 31.8679 22.0303 31.8666C21.4544 31.8337 20.9689 31.3872 20.8926 30.8156C20.7924 30.0656 21.3734 29.4248 22.1038 29.4248C22.1055 29.4248 22.1072 29.4248 22.1089 29.4248C22.28 29.4255 22.359 29.6397 22.2345 29.757C21.9979 29.9798 21.8503 30.2963 21.8503 30.6472C21.8503 30.9978 21.9977 31.3135 22.2338 31.5359C22.3622 31.6568 22.2741 31.8696 22.0979 31.8688Z" fill="#F9C744"/>
<path d="M17.549 32.1011C17.5206 32.1012 17.492 32.1021 17.4632 32.1038C16.7323 32.1455 16.1161 32.7122 16.0192 33.4378C15.892 34.3898 16.6295 35.203 17.5565 35.203C17.5587 35.203 17.5608 35.203 17.563 35.203C17.7802 35.2021 17.8805 34.9302 17.7224 34.7814C17.4222 34.4986 17.2347 34.097 17.2347 33.6516C17.2347 33.2066 17.4217 32.806 17.7215 32.5235C17.8843 32.37 17.7727 32.1 17.549 32.1011Z" fill="#F39E22"/>
<path d="M19.9743 32.1011C19.9484 32.1012 19.9224 32.102 19.8962 32.1035C19.2307 32.1415 18.6696 32.6576 18.5814 33.3183C18.4656 34.1851 19.1371 34.9258 19.9812 34.9258C19.9832 34.9258 19.9852 34.9258 19.9872 34.9258C20.1849 34.9249 20.2763 34.6773 20.1324 34.5417C19.859 34.2843 19.6882 33.9185 19.6882 33.513C19.6882 33.1077 19.8585 32.7429 20.1314 32.4857C20.2797 32.346 20.1779 32.1001 19.9743 32.1011Z" fill="#F39E22"/>
<path d="M22.0979 32.1011C22.0755 32.1012 22.053 32.1019 22.0303 32.1032C21.4544 32.1361 20.9689 32.5826 20.8926 33.1542C20.7924 33.9042 21.3734 34.545 22.1038 34.545C22.1055 34.545 22.1072 34.545 22.1089 34.545C22.28 34.5443 22.359 34.3301 22.2345 34.2128C21.9979 33.99 21.8503 33.6735 21.8503 33.3226C21.8503 32.972 21.9977 32.6563 22.2338 32.4339C22.3622 32.313 22.2741 32.1003 22.0979 32.1011Z" fill="#F39E22"/>
<path d="M35.4886 30.9302H36.3435C37.4404 30.9302 38.3718 30.0327 38.3513 28.936C38.3314 27.8725 37.463 27.0166 36.3948 27.0166H29.0525C29.0305 27.0166 29.0093 27.0192 28.9876 27.0199C27.8041 26.967 26.6615 27.6512 26.1868 28.8105L24.8809 31.9992C24.2766 33.4748 24.983 35.161 26.4587 35.7654L28.0872 36.4321C29.5628 37.0365 31.249 36.3301 31.8532 34.8543L32.5898 32.9261C33.0489 31.7241 34.202 30.9302 35.4886 30.9302Z" fill="#F39E22"/>
<path d="M35.8386 30.1224H28.9824C28.1255 30.1224 27.4309 29.4279 27.4309 28.571C27.4309 27.7141 28.1255 27.0195 28.9824 27.0195H35.8386C36.6955 27.0195 37.3901 27.7141 37.3901 28.571C37.3901 29.4279 36.6955 30.1224 35.8386 30.1224Z" fill="#F9C744"/>
<path d="M28.9747 30.122C28.9464 30.1219 28.9178 30.1209 28.889 30.1193C28.1581 30.0776 27.5419 29.5108 27.445 28.7852C27.3178 27.8333 28.0553 27.02 28.9822 27.02C28.9845 27.02 28.9866 27.02 28.9888 27.02C29.2059 27.021 29.3063 27.2928 29.1482 27.4417C28.8479 27.7244 28.6604 28.126 28.6604 28.5715C28.6604 29.0164 28.8475 29.4171 29.1472 29.6995C29.31 29.853 29.1984 30.1229 28.9747 30.122Z" fill="#FBD9A3"/>
<path d="M32.1718 30.122C32.1434 30.1219 32.1148 30.1209 32.086 30.1193C31.3551 30.0776 30.7389 29.5108 30.642 28.7852C30.5148 27.8333 31.2523 27.02 32.1793 27.02C32.1815 27.02 32.1836 27.02 32.1858 27.02C32.403 27.021 32.5033 27.2928 32.3452 27.4417C32.045 27.7244 31.8575 28.126 31.8575 28.5715C31.8575 29.0164 32.0445 29.4171 32.3443 29.6995C32.5071 29.853 32.3955 30.1229 32.1718 30.122Z" fill="#FBD9A3"/>
<path d="M27.4572 34.5653C27.4288 34.5652 27.4002 34.5643 27.3714 34.5626C26.6405 34.5209 26.0243 33.9542 25.9274 33.2286C25.8002 32.2767 26.5377 31.4634 27.4647 31.4634C27.4669 31.4634 27.469 31.4634 27.4712 31.4634C27.6884 31.4643 27.7887 31.7362 27.6306 31.885C27.3304 32.1678 27.1429 32.5694 27.1429 33.0148C27.1429 33.4598 27.3299 33.8605 27.6297 34.1429C27.7924 34.2964 27.6807 34.5664 27.4572 34.5653Z" fill="#F9C744"/>
<path d="M30.6544 34.5653C30.6261 34.5652 30.5975 34.5643 30.5686 34.5626C29.8377 34.5209 29.2216 33.9542 29.1247 33.2286C28.9975 32.2767 29.735 31.4634 30.6619 31.4634C30.6641 31.4634 30.6663 31.4634 30.6685 31.4634C30.8856 31.4643 30.9859 31.7362 30.8279 31.885C30.5276 32.1678 30.3401 32.5694 30.3401 33.0148C30.3401 33.4598 30.5272 33.8605 30.8269 34.1429C30.9898 34.2964 30.8781 34.5664 30.6544 34.5653Z" fill="#F9C744"/>
<path d="M35.369 30.122C35.3407 30.1219 35.3121 30.1209 35.2832 30.1193C34.5523 30.0776 33.9362 29.5108 33.8393 28.7852C33.7121 27.8333 34.4496 27.02 35.3765 27.02C35.3787 27.02 35.3809 27.02 35.3831 27.02C35.6002 27.021 35.7005 27.2928 35.5425 27.4417C35.2422 27.7244 35.0547 28.126 35.0547 28.5715C35.0547 29.0164 35.2418 29.4171 35.5415 29.6995C35.7044 29.853 35.5927 30.1229 35.369 30.122Z" fill="#FBD9A3"/>
<path d="M35.376 32.1475C34.3678 32.1475 33.5505 32.9647 33.5505 33.9729V35.1546C33.5505 36.1628 34.3678 36.98 35.376 36.98C36.3841 36.98 37.2014 36.1628 37.2014 35.1546V33.9729C37.2014 32.9647 36.3841 32.1475 35.376 32.1475Z" fill="#F39E22"/>
<path d="M46.3248 36.0564C46.494 36.0564 46.6582 35.9962 46.7903 35.8855L48.5081 34.447C48.8668 34.1466 48.8811 33.5819 48.5381 33.2621L47.9587 32.7218C47.6107 32.3973 47.0658 32.4837 46.8255 32.9012L45.6872 34.8801C45.3894 35.3976 45.7465 36.0564 46.3248 36.0564Z" fill="#F39E22"/>
<path d="M47.3312 34.7927C47.8088 34.7927 48.196 34.4055 48.196 33.9278C48.196 33.4502 47.8088 33.063 47.3312 33.063C46.8535 33.063 46.4663 33.4502 46.4663 33.9278C46.4663 34.4055 46.8535 34.7927 47.3312 34.7927Z" fill="#F9C744"/>
<path d="M46.6055 31.8349C46.6055 33.1845 45.5095 34.2806 44.1598 34.2806C42.8084 34.2806 41.7141 33.1845 41.7141 31.8349C41.7141 31.4689 41.7941 31.1218 41.9388 30.8103C42.3268 29.9712 43.1744 29.3892 44.1598 29.3892C45.1436 29.3892 45.9929 29.9712 46.3809 30.8103C46.5255 31.1218 46.6055 31.469 46.6055 31.8349Z" fill="#F39E22"/>
<path d="M44.1598 32.2314C45.3864 32.2314 46.3808 31.5952 46.3808 30.8103C46.3808 30.0254 45.3864 29.3892 44.1598 29.3892C42.9331 29.3892 41.9387 30.0254 41.9387 30.8103C41.9387 31.5952 42.9331 32.2314 44.1598 32.2314Z" fill="#FBD9A3"/>
<path d="M45.7051 31.8349C45.7051 32.5004 45.283 33.0689 44.6923 33.2867C44.5256 33.3463 44.3469 33.3804 44.1596 33.3804C43.3052 33.3804 42.6143 32.6877 42.6143 31.8349C42.6143 30.9805 43.3053 30.2896 44.1596 30.2896C44.3469 30.2896 44.5256 30.3235 44.6923 30.3832C45.283 30.601 45.7051 31.1678 45.7051 31.8349Z" fill="#3F5D77"/>
<path d="M44.6924 33.2865C45.2517 33.2865 45.7052 32.6365 45.7052 31.8346C45.7052 31.0328 45.2517 30.3828 44.6924 30.3828C44.1331 30.3828 43.6797 31.0328 43.6797 31.8346C43.6797 32.6365 44.1331 33.2865 44.6924 33.2865Z" fill="#2E3140"/>
<path d="M44.1592 32.2319C44.5799 32.2319 44.9209 31.8909 44.9209 31.4702C44.9209 31.0495 44.5799 30.7085 44.1592 30.7085C43.7385 30.7085 43.3975 31.0495 43.3975 31.4702C43.3975 31.8909 43.7385 32.2319 44.1592 32.2319Z" fill="#83D5EF"/>
<path d="M52.7793 34.6827C53.7951 34.6827 54.6185 33.8593 54.6185 32.8435C54.6185 31.8278 53.7951 31.0044 52.7793 31.0044C51.7636 31.0044 50.9402 31.8278 50.9402 32.8435C50.9402 33.8593 51.7636 34.6827 52.7793 34.6827Z" fill="#83D5EF"/>
<path d="M53.0682 33.38C53.6384 33.38 54.1007 32.9177 54.1007 32.3475C54.1007 31.7772 53.6384 31.3149 53.0682 31.3149C52.4979 31.3149 52.0356 31.7772 52.0356 32.3475C52.0356 32.9177 52.4979 33.38 53.0682 33.38Z" fill="#CDE6F6"/>
<path d="M49.7468 27.1289C51.292 27.1289 52.5447 25.8763 52.5447 24.3311C52.5447 22.7858 51.292 21.5332 49.7468 21.5332C48.2016 21.5332 46.949 22.7858 46.949 24.3311C46.949 25.8763 48.2016 27.1289 49.7468 27.1289Z" fill="#83D5EF"/>
<path d="M50.1863 25.1469C51.0538 25.1469 51.757 24.4437 51.757 23.5762C51.757 22.7086 51.0538 22.0054 50.1863 22.0054C49.3187 22.0054 48.6155 22.7086 48.6155 23.5762C48.6155 24.4437 49.3187 25.1469 50.1863 25.1469Z" fill="#CDE6F6"/>
<path d="M56.6849 16.2797C56.1763 17.707 54.8134 18.7277 53.2126 18.7277C51.177 18.7277 49.5259 17.0777 49.5259 15.0422C49.5259 13.0055 51.177 11.3555 53.2126 11.3555C53.3145 11.3555 53.4142 11.359 53.5138 11.3672C53.6755 11.5711 53.8349 11.7785 53.9919 11.9871C54.6317 12.8379 55.2271 13.7238 55.7743 14.6414C56.0954 15.177 56.3989 15.723 56.6849 16.2797Z" fill="#83D5EF"/>
<path d="M55.7743 14.6412C55.5188 15.4943 54.7278 16.1166 53.7915 16.1166C52.6489 16.1166 51.7219 15.1896 51.7219 14.0471C51.7219 12.9045 52.6489 11.9775 53.7915 11.9775C53.8594 11.9775 53.9262 11.9811 53.9918 11.9869C54.6317 12.8377 55.227 13.7236 55.7743 14.6412Z" fill="#CDE6F6"/>
<path d="M41.4588 14.0476C43.4946 14.0476 45.145 12.3972 45.145 10.3614C45.145 8.32563 43.4946 6.67529 41.4588 6.67529C39.423 6.67529 37.7727 8.32563 37.7727 10.3614C37.7727 12.3972 39.423 14.0476 41.4588 14.0476Z" fill="#83D5EF"/>
<path d="M42.0377 11.4362C43.1806 11.4362 44.1071 10.5097 44.1071 9.36678C44.1071 8.22387 43.1806 7.29736 42.0377 7.29736C40.8948 7.29736 39.9683 8.22387 39.9683 9.36678C39.9683 10.5097 40.8948 11.4362 42.0377 11.4362Z" fill="#CDE6F6"/>
<path d="M37.4836 0.941113C36.2191 0.616504 34.9219 0.371582 33.5988 0.214551C32.9086 0.131348 32.2113 0.071582 31.507 0.0375977C31.4297 0.334082 31.3887 0.645801 31.3887 0.966895C31.3887 3.00361 33.0398 4.65361 35.0754 4.65361C36.9996 4.65361 38.5805 3.17822 38.7469 1.29619C38.3297 1.16846 37.9078 1.0501 37.4836 0.941113Z" fill="#83D5EF"/>
<path d="M37.4836 0.940918C37.1368 1.596 36.4477 2.04248 35.6543 2.04248C34.5938 2.04248 33.7184 1.24326 33.5989 0.214355C34.9219 0.371387 36.2192 0.616309 37.4836 0.940918Z" fill="#CDE6F6"/>
</g>
<defs>
<clipPath id="clip0_1123_22679">
<rect width="60" height="60" fill="white"/>
</clipPath>
</defs>
</svg>
