<svg width="60" height="60" viewBox="0 0 60 60" fill="none" xmlns="http://www.w3.org/2000/svg">
<g clip-path="url(#clip0_1123_24392)">
<path d="M30 60C46.5685 60 60 46.5685 60 30C60 13.4315 46.5685 0 30 0C13.4315 0 0 13.4315 0 30C0 46.5685 13.4315 60 30 60Z" fill="#53B976"/>
<path d="M48.8918 25.2163C48.6223 25.037 48.3211 24.9456 48.0199 24.9339C47.9768 24.5164 47.8517 24.0787 47.6613 23.7011C48.0129 23.3893 48.2355 22.9358 48.2355 22.4284C48.2027 20.5417 45.6609 20.0964 44.9625 21.7944C44.6665 21.7425 43.1212 21.7745 42.7934 21.7663C42.2707 20.3225 40.1484 20.3225 39.6258 21.7663H37.684C37.6491 20.6877 36.5108 19.9107 35.4879 20.2452L34.8973 18.4253C36.2876 17.417 35.4804 15.2856 33.8965 15.3468C33.8205 15.1276 33.3169 13.5217 33.2332 13.3499C33.8976 12.8319 34.1543 11.8311 33.6211 11.053C32.7387 9.81316 31.1637 10.2374 30.6621 11.2792C30.2265 11.195 29.7435 11.1975 29.3086 11.285C28.7648 10.1741 27.0059 9.86707 26.2559 11.2651C25.8609 12.0198 26.1363 12.9081 26.7516 13.385C26.6907 13.5069 26.152 15.2086 26.0918 15.3819C24.5042 15.3221 23.7033 17.4528 25.0922 18.4604L24.5027 20.271C23.4832 19.9175 22.3237 20.7124 22.2891 21.7663H20.3379C19.8152 20.3225 17.693 20.3225 17.1703 21.7663C16.8069 21.7758 15.335 21.7389 15.0023 21.7991C14.7504 21.1768 14.141 20.7374 13.4285 20.7374C11.8649 20.7261 11.1266 22.7316 12.3258 23.7303C12.1355 24.1114 12.0151 24.5521 11.9754 24.9702C11.4621 24.9983 10.9617 25.2444 10.6617 25.7155C9.5864 27.3784 11.7137 29.2147 13.1824 27.9444C13.3018 28.059 14.6362 29.0101 14.7996 29.1339C14.0693 30.8118 16.1294 32.3265 17.4961 31.0932L19.0043 32.1889C18.2287 33.0261 18.5767 34.5455 19.7426 34.9206L19.1531 36.7382C17.5667 36.6779 16.7623 38.8083 18.1523 39.8167C18.0321 40.2232 17.5945 41.4219 17.5488 41.8253C16.8527 41.8171 16.1508 42.2143 15.8988 43.105C15.5095 44.6505 17.3129 45.8392 18.573 44.8722C18.8578 45.1475 19.1848 45.3714 19.5375 45.5378C19.1754 46.555 19.8703 47.8147 21.1383 47.8182C22.3179 47.8448 23.2005 46.5379 22.6969 45.444C22.9892 45.3035 24.0532 44.4881 24.3375 44.2921C25.7091 45.5325 27.7636 44.0026 27.0328 42.3339L28.548 41.2323C29.1797 42.3335 30.8263 42.3368 31.4625 41.2405L32.9965 42.355C32.266 44.0242 34.3202 45.553 35.6918 44.3132C36.0015 44.5273 37.0121 45.3069 37.3336 45.4616C36.8473 46.5479 37.6922 47.8522 38.8969 47.8323C40.0779 47.8507 40.909 46.6004 40.4894 45.5249C40.841 45.355 41.1656 45.1276 41.448 44.8499C42.6163 45.745 44.3307 44.719 44.1363 43.2819C43.9887 42.2729 43.2152 41.7889 42.4465 41.7925C42.4003 41.4177 41.9489 40.1627 41.8359 39.7827C43.1966 38.8036 42.4712 36.6607 40.8363 36.7042L40.8105 36.6245L40.248 34.8925C41.4213 34.5341 41.7867 33.0097 41.0215 32.1702L42.5332 31.0721C43.9016 32.3051 45.9596 30.7908 45.2297 29.1128C45.4261 28.9637 46.6911 28.0678 46.8434 27.921C48.6966 29.3994 50.8236 26.6366 48.8918 25.2163ZM46.7285 25.4483C46.3336 25.8538 46.2 26.3671 46.2668 26.8487C46.0585 27.1146 44.6761 28.0484 44.3906 28.2737C43.1823 27.7059 41.8098 28.7402 41.9977 30.0128L39.832 31.5866C38.0373 31.4481 37.2884 33.9299 38.9871 34.8069C39.1658 35.3559 39.564 36.58 39.7383 37.1178C38.6406 38.0221 39.1785 39.9568 40.7039 40.0909C40.8209 40.507 41.3132 41.7909 41.318 42.2061C40.918 42.5268 40.6468 43.234 40.7859 43.8409C40.4836 44.2018 40.0758 44.4725 39.6234 44.6085C39.1863 44.4022 38.6672 44.3694 38.2078 44.5721C37.7493 44.4452 36.6353 43.5234 36.2285 43.2538C36.4173 41.973 35.0318 40.9488 33.8332 41.5147L31.6629 39.9374C31.2194 38.2602 28.8144 38.2503 28.3559 39.9233L26.1949 41.4936C24.9967 40.9282 23.6107 41.9548 23.8008 43.2339C23.3953 43.5022 22.2644 44.4325 21.8121 44.5651C21.3574 44.3706 20.823 44.3647 20.3625 44.6038C19.916 44.4678 19.5141 44.1995 19.2141 43.8421C19.3384 43.1899 19.0772 42.5774 18.6785 42.2472C18.6751 41.8139 19.1637 40.5557 19.2844 40.1249C20.8111 39.9902 21.3489 38.0549 20.25 37.153L20.9965 34.855C22.7135 34.0039 22.0044 31.5186 20.2148 31.6194L18.0316 30.0339C18.2191 28.7617 16.8446 27.727 15.6387 28.2948C15.3657 28.0799 13.958 27.1213 13.7578 26.8757C13.8548 26.3313 13.5954 25.678 13.1332 25.3276C13.1297 24.9116 13.2351 24.4991 13.4355 24.1358C14.1644 24.137 14.8113 23.6518 15.0387 22.9768C15.3317 22.9054 16.8266 22.9495 17.1527 22.9382C17.6863 24.4413 19.8221 24.4413 20.3555 22.9382H22.65C23.993 24.5565 26.4018 22.911 25.4754 21.0702L26.223 18.7686C27.7509 18.6339 28.2868 16.699 27.1898 15.7956C27.2634 15.5913 27.7946 13.8724 27.8836 13.7249C28.5722 13.6882 29.2493 13.1667 29.4129 12.4628C29.794 12.3655 30.1956 12.3654 30.5777 12.4593C30.7543 13.151 31.4069 13.6554 32.1012 13.6921C32.2075 13.8682 32.7169 15.5331 32.7996 15.7616C31.6998 16.6651 32.2399 18.6 33.7652 18.7346L34.5094 21.0245C33.5326 22.8661 35.9722 24.5237 37.3031 22.9382H39.6082C40.1417 24.4413 42.2776 24.4413 42.8109 22.9382C43.1207 22.9485 44.6529 22.9096 44.9273 22.9698C45.1584 23.6346 45.8019 24.1523 46.5598 24.1264C46.7625 24.4909 46.8691 24.9046 46.8668 25.3218C46.8187 25.3616 46.7719 25.4026 46.7285 25.4483Z" fill="#FBCB74"/>
<path d="M47.9496 28.3311C47.5078 28.3323 47.1305 28.1729 46.8434 27.921C46.6975 28.063 45.4188 28.9691 45.2297 29.1128C45.9597 30.7923 43.9006 32.3044 42.5332 31.0721L41.0215 32.1702C41.7873 33.0105 41.4205 34.5345 40.2481 34.8925L40.8105 36.6245C29.4356 33.3218 20.0657 28.4602 15.5215 21.7663H17.1703C17.693 20.3225 19.8152 20.3225 20.3379 21.7663H22.2891C22.3239 20.7118 23.4836 19.9177 24.5027 20.271L25.0922 18.4604C23.7021 17.4516 24.506 15.3217 26.0918 15.3819C26.1546 15.2007 26.6885 13.5136 26.7516 13.385C26.1363 12.9081 25.8609 12.0198 26.2559 11.2651C27.0059 9.86707 28.7648 10.1741 29.3086 11.285C29.7435 11.1975 30.2265 11.195 30.6621 11.2792C31.1637 10.2374 32.7387 9.81316 33.6211 11.053C34.1543 11.8311 33.8977 12.8319 33.2332 13.3499C33.3143 13.5141 33.8235 15.1363 33.8965 15.3468C35.4822 15.2861 36.2865 17.4183 34.8973 18.4253L35.4879 20.2452C36.5113 19.9106 37.6491 20.6882 37.684 21.7663H39.6258C40.1484 20.3225 42.2707 20.3225 42.7934 21.7663C43.1309 21.7746 44.6577 21.7423 44.9625 21.7944C45.6609 20.0964 48.2027 20.5417 48.2355 22.4284C48.2355 22.9358 48.0129 23.3893 47.6613 23.7011C47.8519 24.0787 47.9768 24.5164 48.0199 24.9339C50.2147 25.0705 50.1443 28.277 47.9496 28.3311Z" fill="#FBD9A3"/>
<path d="M45.8977 27.1794L39.6809 31.6958C38.8582 32.2935 38.5149 33.3517 38.829 34.3173L41.2032 41.6263C41.5618 42.729 41.0918 43.7368 40.302 44.2818C39.5461 44.8044 38.4938 44.9005 37.595 44.2478L31.3782 39.7314C30.5567 39.1337 29.4434 39.1337 28.6219 39.7314L22.4051 44.2478C21.5063 44.9005 20.454 44.8044 19.6981 44.2818C18.9083 43.7368 18.4383 42.729 18.7969 41.6263L21.1711 34.3173C21.4852 33.3517 21.1418 32.2935 20.3192 31.6958L14.1024 27.1794C13.132 26.4691 12.9353 25.3419 13.3079 24.3997H13.309C13.6383 23.5806 14.4129 22.9384 15.4805 22.9384H23.1657C24.1817 22.9384 25.0817 22.2833 25.3958 21.3177L27.77 14.0099C28.1215 12.9259 29.0672 12.3857 30.0094 12.3892C30.9458 12.3927 31.8809 12.9329 32.2301 14.0099L34.6043 21.3177C34.9184 22.2833 35.8184 22.9384 36.8344 22.9384H44.5196C46.7916 22.9389 47.7341 25.8453 45.8977 27.1794Z" fill="#F39E22"/>
<path d="M46.7542 24.5755V24.5813L32.6987 28.2622C31.3394 28.6185 30.0093 27.5931 30.0093 26.1868V12.3892C30.9456 12.3927 31.8808 12.9329 32.23 14.0099L34.6042 21.3177C34.9183 22.2833 35.8183 22.9384 36.8343 22.9384H44.5194C45.662 22.9384 46.4694 23.6743 46.7542 24.5755Z" fill="#F9C744"/>
<path d="M45.8976 27.1796L39.6808 31.696C38.8582 32.2937 38.5148 33.3519 38.8289 34.3175L41.2031 41.6265C41.5617 42.7292 41.0918 43.737 40.3019 44.2819H40.2996L31.5562 31.3515C30.7992 30.2312 31.3711 28.6983 32.6777 28.3479L46.7543 24.5757C47.0367 25.4651 46.8105 26.5163 45.8976 27.1796Z" fill="#EA792E"/>
<path d="M28.4402 31.3515L19.698 44.2819C18.9082 43.737 18.4382 42.7292 18.7968 41.6265L21.171 34.3175C21.4851 33.3519 21.1417 32.2937 20.3191 31.696L14.1023 27.1796C13.1894 26.5163 12.9632 25.4651 13.2457 24.5757L27.3199 28.3479C28.6265 28.6983 29.1984 30.2312 28.4402 31.3515Z" fill="#EA792E"/>
</g>
<defs>
<clipPath id="clip0_1123_24392">
<rect width="60" height="60" fill="white"/>
</clipPath>
</defs>
</svg>
