<svg width="312" height="155" viewBox="0 0 312 155" fill="none" xmlns="http://www.w3.org/2000/svg">
<rect width="312" height="155" fill="#FAFAFA"/>
<line x1="27.5" y1="14" x2="27.5" y2="141" stroke="#CCCCCC"/>
<line x1="298" y1="125.5" x2="14" y2="125.5" stroke="#CCCCCC"/>
<path d="M84 51.5001C68.5 51.5001 27.5 77.0001 27.5 77.0001V125H158H288.5V71.0001C288.5 71.0001 276 42 267.5 39.0001C259 36.0002 193.5 15.5003 180.5 21.5001C167.5 27.4999 148.5 97.5001 138 97.5001C127.5 97.5001 99.5 51.5001 84 51.5001Z" fill="#159ADD" fill-opacity="0.5"/>
<path d="M28 76.5938C28 76.5938 69 51.0938 84.5 51.0938C100 51.0938 128 97.0938 138.5 97.0938C149 97.0938 168 27.0936 181 21.0938C194 15.094 259.5 35.5939 268 38.5938C276.5 41.5937 289 70.5938 289 70.5938" stroke="#159ADD" stroke-width="3"/>
</svg>
