<svg width="312" height="155" viewBox="0 0 312 155" fill="none" xmlns="http://www.w3.org/2000/svg">
<rect width="312" height="155" fill="#FAFAFA"/>
<line x1="27.5" y1="14" x2="27.5" y2="141" stroke="#CCCCCC"/>
<line x1="288" y1="125.5" x2="14" y2="125.5" stroke="#CCCCCC"/>
<path fill-rule="evenodd" clip-rule="evenodd" d="M27 13H28V43.944C28 43.944 55 37.2943 70.5 37.2943C79.0022 37.2943 95.177 34.3108 109.782 31.6168C121.802 29.3995 132.76 27.3784 137.5 27.3784C143.873 27.3784 160.193 34.7208 174.944 41.3573C184.496 45.6548 193.391 49.6564 198.5 51.1766C206.329 53.5059 220.686 52.4902 232.725 51.6385C240.678 51.076 247.619 50.5849 251 51.1766C258.567 52.5007 282.775 67.9692 288 71.3499V101.334C283.034 100.522 260.712 97 247 97C238.498 97 222.925 99.4071 208.863 101.581C197.29 103.369 186.74 105 182 105C174.394 105 152.62 97.6017 136.254 92.0408L136.254 92.0408L136.254 92.0407C130.027 89.9249 124.583 88.0751 121 87C112.635 84.49 94.3325 89.3508 80.0805 93.1358C72.1838 95.233 65.5305 97 62.5 97C54 97 28 75.5 28 75.5V125H27V13Z" fill="#159ADD" fill-opacity="0.5"/>
<path d="M69.5 37.5C54 37.5 27 44.2061 27 44.2061V12.9997H157.5H288V72.5C288 72.5 258.5 53 250 51.5C241.5 50 210.5 55.4007 197.5 51.5C184.5 47.5993 147 27.5 136.5 27.5C126 27.5 85 37.5 69.5 37.5Z" fill="#34A853" fill-opacity="0.8"/>
<path d="M27 44.2061C27 44.2061 54 37.5 69.5 37.5C85 37.5 126 27.5 136.5 27.5C147 27.5 184.5 47.5993 197.5 51.5C210.5 55.4007 241.5 50 250 51.5C258.5 53 288 72.5 288 72.5" stroke="#34A853" stroke-width="3"/>
<path d="M246 97C261.5 97 288 101.5 288 101.5V125.5H157.5H27V75.5C27 75.5 53 97 61.5 97C70 97 107 83.0993 120 87C133 90.9007 170.5 105 181 105C191.5 105 230.5 97 246 97Z" fill="#EE7538" fill-opacity="0.7"/>
<path d="M288 101.5C288 101.5 261.5 97 246 97C230.5 97 191.5 105 181 105C170.5 105 133 90.9007 120 87C107 83.0993 70 97 61.5 97C53 97 27 75.5 27 75.5" stroke="#EE7538" stroke-width="3"/>
</svg>
