<svg width="312" height="155" viewBox="0 0 312 155" fill="none" xmlns="http://www.w3.org/2000/svg">
<rect width="312" height="155" fill="#FAFAFA"/>
<rect width="312" height="155" fill="#FAFAFA"/>
<path d="M21.368 74.76V94H19.002V74.76H21.368ZM38.4004 86.33C38.4004 86.7807 38.3744 87.2573 38.3224 87.76H26.9344C27.0211 89.164 27.4978 90.2647 28.3644 91.062C29.2484 91.842 30.3144 92.232 31.5624 92.232C32.5851 92.232 33.4344 91.998 34.1104 91.53C34.8038 91.0447 35.2891 90.4033 35.5664 89.606H38.1144C37.7331 90.9753 36.9704 92.0933 35.8264 92.96C34.6824 93.8093 33.2611 94.234 31.5624 94.234C30.2104 94.234 28.9971 93.9307 27.9224 93.324C26.8651 92.7173 26.0331 91.8593 25.4264 90.75C24.8198 89.6233 24.5164 88.3233 24.5164 86.85C24.5164 85.3767 24.8111 84.0853 25.4004 82.976C25.9898 81.8667 26.8131 81.0173 27.8704 80.428C28.9451 79.8213 30.1758 79.518 31.5624 79.518C32.9144 79.518 34.1104 79.8127 35.1504 80.402C36.1904 80.9913 36.9878 81.806 37.5424 82.846C38.1144 83.8687 38.4004 85.03 38.4004 86.33ZM35.9564 85.836C35.9564 84.9347 35.7571 84.1633 35.3584 83.522C34.9598 82.8633 34.4138 82.3693 33.7204 82.04C33.0444 81.6933 32.2904 81.52 31.4584 81.52C30.2624 81.52 29.2398 81.9013 28.3904 82.664C27.5584 83.4267 27.0818 84.484 26.9604 85.836H35.9564ZM40.6395 86.824C40.6395 85.368 40.9342 84.094 41.5235 83.002C42.1128 81.8927 42.9188 81.0347 43.9415 80.428C44.9815 79.8213 46.1342 79.518 47.3995 79.518C48.6475 79.518 49.7308 79.7867 50.6495 80.324C51.5682 80.8613 52.2528 81.5373 52.7035 82.352V79.752H55.0955V94H52.7035V91.348C52.2355 92.18 51.5335 92.8733 50.5975 93.428C49.6788 93.9653 48.6042 94.234 47.3735 94.234C46.1082 94.234 44.9642 93.922 43.9415 93.298C42.9188 92.674 42.1128 91.7987 41.5235 90.672C40.9342 89.5453 40.6395 88.2627 40.6395 86.824ZM52.7035 86.85C52.7035 85.7753 52.4868 84.8393 52.0535 84.042C51.6202 83.2447 51.0308 82.638 50.2855 82.222C49.5575 81.7887 48.7515 81.572 47.8675 81.572C46.9835 81.572 46.1775 81.78 45.4495 82.196C44.7215 82.612 44.1408 83.2187 43.7075 84.016C43.2742 84.8133 43.0575 85.7493 43.0575 86.824C43.0575 87.916 43.2742 88.8693 43.7075 89.684C44.1408 90.4813 44.7215 91.0967 45.4495 91.53C46.1775 91.946 46.9835 92.154 47.8675 92.154C48.7515 92.154 49.5575 91.946 50.2855 91.53C51.0308 91.0967 51.6202 90.4813 52.0535 89.684C52.4868 88.8693 52.7035 87.9247 52.7035 86.85ZM61.4598 82.066C61.8758 81.2513 62.4651 80.6187 63.2278 80.168C64.0078 79.7173 64.9525 79.492 66.0618 79.492V81.936H65.4378C62.7858 81.936 61.4598 83.3747 61.4598 86.252V94H59.0938V79.752H61.4598V82.066ZM75.735 79.492C77.4683 79.492 78.8723 80.0207 79.947 81.078C81.0217 82.118 81.559 83.626 81.559 85.602V94H79.219V85.94C79.219 84.5187 78.8637 83.4353 78.153 82.69C77.4423 81.9273 76.4717 81.546 75.241 81.546C73.993 81.546 72.9963 81.936 72.251 82.716C71.523 83.496 71.159 84.6313 71.159 86.122V94H68.793V79.752H71.159V81.78C71.627 81.052 72.2597 80.4887 73.057 80.09C73.8717 79.6913 74.7643 79.492 75.735 79.492ZM86.6459 77.438C86.1952 77.438 85.8139 77.282 85.5019 76.97C85.1899 76.658 85.0339 76.2767 85.0339 75.826C85.0339 75.3753 85.1899 74.994 85.5019 74.682C85.8139 74.37 86.1952 74.214 86.6459 74.214C87.0792 74.214 87.4432 74.37 87.7379 74.682C88.0499 74.994 88.2059 75.3753 88.2059 75.826C88.2059 76.2767 88.0499 76.658 87.7379 76.97C87.4432 77.282 87.0792 77.438 86.6459 77.438ZM87.7899 79.752V94H85.4239V79.752H87.7899ZM98.7643 79.492C100.498 79.492 101.902 80.0207 102.976 81.078C104.051 82.118 104.588 83.626 104.588 85.602V94H102.248V85.94C102.248 84.5187 101.893 83.4353 101.182 82.69C100.472 81.9273 99.501 81.546 98.2703 81.546C97.0223 81.546 96.0256 81.936 95.2803 82.716C94.5523 83.496 94.1883 84.6313 94.1883 86.122V94H91.8223V79.752H94.1883V81.78C94.6563 81.052 95.289 80.4887 96.0863 80.09C96.901 79.6913 97.7936 79.492 98.7643 79.492ZM114.329 79.518C115.56 79.518 116.635 79.7867 117.553 80.324C118.489 80.8613 119.183 81.5373 119.633 82.352V79.752H122.025V94.312C122.025 95.612 121.748 96.7647 121.193 97.77C120.639 98.7927 119.841 99.59 118.801 100.162C117.779 100.734 116.583 101.02 115.213 101.02C113.341 101.02 111.781 100.578 110.533 99.694C109.285 98.81 108.549 97.6053 108.323 96.08H110.663C110.923 96.9467 111.461 97.64 112.275 98.16C113.09 98.6973 114.069 98.966 115.213 98.966C116.513 98.966 117.571 98.5587 118.385 97.744C119.217 96.9293 119.633 95.7853 119.633 94.312V91.322C119.165 92.154 118.472 92.8473 117.553 93.402C116.635 93.9567 115.56 94.234 114.329 94.234C113.064 94.234 111.911 93.922 110.871 93.298C109.849 92.674 109.043 91.7987 108.453 90.672C107.864 89.5453 107.569 88.2627 107.569 86.824C107.569 85.368 107.864 84.094 108.453 83.002C109.043 81.8927 109.849 81.0347 110.871 80.428C111.911 79.8213 113.064 79.518 114.329 79.518ZM119.633 86.85C119.633 85.7753 119.417 84.8393 118.983 84.042C118.55 83.2447 117.961 82.638 117.215 82.222C116.487 81.7887 115.681 81.572 114.797 81.572C113.913 81.572 113.107 81.78 112.379 82.196C111.651 82.612 111.071 83.2187 110.637 84.016C110.204 84.8133 109.987 85.7493 109.987 86.824C109.987 87.916 110.204 88.8693 110.637 89.684C111.071 90.4813 111.651 91.0967 112.379 91.53C113.107 91.946 113.913 92.154 114.797 92.154C115.681 92.154 116.487 91.946 117.215 91.53C117.961 91.0967 118.55 90.4813 118.983 89.684C119.417 88.8693 119.633 87.9247 119.633 86.85Z" fill="#FF5C00"/>
<path d="M19.858 22.798C19.858 21.3073 20.1613 20.0073 20.768 18.898C21.3747 17.7713 22.2153 16.9047 23.29 16.298C24.3647 15.674 25.5953 15.362 26.982 15.362C28.7673 15.362 30.2407 15.8127 31.402 16.714C32.5807 17.598 33.3693 18.846 33.768 20.458H29.842C29.634 19.834 29.2787 19.3487 28.776 19.002C28.2907 18.638 27.684 18.456 26.956 18.456C25.916 18.456 25.0927 18.8373 24.486 19.6C23.8793 20.3453 23.576 21.4113 23.576 22.798C23.576 24.1673 23.8793 25.2333 24.486 25.996C25.0927 26.7413 25.916 27.114 26.956 27.114C28.4293 27.114 29.3913 26.4553 29.842 25.138H33.768C33.3693 26.698 32.5807 27.9373 31.402 28.856C30.2233 29.7747 28.75 30.234 26.982 30.234C25.5953 30.234 24.3647 29.9307 23.29 29.324C22.2153 28.7 21.3747 27.8333 20.768 26.724C20.1613 25.5973 19.858 24.2887 19.858 22.798ZM42.8306 30.234C41.444 30.234 40.196 29.9307 39.0866 29.324C37.9773 28.7 37.102 27.8247 36.4606 26.698C35.8366 25.5713 35.5246 24.2713 35.5246 22.798C35.5246 21.3247 35.8453 20.0247 36.4866 18.898C37.1453 17.7713 38.038 16.9047 39.1646 16.298C40.2913 15.674 41.548 15.362 42.9346 15.362C44.3213 15.362 45.578 15.674 46.7046 16.298C47.8313 16.9047 48.7153 17.7713 49.3566 18.898C50.0153 20.0247 50.3446 21.3247 50.3446 22.798C50.3446 24.2713 50.0066 25.5713 49.3306 26.698C48.672 27.8247 47.7706 28.7 46.6266 29.324C45.5 29.9307 44.2346 30.234 42.8306 30.234ZM42.8306 27.062C43.4893 27.062 44.1046 26.906 44.6766 26.594C45.266 26.2647 45.734 25.7793 46.0806 25.138C46.4273 24.4967 46.6006 23.7167 46.6006 22.798C46.6006 21.4287 46.2366 20.38 45.5086 19.652C44.798 18.9067 43.9226 18.534 42.8826 18.534C41.8426 18.534 40.9673 18.9067 40.2566 19.652C39.5633 20.38 39.2166 21.4287 39.2166 22.798C39.2166 24.1673 39.5546 25.2247 40.2306 25.97C40.924 26.698 41.7906 27.062 42.8306 27.062ZM70.9027 15.388C72.6707 15.388 74.092 15.934 75.1667 17.026C76.2587 18.1007 76.8047 19.6087 76.8047 21.55V30H73.1647V22.044C73.1647 20.9173 72.8787 20.0593 72.3067 19.47C71.7347 18.8633 70.9547 18.56 69.9667 18.56C68.9787 18.56 68.19 18.8633 67.6007 19.47C67.0287 20.0593 66.7427 20.9173 66.7427 22.044V30H63.1027V22.044C63.1027 20.9173 62.8167 20.0593 62.2447 19.47C61.6727 18.8633 60.8927 18.56 59.9047 18.56C58.8994 18.56 58.102 18.8633 57.5127 19.47C56.9407 20.0593 56.6547 20.9173 56.6547 22.044V30H53.0147V15.596H56.6547V17.338C57.1227 16.7313 57.7207 16.2547 58.4487 15.908C59.194 15.5613 60.0087 15.388 60.8927 15.388C62.0194 15.388 63.0247 15.6307 63.9087 16.116C64.7927 16.584 65.4774 17.26 65.9627 18.144C66.4307 17.312 67.1067 16.6447 67.9907 16.142C68.892 15.6393 69.8627 15.388 70.9027 15.388ZM98.1468 15.388C99.9148 15.388 101.336 15.934 102.411 17.026C103.503 18.1007 104.049 19.6087 104.049 21.55V30H100.409V22.044C100.409 20.9173 100.123 20.0593 99.5508 19.47C98.9788 18.8633 98.1988 18.56 97.2108 18.56C96.2228 18.56 95.4342 18.8633 94.8448 19.47C94.2728 20.0593 93.9868 20.9173 93.9868 22.044V30H90.3468V22.044C90.3468 20.9173 90.0608 20.0593 89.4888 19.47C88.9168 18.8633 88.1368 18.56 87.1488 18.56C86.1435 18.56 85.3462 18.8633 84.7568 19.47C84.1848 20.0593 83.8988 20.9173 83.8988 22.044V30H80.2588V15.596H83.8988V17.338C84.3668 16.7313 84.9648 16.2547 85.6928 15.908C86.4382 15.5613 87.2528 15.388 88.1368 15.388C89.2635 15.388 90.2688 15.6307 91.1528 16.116C92.0368 16.584 92.7215 17.26 93.2068 18.144C93.6748 17.312 94.3508 16.6447 95.2348 16.142C96.1362 15.6393 97.1068 15.388 98.1468 15.388ZM121.101 15.596V30H117.435V28.18C116.967 28.804 116.352 29.298 115.589 29.662C114.844 30.0087 114.029 30.182 113.145 30.182C112.018 30.182 111.022 29.948 110.155 29.48C109.288 28.9947 108.604 28.2927 108.101 27.374C107.616 26.438 107.373 25.3287 107.373 24.046V15.596H111.013V23.526C111.013 24.67 111.299 25.554 111.871 26.178C112.443 26.7847 113.223 27.088 114.211 27.088C115.216 27.088 116.005 26.7847 116.577 26.178C117.149 25.554 117.435 24.67 117.435 23.526V15.596H121.101ZM132.674 15.388C134.39 15.388 135.777 15.934 136.834 17.026C137.892 18.1007 138.42 19.6087 138.42 21.55V30H134.78V22.044C134.78 20.9 134.494 20.0247 133.922 19.418C133.35 18.794 132.57 18.482 131.582 18.482C130.577 18.482 129.78 18.794 129.19 19.418C128.618 20.0247 128.332 20.9 128.332 22.044V30H124.692V15.596H128.332V17.39C128.818 16.766 129.433 16.2807 130.178 15.934C130.941 15.57 131.773 15.388 132.674 15.388ZM143.728 13.88C143.087 13.88 142.549 13.6807 142.116 13.282C141.7 12.866 141.492 12.3547 141.492 11.748C141.492 11.1413 141.7 10.6387 142.116 10.24C142.549 9.824 143.087 9.616 143.728 9.616C144.369 9.616 144.898 9.824 145.314 10.24C145.747 10.6387 145.964 11.1413 145.964 11.748C145.964 12.3547 145.747 12.866 145.314 13.282C144.898 13.6807 144.369 13.88 143.728 13.88ZM145.522 15.596V30H141.882V15.596H145.522ZM148.182 22.798C148.182 21.3073 148.486 20.0073 149.092 18.898C149.699 17.7713 150.54 16.9047 151.614 16.298C152.689 15.674 153.92 15.362 155.306 15.362C157.092 15.362 158.565 15.8127 159.726 16.714C160.905 17.598 161.694 18.846 162.092 20.458H158.166C157.958 19.834 157.603 19.3487 157.1 19.002C156.615 18.638 156.008 18.456 155.28 18.456C154.24 18.456 153.417 18.8373 152.81 19.6C152.204 20.3453 151.9 21.4113 151.9 22.798C151.9 24.1673 152.204 25.2333 152.81 25.996C153.417 26.7413 154.24 27.114 155.28 27.114C156.754 27.114 157.716 26.4553 158.166 25.138H162.092C161.694 26.698 160.905 27.9373 159.726 28.856C158.548 29.7747 157.074 30.234 155.306 30.234C153.92 30.234 152.689 29.9307 151.614 29.324C150.54 28.7 149.699 27.8333 149.092 26.724C148.486 25.5973 148.182 24.2887 148.182 22.798ZM163.823 22.746C163.823 21.29 164.109 19.9987 164.681 18.872C165.27 17.7453 166.059 16.8787 167.047 16.272C168.052 15.6653 169.17 15.362 170.401 15.362C171.476 15.362 172.412 15.5787 173.209 16.012C174.024 16.4453 174.674 16.9913 175.159 17.65V15.596H178.825V30H175.159V27.894C174.691 28.57 174.041 29.1333 173.209 29.584C172.394 30.0173 171.45 30.234 170.375 30.234C169.162 30.234 168.052 29.922 167.047 29.298C166.059 28.674 165.27 27.7987 164.681 26.672C164.109 25.528 163.823 24.2193 163.823 22.746ZM175.159 22.798C175.159 21.914 174.986 21.16 174.639 20.536C174.292 19.8947 173.824 19.4093 173.235 19.08C172.646 18.7333 172.013 18.56 171.337 18.56C170.661 18.56 170.037 18.7247 169.465 19.054C168.893 19.3833 168.425 19.8687 168.061 20.51C167.714 21.134 167.541 21.8793 167.541 22.746C167.541 23.6127 167.714 24.3753 168.061 25.034C168.425 25.6753 168.893 26.1693 169.465 26.516C170.054 26.8627 170.678 27.036 171.337 27.036C172.013 27.036 172.646 26.8713 173.235 26.542C173.824 26.1953 174.292 25.71 174.639 25.086C174.986 24.4447 175.159 23.682 175.159 22.798ZM186.618 18.586V25.554C186.618 26.0393 186.731 26.3947 186.956 26.62C187.199 26.828 187.597 26.932 188.152 26.932H189.842V30H187.554C184.486 30 182.952 28.5093 182.952 25.528V18.586H181.236V15.596H182.952V12.034H186.618V15.596H189.842V18.586H186.618ZM194.306 13.88C193.665 13.88 193.127 13.6807 192.694 13.282C192.278 12.866 192.07 12.3547 192.07 11.748C192.07 11.1413 192.278 10.6387 192.694 10.24C193.127 9.824 193.665 9.616 194.306 9.616C194.947 9.616 195.476 9.824 195.892 10.24C196.325 10.6387 196.542 11.1413 196.542 11.748C196.542 12.3547 196.325 12.866 195.892 13.282C195.476 13.6807 194.947 13.88 194.306 13.88ZM196.1 15.596V30H192.46V15.596H196.1ZM206.092 30.234C204.706 30.234 203.458 29.9307 202.348 29.324C201.239 28.7 200.364 27.8247 199.722 26.698C199.098 25.5713 198.786 24.2713 198.786 22.798C198.786 21.3247 199.107 20.0247 199.748 18.898C200.407 17.7713 201.3 16.9047 202.426 16.298C203.553 15.674 204.81 15.362 206.196 15.362C207.583 15.362 208.84 15.674 209.966 16.298C211.093 16.9047 211.977 17.7713 212.618 18.898C213.277 20.0247 213.606 21.3247 213.606 22.798C213.606 24.2713 213.268 25.5713 212.592 26.698C211.934 27.8247 211.032 28.7 209.888 29.324C208.762 29.9307 207.496 30.234 206.092 30.234ZM206.092 27.062C206.751 27.062 207.366 26.906 207.938 26.594C208.528 26.2647 208.996 25.7793 209.342 25.138C209.689 24.4967 209.862 23.7167 209.862 22.798C209.862 21.4287 209.498 20.38 208.77 19.652C208.06 18.9067 207.184 18.534 206.144 18.534C205.104 18.534 204.229 18.9067 203.518 19.652C202.825 20.38 202.478 21.4287 202.478 22.798C202.478 24.1673 202.816 25.2247 203.492 25.97C204.186 26.698 205.052 27.062 206.092 27.062ZM224.258 15.388C225.974 15.388 227.361 15.934 228.418 17.026C229.476 18.1007 230.004 19.6087 230.004 21.55V30H226.364V22.044C226.364 20.9 226.078 20.0247 225.506 19.418C224.934 18.794 224.154 18.482 223.166 18.482C222.161 18.482 221.364 18.794 220.774 19.418C220.202 20.0247 219.916 20.9 219.916 22.044V30H216.276V15.596H219.916V17.39C220.402 16.766 221.017 16.2807 221.762 15.934C222.525 15.57 223.357 15.388 224.258 15.388Z" fill="#8A38F5"/>
<path d="M206.86 114.5C206.86 113.367 207.087 112.38 207.54 111.54C207.993 110.687 208.62 110.027 209.42 109.56C210.233 109.093 211.16 108.86 212.2 108.86C213.547 108.86 214.653 109.187 215.52 109.84C216.4 110.493 216.98 111.4 217.26 112.56H215.3C215.113 111.893 214.747 111.367 214.2 110.98C213.667 110.593 213 110.4 212.2 110.4C211.16 110.4 210.32 110.76 209.68 111.48C209.04 112.187 208.72 113.193 208.72 114.5C208.72 115.82 209.04 116.84 209.68 117.56C210.32 118.28 211.16 118.64 212.2 118.64C213 118.64 213.667 118.453 214.2 118.08C214.733 117.707 215.1 117.173 215.3 116.48H217.26C216.967 117.6 216.38 118.5 215.5 119.18C214.62 119.847 213.52 120.18 212.2 120.18C211.16 120.18 210.233 119.947 209.42 119.48C208.62 119.013 207.993 118.353 207.54 117.5C207.087 116.647 206.86 115.647 206.86 114.5ZM224.468 120.18C223.442 120.18 222.508 119.947 221.668 119.48C220.842 119.013 220.188 118.353 219.708 117.5C219.242 116.633 219.008 115.633 219.008 114.5C219.008 113.38 219.248 112.393 219.728 111.54C220.222 110.673 220.888 110.013 221.728 109.56C222.568 109.093 223.508 108.86 224.548 108.86C225.588 108.86 226.528 109.093 227.368 109.56C228.208 110.013 228.868 110.667 229.348 111.52C229.842 112.373 230.088 113.367 230.088 114.5C230.088 115.633 229.835 116.633 229.328 117.5C228.835 118.353 228.162 119.013 227.308 119.48C226.455 119.947 225.508 120.18 224.468 120.18ZM224.468 118.58C225.122 118.58 225.735 118.427 226.308 118.12C226.882 117.813 227.342 117.353 227.688 116.74C228.048 116.127 228.228 115.38 228.228 114.5C228.228 113.62 228.055 112.873 227.708 112.26C227.362 111.647 226.908 111.193 226.348 110.9C225.788 110.593 225.182 110.44 224.528 110.44C223.862 110.44 223.248 110.593 222.688 110.9C222.142 111.193 221.702 111.647 221.368 112.26C221.035 112.873 220.868 113.62 220.868 114.5C220.868 115.393 221.028 116.147 221.348 116.76C221.682 117.373 222.122 117.833 222.668 118.14C223.215 118.433 223.815 118.58 224.468 118.58ZM237.821 108.84C239.155 108.84 240.235 109.247 241.061 110.06C241.888 110.86 242.301 112.02 242.301 113.54V120H240.501V113.8C240.501 112.707 240.228 111.873 239.681 111.3C239.135 110.713 238.388 110.42 237.441 110.42C236.481 110.42 235.715 110.72 235.141 111.32C234.581 111.92 234.301 112.793 234.301 113.94V120H232.481V109.04H234.301V110.6C234.661 110.04 235.148 109.607 235.761 109.3C236.388 108.993 237.075 108.84 237.821 108.84ZM249.154 120.18C248.314 120.18 247.561 120.04 246.894 119.76C246.228 119.467 245.701 119.067 245.314 118.56C244.928 118.04 244.714 117.447 244.674 116.78H246.554C246.608 117.327 246.861 117.773 247.314 118.12C247.781 118.467 248.388 118.64 249.134 118.64C249.828 118.64 250.374 118.487 250.774 118.18C251.174 117.873 251.374 117.487 251.374 117.02C251.374 116.54 251.161 116.187 250.734 115.96C250.308 115.72 249.648 115.487 248.754 115.26C247.941 115.047 247.274 114.833 246.754 114.62C246.248 114.393 245.808 114.067 245.434 113.64C245.074 113.2 244.894 112.627 244.894 111.92C244.894 111.36 245.061 110.847 245.394 110.38C245.728 109.913 246.201 109.547 246.814 109.28C247.428 109 248.128 108.86 248.914 108.86C250.128 108.86 251.108 109.167 251.854 109.78C252.601 110.393 253.001 111.233 253.054 112.3H251.234C251.194 111.727 250.961 111.267 250.534 110.92C250.121 110.573 249.561 110.4 248.854 110.4C248.201 110.4 247.681 110.54 247.294 110.82C246.908 111.1 246.714 111.467 246.714 111.92C246.714 112.28 246.828 112.58 247.054 112.82C247.294 113.047 247.588 113.233 247.934 113.38C248.294 113.513 248.788 113.667 249.414 113.84C250.201 114.053 250.841 114.267 251.334 114.48C251.828 114.68 252.248 114.987 252.594 115.4C252.954 115.813 253.141 116.353 253.154 117.02C253.154 117.62 252.988 118.16 252.654 118.64C252.321 119.12 251.848 119.5 251.234 119.78C250.634 120.047 249.941 120.18 249.154 120.18ZM257.944 110.54V117C257.944 117.533 258.057 117.913 258.284 118.14C258.51 118.353 258.904 118.46 259.464 118.46H260.804V120H259.164C258.15 120 257.39 119.767 256.884 119.3C256.377 118.833 256.124 118.067 256.124 117V110.54H254.704V109.04H256.124V106.28H257.944V109.04H260.804V110.54H257.944ZM262.329 114.48C262.329 113.36 262.555 112.38 263.009 111.54C263.462 110.687 264.082 110.027 264.869 109.56C265.669 109.093 266.555 108.86 267.529 108.86C268.489 108.86 269.322 109.067 270.029 109.48C270.735 109.893 271.262 110.413 271.609 111.04V109.04H273.449V120H271.609V117.96C271.249 118.6 270.709 119.133 269.989 119.56C269.282 119.973 268.455 120.18 267.509 120.18C266.535 120.18 265.655 119.94 264.869 119.46C264.082 118.98 263.462 118.307 263.009 117.44C262.555 116.573 262.329 115.587 262.329 114.48ZM271.609 114.5C271.609 113.673 271.442 112.953 271.109 112.34C270.775 111.727 270.322 111.26 269.749 110.94C269.189 110.607 268.569 110.44 267.889 110.44C267.209 110.44 266.589 110.6 266.029 110.92C265.469 111.24 265.022 111.707 264.689 112.32C264.355 112.933 264.189 113.653 264.189 114.48C264.189 115.32 264.355 116.053 264.689 116.68C265.022 117.293 265.469 117.767 266.029 118.1C266.589 118.42 267.209 118.58 267.889 118.58C268.569 118.58 269.189 118.42 269.749 118.1C270.322 117.767 270.775 117.293 271.109 116.68C271.442 116.053 271.609 115.327 271.609 114.5ZM281.864 108.84C283.198 108.84 284.278 109.247 285.104 110.06C285.931 110.86 286.344 112.02 286.344 113.54V120H284.544V113.8C284.544 112.707 284.271 111.873 283.724 111.3C283.178 110.713 282.431 110.42 281.484 110.42C280.524 110.42 279.758 110.72 279.184 111.32C278.624 111.92 278.344 112.793 278.344 113.94V120H276.524V109.04H278.344V110.6C278.704 110.04 279.191 109.607 279.804 109.3C280.431 108.993 281.118 108.84 281.864 108.84ZM291.537 110.54V117C291.537 117.533 291.651 117.913 291.877 118.14C292.104 118.353 292.497 118.46 293.057 118.46H294.397V120H292.757C291.744 120 290.984 119.767 290.477 119.3C289.971 118.833 289.717 118.067 289.717 117V110.54H288.297V109.04H289.717V106.28H291.537V109.04H294.397V110.54H291.537Z" fill="#FBBC05"/>
<path d="M135.36 50.06C135.72 49.4333 136.253 48.9133 136.96 48.5C137.68 48.0733 138.513 47.86 139.46 47.86C140.433 47.86 141.313 48.0933 142.1 48.56C142.9 49.0267 143.527 49.6867 143.98 50.54C144.433 51.38 144.66 52.36 144.66 53.48C144.66 54.5867 144.433 55.5733 143.98 56.44C143.527 57.3067 142.9 57.98 142.1 58.46C141.313 58.94 140.433 59.18 139.46 59.18C138.527 59.18 137.7 58.9733 136.98 58.56C136.273 58.1333 135.733 57.6067 135.36 56.98V64.2H133.54V48.04H135.36V50.06ZM142.8 53.48C142.8 52.6533 142.633 51.9333 142.3 51.32C141.967 50.7067 141.513 50.24 140.94 49.92C140.38 49.6 139.76 49.44 139.08 49.44C138.413 49.44 137.793 49.6067 137.22 49.94C136.66 50.26 136.207 50.7333 135.86 51.36C135.527 51.9733 135.36 52.6867 135.36 53.5C135.36 54.3267 135.527 55.0533 135.86 55.68C136.207 56.2933 136.66 56.7667 137.22 57.1C137.793 57.42 138.413 57.58 139.08 57.58C139.76 57.58 140.38 57.42 140.94 57.1C141.513 56.7667 141.967 56.2933 142.3 55.68C142.633 55.0533 142.8 54.32 142.8 53.48ZM148.876 49.82C149.196 49.1933 149.649 48.7067 150.236 48.36C150.836 48.0133 151.562 47.84 152.416 47.84V49.72H151.936C149.896 49.72 148.876 50.8267 148.876 53.04V59H147.056V48.04H148.876V49.82ZM159.297 59.18C158.27 59.18 157.337 58.9467 156.497 58.48C155.67 58.0133 155.017 57.3533 154.537 56.5C154.07 55.6333 153.837 54.6333 153.837 53.5C153.837 52.38 154.077 51.3933 154.557 50.54C155.05 49.6733 155.717 49.0133 156.557 48.56C157.397 48.0933 158.337 47.86 159.377 47.86C160.417 47.86 161.357 48.0933 162.197 48.56C163.037 49.0133 163.697 49.6667 164.177 50.52C164.67 51.3733 164.917 52.3667 164.917 53.5C164.917 54.6333 164.663 55.6333 164.157 56.5C163.663 57.3533 162.99 58.0133 162.137 58.48C161.283 58.9467 160.337 59.18 159.297 59.18ZM159.297 57.58C159.95 57.58 160.563 57.4267 161.137 57.12C161.71 56.8133 162.17 56.3533 162.517 55.74C162.877 55.1267 163.057 54.38 163.057 53.5C163.057 52.62 162.883 51.8733 162.537 51.26C162.19 50.6467 161.737 50.1933 161.177 49.9C160.617 49.5933 160.01 49.44 159.357 49.44C158.69 49.44 158.077 49.5933 157.517 49.9C156.97 50.1933 156.53 50.6467 156.197 51.26C155.863 51.8733 155.697 52.62 155.697 53.5C155.697 54.3933 155.857 55.1467 156.177 55.76C156.51 56.3733 156.95 56.8333 157.497 57.14C158.043 57.4333 158.643 57.58 159.297 57.58ZM169.13 50.06C169.49 49.4333 170.023 48.9133 170.73 48.5C171.45 48.0733 172.283 47.86 173.23 47.86C174.203 47.86 175.083 48.0933 175.87 48.56C176.67 49.0267 177.296 49.6867 177.75 50.54C178.203 51.38 178.43 52.36 178.43 53.48C178.43 54.5867 178.203 55.5733 177.75 56.44C177.296 57.3067 176.67 57.98 175.87 58.46C175.083 58.94 174.203 59.18 173.23 59.18C172.296 59.18 171.47 58.9733 170.75 58.56C170.043 58.1333 169.503 57.6067 169.13 56.98V64.2H167.31V48.04H169.13V50.06ZM176.57 53.48C176.57 52.6533 176.403 51.9333 176.07 51.32C175.736 50.7067 175.283 50.24 174.71 49.92C174.15 49.6 173.53 49.44 172.85 49.44C172.183 49.44 171.563 49.6067 170.99 49.94C170.43 50.26 169.976 50.7333 169.63 51.36C169.296 51.9733 169.13 52.6867 169.13 53.5C169.13 54.3267 169.296 55.0533 169.63 55.68C169.976 56.2933 170.43 56.7667 170.99 57.1C171.563 57.42 172.183 57.58 172.85 57.58C173.53 57.58 174.15 57.42 174.71 57.1C175.283 56.7667 175.736 56.2933 176.07 55.68C176.403 55.0533 176.57 54.32 176.57 53.48ZM185.605 59.18C184.578 59.18 183.645 58.9467 182.805 58.48C181.978 58.0133 181.325 57.3533 180.845 56.5C180.378 55.6333 180.145 54.6333 180.145 53.5C180.145 52.38 180.385 51.3933 180.865 50.54C181.358 49.6733 182.025 49.0133 182.865 48.56C183.705 48.0933 184.645 47.86 185.685 47.86C186.725 47.86 187.665 48.0933 188.505 48.56C189.345 49.0133 190.005 49.6667 190.485 50.52C190.978 51.3733 191.225 52.3667 191.225 53.5C191.225 54.6333 190.972 55.6333 190.465 56.5C189.972 57.3533 189.298 58.0133 188.445 58.48C187.592 58.9467 186.645 59.18 185.605 59.18ZM185.605 57.58C186.258 57.58 186.872 57.4267 187.445 57.12C188.018 56.8133 188.478 56.3533 188.825 55.74C189.185 55.1267 189.365 54.38 189.365 53.5C189.365 52.62 189.192 51.8733 188.845 51.26C188.498 50.6467 188.045 50.1933 187.485 49.9C186.925 49.5933 186.318 49.44 185.665 49.44C184.998 49.44 184.385 49.5933 183.825 49.9C183.278 50.1933 182.838 50.6467 182.505 51.26C182.172 51.8733 182.005 52.62 182.005 53.5C182.005 54.3933 182.165 55.1467 182.485 55.76C182.818 56.3733 183.258 56.8333 183.805 57.14C184.352 57.4333 184.952 57.58 185.605 57.58ZM197.498 59.18C196.658 59.18 195.905 59.04 195.238 58.76C194.571 58.4667 194.045 58.0667 193.658 57.56C193.271 57.04 193.058 56.4467 193.018 55.78H194.898C194.951 56.3267 195.205 56.7733 195.658 57.12C196.125 57.4667 196.731 57.64 197.478 57.64C198.171 57.64 198.718 57.4867 199.118 57.18C199.518 56.8733 199.718 56.4867 199.718 56.02C199.718 55.54 199.505 55.1867 199.078 54.96C198.651 54.72 197.991 54.4867 197.098 54.26C196.285 54.0467 195.618 53.8333 195.098 53.62C194.591 53.3933 194.151 53.0667 193.778 52.64C193.418 52.2 193.238 51.6267 193.238 50.92C193.238 50.36 193.405 49.8467 193.738 49.38C194.071 48.9133 194.545 48.5467 195.158 48.28C195.771 48 196.471 47.86 197.258 47.86C198.471 47.86 199.451 48.1667 200.198 48.78C200.945 49.3933 201.345 50.2333 201.398 51.3H199.578C199.538 50.7267 199.305 50.2667 198.878 49.92C198.465 49.5733 197.905 49.4 197.198 49.4C196.545 49.4 196.025 49.54 195.638 49.82C195.251 50.1 195.058 50.4667 195.058 50.92C195.058 51.28 195.171 51.58 195.398 51.82C195.638 52.0467 195.931 52.2333 196.278 52.38C196.638 52.5133 197.131 52.6667 197.758 52.84C198.545 53.0533 199.185 53.2667 199.678 53.48C200.171 53.68 200.591 53.9867 200.938 54.4C201.298 54.8133 201.485 55.3533 201.498 56.02C201.498 56.62 201.331 57.16 200.998 57.64C200.665 58.12 200.191 58.5 199.578 58.78C198.978 59.0467 198.285 59.18 197.498 59.18ZM203.387 53.48C203.387 52.36 203.614 51.38 204.067 50.54C204.521 49.6867 205.141 49.0267 205.927 48.56C206.727 48.0933 207.614 47.86 208.587 47.86C209.547 47.86 210.381 48.0667 211.087 48.48C211.794 48.8933 212.321 49.4133 212.667 50.04V48.04H214.507V59H212.667V56.96C212.307 57.6 211.767 58.1333 211.047 58.56C210.341 58.9733 209.514 59.18 208.567 59.18C207.594 59.18 206.714 58.94 205.927 58.46C205.141 57.98 204.521 57.3067 204.067 56.44C203.614 55.5733 203.387 54.5867 203.387 53.48ZM212.667 53.5C212.667 52.6733 212.501 51.9533 212.167 51.34C211.834 50.7267 211.381 50.26 210.807 49.94C210.247 49.6067 209.627 49.44 208.947 49.44C208.267 49.44 207.647 49.6 207.087 49.92C206.527 50.24 206.081 50.7067 205.747 51.32C205.414 51.9333 205.247 52.6533 205.247 53.48C205.247 54.32 205.414 55.0533 205.747 55.68C206.081 56.2933 206.527 56.7667 207.087 57.1C207.647 57.42 208.267 57.58 208.947 57.58C209.627 57.58 210.247 57.42 210.807 57.1C211.381 56.7667 211.834 56.2933 212.167 55.68C212.501 55.0533 212.667 54.3267 212.667 53.5ZM219.403 44.2V59H217.583V44.2H219.403ZM226.385 59.18C225.545 59.18 224.792 59.04 224.125 58.76C223.458 58.4667 222.932 58.0667 222.545 57.56C222.158 57.04 221.945 56.4467 221.905 55.78H223.785C223.838 56.3267 224.092 56.7733 224.545 57.12C225.012 57.4667 225.618 57.64 226.365 57.64C227.058 57.64 227.605 57.4867 228.005 57.18C228.405 56.8733 228.605 56.4867 228.605 56.02C228.605 55.54 228.392 55.1867 227.965 54.96C227.538 54.72 226.878 54.4867 225.985 54.26C225.172 54.0467 224.505 53.8333 223.985 53.62C223.478 53.3933 223.038 53.0667 222.665 52.64C222.305 52.2 222.125 51.6267 222.125 50.92C222.125 50.36 222.292 49.8467 222.625 49.38C222.958 48.9133 223.432 48.5467 224.045 48.28C224.658 48 225.358 47.86 226.145 47.86C227.358 47.86 228.338 48.1667 229.085 48.78C229.832 49.3933 230.232 50.2333 230.285 51.3H228.465C228.425 50.7267 228.192 50.2667 227.765 49.92C227.352 49.5733 226.792 49.4 226.085 49.4C225.432 49.4 224.912 49.54 224.525 49.82C224.138 50.1 223.945 50.4667 223.945 50.92C223.945 51.28 224.058 51.58 224.285 51.82C224.525 52.0467 224.818 52.2333 225.165 52.38C225.525 52.5133 226.018 52.6667 226.645 52.84C227.432 53.0533 228.072 53.2667 228.565 53.48C229.058 53.68 229.478 53.9867 229.825 54.4C230.185 54.8133 230.372 55.3533 230.385 56.02C230.385 56.62 230.218 57.16 229.885 57.64C229.552 58.12 229.078 58.5 228.465 58.78C227.865 59.0467 227.172 59.18 226.385 59.18Z" fill="#E33283"/>
<path d="M119.86 127.48C119.86 126.36 120.087 125.38 120.54 124.54C120.993 123.687 121.613 123.027 122.4 122.56C123.2 122.093 124.093 121.86 125.08 121.86C125.933 121.86 126.727 122.06 127.46 122.46C128.193 122.847 128.753 123.36 129.14 124V118.2H130.98V133H129.14V130.94C128.78 131.593 128.247 132.133 127.54 132.56C126.833 132.973 126.007 133.18 125.06 133.18C124.087 133.18 123.2 132.94 122.4 132.46C121.613 131.98 120.993 131.307 120.54 130.44C120.087 129.573 119.86 128.587 119.86 127.48ZM129.14 127.5C129.14 126.673 128.973 125.953 128.64 125.34C128.307 124.727 127.853 124.26 127.28 123.94C126.72 123.607 126.1 123.44 125.42 123.44C124.74 123.44 124.12 123.6 123.56 123.92C123 124.24 122.553 124.707 122.22 125.32C121.887 125.933 121.72 126.653 121.72 127.48C121.72 128.32 121.887 129.053 122.22 129.68C122.553 130.293 123 130.767 123.56 131.1C124.12 131.42 124.74 131.58 125.42 131.58C126.1 131.58 126.72 131.42 127.28 131.1C127.853 130.767 128.307 130.293 128.64 129.68C128.973 129.053 129.14 128.327 129.14 127.5ZM144.056 127.1C144.056 127.447 144.036 127.813 143.996 128.2H135.236C135.302 129.28 135.669 130.127 136.336 130.74C137.016 131.34 137.836 131.64 138.796 131.64C139.582 131.64 140.236 131.46 140.756 131.1C141.289 130.727 141.662 130.233 141.876 129.62H143.836C143.542 130.673 142.956 131.533 142.076 132.2C141.196 132.853 140.102 133.18 138.796 133.18C137.756 133.18 136.822 132.947 135.996 132.48C135.182 132.013 134.542 131.353 134.076 130.5C133.609 129.633 133.376 128.633 133.376 127.5C133.376 126.367 133.602 125.373 134.056 124.52C134.509 123.667 135.142 123.013 135.956 122.56C136.782 122.093 137.729 121.86 138.796 121.86C139.836 121.86 140.756 122.087 141.556 122.54C142.356 122.993 142.969 123.62 143.396 124.42C143.836 125.207 144.056 126.1 144.056 127.1ZM142.176 126.72C142.176 126.027 142.022 125.433 141.716 124.94C141.409 124.433 140.989 124.053 140.456 123.8C139.936 123.533 139.356 123.4 138.716 123.4C137.796 123.4 137.009 123.693 136.356 124.28C135.716 124.867 135.349 125.68 135.256 126.72H142.176ZM148.278 118.2V133H146.458V118.2H148.278ZM152.32 120.26C151.973 120.26 151.68 120.14 151.44 119.9C151.2 119.66 151.08 119.367 151.08 119.02C151.08 118.673 151.2 118.38 151.44 118.14C151.68 117.9 151.973 117.78 152.32 117.78C152.653 117.78 152.933 117.9 153.16 118.14C153.4 118.38 153.52 118.673 153.52 119.02C153.52 119.367 153.4 119.66 153.16 119.9C152.933 120.14 152.653 120.26 152.32 120.26ZM153.2 122.04V133H151.38V122.04H153.2ZM160.382 131.32L163.782 122.04H165.722L161.422 133H159.302L155.002 122.04H156.962L160.382 131.32ZM177.513 127.1C177.513 127.447 177.493 127.813 177.453 128.2H168.693C168.759 129.28 169.126 130.127 169.793 130.74C170.473 131.34 171.293 131.64 172.253 131.64C173.039 131.64 173.693 131.46 174.213 131.1C174.746 130.727 175.119 130.233 175.333 129.62H177.293C176.999 130.673 176.413 131.533 175.533 132.2C174.653 132.853 173.559 133.18 172.253 133.18C171.213 133.18 170.279 132.947 169.453 132.48C168.639 132.013 167.999 131.353 167.533 130.5C167.066 129.633 166.833 128.633 166.833 127.5C166.833 126.367 167.059 125.373 167.513 124.52C167.966 123.667 168.599 123.013 169.413 122.56C170.239 122.093 171.186 121.86 172.253 121.86C173.293 121.86 174.213 122.087 175.013 122.54C175.813 122.993 176.426 123.62 176.853 124.42C177.293 125.207 177.513 126.1 177.513 127.1ZM175.633 126.72C175.633 126.027 175.479 125.433 175.173 124.94C174.866 124.433 174.446 124.053 173.913 123.8C173.393 123.533 172.813 123.4 172.173 123.4C171.253 123.4 170.466 123.693 169.813 124.28C169.173 124.867 168.806 125.68 168.713 126.72H175.633ZM181.735 123.82C182.055 123.193 182.508 122.707 183.095 122.36C183.695 122.013 184.422 121.84 185.275 121.84V123.72H184.795C182.755 123.72 181.735 124.827 181.735 127.04V133H179.915V122.04H181.735V123.82ZM196.816 122.04L190.216 138.16H188.336L190.496 132.88L186.076 122.04H188.096L191.536 130.92L194.936 122.04H196.816Z" fill="#34A853"/>
<path d="M267.82 81.64C267.193 81.32 266.707 80.8667 266.36 80.28C266.013 79.68 265.84 78.9533 265.84 78.1H267.72V78.58C267.72 80.62 268.827 81.64 271.04 81.64H277V83.46H266.04V81.64H267.82ZM271.1 65.9991C271.447 65.9991 271.813 66.0191 272.2 66.0591V74.8191C273.28 74.7524 274.127 74.3857 274.74 73.7191C275.34 73.0391 275.64 72.2191 275.64 71.2591C275.64 70.4724 275.46 69.8191 275.1 69.2991C274.727 68.7657 274.233 68.3924 273.62 68.1791V66.2191C274.673 66.5124 275.533 67.0991 276.2 67.9791C276.853 68.8591 277.18 69.9524 277.18 71.2591C277.18 72.2991 276.947 73.2324 276.48 74.0591C276.013 74.8724 275.353 75.5124 274.5 75.9791C273.633 76.4457 272.633 76.6791 271.5 76.6791C270.367 76.6791 269.373 76.4524 268.52 75.9991C267.667 75.5457 267.013 74.9124 266.56 74.0991C266.093 73.2724 265.86 72.3257 265.86 71.2591C265.86 70.2191 266.087 69.2991 266.54 68.4991C266.993 67.6991 267.62 67.0857 268.42 66.6591C269.207 66.2191 270.1 65.9991 271.1 65.9991ZM270.72 67.8791C270.027 67.8791 269.433 68.0324 268.94 68.3391C268.433 68.6457 268.053 69.0657 267.8 69.5991C267.533 70.1191 267.4 70.6991 267.4 71.3391C267.4 72.2591 267.693 73.0457 268.28 73.6991C268.867 74.3391 269.68 74.7057 270.72 74.7991V67.8791ZM275.32 59.5167L266.04 56.1167V54.1767L277 58.4767V60.5967L266.04 64.8967V62.9367L275.32 59.5167ZM264.26 51.4458C264.26 51.7924 264.14 52.0858 263.9 52.3258C263.66 52.5658 263.367 52.6858 263.02 52.6858C262.673 52.6858 262.38 52.5658 262.14 52.3258C261.9 52.0858 261.78 51.7924 261.78 51.4458C261.78 51.1124 261.9 50.8324 262.14 50.6058C262.38 50.3658 262.673 50.2458 263.02 50.2458C263.367 50.2458 263.66 50.3658 263.9 50.6058C264.14 50.8324 264.26 51.1124 264.26 51.4458ZM266.04 50.5658H277V52.3858H266.04V50.5658ZM271.1 37.4639C271.447 37.4639 271.813 37.4839 272.2 37.5239V46.2839C273.28 46.2172 274.127 45.8506 274.74 45.1839C275.34 44.5039 275.64 43.6839 275.64 42.7239C275.64 41.9372 275.46 41.2839 275.1 40.7639C274.727 40.2306 274.233 39.8572 273.62 39.6439V37.6839C274.673 37.9772 275.533 38.5639 276.2 39.4439C276.853 40.3239 277.18 41.4172 277.18 42.7239C277.18 43.7639 276.947 44.6972 276.48 45.5239C276.013 46.3372 275.353 46.9772 274.5 47.4439C273.633 47.9106 272.633 48.1439 271.5 48.1439C270.367 48.1439 269.373 47.9172 268.52 47.4639C267.667 47.0106 267.013 46.3772 266.56 45.5639C266.093 44.7372 265.86 43.7906 265.86 42.7239C265.86 41.6839 266.087 40.7639 266.54 39.9639C266.993 39.1639 267.62 38.5506 268.42 38.1239C269.207 37.6839 270.1 37.4639 271.1 37.4639ZM270.72 39.3439C270.027 39.3439 269.433 39.4972 268.94 39.8039C268.433 40.1106 268.053 40.5306 267.8 41.0639C267.533 41.5839 267.4 42.1639 267.4 42.8039C267.4 43.7239 267.693 44.5106 268.28 45.1639C268.867 45.8039 269.68 46.1706 270.72 46.2639V39.3439ZM266.04 20.4616L277 23.8816V25.7616L268.3 28.4016L277 31.0416V32.9216L266.04 36.3616V34.5016L275.24 31.9816L266.04 29.2616V27.4016L275.26 24.7416L266.04 22.2616V20.4616Z" fill="#FFC5B6"/>
</svg>
