<svg width="86" height="34" viewBox="0 0 86 34" fill="none" xmlns="http://www.w3.org/2000/svg">
<g id="BACI-Beta Filled" clip-path="url(#clip0_1366_29682)">
<path id="Vector" d="M15.1526 21.2989C15.5634 20.2421 15.707 19.1027 15.5709 17.9791C15.4348 16.8555 15.0232 15.7813 14.3715 14.8491C13.7198 13.917 12.8477 13.1548 11.8302 12.6284C10.8126 12.1019 9.68035 11.8269 8.53086 11.8271H1.93707C1.58407 11.8275 1.24561 11.9656 0.996002 12.2114C0.746391 12.4571 0.606022 12.7903 0.605713 13.1378V25.5834C0.605403 26.7993 0.893792 27.9984 1.44787 29.0851C2.00194 30.1718 2.80636 31.1159 3.79694 31.8422C4.78751 32.5685 5.93682 33.0568 7.15316 33.2682C8.36949 33.4795 9.61917 33.4081 10.8025 33.0596C11.9858 32.7111 13.07 32.0951 13.9685 31.2609C14.8671 30.4266 15.5551 29.3971 15.9777 28.2546C16.4003 27.1121 16.5458 25.8882 16.4025 24.6805C16.2593 23.4728 15.8313 22.3148 15.1526 21.2989ZM8.53086 30.7592C7.8399 30.7596 7.15562 30.6261 6.5171 30.3661C5.87859 30.1062 5.29836 29.7249 4.80956 29.2442C4.32076 28.7634 3.93297 28.1926 3.66833 27.5642C3.4037 26.9359 3.26742 26.2624 3.26726 25.5822V14.4484H8.53086C9.70467 14.4484 10.8305 14.9072 11.6608 15.7239C12.4911 16.5407 12.9581 17.6485 12.959 18.804C12.959 18.9059 12.9555 19.0081 12.9485 19.1107C11.643 18.2457 10.1045 17.7848 8.53086 17.7875C8.22986 17.7884 7.92913 17.8056 7.63006 17.8392C7.35163 17.8707 7.07509 17.9167 6.80161 17.977C6.49445 18.0306 6.2164 18.1894 6.01657 18.4252C5.81674 18.661 5.70796 18.9587 5.70945 19.2658V24.2762C5.71025 24.5733 5.81321 24.8614 6.00157 25.0936C6.18993 25.3257 6.45259 25.4882 6.74677 25.5546C7.02978 25.6262 7.31697 25.6807 7.60672 25.7178C8.66777 25.8579 9.7473 25.7583 10.7634 25.4265C11.7795 25.0947 12.7056 24.5395 13.4712 23.803C13.7616 24.5854 13.8559 25.4252 13.7462 26.2512C13.6365 27.0772 13.3261 27.8649 12.8413 28.5476C12.3564 29.2303 11.7114 29.7878 10.9611 30.1728C10.2107 30.5578 9.37704 30.7589 8.53086 30.7592ZM8.371 20.4076H8.53086C9.76875 20.4033 10.9679 20.832 11.9147 21.6171C11.8342 21.709 11.7513 21.7986 11.6638 21.8836C11.2538 22.2897 10.7659 22.6116 10.2285 22.8306C9.69108 23.0497 9.11484 23.1616 8.53319 23.1597H8.37334L8.371 20.4076Z" fill="#159ADD"/>
<path id="Vector_2" d="M35.4294 33.3797C35.1888 33.3859 34.9504 33.3338 34.7351 33.2281C34.5479 33.1286 34.386 32.9888 34.2614 32.8192C34.071 32.5393 33.9144 32.2387 33.7946 31.9232C33.6208 31.4994 33.4644 31.1192 33.3372 30.7826L32.2987 27.8869H23.6642L22.6245 30.8458C22.2616 31.8865 21.9513 32.5906 21.7027 32.9409C21.4962 33.2292 21.1356 33.3774 20.6304 33.3774C20.4119 33.3766 20.1961 33.3306 19.9969 33.2423C19.7977 33.1541 19.6195 33.0255 19.4741 32.8651C19.3178 32.7193 19.1931 32.544 19.1075 32.3495C19.0219 32.1551 18.9771 31.9456 18.9758 31.7337C18.9787 31.4587 19.02 31.1855 19.0983 30.9216C19.1859 30.6241 19.3317 30.2048 19.5464 29.6431L24.7178 15.7112L25.2499 14.2685C25.4139 13.8032 25.625 13.3552 25.88 12.9315C26.0849 12.606 26.3647 12.3326 26.6968 12.1331C27.0825 11.9196 27.5205 11.8147 27.9628 11.8299C28.4108 11.8129 28.8549 11.9178 29.2463 12.1331C29.5791 12.3303 29.8617 12.5999 30.0724 12.9211C30.2964 13.2706 30.4844 13.6411 30.6337 14.0273C30.7994 14.4523 31.0036 15.0071 31.2439 15.6779L36.5309 29.5294C36.9288 30.5425 37.1294 31.2742 37.1294 31.7119C37.122 32.1421 36.9431 32.5522 36.6312 32.8536C36.4816 33.0219 36.2966 33.1561 36.0891 33.2469C35.8816 33.3377 35.6565 33.3831 35.4294 33.3797ZM24.5183 25.2656H31.4201L27.9406 15.1484L24.5183 25.2656Z" fill="#159ADD"/>
<path id="Vector_3" d="M48.6868 33.38C47.7305 33.3897 46.7766 33.2832 45.8468 33.063C45.0327 32.8704 44.2572 32.5446 43.5528 32.0992C42.8312 31.6305 42.1927 31.0484 41.6625 30.3763C41.1312 29.7017 40.6864 28.9652 40.3381 28.1835C39.965 27.3505 39.6879 26.479 39.512 25.5853C39.3227 24.6132 39.2297 23.6253 39.2343 22.6355C39.2343 20.9505 39.4677 19.4262 39.9344 18.1076C40.3508 16.8564 41.02 15.701 41.9017 14.711C42.7312 13.7911 43.7546 13.0604 44.9004 12.5699C46.063 12.0759 47.3168 11.824 48.583 11.8302C50.164 11.8302 51.5899 12.169 52.8198 12.8364C54.0496 13.5038 55.0006 14.3297 55.6493 15.3037C56.2981 16.2778 56.612 17.1737 56.612 18.0111C56.6169 18.4157 56.4684 18.8077 56.1954 19.1103C56.0796 19.2565 55.9314 19.3747 55.7622 19.4559C55.5929 19.5371 55.4071 19.5792 55.2188 19.579C54.7777 19.579 54.451 19.4744 54.2456 19.27C54.0041 19.0288 53.7381 18.6107 53.4288 17.9915C52.8723 16.8842 52.2072 16.0446 51.4452 15.4921C50.6833 14.9396 49.7195 14.6455 48.6028 14.6455C46.8327 14.6455 45.3999 15.3715 44.345 16.8027C43.3101 18.2086 42.7861 20.2211 42.7861 22.7826C42.7861 24.4871 43.0195 25.9299 43.4699 27.0705C43.9366 28.2375 44.6064 29.1219 45.4652 29.6986C46.3514 30.2852 47.3997 30.5888 48.4675 30.5681C49.7031 30.5681 50.7673 30.235 51.6296 29.5768C52.4919 28.9186 53.1465 27.9595 53.5794 26.6983C53.7067 26.2369 53.9101 25.7992 54.1815 25.4026C54.3787 25.1269 54.7147 24.9891 55.1838 24.9891C55.3803 24.988 55.5748 25.0276 55.7547 25.1054C55.9347 25.1832 56.0959 25.2974 56.2281 25.4405C56.3724 25.5887 56.4851 25.7638 56.5595 25.9556C56.6338 26.1474 56.6683 26.3519 56.661 26.557C56.645 27.2763 56.4918 27.9862 56.2094 28.6499C55.8663 29.4739 55.382 30.2339 54.7777 30.8966C54.079 31.6607 53.2246 32.2712 52.2702 32.6885C51.248 33.1468 50.0439 33.38 48.6868 33.38Z" fill="#159ADD"/>
<path id="Vector_4" d="M62.8411 33.3804C62.6057 33.3865 62.372 33.339 62.1583 33.2415C61.9445 33.1441 61.7565 32.9994 61.6089 32.8187C61.2799 32.4362 61.113 31.8412 61.113 31.0498V14.144C61.113 13.3526 61.2776 12.7599 61.6019 12.382C61.7508 12.2015 61.9403 12.0574 62.1553 11.9612C62.3703 11.8649 62.6051 11.819 62.8411 11.8272C63.0817 11.8187 63.3211 11.8641 63.5412 11.96C63.7613 12.0559 63.9564 12.1998 64.1118 12.3808C64.4385 12.7518 64.6042 13.3457 64.6042 14.1451V31.0498C64.6042 31.8539 64.4374 32.4454 64.1095 32.8245C63.955 33.006 63.7604 33.1505 63.5406 33.2468C63.3208 33.3432 63.0816 33.3889 62.8411 33.3804Z" fill="#159ADD"/>
<g id="Group 246">
<path id="Vector_5" d="M79.2458 6.28282H80.444L79.8801 4.74707L79.2458 6.28282Z" fill="#EE7538"/>
<path id="Vector_6" d="M68.3923 5.93359C68.3218 5.93359 68.2513 5.93359 68.1809 5.93359H67.0532V6.9807H68.1809C68.4628 7.0505 68.7447 6.84108 68.8152 6.56185C68.8856 6.28263 68.6742 6.0034 68.3923 5.93359Z" fill="#EE7538"/>
<path id="Vector_7" d="M68.6037 4.74646C68.6037 4.46723 68.3923 4.25781 68.0399 4.25781H67.0532V5.1653H68.0399C68.3923 5.23511 68.6037 5.02569 68.6037 4.74646Z" fill="#EE7538"/>
<path id="Vector_8" d="M84.391 0H63.2477C62.8249 0 62.543 0.279227 62.543 0.698068V10.471C62.543 10.8899 62.8249 11.1691 63.2477 11.1691H66.0668V13.9614C66.0668 14.2406 66.2078 14.5198 66.4897 14.5896C66.5602 14.6594 66.6307 14.6594 66.7716 14.6594C66.983 14.6594 67.124 14.5896 67.265 14.45L70.5774 11.1691H84.391C84.8138 11.1691 85.0957 10.8899 85.0957 10.471V0.698068C85.0957 0.279227 84.7434 0 84.391 0ZM68.3926 7.74855C68.3221 7.74855 68.3221 7.74855 68.2516 7.74855H66.1373V3.56014H68.2516C68.8859 3.49034 69.4498 3.90918 69.5202 4.53744V4.60725C69.5202 5.02609 69.3088 5.37512 68.9564 5.51473C69.3793 5.65435 69.7317 6.07319 69.7317 6.56183C69.6612 7.2599 69.0974 7.74855 68.3926 7.74855ZM73.6784 4.32802H71.3526V5.1657H73.467V6.00338H71.3526V6.91087H73.6784V7.74855H70.4364V3.56014H73.6784V4.32802ZM76.3565 7.74855H75.4403V4.39783H74.1013V3.56014H77.6251V4.39783H76.3565V7.74855ZM81.0785 7.74855L80.7966 7.05048H78.8937L78.6118 7.74855H77.6251L79.3166 3.56014H80.3033L82.0652 7.74855H81.0785Z" fill="#EE7538"/>
</g>
</g>
<defs>
<clipPath id="clip0_1366_29682">
<rect width="85.0704" height="34" fill="white" transform="translate(0.605713)"/>
</clipPath>
</defs>
</svg>
