<svg width="14" height="18" viewBox="0 0 14 18" fill="none" xmlns="http://www.w3.org/2000/svg">
<path d="M9.05529 6.75L8.79567 13.5M5.20433 13.5L4.94471 6.75M12.4207 4.34293C12.6772 4.38166 12.9328 4.4231 13.1875 4.46722M12.4207 4.34293L11.6199 14.7544C11.5522 15.6336 10.8191 16.3125 9.93732 16.3125H4.06268C3.1809 16.3125 2.44778 15.6336 2.38015 14.7544L1.57926 4.34293M12.4207 4.34293C11.5609 4.21308 10.6911 4.11364 9.8125 4.04574M0.8125 4.46722C1.06718 4.4231 1.32278 4.38166 1.57926 4.34293M1.57926 4.34293C2.43908 4.21308 3.30887 4.11364 4.1875 4.04574M9.8125 4.04574V3.35864C9.8125 2.47412 9.12951 1.73567 8.24544 1.70739C7.83192 1.69416 7.41674 1.6875 7 1.6875C6.58326 1.6875 6.16808 1.69416 5.75456 1.70739C4.87049 1.73567 4.1875 2.47412 4.1875 3.35864V4.04574M9.8125 4.04574C8.88442 3.97403 7.94648 3.9375 7 3.9375C6.05352 3.9375 5.11558 3.97403 4.1875 4.04574" stroke="#159ADD" stroke-width="1.5" stroke-linecap="round" stroke-linejoin="round"/>
</svg>
