<svg width="48" height="48" viewBox="0 0 48 48" fill="none" xmlns="http://www.w3.org/2000/svg">
<path fill-rule="evenodd" clip-rule="evenodd" d="M5.81515 39.663C8.97595 32.7799 15.9298 28 24 28C32.0702 28 39.0241 32.7799 42.1849 39.663C45.8088 35.4594 48 29.9856 48 24C48 10.7452 37.2548 0 24 0C10.7452 0 0 10.7452 0 24C0 29.9856 2.19117 35.4594 5.81515 39.663ZM33 17C33 21.9706 28.9706 26 24 26C19.0294 26 15 21.9706 15 17C15 12.0294 19.0294 8 24 8C28.9706 8 33 12.0294 33 17Z" fill="#CCCCCC"/>
<path d="M47.75 24C47.75 37.1168 37.1168 47.75 24 47.75C10.8832 47.75 0.25 37.1168 0.25 24C0.25 10.8832 10.8832 0.25 24 0.25C37.1168 0.25 47.75 10.8832 47.75 24Z" stroke="#CCCCCC" stroke-width="0.5"/>
</svg>
