<svg width="16" height="4" viewBox="0 0 16 4" fill="none" xmlns="http://www.w3.org/2000/svg">
<path d="M2 2V3.5C2.82843 3.5 3.5 2.82843 3.5 2H2ZM2 2H0.5C0.5 2.82843 1.17157 3.5 2 3.5V2ZM2 2V0.5C1.17157 0.5 0.5 1.17157 0.5 2H2ZM2 2H3.5C3.5 1.17157 2.82843 0.5 2 0.5V2ZM8 2V3.5C8.82843 3.5 9.5 2.82843 9.5 2H8ZM8 2H6.5C6.5 2.82843 7.17157 3.5 8 3.5V2ZM8 2V0.5C7.17157 0.5 6.5 1.17157 6.5 2H8ZM8 2H9.5C9.5 1.17157 8.82843 0.5 8 0.5V2ZM14 2V3.5C14.8284 3.5 15.5 2.82843 15.5 2H14ZM14 2H12.5C12.5 2.82843 13.1716 3.5 14 3.5V2ZM14 2V0.5C13.1716 0.5 12.5 1.17157 12.5 2H14ZM14 2H15.5C15.5 1.17157 14.8284 0.5 14 0.5V2Z" fill="#4E4E4E"/>
</svg>
