<svg width="18" height="10" viewBox="0 0 18 10" fill="none" xmlns="http://www.w3.org/2000/svg">
<path d="M17.0303 1.78033C17.3232 1.48744 17.3232 1.01256 17.0303 0.71967C16.7374 0.426777 16.2626 0.426777 15.9697 0.71967L17.0303 1.78033ZM9 8.75L8.46967 9.28033C8.76256 9.57322 9.23744 9.57322 9.53033 9.28033L9 8.75ZM2.03033 0.719671C1.73744 0.426777 1.26256 0.426777 0.96967 0.719671C0.676777 1.01256 0.676777 1.48744 0.96967 1.78033L2.03033 0.719671ZM15.9697 0.71967L8.46967 8.21967L9.53033 9.28033L17.0303 1.78033L15.9697 0.71967ZM9.53033 8.21967L2.03033 0.719671L0.96967 1.78033L8.46967 9.28033L9.53033 8.21967Z" fill="#4E4E4E"/>
</svg>
