<svg width="20" height="20" viewBox="0 0 20 20" fill="none" xmlns="http://www.w3.org/2000/svg">
<path d="M10 6.25V5.5C9.58579 5.5 9.25 5.83579 9.25 6.25H10ZM10.0075 6.25H10.7575C10.7575 5.83579 10.4217 5.5 10.0075 5.5V6.25ZM10.0075 6.2575V7.0075C10.4217 7.0075 10.7575 6.67171 10.7575 6.2575H10.0075ZM10 6.2575H9.25C9.25 6.67171 9.58579 7.0075 10 7.0075V6.2575ZM8.91459 8.57918C8.54411 8.76442 8.39394 9.21493 8.57918 9.58541C8.76442 9.95589 9.21493 10.1061 9.58541 9.92082L8.91459 8.57918ZM9.29149 9.22926L8.95608 8.55843L9.29149 9.22926ZM10.3545 10.082L11.0821 10.2639L10.3545 10.082ZM9.64549 12.918L8.91789 12.7361L9.64549 12.918ZM10.7085 13.7707L11.0439 14.4416L11.0439 14.4416L10.7085 13.7707ZM11.0854 14.4208C11.4559 14.2356 11.6061 13.7851 11.4208 13.4146C11.2356 13.0441 10.7851 12.8939 10.4146 13.0792L11.0854 14.4208ZM18.25 10C18.25 14.5563 14.5563 18.25 10 18.25V19.75C15.3848 19.75 19.75 15.3848 19.75 10H18.25ZM10 18.25C5.44365 18.25 1.75 14.5563 1.75 10H0.25C0.25 15.3848 4.61522 19.75 10 19.75V18.25ZM1.75 10C1.75 5.44365 5.44365 1.75 10 1.75V0.25C4.61522 0.25 0.25 4.61522 0.25 10H1.75ZM10 1.75C14.5563 1.75 18.25 5.44365 18.25 10H19.75C19.75 4.61522 15.3848 0.25 10 0.25V1.75ZM10 7H10.0075V5.5H10V7ZM9.2575 6.25V6.2575H10.7575V6.25H9.2575ZM10.0075 5.5075H10V7.0075H10.0075V5.5075ZM10.75 6.2575V6.25H9.25V6.2575H10.75ZM9.58541 9.92082L9.6269 9.90008L8.95608 8.55843L8.91459 8.57918L9.58541 9.92082ZM9.6269 9.90008L8.91789 12.7361L10.3731 13.0999L11.0821 10.2639L9.6269 9.90008ZM11.0439 14.4416L11.0854 14.4208L10.4146 13.0792L10.3731 13.0999L11.0439 14.4416ZM8.91789 12.7361C8.60707 13.9794 9.89769 15.0147 11.0439 14.4416L10.3731 13.0999L8.91789 12.7361ZM9.6269 9.90008H9.6269L11.0821 10.2639C11.3929 9.02061 10.1023 7.98532 8.95608 8.55843L9.6269 9.90008Z" fill="#2C69A1"/>
</svg>
