<svg xmlns="http://www.w3.org/2000/svg" width="24" height="24" viewBox="0 0 24 24" fill="none">
<path d="M12.0626 2.5H21.16C21.2502 2.5 21.3367 2.53582 21.4004 2.59958C21.4642 2.66335 21.5 2.74983 21.5 2.84V11.8657C19.6124 11.6135 18.16 10.0034 18.16 8.05V6.35V5.85H17.66H15.88C13.9427 5.85 12.3108 4.38716 12.0626 2.5ZM2.53224 12.0994L11.63 12.09C11.6301 12.09 11.6302 12.09 11.6303 12.09C11.7204 12.0901 11.8067 12.1259 11.8704 12.1896C11.9342 12.2533 11.97 12.3398 11.97 12.43V21.4674C10.0935 21.2208 8.63864 19.606 8.63 17.6589V15.94V15.44H8.13H6.35C4.39416 15.44 2.77766 13.9854 2.53224 12.0994ZM16.75 7.63398V16.6646C15.9183 16.5512 15.1411 16.1689 14.5411 15.5689C13.8219 14.8497 13.4155 13.8758 13.41 12.8588V11.14V10.64H12.91H11.1112C10.0942 10.6345 9.1203 10.2281 8.4011 9.5089C7.80111 8.90891 7.41879 8.13168 7.30536 7.3H16.416C16.504 7.3018 16.5879 7.33754 16.6502 7.39981C16.7125 7.46208 16.7482 7.546 16.75 7.63398Z" fill="white" stroke="white"/>
</svg>