<svg width="18" height="10" viewBox="0 0 18 10" fill="none" xmlns="http://www.w3.org/2000/svg">
<path d="M0.96967 8.21967C0.676777 8.51256 0.676777 8.98744 0.96967 9.28033C1.26256 9.57322 1.73744 9.57322 2.03033 9.28033L0.96967 8.21967ZM9 1.25L9.53033 0.71967C9.23744 0.426777 8.76256 0.426777 8.46967 0.71967L9 1.25ZM15.9697 9.28033C16.2626 9.57322 16.7374 9.57322 17.0303 9.28033C17.3232 8.98744 17.3232 8.51256 17.0303 8.21967L15.9697 9.28033ZM2.03033 9.28033L9.53033 1.78033L8.46967 0.71967L0.96967 8.21967L2.03033 9.28033ZM8.46967 1.78033L15.9697 9.28033L17.0303 8.21967L9.53033 0.71967L8.46967 1.78033Z" fill="#4E4E4E"/>
</svg>
