<svg width="16" height="16" viewBox="0 0 16 16" fill="none" xmlns="http://www.w3.org/2000/svg">
<path d="M6.75533 10.8798C6.23865 10.8353 5.71573 10.8125 5.1875 10.8125H4.625C2.76104 10.8125 1.25 9.30146 1.25 7.4375C1.25 5.57354 2.76104 4.0625 4.625 4.0625H5.1875C5.71573 4.0625 6.23865 4.03975 6.75533 3.99516M6.75533 10.8798C6.94497 11.6011 7.19279 12.2988 7.49347 12.9676C7.67907 13.3804 7.53816 13.8746 7.1462 14.1009L6.65397 14.3851C6.24043 14.6238 5.7092 14.4729 5.50881 14.0395C5.03885 13.023 4.67406 11.9479 4.42839 10.8282M6.75533 10.8798C6.46638 9.78087 6.3125 8.62716 6.3125 7.4375C6.3125 6.24784 6.46638 5.09412 6.75533 3.99516M6.75533 10.8798C9.12497 11.0843 11.3633 11.7479 13.381 12.7812M6.75533 3.99516C9.12497 3.7907 11.3633 3.12712 13.381 2.09382M13.381 2.09382C13.2928 1.80946 13.1976 1.52812 13.0958 1.25M13.381 2.09382C13.7823 3.38621 14.0418 4.74097 14.1414 6.13994M13.381 12.7812C13.2928 13.0655 13.1976 13.3469 13.0958 13.625M13.381 12.7812C13.7823 11.4888 14.0418 10.134 14.1414 8.73506M14.1414 6.13994C14.5133 6.44948 14.75 6.91585 14.75 7.4375C14.75 7.95915 14.5133 8.42552 14.1414 8.73506M14.1414 6.13994C14.172 6.56848 14.1875 7.00118 14.1875 7.4375C14.1875 7.87382 14.172 8.30651 14.1414 8.73506" stroke="#CCCCCC" stroke-width="1.5" stroke-linecap="round" stroke-linejoin="round"/>
</svg>
