<svg width="437" height="56" viewBox="0 0 437 56" fill="none" xmlns="http://www.w3.org/2000/svg">
<rect width="436" height="22" fill="url(#paint0_linear_1299_79699)"/>
<path d="M1.27841 51V39.3636H3.03409V49.4886H8.30682V51H1.27841ZM13.8494 51.1761C13.0313 51.1761 12.3172 50.9886 11.7074 50.6136C11.0975 50.2386 10.6241 49.714 10.2869 49.0398C9.94981 48.3655 9.78125 47.5777 9.78125 46.6761C9.78125 45.7708 9.94981 44.9792 10.2869 44.3011C10.6241 43.6231 11.0975 43.0966 11.7074 42.7216C12.3172 42.3466 13.0313 42.1591 13.8494 42.1591C14.6676 42.1591 15.3816 42.3466 15.9915 42.7216C16.6013 43.0966 17.0748 43.6231 17.4119 44.3011C17.7491 44.9792 17.9176 45.7708 17.9176 46.6761C17.9176 47.5777 17.7491 48.3655 17.4119 49.0398C17.0748 49.714 16.6013 50.2386 15.9915 50.6136C15.3816 50.9886 14.6676 51.1761 13.8494 51.1761ZM13.8551 49.75C14.3854 49.75 14.8248 49.6098 15.1733 49.3295C15.5218 49.0492 15.7794 48.6761 15.946 48.2102C16.1165 47.7443 16.2017 47.2311 16.2017 46.6705C16.2017 46.1136 16.1165 45.6023 15.946 45.1364C15.7794 44.6667 15.5218 44.2898 15.1733 44.0057C14.8248 43.7216 14.3854 43.5795 13.8551 43.5795C13.321 43.5795 12.8778 43.7216 12.5256 44.0057C12.1771 44.2898 11.9176 44.6667 11.7472 45.1364C11.5805 45.6023 11.4972 46.1136 11.4972 46.6705C11.4972 47.2311 11.5805 47.7443 11.7472 48.2102C11.9176 48.6761 12.1771 49.0492 12.5256 49.3295C12.8778 49.6098 13.321 49.75 13.8551 49.75ZM21.4403 51L18.8722 42.2727H20.6278L22.3381 48.6818H22.4233L24.1392 42.2727H25.8949L27.5994 48.6534H27.6847L29.3835 42.2727H31.1392L28.5767 51H26.8438L25.071 44.6989H24.9403L23.1676 51H21.4403Z" fill="black"/>
<path d="M402.278 51V39.3636H404.034V44.4205H409.835V39.3636H411.597V51H409.835V45.9261H404.034V51H402.278ZM414.017 51V42.2727H415.716V51H414.017ZM414.875 40.9261C414.58 40.9261 414.326 40.8277 414.114 40.6307C413.905 40.4299 413.801 40.1913 413.801 39.9148C413.801 39.6345 413.905 39.3958 414.114 39.1989C414.326 38.9981 414.58 38.8977 414.875 38.8977C415.17 38.8977 415.422 38.9981 415.631 39.1989C415.843 39.3958 415.949 39.6345 415.949 39.9148C415.949 40.1913 415.843 40.4299 415.631 40.6307C415.422 40.8277 415.17 40.9261 414.875 40.9261ZM421.661 54.4545C420.967 54.4545 420.371 54.3636 419.871 54.1818C419.375 54 418.969 53.7595 418.655 53.4602C418.34 53.161 418.106 52.8333 417.95 52.4773L419.411 51.875C419.513 52.0417 419.649 52.2178 419.82 52.4034C419.994 52.5928 420.229 52.7538 420.524 52.8864C420.823 53.0189 421.208 53.0852 421.678 53.0852C422.321 53.0852 422.854 52.928 423.274 52.6136C423.695 52.303 423.905 51.8068 423.905 51.125V49.4091H423.797C423.695 49.5947 423.547 49.8011 423.354 50.0284C423.164 50.2557 422.903 50.4527 422.57 50.6193C422.236 50.786 421.803 50.8693 421.268 50.8693C420.579 50.8693 419.958 50.7083 419.405 50.3864C418.856 50.0606 418.42 49.5814 418.098 48.9489C417.78 48.3125 417.621 47.5303 417.621 46.6023C417.621 45.6742 417.778 44.8788 418.092 44.2159C418.411 43.553 418.846 43.0455 419.399 42.6932C419.952 42.3371 420.579 42.1591 421.28 42.1591C421.821 42.1591 422.259 42.25 422.592 42.4318C422.926 42.6098 423.185 42.8182 423.371 43.0568C423.56 43.2955 423.706 43.5057 423.808 43.6875H423.933V42.2727H425.598V51.1932C425.598 51.9432 425.424 52.5587 425.075 53.0398C424.727 53.5208 424.255 53.8769 423.661 54.108C423.07 54.339 422.403 54.4545 421.661 54.4545ZM421.643 49.4602C422.132 49.4602 422.545 49.3466 422.882 49.1193C423.223 48.8883 423.481 48.5587 423.655 48.1307C423.833 47.6989 423.922 47.1818 423.922 46.5795C423.922 45.9924 423.835 45.4754 423.661 45.0284C423.486 44.5814 423.231 44.233 422.893 43.983C422.556 43.7292 422.14 43.6023 421.643 43.6023C421.132 43.6023 420.706 43.7348 420.365 44C420.024 44.2614 419.767 44.6174 419.592 45.0682C419.422 45.5189 419.337 46.0227 419.337 46.5795C419.337 47.1515 419.424 47.6534 419.598 48.0852C419.772 48.517 420.03 48.8542 420.371 49.0966C420.715 49.339 421.14 49.4602 421.643 49.4602ZM429.575 45.8182V51H427.876V39.3636H429.553V43.6932H429.661C429.865 43.2235 430.178 42.8504 430.598 42.5739C431.018 42.2973 431.568 42.1591 432.246 42.1591C432.844 42.1591 433.367 42.2822 433.814 42.5284C434.265 42.7746 434.613 43.142 434.859 43.6307C435.109 44.1155 435.234 44.7216 435.234 45.4489V51H433.536V45.6534C433.536 45.0133 433.371 44.517 433.041 44.1648C432.712 43.8087 432.253 43.6307 431.666 43.6307C431.265 43.6307 430.905 43.7159 430.587 43.8864C430.272 44.0568 430.024 44.3068 429.842 44.6364C429.664 44.9621 429.575 45.3561 429.575 45.8182Z" fill="black"/>
<defs>
<linearGradient id="paint0_linear_1299_79699" x1="1.25732e-06" y1="11" x2="436" y2="11.0001" gradientUnits="userSpaceOnUse">
<stop stop-color="#EBF8FF"/>
<stop offset="0.473958" stop-color="#1FA6EA"/>
<stop offset="1" stop-color="#0D1F30"/>
</linearGradient>
</defs>
</svg>
