<svg width="481" height="56" viewBox="0 0 481 56" fill="none" xmlns="http://www.w3.org/2000/svg">
<rect width="481" height="22" fill="url(#paint0_linear_1270_79422)"/>
<path d="M5.53409 39.3636V51H3.77273V41.125H3.70455L0.920455 42.9432V41.2614L3.82386 39.3636H5.53409Z" fill="black"/>
<path d="M443.534 39.3636V51H441.773V41.125H441.705L438.92 42.9432V41.2614L441.824 39.3636H443.534ZM450.733 51.1932C449.835 51.1894 449.068 50.9527 448.432 50.483C447.795 50.0133 447.309 49.3295 446.972 48.4318C446.634 47.5341 446.466 46.4527 446.466 45.1875C446.466 43.9261 446.634 42.8485 446.972 41.9545C447.313 41.0606 447.801 40.3788 448.438 39.9091C449.078 39.4394 449.843 39.2045 450.733 39.2045C451.623 39.2045 452.386 39.4413 453.023 39.9148C453.659 40.3845 454.146 41.0663 454.483 41.9602C454.824 42.8504 454.994 43.9261 454.994 45.1875C454.994 46.4564 454.826 47.5398 454.489 48.4375C454.152 49.3314 453.665 50.0152 453.028 50.4886C452.392 50.9583 451.627 51.1932 450.733 51.1932ZM450.733 49.6761C451.521 49.6761 452.136 49.2917 452.58 48.5227C453.027 47.7538 453.25 46.642 453.25 45.1875C453.25 44.2216 453.148 43.4053 452.943 42.7386C452.742 42.0682 452.453 41.5606 452.074 41.2159C451.699 40.8674 451.252 40.6932 450.733 40.6932C449.949 40.6932 449.333 41.0795 448.886 41.8523C448.439 42.625 448.214 43.7367 448.21 45.1875C448.21 46.1572 448.311 46.9773 448.511 47.6477C448.716 48.3144 449.006 48.8201 449.381 49.1648C449.756 49.5057 450.206 49.6761 450.733 49.6761ZM461.061 51.1932C460.163 51.1894 459.396 50.9527 458.76 50.483C458.124 50.0133 457.637 49.3295 457.3 48.4318C456.963 47.5341 456.794 46.4527 456.794 45.1875C456.794 43.9261 456.963 42.8485 457.3 41.9545C457.641 41.0606 458.129 40.3788 458.766 39.9091C459.406 39.4394 460.171 39.2045 461.061 39.2045C461.951 39.2045 462.714 39.4413 463.351 39.9148C463.987 40.3845 464.474 41.0663 464.811 41.9602C465.152 42.8504 465.322 43.9261 465.322 45.1875C465.322 46.4564 465.154 47.5398 464.817 48.4375C464.48 49.3314 463.993 50.0152 463.357 50.4886C462.72 50.9583 461.955 51.1932 461.061 51.1932ZM461.061 49.6761C461.849 49.6761 462.464 49.2917 462.908 48.5227C463.355 47.7538 463.578 46.642 463.578 45.1875C463.578 44.2216 463.476 43.4053 463.271 42.7386C463.071 42.0682 462.781 41.5606 462.402 41.2159C462.027 40.8674 461.58 40.6932 461.061 40.6932C460.277 40.6932 459.661 41.0795 459.214 41.8523C458.768 42.625 458.542 43.7367 458.538 45.1875C458.538 46.1572 458.639 46.9773 458.839 47.6477C459.044 48.3144 459.334 48.8201 459.709 49.1648C460.084 49.5057 460.535 49.6761 461.061 49.6761ZM471.389 51.1932C470.491 51.1894 469.724 50.9527 469.088 50.483C468.452 50.0133 467.965 49.3295 467.628 48.4318C467.291 47.5341 467.122 46.4527 467.122 45.1875C467.122 43.9261 467.291 42.8485 467.628 41.9545C467.969 41.0606 468.457 40.3788 469.094 39.9091C469.734 39.4394 470.499 39.2045 471.389 39.2045C472.279 39.2045 473.043 39.4413 473.679 39.9148C474.315 40.3845 474.802 41.0663 475.139 41.9602C475.48 42.8504 475.651 43.9261 475.651 45.1875C475.651 46.4564 475.482 47.5398 475.145 48.4375C474.808 49.3314 474.321 50.0152 473.685 50.4886C473.048 50.9583 472.283 51.1932 471.389 51.1932ZM471.389 49.6761C472.177 49.6761 472.793 49.2917 473.236 48.5227C473.683 47.7538 473.906 46.642 473.906 45.1875C473.906 44.2216 473.804 43.4053 473.599 42.7386C473.399 42.0682 473.109 41.5606 472.73 41.2159C472.355 40.8674 471.908 40.6932 471.389 40.6932C470.605 40.6932 469.99 41.0795 469.543 41.8523C469.096 42.625 468.87 43.7367 468.866 45.1875C468.866 46.1572 468.967 46.9773 469.168 47.6477C469.372 48.3144 469.662 48.8201 470.037 49.1648C470.412 49.5057 470.863 49.6761 471.389 49.6761Z" fill="black"/>
<defs>
<linearGradient id="paint0_linear_1270_79422" x1="1.38709e-06" y1="11" x2="481" y2="11.0001" gradientUnits="userSpaceOnUse">
<stop stop-color="#EBF8FF"/>
<stop offset="0.473958" stop-color="#1FA6EA"/>
<stop offset="1" stop-color="#0D1F30"/>
</linearGradient>
</defs>
</svg>
