<svg width="10" height="18" viewBox="0 0 10 18" fill="none" xmlns="http://www.w3.org/2000/svg">
<path d="M1.78033 0.96967C1.48744 0.676776 1.01256 0.676776 0.71967 0.96967C0.426777 1.26256 0.426777 1.73744 0.71967 2.03033L1.78033 0.96967ZM8.75 9L9.28033 9.53033C9.57322 9.23744 9.57322 8.76256 9.28033 8.46967L8.75 9ZM0.71967 15.9697C0.426776 16.2626 0.426776 16.7374 0.71967 17.0303C1.01256 17.3232 1.48744 17.3232 1.78033 17.0303L0.71967 15.9697ZM0.71967 2.03033L8.21967 9.53033L9.28033 8.46967L1.78033 0.96967L0.71967 2.03033ZM8.21967 8.46967L0.71967 15.9697L1.78033 17.0303L9.28033 9.53033L8.21967 8.46967Z" fill="#808080"/>
</svg>
