<svg width="20" height="20" viewBox="0 0 20 20" fill="none" xmlns="http://www.w3.org/2000/svg">
<path d="M7.75 19H7C7 19.2599 7.13459 19.5013 7.3557 19.638C7.57681 19.7746 7.85292 19.7871 8.08541 19.6708L7.75 19ZM1.91694 1.67769L2.04233 2.41713L1.91694 1.67769ZM11.0062 17.3719L11.3416 18.0427L11.0062 17.3719ZM12.909 10.841L13.4393 11.3713L12.909 10.841ZM18.341 5.40901L17.8107 4.87868L18.341 5.40901ZM18.0831 1.67767L17.9577 2.41711L18.0831 1.67767ZM18.2085 0.938222C15.5394 0.485609 12.7969 0.25 10.0001 0.25V1.75C12.7126 1.75 15.3711 1.97849 17.9577 2.41711L18.2085 0.938222ZM19.75 3.81802V2.77402H18.25V3.81802H19.75ZM13.4393 11.3713L18.8713 5.93934L17.8107 4.87868L12.3787 10.3107L13.4393 11.3713ZM13 15.3594V12.432H11.5V15.3594H13ZM8.08541 19.6708L11.3416 18.0427L10.6708 16.7011L7.41459 18.3292L8.08541 19.6708ZM7 12.432V19H8.5V12.432H7ZM1.12868 5.93934L6.56066 11.3713L7.62132 10.3107L2.18934 4.87868L1.12868 5.93934ZM0.25 2.77404V3.81802H1.75V2.77404H0.25ZM10.0001 0.25C7.20314 0.25 4.46066 0.485617 1.79154 0.938246L2.04233 2.41713C4.62893 1.9785 7.28752 1.75 10.0001 1.75V0.25ZM1.75 2.77404C1.75 2.59036 1.87899 2.44483 2.04233 2.41713L1.79154 0.938246C0.889169 1.09127 0.25 1.87678 0.25 2.77404H1.75ZM2.18934 4.87868C1.90804 4.59738 1.75 4.21584 1.75 3.81802H0.25C0.25 4.61367 0.566071 5.37673 1.12868 5.93934L2.18934 4.87868ZM8.5 12.432C8.5 11.6363 8.18393 10.8733 7.62132 10.3107L6.56066 11.3713C6.84197 11.6526 7 12.0342 7 12.432H8.5ZM11.5 15.3594C11.5 15.9276 11.179 16.447 10.6708 16.7011L11.3416 18.0427C12.358 17.5345 13 16.4957 13 15.3594H11.5ZM12.3787 10.3107C11.8161 10.8733 11.5 11.6363 11.5 12.432H13C13 12.0342 13.158 11.6526 13.4393 11.3713L12.3787 10.3107ZM18.25 3.81802C18.25 4.21584 18.092 4.59737 17.8107 4.87868L18.8713 5.93934C19.4339 5.37673 19.75 4.61367 19.75 3.81802H18.25ZM17.9577 2.41711C18.121 2.44481 18.25 2.59034 18.25 2.77402H19.75C19.75 1.87676 19.1108 1.09125 18.2085 0.938222L17.9577 2.41711Z" fill="#4E4E4E"/>
</svg>
