<svg width="16" height="16" viewBox="0 0 16 16" fill="none" xmlns="http://www.w3.org/2000/svg">
<path d="M12.5 4.625V6.875M12.5 6.875V9.125M12.5 6.875H14.75M12.5 6.875H10.25M8.5625 3.78125C8.5625 5.17922 7.42922 6.3125 6.03125 6.3125C4.63328 6.3125 3.5 5.17922 3.5 3.78125C3.5 2.38328 4.63328 1.25 6.03125 1.25C7.42922 1.25 8.5625 2.38328 8.5625 3.78125ZM1.25069 13.4257C1.25023 13.3985 1.25 13.3711 1.25 13.3438C1.25 10.7031 3.39064 8.5625 6.03125 8.5625C8.67186 8.5625 10.8125 10.7031 10.8125 13.3438V13.3457C10.8125 13.3724 10.8123 13.3991 10.8118 13.4257C9.41552 14.2664 7.77986 14.75 6.03125 14.75C4.28264 14.75 2.64698 14.2664 1.25069 13.4257Z" stroke="#159ADD" stroke-width="1.5" stroke-linecap="round" stroke-linejoin="round"/>
</svg>
